<svg xmlns="http://www.w3.org/2000/svg" xmlns:xlink="http://www.w3.org/1999/xlink" width="160" height="160" viewBox="0 0 160 160">
  <defs>
    <filter id="Rectangle_1988" x="16.892" y="83.762" width="135.365" height="108.238" filterUnits="userSpaceOnUse">
      <feOffset dy="16" input="SourceAlpha"/>
      <feGaussianBlur stdDeviation="12" result="blur"/>
      <feFlood flood-opacity="0.161"/>
      <feComposite operator="in" in2="blur"/>
      <feComposite in="SourceGraphic"/>
    </filter>
    <filter id="Path_9210" x="17.179" y="67.704" width="95.009" height="96.969" filterUnits="userSpaceOnUse">
      <feOffset dy="16" input="SourceAlpha"/>
      <feGaussianBlur stdDeviation="12" result="blur-2"/>
      <feFlood flood-opacity="0.161"/>
      <feComposite operator="in" in2="blur-2"/>
      <feComposite in="SourceGraphic"/>
    </filter>
    <filter id="Path_9212" x="21.486" y="56.108" width="90.766" height="94.031" filterUnits="userSpaceOnUse">
      <feOffset dy="16" input="SourceAlpha"/>
      <feGaussianBlur stdDeviation="12" result="blur-3"/>
      <feFlood flood-opacity="0.161"/>
      <feComposite operator="in" in2="blur-3"/>
      <feComposite in="SourceGraphic"/>
    </filter>
    <filter id="Path_9214" x="-8.124" y="0" width="148.263" height="116.037" filterUnits="userSpaceOnUse">
      <feOffset dy="16" input="SourceAlpha"/>
      <feGaussianBlur stdDeviation="12" result="blur-4"/>
      <feFlood flood-opacity="0.161"/>
      <feComposite operator="in" in2="blur-4"/>
      <feComposite in="SourceGraphic"/>
    </filter>
    <filter id="Path_9216" x="-6.369" y="1.482" width="146.169" height="163.512" filterUnits="userSpaceOnUse">
      <feOffset dy="16" input="SourceAlpha"/>
      <feGaussianBlur stdDeviation="12" result="blur-5"/>
      <feFlood flood-opacity="0.161"/>
      <feComposite operator="in" in2="blur-5"/>
      <feComposite in="SourceGraphic"/>
    </filter>
    <filter id="Path_9218" x="17.83" y="92.12" width="134.671" height="99.857" filterUnits="userSpaceOnUse">
      <feOffset dy="16" input="SourceAlpha"/>
      <feGaussianBlur stdDeviation="12" result="blur-6"/>
      <feFlood flood-opacity="0.161"/>
      <feComposite operator="in" in2="blur-6"/>
      <feComposite in="SourceGraphic"/>
    </filter>
    <filter id="Path_9219" x="17.83" y="83.03" width="134.671" height="108.183" filterUnits="userSpaceOnUse">
      <feOffset dy="16" input="SourceAlpha"/>
      <feGaussianBlur stdDeviation="12" result="blur-7"/>
      <feFlood flood-opacity="0.161"/>
      <feComposite operator="in" in2="blur-7"/>
      <feComposite in="SourceGraphic"/>
    </filter>
    <filter id="Rectangle_2000" x="-1.239" y="7.113" width="146.067" height="160.553" filterUnits="userSpaceOnUse">
      <feOffset dy="16" input="SourceAlpha"/>
      <feGaussianBlur stdDeviation="12" result="blur-8"/>
      <feFlood flood-opacity="0.161"/>
      <feComposite operator="in" in2="blur-8"/>
      <feComposite in="SourceGraphic"/>
    </filter>
    <filter id="Rectangle_2001" x="-1.232" y="10.665" width="146.057" height="152.932" filterUnits="userSpaceOnUse">
      <feOffset dy="16" input="SourceAlpha"/>
      <feGaussianBlur stdDeviation="12" result="blur-9"/>
      <feFlood flood-opacity="0.161"/>
      <feComposite operator="in" in2="blur-9"/>
      <feComposite in="SourceGraphic"/>
    </filter>
    <filter id="Rectangle_2002" x="32.885" y="10.665" width="111.94" height="133.234" filterUnits="userSpaceOnUse">
      <feOffset dy="16" input="SourceAlpha"/>
      <feGaussianBlur stdDeviation="12" result="blur-10"/>
      <feFlood flood-opacity="0.161"/>
      <feComposite operator="in" in2="blur-10"/>
      <feComposite in="SourceGraphic"/>
    </filter>
    <filter id="Rectangle_2003" x="52.636" y="36.122" width="89.497" height="85.648" filterUnits="userSpaceOnUse">
      <feOffset dy="16" input="SourceAlpha"/>
      <feGaussianBlur stdDeviation="12" result="blur-11"/>
      <feFlood flood-opacity="0.161"/>
      <feComposite operator="in" in2="blur-11"/>
      <feComposite in="SourceGraphic"/>
    </filter>
    <filter id="Path_9258" x="55.758" y="38.704" width="97.326" height="110.071" filterUnits="userSpaceOnUse">
      <feOffset dy="16" input="SourceAlpha"/>
      <feGaussianBlur stdDeviation="12" result="blur-12"/>
      <feFlood flood-opacity="0.161"/>
      <feComposite operator="in" in2="blur-12"/>
      <feComposite in="SourceGraphic"/>
    </filter>
    <filter id="Rectangle_2006" x="64.664" y="47.738" width="80.787" height="91.422" filterUnits="userSpaceOnUse">
      <feOffset dy="16" input="SourceAlpha"/>
      <feGaussianBlur stdDeviation="12" result="blur-13"/>
      <feFlood flood-opacity="0.161"/>
      <feComposite operator="in" in2="blur-13"/>
      <feComposite in="SourceGraphic"/>
    </filter>
    <filter id="Rectangle_2007" x="52.636" y="25.157" width="89.497" height="85.648" filterUnits="userSpaceOnUse">
      <feOffset dy="16" input="SourceAlpha"/>
      <feGaussianBlur stdDeviation="12" result="blur-14"/>
      <feFlood flood-opacity="0.161"/>
      <feComposite operator="in" in2="blur-14"/>
      <feComposite in="SourceGraphic"/>
    </filter>
    <filter id="Path_9269" x="53.516" y="26.339" width="110.805" height="95.937" filterUnits="userSpaceOnUse">
      <feOffset dy="16" input="SourceAlpha"/>
      <feGaussianBlur stdDeviation="12" result="blur-15"/>
      <feFlood flood-opacity="0.161"/>
      <feComposite operator="in" in2="blur-15"/>
      <feComposite in="SourceGraphic"/>
    </filter>
    <filter id="Path_9270" x="53.882" y="27.372" width="106.387" height="91.868" filterUnits="userSpaceOnUse">
      <feOffset dy="16" input="SourceAlpha"/>
      <feGaussianBlur stdDeviation="12" result="blur-16"/>
      <feFlood flood-opacity="0.161"/>
      <feComposite operator="in" in2="blur-16"/>
      <feComposite in="SourceGraphic"/>
    </filter>
    <filter id="Path_9302" x="53.516" y="26.339" width="110.805" height="95.937" filterUnits="userSpaceOnUse">
      <feOffset dy="16" input="SourceAlpha"/>
      <feGaussianBlur stdDeviation="12" result="blur-17"/>
      <feFlood flood-opacity="0.161"/>
      <feComposite operator="in" in2="blur-17"/>
      <feComposite in="SourceGraphic"/>
    </filter>
    <filter id="Rectangle_2010" x="54.968" y="33.15" width="78.034" height="75.484" filterUnits="userSpaceOnUse">
      <feOffset dy="16" input="SourceAlpha"/>
      <feGaussianBlur stdDeviation="12" result="blur-18"/>
      <feFlood flood-opacity="0.161"/>
      <feComposite operator="in" in2="blur-18"/>
      <feComposite in="SourceGraphic"/>
    </filter>
    <clipPath id="clip-path">
      <rect id="Rectangle_2246" data-name="Rectangle 2246" width="160" height="160" rx="16" transform="translate(449 -792)" fill="#f7f7f7"/>
    </clipPath>
    <filter id="Union_73" x="-8.125" y="0" width="176.25" height="192.001" filterUnits="userSpaceOnUse">
      <feOffset dy="16" input="SourceAlpha"/>
      <feGaussianBlur stdDeviation="12" result="blur-19"/>
      <feFlood flood-opacity="0.161"/>
      <feComposite operator="in" in2="blur-19"/>
      <feComposite in="SourceGraphic"/>
    </filter>
    <clipPath id="clip-path-2">
      <rect id="Rectangle_1988-2" data-name="Rectangle 1988" width="63.365" height="36.238" fill="none"/>
    </clipPath>
    <linearGradient id="linear-gradient" x1="-3.265" y1="2.555" x2="-3.217" y2="2.555" gradientUnits="objectBoundingBox">
      <stop offset="0" stop-color="#f8f6fa"/>
      <stop offset="1" stop-color="#fbf8fc"/>
    </linearGradient>
    <clipPath id="clip-path-3">
      <path id="Path_9210-2" data-name="Path 9210" d="M71.611,65.751,66.723,76.565a2.48,2.48,0,0,0,.16,1.98,4.264,4.264,0,0,0,.685,1.091,3.139,3.139,0,0,0,.774.647L86.321,69.847a3.113,3.113,0,0,1-.774-.647,4.312,4.312,0,0,1-.684-1.083A2.492,2.492,0,0,1,84.7,66.13L89.59,55.315Z" transform="translate(-66.581 -55.315)" fill="none"/>
    </clipPath>
    <linearGradient id="linear-gradient-2" x1="-2.361" y1="1.696" x2="-2.323" y2="1.696" gradientUnits="objectBoundingBox">
      <stop offset="0" stop-color="#cfcad5"/>
      <stop offset="1" stop-color="#eae7ed"/>
    </linearGradient>
    <clipPath id="clip-path-4">
      <path id="Path_9212-2" data-name="Path 9212" d="M88.079,45.87,70.1,56.307a.319.319,0,0,1,.319.032.847.847,0,0,1,.214.18,1.081,1.081,0,0,1,.173.27.916.916,0,0,1,.082.361l-.031,10.531-.034.191L88.8,57.437l.034-.192.029-10.53a.9.9,0,0,0-.081-.36,1.052,1.052,0,0,0-.173-.273A.842.842,0,0,0,88.4,45.9a.407.407,0,0,0-.2-.062.231.231,0,0,0-.116.029" transform="translate(-70.1 -45.841)" fill="none"/>
    </clipPath>
    <linearGradient id="linear-gradient-3" x1="-4.572" y1="2.9" x2="-4.507" y2="2.9" gradientUnits="objectBoundingBox">
      <stop offset="0" stop-color="#e0dbe1"/>
      <stop offset="1" stop-color="#e0dbe1"/>
    </linearGradient>
    <clipPath id="clip-path-5">
      <path id="Path_9214-2" data-name="Path 9214" d="M120.733,0,45.908,43.2l1.438.836L122.171.837Z" transform="translate(-45.908 0)" fill="none"/>
    </clipPath>
    <linearGradient id="linear-gradient-4" x1="-0.737" y1="2.725" x2="-0.721" y2="2.725" xlink:href="#linear-gradient"/>
    <clipPath id="clip-path-6">
      <path id="Path_9216-2" data-name="Path 9216" d="M47.353,44.025,121.511,1.211l-.011,48.7L47.342,92.723Z" transform="translate(-47.342 -1.211)" fill="none"/>
    </clipPath>
    <linearGradient id="linear-gradient-5" x1="-0.307" y1="1.128" x2="-0.297" y2="1.128" gradientUnits="objectBoundingBox">
      <stop offset="0" stop-color="#5917ff"/>
      <stop offset="0.158" stop-color="#6d21f8"/>
      <stop offset="0.483" stop-color="#a13ce6"/>
      <stop offset="0.942" stop-color="#f368ca"/>
      <stop offset="1" stop-color="#ff6ec7"/>
    </linearGradient>
    <clipPath id="clip-path-7">
      <path id="Path_9218-2" data-name="Path 9218" d="M67.113,93.25v.783a.5.5,0,0,0,.3.414l14.723,8.5a1.592,1.592,0,0,0,1.434,0l45.918-26.512a.5.5,0,0,0,.3-.414v-.76Z" transform="translate(-67.113 -75.263)" fill="none"/>
    </clipPath>
    <linearGradient id="linear-gradient-6" x1="-1.311" y1="0.999" x2="-1.291" y2="0.999" xlink:href="#linear-gradient-3"/>
    <clipPath id="clip-path-8">
      <path id="Path_9219-2" data-name="Path 9219" d="M113.329,68.009,67.41,94.52a.437.437,0,0,0,0,.829l14.723,8.5a1.592,1.592,0,0,0,1.434,0l45.918-26.511a.438.438,0,0,0,0-.83l-14.723-8.5a1.577,1.577,0,0,0-1.434,0" transform="translate(-67.113 -67.836)" fill="none"/>
    </clipPath>
    <linearGradient id="linear-gradient-7" x1="-1.305" y1="1.02" x2="-1.286" y2="1.02" gradientUnits="objectBoundingBox">
      <stop offset="0" stop-color="#f8f6fa"/>
      <stop offset="1" stop-color="#faf8fc"/>
    </linearGradient>
    <clipPath id="clip-path-9">
      <rect id="Rectangle_2000-2" data-name="Rectangle 2000" width="74.067" height="88.553" fill="none"/>
    </clipPath>
    <clipPath id="clip-path-10">
      <rect id="Rectangle_2001-2" data-name="Rectangle 2001" width="74.057" height="80.932" fill="none"/>
    </clipPath>
    <clipPath id="clip-path-11">
      <rect id="Rectangle_2002-2" data-name="Rectangle 2002" width="39.94" height="61.234" fill="none"/>
    </clipPath>
    <clipPath id="clip-path-12">
      <rect id="Rectangle_2003-2" data-name="Rectangle 2003" width="17.497" height="13.648" fill="none"/>
    </clipPath>
    <clipPath id="clip-path-13">
      <path id="Path_9258-2" data-name="Path 9258" d="M98.1,38.355l4.4,2.542a5.742,5.742,0,0,1,1.416,1.192,7.8,7.8,0,0,1,1.258,1.979,6.117,6.117,0,0,1,.562,2.433l-.037,16.93a5.875,5.875,0,0,0,.541,2.34,7.582,7.582,0,0,0,1.213,1.909,5.539,5.539,0,0,0,1.36,1.144l.764.441a2.2,2.2,0,0,0,2.22.214l11.625-6.755a2.2,2.2,0,0,1-2.222-.214l-.764-.441a5.568,5.568,0,0,1-1.36-1.146,7.607,7.607,0,0,1-1.213-1.909,5.865,5.865,0,0,1-.541-2.339l.038-16.93a6.108,6.108,0,0,0-.562-2.433,7.868,7.868,0,0,0-1.259-1.98,5.786,5.786,0,0,0-1.415-1.192l-4.367-2.52Z" transform="translate(-98.101 -31.621)" fill="none"/>
    </clipPath>
    <linearGradient id="linear-gradient-8" x1="-2.735" y1="1.859" x2="-2.705" y2="1.859" gradientUnits="objectBoundingBox">
      <stop offset="0" stop-color="#f8f5f4"/>
      <stop offset="0.502" stop-color="#f8f5f4"/>
      <stop offset="1" stop-color="#e8e5e5"/>
    </linearGradient>
    <clipPath id="clip-path-14">
      <rect id="Rectangle_2006-2" data-name="Rectangle 2006" width="8.787" height="19.422" fill="none"/>
    </clipPath>
    <clipPath id="clip-path-16">
      <path id="Path_9269-2" data-name="Path 9269" d="M96.269,30.947v1.515l22.476,12.994,16.329-9.428L112.6,21.519Z" transform="translate(-96.269 -21.519)" fill="none"/>
    </clipPath>
    <clipPath id="clip-path-17">
      <path id="Path_9270-2" data-name="Path 9270" d="M96.568,30.546l19.706,11.4a2.231,2.231,0,0,0,2,.084l12.33-7.1c.514-.3.45-.813-.142-1.155L110.742,22.363Z" transform="translate(-96.568 -22.363)" fill="none"/>
    </clipPath>
    <linearGradient id="linear-gradient-9" x1="0.5" x2="0.5" y2="1" gradientUnits="objectBoundingBox">
      <stop offset="0" stop-color="#077437"/>
      <stop offset="1" stop-color="#57e194"/>
    </linearGradient>
    <clipPath id="clip-path-19">
      <rect id="Rectangle_2010-2" data-name="Rectangle 2010" width="6.034" height="3.484" fill="none"/>
    </clipPath>
  </defs>
  <g id="payable" transform="translate(-449 792)">
    <g id="Mask_Group_19" data-name="Mask Group 19" clip-path="url(#clip-path)">
      <g id="Group_31577" data-name="Group 31577">
        <rect id="Rectangle_1963" data-name="Rectangle 1963" width="160" height="160" rx="16" transform="translate(449 -792)" fill="#f7f7f7"/>
        <g id="Group_30502" data-name="Group 30502" transform="translate(430.968 -772)">
          <g transform="matrix(1, 0, 0, 1, 18.03, -20)" filter="url(#Union_73)">
            <path id="Union_73-2" data-name="Union 73" d="M-1270.933,891.89l-14.723-8.5a.516.516,0,0,1-.3-.4v-.033a.513.513,0,0,1,.3-.4l.643-.371v-.084h0a.516.516,0,0,1,.3-.394l22-12.7h-11.719l-1.868,1.085c.14-.081.149-.671.025-.951a.246.246,0,0,0-.018-.037c.164.3.133,1.11-.085.983l-1.87-1.079h-5.648v-3.26l0,0a5.742,5.742,0,0,1-2.228-2.658,3.987,3.987,0,0,1-.261-3.047l.7-1.542-23.812,13.748h0l-1.439-.836-.022-56.215,74.825-43.2,1.437.837-74.824,43.2.023,56.193-.022-56.193,74.824-43.2,0,5.725,4.687-2.706v26.277l14.952,8.65a1.242,1.242,0,0,1,.325.262.6.6,0,0,1,.164.408c.01.1.014.184.024.277a.575.575,0,0,1-.343.552l-12.33,7.1a1.585,1.585,0,0,1-.6.184l-.036,16.193a4.939,4.939,0,0,0,.1,1l7.872-4.574a2.286,2.286,0,0,1,2.309.224l10.853,6.265-11.626,6.755-4.661-2.692h0l4.662,2.692,11.625-6.755v.14l-11.625,6.755-4.784-2.763-10.139,5.892a1.672,1.672,0,0,1-.884.237,2.945,2.945,0,0,1-1.453-.444l-.765-.44a7.139,7.139,0,0,1-3.235-5.606l.023-10.563-26.437,15.263-1.525,3.375a2.49,2.49,0,0,0,.161,1.986,4.323,4.323,0,0,0,.684,1.083,3.121,3.121,0,0,0,.772.647h7.522v4.4a.226.226,0,0,1,.047-.022.382.382,0,0,1,.055.094c.123.281.113.87-.026.95l-.076.044v6.817l19.606-11.32a1.457,1.457,0,0,1,.717-.173,1.461,1.461,0,0,1,.717.173l14.723,8.5a.5.5,0,0,1,.3.419h0v.76a.5.5,0,0,1-.3.413l-45.919,26.512a1.331,1.331,0,0,1-.454.151.977.977,0,0,1-.188.025c-.183.009-.445.018-.714.018A2.931,2.931,0,0,1-1270.933,891.89ZM-1276.384,869.013Zm-8.977-6.072a4.442,4.442,0,0,0,.347.639,4.508,4.508,0,0,1-.349-.645,3.819,3.819,0,0,1-.2-.554A3.869,3.869,0,0,0-1285.361,862.941Zm-.2-.577,0-.015Zm-.1-.686s0-.009,0-.014S-1285.664,861.673-1285.664,861.678Zm0-.017a1.649,1.649,0,0,1,.141-.707A1.642,1.642,0,0,0-1285.665,861.661Zm49.3-13.753.765.441a2.169,2.169,0,0,0,2.27.184l-.05.029a1.617,1.617,0,0,1-.824.212,2.84,2.84,0,0,1-1.4-.427l-.763-.44a4.992,4.992,0,0,1-.79-.573A4.957,4.957,0,0,0-1236.369,847.908Zm-.8-.583-.022-.02Zm-.051-.045,0,0Zm-2.165-3.807,0-.01Zm-.009-.044-.007-.036Zm-.09-.914a4.833,4.833,0,0,0,.08.864,4.794,4.794,0,0,1-.079-.865l.018-8.446Z" transform="translate(1338.84 -752)" fill="#f7f7f7"/>
          </g>
        </g>
        <g id="Group_30588" data-name="Group 30588" transform="translate(430.968 -772)">
          <g id="Group_30569" data-name="Group 30569" transform="translate(70.924 83.761)">
            <g id="Group_30575" data-name="Group 30575" opacity="0.4" style="mix-blend-mode: multiply;isolation: isolate">
              <g id="Group_30506" data-name="Group 30506">
                <g id="Group_30505" data-name="Group 30505" clip-path="url(#clip-path-2)">
                  <path id="Path_9207" data-name="Path 9207" d="M83.544,104.525a.945.945,0,0,1-.447.13,5.719,5.719,0,0,1-1.732-.092l-14.723-8.5a.438.438,0,0,1,0-.829l45.92-26.512a2.694,2.694,0,0,1,2.425,0l14.723,8.5c.381.22-42.841,25.368-46.166,27.3" transform="translate(-66.347 -68.434)" fill="#50197c"/>
                </g>
              </g>
            </g>
          </g>
          <g id="Group_30570" data-name="Group 30570" transform="translate(72.972 82.235)">
            <rect id="Rectangle_2013" data-name="Rectangle 2013" width="25.499" height="14.778" fill="url(#linear-gradient)"/>
          </g>
          <g id="Group_30571" data-name="Group 30571" transform="translate(80.492 86.616)">
            <path id="Path_9357" data-name="Path 9357" d="M92.244,70.86a.374.374,0,0,0-.055-.093c-.047-.039-18.025,10.4-18.025,10.4a.356.356,0,0,1,.1.133c.124.28.114.87-.026.951L92.219,71.811c.14-.081.149-.67.026-.951" transform="translate(-74.164 -70.767)" fill="#e0dbe1"/>
          </g>
          <g id="Group_30572" data-name="Group 30572" transform="translate(71.212 67.704)">
            <g id="Group_30514" data-name="Group 30514" clip-path="url(#clip-path-3)">
              <rect id="Rectangle_1992" data-name="Rectangle 1992" width="32.493" height="33.175" transform="translate(-10.907 6.242) rotate(-30)" fill="url(#linear-gradient-2)"/>
            </g>
          </g>
          <g id="Group_30573" data-name="Group 30573" transform="translate(70.282 66.543)">
            <path id="Path_9356" data-name="Path 9356" d="M76.032,84.836,68.512,80.5a3.736,3.736,0,0,1-1.458-1.731,2.486,2.486,0,0,1-.162-1.987l4.889-10.815.034-.192.029-10.531a1,1,0,0,0-.468-.81c-.252-.146-.454-.031-.455.278L70.893,65.14,66.02,75.87a3.989,3.989,0,0,0,.261,3.048,5.743,5.743,0,0,0,2.229,2.657l7.52,4.341c.251.146.255-.934,0-1.08" transform="translate(-65.822 -54.367)" fill="#c0b9c8"/>
          </g>
          <g id="Group_30574" data-name="Group 30574" transform="translate(75.518 56.108)">
            <g id="Group_30518" data-name="Group 30518" clip-path="url(#clip-path-4)">
              <rect id="Rectangle_1994" data-name="Rectangle 1994" width="18.766" height="22.031" transform="translate(0 -0.001)" fill="url(#linear-gradient-3)"/>
            </g>
          </g>
          <path id="Path_9206" data-name="Path 9206" d="M47.368,92.346l-1.439-.836L45.908,35.3l1.438.836Z" transform="translate(0 7.905)" fill="#c0b9c8"/>
          <g id="Group_30575-2" data-name="Group 30575" transform="translate(45.908 0)">
            <g id="Group_30520" data-name="Group 30520" clip-path="url(#clip-path-5)">
              <rect id="Rectangle_1995" data-name="Rectangle 1995" width="76.263" height="44.037" fill="url(#linear-gradient-4)"/>
            </g>
          </g>
          <path id="Path_9207-2" data-name="Path 9207" d="M121.908.683,121.93,56.9,47.105,100.1l-.022-56.215Z" transform="translate(0.263 0.153)" fill="#e0dbe1"/>
          <g id="Group_30576" data-name="Group 30576" transform="translate(47.663 1.482)">
            <g id="Group_30522" data-name="Group 30522" clip-path="url(#clip-path-6)">
              <rect id="Rectangle_1996" data-name="Rectangle 1996" width="117.759" height="115.804" transform="translate(-45.175 53.028) rotate(-49.572)" fill="url(#linear-gradient-5)"/>
            </g>
          </g>
          <g id="Group_30577" data-name="Group 30577" transform="translate(86.377 71.401)">
            <path id="Path_9355" data-name="Path 9355" d="M82.264,59.75l-2.636,1.523c-.362.209-.656.084-.656-.278a1.358,1.358,0,0,1,.656-1.034l2.636-1.523c.362-.209.656-.086.656.278a1.36,1.36,0,0,1-.656,1.034" transform="translate(-78.972 -58.336)" fill="#5917ff"/>
          </g>
          <g id="Group_30578" data-name="Group 30578" transform="translate(71.862 92.119)">
            <g id="Group_30526" data-name="Group 30526" clip-path="url(#clip-path-7)">
              <rect id="Rectangle_1998" data-name="Rectangle 1998" width="62.671" height="27.914" transform="translate(0 -0.001)" fill="url(#linear-gradient-6)"/>
            </g>
          </g>
          <g id="Group_30579" data-name="Group 30579" transform="translate(71.862 83.029)">
            <g id="Group_30528" data-name="Group 30528" clip-path="url(#clip-path-8)">
              <rect id="Rectangle_1999" data-name="Rectangle 1999" width="62.869" height="36.24" transform="translate(-0.099 -0.001)" fill="url(#linear-gradient-7)"/>
            </g>
          </g>
          <g id="Group_30580" data-name="Group 30580" transform="translate(52.793 3.855)">
            <path id="Path_9321" data-name="Path 9321" d="M106.164,72.984a.185.185,0,0,1,0-.064.193.193,0,0,1,0-.065.212.212,0,0,1,.127-.224l1.885-1.088a.729.729,0,0,1,.663,0l1.586.916a.208.208,0,0,1,.127.224.185.185,0,0,1,0,.064.192.192,0,0,1,0,.065.209.209,0,0,1-.127.224l-1.886,1.088a.729.729,0,0,1-.663,0l-1.585-.916a.212.212,0,0,1-.127-.224m3.171-1.534,1.586.916a.736.736,0,0,0,.663,0l1.886-1.089a.207.207,0,0,0,.126-.223.145.145,0,0,0,0-.065.145.145,0,0,0,0-.065.207.207,0,0,0-.126-.223l-1.586-.916a.729.729,0,0,0-.663,0l-1.886,1.088a.207.207,0,0,0-.125.224.117.117,0,0,0,0,.065.112.112,0,0,0,0,.064.207.207,0,0,0,.125.224m-6.089,3.515,1.586.916a.729.729,0,0,0,.663,0l1.886-1.088a.211.211,0,0,0,.127-.224.192.192,0,0,0,0-.065.185.185,0,0,0,0-.064.211.211,0,0,0-.127-.224L105.8,73.3a.736.736,0,0,0-.663,0l-1.886,1.088a.21.21,0,0,0-.126.224.145.145,0,0,0,0,.065.14.14,0,0,0,0,.064.209.209,0,0,0,.126.224M78.7,95.506l1.585.916a.736.736,0,0,0,.663,0l1.886-1.089a.211.211,0,0,0,.127-.224.185.185,0,0,0,0-.064.192.192,0,0,0,0-.065.211.211,0,0,0-.127-.224l-1.586-.916a.734.734,0,0,0-.662,0L78.7,94.93a.209.209,0,0,0-.127.223.192.192,0,0,0,0,.065.192.192,0,0,0,0,.065.211.211,0,0,0,.127.224M85.349,85.28l1.586.916a.729.729,0,0,0,.663,0l1.886-1.088a.21.21,0,0,0,.126-.224.145.145,0,0,0,0-.065.14.14,0,0,0,0-.064.21.21,0,0,0-.126-.224L87.9,83.615a.736.736,0,0,0-.663,0L85.349,84.7a.207.207,0,0,0-.125.223.117.117,0,0,0,0,.065.117.117,0,0,0,0,.065.207.207,0,0,0,.125.223m6.089-3.515,1.586.916a.731.731,0,0,0,.665,0l1.885-1.088a.21.21,0,0,0,.126-.224.145.145,0,0,0,0-.065.14.14,0,0,0,0-.064.209.209,0,0,0-.126-.224L93.988,80.1a.729.729,0,0,0-.663,0l-1.886,1.088a.21.21,0,0,0-.126.224.145.145,0,0,0,0,.065.139.139,0,0,0,0,.064.21.21,0,0,0,.126.224m6.089-3.515,1.586.916a.736.736,0,0,0,.663,0l2.867-1.656a.209.209,0,0,0,.127-.223.193.193,0,0,0,0-.065.193.193,0,0,0,0-.065.209.209,0,0,0-.127-.223l-1.585-.917a.736.736,0,0,0-.663,0l-2.868,1.656a.208.208,0,0,0-.126.224.14.14,0,0,0,0,.064.145.145,0,0,0,0,.065.208.208,0,0,0,.126.224m-3.044,1.758,1.586.916a.734.734,0,0,0,.662,0l1.887-1.089a.207.207,0,0,0,.125-.223.145.145,0,0,0,0-.065.145.145,0,0,0,0-.065.207.207,0,0,0-.125-.223l-1.587-.916a.729.729,0,0,0-.663,0L94.484,79.43a.211.211,0,0,0-.127.224.193.193,0,0,0,0,.065.185.185,0,0,0,0,.064.211.211,0,0,0,.127.224m-6.089,3.515,1.585.916a.729.729,0,0,0,.663,0l1.886-1.088a.211.211,0,0,0,.127-.224.192.192,0,0,0,0-.065.185.185,0,0,0,0-.064.21.21,0,0,0-.127-.224l-1.586-.916a.729.729,0,0,0-.663,0l-1.885,1.088a.211.211,0,0,0-.127.224.192.192,0,0,0,0,.065.185.185,0,0,0,0,.064.21.21,0,0,0,.127.224m12.951-4.25,1.585.916a.736.736,0,0,0,.663,0L105.48,79.1a.207.207,0,0,0,.126-.224.139.139,0,0,0,0-.064.145.145,0,0,0,0-.065.209.209,0,0,0-.126-.224l-1.586-.916a.736.736,0,0,0-.663,0L101.345,78.7a.208.208,0,0,0-.126.224.113.113,0,0,0,0,.064.117.117,0,0,0,0,.065.208.208,0,0,0,.126.224M76.988,93.335l1.587.916a.736.736,0,0,0,.663,0l1.885-1.089a.208.208,0,0,0,.126-.223.145.145,0,0,0,0-.065.145.145,0,0,0,0-.065.21.21,0,0,0-.126-.224l-1.586-.916a.736.736,0,0,0-.663,0l-1.886,1.089a.21.21,0,0,0-.126.224.139.139,0,0,0,0,.064.145.145,0,0,0,0,.065.21.21,0,0,0,.126.224M98.3,81.03l1.586.916a.736.736,0,0,0,.663,0l1.886-1.089a.209.209,0,0,0,.127-.223.192.192,0,0,0,0-.065.192.192,0,0,0,0-.065.209.209,0,0,0-.127-.223l-1.586-.916a.729.729,0,0,0-.663,0L98.3,80.454a.21.21,0,0,0-.126.224.145.145,0,0,0,0,.065.14.14,0,0,0,0,.064.21.21,0,0,0,.126.224m-3.044,1.758,1.585.916a.736.736,0,0,0,.663,0l1.886-1.088a.213.213,0,0,0,.129-.224.286.286,0,0,0,0-.065.276.276,0,0,0,0-.064.213.213,0,0,0-.129-.224L97.8,81.123a.729.729,0,0,0-.663,0l-1.885,1.088a.212.212,0,0,0-.127.224.192.192,0,0,0,0,.065.185.185,0,0,0,0,.064.212.212,0,0,0,.127.224m-3.045,1.758,1.586.916a.729.729,0,0,0,.663,0l1.886-1.088a.21.21,0,0,0,.126-.224.145.145,0,0,0,0-.065.14.14,0,0,0,0-.064.209.209,0,0,0-.126-.224l-1.586-.916a.726.726,0,0,0-.662,0l-1.887,1.088a.21.21,0,0,0-.126.224.145.145,0,0,0,0,.065.14.14,0,0,0,0,.064.209.209,0,0,0,.126.224M80.034,91.577l1.586.916a.736.736,0,0,0,.663,0L84.169,91.4a.208.208,0,0,0,.125-.224.14.14,0,0,0,0-.064.145.145,0,0,0,0-.065.208.208,0,0,0-.125-.224l-1.587-.916a.736.736,0,0,0-.663,0L80.034,91a.21.21,0,0,0-.127.224.185.185,0,0,0,0,.064.192.192,0,0,0,0,.065.211.211,0,0,0,.127.224m3.044-1.758,1.586.916a.736.736,0,0,0,.663,0l1.886-1.089a.21.21,0,0,0,.126-.224.14.14,0,0,0,0-.064.145.145,0,0,0,0-.065.21.21,0,0,0-.126-.224c-2.334-1.346-1.546-1.322-4.136.174a.207.207,0,0,0-.126.223.145.145,0,0,0,0,.065.145.145,0,0,0,0,.065.209.209,0,0,0,.126.224m3.044-1.759,1.586.916a.729.729,0,0,0,.663,0l1.886-1.088a.208.208,0,0,0,.126-.224.14.14,0,0,0,0-.064.145.145,0,0,0,0-.065.208.208,0,0,0-.126-.224L88.671,86.4a.736.736,0,0,0-.663,0l-1.886,1.089a.208.208,0,0,0-.126.223.145.145,0,0,0,0,.065.145.145,0,0,0,0,.065.208.208,0,0,0,.126.223M89.168,86.3c1.556.9,1.825,1.16,2.248.916L93.3,86.13a.211.211,0,0,0,.127-.224.192.192,0,0,0,0-.065.185.185,0,0,0,0-.064.211.211,0,0,0-.127-.224l-1.584-.916a.739.739,0,0,0-.665,0l-1.885,1.088a.208.208,0,0,0-.127.224.145.145,0,0,0,0,.065.14.14,0,0,0,0,.064.207.207,0,0,0,.127.224m-5.43,11.586a.185.185,0,0,0,0-.064.193.193,0,0,0,0-.065.211.211,0,0,0-.127-.224l-1.584-.916a.739.739,0,0,0-.665,0L78.5,98.277a.209.209,0,0,0-.126.224.14.14,0,0,0,0,.064.145.145,0,0,0,0,.065.21.21,0,0,0,.126.224l1.586.916a.736.736,0,0,0,.663,0l2.867-1.656a.21.21,0,0,0,.127-.224m-3.818-1.023a.14.14,0,0,0,0-.064.145.145,0,0,0,0-.065.21.21,0,0,0-.126-.224L78.209,95.6a.736.736,0,0,0-.663,0l-1.886,1.089a.208.208,0,0,0-.125.224.112.112,0,0,0,0,.064.117.117,0,0,0,0,.065.208.208,0,0,0,.125.224l1.586.916a.736.736,0,0,0,.663,0l1.886-1.089a.209.209,0,0,0,.126-.224m2.384-9.828c2.285,1.321,1.5,1.351,4.135-.173a.209.209,0,0,0,.127-.224.185.185,0,0,0,0-.064.193.193,0,0,0,0-.065.209.209,0,0,0-.127-.224l-1.585-.916a.736.736,0,0,0-.663,0l-1.886,1.089a.205.205,0,0,0-.125.223.117.117,0,0,0,0,.065.117.117,0,0,0,0,.065.205.205,0,0,0,.125.223m33.537-7.657a.145.145,0,0,0,0-.065.14.14,0,0,0,0-.064.208.208,0,0,0-.126-.224l-1.586-.916a.736.736,0,0,0-.663,0L111.58,79.2a.207.207,0,0,0-.126.223.145.145,0,0,0,0,.065.145.145,0,0,0,0,.065.207.207,0,0,0,.126.223l1.586.916a.729.729,0,0,0,.663,0l1.886-1.088a.208.208,0,0,0,.126-.224M78.206,94.7a.193.193,0,0,0,0-.065.193.193,0,0,0,0-.065.208.208,0,0,0-.127-.223l-1.585-.916a.729.729,0,0,0-.663,0l-2.868,1.655a.208.208,0,0,0-.126.224.14.14,0,0,0,0,.064.145.145,0,0,0,0,.065.208.208,0,0,0,.126.224l1.586.916a.736.736,0,0,0,.663,0l2.867-1.656a.208.208,0,0,0,.127-.223m1.055-5.9,1.585.916a.736.736,0,0,0,.663,0L83.4,88.622a.209.209,0,0,0,.127-.224.185.185,0,0,0,0-.064.192.192,0,0,0,0-.065.209.209,0,0,0-.127-.224L81.81,87.13a.736.736,0,0,0-.663,0L79.261,88.22a.208.208,0,0,0-.127.224.14.14,0,0,0,0,.064.145.145,0,0,0,0,.065.209.209,0,0,0,.127.224m-3.045,1.758,1.586.916a.736.736,0,0,0,.663,0l1.886-1.089a.209.209,0,0,0,.126-.224.139.139,0,0,0,0-.064.145.145,0,0,0,0-.065.21.21,0,0,0-.126-.224l-1.586-.916a.736.736,0,0,0-.663,0l-1.886,1.089a.209.209,0,0,0-.126.224.14.14,0,0,0,0,.064.145.145,0,0,0,0,.065.21.21,0,0,0,.126.224m-1.827,3.119a.117.117,0,0,0,0-.065.113.113,0,0,0,0-.064.209.209,0,0,0-.126-.224L72.678,92.4a.729.729,0,0,0-.663,0l-1.886,1.088a.209.209,0,0,0-.127.224.145.145,0,0,0,0,.065.14.14,0,0,0,0,.064.209.209,0,0,0,.127.224l1.585.916a.736.736,0,0,0,.663,0L74.263,93.9a.208.208,0,0,0,.126-.223m-1.217-1.361,1.585.916a.736.736,0,0,0,.663,0l1.886-1.089a.209.209,0,0,0,.127-.223.193.193,0,0,0,0-.065.192.192,0,0,0,0-.065.209.209,0,0,0-.127-.223l-1.585-.917a.736.736,0,0,0-.663,0l-1.886,1.089a.211.211,0,0,0-.127.224.185.185,0,0,0,0,.064.192.192,0,0,0,0,.065.211.211,0,0,0,.127.224m51.542-14.969a.208.208,0,0,0-.127-.223L123,76.2a.729.729,0,0,0-.663,0l-1.886,1.088a.21.21,0,0,0-.126.224.145.145,0,0,0,0,.065.14.14,0,0,0,0,.064.21.21,0,0,0,.126.224l1.586.916a.729.729,0,0,0,.663,0l1.885-1.088a.21.21,0,0,0,.127-.224.192.192,0,0,0,0-.065.192.192,0,0,0,0-.065M113.72,74.4l-2.088-1.2a.905.905,0,0,0-.824,0l-4.78,2.759a.262.262,0,0,0-.159.269.193.193,0,0,0,0,.065.192.192,0,0,0,0,.065.262.262,0,0,0,.159.269l4.166,2.405a.913.913,0,0,0,.824,0l7.925-4.576a.263.263,0,0,0,.16-.271.185.185,0,0,0,0-.064.192.192,0,0,0,0-.065.264.264,0,0,0-.16-.271l-1.55-.895a.609.609,0,0,0-.548,0L114.182,74.4a.51.51,0,0,1-.463,0m-2.707,7.316-1.586-.916a.736.736,0,0,0-.663,0l-1.885,1.089a.209.209,0,0,0-.127.223.145.145,0,0,0,0,.065.145.145,0,0,0,0,.065.209.209,0,0,0,.127.223l1.585.917a.736.736,0,0,0,.663,0l1.886-1.089a.208.208,0,0,0,.126-.224.14.14,0,0,0,0-.064.145.145,0,0,0,0-.065.208.208,0,0,0-.126-.224m7.748-4.447-1.586-.916a.729.729,0,0,0-.663,0l-1.885,1.088a.209.209,0,0,0-.127.224.145.145,0,0,0,0,.065.14.14,0,0,0,0,.064.208.208,0,0,0,.127.224l1.586.916a.729.729,0,0,0,.663,0l1.885-1.088a.208.208,0,0,0,.126-.224.145.145,0,0,0,0-.065.14.14,0,0,0,0-.064.208.208,0,0,0-.126-.224m-13.837,7.962-1.585-.916a.739.739,0,0,0-.665,0l-1.885,1.089a.21.21,0,0,0-.127.224.276.276,0,0,0,0,.064.286.286,0,0,0,0,.065.211.211,0,0,0,.127.224l1.585.916a.739.739,0,0,0,.665,0l1.885-1.089a.209.209,0,0,0,.127-.223.193.193,0,0,0,0-.065.193.193,0,0,0,0-.065.211.211,0,0,0-.127-.224m12.62-9.323a.192.192,0,0,0,0,.065.185.185,0,0,0,0,.064.207.207,0,0,0,.126.224l1.587.916a.729.729,0,0,0,.663,0l1.885-1.088a.211.211,0,0,0,.126-.224.193.193,0,0,0,0-.065.186.186,0,0,0,0-.064.21.21,0,0,0-.126-.224l-1.586-.916a.729.729,0,0,0-.663,0l-1.886,1.088a.208.208,0,0,0-.126.224m-24.8,16.355-1.586-.916a.729.729,0,0,0-.663,0L88.61,92.436a.21.21,0,0,0-.126.224.145.145,0,0,0,0,.065.14.14,0,0,0,0,.064.209.209,0,0,0,.126.224l1.586.916a.729.729,0,0,0,.663,0l1.886-1.088a.208.208,0,0,0,.126-.224.145.145,0,0,0,0-.065.14.14,0,0,0,0-.064.207.207,0,0,0-.126-.224m6.088-3.515-1.585-.916a.729.729,0,0,0-.663,0L94.7,88.921a.21.21,0,0,0-.126.224.145.145,0,0,0,0,.065.14.14,0,0,0,0,.064.21.21,0,0,0,.126.224l1.586.916a.736.736,0,0,0,.663,0l1.885-1.089a.208.208,0,0,0,.127-.223.145.145,0,0,0,0-.065.145.145,0,0,0,0-.065.208.208,0,0,0-.127-.223M95.79,90.506,94.2,89.591a.729.729,0,0,0-.663,0l-1.885,1.088a.209.209,0,0,0-.127.224.145.145,0,0,0,0,.065.14.14,0,0,0,0,.064.208.208,0,0,0,.127.224l1.585.916a.729.729,0,0,0,.663,0l1.886-1.088a.209.209,0,0,0,.127-.224.193.193,0,0,0,0-.065.185.185,0,0,0,0-.064.208.208,0,0,0-.127-.224M89.7,94.021l-1.586-.916a.736.736,0,0,0-.663,0L85.566,94.2a.209.209,0,0,0-.127.223.192.192,0,0,0,0,.065.193.193,0,0,0,0,.065.209.209,0,0,0,.127.223l1.585.916a.729.729,0,0,0,.663,0L89.7,94.6a.211.211,0,0,0,.127-.224.192.192,0,0,0,0-.065.185.185,0,0,0,0-.064.211.211,0,0,0-.127-.224m-3.044,1.758-1.585-.916a.736.736,0,0,0-.663,0l-1.887,1.089a.209.209,0,0,0-.126.224.14.14,0,0,0,0,.064.145.145,0,0,0,0,.065.208.208,0,0,0,.126.223l1.586.917a.736.736,0,0,0,.663,0l1.886-1.089a.21.21,0,0,0,.126-.224.14.14,0,0,0,0-.064.145.145,0,0,0,0-.065.21.21,0,0,0-.126-.224m15.222-8.788-1.586-.917a.736.736,0,0,0-.663,0l-1.886,1.089a.21.21,0,0,0-.126.224.14.14,0,0,0,0,.064.145.145,0,0,0,0,.065.21.21,0,0,0,.126.224l1.586.916a.736.736,0,0,0,.663,0l1.886-1.089a.207.207,0,0,0,.126-.223.145.145,0,0,0,0-.065.145.145,0,0,0,0-.065.207.207,0,0,0-.126-.223m6.09-3.516-1.587-.916a.736.736,0,0,0-.663,0l-1.886,1.089a.209.209,0,0,0-.126.224.185.185,0,0,0,0,.064.193.193,0,0,0,0,.065.21.21,0,0,0,.126.224l1.587.916a.734.734,0,0,0,.662,0l1.887-1.089a.21.21,0,0,0,.125-.224.14.14,0,0,0,0-.064.145.145,0,0,0,0-.065.21.21,0,0,0-.125-.224M91.4,96.185l-1.585-.916a.736.736,0,0,0-.663,0L87.27,96.359a.212.212,0,0,0-.127.224.185.185,0,0,0,0,.064.192.192,0,0,0,0,.065.212.212,0,0,0,.127.224l1.586.916a.736.736,0,0,0,.663,0L91.4,96.762a.21.21,0,0,0,.127-.224.185.185,0,0,0,0-.064.192.192,0,0,0,0-.065.211.211,0,0,0-.127-.224m3.045-1.758-1.586-.916a.736.736,0,0,0-.663,0L90.314,94.6a.209.209,0,0,0-.126.224.14.14,0,0,0,0,.064.145.145,0,0,0,0,.065.21.21,0,0,0,.126.224l1.586.916a.736.736,0,0,0,.663,0L94.449,95a.208.208,0,0,0,.126-.224.14.14,0,0,0,0-.064.145.145,0,0,0,0-.065.208.208,0,0,0-.126-.224M88.36,97.944l-1.586-.916a.729.729,0,0,0-.663,0l-1.885,1.088a.209.209,0,0,0-.127.224.145.145,0,0,0,0,.065.14.14,0,0,0,0,.064.209.209,0,0,0,.127.224l1.585.916a.736.736,0,0,0,.663,0l1.886-1.089a.208.208,0,0,0,.127-.223.192.192,0,0,0,0-.065.192.192,0,0,0,0-.065.208.208,0,0,0-.127-.223M85.315,99.7l-1.585-.916a.729.729,0,0,0-.663,0L81.18,99.874a.21.21,0,0,0-.126.224.145.145,0,0,0,0,.065.14.14,0,0,0,0,.064.21.21,0,0,0,.126.224l1.586.916a.736.736,0,0,0,.663,0l1.885-1.089a.208.208,0,0,0,.127-.223.145.145,0,0,0,0-.065.145.145,0,0,0,0-.065.208.208,0,0,0-.127-.223m22.861-19.575-1.584-.916a.736.736,0,0,0-.663,0l-2.869,1.656a.208.208,0,0,0-.126.223.145.145,0,0,0,0,.065.145.145,0,0,0,0,.065.208.208,0,0,0,.126.223l1.586.917a.736.736,0,0,0,.663,0l2.867-1.656a.211.211,0,0,0,.127-.224.112.112,0,0,0,0-.064.117.117,0,0,0,0-.065.211.211,0,0,0-.127-.224m5.5,3.2-1.586-.916a.736.736,0,0,0-.663,0l-2.867,1.656a.206.206,0,0,0-.127.223.145.145,0,0,0,0,.065.145.145,0,0,0,0,.065.206.206,0,0,0,.127.223l1.585.916a.729.729,0,0,0,.663,0L113.68,83.9a.211.211,0,0,0,.126-.224.193.193,0,0,0,0-.065.186.186,0,0,0,0-.064.211.211,0,0,0-.126-.224m7.863-4.448-1.586-.916a.729.729,0,0,0-.663,0l-1.886,1.088a.207.207,0,0,0-.125.224.117.117,0,0,0,0,.065.113.113,0,0,0,0,.064.206.206,0,0,0,.125.224l1.586.916a.729.729,0,0,0,.663,0l1.886-1.088a.209.209,0,0,0,.127-.224.192.192,0,0,0,0-.065.185.185,0,0,0,0-.064.208.208,0,0,0-.127-.224M118.5,80.635l-1.586-.916a.729.729,0,0,0-.663,0l-1.886,1.088a.21.21,0,0,0-.126.224.145.145,0,0,0,0,.065.14.14,0,0,0,0,.064.209.209,0,0,0,.126.224l1.586.916a.729.729,0,0,0,.663,0l1.886-1.088a.211.211,0,0,0,.127-.224.191.191,0,0,0,0-.065.184.184,0,0,0,0-.064.211.211,0,0,0-.127-.224m-8.777,5.007-1.586-.916a.729.729,0,0,0-.663,0l-14.1,8.141a.212.212,0,0,0-.127.224.185.185,0,0,0,0,.064.193.193,0,0,0,0,.065.212.212,0,0,0,.127.224l1.586.916a.736.736,0,0,0,.663,0l14.1-8.141a.21.21,0,0,0,.126-.224.117.117,0,0,0,0-.065.113.113,0,0,0,0-.064.209.209,0,0,0-.126-.224m-11.661.326-1.584-.917a.736.736,0,0,0-.663,0L93.928,86.14a.21.21,0,0,0-.129.224.185.185,0,0,0,0,.064.193.193,0,0,0,0,.065.21.21,0,0,0,.129.224l1.584.916a.739.739,0,0,0,.665,0l1.885-1.089a.209.209,0,0,0,.127-.223.193.193,0,0,0,0-.065.192.192,0,0,0,0-.065.209.209,0,0,0-.127-.223m-3.044,1.758-1.586-.916a.729.729,0,0,0-.663,0L90.882,87.9a.21.21,0,0,0-.126.224.145.145,0,0,0,0,.065.14.14,0,0,0,0,.064.21.21,0,0,0,.126.224l1.586.916a.736.736,0,0,0,.663,0L95.017,88.3a.21.21,0,0,0,.126-.224.145.145,0,0,0,0-.065.14.14,0,0,0,0-.064.209.209,0,0,0-.126-.224m6.089-3.516-1.586-.916a.736.736,0,0,0-.663,0l-1.886,1.089a.21.21,0,0,0-.126.224.14.14,0,0,0,0,.064.145.145,0,0,0,0,.065.21.21,0,0,0,.126.224l1.586.916a.736.736,0,0,0,.663,0l1.886-1.089a.209.209,0,0,0,.126-.224.14.14,0,0,0,0-.064.145.145,0,0,0,0-.065.21.21,0,0,0-.126-.224M111.985,72.7a.185.185,0,0,0,0,.064.192.192,0,0,0,0,.065.21.21,0,0,0,.126.224l1.586.916a.736.736,0,0,0,.663,0l1.887-1.089a.208.208,0,0,0,.125-.224.14.14,0,0,0,0-.064.145.145,0,0,0,0-.065.208.208,0,0,0-.125-.224l-1.587-.916a.736.736,0,0,0-.663,0l-1.886,1.089a.209.209,0,0,0-.126.224m-7.835,9.75-1.586-.916a.736.736,0,0,0-.663,0l-1.885,1.089a.212.212,0,0,0-.127.224.185.185,0,0,0,0,.064.193.193,0,0,0,0,.065.212.212,0,0,0,.127.224l1.585.916a.736.736,0,0,0,.663,0l1.886-1.089a.207.207,0,0,0,.126-.224.139.139,0,0,0,0-.064.145.145,0,0,0,0-.065.208.208,0,0,0-.126-.224M91.972,89.483l-1.585-.916a.729.729,0,0,0-.663,0l-1.886,1.088a.208.208,0,0,0-.126.224.145.145,0,0,0,0,.065.14.14,0,0,0,0,.064.207.207,0,0,0,.126.224l1.586.916a.729.729,0,0,0,.663,0l1.885-1.088a.211.211,0,0,0,.127-.224.145.145,0,0,0,0-.065.14.14,0,0,0,0-.064.21.21,0,0,0-.127-.224M85.884,93,84.3,92.083a.736.736,0,0,0-.663,0l-1.886,1.089a.208.208,0,0,0-.126.223.145.145,0,0,0,0,.065.145.145,0,0,0,0,.065.208.208,0,0,0,.126.223l1.586.916a.731.731,0,0,0,.665,0l1.885-1.088a.21.21,0,0,0,.126-.224.145.145,0,0,0,0-.065.14.14,0,0,0,0-.064A.21.21,0,0,0,85.884,93m3.045-1.758-1.587-.916a.729.729,0,0,0-.663,0l-1.885,1.088a.209.209,0,0,0-.127.224.192.192,0,0,0,0,.065.185.185,0,0,0,0,.064.208.208,0,0,0,.127.224l1.586.916a.729.729,0,0,0,.663,0l1.886-1.088a.209.209,0,0,0,.125-.224.145.145,0,0,0,0-.065.14.14,0,0,0,0-.064.208.208,0,0,0-.125-.224" transform="translate(-47.398 11.757)" fill="#e0dbe1"/>
            <path id="Path_9322" data-name="Path 9322" d="M74.264,93.634l-1.885,1.089a.736.736,0,0,1-.663,0l-1.586-.916a.2.2,0,0,1,0-.383l1.886-1.089a.736.736,0,0,1,.663,0l1.585.916a.2.2,0,0,1,0,.383m3.045-2.141-1.586-.916a.736.736,0,0,0-.663,0l-1.886,1.089a.2.2,0,0,0,0,.383l1.586.916a.736.736,0,0,0,.663,0l1.886-1.089a.2.2,0,0,0,0-.383m3.044-1.758-1.585-.916a.736.736,0,0,0-.663,0l-1.886,1.089a.2.2,0,0,0,0,.382l1.585.917a.739.739,0,0,0,.665,0l1.885-1.089a.2.2,0,0,0,0-.383M83.4,87.978l-1.586-.916a.729.729,0,0,0-.663,0l-1.886,1.088a.2.2,0,0,0,0,.383l1.586.916a.729.729,0,0,0,.663,0L83.4,88.361a.2.2,0,0,0,0-.383m3.044-1.758L84.856,85.3a.729.729,0,0,0-.663,0l-1.885,1.088a.2.2,0,0,0,0,.383l1.585.916a.729.729,0,0,0,.663,0L86.442,86.6a.2.2,0,0,0,0-.383m3.044-1.758L87.9,83.547a.729.729,0,0,0-.663,0l-1.886,1.088a.2.2,0,0,0,0,.383l1.586.916a.729.729,0,0,0,.663,0l1.885-1.088a.2.2,0,0,0,0-.383m3.045-1.758-1.586-.917a.736.736,0,0,0-.663,0L88.4,82.878a.2.2,0,0,0,0,.383l1.586.916a.736.736,0,0,0,.663,0l1.886-1.088a.2.2,0,0,0,0-.383m3.044-1.759-1.585-.916a.736.736,0,0,0-.663,0L91.441,81.12a.2.2,0,0,0,0,.383l1.586.916a.736.736,0,0,0,.663,0l1.885-1.089a.2.2,0,0,0,0-.383m3.045-1.758-1.586-.916a.736.736,0,0,0-.663,0l-1.886,1.089a.2.2,0,0,0,0,.383l1.586.916a.736.736,0,0,0,.663,0l1.886-1.089a.2.2,0,0,0,0-.383m4.026-2.324-1.586-.916a.736.736,0,0,0-.663,0L97.53,77.6a.2.2,0,0,0,0,.383l1.585.916a.736.736,0,0,0,.663,0l2.868-1.656a.2.2,0,0,0,0-.383m13.071,2.1-1.585-.916a.729.729,0,0,0-.663,0l-1.886,1.088a.2.2,0,0,0,0,.383l1.585.916a.731.731,0,0,0,.665,0l1.885-1.088a.2.2,0,0,0,0-.383m3.045-1.758-1.586-.916a.729.729,0,0,0-.663,0l-1.886,1.088a.2.2,0,0,0,0,.383l1.586.916a.729.729,0,0,0,.663,0l1.886-1.088a.2.2,0,0,0,0-.383m3.044-1.759-1.586-.916a.736.736,0,0,0-.663,0l-1.885,1.089a.2.2,0,0,0,0,.383l1.585.916a.736.736,0,0,0,.663,0l1.886-1.089a.2.2,0,0,0,0-.383M118.5,80.567l-1.586-.916a.729.729,0,0,0-.663,0l-1.885,1.088a.2.2,0,0,0,0,.383l1.585.916a.729.729,0,0,0,.663,0L118.5,80.95a.2.2,0,0,0,0-.383m3.045-1.758-1.586-.917a.736.736,0,0,0-.663,0l-1.886,1.089a.2.2,0,0,0,0,.383L119,80.28a.729.729,0,0,0,.663,0l1.886-1.089a.2.2,0,0,0,0-.382m3.044-1.759L123,76.135a.736.736,0,0,0-.663,0l-1.885,1.089a.2.2,0,0,0,0,.383l1.585.916a.736.736,0,0,0,.663,0l1.886-1.089a.2.2,0,0,0,0-.383M78.081,94.274,76.5,93.359a.736.736,0,0,0-.663,0l-2.867,1.656a.2.2,0,0,0,0,.383l1.585.916a.736.736,0,0,0,.663,0l2.868-1.656a.2.2,0,0,0,0-.383m3.044-1.758L79.54,91.6a.736.736,0,0,0-.663,0L76.991,92.69a.2.2,0,0,0,0,.383l1.586.916a.736.736,0,0,0,.663,0L81.125,92.9a.2.2,0,0,0,0-.383m3.045-1.758-1.586-.916a.736.736,0,0,0-.663,0l-1.886,1.089a.2.2,0,0,0,0,.383l1.586.916a.736.736,0,0,0,.663,0l1.886-1.089a.2.2,0,0,0,0-.383M87.215,89l-1.585-.916a.731.731,0,0,0-.665,0L83.08,89.174a.2.2,0,0,0,0,.383l1.585.916a.731.731,0,0,0,.665,0l1.885-1.088a.2.2,0,0,0,0-.383m3.045-1.758-1.586-.916a.729.729,0,0,0-.663,0l-1.886,1.088a.2.2,0,0,0,0,.383l1.586.916a.729.729,0,0,0,.663,0l1.886-1.088a.2.2,0,0,0,0-.383M93.3,85.486l-1.586-.916a.729.729,0,0,0-.663,0l-1.885,1.088a.2.2,0,0,0,0,.383l1.585.916a.729.729,0,0,0,.663,0L93.3,85.869a.2.2,0,0,0,0-.383m3.044-1.758-1.585-.917a.736.736,0,0,0-.663,0L92.213,83.9a.2.2,0,0,0,0,.383L93.8,85.2a.736.736,0,0,0,.663,0l1.885-1.089a.2.2,0,0,0,0-.382m3.045-1.759-1.586-.916a.736.736,0,0,0-.663,0l-1.886,1.089a.2.2,0,0,0,0,.383l1.586.916a.736.736,0,0,0,.663,0l1.886-1.089a.2.2,0,0,0,0-.383m3.044-1.758-1.585-.916a.736.736,0,0,0-.663,0L98.3,80.386a.2.2,0,0,0,0,.383l1.586.916a.736.736,0,0,0,.663,0l1.885-1.089a.2.2,0,0,0,0-.383m3.045-1.758-1.586-.916a.736.736,0,0,0-.663,0l-1.886,1.089a.2.2,0,0,0,0,.383l1.586.916a.736.736,0,0,0,.663,0l1.886-1.089a.2.2,0,0,0,0-.383M79.8,96.445l-1.585-.916a.736.736,0,0,0-.663,0l-1.886,1.088a.2.2,0,0,0,0,.383l1.586.917a.736.736,0,0,0,.663,0L79.8,96.828a.2.2,0,0,0,0-.383m3.045-1.758-1.586-.916a.729.729,0,0,0-.663,0L78.706,94.86a.2.2,0,0,0,0,.383l1.586.916a.729.729,0,0,0,.663,0l1.886-1.088a.2.2,0,0,0,0-.383m3.044-1.758L84.3,92.015a.729.729,0,0,0-.663,0L81.751,93.1a.2.2,0,0,0,0,.383l1.586.916a.729.729,0,0,0,.663,0l1.885-1.088a.2.2,0,0,0,0-.383m3.045-1.758-1.586-.916a.729.729,0,0,0-.663,0l-1.886,1.088a.2.2,0,0,0,0,.383l1.586.916a.729.729,0,0,0,.663,0l1.886-1.088a.2.2,0,0,0,0-.383m-3.613,8.46-1.585-.916a.736.736,0,0,0-.663,0l-1.886,1.089a.2.2,0,0,0,0,.383l1.585.916a.736.736,0,0,0,.663,0l1.886-1.089a.2.2,0,0,0,0-.383m3.045-1.758-1.586-.916a.736.736,0,0,0-.663,0l-1.886,1.089a.2.2,0,0,0,0,.383l1.586.916a.736.736,0,0,0,.663,0l1.886-1.089a.2.2,0,0,0,0-.383m3.044-1.758L89.82,95.2a.736.736,0,0,0-.663,0l-1.885,1.089a.2.2,0,0,0,0,.383l1.585.916a.736.736,0,0,0,.663,0L91.407,96.5a.2.2,0,0,0,0-.383m3.044-1.758-1.585-.916a.736.736,0,0,0-.663,0l-1.886,1.088a.2.2,0,0,0,0,.383l1.586.916a.729.729,0,0,0,.663,0l1.885-1.088a.2.2,0,0,0,0-.383m19.231-11.1-1.586-.916a.729.729,0,0,0-.663,0L108.565,84a.2.2,0,0,0,0,.383l1.585.916a.729.729,0,0,0,.663,0l2.868-1.655a.2.2,0,0,0,0-.383M91.975,89.415,90.388,88.5a.736.736,0,0,0-.663,0L87.84,89.588a.2.2,0,0,0,0,.383l1.585.916a.736.736,0,0,0,.663,0L91.975,89.8a.2.2,0,0,0,0-.382m3.045-1.759-1.586-.916a.736.736,0,0,0-.663,0L90.884,87.83a.2.2,0,0,0,0,.383l1.586.916a.736.736,0,0,0,.663,0l1.886-1.089a.2.2,0,0,0,0-.383M98.064,85.9l-1.586-.916a.736.736,0,0,0-.663,0l-1.885,1.089a.2.2,0,0,0,0,.383l1.585.916a.736.736,0,0,0,.663,0l1.886-1.089a.2.2,0,0,0,0-.383m3.044-1.758-1.585-.916a.736.736,0,0,0-.663,0l-1.886,1.089a.2.2,0,0,0,0,.383l1.586.916a.736.736,0,0,0,.663,0l1.885-1.089a.2.2,0,0,0,0-.383m3.045-1.758-1.586-.916a.736.736,0,0,0-.663,0l-1.886,1.088a.2.2,0,0,0,0,.383l1.586.917a.736.736,0,0,0,.663,0l1.886-1.089a.2.2,0,0,0,0-.383m4.026-2.324-1.586-.916a.729.729,0,0,0-.663,0L103.062,80.8a.2.2,0,0,0,0,.383l1.585.916a.729.729,0,0,0,.663,0l2.868-1.655a.2.2,0,0,0,0-.383M83.614,97.469l-1.586-.916a.729.729,0,0,0-.663,0L78.5,98.208a.2.2,0,0,0,0,.383l1.585.916a.729.729,0,0,0,.663,0l2.868-1.655a.2.2,0,0,0,0-.383m3.044-1.758L85.073,94.8a.729.729,0,0,0-.663,0l-1.886,1.088a.2.2,0,0,0,0,.383l1.586.916a.729.729,0,0,0,.663,0l1.885-1.088a.2.2,0,0,0,0-.383M89.7,93.953l-1.586-.916a.729.729,0,0,0-.663,0l-1.886,1.088a.2.2,0,0,0,0,.383l1.586.916a.729.729,0,0,0,.663,0L89.7,94.337a.2.2,0,0,0,0-.383M92.747,92.2l-1.585-.916a.729.729,0,0,0-.663,0l-1.886,1.088a.2.2,0,0,0,0,.383l1.585.916a.739.739,0,0,0,.665,0l1.885-1.088a.2.2,0,0,0,0-.383m3.045-1.759-1.586-.916a.736.736,0,0,0-.663,0l-1.886,1.089a.2.2,0,0,0,0,.383l1.586.916a.736.736,0,0,0,.663,0l1.886-1.089a.2.2,0,0,0,0-.383m13.931-4.864-1.585-.916a.736.736,0,0,0-.663,0L93.375,92.8a.2.2,0,0,0,0,.383l1.585.916a.736.736,0,0,0,.663,0l14.1-8.142a.2.2,0,0,0,0-.383M98.836,88.679l-1.586-.916a.736.736,0,0,0-.663,0L94.7,88.853a.2.2,0,0,0,0,.383l1.585.916a.736.736,0,0,0,.663,0l1.886-1.089a.2.2,0,0,0,0-.383m3.044-1.758-1.585-.916a.736.736,0,0,0-.663,0L97.746,87.1a.2.2,0,0,0,0,.383l1.586.916a.736.736,0,0,0,.663,0L101.88,87.3a.2.2,0,0,0,0-.383m3.045-1.758-1.586-.916a.736.736,0,0,0-.663,0l-1.886,1.089a.2.2,0,0,0,0,.383l1.586.916a.736.736,0,0,0,.663,0l1.886-1.089a.2.2,0,0,0,0-.383m3.044-1.758-1.585-.916a.729.729,0,0,0-.663,0l-1.886,1.088a.2.2,0,0,0,0,.383l1.586.916a.729.729,0,0,0,.663,0l1.885-1.088a.2.2,0,0,0,0-.383m3.045-1.758-1.586-.916a.729.729,0,0,0-.663,0l-1.886,1.088a.2.2,0,0,0,0,.383l1.586.916a.729.729,0,0,0,.663,0l1.886-1.088a.2.2,0,0,0,0-.383m-3.632-7.5-1.585-.916a.729.729,0,0,0-.663,0l-1.886,1.088a.2.2,0,0,0,0,.383l1.586.916a.729.729,0,0,0,.663,0l1.885-1.088a.2.2,0,0,0,0-.383m3.045-1.759-1.586-.916a.736.736,0,0,0-.663,0l-1.886,1.089a.2.2,0,0,0,0,.383l1.586.916a.736.736,0,0,0,.663,0l1.886-1.089a.2.2,0,0,0,0-.383m3.044-1.758-1.585-.916a.739.739,0,0,0-.665,0l-1.885,1.089a.2.2,0,0,0,0,.383l1.585.916a.739.739,0,0,0,.665,0l1.885-1.089a.2.2,0,0,0,0-.383m2.777,1.6-1.586-.916a.736.736,0,0,0-.663,0l-1.886,1.088a.2.2,0,0,0,0,.383l1.586.917a.736.736,0,0,0,.663,0l1.886-1.089a.2.2,0,0,0,0-.383m2.7,1.48-1.55-.895a.605.605,0,0,0-.548,0l-2.663,1.515a.516.516,0,0,1-.464,0l-2.087-1.206a.915.915,0,0,0-.825,0l-4.778,2.759a.251.251,0,0,0,0,.476l4.165,2.405a.913.913,0,0,0,.824,0l7.926-4.576a.251.251,0,0,0,0-.476" transform="translate(-47.399 11.741)" fill="#fffefb"/>
            <g id="Group_30571-2" data-name="Group 30571" transform="translate(0 3.258)" opacity="0.7">
              <g id="Group_30531" data-name="Group 30531">
                <g id="Group_30530" data-name="Group 30530" clip-path="url(#clip-path-9)">
                  <path id="Path_9222" data-name="Path 9222" d="M125.6,51.6,51.534,94.364V48.573L125.6,5.811Z" transform="translate(-51.533 -5.811)" fill="#cfe9ff"/>
                </g>
              </g>
            </g>
            <g id="Group_30572-2" data-name="Group 30572" transform="translate(0.007 6.809)" opacity="0.7">
              <g id="Group_30534" data-name="Group 30534">
                <g id="Group_30533" data-name="Group 30533" clip-path="url(#clip-path-10)">
                  <path id="Path_9223" data-name="Path 9223" d="M125.6,46.887,51.539,89.644V51.47L125.6,8.713Z" transform="translate(-51.539 -8.713)" fill="#24b24c"/>
                </g>
              </g>
            </g>
            <g id="Group_30573-2" data-name="Group 30573" transform="translate(34.125 6.809)" opacity="0.5" style="mix-blend-mode: multiply;isolation: isolate">
              <g id="Group_30537" data-name="Group 30537">
                <g id="Group_30536" data-name="Group 30536" clip-path="url(#clip-path-11)">
                  <path id="Path_9224" data-name="Path 9224" d="M79.414,31.772V69.947l39.94-23.059V8.713Z" transform="translate(-79.414 -8.713)" fill="#0b8d45"/>
                </g>
              </g>
            </g>
            <path id="Path_9323" data-name="Path 9323" d="M51.535,45.911v7.635L125.6,10.785V3.15Z" transform="translate(-51.533 -3.15)" fill="#24b24c"/>
            <path id="Path_9324" data-name="Path 9324" d="M77.214,45.354,57.388,56.8c-1.021.59-1.849.219-1.849-.827a3.874,3.874,0,0,1,1.849-2.962L77.214,41.564c1.021-.589,1.849-.219,1.849.827a3.874,3.874,0,0,1-1.849,2.962" transform="translate(-50.636 5.391)" fill="#fff"/>
            <path id="Path_9325" data-name="Path 9325" d="M77.214,50.754,57.388,62.2c-1.021.59-1.849.219-1.849-.827a3.876,3.876,0,0,1,1.849-2.962L77.214,46.964c1.021-.589,1.849-.219,1.849.827a3.874,3.874,0,0,1-1.849,2.962" transform="translate(-50.636 6.601)" fill="#fff"/>
            <path id="Path_9326" data-name="Path 9326" d="M63,62.91l-5.625,3.247c-1.021.59-1.848.22-1.848-.826a3.87,3.87,0,0,1,1.848-2.962L63,59.12c1.021-.589,1.848-.219,1.848.827A3.872,3.872,0,0,1,63,62.91" transform="translate(-50.639 9.323)" fill="#cfe9ff"/>
            <path id="Path_9327" data-name="Path 9327" d="M57.554,57.669a.945.945,0,0,1-.453.725c-.25.144-.452.054-.452-.2a.945.945,0,0,1,.452-.725c.251-.144.453-.054.453.2" transform="translate(-50.388 9)" fill="#cfcad4"/>
            <path id="Path_9328" data-name="Path 9328" d="M59.079,56.788a.949.949,0,0,1-.453.725c-.25.144-.452.054-.452-.2a.947.947,0,0,1,.452-.725c.25-.144.453-.054.453.2" transform="translate(-50.046 8.803)" fill="#cfcad4"/>
            <path id="Path_9329" data-name="Path 9329" d="M60.6,55.907a.945.945,0,0,1-.453.725c-.25.144-.452.054-.452-.2a.945.945,0,0,1,.452-.725c.251-.144.453-.054.453.2" transform="translate(-49.704 8.605)" fill="#cfcad4"/>
            <path id="Path_9330" data-name="Path 9330" d="M62.131,55.026a.945.945,0,0,1-.453.725c-.25.144-.452.054-.452-.2a.947.947,0,0,1,.452-.725c.251-.144.453-.054.453.2" transform="translate(-49.362 8.408)" fill="#cfcad4"/>
            <path id="Path_9331" data-name="Path 9331" d="M63.657,54.145a.949.949,0,0,1-.453.725c-.25.144-.452.054-.452-.2a.945.945,0,0,1,.452-.725c.25-.144.453-.054.453.2" transform="translate(-49.021 8.211)" fill="#cfcad4"/>
            <path id="Path_9332" data-name="Path 9332" d="M65.183,53.264a.949.949,0,0,1-.453.725c-.25.144-.452.054-.452-.2a.947.947,0,0,1,.452-.725c.251-.144.453-.054.453.2" transform="translate(-48.679 8.014)" fill="#cfcad4"/>
            <path id="Path_9333" data-name="Path 9333" d="M66.709,52.383a.945.945,0,0,1-.453.725c-.25.144-.452.054-.452-.2a.945.945,0,0,1,.452-.725c.251-.144.453-.054.453.2" transform="translate(-48.337 7.816)" fill="#cfcad4"/>
            <path id="Path_9334" data-name="Path 9334" d="M68.234,51.5a.945.945,0,0,1-.453.725c-.25.144-.452.054-.452-.2a.947.947,0,0,1,.452-.725c.251-.144.453-.054.453.2" transform="translate(-47.996 7.619)" fill="#cfcad4"/>
            <path id="Path_9335" data-name="Path 9335" d="M57.116,52.048v1.086c0,.24.132.275.338.157a1.064,1.064,0,0,0,.431-.5V51.6l.206-.119v1.142l.017.441-.17.1-.032-.2a1.263,1.263,0,0,1-.519.554c-.312.18-.472.06-.472-.237V52.165Z" transform="translate(-50.328 7.676)" fill="#cfcad4"/>
            <path id="Path_9336" data-name="Path 9336" d="M59.179,51.982c0-.217-.124-.2-.426-.049-.419.207-.539.125-.539-.113a1.007,1.007,0,0,1,.578-.805c.425-.245.58-.113.58.2a2.056,2.056,0,0,1-.2.129c0-.229-.088-.319-.378-.152a.629.629,0,0,0-.373.492c0,.165.077.212.414.044.39-.192.558-.175.558.116a1.046,1.046,0,0,1-.6.83c-.441.253-.6.081-.6-.163a1.92,1.92,0,0,1,.206-.131c0,.175.084.294.393.116a.656.656,0,0,0,.387-.515" transform="translate(-50.042 7.542)" fill="#cfcad4"/>
            <path id="Path_9337" data-name="Path 9337" d="M59.658,51.434c.009.344.152.477.463.3a.8.8,0,0,0,.441-.621l.2-.113a1.177,1.177,0,0,1-.638.911c-.469.272-.671.033-.671-.409v-.066a1.335,1.335,0,0,1,.657-1.175c.454-.263.651-.022.651.42V50.8Zm0-.174.891-.515c-.011-.338-.149-.479-.446-.307a.928.928,0,0,0-.446.823" transform="translate(-49.76 7.377)" fill="#cfcad4"/>
            <path id="Path_9338" data-name="Path 9338" d="M61.483,49.45v.2a1.058,1.058,0,0,0-.457.5v1.181l-.2.118V50.312l-.017-.441.17-.1.028.193a1.12,1.12,0,0,1,.435-.494l.045-.022" transform="translate(-49.457 7.22)" fill="#cfcad4"/>
            <path id="Path_9339" data-name="Path 9339" d="M62.363,50.647l-.211.122V48.424l.211-.121Z" transform="translate(-49.155 6.963)" fill="#cfcad4"/>
            <path id="Path_9340" data-name="Path 9340" d="M63.319,50.167l-.6.349V48.171l.6-.349c.558-.322.886-.211.886.6v.12a1.7,1.7,0,0,1-.886,1.623m-.017-.185a1.363,1.363,0,0,0,.687-1.313v-.12c0-.667-.247-.775-.687-.52l-.376.217V50.2Z" transform="translate(-49.029 6.818)" fill="#cfcad4"/>
            <g id="Group_30574-2" data-name="Group 30574" transform="translate(53.875 32.266)" opacity="0.8">
              <g id="Group_30540" data-name="Group 30540">
                <g id="Group_30539" data-name="Group 30539" clip-path="url(#clip-path-12)">
                  <path id="Path_9256" data-name="Path 9256" d="M113.047,33.058l-17.5,10.1V39.614l17.5-10.1Z" transform="translate(-95.55 -29.511)" fill="#95acf4"/>
                </g>
              </g>
            </g>
            <path id="Path_9354" data-name="Path 9354" d="M96.269,39.842l15.738-9.087v1.516L96.269,41.359Z" transform="translate(-41.514 3.033)" fill="#291b2a"/>
          </g>
          <g id="Group_30581" data-name="Group 30581" transform="translate(109.79 38.703)">
            <g id="Group_30544" data-name="Group 30544" clip-path="url(#clip-path-13)">
              <rect id="Rectangle_2005" data-name="Rectangle 2005" width="41.028" height="45.737" transform="translate(-16.537 9.547) rotate(-30)" fill="url(#linear-gradient-8)"/>
            </g>
          </g>
          <g id="Group_30582" data-name="Group 30582" transform="translate(108.368 44.615)">
            <path id="Path_9316" data-name="Path 9316" d="M111.249,56.044a2.182,2.182,0,0,0-.913,2l-.022,5.551a2.27,2.27,0,0,1-.947,2.08l11.624-6.755a2.272,2.272,0,0,0,.949-2.081l.021-5.549a2.186,2.186,0,0,1,.913-2Z" transform="translate(-94.156 -33.576)" fill="#dad7d7"/>
            <path id="Path_9317" data-name="Path 9317" d="M124.764,49.432a2.288,2.288,0,0,0-2.31-.224L110.83,55.963a2.288,2.288,0,0,1,2.31.224l10.852,6.265L135.617,55.7Z" transform="translate(-93.828 -33.643)" fill="#f8f5f4"/>
            <path id="Path_9318" data-name="Path 9318" d="M114.328,58.624A2.066,2.066,0,0,0,113,60.848l-.021,5.551c-.006,1.975-1.415,2.778-3.135,1.786l-.764-.441a6.886,6.886,0,0,1-3.114-5.394L106,45.42a7.15,7.15,0,0,0-3.236-5.606l-5.827-3.363v.141l5.826,3.365a6.862,6.862,0,0,1,3.114,5.393l-.037,16.93a7.14,7.14,0,0,0,3.236,5.606l.764.441c1.789,1.034,3.251.2,3.257-1.856l.022-5.551a1.986,1.986,0,0,1,1.285-2.141c-.029-.05-.051-.1-.078-.154" transform="translate(-96.939 -36.451)" fill="#f3f0f0"/>
            <path id="Path_9319" data-name="Path 9319" d="M124.166,61.226l-10.853-6.265c-1.789-1.034-3.251-.2-3.257,1.856l0,1.056c.043,0,.082.009.124.011l0-1c.006-1.975,1.415-2.778,3.135-1.786l10.853,6.265,11.624-6.755v-.141Z" transform="translate(-94.002 -32.415)" fill="#f3f0f0"/>
            <g id="Group_30570-2" data-name="Group 30570" transform="translate(10.328 3.122)" style="mix-blend-mode: multiply;isolation: isolate">
              <g id="Group_30547" data-name="Group 30547">
                <g id="Group_30546" data-name="Group 30546" clip-path="url(#clip-path-14)">
                  <path id="Path_9263" data-name="Path 9263" d="M109.235,42.7l.909-.524v.217l-.909.525Zm-1.166,2.4-1.416.818v.217l1.677-.967.58-.335v-.217Zm1.253-1.367V43.51l-.71.409-.466.27v.217l.466-.269Zm-1.509.655-1.164.672v.217l1.164-.672Zm.6-.991.488-.282v-.217l-.841.485-1.405.811V44.4Zm-1.378-.065,1.146-.661v-.217l-1.146.661-.371.214v.217Zm2.286-1.319.368-.213v-.217l-.486.28-.69.4v.217Zm.83,1.886-.909.524v.218l.909-.525Zm-1.774,4.135-1.725,1v.217l1.725-1Zm-1.711,1.848v.217l.346-.2,1.449-.836v-.217l-1.231.711Zm3.485-4.594L108.9,46l-.834.481V46.7l.834-.482,1.25-.721Zm-.18,2.685-.312.18-.864.5v.217l.69-.4.486-.28Zm-2.286-.4-1.031.595v.218l1.031-.6,1.146-.661V46.9Zm1.479-.853v.217l.6-.349v-.218Zm-.453,1.339,1.088-.629v-.217l-1.088.629Zm-2.059-.534,1.082-.624v-.217l-1.082.624Zm3.154,2.694-1.088.629v.217l1.088-.629Zm-.207,2.057.6-.349V51.7l-.6.349Zm-1.6.925,1.22-.7v-.217l-1.22.7Zm1.946-2.2-1.075.621v.217l1.075-.621Zm-3.277.387.455-.262,1.34-.775v-.217l-1.231.711-.564.326Zm1.869.426-1.383.8-.491.284V53.1l.66-.382,1.214-.7Zm-1.873.437.808-.466.914-.528v-.217l-1.318.76-.4.234Zm0,1.723,1.012-.584v-.218l-1.012.585Zm3.312-4.711-.4.23-.088.05-.69.4v.217l.69-.4.088-.051.4-.23Zm-.767,4.17-.69.4v.217l.808-.466.368-.213v-.217Zm-1.023.59-1.146.662-.371.214v.217l.371-.214,1.146-.662Zm-.453,1.122-1.072.619v.217l1.072-.619Zm1.507-.87-1.174.678v.217l1.261-.728.823-.475v-.217Zm-1.166,2.612,1.088-.629v-.217l-1.088.629Zm-1.416.818,1.082-.625v-.217l-1.082.625Zm2.184-2.338-.69.4v.217l.69-.4.486-.282v-.217Zm-2.187,1.479,1.164-.672v-.217l-1.164.672Zm6.2-14.5-.847.49v.217l.847-.49Zm-.012-2.575-.509.295v.217l.509-.294Zm-.842.487-.438.253v.217l.438-.253Zm.851.37L112,41.1v.218l.836-.483ZM111.586,42.2l-.357.206v.217l.357-.206Zm.333.024.929-.536v-.218l-.929.536Zm.911,4.089-.788.455v.217l.788-.455Zm.013-.869-1.488.86v.217l1.488-.86Zm-1.135,1.516-.439.253v.217l.439-.253Zm-.036-1.485,1.169-.674v-.218l-1.169.676ZM112,44.432l.847-.49v-.217l-.847.49Zm-.728,4.291.439-.253v-.217l-.439.253Zm.772-.446.788-.455v-.217l-.788.455Zm-.092,1.774.885-.51v-.217l-.885.51Zm-.148-.774,1.032-.6v-.217l-1.032.595Zm-.333-.024-.419.241v.217l.419-.241Zm1.37.93-1.225.707v.217l1.225-.707Zm-1.222-.157-.421.244v.217l.421-.242Zm.3,3.769.929-.536v-.217l-.929.536Zm-.69.4.357-.207V53.77l-.357.207Zm.323-1.908.438-.252v-.218l-.438.253Zm1.289-.1-.836.483v.217l.836-.483Zm-.009-.639V51.33l-.509.294v.217ZM112,54.611l.847-.49v-.217l-.847.49Zm2.163-13.034-.364.209V42l.364-.209ZM114.148,39l-.509.294v.217l.509-.294Zm.009.856-.353.2v.217l.353-.2Zm-.437,1.113v.217l.444-.256v-.217Zm.425,4.586-.3.176v.217l.3-.175Zm.015-.868-.454.262v.217l.454-.262Zm-.2-.529.2-.115v-.217l-.2.115Zm-.162-.767.364-.209v-.217l-.364.209Zm.045,3.846.3-.175v-.217l-.3.175Zm-.092,1.774.4-.23v-.218l-.4.231Zm-.149-.775.547-.316V47.7l-.547.316Zm.552,1.186-.255.148v.217l.255-.147Zm-.433,3.333.444-.256v-.218l-.444.257Zm.437-1.329-.353.2v.217l.353-.2Zm-.009-.639V50.57l-.509.295v.217Zm-.351,2.785.364-.211v-.217l-.364.209Zm-8.4-6.716.377-.218V46.42l-.377.218Zm-.012-2.575.23-.133v-.217l-.23.133Zm.009.856.388-.224V44.7l-.388.224Zm.007.639v.218l.3-.171v-.217Zm-.02,5.06.437-.252v-.217l-.437.252Zm.015-.869.286-.164v-.218l-.286.165Zm.54-1.388-.541.312v.217l.541-.312Zm-.162-.769-.377.218v.218l.377-.218Zm.044,3.846-.437.252v.218l.437-.252Zm-.091,1.775-.34.2v.217l.34-.2Zm-.149-.775-.193.111v.217l.193-.111Zm-.188,2.046.485-.279V54.2l-.485.28Zm.307,2.471-.3.171v.217l.3-.171Zm-.3-.469.388-.224v-.217l-.388.224Zm.222-.989V55.5l-.23.133v.217Zm.159,2.274-.377.218v.217l.377-.218Z" transform="translate(-105.377 -39.002)" fill="#cfcad4"/>
                </g>
              </g>
            </g>
            <path id="Path_9320" data-name="Path 9320" d="M118.465,53.759l.851-.492.2.118-.851.492Zm.519,1.562-1.326.765.2.118,1.569-.907.545-.313-.2-.118Zm.572-1.027-.2-.116-.665.383-.437.252.2.118.437-.252Zm-1.617.7-1.089.629.2.116,1.089-.629Zm-.039-.673.457-.264-.2-.118-.787.455-1.316.759.2.118Zm-2.1.279,1.073-.619-.2-.116-1.073.619-.346.2.2.118Zm2.142-1.236.345-.2-.2-.118-.455.263-.646.373.2.116Zm2.991.831-.852.491.2.118.852-.492Zm1.251,2.64-1.614.933.2.116,1.614-.931Zm-.794,1.39.2.116.323-.187,1.357-.783-.2-.116-1.153.665Zm.845-3.28-1.17.676-.781.45.2.118.781-.45,1.17-.676Zm2.25,1.493-.294.169-.808.468.2.116.647-.373.455-.262Zm-3.754.306-.964.557.2.118.964-.557,1.073-.619-.2-.118Zm1.384-.8.2.116.567-.327-.2-.118Zm.585.827,1.02-.589-.2-.118-1.02.589Zm-3.538.182,1.013-.586-.2-.116-1.013.585Zm3.639,2.084.426-.246,1.255-.725-.2-.118-1.153.666-.528.3Zm2.891-1.9-.373.215-.082.048-.646.373.2.118.646-.373.082-.048.373-.215Zm-2.236-4.4-.793.458.2.118.793-.458Zm-2.428-1.389-.477.275.2.118.477-.275Zm-.789.455-.41.237.2.116.411-.236Zm1.6,0-.783.453.2.118.785-.453Zm-.37,1.143-.334.193.2.118.334-.193Zm.515-.062.87-.5-.2-.118-.87.5Zm5.174,2-.738.426.2.118.738-.426Zm-.793-.474-1.394.805.2.117,1.394-.805Zm-.257,1.08-.411.237.2.116.411-.236Zm-1.442-.794,1.1-.633-.2-.116-1.1.632Zm-.5-.64.793-.459-.2-.116-.793.458Zm2.944,2.486.41-.237-.2-.118-.41.237Zm.722-.417.738-.426-.2-.118-.738.426Zm-3.144-4.106-.34.2.2.118.34-.2Zm-2.43-1.389-.477.275.2.118.477-.275Zm.814.46-.329.191.2.116.329-.19Zm.4.7.2.117.416-.24-.2-.118Zm4.923,2.383-.284.164.2.116.284-.163Zm-.792-.474-.426.246.2.118.425-.246Zm-.792-.239.187-.109-.2-.116-.187.108Zm-.956-.378.339-.2-.2-.118-.339.2Zm3.666,2.069L129.8,55l-.2-.118-.285.164Zm-12.837,1.723.354-.2-.2-.118-.354.2Zm-2.428-1.389.215-.125-.2-.116-.215.124Zm.813.461.364-.211-.2-.118-.364.211Zm.611.344.2.118.278-.16-.2-.118Zm4.71,2.739.409-.236-.2-.118-.409.236Zm-.793-.472.268-.155-.2-.116-.268.154Zm-.5-.874-.506.291.2.118.505-.293Zm-.956-.378-.354.2.2.118.354-.2Zm3.666,2.069-.409.236.2.117L122,59.5Z" transform="translate(-93.107 -33.274)" fill="#cfcad4"/>
          </g>
          <g id="Group_30583" data-name="Group 30583" transform="translate(106.668 25.156)">
            <g id="Group_30569-2" data-name="Group 30569" opacity="0.8">
              <g id="Group_30552" data-name="Group 30552">
                <g id="Group_30551" data-name="Group 30551" clip-path="url(#clip-path-12)">
                  <path id="Path_9266" data-name="Path 9266" d="M113.047,24.1,95.55,34.2V30.655l17.5-10.1Z" transform="translate(-95.55 -20.553)" fill="#95acf4"/>
                </g>
              </g>
            </g>
            <path id="Path_9315" data-name="Path 9315" d="M96.269,30.884,112.006,21.8v1.516L96.269,32.4Z" transform="translate(-95.389 -20.274)" fill="#291b2a"/>
          </g>
          <g id="Group_30584" data-name="Group 30584" transform="translate(107.548 26.338)">
            <g id="Group_30556" data-name="Group 30556" clip-path="url(#clip-path-16)">
              <path id="Path_9268" data-name="Path 9268" d="M95.483,29.88a.817.817,0,0,0,.485.643l20.586,11.91a2.225,2.225,0,0,0,2,.084l12.33-7.1a.573.573,0,0,0,.343-.552c-.012-.115-.015-.217-.032-.354a.862.862,0,0,0-.481-.592L110.13,22.007a2.225,2.225,0,0,0-2-.084l-12.33,7.1a.61.61,0,0,0-.345.469c-.009.142.029.267.031.387" transform="translate(-96.452 -21.473)" fill="#e0dbe1"/>
            </g>
          </g>
          <g id="Group_30585" data-name="Group 30585" transform="translate(107.914 27.372)">
            <g id="Group_30558" data-name="Group 30558" clip-path="url(#clip-path-17)">
              <rect id="Rectangle_2009" data-name="Rectangle 2009" width="28.238" height="38.547" transform="translate(-4.997 18.622) rotate(-74.979)" fill="url(#linear-gradient-9)"/>
            </g>
          </g>
          <g id="Group_30586" data-name="Group 30586" transform="translate(107.548 26.338)">
            <g id="Group_30563" data-name="Group 30563" clip-path="url(#clip-path-16)">
              <path id="Path_9271" data-name="Path 9271" d="M123.438,32.226a.538.538,0,0,1,.3.368.356.356,0,0,1-.213.348l-.815.468a1.373,1.373,0,0,1-1.237-.051l-2.955-1.709a.541.541,0,0,1-.3-.368.355.355,0,0,1,.213-.346l.815-.469a1.383,1.383,0,0,1,1.239.051Z" transform="translate(-91.354 -19.542)" fill="#f8f5f4"/>
              <path id="Path_9272" data-name="Path 9272" d="M103.486,28.937a.538.538,0,0,1,.3.368.353.353,0,0,1-.213.346l-1.564.9a1.383,1.383,0,0,1-1.239-.051l-3.221-1.864a.536.536,0,0,1-.3-.368.356.356,0,0,1,.212-.346l1.565-.9a1.38,1.38,0,0,1,1.239.053Z" transform="translate(-96.05 -20.314)" fill="#8a31c9"/>
              <path id="Path_9273" data-name="Path 9273" d="M97.636,28.637l3.221,1.863a1.133,1.133,0,0,0,1.022.043l1.565-.9c.262-.152.23-.416-.072-.591l-3.221-1.863a1.137,1.137,0,0,0-1.022-.043l-1.565.9c-.262.151-.23.415.072.59" transform="translate(-96.019 -20.281)" fill="#ffc440"/>
              <g id="Group_30562" data-name="Group 30562" transform="translate(1.452 6.811)" opacity="0.6">
                <g id="Group_30561" data-name="Group 30561">
                  <g id="Group_30560" data-name="Group 30560" clip-path="url(#clip-path-19)">
                    <path id="Path_9274" data-name="Path 9274" d="M100.025,27.125c-.039-.016-.08-.029-.121-.042l-2.449,1.41a.491.491,0,0,0,.072.07l.61-.35,1.017.588c-.213.186-.149.459.175.646a1.419,1.419,0,0,0,1.117.1l1.07.619-.613.353a1.152,1.152,0,0,0,.113.048l2.474-1.425a.556.556,0,0,0-.081-.066l-.676.39-1.067-.618c.233-.185.175-.466-.157-.658a1.407,1.407,0,0,0-1.142-.092l-1.013-.586Zm.532,2.373,1.033-.595,1.058.612-1.048.6-1.06-.612.017-.009m-1.146-.1c-.27-.157-.329-.383-.162-.541l1.1.636a1.225,1.225,0,0,1-.938-.1m2.012-1.159c.279.162.332.4.144.556l-1.105-.64a1.212,1.212,0,0,1,.961.084m-1.054-.04,1.124.649-1.033.595c-.017.009-1.137-.639-1.137-.639s1.046-.6,1.046-.6m-.1-.056-1.032.595c-.015.01-1.021-.573-1.021-.573l1.048-.6Z" transform="translate(-97.455 -27.084)" fill="#d88c1d"/>
                  </g>
                </g>
              </g>
              <path id="Path_9275" data-name="Path 9275" d="M113.071,36.42a2.033,2.033,0,0,1-1.837,0,.56.56,0,0,1,0-1.06,2.033,2.033,0,0,1,1.837,0,.56.56,0,0,1,0,1.06" transform="translate(-93.003 -18.468)" fill="#9b2c2c"/>
              <path id="Path_9276" data-name="Path 9276" d="M114.8,37.416a2.03,2.03,0,0,1-1.836,0,.559.559,0,0,1,0-1.06,2.03,2.03,0,0,1,1.836,0,.56.56,0,0,1,0,1.06" transform="translate(-92.616 -18.245)" fill="#ffc440"/>
              <path id="Path_9277" data-name="Path 9277" d="M118.616,34.1a.573.573,0,0,0-.293.078l-.687.4c-.092.053-.138.109-.137.169s.045.115.136.168l.2.114a.579.579,0,0,0,.584,0l.685-.4c.091-.053.136-.109.136-.17s-.044-.115-.133-.166l-.2-.115a.572.572,0,0,0-.29-.077m-.157.164a.318.318,0,0,1,.338,0l.163.094c.109.062.106.127-.009.193l-.674.389a.313.313,0,0,1-.335,0l-.163-.094c-.11-.064-.108-.129.006-.195Z" transform="translate(-91.514 -18.701)" fill="#ffd85a"/>
              <path id="Path_9278" data-name="Path 9278" d="M117.793,33.625a.573.573,0,0,0-.293.078l-.688.4c-.091.053-.138.109-.137.169s.047.115.136.168l.2.114a.577.577,0,0,0,.583,0l.685-.4c.092-.053.136-.109.136-.169s-.043-.116-.133-.168l-.2-.115a.572.572,0,0,0-.29-.077m-.157.164a.316.316,0,0,1,.337,0l.163.094c.109.062.106.127-.009.193l-.673.389a.316.316,0,0,1-.337,0l-.163-.093c-.11-.065-.108-.13.007-.2Z" transform="translate(-91.699 -18.807)" fill="#ffd85a"/>
              <path id="Path_9279" data-name="Path 9279" d="M116.969,33.149a.57.57,0,0,0-.293.078l-.687.4c-.092.053-.138.109-.137.169s.045.115.136.168l.2.114a.579.579,0,0,0,.584,0l.685-.4q.136-.079.136-.169c0-.061-.044-.116-.133-.169l-.2-.114a.572.572,0,0,0-.29-.077m-.157.164a.318.318,0,0,1,.338,0l.163.094c.109.062.106.127-.009.193l-.674.389a.313.313,0,0,1-.335,0l-.163-.094c-.11-.064-.108-.129.006-.195Z" transform="translate(-91.883 -18.914)" fill="#ffd85a"/>
              <path id="Path_9280" data-name="Path 9280" d="M116.145,32.674a.573.573,0,0,0-.293.078l-.687.4c-.092.053-.138.109-.137.169s.045.116.136.168l.2.114a.579.579,0,0,0,.584,0l.685-.4q.136-.077.136-.169c0-.06-.044-.115-.133-.168l-.2-.114a.572.572,0,0,0-.29-.077m-.157.164a.318.318,0,0,1,.338,0l.163.094c.109.062.106.127-.009.193l-.674.389a.316.316,0,0,1-.335,0l-.163-.094c-.11-.064-.108-.129.006-.195Z" transform="translate(-92.067 -19.02)" fill="#ffd85a"/>
              <path id="Path_9281" data-name="Path 9281" d="M114.139,31.516a.57.57,0,0,0-.293.078l-.687.4c-.092.053-.138.109-.137.169s.045.116.136.168l.2.114a.579.579,0,0,0,.584,0l.685-.4c.091-.053.136-.109.136-.17s-.044-.115-.133-.166l-.2-.115a.572.572,0,0,0-.29-.077m-.157.164a.318.318,0,0,1,.338,0l.163.094c.109.062.106.127-.009.193l-.674.389a.313.313,0,0,1-.335,0l-.163-.093c-.11-.065-.109-.13.006-.2Z" transform="translate(-92.517 -19.279)" fill="#ffd85a"/>
              <path id="Path_9282" data-name="Path 9282" d="M113.316,31.04a.57.57,0,0,0-.293.078l-.687.4c-.092.053-.138.109-.137.169s.045.115.135.168l.2.114a.577.577,0,0,0,.583,0l.687-.4c.091-.053.136-.109.136-.17s-.044-.115-.133-.166l-.2-.115a.575.575,0,0,0-.29-.077m-.157.164a.318.318,0,0,1,.338,0l.163.094c.109.062.106.127-.009.193l-.674.389a.313.313,0,0,1-.335,0l-.163-.093c-.11-.065-.108-.13.006-.2Z" transform="translate(-92.701 -19.386)" fill="#ffd85a"/>
              <path id="Path_9283" data-name="Path 9283" d="M112.492,30.564a.57.57,0,0,0-.293.078l-.687.4c-.092.053-.138.109-.137.169s.045.115.135.168l.2.114a.577.577,0,0,0,.583,0l.687-.4q.136-.079.136-.169c0-.061-.044-.116-.133-.168l-.2-.115a.575.575,0,0,0-.29-.077m-.157.164a.318.318,0,0,1,.338,0l.163.094c.109.062.106.127-.009.193l-.674.389a.313.313,0,0,1-.335,0l-.163-.093c-.11-.065-.108-.13.006-.2Z" transform="translate(-92.886 -19.493)" fill="#ffd85a"/>
              <path id="Path_9284" data-name="Path 9284" d="M111.668,30.089a.57.57,0,0,0-.293.078l-.687.4c-.092.053-.138.109-.137.169s.045.115.135.168l.2.114a.577.577,0,0,0,.583,0l.687-.4q.136-.079.136-.169c0-.06-.044-.116-.133-.168l-.2-.115a.575.575,0,0,0-.29-.077m-.157.164a.318.318,0,0,1,.338,0l.163.094c.109.062.106.127-.009.193l-.674.389a.313.313,0,0,1-.335,0l-.163-.093c-.11-.065-.108-.13.006-.2Z" transform="translate(-93.07 -19.599)" fill="#ffd85a"/>
              <path id="Path_9285" data-name="Path 9285" d="M109.662,28.931a.57.57,0,0,0-.293.078l-.687.4c-.092.053-.138.109-.137.169s.045.115.136.168l.2.114a.586.586,0,0,0,.29.078.576.576,0,0,0,.294-.08l.685-.4q.136-.077.136-.169c0-.06-.044-.115-.133-.168l-.2-.114a.572.572,0,0,0-.29-.077m-.157.164a.318.318,0,0,1,.338,0l.163.094c.109.062.106.127-.009.193l-.674.389a.316.316,0,0,1-.335,0l-.163-.094c-.11-.064-.108-.129.006-.195Z" transform="translate(-93.519 -19.858)" fill="#ffd85a"/>
              <path id="Path_9286" data-name="Path 9286" d="M108.839,28.455a.57.57,0,0,0-.293.078l-.687.4c-.092.053-.138.109-.137.169s.045.115.136.168l.2.114a.577.577,0,0,0,.583,0l.687-.4c.091-.053.136-.109.136-.17s-.044-.115-.133-.168l-.2-.114a.572.572,0,0,0-.29-.077m-.157.164a.318.318,0,0,1,.338,0l.163.094c.109.062.106.127-.009.193l-.674.389a.313.313,0,0,1-.335,0L108,29.2c-.11-.064-.108-.129.006-.195Z" transform="translate(-93.704 -19.965)" fill="#ffd85a"/>
              <path id="Path_9287" data-name="Path 9287" d="M108.015,27.98a.57.57,0,0,0-.293.078l-.687.4c-.092.053-.138.109-.137.169s.045.115.136.168l.2.114a.579.579,0,0,0,.584,0l.685-.4c.091-.053.136-.109.136-.17s-.044-.115-.133-.168l-.2-.114a.572.572,0,0,0-.29-.077m-.157.164a.318.318,0,0,1,.338,0l.163.094c.109.062.106.127-.009.193l-.674.389a.313.313,0,0,1-.335,0l-.163-.094c-.11-.064-.108-.129.006-.195Z" transform="translate(-93.888 -20.071)" fill="#ffd85a"/>
              <path id="Path_9288" data-name="Path 9288" d="M107.191,27.5a.57.57,0,0,0-.293.078l-.687.4c-.092.053-.138.109-.137.169s.045.115.136.168l.2.114a.579.579,0,0,0,.584,0l.685-.4q.136-.079.136-.169c0-.061-.044-.116-.133-.169l-.2-.114a.572.572,0,0,0-.29-.077m-.157.164a.318.318,0,0,1,.338,0l.163.094c.109.062.106.127-.009.193l-.674.389a.313.313,0,0,1-.335,0l-.163-.094c-.11-.064-.108-.129.006-.195Z" transform="translate(-94.073 -20.178)" fill="#ffd85a"/>
              <path id="Path_9289" data-name="Path 9289" d="M105.185,26.346a.565.565,0,0,0-.291.078l-.688.4c-.092.053-.138.109-.137.169s.045.116.136.168l.2.114a.579.579,0,0,0,.584,0l.685-.4c.091-.051.136-.108.136-.168s-.044-.116-.133-.169l-.2-.114a.572.572,0,0,0-.29-.077m-.155.164a.316.316,0,0,1,.337,0l.163.094c.109.062.106.127-.009.193l-.674.389a.313.313,0,0,1-.335,0l-.163-.094c-.11-.064-.108-.129.006-.195Z" transform="translate(-94.522 -20.437)" fill="#ffd85a"/>
              <path id="Path_9290" data-name="Path 9290" d="M104.362,25.87a.57.57,0,0,0-.293.078l-.687.4c-.092.053-.138.109-.137.169s.045.115.136.168l.2.114a.579.579,0,0,0,.584,0l.685-.4q.136-.077.136-.169c0-.06-.044-.115-.133-.168l-.2-.114a.575.575,0,0,0-.29-.077m-.157.164a.318.318,0,0,1,.338,0l.163.094c.109.062.106.127-.009.193l-.674.389a.316.316,0,0,1-.335,0l-.163-.094c-.11-.064-.109-.129.006-.195Z" transform="translate(-94.706 -20.544)" fill="#ffd85a"/>
              <path id="Path_9291" data-name="Path 9291" d="M103.538,25.4a.57.57,0,0,0-.293.078l-.687.4c-.092.053-.138.109-.137.169s.045.116.136.168l.2.114a.579.579,0,0,0,.584,0l.685-.4c.091-.053.136-.109.136-.17s-.044-.115-.133-.166l-.2-.115a.575.575,0,0,0-.29-.077m-.157.164a.318.318,0,0,1,.338,0l.163.094c.109.062.106.127-.009.193l-.674.389a.313.313,0,0,1-.335,0l-.163-.093c-.11-.065-.109-.13.006-.2Z" transform="translate(-94.891 -20.65)" fill="#ffd85a"/>
              <path id="Path_9292" data-name="Path 9292" d="M102.421,25l-.685.4c-.092.053-.138.109-.137.169s.045.115.135.168l.2.114a.577.577,0,0,0,.583,0l.687-.4c.091-.053.136-.109.136-.17s-.044-.115-.135-.168L103,25a.587.587,0,0,0-.584,0m.137.086a.318.318,0,0,1,.338,0l.163.094c.109.062.106.127-.009.193l-.674.389a.313.313,0,0,1-.335,0l-.163-.094c-.11-.064-.108-.129.006-.195Z" transform="translate(-95.075 -20.757)" fill="#ffd85a"/>
              <path id="Path_9293" data-name="Path 9293" d="M105.56,23.188l.984-.568a3.435,3.435,0,0,1,.453.23c.078.045.119.093.12.144s-.039.1-.119.146l-.539.311a.492.492,0,0,1-.251.067.5.5,0,0,1-.252-.069l-.4-.23c-.018-.01-.018-.021,0-.032m.284.038.228.131a.222.222,0,0,0,.236,0l.525-.3c.081-.047.081-.092,0-.136l-.228-.132c-.034,0-.765.421-.765.421s-.012.013,0,.021" transform="translate(-94.191 -21.272)" fill="#ffd85a"/>
              <path id="Path_9294" data-name="Path 9294" d="M106.807,23.941l-.518-.3c0-.032.985-.6.985-.6a5.423,5.423,0,0,1,.572.3c0,.031-.083.078-.083.078a2.935,2.935,0,0,1-.422-.212,2.184,2.184,0,0,0-.308.155,2.863,2.863,0,0,0,.315.2c0,.033-.081.081-.081.081a2.35,2.35,0,0,1-.368-.181,2.393,2.393,0,0,0-.323.164,3.769,3.769,0,0,0,.37.234c0,.031-.083.078-.083.078a.05.05,0,0,1-.054,0" transform="translate(-94.025 -21.177)" fill="#ffd85a"/>
              <path id="Path_9295" data-name="Path 9295" d="M106.926,23.978l.985-.569a3.22,3.22,0,0,1,.438.222c.08.047.12.094.121.144s-.038.1-.116.144l-.08.045a.38.38,0,0,1-.313.028.1.1,0,0,1,.049.092c0,.034-.032.066-.086.1l-.1.06a.487.487,0,0,1-.5,0l-.4-.229c-.018-.011-.018-.021,0-.032m.744-.228.211.121a.224.224,0,0,0,.24,0l.075-.043c.077-.044.077-.091,0-.136l-.214-.124a2.4,2.4,0,0,0-.31.159c-.011.006-.011.012,0,.02m-.463.267.226.131a.222.222,0,0,0,.237,0l.1-.058c.077-.045.073-.092-.011-.141l-.22-.127a2.8,2.8,0,0,0-.334.173c-.011.006-.011.012,0,.02" transform="translate(-93.885 -21.095)" fill="#ffd85a"/>
              <path id="Path_9296" data-name="Path 9296" d="M108.8,23.925l-.984.568a.461.461,0,0,1-.157-.059c0-.032.984-.6.984-.6a.461.461,0,0,1,.157.059c.018.011.018.021,0,.032" transform="translate(-93.718 -21)" fill="#ffd85a"/>
              <path id="Path_9297" data-name="Path 9297" d="M108.216,24.782l-.1-.059c0-.033.857-.529.857-.529a1.315,1.315,0,0,0-.2-.136c0-.033.081-.081.081-.081a7.123,7.123,0,0,1,.657.348c0,.033-.081.081-.081.081a1.185,1.185,0,0,1-.261-.119c-.034,0-.892.494-.892.494a.05.05,0,0,1-.055,0" transform="translate(-93.616 -20.968)" fill="#ffd85a"/>
              <path id="Path_9298" data-name="Path 9298" d="M109.253,25.354l-.187-.108c-.08-.047-.12-.1-.119-.146s.039-.1.119-.144l.539-.311a.491.491,0,0,1,.5,0l.187.109c.08.045.119.093.12.144s-.04.1-.12.144l-.077.045a.468.468,0,0,1-.16-.059c0-.033.073-.075.073-.075.08-.045.081-.091,0-.136l-.141-.081a.22.22,0,0,0-.235,0l-.526.3c-.08.047-.081.092,0,.136l.14.082a.222.222,0,0,0,.236,0l.071-.04a.439.439,0,0,1,.159.058c0,.034-.078.078-.078.078a.491.491,0,0,1-.5,0" transform="translate(-93.43 -20.834)" fill="#ffd85a"/>
              <path id="Path_9299" data-name="Path 9299" d="M109.632,25.543l-.116-.067c.011-.024,1.277-.431,1.277-.431a.082.082,0,0,1,.066.006l.162.093a10.124,10.124,0,0,1-.692.77.463.463,0,0,1-.16-.061c0-.032.148-.188.148-.188l-.356-.206-.272.086a.068.068,0,0,1-.056,0m1.149-.357-.66.217.293.169.373-.382Z" transform="translate(-93.302 -20.73)" fill="#ffd85a"/>
              <path id="Path_9300" data-name="Path 9300" d="M110.414,26.024l-.1-.059c0-.032.984-.6.984-.6a3.205,3.205,0,0,1,.432.218c.081.045.119.094.119.146s-.038.1-.119.146l-.136.078A.471.471,0,0,1,111.2,26c-.006,0-.2.326-.2.326-.009.02-.027.022-.054.007l-.1-.059c-.022-.044.177-.359.177-.359l-.164-.094a3.5,3.5,0,0,0-.392.2.048.048,0,0,1-.054,0m.574-.279.206.119a.222.222,0,0,0,.237,0l.136-.078c.078-.047.078-.093,0-.138l-.207-.119a3.5,3.5,0,0,0-.375.2c-.01.006-.01.012,0,.02" transform="translate(-93.124 -20.657)" fill="#ffd85a"/>
              <path id="Path_9301" data-name="Path 9301" d="M111.031,26.347l.984-.569a3.435,3.435,0,0,1,.453.23c.078.045.119.093.12.144s-.039.1-.119.146l-.539.311a.5.5,0,0,1-.5,0l-.4-.23c-.018-.01-.018-.021,0-.031m.284.037.228.132a.222.222,0,0,0,.236,0l.526-.3c.08-.045.08-.091,0-.136l-.228-.132c-.034,0-.765.421-.765.421s-.012.013,0,.021" transform="translate(-92.966 -20.565)" fill="#ffd85a"/>
            </g>
          </g>
          <g id="Group_30587" data-name="Group 30587" transform="translate(89.928 37.012)">
            <path id="Path_9303" data-name="Path 9303" d="M85.228,38.157,82.558,39.7c-.378.219-.685.089-.685-.29v-1.7a1.423,1.423,0,0,1,.685-1.081l2.669-1.541c.378-.219.685-.089.685.29v1.7a1.423,1.423,0,0,1-.685,1.081" transform="translate(-81.873 -29.176)" fill="#b3d7ff"/>
            <path id="Path_9304" data-name="Path 9304" d="M89.337,35.785l-2.669,1.541c-.378.219-.685.089-.685-.29v-1.7a1.423,1.423,0,0,1,.685-1.081l2.669-1.541c.378-.219.685-.089.685.29v1.7a1.423,1.423,0,0,1-.685,1.081" transform="translate(-80.953 -29.708)" fill="#b3d7ff"/>
            <path id="Path_9305" data-name="Path 9305" d="M93.446,33.412l-2.669,1.541c-.378.219-.685.089-.685-.29v-1.7a1.423,1.423,0,0,1,.685-1.081l2.669-1.541c.378-.219.685-.089.685.29v1.7a1.423,1.423,0,0,1-.685,1.081" transform="translate(-80.032 -30.239)" fill="#b3d7ff"/>
            <path id="Path_9306" data-name="Path 9306" d="M85.228,41.3l-2.669,1.541c-.378.219-.685.089-.685-.29v-1.7a1.423,1.423,0,0,1,.685-1.081l2.669-1.541c.378-.219.685-.089.685.29v1.7a1.421,1.421,0,0,1-.685,1.081" transform="translate(-81.873 -28.473)" fill="#b3d7ff"/>
            <path id="Path_9307" data-name="Path 9307" d="M89.337,38.927l-2.669,1.541c-.378.219-.685.089-.685-.29v-1.7a1.423,1.423,0,0,1,.685-1.081l2.669-1.541c.378-.219.685-.089.685.29v1.7a1.421,1.421,0,0,1-.685,1.081" transform="translate(-80.953 -29.004)" fill="#b3d7ff"/>
            <path id="Path_9308" data-name="Path 9308" d="M93.446,36.554l-2.669,1.541c-.378.219-.685.089-.685-.29v-1.7a1.423,1.423,0,0,1,.685-1.081l2.669-1.541c.378-.219.685-.089.685.29v1.7a1.421,1.421,0,0,1-.685,1.081" transform="translate(-80.032 -29.535)" fill="#b3d7ff"/>
            <path id="Path_9309" data-name="Path 9309" d="M85.228,44.442l-2.669,1.541c-.378.219-.685.089-.685-.289V44a1.423,1.423,0,0,1,.685-1.081l2.669-1.541c.378-.219.685-.089.685.29v1.7a1.421,1.421,0,0,1-.685,1.081" transform="translate(-81.873 -27.769)" fill="#b3d7ff"/>
            <path id="Path_9310" data-name="Path 9310" d="M89.337,42.069l-2.669,1.541c-.378.219-.685.089-.685-.289v-1.7a1.423,1.423,0,0,1,.685-1.081L89.337,39c.378-.219.685-.089.685.29v1.7a1.421,1.421,0,0,1-.685,1.081" transform="translate(-80.953 -28.3)" fill="#b3d7ff"/>
            <path id="Path_9311" data-name="Path 9311" d="M93.446,39.7l-2.669,1.541c-.378.219-.685.089-.685-.289v-1.7a1.423,1.423,0,0,1,.685-1.081l2.669-1.541c.378-.219.685-.088.685.29v1.7a1.421,1.421,0,0,1-.685,1.081" transform="translate(-80.032 -28.831)" fill="#b3d7ff"/>
            <path id="Path_9312" data-name="Path 9312" d="M85.228,47.584l-2.669,1.541c-.378.219-.685.089-.685-.29v-1.7a1.423,1.423,0,0,1,.685-1.081l2.669-1.541c.378-.219.685-.089.685.29v1.7a1.423,1.423,0,0,1-.685,1.081" transform="translate(-81.873 -27.065)" fill="#95acf4"/>
            <path id="Path_9313" data-name="Path 9313" d="M89.337,45.212l-2.669,1.541c-.378.219-.685.089-.685-.29v-1.7a1.423,1.423,0,0,1,.685-1.081l2.669-1.541c.378-.219.685-.089.685.29v1.7a1.423,1.423,0,0,1-.685,1.081" transform="translate(-80.953 -27.596)" fill="#b3d7ff"/>
            <path id="Path_9314" data-name="Path 9314" d="M93.446,42.839l-2.669,1.541c-.378.219-.685.089-.685-.29v-1.7a1.423,1.423,0,0,1,.685-1.081l2.669-1.541c.378-.219.685-.089.685.29v1.7a1.423,1.423,0,0,1-.685,1.081" transform="translate(-80.032 -28.128)" fill="#95acf4"/>
          </g>
        </g>
      </g>
    </g>
  </g>
</svg>
