<svg xmlns="http://www.w3.org/2000/svg" xmlns:xlink="http://www.w3.org/1999/xlink" width="160" height="160" viewBox="0 0 160 160">
  <defs>
    <clipPath id="clip-path">
      <rect id="Rectangle_2242" data-name="Rectangle 2242" width="160" height="160" rx="16" transform="translate(449 -792)" fill="#f7f7f7"/>
    </clipPath>
    <filter id="Union_70" x="-13.268" y="18.698" width="186.537" height="154.605" filterUnits="userSpaceOnUse">
      <feOffset dy="16" input="SourceAlpha"/>
      <feGaussianBlur stdDeviation="12" result="blur"/>
      <feFlood flood-opacity="0.161"/>
      <feComposite operator="in" in2="blur"/>
      <feComposite in="SourceGraphic"/>
    </filter>
    <clipPath id="clip-path-2">
      <rect id="Rectangle_1964" data-name="Rectangle 1964" width="120" height="86.545" fill="none"/>
    </clipPath>
  </defs>
  <g id="returReq" transform="translate(-449 792)">
    <g id="Mask_Group_15" data-name="Mask Group 15" clip-path="url(#clip-path)">
      <g id="Group_31573" data-name="Group 31573">
        <rect id="Rectangle_1963" data-name="Rectangle 1963" width="160" height="160" rx="16" transform="translate(449 -792)" fill="#f7f7f7"/>
        <g transform="matrix(1, 0, 0, 1, 449, -792)" filter="url(#Union_70)">
          <path id="Union_70-2" data-name="Union 70" d="M-658.206,831.887v1.687l-.947.547v.021l-.018-.011-.018.011v-.021l-20.532-11.847V819.93l-.808-.466V787.13l20.568,11.877v0L-680.53,787.13-621.9,753.3l8.178,4.723v-1.374a58.411,58.411,0,0,1,7.854-2.729,4.343,4.343,0,0,1,1.325-.109,5.37,5.37,0,0,1,3.521,1.014l19.042,11.335a5.307,5.307,0,0,1,3.139,4.867v13.832h0v-.706l1.648.963v2.1l-4.011,2.314v-1.408h0v1.407l-1.082-.626v-.155l-.423.244h0l-1.527-.923a4.091,4.091,0,0,1,.828,2.734c0,2.886-1.756,6.239-3.92,7.489a2.482,2.482,0,0,1-2.625.17l-1.813-1.021v.929l-9.661,5.522a8.606,8.606,0,0,1-3.38,4.529,2.482,2.482,0,0,1-2.625.169l-2.639-1.485-.054-.023c-.27,2.691-1.9,5.584-3.88,6.725a2.486,2.486,0,0,1-2.617.175l-2.2-1.237v1.012L-636.156,824v0l-.9-.517a9.059,9.059,0,0,1-3.7,5.613,2.477,2.477,0,0,1-2.637.163l-1.833-1.031a9.052,9.052,0,0,1-3.688,5.587,3.027,3.027,0,0,1-1.715.464v1.16l-.62.462V834.14h0v1.767Zm75.917-43.491h0a3.656,3.656,0,0,0-1.9-2.7h0A3.657,3.657,0,0,1-582.289,788.4Zm3.445-2.332,1.649-.947-1.649.947Zm-112.267,7.952-.186-.138.185.138V824.5l-.619-.462V793.556h0l10.3-5.948.619.462v30.493l-10.3,5.945Z" transform="translate(714.46 -714.6)" fill="#f7f7f7"/>
        </g>
        <g id="Group_30425" data-name="Group 30425" transform="translate(469 -755.272)">
          <path id="Path_8550" data-name="Path 8550" d="M110.9,13.41,90.9,1.5,85.855,4.522l19.253,10.746Z" transform="translate(4.096 0.072)" fill="#24b24c"/>
          <g id="Group_30426" data-name="Group 30426" transform="translate(0 0)">
            <g id="Group_30425-2" data-name="Group 30425" clip-path="url(#clip-path-2)">
              <path id="Path_8551" data-name="Path 8551" d="M85.387,1.256l-10.8,6.629v25.78L79.34,30.92c.531-3.67,2.768-7.487,5.448-9.034s4.918-.314,5.449,2.743l3.544-2.046V6.1a5.6,5.6,0,0,0-8.4-4.847" transform="translate(3.558 0.024)" fill="#24b24c"/>
              <path id="Path_8552" data-name="Path 8552" d="M109.3,35.888l-3.15-1.9-2.966-1.514s2.533-.806,2.693-.906,4.24,1.358,3.424,4.325" transform="translate(4.922 1.506)" fill="#262626"/>
              <path id="Path_8553" data-name="Path 8553" d="M105.748,36.025c0,3.024-1.839,6.537-4.106,7.846s-4.107-.081-4.107-3.1,1.839-6.537,4.107-7.846,4.106.081,4.106,3.1" transform="translate(4.653 1.547)" fill="#303030"/>
              <path id="Path_8554" data-name="Path 8554" d="M101.995,45.8,99.021,44.13l5.306-11.4,2.846,1.59Z" transform="translate(4.724 1.562)" fill="#303030"/>
              <path id="Path_8555" data-name="Path 8555" d="M108.694,37.666c0,3.024-1.84,6.537-4.107,7.846s-4.107-.081-4.107-3.1,1.839-6.537,4.107-7.846,4.107.081,4.107,3.1" transform="translate(4.793 1.625)" fill="#494949"/>
              <path id="Path_8556" data-name="Path 8556" d="M107.183,38.5a6.376,6.376,0,0,1-2.662,5.087c-1.47.849-2.662-.052-2.662-2.013a6.376,6.376,0,0,1,2.662-5.087c1.47-.849,2.662.052,2.662,2.013" transform="translate(4.859 1.725)" fill="#969696"/>
              <path id="Path_8557" data-name="Path 8557" d="M106.4,38.881a4.573,4.573,0,0,1-1.91,3.649c-1.055.61-1.91-.037-1.91-1.444a4.573,4.573,0,0,1,1.91-3.649c1.055-.61,1.91.038,1.91,1.444" transform="translate(4.893 1.775)" fill="#fff"/>
              <path id="Path_8558" data-name="Path 8558" d="M105.366,39.385a2.214,2.214,0,0,1-.924,1.764c-.51.294-.923-.018-.923-.7a2.21,2.21,0,0,1,.923-1.764c.509-.294.924.018.924.7" transform="translate(4.938 1.84)" fill="#383838"/>
              <path id="Path_8559" data-name="Path 8559" d="M104.585,37.948a.426.426,0,0,1-.177.338c-.1.057-.177,0-.177-.134a.426.426,0,0,1,.177-.338c.1-.057.177,0,.177.134" transform="translate(4.972 1.803)" fill="#383838"/>
              <path id="Path_8560" data-name="Path 8560" d="M105.728,37.948a.426.426,0,0,1-.177.338c-.1.057-.177,0-.177-.134a.426.426,0,0,1,.177-.338c.1-.057.177,0,.177.134" transform="translate(5.027 1.803)" fill="#383838"/>
              <path id="Path_8561" data-name="Path 8561" d="M103.535,39.212a.426.426,0,0,1-.177.338c-.1.057-.177,0-.177-.134a.426.426,0,0,1,.177-.338c.1-.057.177,0,.177.134" transform="translate(4.922 1.863)" fill="#383838"/>
              <path id="Path_8562" data-name="Path 8562" d="M105.728,40.321a.426.426,0,0,1-.177.338c-.1.057-.177,0-.177-.134a.426.426,0,0,1,.177-.338c.1-.057.177,0,.177.134" transform="translate(5.027 1.916)" fill="#383838"/>
              <path id="Path_8563" data-name="Path 8563" d="M103.535,41.586a.425.425,0,0,1-.177.338c-.1.057-.177,0-.177-.134a.426.426,0,0,1,.177-.338c.1-.056.177,0,.177.134" transform="translate(4.922 1.977)" fill="#383838"/>
              <path id="Path_8564" data-name="Path 8564" d="M106,39.042a.426.426,0,0,1-.177.338c-.1.057-.177,0-.177-.134a.426.426,0,0,1,.177-.338c.1-.057.177,0,.177.134" transform="translate(5.04 1.855)" fill="#383838"/>
              <path id="Path_8565" data-name="Path 8565" d="M103.2,40.657a.426.426,0,0,1-.177.338c-.1.058-.177,0-.177-.133a.428.428,0,0,1,.177-.339c.1-.057.177.005.177.134" transform="translate(4.906 1.932)" fill="#383838"/>
              <path id="Path_8566" data-name="Path 8566" d="M104.585,41.586a.425.425,0,0,1-.177.338c-.1.057-.177,0-.177-.134a.426.426,0,0,1,.177-.338c.1-.056.177,0,.177.134" transform="translate(4.972 1.977)" fill="#383838"/>
              <path id="Path_8567" data-name="Path 8567" d="M78.147,45.084l14.641-8.372L101,41.455,86.295,49.88Z" transform="translate(3.728 1.751)" fill="#6b6b6b"/>
              <path id="Path_8568" data-name="Path 8568" d="M100.635,41.239l-14.78,8.453V53.7l14.78-8.448Z" transform="translate(4.096 1.967)" fill="#5b5b5b"/>
              <path id="Path_8569" data-name="Path 8569" d="M99.428,44.544,91.39,49.159v.455L99.428,45Z" transform="translate(4.36 2.125)" fill="#8c8c8c"/>
              <path id="Path_8570" data-name="Path 8570" d="M99.428,43.6,91.39,48.212v.455l8.038-4.613Z" transform="translate(4.36 2.08)" fill="#8c8c8c"/>
              <path id="Path_8571" data-name="Path 8571" d="M95.583,20.372l10.711-6.428L84.835,1.553,74.262,8.061Z" transform="translate(3.543 0.074)" fill="#0b8d45"/>
              <path id="Path_8572" data-name="Path 8572" d="M78.005,8.489s6.357-3.881,8.643-5.208a29.657,29.657,0,0,1,2.722-1.362S89.128-.01,86.235.626a61.191,61.191,0,0,0-8.23,2.859Z" transform="translate(3.721 0.024)" fill="#0b8d45"/>
              <path id="Path_8573" data-name="Path 8573" d="M105.552,10.744,88.6.833,78.969,4.055,95.528,15.3Z" transform="translate(3.767 0.04)" fill="#0b8d45"/>
              <path id="Path_8574" data-name="Path 8574" d="M95.03,45.451l-9.175-4.878V14.335l9.175,5.3Z" transform="translate(4.096 0.684)" fill="#24b24c"/>
              <path id="Path_8575" data-name="Path 8575" d="M95.574,18.53,78.005,8.773V3.349L95.574,13.526Z" transform="translate(3.721 0.16)" fill="#24b24c"/>
              <path id="Path_8576" data-name="Path 8576" d="M51.262,63.794,55.781,66.4v4.63l-4.519-2.61Z" transform="translate(2.445 3.043)" fill="#303030"/>
              <path id="Path_8577" data-name="Path 8577" d="M88.27,46.154c0,3.024-1.839,6.537-4.106,7.846s-4.107-.081-4.107-3.1,1.839-6.537,4.107-7.846,4.106.081,4.106,3.1" transform="translate(3.819 2.03)" fill="#303030"/>
              <path id="Path_8578" data-name="Path 8578" d="M84.517,55.932l-2.973-1.673,5.306-11.4,2.846,1.59Z" transform="translate(3.89 2.045)" fill="#303030"/>
              <path id="Path_8579" data-name="Path 8579" d="M91.215,47.795c0,3.024-1.839,6.537-4.106,7.846S83,55.56,83,52.537,84.841,46,87.109,44.69s4.106.081,4.106,3.1" transform="translate(3.96 2.109)" fill="#494949"/>
              <path id="Path_8580" data-name="Path 8580" d="M89.705,48.625a6.376,6.376,0,0,1-2.662,5.087c-1.47.849-2.662-.052-2.662-2.013a6.376,6.376,0,0,1,2.662-5.087c1.47-.849,2.662.052,2.662,2.013" transform="translate(4.025 2.209)" fill="#969696"/>
              <path id="Path_8581" data-name="Path 8581" d="M88.919,49.01a4.573,4.573,0,0,1-1.91,3.649c-1.055.61-1.91-.037-1.91-1.444a4.573,4.573,0,0,1,1.91-3.649c1.055-.61,1.91.038,1.91,1.444" transform="translate(4.06 2.258)" fill="#fff"/>
              <path id="Path_8582" data-name="Path 8582" d="M87.888,49.514a2.213,2.213,0,0,1-.923,1.764c-.51.294-.924-.018-.924-.7a2.211,2.211,0,0,1,.924-1.764c.509-.294.923.018.923.7" transform="translate(4.105 2.324)" fill="#383838"/>
              <path id="Path_8583" data-name="Path 8583" d="M87.107,48.077a.426.426,0,0,1-.177.338c-.1.057-.177,0-.177-.134a.426.426,0,0,1,.177-.338c.1-.057.177,0,.177.134" transform="translate(4.139 2.286)" fill="#383838"/>
              <path id="Path_8584" data-name="Path 8584" d="M88.25,48.077a.426.426,0,0,1-.177.338c-.1.057-.177,0-.177-.134a.426.426,0,0,1,.177-.338c.1-.057.177,0,.177.134" transform="translate(4.193 2.286)" fill="#383838"/>
              <path id="Path_8585" data-name="Path 8585" d="M86.057,49.341a.425.425,0,0,1-.177.338c-.1.057-.177,0-.177-.134a.426.426,0,0,1,.177-.338c.1-.057.177,0,.177.134" transform="translate(4.089 2.347)" fill="#383838"/>
              <path id="Path_8586" data-name="Path 8586" d="M88.25,50.45a.426.426,0,0,1-.177.338c-.1.057-.177,0-.177-.134a.426.426,0,0,1,.177-.338c.1-.057.177,0,.177.134" transform="translate(4.193 2.399)" fill="#383838"/>
              <path id="Path_8587" data-name="Path 8587" d="M86.057,51.715a.426.426,0,0,1-.177.338c-.1.057-.177,0-.177-.134a.426.426,0,0,1,.177-.338c.1-.057.177,0,.177.134" transform="translate(4.089 2.46)" fill="#383838"/>
              <path id="Path_8588" data-name="Path 8588" d="M88.523,49.171a.426.426,0,0,1-.177.338c-.1.057-.177,0-.177-.134a.426.426,0,0,1,.177-.338c.1-.057.177,0,.177.134" transform="translate(4.206 2.338)" fill="#383838"/>
              <path id="Path_8589" data-name="Path 8589" d="M85.719,50.786a.426.426,0,0,1-.177.338c-.1.057-.177,0-.177-.134a.426.426,0,0,1,.177-.338c.1-.057.177,0,.177.134" transform="translate(4.072 2.415)" fill="#383838"/>
              <path id="Path_8590" data-name="Path 8590" d="M87.107,51.715a.426.426,0,0,1-.177.338c-.1.057-.177,0-.177-.134a.426.426,0,0,1,.177-.338c.1-.057.177,0,.177.134" transform="translate(4.139 2.46)" fill="#383838"/>
              <path id="Path_8591" data-name="Path 8591" d="M79.07,51.541c0,3.024-1.839,6.537-4.106,7.846s-4.107-.081-4.107-3.1,1.839-6.537,4.107-7.846,4.106.081,4.106,3.1" transform="translate(3.38 2.287)" fill="#303030"/>
              <path id="Path_8592" data-name="Path 8592" d="M75.317,61.32l-2.973-1.673,5.306-11.4,2.846,1.59Z" transform="translate(3.451 2.302)" fill="#303030"/>
              <path id="Path_8593" data-name="Path 8593" d="M82.016,53.182c0,3.024-1.839,6.537-4.106,7.846s-4.107-.081-4.107-3.1,1.839-6.537,4.107-7.846,4.106.081,4.106,3.1" transform="translate(3.521 2.366)" fill="#494949"/>
              <path id="Path_8594" data-name="Path 8594" d="M80.505,54.012A6.374,6.374,0,0,1,77.843,59.1c-1.47.849-2.662-.052-2.662-2.013A6.376,6.376,0,0,1,77.843,52c1.471-.849,2.662.052,2.662,2.013" transform="translate(3.587 2.466)" fill="#969696"/>
              <path id="Path_8595" data-name="Path 8595" d="M79.72,54.4a4.574,4.574,0,0,1-1.911,3.649c-1.055.61-1.91-.037-1.91-1.444a4.573,4.573,0,0,1,1.91-3.649c1.055-.61,1.911.038,1.911,1.444" transform="translate(3.621 2.515)" fill="#fff"/>
              <path id="Path_8596" data-name="Path 8596" d="M78.688,54.9a2.211,2.211,0,0,1-.924,1.764c-.509.294-.923-.018-.923-.7a2.213,2.213,0,0,1,.923-1.764c.51-.294.924.018.924.7" transform="translate(3.666 2.581)" fill="#383838"/>
              <path id="Path_8597" data-name="Path 8597" d="M77.907,53.464a.426.426,0,0,1-.177.338c-.1.057-.177,0-.177-.134a.426.426,0,0,1,.177-.338c.1-.057.177,0,.177.134" transform="translate(3.7 2.543)" fill="#383838"/>
              <path id="Path_8598" data-name="Path 8598" d="M79.05,53.464a.426.426,0,0,1-.177.338c-.1.057-.177,0-.177-.134a.426.426,0,0,1,.177-.338c.1-.057.177,0,.177.134" transform="translate(3.754 2.543)" fill="#383838"/>
              <path id="Path_8599" data-name="Path 8599" d="M76.857,54.729a.426.426,0,0,1-.177.338c-.1.057-.177,0-.177-.134a.426.426,0,0,1,.177-.338c.1-.057.177,0,.177.134" transform="translate(3.65 2.604)" fill="#383838"/>
              <path id="Path_8600" data-name="Path 8600" d="M79.05,55.837a.426.426,0,0,1-.177.338c-.1.057-.177,0-.177-.134a.426.426,0,0,1,.177-.338c.1-.057.177,0,.177.134" transform="translate(3.754 2.656)" fill="#383838"/>
              <path id="Path_8601" data-name="Path 8601" d="M76.857,57.1a.426.426,0,0,1-.177.338c-.1.057-.177,0-.177-.134a.426.426,0,0,1,.177-.338c.1-.057.177,0,.177.134" transform="translate(3.65 2.717)" fill="#383838"/>
              <path id="Path_8602" data-name="Path 8602" d="M79.323,54.558a.426.426,0,0,1-.177.338c-.1.057-.177,0-.177-.134a.426.426,0,0,1,.177-.338c.1-.057.177,0,.177.134" transform="translate(3.767 2.595)" fill="#383838"/>
              <path id="Path_8603" data-name="Path 8603" d="M76.519,56.174a.426.426,0,0,1-.177.338c-.1.057-.177,0-.177-.134a.426.426,0,0,1,.177-.338c.1-.057.177,0,.177.134" transform="translate(3.633 2.673)" fill="#383838"/>
              <path id="Path_8604" data-name="Path 8604" d="M77.907,57.1a.426.426,0,0,1-.177.338c-.1.057-.177,0-.177-.134a.426.426,0,0,1,.177-.338c.1-.057.177,0,.177.134" transform="translate(3.7 2.717)" fill="#383838"/>
              <path id="Path_8605" data-name="Path 8605" d="M47.734,62.864,65.894,52.1l8.215,4.743L55.95,67.607Z" transform="translate(2.277 2.486)" fill="#6b6b6b"/>
              <path id="Path_8606" data-name="Path 8606" d="M55.576,67.363v4.011L73.735,60.64V56.626Z" transform="translate(2.651 2.701)" fill="#5b5b5b"/>
              <path id="Path_8607" data-name="Path 8607" d="M55.576,70.055v.455l17.406-10.2v-.456Z" transform="translate(2.651 2.855)" fill="#8c8c8c"/>
              <path id="Path_8608" data-name="Path 8608" d="M55.576,69.108v.455l17.406-10.2V58.9Z" transform="translate(2.651 2.81)" fill="#8c8c8c"/>
              <path id="Path_8609" data-name="Path 8609" d="M52.333,66.833c0,3.024-1.839,6.537-4.106,7.846s-4.107-.081-4.107-3.1,1.839-6.537,4.107-7.846,4.106.081,4.106,3.1" transform="translate(2.105 3.017)" fill="#303030"/>
              <path id="Path_8610" data-name="Path 8610" d="M48.579,76.611l-2.973-1.672,5.306-11.4,2.846,1.59Z" transform="translate(2.176 3.031)" fill="#303030"/>
              <path id="Path_8611" data-name="Path 8611" d="M55.278,68.474c0,3.024-1.839,6.537-4.106,7.846s-4.107-.081-4.107-3.1,1.839-6.537,4.107-7.846,4.106.081,4.106,3.1" transform="translate(2.245 3.095)" fill="#494949"/>
              <path id="Path_8612" data-name="Path 8612" d="M53.768,69.3a6.376,6.376,0,0,1-2.662,5.087c-1.47.849-2.662-.052-2.662-2.013a6.376,6.376,0,0,1,2.662-5.087c1.47-.849,2.662.052,2.662,2.013" transform="translate(2.311 3.195)" fill="#969696"/>
              <path id="Path_8613" data-name="Path 8613" d="M52.982,69.688a4.573,4.573,0,0,1-1.91,3.649c-1.055.61-1.91-.037-1.91-1.444a4.573,4.573,0,0,1,1.91-3.649c1.055-.61,1.91.038,1.91,1.444" transform="translate(2.345 3.245)" fill="#fff"/>
              <path id="Path_8614" data-name="Path 8614" d="M51.95,70.193a2.213,2.213,0,0,1-.923,1.764c-.51.294-.924-.018-.924-.7a2.211,2.211,0,0,1,.924-1.764c.509-.294.923.018.923.7" transform="translate(2.39 3.31)" fill="#383838"/>
              <path id="Path_8615" data-name="Path 8615" d="M51.17,68.755a.426.426,0,0,1-.177.338c-.1.057-.177,0-.177-.134a.426.426,0,0,1,.177-.338c.1-.057.177,0,.177.134" transform="translate(2.424 3.273)" fill="#383838"/>
              <path id="Path_8616" data-name="Path 8616" d="M52.313,68.755a.426.426,0,0,1-.177.338c-.1.057-.177,0-.177-.134a.426.426,0,0,1,.177-.338c.1-.057.177,0,.177.134" transform="translate(2.479 3.273)" fill="#383838"/>
              <path id="Path_8617" data-name="Path 8617" d="M50.119,70.02a.426.426,0,0,1-.177.338c-.1.057-.177,0-.177-.134a.426.426,0,0,1,.177-.338c.1-.057.177,0,.177.134" transform="translate(2.374 3.333)" fill="#383838"/>
              <path id="Path_8618" data-name="Path 8618" d="M52.313,71.129a.426.426,0,0,1-.177.338c-.1.057-.177,0-.177-.134a.426.426,0,0,1,.177-.338c.1-.057.177,0,.177.134" transform="translate(2.479 3.386)" fill="#383838"/>
              <path id="Path_8619" data-name="Path 8619" d="M50.119,72.393a.426.426,0,0,1-.177.338c-.1.057-.177,0-.177-.134a.426.426,0,0,1,.177-.338c.1-.057.177,0,.177.134" transform="translate(2.374 3.446)" fill="#383838"/>
              <path id="Path_8620" data-name="Path 8620" d="M52.585,69.85a.426.426,0,0,1-.177.338c-.1.057-.177,0-.177-.134a.426.426,0,0,1,.177-.338c.1-.057.177,0,.177.134" transform="translate(2.492 3.325)" fill="#383838"/>
              <path id="Path_8621" data-name="Path 8621" d="M49.781,71.465a.426.426,0,0,1-.177.338c-.1.057-.177,0-.177-.134a.426.426,0,0,1,.177-.338c.1-.057.177,0,.177.134" transform="translate(2.358 3.402)" fill="#383838"/>
              <path id="Path_8622" data-name="Path 8622" d="M51.17,72.393a.426.426,0,0,1-.177.338c-.1.057-.177,0-.177-.134a.426.426,0,0,1,.177-.338c.1-.057.177,0,.177.134" transform="translate(2.424 3.446)" fill="#383838"/>
              <path id="Path_8623" data-name="Path 8623" d="M44.173,71.552c0,3.024-1.839,6.537-4.106,7.846s-4.107-.081-4.107-3.1,1.839-6.537,4.107-7.846,4.106.081,4.106,3.1" transform="translate(1.715 3.242)" fill="#303030"/>
              <path id="Path_8624" data-name="Path 8624" d="M40.42,81.331l-2.974-1.673,5.307-11.4,2.846,1.59Z" transform="translate(1.786 3.257)" fill="#303030"/>
              <path id="Path_8625" data-name="Path 8625" d="M47.119,73.193c0,3.024-1.839,6.537-4.106,7.846s-4.107-.081-4.107-3.1,1.839-6.537,4.107-7.846,4.106.081,4.106,3.1" transform="translate(1.856 3.32)" fill="#494949"/>
              <path id="Path_8626" data-name="Path 8626" d="M45.608,74.024a6.374,6.374,0,0,1-2.662,5.087c-1.47.849-2.662-.052-2.662-2.013a6.376,6.376,0,0,1,2.662-5.087c1.471-.849,2.662.052,2.662,2.013" transform="translate(1.922 3.42)" fill="#969696"/>
              <path id="Path_8627" data-name="Path 8627" d="M44.822,74.408a4.573,4.573,0,0,1-1.91,3.649c-1.055.61-1.91-.037-1.91-1.444a4.573,4.573,0,0,1,1.91-3.649c1.055-.61,1.91.038,1.91,1.444" transform="translate(1.956 3.47)" fill="#fff"/>
              <path id="Path_8628" data-name="Path 8628" d="M43.791,74.913a2.213,2.213,0,0,1-.923,1.764c-.51.294-.924-.018-.924-.7a2.211,2.211,0,0,1,.924-1.764c.509-.294.923.018.923.7" transform="translate(2.001 3.535)" fill="#383838"/>
              <path id="Path_8629" data-name="Path 8629" d="M43.01,73.475a.426.426,0,0,1-.177.338c-.1.057-.177,0-.177-.134a.426.426,0,0,1,.177-.338c.1-.057.177,0,.177.134" transform="translate(2.035 3.498)" fill="#383838"/>
              <path id="Path_8630" data-name="Path 8630" d="M44.153,73.475a.426.426,0,0,1-.177.338c-.1.057-.177,0-.177-.134a.426.426,0,0,1,.177-.338c.1-.057.177,0,.177.134" transform="translate(2.089 3.498)" fill="#383838"/>
              <path id="Path_8631" data-name="Path 8631" d="M41.96,74.74a.426.426,0,0,1-.177.338c-.1.057-.177,0-.177-.134a.426.426,0,0,1,.177-.338c.1-.057.177,0,.177.134" transform="translate(1.985 3.558)" fill="#383838"/>
              <path id="Path_8632" data-name="Path 8632" d="M44.153,75.848a.426.426,0,0,1-.177.338c-.1.057-.177,0-.177-.134a.426.426,0,0,1,.177-.338c.1-.057.177,0,.177.134" transform="translate(2.089 3.611)" fill="#383838"/>
              <path id="Path_8633" data-name="Path 8633" d="M41.96,77.113a.426.426,0,0,1-.177.338c-.1.057-.177,0-.177-.134a.426.426,0,0,1,.177-.338c.1-.057.177,0,.177.134" transform="translate(1.985 3.671)" fill="#383838"/>
              <path id="Path_8634" data-name="Path 8634" d="M44.426,74.569a.426.426,0,0,1-.177.338c-.1.057-.177,0-.177-.134a.426.426,0,0,1,.177-.338c.1-.057.177,0,.177.134" transform="translate(2.102 3.55)" fill="#383838"/>
              <path id="Path_8635" data-name="Path 8635" d="M41.622,76.185a.426.426,0,0,1-.177.338c-.1.057-.177,0-.177-.134a.426.426,0,0,1,.177-.338c.1-.057.177,0,.177.134" transform="translate(1.969 3.627)" fill="#383838"/>
              <path id="Path_8636" data-name="Path 8636" d="M43.01,77.113a.426.426,0,0,1-.177.338c-.1.057-.177,0-.177-.134a.426.426,0,0,1,.177-.338c.1-.057.177,0,.177.134" transform="translate(2.035 3.671)" fill="#383838"/>
              <path id="Path_8637" data-name="Path 8637" d="M37.2,77.541c-1.2-.617-2.955-1.53-2.955-1.53l3.513-1.6Z" transform="translate(1.634 3.55)" fill="#494949"/>
              <path id="Path_8638" data-name="Path 8638" d="M42.744,68.261l-.324.191a10.9,10.9,0,0,0-5.353,9.383l.987-.6.07-.411a10.207,10.207,0,0,1,3.617-6.194l.435-.353Z" transform="translate(1.768 3.257)" fill="#969696"/>
              <path id="Path_8639" data-name="Path 8639" d="M32.751,47.886,94.174,12.444,72.624,0,11.2,35.442Z" transform="translate(0.534 0)" fill="#ededed"/>
              <path id="Path_8640" data-name="Path 8640" d="M14.335,36.012,73.561,1.878l-1.22-.63L13.116,35.382Z" transform="translate(0.626 0.06)" fill="#ccc"/>
              <path id="Path_8641" data-name="Path 8641" d="M31.935,46.12,91.16,11.986l-1.22-.63L30.715,45.49Z" transform="translate(1.465 0.542)" fill="#ccc"/>
              <path id="Path_8642" data-name="Path 8642" d="M12.01,65.614v3.518L33.56,81.566V78.057Z" transform="translate(0.573 3.13)" fill="#303030"/>
              <path id="Path_8643" data-name="Path 8643" d="M33.572,76.923l-1.031.6v3.509l1.031-.6Z" transform="translate(1.552 3.67)" fill="#494949"/>
              <path id="Path_8644" data-name="Path 8644" d="M31.666,79.8l-1.4-.809V77.128l1.4.808Z" transform="translate(1.444 3.68)" fill="#fc6181"/>
              <path id="Path_8645" data-name="Path 8645" d="M31.979,77.691l-.377.218v1.867l.377-.217Z" transform="translate(1.508 3.706)" fill="#d1406b"/>
              <path id="Path_8646" data-name="Path 8646" d="M32.043,77.728l-1.4-.806-.377.218,1.4.806Z" transform="translate(1.444 3.67)" fill="#f95377"/>
              <path id="Path_8647" data-name="Path 8647" d="M13.963,69.238l-1.4-.809V66.562l1.4.808Z" transform="translate(0.599 3.175)" fill="#fc6181"/>
              <path id="Path_8648" data-name="Path 8648" d="M14.276,67.126l-.377.218v1.867l.377-.217Z" transform="translate(0.663 3.202)" fill="#d1406b"/>
              <path id="Path_8649" data-name="Path 8649" d="M14.34,67.162l-1.4-.8-.377.217,1.4.806Z" transform="translate(0.599 3.166)" fill="#f95377"/>
              <path id="Path_8650" data-name="Path 8650" d="M11.2,33.828V67.7L32.751,80.138V46.272Z" transform="translate(0.534 1.614)" fill="#ccc"/>
              <path id="Path_8651" data-name="Path 8651" d="M31.949,46.755,11.935,35.128V67.1l.03.018L31.949,55.583Z" transform="translate(0.569 1.676)" fill="#494949"/>
              <path id="Path_8652" data-name="Path 8652" d="M31.948,54.651,11.964,66.182l19.984,11.6Z" transform="translate(0.571 2.607)" fill="#5b5b5b"/>
              <path id="Path_8653" data-name="Path 8653" d="M66.11,31.6,49.461,41.2l-2.5,3.278L66.11,33.434Z" transform="translate(2.24 1.507)" fill="#fff"/>
              <path id="Path_8654" data-name="Path 8654" d="M65.927,28.507,53.3,35.927l-2.5,3.278,15.128-8.861Z" transform="translate(2.423 1.36)" fill="#fff"/>
              <path id="Path_8655" data-name="Path 8655" d="M31.77,47.257V81.188L93.193,45.756V11.815Z" transform="translate(1.516 0.564)" fill="#a5a5a5"/>
              <path id="Path_8656" data-name="Path 8656" d="M35.18,45.619l-.8.46V75.724l.8-.46Z" transform="translate(1.64 2.176)" fill="#8e8e8e"/>
              <path id="Path_8657" data-name="Path 8657" d="M38.585,43.656l-.8.46V73.761l.8-.46Z" transform="translate(1.803 2.083)" fill="#8e8e8e"/>
              <path id="Path_8658" data-name="Path 8658" d="M50.237,36.91l-.8.46V67.014l.8-.46Z" transform="translate(2.359 1.761)" fill="#8e8e8e"/>
              <path id="Path_8659" data-name="Path 8659" d="M53.641,34.947l-.8.46V65.051l.8-.46Z" transform="translate(2.521 1.667)" fill="#8e8e8e"/>
              <path id="Path_8660" data-name="Path 8660" d="M57.272,32.908l-.8.46V63.013l.8-.46Z" transform="translate(2.694 1.57)" fill="#8e8e8e"/>
              <path id="Path_8661" data-name="Path 8661" d="M60.677,30.945l-.8.46V61.05l.8-.46Z" transform="translate(2.857 1.476)" fill="#8e8e8e"/>
              <path id="Path_8662" data-name="Path 8662" d="M64.373,28.669l-.8.46V58.774l.8-.46Z" transform="translate(3.033 1.368)" fill="#8e8e8e"/>
              <path id="Path_8663" data-name="Path 8663" d="M67.778,26.706l-.8.46V56.811l.8-.46Z" transform="translate(3.195 1.274)" fill="#8e8e8e"/>
              <path id="Path_8664" data-name="Path 8664" d="M81.717,18.6l-.8.46V48.708l.8-.46Z" transform="translate(3.86 0.888)" fill="#8e8e8e"/>
              <path id="Path_8665" data-name="Path 8665" d="M85.122,16.64l-.8.46V46.745l.8-.46Z" transform="translate(4.023 0.794)" fill="#8e8e8e"/>
              <path id="Path_8666" data-name="Path 8666" d="M87.238,44.731l1.4-.809V42.054l-1.4.809Z" transform="translate(4.162 2.006)" fill="#fff"/>
              <path id="Path_8667" data-name="Path 8667" d="M86.879,42.619l.377.218V44.7l-.377-.217Z" transform="translate(4.145 2.033)" fill="#bbb"/>
              <path id="Path_8668" data-name="Path 8668" d="M86.879,42.655l1.4-.8.377.217-1.4.806Z" transform="translate(4.145 1.997)" fill="#cecece"/>
              <path id="Path_8669" data-name="Path 8669" d="M43.429,70.129l1.4-.809V67.453l-1.4.808Z" transform="translate(2.072 3.218)" fill="#fff"/>
              <path id="Path_8670" data-name="Path 8670" d="M43.07,68.017l.377.218V70.1l-.377-.217Z" transform="translate(2.055 3.245)" fill="#bbb"/>
              <path id="Path_8671" data-name="Path 8671" d="M43.07,68.054l1.4-.8.377.217-1.4.806Z" transform="translate(2.055 3.208)" fill="#cecece"/>
              <path id="Path_8672" data-name="Path 8672" d="M11.413,34.766.621,41V72.941l10.792-6.228Z" transform="translate(0.03 1.659)" fill="#ccc"/>
              <path id="Path_8673" data-name="Path 8673" d="M.65,72.679,0,72.2V40.253l.65.484Z" transform="translate(0 1.92)" fill="#a5a5a5"/>
              <path id="Path_8674" data-name="Path 8674" d="M11.443,34.788l-.65-.484L0,40.537l.651.484Z" transform="translate(0 1.637)" fill="#ededed"/>
              <path id="Path_8675" data-name="Path 8675" d="M1.69,70.988l3.95-2.205V39.055L1.69,41.26Z" transform="translate(0.081 1.863)" fill="#a5a5a5"/>
              <path id="Path_8676" data-name="Path 8676" d="M6.342,68.308l3.95-2.205V36.375L6.342,38.58Z" transform="translate(0.303 1.735)" fill="#a5a5a5"/>
              <path id="Path_8677" data-name="Path 8677" d="M105.367,13.136l-10.8,6.629v25.78L99.32,42.8c.531-3.67,2.768-7.487,5.449-9.034s4.917-.314,5.448,2.743l3.544-2.046V17.982a5.6,5.6,0,0,0-8.4-4.847" transform="translate(4.511 0.591)" fill="#077437"/>
              <path id="Path_8678" data-name="Path 8678" d="M102.218,14.8l-.686.4V36.688l.686-.846Z" transform="translate(4.844 0.706)" fill="#054b24"/>
              <path id="Path_8679" data-name="Path 8679" d="M104.553,33.375c-2.43,1.4-4.457,4.862-4.939,8.189l-.509.294c.531-3.67,2.767-7.488,5.448-9.035s4.917-.313,5.448,2.744l-.509.294c-.482-2.77-2.509-3.889-4.939-2.486" transform="translate(4.728 1.534)" fill="#fff"/>
              <path id="Path_8680" data-name="Path 8680" d="M94.774,18.2s6.357-3.881,8.643-5.208a29.656,29.656,0,0,1,2.722-1.362S105.9,9.7,103,10.34a61.191,61.191,0,0,0-8.23,2.859Z" transform="translate(4.521 0.487)" fill="#077437"/>
              <path id="Path_8681" data-name="Path 8681" d="M105,20.859a3.534,3.534,0,0,1,1.47-2.809l3.013-1.739a.979.979,0,0,1,.854-.119.848.848,0,0,0-1.31-.336l-3.013,1.739a3.534,3.534,0,0,0-1.47,2.809v6.958a1.211,1.211,0,0,0,.615,1.231,1.785,1.785,0,0,1-.159-.775Z" transform="translate(4.987 0.748)" fill="#383838"/>
              <path id="Path_8682" data-name="Path 8682" d="M105.991,28.451,109,26.711a3.536,3.536,0,0,0,1.47-2.809V16.945a1.769,1.769,0,0,0-.16-.775.983.983,0,0,0-.854.12l-3.013,1.739a3.534,3.534,0,0,0-1.47,2.809v6.957a1.778,1.778,0,0,0,.159.775.981.981,0,0,0,.855-.119" transform="translate(5.008 0.769)" fill="#494949"/>
              <path id="Path_8683" data-name="Path 8683" d="M114.728,31.815l-4.2,2.414V36.44l4.2-2.424Z" transform="translate(5.273 1.518)" fill="#ccc"/>
              <path id="Path_8684" data-name="Path 8684" d="M109.443,33.5V35.7l1.134.657V34.149Z" transform="translate(5.221 1.598)" fill="#a5a5a5"/>
              <path id="Path_8685" data-name="Path 8685" d="M109.443,33.622l3.61-2.029v-.74l1.727,1.009-4.2,2.414Z" transform="translate(5.221 1.472)" fill="#ededed"/>
              <path id="Path_8686" data-name="Path 8686" d="M96.369,39.987l1.4-.809V37.311l-1.4.808Z" transform="translate(4.597 1.78)" fill="#fff"/>
              <path id="Path_8687" data-name="Path 8687" d="M96.01,37.875l.377.218V39.96l-.377-.217Z" transform="translate(4.58 1.807)" fill="#bbb"/>
              <path id="Path_8688" data-name="Path 8688" d="M96.01,37.912l1.4-.8.377.217-1.4.806Z" transform="translate(4.58 1.77)" fill="#cecece"/>
              <path id="Path_8689" data-name="Path 8689" d="M31.359,53.4l-7.067-4.086V60.8l7.067,4.1Z" transform="translate(1.159 2.353)" fill="#dba763"/>
              <path id="Path_8690" data-name="Path 8690" d="M30.628,45.819l-6.335,3.663,7.068,4.086v-7.3Z" transform="translate(1.159 2.186)" fill="#ffe1c0"/>
              <path id="Path_8691" data-name="Path 8691" d="M26.992,53.646l1.7.985V51.852l-1.7-.986Z" transform="translate(1.288 2.427)" fill="#4d4d4d"/>
              <path id="Path_8692" data-name="Path 8692" d="M31.231,48.527l-4.239,2.451,1.7.989L31.231,50.5Z" transform="translate(1.288 2.315)" fill="#6d6d6d"/>
              <path id="Path_8693" data-name="Path 8693" d="M26.021,53.013v1.7L24.8,54V52.3Z" transform="translate(1.183 2.495)" fill="#4d4d4d"/>
              <path id="Path_8694" data-name="Path 8694" d="M22.876,70.193l0-5.244-7.608-4.4v5.233Z" transform="translate(0.728 2.889)" fill="#dba763"/>
              <path id="Path_8695" data-name="Path 8695" d="M22.53,70.193l0-5.244,7.607-4.4v5.233Z" transform="translate(1.075 2.889)" fill="#e8b679"/>
              <path id="Path_8696" data-name="Path 8696" d="M30.486,60.751l-7.607,4.4-7.607-4.4,7.6-4.4Z" transform="translate(0.729 2.688)" fill="#ffe1c0"/>
              <path id="Path_8697" data-name="Path 8697" d="M17.97,64.881l1.7.985V63.087l-1.7-.986Z" transform="translate(0.857 2.963)" fill="#4d4d4d"/>
              <path id="Path_8698" data-name="Path 8698" d="M17.97,62.3l7.6-4.392,1.7.982-7.6,4.4Z" transform="translate(0.857 2.763)" fill="#6d6d6d"/>
              <path id="Path_8699" data-name="Path 8699" d="M21.687,68.543v-.489l-2.554-1.481v.5Z" transform="translate(0.913 3.176)" fill="#4d4d4d"/>
              <path id="Path_8700" data-name="Path 8700" d="M21.687,67.708v-.489l-2.554-1.481v.5Z" transform="translate(0.913 3.136)" fill="#4d4d4d"/>
              <path id="Path_8701" data-name="Path 8701" d="M17,64.247v1.7l-1.222-.707v-1.7Z" transform="translate(0.753 3.031)" fill="#4d4d4d"/>
              <path id="Path_8702" data-name="Path 8702" d="M28.33,64.35v1.77l1.222-.706V63.645Z" transform="translate(1.352 3.036)" fill="#4d4d4d"/>
              <path id="Path_8703" data-name="Path 8703" d="M26.739,65.272v1.77l1.222-.706V64.567Z" transform="translate(1.276 3.08)" fill="#4d4d4d"/>
              <path id="Path_8704" data-name="Path 8704" d="M22.847,65.022v2.543l2.51-1.45V63.569Z" transform="translate(1.09 3.033)" fill="#fff"/>
              <path id="Path_8705" data-name="Path 8705" d="M23.141,65.523v-.414l1.975-1.139v.408Z" transform="translate(1.104 3.052)" fill="#4d4d4d"/>
              <path id="Path_8706" data-name="Path 8706" d="M31.315,69.8l-6.442-3.725v5.233l6.442,3.735Z" transform="translate(1.187 3.152)" fill="#dba763"/>
              <path id="Path_8707" data-name="Path 8707" d="M31.315,62.529l-6.442,3.719,6.442,3.725Z" transform="translate(1.187 2.983)" fill="#ffe1c0"/>
              <path id="Path_8708" data-name="Path 8708" d="M27.572,70.409l1.7.985V68.616l-1.7-.986Z" transform="translate(1.315 3.226)" fill="#4d4d4d"/>
              <path id="Path_8709" data-name="Path 8709" d="M31.186,65.638l-3.614,2.087,1.7.989,1.917-1.107Z" transform="translate(1.315 3.131)" fill="#6d6d6d"/>
              <path id="Path_8710" data-name="Path 8710" d="M31.15,64.3l-2.827-1.634v3.062l2.827,1.64Z" transform="translate(1.351 2.99)" fill="#dba763"/>
              <path id="Path_8711" data-name="Path 8711" d="M31.15,61.113l-2.827,1.632,2.827,1.634Z" transform="translate(1.351 2.916)" fill="#ffe1c0"/>
              <path id="Path_8712" data-name="Path 8712" d="M31.093,64.272l-1.586-.921v1.615l1.586.921Z" transform="translate(1.408 3.022)" fill="#4d4d4d"/>
              <path id="Path_8713" data-name="Path 8713" d="M22.676,63.726l0-3.065-4.913-2.839v3.067Z" transform="translate(0.848 2.759)" fill="#dba763"/>
              <path id="Path_8714" data-name="Path 8714" d="M22.453,63.748l0-3.065,5.735-3.315v3.065Z" transform="translate(1.071 2.737)" fill="#e8b679"/>
              <path id="Path_8715" data-name="Path 8715" d="M28.414,57.5l-5.735,3.315-4.913-2.839L23.5,54.658Z" transform="translate(0.848 2.608)" fill="#ffe1c0"/>
              <path id="Path_8716" data-name="Path 8716" d="M22.178,62.98v-.316l-1.649-.957v.321Z" transform="translate(0.979 2.944)" fill="#4d4d4d"/>
              <path id="Path_8717" data-name="Path 8717" d="M22.178,62.441v-.316l-1.649-.956v.321Z" transform="translate(0.979 2.918)" fill="#4d4d4d"/>
              <path id="Path_8718" data-name="Path 8718" d="M26.756,58.581v1.426l.984-.569V58.013Z" transform="translate(1.276 2.768)" fill="#4d4d4d"/>
              <path id="Path_8719" data-name="Path 8719" d="M22.822,60.9v1.7l2.51-1.451v-1.7Z" transform="translate(1.089 2.836)" fill="#fff"/>
              <path id="Path_8720" data-name="Path 8720" d="M23.115,61.4v-.414l1.975-1.139v.407Z" transform="translate(1.103 2.855)" fill="#4d4d4d"/>
              <path id="Path_8721" data-name="Path 8721" d="M18.951,60.117l1.7.985V59.487l-1.7-.985Z" transform="translate(0.904 2.791)" fill="#4d4d4d"/>
              <path id="Path_8722" data-name="Path 8722" d="M18.951,58.652l5.728-3.312,1.7.982-5.733,3.319Z" transform="translate(0.904 2.64)" fill="#6d6d6d"/>
              <path id="Path_8723" data-name="Path 8723" d="M30.19,46.167,40.982,52.4V84.342L30.19,78.115Z" transform="translate(1.44 2.203)" fill="#ccc"/>
              <path id="Path_8724" data-name="Path 8724" d="M40.491,84.08l.65-.484V51.655l-.65.483Z" transform="translate(1.932 2.464)" fill="#8e8e8e"/>
              <path id="Path_8725" data-name="Path 8725" d="M30.19,46.189l.65-.483,10.793,6.232-.651.484Z" transform="translate(1.44 2.181)" fill="#ededed"/>
              <path id="Path_8726" data-name="Path 8726" d="M39.6,82.389l-3.95-2.205V50.456l3.95,2.205Z" transform="translate(1.701 2.407)" fill="#a5a5a5"/>
              <path id="Path_8727" data-name="Path 8727" d="M34.95,79.709,31,77.5V47.776l3.95,2.205Z" transform="translate(1.479 2.279)" fill="#a5a5a5"/>
            </g>
          </g>
        </g>
      </g>
    </g>
  </g>
</svg>
