<svg xmlns="http://www.w3.org/2000/svg" xmlns:xlink="http://www.w3.org/1999/xlink" width="160" height="160" viewBox="0 0 160 160">
  <defs>
    <filter id="Path_9822" x="3.48" y="31.274" width="91.534" height="84.77" filterUnits="userSpaceOnUse">
      <feOffset dy="16" input="SourceAlpha"/>
      <feGaussianBlur stdDeviation="12" result="blur"/>
      <feFlood flood-opacity="0.161"/>
      <feComposite operator="in" in2="blur"/>
      <feComposite in="SourceGraphic"/>
    </filter>
    <filter id="Rectangle_2093" x="4.245" y="31.453" width="90.497" height="83.023" filterUnits="userSpaceOnUse">
      <feOffset dy="16" input="SourceAlpha"/>
      <feGaussianBlur stdDeviation="12" result="blur-2"/>
      <feFlood flood-opacity="0.161"/>
      <feComposite operator="in" in2="blur-2"/>
      <feComposite in="SourceGraphic"/>
    </filter>
    <filter id="Rectangle_2094" x="9.224" y="38.853" width="106.534" height="91.938" filterUnits="userSpaceOnUse">
      <feOffset dy="16" input="SourceAlpha"/>
      <feGaussianBlur stdDeviation="12" result="blur-3"/>
      <feFlood flood-opacity="0.161"/>
      <feComposite operator="in" in2="blur-3"/>
      <feComposite in="SourceGraphic"/>
    </filter>
    <filter id="Rectangle_2095" x="18.572" y="43.854" width="112.163" height="95.821" filterUnits="userSpaceOnUse">
      <feOffset dy="16" input="SourceAlpha"/>
      <feGaussianBlur stdDeviation="12" result="blur-4"/>
      <feFlood flood-opacity="0.161"/>
      <feComposite operator="in" in2="blur-4"/>
      <feComposite in="SourceGraphic"/>
    </filter>
    <filter id="Rectangle_2096" x="46.315" y="59.672" width="106.559" height="92.452" filterUnits="userSpaceOnUse">
      <feOffset dy="16" input="SourceAlpha"/>
      <feGaussianBlur stdDeviation="12" result="blur-5"/>
      <feFlood flood-opacity="0.161"/>
      <feComposite operator="in" in2="blur-5"/>
      <feComposite in="SourceGraphic"/>
    </filter>
    <filter id="Rectangle_2098" x="22.942" y="60.079" width="86.478" height="80.359" filterUnits="userSpaceOnUse">
      <feOffset dy="16" input="SourceAlpha"/>
      <feGaussianBlur stdDeviation="12" result="blur-6"/>
      <feFlood flood-opacity="0.161"/>
      <feComposite operator="in" in2="blur-6"/>
      <feComposite in="SourceGraphic"/>
    </filter>
    <filter id="Rectangle_2099" x="31.905" y="65.254" width="86.478" height="80.359" filterUnits="userSpaceOnUse">
      <feOffset dy="16" input="SourceAlpha"/>
      <feGaussianBlur stdDeviation="12" result="blur-7"/>
      <feFlood flood-opacity="0.161"/>
      <feComposite operator="in" in2="blur-7"/>
      <feComposite in="SourceGraphic"/>
    </filter>
    <filter id="Rectangle_2100" x="41.158" y="72.563" width="83.074" height="78.393" filterUnits="userSpaceOnUse">
      <feOffset dy="16" input="SourceAlpha"/>
      <feGaussianBlur stdDeviation="12" result="blur-8"/>
      <feFlood flood-opacity="0.161"/>
      <feComposite operator="in" in2="blur-8"/>
      <feComposite in="SourceGraphic"/>
    </filter>
    <filter id="Rectangle_2101" x="63.039" y="61.735" width="79.947" height="76.588" filterUnits="userSpaceOnUse">
      <feOffset dy="16" input="SourceAlpha"/>
      <feGaussianBlur stdDeviation="12" result="blur-9"/>
      <feFlood flood-opacity="0.161"/>
      <feComposite operator="in" in2="blur-9"/>
      <feComposite in="SourceGraphic"/>
    </filter>
    <filter id="Rectangle_2102" x="52.065" y="76.935" width="85.467" height="79.775" filterUnits="userSpaceOnUse">
      <feOffset dy="16" input="SourceAlpha"/>
      <feGaussianBlur stdDeviation="12" result="blur-10"/>
      <feFlood flood-opacity="0.161"/>
      <feComposite operator="in" in2="blur-10"/>
      <feComposite in="SourceGraphic"/>
    </filter>
    <filter id="Rectangle_2103" x="52.857" y="57.066" width="107.165" height="92.419" filterUnits="userSpaceOnUse">
      <feOffset dy="16" input="SourceAlpha"/>
      <feGaussianBlur stdDeviation="12" result="blur-11"/>
      <feFlood flood-opacity="0.161"/>
      <feComposite operator="in" in2="blur-11"/>
      <feComposite in="SourceGraphic"/>
    </filter>
    <clipPath id="clip-path">
      <rect id="Rectangle_2250" data-name="Rectangle 2250" width="160" height="160" rx="16" transform="translate(449 -792)" fill="#f7f7f7"/>
    </clipPath>
    <filter id="Union_79" x="-14.635" y="26.007" width="189.269" height="139.986" filterUnits="userSpaceOnUse">
      <feOffset dy="16" input="SourceAlpha"/>
      <feGaussianBlur stdDeviation="12" result="blur-12"/>
      <feFlood flood-opacity="0.161"/>
      <feComposite operator="in" in2="blur-12"/>
    </filter>
    <clipPath id="clip-path-2">
      <path id="Path_9822-2" data-name="Path 9822" d="M34.716,4.971,16.86,15.28a.683.683,0,0,1,.7.064,2.162,2.162,0,0,1,.979,1.7.7.7,0,0,1-.28.631L36.114,7.361a.689.689,0,0,0,.28-.63,2.167,2.167,0,0,0-.979-1.7.889.889,0,0,0-.437-.133.508.508,0,0,0-.262.069" transform="translate(-16.86 -4.902)" fill="none"/>
    </clipPath>
    <linearGradient id="linear-gradient" x1="-0.697" y1="3.2" x2="-0.65" y2="3.2" gradientUnits="objectBoundingBox">
      <stop offset="0" stop-color="#f7f6f3"/>
      <stop offset="1" stop-color="#f0efec"/>
    </linearGradient>
    <clipPath id="clip-path-3">
      <rect id="Rectangle_2093-2" data-name="Rectangle 2093" width="18.497" height="11.023" fill="none"/>
    </clipPath>
    <clipPath id="clip-path-4">
      <rect id="Rectangle_2094-2" data-name="Rectangle 2094" width="34.534" height="19.938" fill="none"/>
    </clipPath>
    <clipPath id="clip-path-5">
      <rect id="Rectangle_2095-2" data-name="Rectangle 2095" width="40.163" height="23.821" fill="none"/>
    </clipPath>
    <clipPath id="clip-path-6">
      <rect id="Rectangle_2096-2" data-name="Rectangle 2096" width="34.559" height="20.452" fill="none"/>
    </clipPath>
    <clipPath id="clip-path-7">
      <rect id="Rectangle_2098-2" data-name="Rectangle 2098" width="14.478" height="8.359" fill="none"/>
    </clipPath>
    <clipPath id="clip-path-9">
      <rect id="Rectangle_2100-2" data-name="Rectangle 2100" width="11.074" height="6.393" fill="none"/>
    </clipPath>
    <clipPath id="clip-path-10">
      <rect id="Rectangle_2101-2" data-name="Rectangle 2101" width="7.947" height="4.588" fill="none"/>
    </clipPath>
    <clipPath id="clip-path-11">
      <rect id="Rectangle_2102-2" data-name="Rectangle 2102" width="13.467" height="7.775" fill="#24b24c"/>
    </clipPath>
    <clipPath id="clip-path-12">
      <rect id="Rectangle_2103-2" data-name="Rectangle 2103" width="35.165" height="20.419" fill="none"/>
    </clipPath>
  </defs>
  <g id="taxInvoice" transform="translate(-449 792)">
    <g id="Mask_Group_23" data-name="Mask Group 23" clip-path="url(#clip-path)">
      <g id="Group_31581" data-name="Group 31581">
        <rect id="Rectangle_1963" data-name="Rectangle 1963" width="160" height="160" rx="16" transform="translate(449 -792)" fill="#f7f7f7"/>
        <g id="Group_31267" data-name="Group 31267" transform="translate(-178.635 -163.993)">
          <g transform="matrix(1, 0, 0, 1, 627.63, -628.01)" filter="url(#Union_79)">
            <path id="Union_79-2" data-name="Union 79" d="M-41.366-19.069l1.975-1.14v-.28l15.48-8.937v0l-.3-.17V-31l.778-1.164c.16-.284.491-.352.877-.13l.034.02-.034-.02a.693.693,0,0,0-.684-.073l17.842-10.3a.51.51,0,0,1,.262-.068.891.891,0,0,1,.437.133,1.77,1.77,0,0,1,.462.4l.475-.274a.338.338,0,0,1,.336,0,.336.336,0,0,1,.168.292v.836L8.27-48.007,75.9-8.959h0v1.4L28.241,19.962h0l-1.974.017ZM-24.207-31Zm.964-1.363-.007,0Zm.007,0-.007,0Z" transform="translate(62.73 94.01)" fill="#fff"/>
          </g>
        </g>
        <g id="Group_31268" data-name="Group 31268" transform="translate(-178.635 -163.993)">
          <g id="Group_31249" data-name="Group 31249" transform="translate(649 -580.579)">
            <path id="Path_10049" data-name="Path 10049" d="M67.633,67.888,0,28.84,47.662,1.323l67.632,39.048-45.688,27.5Z" transform="translate(0 -1.323)" fill="#ada6a3"/>
          </g>
          <path id="Path_10004" data-name="Path 10004" d="M18.743,18.83l-2.773-1.6v-1.4l2.773,1.6Z" transform="translate(650.189 -580.822)" fill="#b6b5b3"/>
          <path id="Path_10005" data-name="Path 10005" d="M36.695,8.969,18.551,19.445v-1.4L36.695,7.565Z" transform="translate(650.381 -581.437)" fill="#937a6a"/>
          <path id="Path_10006" data-name="Path 10006" d="M1.838,27.015,69.47,66.063v-1.4L1.838,25.611Z" transform="translate(649.137 -580.094)" fill="#054b24"/>
          <path id="Path_10007" data-name="Path 10007" d="M64.785,63.86v1.4l47.662-27.518v-1.4Z" transform="translate(653.822 -579.295)" fill="#054b24"/>
          <path id="Path_10008" data-name="Path 10008" d="M49.5,0,1.838,27.517,69.47,66.564l47.662-27.516Z" transform="translate(649.137 -582)" fill="#077437"/>
          <g id="Group_31250" data-name="Group 31250" transform="translate(666.159 -575.473)">
            <path id="Path_10048" data-name="Path 10048" d="M19.639,18.669,15.97,16.551,34.114,6.075l3.667,2.118a.191.191,0,0,1,0,.331L20.208,18.669a.566.566,0,0,1-.568,0" transform="translate(-15.97 -6.075)" fill="#f7f6f3"/>
          </g>
          <g id="Group_31251" data-name="Group 31251" transform="translate(667.115 -576.733)">
            <g id="Group_31186" data-name="Group 31186" transform="translate(0 0)" clip-path="url(#clip-path-2)">
              <rect id="Rectangle_2092" data-name="Rectangle 2092" width="23.302" height="20.826" transform="translate(-5.529 3.192) rotate(-30)" fill="url(#linear-gradient)"/>
            </g>
          </g>
          <g id="Group_31264" data-name="Group 31264" transform="translate(657.107 -578.54)">
            <g id="Group_31254" data-name="Group 31254" transform="translate(10.773 1.986)" style="mix-blend-mode: screen;isolation: isolate">
              <g id="Group_31189" data-name="Group 31189" transform="translate(0 0)">
                <g id="Group_31188" data-name="Group 31188" clip-path="url(#clip-path-3)">
                  <path id="Path_9823" data-name="Path 9823" d="M35.429,5.069,17.572,15.378a2.065,2.065,0,0,1,.64.713L36.068,5.782a2.084,2.084,0,0,0-.639-.713" transform="translate(-17.572 -5.069)" fill="#f3f2ef"/>
                </g>
              </g>
            </g>
            <path id="Path_10009" data-name="Path 10009" d="M19.983,17.125a.71.71,0,0,0-.641,0,.2.2,0,0,0,0,.371.71.71,0,0,0,.641,0,.2.2,0,0,0,0-.371" transform="translate(-6.677 -2.191)" fill="#393532"/>
            <path id="Path_10010" data-name="Path 10010" d="M35.771,8.01a.71.71,0,0,0-.641,0,.2.2,0,0,0,0,.371.71.71,0,0,0,.641,0,.2.2,0,0,0,0-.371" transform="translate(-5.502 -2.87)" fill="#393532"/>
            <path id="Path_10011" data-name="Path 10011" d="M17.625,14.63c-.386-.222-.717-.154-.877.13l-.778,1.164.659.523.892.372c.034.025.069.053.1.073.54.312.979.059.979-.565a2.165,2.165,0,0,0-.979-1.7" transform="translate(-6.918 -2.381)" fill="#b6b5b3"/>
            <path id="Path_10012" data-name="Path 10012" d="M111.648,38.626l-42.777,24.7L7.545,27.919l42.777-24.7Z" transform="translate(-7.545 -3.221)" fill="#f8f5f4"/>
            <path id="Path_10013" data-name="Path 10013" d="M41.038,8.8,36.9,6.414V5.437a.336.336,0,0,0-.5-.291l-.48.277a2.148,2.148,0,0,1,.52,1.293,1.1,1.1,0,0,1-.017.2L40.6,9.322,21.385,20.416a.175.175,0,0,1-.176,0l-4.3-2.482v-.768l.678-.391c.266-.155-.059-.741-.335-.582l-.846.489a.333.333,0,0,0-.168.29v1.157a.335.335,0,0,0,.168.29L20.873,21a.844.844,0,0,0,.847,0L41.038,9.845a.6.6,0,0,0,0-1.043" transform="translate(-6.898 -3.081)" fill="#e0ded7"/>
            <path id="Path_10014" data-name="Path 10014" d="M29.729,37.9l-4.6-2.653.072-.041,38.035-21.96L67.835,15.9l-.071.041Zm-4.4-2.653,4.4,2.543L67.645,15.9l-4.4-2.543Z" transform="translate(-6.236 -2.474)" fill="#3a3737"/>
            <path id="Path_10015" data-name="Path 10015" d="M26.607,36.07l-.048-.082L64.57,14.043l.048.082Z" transform="translate(-6.13 -2.415)" fill="#3a3737"/>
            <path id="Path_10016" data-name="Path 10016" d="M38.744,31.142l-4.5-2.6.047-.082,4.5,2.6Z" transform="translate(-5.558 -1.342)" fill="#3a3737"/>
            <path id="Path_10017" data-name="Path 10017" d="M56.655,20.8l-4.5-2.6.047-.082,4.5,2.6Z" transform="translate(-4.225 -2.112)" fill="#3a3737"/>
            <path id="Path_10018" data-name="Path 10018" d="M28.022,36.888l-.048-.082L65.985,14.86l.048.082Z" transform="translate(-6.025 -2.354)" fill="#3a3737"/>
            <path id="Path_10019" data-name="Path 10019" d="M40.117,43.9l-4.6-2.653.072-.041,38.035-21.96L78.223,21.9l-.071.041Zm-4.4-2.653,4.4,2.543L78.033,21.9l-4.4-2.543Z" transform="translate(-5.463 -2.028)" fill="#3a3737"/>
            <path id="Path_10020" data-name="Path 10020" d="M37,42.068l-.048-.082L74.958,20.04l.048.082Z" transform="translate(-5.357 -1.969)" fill="#3a3737"/>
            <path id="Path_10021" data-name="Path 10021" d="M49.132,37.14l-4.5-2.6.047-.082,4.5,2.6Z" transform="translate(-4.785 -0.895)" fill="#3a3737"/>
            <path id="Path_10022" data-name="Path 10022" d="M65.522,25.921l-2.98-1.72.048-.082,2.98,1.72Z" transform="translate(-3.452 -1.665)" fill="#3a3737"/>
            <path id="Path_10023" data-name="Path 10023" d="M38.41,42.885l-.048-.082L76.373,20.857l.048.082Z" transform="translate(-5.251 -1.908)" fill="#3a3737"/>
            <path id="Path_10024" data-name="Path 10024" d="M41.184,44.486l-.048-.082,38.01-21.946.048.082Z" transform="translate(-5.045 -1.789)" fill="#3a3737"/>
            <path id="Path_10025" data-name="Path 10025" d="M51.8,38.68,48.82,36.96l.047-.082,2.98,1.72Z" transform="translate(-4.473 -0.715)" fill="#3a3737"/>
            <path id="Path_10026" data-name="Path 10026" d="M69.65,28.3l-1.56-.9.048-.082,1.56.9Z" transform="translate(-3.039 -1.427)" fill="#3a3737"/>
            <path id="Path_10027" data-name="Path 10027" d="M42.882,45.435,38.41,42.853l.048-.082,4.423,2.554L80.8,23.434l-2.908-1.678.048-.082,3.051,1.76-.072.042Z" transform="translate(-5.248 -1.847)" fill="#3a3737"/>
            <path id="Path_10028" data-name="Path 10028" d="M49.852,49.517l-4.6-2.653.072-.041,38.035-21.96,4.594,2.653-.071.041Zm-4.405-2.653,4.405,2.543L87.767,27.516l-4.4-2.543Z" transform="translate(-4.738 -1.61)" fill="#3a3737"/>
            <path id="Path_10029" data-name="Path 10029" d="M46.729,47.688l-.048-.082L84.692,25.66l.048.082Z" transform="translate(-4.632 -1.55)" fill="#3a3737"/>
            <path id="Path_10030" data-name="Path 10030" d="M58.867,42.76l-4.5-2.6.047-.082,4.5,2.6Z" transform="translate(-4.06 -0.477)" fill="#3a3737"/>
            <path id="Path_10031" data-name="Path 10031" d="M76.777,32.419l-4.5-2.6.047-.082,4.5,2.6Z" transform="translate(-2.727 -1.247)" fill="#3a3737"/>
            <path id="Path_10032" data-name="Path 10032" d="M48.145,48.5l-.048-.082L86.107,26.478l.048.082Z" transform="translate(-4.527 -1.49)" fill="#3a3737"/>
            <path id="Path_10033" data-name="Path 10033" d="M50.995,50.178l-1.484-.856.048-.082,1.435.828L88.91,28.177l-1.389-.8.048-.082,1.532.883-.072.042Z" transform="translate(-4.422 -1.429)" fill="#3a3737"/>
            <path id="Path_10034" data-name="Path 10034" d="M60.044,43.44l-1.489-.861L58.6,42.5l1.489.861Z" transform="translate(-3.748 -0.297)" fill="#3a3737"/>
            <g id="Group_31255" data-name="Group 31255" transform="translate(15.752 9.386)" opacity="0.6">
              <g id="Group_31192" data-name="Group 31192" transform="translate(0 0)">
                <g id="Group_31191" data-name="Group 31191" clip-path="url(#clip-path-4)">
                  <path id="Path_9850" data-name="Path 9850" d="M39.693,20.975l.288.165,3.037-1.753-.287-.167Zm0,.33-.288-.165-3.639,2.1.287.165Zm.874.479.287.167,2.022-1.168-.287-.165Zm2.308-1.332.287.167,1.625-.939-.287-.165Zm1.243.6.287.167,3.037-1.755-.287-.165Zm-2.5,2.761.287.165,2.022-1.168-.288-.165Zm2.218-2.6-3.639,2.1.287.167,3.639-2.1Zm1.715.324-1.626.939.288.165,1.625-.938Zm2.9-4.305-3.664,2.114.287.167L48.738,17.4ZM40.2,23.646l-.287-.165-3.594,2.075.287.165Zm-4.567,1.322-.287-.165-.928.536.287.165Zm16.485-9.848-3.377,1.95.287.165,3.377-1.95Zm-5.758,2.009-3.338,1.928.287.165,3.338-1.928ZM35.771,23.572l-.288-.167L31.889,25.48l.288.167Zm-.309,4.123-.286-.165-5.054,2.918.287.165Zm10.374-6.32.287.165,3.664-2.114-.288-.167Zm1.608-2.244.287.167,1.626-.939-.287-.165Zm6.291-1.984L56.408,15.6l-.287-.165-2.674,1.544Zm2.719-4.532L52.4,14.954l.287.165,4.054-2.34ZM36.676,26.994l-.287-.167-.929.537.288.165Zm4.654-3.019-4.656,2.688.287.165,4.656-2.688Zm5.311-7.012.287.167L48.879,16l-.287-.167ZM40.57,22.115l-.287-.165-4.656,2.687.287.167ZM26.722,28.464l-4.515,2.608.287.165,4.515-2.607ZM49.355,18.028l.287.165L53.3,16.078l-.287-.165Zm3.807-.883-3.377,1.95.287.165,3.377-1.95Zm.429-1.231L56.7,14.12l-.287-.165L53.3,15.748ZM31.147,28.539,25.669,31.7l.287.167,5.48-3.164Zm-1.312,2.073-1.6.925.287.165,1.6-.924Zm-1.048-2.025-5.442,3.143.287.165,5.442-3.143Zm26.527-16.63-2.774,1.6.287.167,2.774-1.6Zm-20.9,13.713-.288-.165-5.053,2.917.287.167Zm1.9.217-.287-.165-4.6,2.654.288.165Zm-4.427-.075-.287-.165-4.6,2.654.287.165ZM52.255,13.722l-3.377,1.95.287.165,3.377-1.95Z" transform="translate(-22.206 -11.956)" fill="#3a3737"/>
                </g>
              </g>
            </g>
            <g id="Group_31256" data-name="Group 31256" transform="translate(25.1 14.387)" opacity="0.6">
              <g id="Group_31195" data-name="Group 31195" transform="translate(0 0)">
                <g id="Group_31194" data-name="Group 31194" clip-path="url(#clip-path-5)">
                  <path id="Path_9851" data-name="Path 9851" d="M43.074,33.846l3.788-2.188.261.151L43.335,34Zm.466.928.262.152,3.141-1.814-.261-.151Zm-.034.322-.261-.151-3.764,2.172.262.152Zm-2.147.041,1.68-.97-.261-.15-1.681.97Zm-.3.171-.262-.15-2.09,1.207.261.15Zm4.075-3.551,1.68-.97-.261-.151-1.681.97Zm2.019-.27.261.151,3.493-2.017-.262-.151ZM50.43,30.8,46.977,32.79l.261.151,3.453-1.993ZM39.448,37.44l-.262-.151L34,40.281l.261.15Zm-1.805-1.355,3.764-2.173-.262-.151-3.763,2.173ZM41.7,33.742l3.141-1.814-.261-.151L41.44,33.59Zm-4.355,2.514-.262-.151L31.934,39.08l.261.15Zm9.768-5.64L49.5,29.238l-.261-.151-2.387,1.378Zm-8.7,5.919-5.462,3.153.262.15,5.461-3.153Zm-7.249,2.09,1.6-.922-.262-.15-1.6.922Zm15.187-9.07.262.151L48.708,28.5l-.261-.151Zm-3.822,2.509,3.788-2.186-.262-.151L42.27,31.913ZM40.555,33.2l1.681-.97-.262-.15-1.68.97ZM38.17,34.582l2.09-1.207L40,33.225l-2.091,1.207Zm-5.11,2.95,4.813-2.78-.261-.15L32.8,37.382Zm26.6-15.675.261.15,3.142-1.814-.262-.15Zm-.034.321-.262-.151L55.6,24.2l.261.15Zm.8.435.261.15,2.091-1.207-.262-.151Zm2.386-1.377.261.15,1.68-.97-.261-.151Zm1.145.536.261.151,3.142-1.814-.261-.151Zm-2.729,2.774.262.15,2.09-1.207-.261-.151Zm2.434-2.6L59.9,24.116l.262.151,3.763-2.173ZM65.3,22.2l-1.68.971.261.15,1.681-.97Zm3.281-4.29L64.79,20.1l.261.15,3.788-2.188Zm-8.713,6.53-.261-.151-7.59,4.383.262.15Zm-4.582,1.447-.261-.151-4.041,2.334.261.151ZM66.552,17.88,63.1,19.873l.262.15,3.452-1.993ZM55.57,24.522l-.261-.15-5.372,3.1.261.151Zm10.024-2.494.261.15,3.788-2.186-.262-.151Zm1.8-2.24.261.151,1.68-.97-.261-.151Zm-11.309,8.03-.262-.152L53.1,29.24l.262.152Zm4.848-3.1L56.122,27.5l.261.15,4.815-2.78Zm5.913-7.009.261.15,1.9-1.1-.262-.15Zm-6.454,5.226-.261-.15-4.815,2.78.261.15Zm8.979-4.288.262.151,1.037-.6-.261-.15Zm1.434.371-1.13.652.262.151,1.129-.652Z" transform="translate(-30.907 -16.611)" fill="#3a3737"/>
                </g>
              </g>
            </g>
            <g id="Group_31257" data-name="Group 31257" transform="translate(52.843 30.205)" opacity="0.6">
              <g id="Group_31198" data-name="Group 31198" transform="translate(0 0)">
                <g id="Group_31197" data-name="Group 31197" clip-path="url(#clip-path-6)">
                  <path id="Path_9852" data-name="Path 9852" d="M63.145,47.215l-.214-.124-3.042,1.756.214.124Zm1.3-.019.214.124,3.043-1.757-.214-.124Zm5.075-3.664,1.8-1.04-.214-.124-1.8,1.04ZM67.733,45.3l.214.124,1.332-.769-.214-.124Zm-4.561,1.652.215.124,3.08-1.779-.214-.124Zm5.894-3.4L66.5,45.033l.214.124,2.571-1.485Zm.012,1.955-1.712.988.215.124,1.71-.988Zm.457-.016,1.558-.9-.214-.122-1.559.9Zm-.014-.973,2-1.153-.214-.124-2,1.153Zm-2.4,2.118-3.941,2.275.214.124,3.941-2.275ZM61.914,49.64l-3.5,2.021.215.124,3.5-2.021Zm-1.839.081-2.5,1.446.214.124,2.5-1.446Zm3.081-.551-.214-.124-.786.454.214.124Zm-3.3-.059-.215-.124-2.919,1.686.215.124Zm4.56-1.651-.214-.124-3.891,2.246.214.124Zm20.755-12.23,3.1-1.79.214.124-3.1,1.79Zm.353,1.024-.214-.124-3.08,1.778.214.124Zm-1.758.034,1.376-.8-.214-.124-1.376.8Zm-.242.14-.214-.124-1.712.987.214.124Zm3.336-2.907,1.375-.794-.214-.124-1.375.794Zm1.652-.22.214.124,2.554-1.475-.214-.124Zm-6.311,4.871-.214-.124-4.4,2.539.214.124ZM80.73,37.062l3.08-1.778L83.6,35.16l-3.08,1.778Zm3.322-1.918,2.572-1.485-.215-.124L83.838,35.02ZM80.488,37.2l-.215-.124L75.907,39.6l.214.124Zm8-4.616,1.954-1.129-.214-.124-1.955,1.129ZM81.363,37.43,76.735,40.1l.215.124,4.626-2.671Z" transform="translate(-56.727 -31.333)" fill="#3a3737"/>
                </g>
              </g>
            </g>
            <path id="Path_10035" data-name="Path 10035" d="M61.959,29.5l-1.519-.877.048-.083,1.519.878Z" transform="translate(-3.608 -1.336)" fill="#3a3737"/>
            <path id="Path_10036" data-name="Path 10036" d="M70.8,25.956l-1.459-.843.048-.082,1.459.843Z" transform="translate(-2.946 -1.597)" fill="#3a3737"/>
            <rect id="Rectangle_2115" data-name="Rectangle 2115" width="0.095" height="1.686" transform="translate(54.398 30.441) rotate(-59.97)" fill="#3a3737"/>
            <path id="Path_10037" data-name="Path 10037" d="M84.207,29.455l-1.459-.842.047-.082,1.46.842Z" transform="translate(-1.948 -1.337)" fill="#3a3737"/>
            <path id="Path_10038" data-name="Path 10038" d="M44.01,46.118l-.048-.082L81.972,24.09l.048.082Z" transform="translate(-4.835 -1.667)" fill="#3a3737"/>
            <path id="Path_10039" data-name="Path 10039" d="M52.681,50.156l-.048-.082L66.447,42.1l.047.082Z" transform="translate(-4.189 -0.327)" fill="#3a3737"/>
            <path id="Path_10040" data-name="Path 10040" d="M61.565,55.766l-.048-.082L87.343,40.774l.048.082Z" transform="translate(-3.528 -0.425)" fill="#3a3737"/>
            <path id="Path_10041" data-name="Path 10041" d="M75.259,39.535a.129.129,0,0,1,0,.244.464.464,0,0,1-.422,0,.129.129,0,0,1,0-.244.471.471,0,0,1,.422,0m.428.491a.129.129,0,0,0,0,.244.464.464,0,0,0,.422,0,.129.129,0,0,0,0-.244.464.464,0,0,0-.422,0m.849.49a.129.129,0,0,0,0,.244.464.464,0,0,0,.422,0,.129.129,0,0,0,0-.244.471.471,0,0,0-.422,0M55.726,50.57a.129.129,0,0,0,0,.244.464.464,0,0,0,.422,0,.129.129,0,0,0,0-.244.464.464,0,0,0-.422,0m.849.491a.128.128,0,0,0,0,.243.464.464,0,0,0,.422,0,.128.128,0,0,0,0-.243.464.464,0,0,0-.422,0m.85.49a.129.129,0,0,0,0,.244.464.464,0,0,0,.422,0,.129.129,0,0,0,0-.244.464.464,0,0,0-.422,0" transform="translate(-3.966 -0.521)" fill="#3a3737"/>
            <path id="Path_10042" data-name="Path 10042" d="M73.025,38.5l-.048-.082L89.129,29.1l.048.082Z" transform="translate(-2.675 -1.295)" fill="#3a3737"/>
            <path id="Path_10043" data-name="Path 10043" d="M88.619,39.467l-.048-.082,8.855-5.113.048.082Z" transform="translate(-1.514 -0.909)" fill="#3a3737"/>
            <g id="Group_31258" data-name="Group 31258" transform="translate(29.469 30.612)" opacity="0.6">
              <g id="Group_31201" data-name="Group 31201" transform="translate(0 0)">
                <g id="Group_31200" data-name="Group 31200" clip-path="url(#clip-path-7)">
                  <path id="Path_9862" data-name="Path 9862" d="M43.1,35.226l.261.151,2.684-1.549-.262-.151Zm6.088-3.514-3.109,1.8.262.15,3.108-1.8ZM37.958,38.5l-.261-.15L34.973,39.92l.261.151Zm4.849-3.1-4.815,2.78.262.15,4.813-2.778Z" transform="translate(-34.973 -31.712)" fill="#3a3737"/>
                </g>
              </g>
            </g>
            <g id="Group_31259" data-name="Group 31259" transform="translate(38.433 35.787)" opacity="0.6">
              <g id="Group_31204" data-name="Group 31204" transform="translate(0 0)">
                <g id="Group_31203" data-name="Group 31203" clip-path="url(#clip-path-7)">
                  <path id="Path_9863" data-name="Path 9863" d="M49.381,41.234l.261.151,4.747-2.741-.262-.15Zm8.151-4.706-3.109,1.8.262.151,3.108-1.8Zm-9.615,5.854-.261-.15-4.341,2.506.262.15Zm1.169-.977-1.135.655.261.15,1.135-.654Z" transform="translate(-43.316 -36.528)" fill="#3a3737"/>
                </g>
              </g>
            </g>
            <g id="Group_31260" data-name="Group 31260" transform="translate(47.686 43.095)" opacity="0.6">
              <g id="Group_31207" data-name="Group 31207" transform="translate(0 0)">
                <g id="Group_31206" data-name="Group 31206" clip-path="url(#clip-path-9)">
                  <path id="Path_9864" data-name="Path 9864" d="M59.909,44.964l.262.151L63,43.48l-.261-.15ZM56.53,47.217l-.262-.15-4.34,2.506.261.15Zm3.084-2.082L56.563,46.9l.262.15,3.049-1.76Z" transform="translate(-51.928 -43.33)" fill="#3a3737"/>
                </g>
              </g>
            </g>
            <g id="Group_31261" data-name="Group 31261" transform="translate(69.566 32.268)" opacity="0.6">
              <g id="Group_31210" data-name="Group 31210" transform="translate(0 0)">
                <g id="Group_31209" data-name="Group 31209" clip-path="url(#clip-path-10)">
                  <path id="Path_9865" data-name="Path 9865" d="M75.211,36.308l-.262-.151L72.293,37.69l.261.151Zm4.767-3.055-4.733,2.732.261.151L80.24,33.4Z" transform="translate(-72.292 -33.253)" fill="#3a3737"/>
                </g>
              </g>
            </g>
            <path id="Path_10044" data-name="Path 10044" d="M95.864,33.684a.275.275,0,0,0-.142.037,7.866,7.866,0,0,0-1.305.961c-.6.525-1.179,1.07-1.713,1.625.145-.21.289-.421.432-.631s.265-.392.4-.59c.2-.3.105-.351.072-.367a.337.337,0,0,0-.233.014c-.047.016-.681.506-.925.716-.047.04-.095.081-.141.121a8.774,8.774,0,0,1,.9-.813c.685-.461,1.367-.933,2.009-1.415.018-.014.015-.033-.009-.045a.09.09,0,0,0-.079,0,19.36,19.36,0,0,0-2.011,1.417c-.364.245-.73.487-1.091.726l-.256.17c-.168-.017-.431.247-.433.25-.032.032-.061.066-.09.1l-.524.352c.135-.375.251-.751.366-1.121.1-.309.194-.63.3-.943.005-.017-.013-.034-.043-.039a.069.069,0,0,0-.069.023l-1.561,2.774c-.423.3-.836.6-1.232.913a2.886,2.886,0,0,0-.489.449c-.012.015,0,.033.021.042A.088.088,0,0,0,88.1,38.4c.448-.3.908-.6,1.355-.919l-.5.893c-.01.017.006.035.037.042a.078.078,0,0,0,.073-.02l.681-1.12.2-.142.347-.258,0,.192c-.169.146-.335.293-.5.441-.016.016-.01.035.017.046a.089.089,0,0,0,.08-.009c.1-.08.2-.16.3-.241-.025.05-.05.1-.076.15a2.185,2.185,0,0,1-.965,1.017,1.129,1.129,0,0,1-.374.124,1.207,1.207,0,0,1-.6-.091,2.129,2.129,0,0,1-.458-.287.085.085,0,0,0-.081-.006c-.025.011-.031.032-.012.046a2.178,2.178,0,0,0,.481.3,1.389,1.389,0,0,0,.7.1,1.3,1.3,0,0,0,.424-.139,2.247,2.247,0,0,0,1-1.049l.074-.145.005.274c0,.016.021.03.049.033a.068.068,0,0,0,.063-.024l.242-.466a.086.086,0,0,0,.055,0,1.048,1.048,0,0,0,.578-.4.115.115,0,0,0,.009.059.069.069,0,0,0,.067.024c.183-.019.228-.2.26-.336a.573.573,0,0,1,.025-.085c.075-.072.136-.117.194-.164.073.026.092.02.1.011a.938.938,0,0,0,.345-.461,2.032,2.032,0,0,0,.161-.24c.031-.027.061-.054.092-.08.242-.207.863-.688.889-.7a.213.213,0,0,1,.1-.019c.017.009.037.081-.106.293-.131.2-.263.392-.4.588-.266.391-.538.785-.809,1.172-.011.017,0,.035.03.043a.087.087,0,0,0,.064-.006,27.18,27.18,0,0,1,2.2-2.141,7.778,7.778,0,0,1,1.289-.95.484.484,0,0,0,.126-.014c.025-.011.03-.031.011-.046a.133.133,0,0,0-.075-.024M89.551,37.31c-.363.258-.737.513-1.109.762l.141-.113c.335-.262.683-.52,1.039-.775Zm1.389-1.04-.277.211a2.176,2.176,0,0,1,.277-.211m-.337.369.131-.1.17-.13-.068.125c-.034.054-.068.107-.1.162l-.241.2c.037-.085.072-.171.106-.257m-.206.046a.313.313,0,0,1,.118-.126l-.019.05-.1.075m.713-1.93-.133.424c-.126.409-.255.825-.409,1.24l-.173.118,0-.135c-.055-.035-.078-.033-.1-.026a.757.757,0,0,0-.16.109Zm-1.031,1.972a.808.808,0,0,1,.2-.242l0,.131-.231.16Zm-.219.361.077-.128.345-.241a2.462,2.462,0,0,1-.422.369m.551.3-.005-.26.184-.154c-.046.1-.178.414-.178.414m-.012-.6c.021,0,.012.025,0,.049Zm.8-.091a1.081,1.081,0,0,1-.427.356,1.787,1.787,0,0,1,.616-.66,1.716,1.716,0,0,1-.189.3m.276-.456c-.056.032-.093.055-.13.078l.052-.045.111-.085-.032.052m-.03-.128-.143.122c-.1.08-.2.16-.305.241l.026-.05.041-.059.044-.061c.03-.043.06-.087.092-.131q.259-.2.529-.389c-.008.034-.016.069-.025.1-.087.074-.173.149-.259.225m.409-.366a.471.471,0,0,1,.156-.158c-.054.052-.106.1-.156.158" transform="translate(-1.586 -0.983)" fill="#3a3737"/>
            <g id="Group_31262" data-name="Group 31262" transform="translate(58.593 47.468)" opacity="0.7">
              <g id="Group_31213" data-name="Group 31213" transform="translate(0 0)">
                <g id="Group_31212" data-name="Group 31212" clip-path="url(#clip-path-11)">
                  <path id="Path_9867" data-name="Path 9867" d="M64.052,48.539c-2.63,1.518-2.63,3.98,0,5.5a10.524,10.524,0,0,0,9.523,0c2.629-1.518,2.629-3.98,0-5.5a10.524,10.524,0,0,0-9.523,0m9.334,5.389a10.108,10.108,0,0,1-9.146,0c-2.525-1.458-2.525-3.823,0-5.281a10.108,10.108,0,0,1,9.146,0c2.526,1.458,2.526,3.823,0,5.281m-7.813-.77a7.164,7.164,0,0,0,6.481,0c1.789-1.034,1.79-2.709,0-3.742a7.167,7.167,0,0,0-6.481,0c-1.789,1.034-1.789,2.709,0,3.741m.991-3.17a4.973,4.973,0,0,1,4.5,0,1.372,1.372,0,0,1,0,2.6,4.973,4.973,0,0,1-4.5,0,1.372,1.372,0,0,1,0-2.6M65.3,49.174c-.037,0-.514-.305-.514-.305,0-.02.076-.06.076-.06a4.948,4.948,0,0,1,.434.256,2.171,2.171,0,0,0,.2-.1.231.231,0,0,1,.088.035,2.14,2.14,0,0,1-.289.171m.486-.235.085-.037c.049-.02.078-.045.086-.072s-.006-.056-.043-.085l-.129-.1a.231.231,0,0,0-.127-.049.3.3,0,0,0-.146.027l-.085.035c-.05.021-.08.046-.086.073s.006.055.044.084l.128.1a.216.216,0,0,0,.127.049.3.3,0,0,0,.146-.026m-.278-.173c.084-.085.1-.089.116-.088a1.466,1.466,0,0,1,.168.116c-.085.086-.1.089-.116.088a1.467,1.467,0,0,1-.168-.116m.536.048-.286-.274c.009-.02.095-.049.095-.049a1.051,1.051,0,0,0,.125-.045.148.148,0,0,1,.112.034c-.008.018-.077.043-.077.043-.047.016-.055.04-.023.07l.184.177c-.009.019-.095.048-.095.048a.03.03,0,0,1-.034,0m.357-.138a.326.326,0,0,0,.151-.011l.236-.067c-.056-.066-.271-.005-.271-.005a.137.137,0,0,1-.056.005c-.042-.047.226-.122.226-.122.012-.019-.055-.1-.055-.1a.18.18,0,0,0-.109-.061.339.339,0,0,0-.152.01l-.085.025a.183.183,0,0,0-.109.062c-.016.026-.01.055.018.087l.095.113a.185.185,0,0,0,.109.062m-.067-.21c.1-.073.116-.074.131-.072.056.063-.089.1-.089.1-.017,0-.042-.032-.042-.032m.543.088L66.7,48.25a.378.378,0,0,1,.112-.037c.1-.014.12-.021.148-.027a.294.294,0,0,1,.2.009c.011-.032.046-.055.11-.067a.358.358,0,0,1,.179,0,.162.162,0,0,1,.089.07l.118.213a.364.364,0,0,1-.111.037,1.125,1.125,0,0,1-.15-.218.1.1,0,0,0-.086-.026c-.079.015-.1.037-.078.071l.112.2a.378.378,0,0,1-.112.037,1.149,1.149,0,0,1-.149-.218c-.045-.03-.064-.03-.088-.026-.087.017-.1.038-.086.071l.112.2a.353.353,0,0,1-.112.035c-.016,0-.026,0-.031-.009m1-.548c-.027-.012-.043-.071-.043-.071a.455.455,0,0,1,.121-.024c.027.01.044.07.044.07a.479.479,0,0,1-.122.025m.109.389a1.809,1.809,0,0,1-.116-.329.464.464,0,0,1,.121-.025,1.792,1.792,0,0,1,.115.328.391.391,0,0,1-.12.026m.237.058a.469.469,0,0,0,.126.009c.024-.015.009-.131.009-.131a.136.136,0,0,0,.055.025.221.221,0,0,0,.071.006.339.339,0,0,0,.183-.037.083.083,0,0,0,.035-.085l-.016-.126a.105.105,0,0,0-.057-.081.282.282,0,0,0-.142-.023.39.39,0,0,0-.118.015,1.682,1.682,0,0,0-.176,0,2.491,2.491,0,0,0,.031.429m.185-.363c.078,0,.1,0,.106.005a.582.582,0,0,1,.035.147c-.02.039-.039.043-.063.043-.106.005-.136-.011-.14-.045l-.013-.095c-.005-.034.019-.053.074-.056m.323.006a.079.079,0,0,1,.046-.07.335.335,0,0,1,.14-.02l.2,0c0,.072-.169.07-.169.07q-.056,0-.058.016c0,.013.015.024.048.035l.118.043a.238.238,0,0,1,.085.041.058.058,0,0,1,.023.053c0,.061-.067.091-.19.089l-.225,0c0-.072.2-.069.2-.069.038,0,.058-.006.058-.019s-.015-.026-.046-.037l-.115-.04a.285.285,0,0,1-.088-.04.056.056,0,0,1-.026-.053m.528.156.049-.222a.531.531,0,0,1,.128,0c.021.015-.027.233-.027.233.156.052.187.037.2,0l.046-.206a.482.482,0,0,1,.127,0,1.544,1.544,0,0,1-.05.334.447.447,0,0,1-.127.005.068.068,0,0,0-.074-.015.3.3,0,0,1-.07,0,.337.337,0,0,1-.171-.042.08.08,0,0,1-.027-.086m.528.133.149-.308a.441.441,0,0,1,.128.005.061.061,0,0,0,.07.021.284.284,0,0,1,.08,0c.1.016.14.038.156.071a.224.224,0,0,1,.153-.021.266.266,0,0,1,.155.055.073.073,0,0,1,.005.087l-.1.215a.441.441,0,0,1-.128-.005c-.018-.017.085-.229.085-.229-.129-.062-.163-.049-.181-.016l-.1.2a.47.47,0,0,1-.128-.006c-.017-.017.084-.229.084-.229-.136-.063-.17-.052-.186-.018l-.1.2A.441.441,0,0,1,69.8,48.4c-.017,0-.021-.008-.018-.017m1.131.2a.151.151,0,0,0,.1.061.362.362,0,0,0,.112.023.142.142,0,0,0,.063-.013c0,.04.089.067.089.067a5.235,5.235,0,0,0,.381-.413c-.012-.019-.1-.045-.1-.045-.032.006-.153.146-.153.146-.039-.049-.058-.058-.08-.064a.365.365,0,0,0-.189-.023.186.186,0,0,0-.106.062l-.1.113c-.028.032-.035.061-.021.086m.16-.052.09-.105c.052-.027.07-.025.092-.018.1.027.109.05.082.081l-.073.085a.1.1,0,0,1-.114.026c-.092-.043-.09-.054-.077-.068m.8.273.119-.106c.032-.029.044-.058.033-.085s-.042-.05-.093-.07l-.089-.032a.3.3,0,0,0-.149-.021.206.206,0,0,0-.119.054l-.118.106c-.034.03-.046.058-.035.085a.15.15,0,0,0,.1.07l.088.033a.316.316,0,0,0,.147.02.21.21,0,0,0,.121-.054m-.305-.08a1.094,1.094,0,0,1,.129-.132c.056-.023.073-.02.095-.013l.052.019c.023.055-.092.157-.092.157-.056.023-.074.019-.1.012-.071-.027-.084-.035-.087-.043m.857-.14c.006.02-.465.382-.465.382a.4.4,0,0,1-.116-.032c-.005-.02.466-.382.466-.382a.361.361,0,0,1,.115.032m-.037.2a.225.225,0,0,0-.127.048l-.131.1c-.038.029-.054.057-.046.085s.035.052.086.073l.084.037a.31.31,0,0,0,.145.027.225.225,0,0,0,.128-.048l.132-.1c.037-.028.05-.056.044-.084s-.035-.052-.084-.073l-.086-.037a.3.3,0,0,0-.145-.027m.168.141a1.231,1.231,0,0,1-.144.127c-.059.02-.077.017-.1.008-.061-.076.064-.173.064-.173.163.021.175.031.177.039m.39.164a.218.218,0,0,1,.07,0,.19.19,0,0,1,.06.023c.027.038-.033.07-.033.07a.237.237,0,0,1-.09-.035.115.115,0,0,0-.122,0l-.263.141a.322.322,0,0,1-.1-.044,4.612,4.612,0,0,1,.409-.237.336.336,0,0,1,.1.043c0,.02-.031.037-.031.037m-.1.406c.006-.019.069-.044.069-.044a.657.657,0,0,1,.147.1.061.061,0,0,0,.062.016.243.243,0,0,0,.008-.12.09.09,0,0,1,0-.063.11.11,0,0,1,.06-.044.238.238,0,0,1,.124-.02.221.221,0,0,1,.112.052l.115.093c-.006.019-.07.045-.07.045a.508.508,0,0,1-.129-.081c-.021-.018-.042-.025-.057-.018a.3.3,0,0,0-.009.124.09.09,0,0,1,0,.064.144.144,0,0,1-.061.043.223.223,0,0,1-.239-.035Zm.967-.012a.266.266,0,0,1,.087.056c-.008.018-.1.049-.1.049a.225.225,0,0,1-.085-.056c.008-.018.1-.049.1-.049m-.673.234.476-.165a.233.233,0,0,1,.086.055c-.009.019-.485.185-.485.185a.226.226,0,0,1-.085-.055c-.01-.009-.006-.015.008-.019m.764-.058a.213.213,0,0,1,.081.057c-.011.019-.111.049-.111.049s.037.058.037.058c-.009.019-.083.041-.083.041a.2.2,0,0,1-.074-.054c-.018,0-.251.066-.251.066a.145.145,0,0,1-.089.12c-.1-.075-.1-.1-.089-.131a.163.163,0,0,1,.1-.064l.239-.072c-.006-.054.067-.074.067-.074a.289.289,0,0,0,.172,0m-.2.477a.212.212,0,0,0-.118.056.072.072,0,0,0,0,.089c.066.059.085.066.109.066a.058.058,0,0,0-.017.083c.032.01.555-.1.555-.1.014-.019-.075-.169-.075-.169a.169.169,0,0,0-.1-.07.318.318,0,0,0-.153,0Zm.34.067.035.06c-.008.01-.234.056-.234.056-.057.012-.095,0-.112-.027.028-.074.221-.114.221-.114a.122.122,0,0,1,.055,0,.068.068,0,0,1,.034.027m.236.2c.029.011.048.068.048.068-.037.028-.017.035,0,.046a.09.09,0,0,1,.034.042c.02.058.005.089-.039.112a.118.118,0,0,1,.1.07c.019.054.011.082-.016.1a.255.255,0,0,1-.131.043l-.378.044c-.03-.011-.049-.069-.049-.069a3.73,3.73,0,0,1,.392-.06c.038-.095,0-.106-.058-.1l-.35.042c-.03-.012-.049-.069-.049-.069.018-.016.392-.06.392-.06.035-.1,0-.112-.058-.1l-.352.041c-.029-.012-.049-.068-.049-.068.019-.017.564-.081.564-.081m-.217.571a.293.293,0,0,0-.141.034.087.087,0,0,0-.041.085l.016.152a.313.313,0,0,0,.1.011c.024-.015.01-.153.01-.153a.071.071,0,0,1,.064-.044c.039.008.058.179.058.179a.884.884,0,0,0,.176.009.285.285,0,0,0,.14-.034.087.087,0,0,0,.042-.086l-.005-.054a.1.1,0,0,0-.059-.082.286.286,0,0,0-.146-.025Zm.294.116c-.017.067-.035.07-.061.071l-.057,0c-.014-.008-.023-.1-.023-.1a.231.231,0,0,1,.069-.01.126.126,0,0,1,.055.006.036.036,0,0,1,.017.03m.159.214h.113c.024.016.021.073.021.073a.551.551,0,0,1-.139.013.148.148,0,0,1-.124.073c-.032-.076-.294-.081-.294-.081a.111.111,0,0,0-.054.009.153.153,0,0,1-.127.071c-.019-.092,0-.12.033-.14a.283.283,0,0,1,.143-.027l.271,0a.17.17,0,0,1,.12-.047c.023.047.027.049.035.05m-.735.181.273.014c.021.015.011.076.011.076a.421.421,0,0,1-.116.006.2.2,0,0,1-.07-.019l-.113-.053c-.008-.021,0-.025.015-.025m.448.335a.247.247,0,0,1,.131.046.075.075,0,0,1,.02.087l-.035.1a.342.342,0,0,1-.111,0c-.018-.016.013-.1.013-.1a.735.735,0,0,0-.255-.071.141.141,0,0,0-.056,0,.463.463,0,0,0-.058.114.337.337,0,0,1-.109,0c-.018-.016.016-.116.016-.116a.126.126,0,0,1,.078-.076.327.327,0,0,1,.15-.013Zm-.3.226a.312.312,0,0,0-.153,0,.146.146,0,0,0-.09.072l-.03.058a.069.069,0,0,0,0,.087.2.2,0,0,0,.12.054l.21.037a.326.326,0,0,0,.153,0,.156.156,0,0,0,.09-.071l.031-.059a.074.074,0,0,0,0-.088.211.211,0,0,0-.122-.052Zm.2.169c-.061.064-.08.064-.1.06l-.2-.037c.016-.114.034-.114.059-.11l.2.037c.054.025.054.035.045.049m-.537.118.509.128c.012.018-.028.072-.028.072-.039.02-.034.045-.058.077a.227.227,0,0,1-.268.074l-.356-.089c-.011-.019.028-.073.028-.073a3.548,3.548,0,0,1,.381.081.132.132,0,0,0,.056,0c.075-.076.058-.1,0-.112l-.329-.083c-.014-.019.027-.073.027-.073a.029.029,0,0,1,.033-.006m.049.4a.244.244,0,0,1,.095.012c.047.016.076.034.084.057s0,.048-.033.08l-.1.1a.3.3,0,0,1-.1-.016c-.011-.019.071-.1.071-.1-.018-.044-.041-.041-.074-.029l-.12.041a.354.354,0,0,1-.1.023.221.221,0,0,1-.092-.013c-.092-.03-.107-.076-.046-.139l.11-.113a.3.3,0,0,1,.1.016c.009.019-.088.118-.088.118.024.046.047.043.079.032l.113-.041a.457.457,0,0,1,.1-.026m-.507.158a.233.233,0,0,0-.124.053l-.15.124c0,.02.068.046.068.046a.833.833,0,0,0,.175-.116c.12.009-.053.15-.053.15.006.019.13.07.13.07a.317.317,0,0,0,.147.024.232.232,0,0,0,.124-.053l.055-.044c.034-.029.048-.057.042-.085s-.037-.05-.089-.072l-.177-.073a.331.331,0,0,0-.147-.024m.271.191c-.1.075-.122.071-.143.063-.05-.029.044-.105.044-.105.085.025.1.033.1.042m-.462.1.165.082c.047.024.073.048.076.076s-.016.055-.056.082l-.117.078a.28.28,0,0,1-.1-.03c0-.019.1-.086.1-.086-.008-.057-.162-.134-.162-.134a.451.451,0,0,0-.2.071.271.271,0,0,1-.1-.029c0-.019.113-.1.113-.1a.249.249,0,0,1,.132-.044.273.273,0,0,1,.142.031m-.064.3a.578.578,0,0,1,.075.039c-.034.051.045.1.045.1,0,.02-.073.061-.073.061a.361.361,0,0,1-.114-.047.4.4,0,0,0-.085.039.275.275,0,0,1-.092-.033c0-.02.067-.057.067-.057a1.613,1.613,0,0,0-.184-.119.4.4,0,0,1-.225-.014c0-.02.052-.049.052-.049a.276.276,0,0,1,.139-.039.262.262,0,0,1,.136.038l.189.111c.059-.023.066-.026.07-.025m-.786.045-.2.1c0,.019.046.055.046.055a1.241,1.241,0,0,0,.22-.086.1.1,0,0,1,.053-.012c.06.04-.17.149-.17.149,0,.02.092.087.092.087a.244.244,0,0,0,.131.045.3.3,0,0,0,.143-.03l.072-.035c.048-.023.075-.047.081-.075s-.013-.055-.053-.083l-.139-.1a.251.251,0,0,0-.131-.046.323.323,0,0,0-.144.031m.3.164c-.179.033-.054-.026-.054-.026a.165.165,0,0,1,.054.026m-.272.182a.515.515,0,0,1,.061.046c-.048.046.015.1.015.1-.008.02-.09.053-.09.053a.284.284,0,0,1-.1-.057.436.436,0,0,0-.1.028A.189.189,0,0,1,71.831,54c.006-.019.083-.049.083-.049a1.2,1.2,0,0,0-.143-.135c-.059-.021-.077-.018-.1-.01a.157.157,0,0,1-.12-.027c.008-.019.068-.044.068-.044a.332.332,0,0,1,.148-.023.222.222,0,0,1,.122.05l.153.129a.5.5,0,0,1,.075-.018m-.5,0,.188.2c-.01.019-.1.048-.1.048a1.526,1.526,0,0,1-.219-.2c-.055-.025-.072-.023-.093-.015-.086.027-.095.05-.067.081l.175.182c-.011.019-.1.047-.1.047a2.764,2.764,0,0,1-.305-.286c.012-.02.1-.047.1-.047.087-.025.105-.034.127-.041a.37.37,0,0,1,.181-.025.2.2,0,0,1,.109.059m-.592.075.222.294c-.013.019-.105.042-.105.042a1.368,1.368,0,0,0-.133.034.128.128,0,0,1-.1-.042.27.27,0,0,1,.087-.037c.05-.013.063-.035.038-.068l-.143-.189a.338.338,0,0,1,.105-.043.029.029,0,0,1,.033.008m-.28.178a.144.144,0,0,0-.093-.07.345.345,0,0,0-.153,0,.274.274,0,0,0-.088.027,1.711,1.711,0,0,0-.172.024,1.833,1.833,0,0,0,.158.322,2.22,2.22,0,0,0,.293-.041.225.225,0,0,0,.121-.054.069.069,0,0,0,0-.088Zm-.141.031.064.112a.314.314,0,0,1-.148.071.721.721,0,0,1-.093-.136c-.019-.032,0-.054.049-.063a.227.227,0,0,1,.1-.01.052.052,0,0,1,.03.027m-.52,0a.311.311,0,0,0-.146-.011.365.365,0,0,0-.112.024c-.078,0-.177.012-.177.012a3.433,3.433,0,0,0,.145.46.491.491,0,0,0,.129,0c.019-.017-.037-.169-.037-.169a.153.153,0,0,0,.06.02.223.223,0,0,0,.071,0c.107-.013.149-.028.173-.05a.076.076,0,0,0,.015-.087l-.046-.124a.124.124,0,0,0-.075-.075m-.07.1.043.116c-.158.06-.191.047-.2.013l-.033-.092c-.013-.033.008-.054.06-.061a.264.264,0,0,1,.109,0,.045.045,0,0,1,.026.028m-.586-.059.1-.008a1.651,1.651,0,0,1,.1.331.409.409,0,0,1-.12.024,1.723,1.723,0,0,1-.1-.331c.005-.013.012-.016.019-.016m.191.384c.026.012.04.072.04.072a.466.466,0,0,1-.124.023c-.027-.012-.04-.071-.04-.071a.476.476,0,0,1,.124-.024m-.318-.451a.488.488,0,0,0-.127-.01c-.024.014-.015.13-.015.13a.127.127,0,0,0-.053-.026.231.231,0,0,0-.072-.006.345.345,0,0,0-.183.032.087.087,0,0,0-.041.085l.01.125a.1.1,0,0,0,.054.083.282.282,0,0,0,.141.025.439.439,0,0,0,.117-.012c.077.006.177,0,.177,0a2.466,2.466,0,0,0-.009-.43m-.205.36a.264.264,0,0,1-.106-.006.608.608,0,0,1-.028-.148.071.071,0,0,1,.067-.043c.107,0,.134.014.138.049l.009.095c0,.034-.024.052-.078.054m-.53.121.1,0c.021.014.018.074.018.074a.507.507,0,0,1-.129.011c-.021-.014-.018-.074-.018-.074s.008-.013.025-.013m.15-.377-.02.32a.456.456,0,0,1-.127.012,1.6,1.6,0,0,1,0-.335.491.491,0,0,1,.126-.012c.017,0,.025.005.025.015m-.327.3a.327.327,0,0,1-.141.014l-.2-.012c.014-.072.178-.062.178-.062.039,0,.058,0,.06-.014s-.012-.025-.044-.037l-.112-.048a.227.227,0,0,1-.077-.045.058.058,0,0,1-.016-.055c.012-.06.08-.086.2-.078l.225.014c-.013.071-.21.059-.21.059-.039,0-.059,0-.062.017s.011.025.042.037l.11.045a.235.235,0,0,1,.081.044.051.051,0,0,1,.018.054.083.083,0,0,1-.057.068m-.4-.344-.1.316a.515.515,0,0,1-.129,0,1.717,1.717,0,0,1,.081-.333.5.5,0,0,1,.128,0c.017,0,.024.008.02.016m-.244.361.1.011c.019.016,0,.074,0,.074a.476.476,0,0,1-.13,0c-.018-.015,0-.074,0-.074s.013-.013.028-.012m-.194-.1a.324.324,0,0,1-.154.006l-.17-.025c.032-.073.181-.052.181-.052a.113.113,0,0,0,.055,0,.68.68,0,0,0,.08-.142.471.471,0,0,0-.2-.071c.032-.073.2-.047.2-.047a.23.23,0,0,1,.128.048.071.071,0,0,1,.014.087l-.056.122a.128.128,0,0,1-.084.073m-.625-.028.1.019c.014.017-.019.074-.019.074a.488.488,0,0,1-.128-.011c-.014-.016.019-.073.019-.073s.014-.012.029-.01m.331-.336-.177.3a.437.437,0,0,1-.127-.01,1.878,1.878,0,0,1,.16-.322.437.437,0,0,1,.127.01c.016,0,.021.009.017.018m-.587.218a.825.825,0,0,1-.121-.014c-.148-.038-.181-.086-.13-.155l.154-.2a.447.447,0,0,1,.126.015c.013.019-.138.22-.138.22.126.075.162.066.187.034l.142-.191a.453.453,0,0,1,.126.015,2.3,2.3,0,0,1-.206.314.444.444,0,0,1-.126-.016c-.015,0-.02-.01-.013-.018m-.25-.291a.08.08,0,0,0,.03-.086.149.149,0,0,0-.095-.063.376.376,0,0,0-.1-.024.144.144,0,0,0-.064.012s.04-.047.04-.047a.117.117,0,0,1,.095-.014l.176.058a.182.182,0,0,0,.075-.046,1.207,1.207,0,0,0-.208-.084.32.32,0,0,0-.149-.017.205.205,0,0,0-.116.057l-.289.294a1.7,1.7,0,0,0,.249.1.3.3,0,0,0,.15.015.19.19,0,0,0,.115-.057Zm-.262.072a.1.1,0,0,1-.054-.008l-.1-.031c-.006-.011.1-.118.1-.118a.1.1,0,0,1,.115-.02c.064.067-.024.155-.024.155a.066.066,0,0,1-.04.023m-.329-.141.128-.1c.037-.03.05-.057.042-.085s-.038-.05-.087-.072L65.7,53.6a.214.214,0,0,0-.081.04,1.06,1.06,0,0,0,.2.1c-.017.069-.258-.031-.258-.031a.416.416,0,0,0-.124.073c-.037.03-.052.058-.043.085s.037.05.088.072l.076.031A.3.3,0,0,0,65.7,54a.234.234,0,0,0,.125-.049m-.289-.086c.07-.059.2,0,.2,0-.188.021-.2.012-.2,0m.047-.3-.508.345a.379.379,0,0,1-.112-.037c0-.019.5-.364.5-.364a.363.363,0,0,1,.114.035c.012.006.012.013,0,.02m-.764.215a.359.359,0,0,1-.107-.041c0-.018.07-.062.07-.062a.345.345,0,0,1,.109.04c0,.019-.071.063-.071.063m.449-.4c.016.006.09.046.09.046a4.1,4.1,0,0,1-.38.254.334.334,0,0,1-.109-.04,3.948,3.948,0,0,1,.38-.253l.018-.008m-.61.242a.327.327,0,0,1-.1-.043c0-.02.084-.064.084-.064s-.063-.051-.063-.051c0-.02.061-.053.061-.053a.3.3,0,0,1,.1.041,2.149,2.149,0,0,0,.211-.1c-.029-.1.03-.129.03-.129a.219.219,0,0,1,.084.031c.044.027.064.054.063.082s-.025.053-.069.077l-.2.106c.031.05-.029.083-.029.083a.264.264,0,0,0-.169.023m.223-.485.144-.008c.018.024-.192.124-.192.124a.32.32,0,0,1-.1-.049c0-.018.075-.052.075-.052a.193.193,0,0,1,.074-.015m-.564.115a.224.224,0,0,1-.112-.052l-.116-.092c.008-.019.071-.046.071-.046a.541.541,0,0,1,.127.081.065.065,0,0,0,.059.018.313.313,0,0,0,.008-.125.082.082,0,0,1,0-.063.109.109,0,0,1,.061-.042.219.219,0,0,1,.236.033l.132.105c-.008.02-.069.046-.069.046a.75.75,0,0,1-.149-.1.058.058,0,0,0-.062-.015.251.251,0,0,0,0,.119.105.105,0,0,1,0,.064.114.114,0,0,1-.058.044.242.242,0,0,1-.125.02m-.14-.268.188-.062c.056-.018.088-.04.1-.068s0-.055-.029-.086l-.131-.131a.312.312,0,0,0-.1.016c-.01.02.109.141.109.141-.066.059-.214-.09-.214-.09a.736.736,0,0,0-.164.038.157.157,0,0,0-.1.067c-.013.027,0,.056.028.087l.047.047a.2.2,0,0,0,.115.058.326.326,0,0,0,.15-.016m-.189-.116a.133.133,0,0,1,.173.014c-.076.033-.095.035-.107.033a.278.278,0,0,1-.066-.047m-.349-.321c.034.138.068.158.111.167a.334.334,0,0,0,.15-.009l.2-.05a.189.189,0,0,0,.113-.058.068.068,0,0,0-.01-.085.172.172,0,0,0-.062-.059.15.15,0,0,0-.062-.013c.046-.03.005-.085.005-.085-.032-.006-.751.175-.751.175-.013.019.028.072.028.072a1.96,1.96,0,0,0,.278-.055m.116.056c-.044-.057-.028-.078.028-.091l.15-.039c.054-.014.092-.006.115.023-.015.082-.2.128-.2.128a.131.131,0,0,1-.055.005.054.054,0,0,1-.035-.026m-.405-.568c0,.139.023.162.062.174a.321.321,0,0,0,.153.005l.211-.031a.244.244,0,0,0,.127-.047.067.067,0,0,0,.014-.085c-.061-.074-.081-.081-.1-.083a.06.06,0,0,0,.029-.082c-.03-.011-.79.1-.79.1-.016.018.009.074.009.074a2.079,2.079,0,0,0,.29-.029m.15-.023.159-.024c.058-.009.095,0,.107.032-.035.078-.234.109-.234.109a.135.135,0,0,1-.056,0c-.056-.087-.034-.107.024-.116m.133-.157a.234.234,0,0,0,.134-.041.077.077,0,0,0,.028-.086l-.015-.061a.113.113,0,0,0-.071-.077.3.3,0,0,0-.149-.017l-.215.018a.249.249,0,0,0-.135.041.076.076,0,0,0-.028.086l.015.061a.111.111,0,0,0,.071.077.308.308,0,0,0,.148.018Zm-.312-.1c.048-.081.255-.1.255-.1a.12.12,0,0,1,.056,0c-.026.109-.232.127-.232.127a.1.1,0,0,1-.055-.005.037.037,0,0,1-.024-.028m.235-.227A.279.279,0,0,0,63.7,51.5a.084.084,0,0,0,.044-.085l-.009-.15a.327.327,0,0,0-.1-.013c-.025.015-.016.154-.016.154-.105.034-.117-.138-.117-.138a.84.84,0,0,0-.177-.011.282.282,0,0,0-.141.033.086.086,0,0,0-.044.085c.005.09.025.117.058.135a.285.285,0,0,0,.146.027Zm-.29-.12a.187.187,0,0,1,.121-.071c.013.008.019.1.019.1a.321.321,0,0,1-.07.008.1.1,0,0,1-.054-.008.031.031,0,0,1-.017-.03m-.239-.2-.1,0c-.023-.014-.019-.074-.019-.074a.5.5,0,0,1,.129-.01c.023.014.017.073.017.073s-.009.014-.025.013m.1-.011,0-.059c.026-.014.58,0,.58,0,.025.015.02.073.02.073-.025.014-.58,0-.58,0-.016,0-.025,0-.025-.014m.418-.13-.384-.028c-.021-.015-.01-.073-.01-.073a3.924,3.924,0,0,1,.4.014.133.133,0,0,0,.056-.005c.034-.085.008-.1-.052-.107l-.357-.025c-.023-.017-.01-.074-.01-.074.028-.014.579.026.579.026.02.017.01.074.01.074-.031.141-.053.165-.09.182a.33.33,0,0,1-.147.017m-.162-.376a.178.178,0,0,1-.11-.041.07.07,0,0,1-.008-.082l.044-.111a.339.339,0,0,1,.105,0c.018.016-.019.11-.019.11.039.04.06.032.086.015l.1-.058a.233.233,0,0,1,.182-.042c.1.013.141.055.113.125l-.05.128a.359.359,0,0,1-.1,0c-.016-.017.028-.128.028-.128-.046-.041-.069-.033-.092-.018l-.089.058a.31.31,0,0,1-.086.041.21.21,0,0,1-.095,0m.5-.215-.521-.114c-.015-.018.021-.072.021-.072.091-.14.132-.161.189-.167a.06.06,0,0,1-.023-.091.171.171,0,0,1,.107-.083.342.342,0,0,1,.15,0l.363.078c.014.019-.02.073-.02.073a3.632,3.632,0,0,1-.388-.068.13.13,0,0,0-.056,0c-.063.072-.044.092.012.1l.335.073c.015.018-.02.073-.02.073a3.638,3.638,0,0,1-.387-.069.116.116,0,0,0-.057,0c-.066.075-.046.1.01.109l.335.072c.016.018-.02.073-.02.073s-.016.012-.031.01m.326-.509a.19.19,0,0,0,.113-.059l.05-.054c.029-.031.038-.059.025-.087a.163.163,0,0,0-.1-.066l-.191-.06a.307.307,0,0,0-.15-.013.205.205,0,0,0-.113.059l-.05.054c-.03.031-.039.061-.025.088s.045.047.1.064l.19.06a.3.3,0,0,0,.151.013m-.306-.171c.093-.087.112-.085.134-.077l.183.057c-.054.111-.072.109-.095.1l-.183-.057c-.023-.008-.035-.015-.04-.024m.571-.1a.218.218,0,0,0,.12-.049c.11-.092.169-.14.169-.14-.006-.02-.65-.279-.65-.279a.257.257,0,0,0-.092.052,1.426,1.426,0,0,0,.227.107.2.2,0,0,0-.069.01.14.14,0,0,0-.054.027c-.062.053-.074.08-.066.105a.152.152,0,0,0,.091.07l.179.072a.32.32,0,0,0,.144.026m-.268-.192c.079-.082.119-.084.17-.064l.134.054c.048.02.058.043.027.069-.089.046-.106.043-.128.034l-.168-.067q-.031-.013-.035-.026" transform="translate(-62.079 -47.4)" fill="#24b24c"/>
                </g>
              </g>
            </g>
            <path id="Path_10045" data-name="Path 10045" d="M28.37,17.919l-3.469,2c-.13.075-.13.149,0,.223l.624.36a.364.364,0,0,0,.387,0l1.045-.6a.19.19,0,0,1,.2,0l4.6,2.656a.369.369,0,0,0,.394-.005l.771-.445q.193-.111,0-.222l-4.6-2.656c-.067-.039-.064-.08.01-.121l1.046-.6c.128-.075.128-.149,0-.223l-.624-.36a.362.362,0,0,0-.386,0" transform="translate(-6.261 -2.131)" fill="#0b8d45"/>
            <path id="Path_10046" data-name="Path 10046" d="M31.438,16.062l-1.221.7q-.211.121-.084.271L34.2,21.06a.226.226,0,0,0,.3.047l.882-.508c.061-.035.091-.07.091-.1s-.03-.073-.091-.122l-.752-.731,1.79-1.034,1.266.434a.653.653,0,0,0,.207.056.351.351,0,0,0,.178-.056l.882-.509c.111-.063.083-.121-.083-.174l-6.968-2.349a.541.541,0,0,0-.468.048m2.479,2.915-1.992-1.914c.037-.021,3.351,1.129,3.351,1.129Z" transform="translate(-5.867 -2.271)" fill="#0b8d45"/>
            <path id="Path_10047" data-name="Path 10047" d="M43.543,15.756l-4.232-.8-1.276-2.348a.185.185,0,0,0-.146-.08.3.3,0,0,0-.2.037l-.9.52c-.135.077-.169.171-.1.28L37.8,15c-.037.02-2.883-.616-2.883-.616a.635.635,0,0,0-.5.064l-.881.508c-.061.035-.084.072-.064.112a.177.177,0,0,0,.138.078l4.057.753,1.4,2.449a.193.193,0,0,0,.142.083.291.291,0,0,0,.189-.04l.909-.525c.129-.074.159-.162.091-.264l-1.065-1.675c.037-.021,2.929.6,2.929.6a.583.583,0,0,0,.449-.047l.919-.53c.067-.04.092-.077.077-.114s-.068-.064-.16-.083" transform="translate(-5.616 -2.528)" fill="#0b8d45"/>
            <g id="Group_31263" data-name="Group 31263" transform="translate(59.385 27.599)" opacity="0.4" style="mix-blend-mode: multiply;isolation: isolate">
              <g id="Group_31216" data-name="Group 31216" transform="translate(0 0)">
                <g id="Group_31215" data-name="Group 31215" clip-path="url(#clip-path-12)">
                  <path id="Path_9871" data-name="Path 9871" d="M92.1,34.083c-1.505-1.779-4.128-1.973-6.256-2.924a18.2,18.2,0,0,0-1.824-.819,8.98,8.98,0,0,0-2.039-.322c-1.93-.155-2.94-1.394-4.845-1.052-.741.133-2.657,1.684-3.4,1.509-.8-.187-1.515-.582-2.352-.711-1.8-.278-3.438.8-5.127,1.479A6.953,6.953,0,0,0,63.027,33.9c-.751,1.549.689,3.136,1.466,6.755.146.679.2.839.829,1.106a53.258,53.258,0,0,1,6.125,3.057c.6.292,7.8-.376,13.436,1.64a5.673,5.673,0,0,0-1.3,1.655l2.108,1.217,12.291-7.1c-2.639-3.724-5.339-7.5-5.885-8.147" transform="translate(-62.817 -28.907)" fill="#ada6a3"/>
                </g>
              </g>
            </g>
          </g>
        </g>
      </g>
    </g>
  </g>
</svg>
