<svg xmlns="http://www.w3.org/2000/svg" xmlns:xlink="http://www.w3.org/1999/xlink" width="160" height="160" viewBox="0 0 160 160">
  <defs>
    <clipPath id="clip-path">
      <rect id="Rectangle_2241" data-name="Rectangle 2241" width="160" height="160" rx="16" transform="translate(449 -792)" fill="#f7f7f7"/>
    </clipPath>
    <filter id="Union_71" x="-16.5" y="5.947" width="193.509" height="180.395" filterUnits="userSpaceOnUse">
      <feOffset dy="16" input="SourceAlpha"/>
      <feGaussianBlur stdDeviation="12" result="blur"/>
      <feFlood flood-opacity="0.161"/>
      <feComposite operator="in" in2="blur"/>
      <feComposite in="SourceGraphic"/>
    </filter>
    <clipPath id="clip-path-2">
      <rect id="Rectangle_1965" data-name="Rectangle 1965" width="119.998" height="106.951" fill="none"/>
    </clipPath>
  </defs>
  <g id="trackingPO" transform="translate(-449 792)">
    <g id="Mask_Group_14" data-name="Mask Group 14" clip-path="url(#clip-path)">
      <g id="Group_31572" data-name="Group 31572">
        <rect id="Rectangle_1963" data-name="Rectangle 1963" width="160" height="160" rx="16" transform="translate(449 -792)" fill="#f7f7f7"/>
        <g transform="matrix(1, 0, 0, 1, 449, -792)" filter="url(#Union_71)">
          <path id="Union_71-2" data-name="Union 71" d="M25.664,106.908v.044L21.5,104.54h0L4.173,94.514v0L0,92.1v-2.46l1.551-.862v.675h0V87.506L1.5,87.475V80.951l.048.031V78.35h0v-.007l.025-.085c.23-.813,1.932-6.8,3.054-10.34l.227-.769a5.876,5.876,0,0,1,.255-.7,1.963,1.963,0,0,1,.114-.245,5.871,5.871,0,0,1,2.326-2.481l.092-.052h0l9.411-5.434q.318-.25.68-.5c2.2-1.526,8.022-4.611,9.494-5.384V39.627h0L95.9,0l24.032,13.876L120,13.84v.072h0V48.128l-3.308,1.908a5.114,5.114,0,0,1,.769,2.949c0,3.381-2.056,7.308-4.591,8.773a2.9,2.9,0,0,1-3.089.19l-3.072-1.728-.07-.029c-.316,3.152-2.231,6.541-4.545,7.877a2.9,2.9,0,0,1-3.084.193l-2.555-1.437v.126l-29.9,17.674v.008l-.007,0-.007,0v-.008l-.844-.487c-.458,3-2.29,6.106-4.48,7.371a2.91,2.91,0,0,1-3.074.2l-2.987-1.681v.689L43.939,97.188c-.64,2.723-2.331,5.382-4.317,6.529a2.91,2.91,0,0,1-3.074.2l-3.089-1.739a2.758,2.758,0,0,1-1.476-1.577l-1.725,1v1.452a2.488,2.488,0,0,1-1.237,1.918,1.707,1.707,0,0,1-.279.207l-3.078,1.776Zm.059-2.45,3.021-1.744h0l-3.022,1.745Zm-.083-12.2,0-.005,0,0-9.346-5.4ZM51.325,84.02V53.54L39.278,46.583l12.047,6.957V84.02Z" transform="translate(20 26.52)" fill="#f7f7f7" stroke="rgba(0,0,0,0)" stroke-miterlimit="10" stroke-width="1"/>
        </g>
        <g id="Group_30428" data-name="Group 30428" transform="translate(469 -765.476)">
          <path id="Path_8906" data-name="Path 8906" d="M91.921,0,23.246,39.626,47.341,53.54l68.674-39.627Z" transform="translate(3.984 0)" fill="#ededed"/>
          <path id="Path_8907" data-name="Path 8907" d="M26.524,40.116,92.742,1.952l-1.364-.7L25.16,39.412Z" transform="translate(4.312 0.214)" fill="#ccc"/>
          <path id="Path_8908" data-name="Path 8908" d="M44.123,50.224,110.341,12.06l-1.364-.7L42.76,49.52Z" transform="translate(7.329 1.947)" fill="#ccc"/>
          <path id="Path_8909" data-name="Path 8909" d="M52.5,65.34l5.052,2.917v5.176L52.5,70.516Z" transform="translate(8.999 11.199)" fill="#303030"/>
          <g id="Group_30429" data-name="Group 30429" transform="translate(0 0)">
            <g id="Group_30428-2" data-name="Group 30428" transform="translate(0 0)" clip-path="url(#clip-path-2)">
              <path id="Path_8910" data-name="Path 8910" d="M98.671,44.179c0,3.381-2.056,7.308-4.591,8.773s-4.592-.09-4.592-3.471,2.056-7.308,4.592-8.773,4.591.09,4.591,3.471" transform="translate(15.338 6.883)" fill="#303030"/>
              <path id="Path_8911" data-name="Path 8911" d="M94.3,55.076l-3.324-1.871,5.932-12.742,3.182,1.778Z" transform="translate(15.593 6.935)" fill="#303030"/>
              <path id="Path_8912" data-name="Path 8912" d="M101.617,45.82c0,3.381-2.056,7.308-4.591,8.773s-4.592-.09-4.592-3.471,2.056-7.308,4.592-8.773,4.591.09,4.591,3.471" transform="translate(15.843 7.164)" fill="#494949"/>
              <path id="Path_8913" data-name="Path 8913" d="M99.765,46.5a7.129,7.129,0,0,1-2.977,5.687c-1.643.949-2.977-.059-2.977-2.25a7.129,7.129,0,0,1,2.977-5.687c1.643-.949,2.977.059,2.977,2.25" transform="translate(16.079 7.523)" fill="#969696"/>
              <path id="Path_8914" data-name="Path 8914" d="M98.8,46.808a5.112,5.112,0,0,1-2.135,4.08c-1.18.682-2.135-.041-2.135-1.614a5.113,5.113,0,0,1,2.135-4.08c1.18-.682,2.135.042,2.135,1.614" transform="translate(16.203 7.702)" fill="#fff"/>
              <path id="Path_8915" data-name="Path 8915" d="M97.537,47.21a2.475,2.475,0,0,1-1.032,1.973c-.57.329-1.033-.02-1.033-.78a2.472,2.472,0,0,1,1.033-1.973c.569-.329,1.032.02,1.032.78" transform="translate(16.364 7.937)" fill="#383838"/>
              <path id="Path_8916" data-name="Path 8916" d="M96.58,45.7a.476.476,0,0,1-.2.378c-.109.063-.2,0-.2-.15a.476.476,0,0,1,.2-.378c.109-.063.2,0,.2.15" transform="translate(16.486 7.802)" fill="#383838"/>
              <path id="Path_8917" data-name="Path 8917" d="M97.723,45.7a.476.476,0,0,1-.2.378c-.109.063-.2,0-.2-.15a.476.476,0,0,1,.2-.378c.109-.063.2,0,.2.15" transform="translate(16.682 7.802)" fill="#383838"/>
              <path id="Path_8918" data-name="Path 8918" d="M95.53,46.96a.476.476,0,0,1-.2.378c-.109.063-.2,0-.2-.15a.476.476,0,0,1,.2-.378c.109-.063.2,0,.2.15" transform="translate(16.306 8.019)" fill="#383838"/>
              <path id="Path_8919" data-name="Path 8919" d="M97.723,48.068a.479.479,0,0,1-.2.38c-.109.063-.2,0-.2-.15a.476.476,0,0,1,.2-.378c.109-.064.2,0,.2.149" transform="translate(16.682 8.209)" fill="#383838"/>
              <path id="Path_8920" data-name="Path 8920" d="M95.53,49.333a.476.476,0,0,1-.2.378c-.109.063-.2,0-.2-.15a.476.476,0,0,1,.2-.378c.109-.063.2,0,.2.15" transform="translate(16.306 8.426)" fill="#383838"/>
              <path id="Path_8921" data-name="Path 8921" d="M98,46.789a.477.477,0,0,1-.2.38c-.109.063-.2,0-.2-.15a.476.476,0,0,1,.2-.378c.109-.063.2,0,.2.149" transform="translate(16.729 7.99)" fill="#383838"/>
              <path id="Path_8922" data-name="Path 8922" d="M95.192,48.405a.476.476,0,0,1-.2.378c-.109.063-.2,0-.2-.15a.476.476,0,0,1,.2-.378c.109-.063.2,0,.2.15" transform="translate(16.248 8.267)" fill="#383838"/>
              <path id="Path_8923" data-name="Path 8923" d="M96.58,49.333a.476.476,0,0,1-.2.378c-.109.063-.2,0-.2-.15a.476.476,0,0,1,.2-.378c.109-.063.2,0,.2.15" transform="translate(16.486 8.426)" fill="#383838"/>
              <path id="Path_8924" data-name="Path 8924" d="M89.472,49.566c0,3.381-2.056,7.308-4.591,8.773s-4.592-.09-4.592-3.471,2.056-7.308,4.592-8.773,4.591.09,4.591,3.471" transform="translate(13.761 7.806)" fill="#303030"/>
              <path id="Path_8925" data-name="Path 8925" d="M85.1,60.463l-3.324-1.871L87.707,45.85l3.182,1.778Z" transform="translate(14.016 7.858)" fill="#303030"/>
              <path id="Path_8926" data-name="Path 8926" d="M92.417,51.207c0,3.381-2.056,7.308-4.591,8.773s-4.592-.09-4.592-3.471,2.056-7.308,4.592-8.773,4.591.09,4.591,3.471" transform="translate(14.266 8.087)" fill="#494949"/>
              <path id="Path_8927" data-name="Path 8927" d="M90.566,51.889a7.129,7.129,0,0,1-2.977,5.687c-1.643.949-2.977-.059-2.977-2.25a7.129,7.129,0,0,1,2.977-5.687c1.643-.949,2.977.059,2.977,2.25" transform="translate(14.503 8.447)" fill="#969696"/>
              <path id="Path_8928" data-name="Path 8928" d="M89.6,52.195a5.113,5.113,0,0,1-2.135,4.08c-1.18.682-2.135-.041-2.135-1.614a5.113,5.113,0,0,1,2.135-4.08c1.18-.682,2.135.042,2.135,1.614" transform="translate(14.626 8.625)" fill="#fff"/>
              <path id="Path_8929" data-name="Path 8929" d="M88.337,52.6a2.475,2.475,0,0,1-1.032,1.973c-.57.329-1.033-.02-1.033-.78a2.472,2.472,0,0,1,1.033-1.973c.569-.329,1.032.02,1.032.78" transform="translate(14.787 8.86)" fill="#383838"/>
              <path id="Path_8930" data-name="Path 8930" d="M87.381,51.082a.476.476,0,0,1-.2.378c-.109.063-.2,0-.2-.15a.476.476,0,0,1,.2-.378c.109-.063.2,0,.2.15" transform="translate(14.909 8.725)" fill="#383838"/>
              <path id="Path_8931" data-name="Path 8931" d="M88.524,51.082a.476.476,0,0,1-.2.378c-.109.063-.2,0-.2-.15a.476.476,0,0,1,.2-.378c.109-.063.2,0,.2.15" transform="translate(15.105 8.725)" fill="#383838"/>
              <path id="Path_8932" data-name="Path 8932" d="M86.33,52.347a.476.476,0,0,1-.2.378c-.109.063-.2,0-.2-.15a.476.476,0,0,1,.2-.378c.109-.063.2,0,.2.15" transform="translate(14.729 8.942)" fill="#383838"/>
              <path id="Path_8933" data-name="Path 8933" d="M88.524,53.456a.476.476,0,0,1-.2.378c-.109.063-.2,0-.2-.15a.476.476,0,0,1,.2-.378c.109-.063.2,0,.2.15" transform="translate(15.105 9.132)" fill="#383838"/>
              <path id="Path_8934" data-name="Path 8934" d="M86.33,54.72a.476.476,0,0,1-.2.378c-.109.063-.2,0-.2-.15a.476.476,0,0,1,.2-.378c.109-.063.2,0,.2.15" transform="translate(14.729 9.349)" fill="#383838"/>
              <path id="Path_8935" data-name="Path 8935" d="M88.8,52.177a.477.477,0,0,1-.2.378c-.108.063-.2,0-.2-.15a.48.48,0,0,1,.2-.378c.109-.063.2,0,.2.15" transform="translate(15.152 8.913)" fill="#383838"/>
              <path id="Path_8936" data-name="Path 8936" d="M85.992,53.792a.476.476,0,0,1-.2.378c-.109.063-.2,0-.2-.15a.476.476,0,0,1,.2-.378c.109-.063.2,0,.2.15" transform="translate(14.671 9.19)" fill="#383838"/>
              <path id="Path_8937" data-name="Path 8937" d="M87.381,54.72a.476.476,0,0,1-.2.378c-.109.063-.2,0-.2-.15a.476.476,0,0,1,.2-.378c.109-.063.2,0,.2.15" transform="translate(14.909 9.349)" fill="#383838"/>
              <path id="Path_8938" data-name="Path 8938" d="M54.575,69.577c0,3.381-2.056,7.308-4.591,8.773s-4.592-.09-4.592-3.471,2.056-7.308,4.592-8.773,4.591.09,4.591,3.471" transform="translate(7.78 11.236)" fill="#303030"/>
              <path id="Path_8939" data-name="Path 8939" d="M50.2,80.474,46.877,78.6,52.81,65.861l3.182,1.778Z" transform="translate(8.035 11.288)" fill="#303030"/>
              <path id="Path_8940" data-name="Path 8940" d="M57.52,71.218c0,3.381-2.056,7.308-4.591,8.773s-4.592-.09-4.592-3.471,2.056-7.308,4.592-8.773,4.591.09,4.591,3.471" transform="translate(8.285 11.517)" fill="#494949"/>
              <path id="Path_8941" data-name="Path 8941" d="M55.669,71.9a7.129,7.129,0,0,1-2.977,5.687c-1.643.949-2.978-.059-2.978-2.25a7.13,7.13,0,0,1,2.978-5.687c1.643-.949,2.977.059,2.977,2.25" transform="translate(8.521 11.876)" fill="#969696"/>
              <path id="Path_8942" data-name="Path 8942" d="M54.7,72.207a5.113,5.113,0,0,1-2.135,4.08c-1.18.682-2.135-.041-2.135-1.614a5.113,5.113,0,0,1,2.135-4.08c1.18-.682,2.135.042,2.135,1.614" transform="translate(8.644 12.055)" fill="#fff"/>
              <path id="Path_8943" data-name="Path 8943" d="M53.44,72.608a2.472,2.472,0,0,1-1.033,1.973c-.569.329-1.032-.02-1.032-.78a2.475,2.475,0,0,1,1.032-1.973c.57-.329,1.033.02,1.033.78" transform="translate(8.806 12.29)" fill="#383838"/>
              <path id="Path_8944" data-name="Path 8944" d="M52.484,71.094a.476.476,0,0,1-.2.378c-.109.063-.2,0-.2-.15a.476.476,0,0,1,.2-.378c.109-.063.2,0,.2.15" transform="translate(8.928 12.155)" fill="#383838"/>
              <path id="Path_8945" data-name="Path 8945" d="M53.627,71.094a.476.476,0,0,1-.2.378c-.109.063-.2,0-.2-.15a.476.476,0,0,1,.2-.378c.109-.063.2,0,.2.15" transform="translate(9.124 12.155)" fill="#383838"/>
              <path id="Path_8946" data-name="Path 8946" d="M51.433,72.358a.476.476,0,0,1-.2.378c-.109.063-.2,0-.2-.15a.476.476,0,0,1,.2-.378c.109-.063.2,0,.2.15" transform="translate(8.748 12.372)" fill="#383838"/>
              <path id="Path_8947" data-name="Path 8947" d="M53.627,73.467a.475.475,0,0,1-.2.378c-.109.063-.2,0-.2-.15a.476.476,0,0,1,.2-.378c.109-.063.2,0,.2.15" transform="translate(9.124 12.562)" fill="#383838"/>
              <path id="Path_8948" data-name="Path 8948" d="M51.433,74.732a.476.476,0,0,1-.2.378c-.109.063-.2,0-.2-.15a.476.476,0,0,1,.2-.378c.109-.063.2,0,.2.15" transform="translate(8.748 12.779)" fill="#383838"/>
              <path id="Path_8949" data-name="Path 8949" d="M53.9,72.188a.476.476,0,0,1-.2.378c-.109.063-.2,0-.2-.15a.476.476,0,0,1,.2-.378c.109-.063.2,0,.2.15" transform="translate(9.17 12.343)" fill="#383838"/>
              <path id="Path_8950" data-name="Path 8950" d="M51.095,73.8a.476.476,0,0,1-.2.378c-.109.063-.2,0-.2-.15a.476.476,0,0,1,.2-.378c.109-.063.2,0,.2.15" transform="translate(8.69 12.62)" fill="#383838"/>
              <path id="Path_8951" data-name="Path 8951" d="M52.484,74.732a.476.476,0,0,1-.2.378c-.109.063-.2,0-.2-.15a.476.476,0,0,1,.2-.378c.109-.063.2,0,.2.15" transform="translate(8.928 12.779)" fill="#383838"/>
              <path id="Path_8952" data-name="Path 8952" d="M38.835,80.429,35.313,78.3l-2.371-1.9s1.887-.7,2.065-.808,4.741,1.518,3.828,4.836" transform="translate(5.646 12.956)" fill="#262626"/>
              <path id="Path_8953" data-name="Path 8953" d="M24.009,45.9V69.057l2.605-1.691L6.527,55.8Z" transform="translate(1.119 7.867)" fill="#ef4f77"/>
              <path id="Path_8954" data-name="Path 8954" d="M20.719,68.913,1.325,80.11V68.1L3.8,59.732Z" transform="translate(0.227 10.238)" fill="#ef4f77"/>
              <path id="Path_8955" data-name="Path 8955" d="M4.269,57.831a5.874,5.874,0,0,1,2.7-3.423l.093-.053L27.144,65.917l6.2,3.567-.771,6.977L20.358,69.834,3.435,60.655Z" transform="translate(0.589 9.316)" fill="#ededed"/>
              <path id="Path_8956" data-name="Path 8956" d="M5.522,55.784,30.241,69.735,25.413,82.695,1.324,68.788S3.79,60.06,4.884,56.894a8.7,8.7,0,0,1,.638-1.11" transform="translate(0.227 9.561)" fill="#ddd"/>
              <path id="Path_8957" data-name="Path 8957" d="M29.64,75.58l11.248-6.494,9.185,5.3L38.825,80.883Z" transform="translate(5.08 11.841)" fill="#6b6b6b"/>
              <path id="Path_8958" data-name="Path 8958" d="M48.752,73.612,37.348,80.2V84.68l11.4-6.58Z" transform="translate(6.401 12.617)" fill="#5b5b5b"/>
              <path id="Path_8959" data-name="Path 8959" d="M47.679,76.836,38.692,82V82.5l8.987-5.158Z" transform="translate(6.632 13.169)" fill="#8c8c8c"/>
              <path id="Path_8960" data-name="Path 8960" d="M47.679,75.889l-8.987,5.16v.508L47.679,76.4Z" transform="translate(6.632 13.007)" fill="#8c8c8c"/>
              <path id="Path_8961" data-name="Path 8961" d="M48.96,66.483,78.875,48.8l9.186,5.3L58.146,71.786Z" transform="translate(8.392 8.364)" fill="#6b6b6b"/>
              <path id="Path_8962" data-name="Path 8962" d="M86.717,53.323,56.8,71.01v4.483L86.717,57.811Z" transform="translate(9.736 9.139)" fill="#5b5b5b"/>
              <path id="Path_8963" data-name="Path 8963" d="M85.726,56.547,57.664,73v.508l28.062-16.45Z" transform="translate(9.884 9.692)" fill="#8c8c8c"/>
              <path id="Path_8964" data-name="Path 8964" d="M85.726,55.6,57.664,72.052v.508L85.726,56.11Z" transform="translate(9.884 9.529)" fill="#8c8c8c"/>
              <path id="Path_8965" data-name="Path 8965" d="M23.246,33.828V66.441l24.093,13.9v-32.6Z" transform="translate(3.984 5.798)" fill="#24b24c"/>
              <path id="Path_8966" data-name="Path 8966" d="M23.246,33.828V44.122l24.093,13.9V47.742Z" transform="translate(3.984 5.798)" fill="#ccc"/>
              <path id="Path_8967" data-name="Path 8967" d="M23.246,59.526v4.112l24.093,13.9v-4.1Z" transform="translate(3.984 10.202)" fill="#ccc"/>
              <path id="Path_8968" data-name="Path 8968" d="M112.489,11.877V44.49L43.814,84.106V51.5Z" transform="translate(7.51 2.036)" fill="#0b8d45"/>
              <path id="Path_8969" data-name="Path 8969" d="M112.489,11.815V22.183L43.814,61.8V51.441Z" transform="translate(7.51 2.025)" fill="#a5a5a5"/>
              <path id="Path_8970" data-name="Path 8970" d="M80.416,31.6,61.8,42.338,59,46,80.416,33.651Z" transform="translate(10.113 5.415)" fill="#077437"/>
              <path id="Path_8971" data-name="Path 8971" d="M79.758,28.507,65.642,36.8l-2.8,3.665L79.758,30.56Z" transform="translate(10.771 4.886)" fill="#077437"/>
              <path id="Path_8972" data-name="Path 8972" d="M112.489,37.575v4.112L43.814,81.3V77.2Z" transform="translate(7.51 6.44)" fill="#a5a5a5"/>
              <path id="Path_8973" data-name="Path 8973" d="M36.142,80c0,3.381-2.056,7.308-4.591,8.773s-4.592-.09-4.592-3.471,2.056-7.308,4.592-8.773,4.591.09,4.591,3.471" transform="translate(4.621 13.022)" fill="#303030"/>
              <path id="Path_8974" data-name="Path 8974" d="M31.769,90.9l-3.324-1.871,5.932-12.742,3.182,1.778Z" transform="translate(4.875 13.075)" fill="#303030"/>
              <path id="Path_8975" data-name="Path 8975" d="M39.087,81.64c0,3.381-2.056,7.308-4.591,8.773s-4.592-.09-4.592-3.471S31.96,79.634,34.5,78.17s4.591.09,4.591,3.471" transform="translate(5.126 13.304)" fill="#494949"/>
              <path id="Path_8976" data-name="Path 8976" d="M37.236,82.322a7.129,7.129,0,0,1-2.977,5.687c-1.643.949-2.977-.059-2.977-2.25a7.129,7.129,0,0,1,2.977-5.687c1.643-.949,2.977.059,2.977,2.25" transform="translate(5.362 13.663)" fill="#969696"/>
              <path id="Path_8977" data-name="Path 8977" d="M36.272,82.629a5.113,5.113,0,0,1-2.135,4.08C32.957,87.39,32,86.668,32,85.095a5.113,5.113,0,0,1,2.135-4.08c1.18-.682,2.135.041,2.135,1.614" transform="translate(5.485 13.842)" fill="#fff"/>
              <path id="Path_8978" data-name="Path 8978" d="M35.007,83.03A2.475,2.475,0,0,1,33.975,85c-.57.329-1.033-.02-1.033-.78a2.472,2.472,0,0,1,1.033-1.973c.569-.329,1.032.02,1.032.78" transform="translate(5.646 14.076)" fill="#383838"/>
              <path id="Path_8979" data-name="Path 8979" d="M34.051,81.516a.476.476,0,0,1-.2.378c-.109.063-.2,0-.2-.15a.476.476,0,0,1,.2-.378c.109-.063.2,0,.2.15" transform="translate(5.768 13.942)" fill="#383838"/>
              <path id="Path_8980" data-name="Path 8980" d="M35.194,81.516a.476.476,0,0,1-.2.378c-.109.063-.2,0-.2-.15a.476.476,0,0,1,.2-.378c.109-.063.2,0,.2.15" transform="translate(5.964 13.942)" fill="#383838"/>
              <path id="Path_8981" data-name="Path 8981" d="M33,82.78a.476.476,0,0,1-.2.378c-.109.063-.2,0-.2-.15a.476.476,0,0,1,.2-.378c.109-.063.2,0,.2.15" transform="translate(5.588 14.158)" fill="#383838"/>
              <path id="Path_8982" data-name="Path 8982" d="M35.194,83.889a.476.476,0,0,1-.2.378c-.109.063-.2,0-.2-.15a.476.476,0,0,1,.2-.378c.109-.063.2,0,.2.15" transform="translate(5.964 14.349)" fill="#383838"/>
              <path id="Path_8983" data-name="Path 8983" d="M33,85.153a.476.476,0,0,1-.2.378c-.109.063-.2,0-.2-.15A.476.476,0,0,1,32.8,85c.109-.063.2,0,.2.15" transform="translate(5.588 14.565)" fill="#383838"/>
              <path id="Path_8984" data-name="Path 8984" d="M35.467,82.61a.472.472,0,0,1-.2.378c-.109.063-.2,0-.2-.15a.476.476,0,0,1,.2-.378c.11-.063.2,0,.2.15" transform="translate(6.011 14.129)" fill="#383838"/>
              <path id="Path_8985" data-name="Path 8985" d="M32.662,84.225a.476.476,0,0,1-.2.378c-.109.063-.2,0-.2-.15a.476.476,0,0,1,.2-.378c.109-.063.2,0,.2.15" transform="translate(5.53 14.406)" fill="#383838"/>
              <path id="Path_8986" data-name="Path 8986" d="M34.051,85.153a.476.476,0,0,1-.2.378c-.109.063-.2,0-.2-.15a.476.476,0,0,1,.2-.378c.109-.063.2,0,.2.15" transform="translate(5.768 14.565)" fill="#383838"/>
              <path id="Path_8987" data-name="Path 8987" d="M45.263,57.717,27.89,67.748a5.868,5.868,0,0,0-2.7,3.422l-3.307,11.2V94.371L29.117,90.2c.594-4.1,3.095-8.371,6.091-10.1s5.5-.35,6.092,3.067l3.963-2.288Z" transform="translate(3.752 9.892)" fill="#a5a5a5"/>
              <path id="Path_8988" data-name="Path 8988" d="M31.323,80.924V63.844l.5-.291V80.924Z" transform="translate(5.369 10.893)" fill="#878787"/>
              <path id="Path_8989" data-name="Path 8989" d="M34.151,77.548c-2.716,1.568-4.983,5.436-5.522,9.156l-.569.329c.593-4.1,3.094-8.372,6.091-10.1s5.5-.35,6.091,3.068l-.569.329c-.539-3.1-2.806-4.348-5.522-2.78" transform="translate(4.809 13.058)" fill="#bbb"/>
              <path id="Path_8990" data-name="Path 8990" d="M1.324,66.884,25.413,80.792V92.8L1.324,78.892Z" transform="translate(0.227 11.464)" fill="#ccc"/>
              <path id="Path_8991" data-name="Path 8991" d="M100.633,41.975l1.566-.9V38.982l-1.566.9Z" transform="translate(17.248 6.681)" fill="#fff"/>
              <path id="Path_8992" data-name="Path 8992" d="M100.273,39.546l.422.244v2.087l-.422-.242Z" transform="translate(17.187 6.778)" fill="#bbb"/>
              <path id="Path_8993" data-name="Path 8993" d="M100.273,39.678l1.566-.9.422.244-1.566.9Z" transform="translate(17.187 6.646)" fill="#cecece"/>
              <path id="Path_8994" data-name="Path 8994" d="M56.823,67.373l1.566-.9V64.381l-1.566.9Z" transform="translate(9.74 11.035)" fill="#fff"/>
              <path id="Path_8995" data-name="Path 8995" d="M56.464,64.945l.422.244v2.087l-.422-.242Z" transform="translate(9.678 11.131)" fill="#bbb"/>
              <path id="Path_8996" data-name="Path 8996" d="M56.464,65.077l1.566-.9.422.242-1.566.9Z" transform="translate(9.678 11)" fill="#cecece"/>
              <path id="Path_8997" data-name="Path 8997" d="M1.324,66.884,25.413,80.792v.949L1.324,67.833Z" transform="translate(0.227 11.464)" fill="#fff"/>
              <path id="Path_8998" data-name="Path 8998" d="M45.264,67.238,21.888,80.731v.949L45.264,68.187Z" transform="translate(3.752 11.524)" fill="#ccc"/>
              <path id="Path_8999" data-name="Path 8999" d="M20.853,81.762v.681L4.72,73.129v-.681c0-.03,0-.055.006-.083l16.12,9.307c0,.029.007.061.007.09" transform="translate(0.809 12.403)" fill="#383838"/>
              <path id="Path_9000" data-name="Path 9000" d="M20.853,84.708a1.82,1.82,0,0,1-.016.2l-16.1-9.3a2.054,2.054,0,0,1-.016-.221v-.556l16.133,9.315Z" transform="translate(0.809 12.827)" fill="#383838"/>
              <path id="Path_9001" data-name="Path 9001" d="M5.868,71.7,19.656,79.66a2.574,2.574,0,0,1,1,1.347L4.865,71.889a.676.676,0,0,1,1-.19" transform="translate(0.834 12.265)" fill="#383838"/>
              <path id="Path_9002" data-name="Path 9002" d="M20.853,83.654,4.72,74.34v-.72l16.133,9.315Z" transform="translate(0.809 12.618)" fill="#383838"/>
              <path id="Path_9003" data-name="Path 9003" d="M19.647,85.359,5.859,77.4a2.484,2.484,0,0,1-.942-1.188l15.672,9.049a.684.684,0,0,1-.942.1" transform="translate(0.843 13.062)" fill="#383838"/>
              <path id="Path_9004" data-name="Path 9004" d="M20.683,80.959a2.8,2.8,0,0,1,.163.8L4.726,72.454a1.3,1.3,0,0,1,.162-.614Z" transform="translate(0.81 12.313)" fill="#969696"/>
              <path id="Path_9005" data-name="Path 9005" d="M20.853,83.038,4.72,73.723v-.706L20.853,82.33Z" transform="translate(0.809 12.515)" fill="#969696"/>
              <path id="Path_9006" data-name="Path 9006" d="M20.853,84.256,4.72,74.942v-.708l16.133,9.314Z" transform="translate(0.809 12.724)" fill="#969696"/>
              <path id="Path_9007" data-name="Path 9007" d="M20.621,85.381,4.947,76.332a2.9,2.9,0,0,1-.213-.831l16.1,9.3a1.124,1.124,0,0,1-.214.583" transform="translate(0.811 12.941)" fill="#969696"/>
              <path id="Path_9008" data-name="Path 9008" d="M1.283,69.106,3.36,70.424A2.867,2.867,0,0,1,4.532,72.69v3.37c0,.86-.527,1.258-1.173.887L1.283,75.63Z" transform="translate(0.22 11.844)" fill="#ffba76"/>
              <path id="Path_9009" data-name="Path 9009" d="M20.3,80.021l2.066,1.194v6.5L20.3,86.517a2.816,2.816,0,0,1-1.171-2.239v-3.37c0-.86.527-1.259,1.171-.887" transform="translate(3.278 13.691)" fill="#ffba76"/>
              <path id="Path_9010" data-name="Path 9010" d="M19.561,81.37a2.649,2.649,0,0,0,1.107,2.114c.61.353,1.106-.022,1.106-.836a2.651,2.651,0,0,0-1.106-2.114c-.611-.353-1.107.021-1.107.836" transform="translate(3.353 13.78)" fill="#fff"/>
              <path id="Path_9011" data-name="Path 9011" d="M19.981,84.232a2.061,2.061,0,0,0,.861,1.645c.476.274.86-.018.86-.651a2.057,2.057,0,0,0-.86-1.643c-.476-.275-.861.016-.861.65" transform="translate(3.425 14.308)" fill="#fff"/>
              <path id="Path_9012" data-name="Path 9012" d="M1.667,70.979a2.649,2.649,0,0,0,1.107,2.114c.61.353,1.106-.022,1.106-.836a2.651,2.651,0,0,0-1.106-2.114c-.611-.353-1.107.021-1.107.836" transform="translate(0.286 11.999)" fill="#fff"/>
              <path id="Path_9013" data-name="Path 9013" d="M2.087,73.84a2.062,2.062,0,0,0,.861,1.645c.474.274.86-.018.86-.651a2.061,2.061,0,0,0-.86-1.643c-.476-.275-.861.016-.861.65" transform="translate(0.358 12.527)" fill="#fff"/>
              <path id="Path_9014" data-name="Path 9014" d="M5.763,57.816,3.079,66.291,2.756,66.1l2.451-8.044a.92.92,0,0,1,.922-.651.657.657,0,0,0-.365.408" transform="translate(0.472 9.839)" fill="#8a9ad0"/>
              <path id="Path_9015" data-name="Path 9015" d="M22.949,78.8,3.8,67.779a2.359,2.359,0,0,1-1.08-2.733l.066-.214L25.015,77.68l-.1.332a1.35,1.35,0,0,1-1.968.786" transform="translate(0.448 11.112)" fill="#383838"/>
              <path id="Path_9016" data-name="Path 9016" d="M11.99,62.043c1.762,1.064,10,5.7,14.952,8.48,0,.013,0,.026-.008.039l-2.309,7.763L4.889,66.921c.293-.91.593-1.839.874-2.713,1.2-3.719,3.67-3.707,6.227-2.165" transform="translate(0.838 10.467)" fill="#8a9ad0"/>
              <path id="Path_9017" data-name="Path 9017" d="M5.716,57.816a.657.657,0,0,1,.365-.408.908.908,0,0,1,.412.117l19.723,11.1A2.21,2.21,0,0,1,27.26,71.15c-4.952-2.78-13.189-7.416-14.952-8.48-2.556-1.543-5.026-1.554-6.227,2.165-.281.874-.581,1.8-.874,2.713L3.032,66.291Z" transform="translate(0.52 9.839)" fill="#97a9dd"/>
              <path id="Path_9018" data-name="Path 9018" d="M26.061,85.983v2.329a2.5,2.5,0,0,1-1.243,1.921l-.33-2.735Z" transform="translate(4.197 14.737)" fill="#a5a5a5"/>
              <path id="Path_9019" data-name="Path 9019" d="M22.577,89.527l-.06,2.494L18.35,89.609l.035-2.5Z" transform="translate(3.145 14.931)" fill="#ccc"/>
              <path id="Path_9020" data-name="Path 9020" d="M0,76.523l4.173,2.4V81.4L0,78.983Z" transform="translate(0 13.116)" fill="#ccc"/>
              <path id="Path_9021" data-name="Path 9021" d="M20.92,88.575l-.035,2.5L3.562,81.046v-2.47Z" transform="translate(0.611 13.468)" fill="#383838"/>
              <path id="Path_9022" data-name="Path 9022" d="M6.053,80.449l10.962,6.315-.035,1.484L6.053,81.925Z" transform="translate(1.037 13.789)" fill="#fff"/>
              <path id="Path_9023" data-name="Path 9023" d="M21.908,89.532v2.46l3.078-1.777a1.691,1.691,0,0,0,.829-1.168V87.276Z" transform="translate(3.755 14.959)" fill="#a5a5a5"/>
              <path id="Path_9024" data-name="Path 9024" d="M30.258,87.731l-4.6,2.659L1.55,76.462v-.675L0,76.649,25.662,91.5l3.173-1.832a2.864,2.864,0,0,0,1.242-1.126Z" transform="translate(0 12.99)" fill="#ededed"/>
              <path id="Path_9025" data-name="Path 9025" d="M16.235,87.04a1.547,1.547,0,0,0,.645,1.233c.356.206.645-.013.645-.488a1.547,1.547,0,0,0-.645-1.233c-.356-.205-.645.013-.645.488" transform="translate(2.783 14.821)" fill="#fff"/>
              <path id="Path_9026" data-name="Path 9026" d="M4.169,80.074a1.547,1.547,0,0,0,.645,1.233c.356.206.645-.013.645-.488a1.549,1.549,0,0,0-.645-1.233c-.356-.2-.645.013-.645.488" transform="translate(0.715 13.627)" fill="#fff"/>
              <path id="Path_9027" data-name="Path 9027" d="M30.621,69.728,47.9,59.752,23.8,45.839,6.527,55.814Z" transform="translate(1.119 7.856)" fill="#d1d1d1"/>
              <path id="Path_9028" data-name="Path 9028" d="M28.109,64.02l13.567-7.144V53.864s-4.481,2.18-8.383,3.966-5.185,6.19-5.185,6.19" transform="translate(4.818 9.232)" fill="#a5a5a5"/>
              <path id="Path_9029" data-name="Path 9029" d="M30.877,65.619a9.5,9.5,0,0,1,3.647-4.53,109.957,109.957,0,0,1,9.921-5.626L25.523,44.537S18.21,48.348,15.688,50.1c-3.337,2.318-3.731,4.593-3.731,4.593Z" transform="translate(2.049 7.633)" fill="#ededed"/>
              <path id="Path_9030" data-name="Path 9030" d="M27.071,68.147l3.119-1.8a.514.514,0,0,1,.8.226.73.73,0,0,0-.3.1l-3.119,1.8a2.127,2.127,0,0,0-.884,1.689V75.7a1.1,1.1,0,0,0,.084.443c-.341.032-.587-.258-.587-.766V69.836a2.127,2.127,0,0,1,.884-1.689" transform="translate(4.488 11.353)" fill="#7c76ac"/>
              <path id="Path_9031" data-name="Path 9031" d="M26.617,70.111a2.127,2.127,0,0,1,.884-1.689l3.119-1.8a.73.73,0,0,1,.3-.1,1.114,1.114,0,0,1,.083.443V72.5a2.127,2.127,0,0,1-.884,1.689L27,75.991a.734.734,0,0,1-.3.1,1.118,1.118,0,0,1-.083-.443Z" transform="translate(4.562 11.402)" fill="#8a9ad0"/>
              <path id="Path_9032" data-name="Path 9032" d="M26.291,85.294l1.566-.9V82.3l-1.566.9Z" transform="translate(4.506 14.106)" fill="#fff"/>
              <path id="Path_9033" data-name="Path 9033" d="M25.931,82.866l.422.244V85.2l-.422-.242Z" transform="translate(4.445 14.203)" fill="#bbb"/>
              <path id="Path_9034" data-name="Path 9034" d="M25.931,83l1.566-.9.422.244-1.566.9Z" transform="translate(4.445 14.071)" fill="#cecece"/>
              <path id="Path_9035" data-name="Path 9035" d="M39.2,77.6l1.566-.9V74.612l-1.566.9Z" transform="translate(6.719 12.788)" fill="#fff"/>
              <path id="Path_9036" data-name="Path 9036" d="M38.843,75.176l.422.244v2.087l-.422-.242Z" transform="translate(6.658 12.885)" fill="#bbb"/>
              <path id="Path_9037" data-name="Path 9037" d="M38.843,75.307l1.566-.9.422.242-1.566.9Z" transform="translate(6.658 12.753)" fill="#cecece"/>
              <path id="Path_9038" data-name="Path 9038" d="M78.05,28.217l1.2-.693c1.3-.753,2.139-.373,2.139,1.576a4.449,4.449,0,0,1-2.08,4.065l-1.258.726ZM79.2,32.192A2.626,2.626,0,0,0,80.4,29.669c0-1.358-.488-1.492-1.205-1.078l-.183.1v3.6Z" transform="translate(13.378 4.655)" fill="#077437"/>
              <path id="Path_9039" data-name="Path 9039" d="M81.58,26.25l2.668-1.54v1.079l-1.7.984v1.14l1.448-.836v1.071l-1.448.835v1.306l1.768-1.02v1.079L81.58,31.923Z" transform="translate(13.983 4.235)" fill="#077437"/>
              <path id="Path_9040" data-name="Path 9040" d="M84.62,24.351l.965-.556v4.594l1.676-.969V28.5L84.62,30.024Z" transform="translate(14.504 4.078)" fill="#077437"/>
              <path id="Path_9041" data-name="Path 9041" d="M87.493,22.692l.965-.558v5.673l-.965.558Z" transform="translate(14.996 3.794)" fill="#077437"/>
              <path id="Path_9042" data-name="Path 9042" d="M88.7,22.231l1.017-.588.517,2.349c.123.546.209,1.072.339,1.624l.025-.015c.131-.7.217-1.326.34-2.015l.5-2.937.984-.568L91.135,26.5l-1.155.667Z" transform="translate(15.202 3.441)" fill="#077437"/>
              <path id="Path_9043" data-name="Path 9043" d="M92.254,20.087l2.668-1.54v1.079l-1.7.984v1.14l1.447-.836v1.071l-1.447.835v1.306l1.768-1.02v1.079L92.254,25.76Z" transform="translate(15.812 3.179)" fill="#077437"/>
              <path id="Path_9044" data-name="Path 9044" d="M97.6,22.629l-.815-1.574-.521.3V23.4l-.965.558V18.284l1.533-.886c.9-.519,1.643-.531,1.643.818a3.17,3.17,0,0,1-.757,2.073l.958,1.718Zm-1.337-2.291.49-.283a1.437,1.437,0,0,0,.775-1.291c0-.558-.274-.59-.775-.3l-.49.283Z" transform="translate(16.333 2.926)" fill="#077437"/>
              <path id="Path_9045" data-name="Path 9045" d="M99.429,19.671,98.15,16.755l1.025-.59.384,1.082c.111.363.223.69.346,1.054l.026-.016c.118-.5.241-.965.358-1.46l.378-1.524,1.005-.58-1.285,4.4v2.019l-.958.553Z" transform="translate(16.823 2.523)" fill="#077437"/>
            </g>
          </g>
        </g>
      </g>
    </g>
  </g>
</svg>
