<svg xmlns="http://www.w3.org/2000/svg" xmlns:xlink="http://www.w3.org/1999/xlink" width="160" height="160" viewBox="0 0 160 160">
  <defs>
    <filter id="Path_9435" x="18.94" y="1.235" width="126.893" height="187.999" filterUnits="userSpaceOnUse">
      <feOffset dy="16" input="SourceAlpha"/>
      <feGaussianBlur stdDeviation="12" result="blur"/>
      <feFlood flood-opacity="0.161"/>
      <feComposite operator="in" in2="blur"/>
      <feComposite in="SourceGraphic"/>
    </filter>
    <filter id="Path_9436" x="17.265" y="0" width="127.759" height="191.412" filterUnits="userSpaceOnUse">
      <feOffset dy="16" input="SourceAlpha"/>
      <feGaussianBlur stdDeviation="12" result="blur-2"/>
      <feFlood flood-opacity="0.161"/>
      <feComposite operator="in" in2="blur-2"/>
      <feComposite in="SourceGraphic"/>
    </filter>
    <filter id="Rectangle_2018" x="46.608" y="16.472" width="72.792" height="73" filterUnits="userSpaceOnUse">
      <feOffset dy="16" input="SourceAlpha"/>
      <feGaussianBlur stdDeviation="12" result="blur-3"/>
      <feFlood flood-opacity="0.161"/>
      <feComposite operator="in" in2="blur-3"/>
      <feComposite in="SourceGraphic"/>
    </filter>
    <filter id="Rectangle_2019" x="46.795" y="16.717" width="72.431" height="72.544" filterUnits="userSpaceOnUse">
      <feOffset dy="16" input="SourceAlpha"/>
      <feGaussianBlur stdDeviation="12" result="blur-4"/>
      <feFlood flood-opacity="0.161"/>
      <feComposite operator="in" in2="blur-4"/>
      <feComposite in="SourceGraphic"/>
    </filter>
    <filter id="Rectangle_2020" x="46.931" y="16.889" width="72.159" height="72.201" filterUnits="userSpaceOnUse">
      <feOffset dy="16" input="SourceAlpha"/>
      <feGaussianBlur stdDeviation="12" result="blur-5"/>
      <feFlood flood-opacity="0.161"/>
      <feComposite operator="in" in2="blur-5"/>
      <feComposite in="SourceGraphic"/>
    </filter>
    <filter id="Rectangle_2021" x="26.678" y="10.21" width="125.736" height="181.79" filterUnits="userSpaceOnUse">
      <feOffset dy="16" input="SourceAlpha"/>
      <feGaussianBlur stdDeviation="12" result="blur-6"/>
      <feFlood flood-opacity="0.161"/>
      <feComposite operator="in" in2="blur-6"/>
      <feComposite in="SourceGraphic"/>
    </filter>
    <filter id="Rectangle_2022" x="7.586" y="6.029" width="105.199" height="134.848" filterUnits="userSpaceOnUse">
      <feOffset dy="16" input="SourceAlpha"/>
      <feGaussianBlur stdDeviation="12" result="blur-7"/>
      <feFlood flood-opacity="0.161"/>
      <feComposite operator="in" in2="blur-7"/>
      <feComposite in="SourceGraphic"/>
    </filter>
    <filter id="Rectangle_2023" x="10.492" y="16.746" width="99.339" height="91.422" filterUnits="userSpaceOnUse">
      <feOffset dy="16" input="SourceAlpha"/>
      <feGaussianBlur stdDeviation="12" result="blur-8"/>
      <feFlood flood-opacity="0.161"/>
      <feComposite operator="in" in2="blur-8"/>
      <feComposite in="SourceGraphic"/>
    </filter>
    <clipPath id="clip-path">
      <rect id="Rectangle_2247" data-name="Rectangle 2247" width="160" height="160" rx="16" transform="translate(449 -792)" fill="#f7f7f7"/>
    </clipPath>
    <filter id="Union_76" x="7.587" y="0" width="144.827" height="191.999" filterUnits="userSpaceOnUse">
      <feOffset dy="16" input="SourceAlpha"/>
      <feGaussianBlur stdDeviation="12" result="blur-9"/>
      <feFlood flood-opacity="0.161"/>
      <feComposite operator="in" in2="blur-9"/>
      <feComposite in="SourceGraphic"/>
    </filter>
    <clipPath id="clip-path-2">
      <path id="Path_9435-2" data-name="Path 9435" d="M97.251,1.485,45.75,31.219,45.9,114.88c0,.785.682,2.236,2.086,1.843L98.172,87.778a12.389,12.389,0,0,0,2.47-4.07l-.03-81.241A1.591,1.591,0,0,0,98.984.791a2.838,2.838,0,0,0-1.732.694" transform="translate(-45.75 -0.791)" fill="none"/>
    </clipPath>
    <linearGradient id="linear-gradient" x1="0.5" x2="0.5" y2="1" gradientUnits="objectBoundingBox">
      <stop offset="0" stop-color="#24b24c"/>
      <stop offset="1" stop-color="#6cee91"/>
    </linearGradient>
    <clipPath id="clip-path-3">
      <path id="Path_9436-2" data-name="Path 9436" d="M98.061,0a3.136,3.136,0,0,0-1.5.471L48.088,28.523a7.525,7.525,0,0,0-3.409,5.916l.089,81.942a2.4,2.4,0,0,0,1,2.2l1.438.836a2.4,2.4,0,0,1-1-2.2l-.089-81.942a7.53,7.53,0,0,1,3.409-5.916L98,1.307a2.418,2.418,0,0,1,2.438-.241L99,.229A1.783,1.783,0,0,0,98.139,0Z" transform="translate(-44.679 -0.001)" fill="none"/>
    </clipPath>
    <linearGradient id="linear-gradient-2" x1="-0.244" y1="1.095" x2="-0.232" y2="1.095" gradientUnits="objectBoundingBox">
      <stop offset="0" stop-color="#f6f4f7"/>
      <stop offset="1" stop-color="#c0b9c8"/>
    </linearGradient>
    <clipPath id="clip-path-4">
      <rect id="Rectangle_2018-2" data-name="Rectangle 2018" width="0.792" height="1" fill="none"/>
    </clipPath>
    <clipPath id="clip-path-5">
      <rect id="Rectangle_2019-2" data-name="Rectangle 2019" width="0.431" height="0.543" fill="none"/>
    </clipPath>
    <clipPath id="clip-path-6">
      <rect id="Rectangle_2020-2" data-name="Rectangle 2020" width="0.159" height="0.201" fill="none"/>
    </clipPath>
    <clipPath id="clip-path-7">
      <rect id="Rectangle_2021-2" data-name="Rectangle 2021" width="53.736" height="109.79" fill="none"/>
    </clipPath>
    <clipPath id="clip-path-8">
      <rect id="Rectangle_2022-2" data-name="Rectangle 2022" width="33.199" height="62.848" fill="none"/>
    </clipPath>
    <clipPath id="clip-path-9">
      <rect id="Rectangle_2023-2" data-name="Rectangle 2023" width="27.339" height="19.422" fill="none"/>
    </clipPath>
  </defs>
  <g id="userM" transform="translate(-449 792)">
    <g id="Mask_Group_20" data-name="Mask Group 20" clip-path="url(#clip-path)">
      <g id="Group_31578" data-name="Group 31578">
        <rect id="Rectangle_1963" data-name="Rectangle 1963" width="160" height="160" rx="16" transform="translate(449 -792)" fill="#f7f7f7"/>
        <g transform="matrix(1, 0, 0, 1, 449, -792)" filter="url(#Union_76)">
          <path id="Union_76-2" data-name="Union 76" d="M-1535.006,888.6l-4.445,2.572c-1.891,1.094-3.431.22-3.439-1.955l-.059-54.774h0l.06,54.774a2.406,2.406,0,0,0,1,2.2l-1.438-.837a2.4,2.4,0,0,1-1-2.2l-.058-53.109-9.71,5.606v-49.11l33.2-19.167v5.723h0v10.562l28.365-16.413a3.138,3.138,0,0,1,1.5-.471h.077a1.784,1.784,0,0,1,.86.229l1.384.8a2.362,2.362,0,0,1,1.057,2.227l.005,5.206,6.382-3.685v84.194L-1535.006,892Zm14.107-98.044,29.8-17.247a3.881,3.881,0,0,1,.738-.336,3.883,3.883,0,0,0-.74.336l-29.8,17.246Z" transform="translate(1597.68 -752)" fill="#f7f7f7"/>
        </g>
        <g id="Group_30628" data-name="Group 30628" transform="translate(454.098 -772.001)">
          <g id="Group_30622" data-name="Group 30622" transform="translate(49.842 1.236)">
            <g id="Group_30596" data-name="Group 30596" clip-path="url(#clip-path-2)">
              <rect id="Rectangle_2016" data-name="Rectangle 2016" width="128.612" height="98.052" transform="translate(-43.77 96.465) rotate(-65.595)" fill="url(#linear-gradient)"/>
            </g>
          </g>
          <g id="Group_30623" data-name="Group 30623" transform="translate(48.167 0.001)">
            <g id="Group_30598" data-name="Group 30598" clip-path="url(#clip-path-3)">
              <rect id="Rectangle_2017" data-name="Rectangle 2017" width="131.297" height="108.001" transform="translate(-51.715 89.558) rotate(-60)" fill="url(#linear-gradient-2)"/>
            </g>
          </g>
          <g id="Group_30624" data-name="Group 30624" transform="translate(38.489 0.601)">
            <path id="Path_9437" data-name="Path 9437" d="M97.483,1.006,49.009,29.057A7.517,7.517,0,0,0,45.6,34.974l.089,81.942c.008,2.173,1.548,3.049,3.438,1.954L97.6,90.818A7.521,7.521,0,0,0,101.01,84.9L100.921,2.96c-.008-2.173-1.548-3.049-3.438-1.954M49.6,29.555,98.063,1.508a1.471,1.471,0,0,1,2.208,1.273l.075,80.294a2.216,2.216,0,0,1-1.105,1.92L47.78,114.772a.924.924,0,0,1-1.388-.8l-.075-78.725a6.574,6.574,0,0,1,3.28-5.693" transform="translate(-34.481 -0.3)" fill="#353131"/>
            <path id="Path_9438" data-name="Path 9438" d="M45.572,30.772l.006,6.234c0,.3-.206.414-.464.266l-.128-.073a1.019,1.019,0,0,1-.463-.8l-.006-6.235c0-.292.21-.411.466-.264l.127.073a1.018,1.018,0,0,1,.463.8" transform="translate(-35.091 16.212)" fill="#c5bfcd"/>
            <path id="Path_9439" data-name="Path 9439" d="M45.6,30.018a1.15,1.15,0,0,1,.18.281.9.9,0,0,1,.08.349l.006,6.234a.326.326,0,0,1-.134.3l-.335.2a.326.326,0,0,0,.134-.3l-.006-6.235a.87.87,0,0,0-.081-.347,1.1,1.1,0,0,0-.178-.281.8.8,0,0,0-.2-.17l-.127-.073a.33.33,0,0,0-.33-.031l.335-.2a.33.33,0,0,1,.33.031l.127.073a.831.831,0,0,1,.2.17" transform="translate(-35.042 16.142)" fill="#f6f4f7"/>
            <path id="Path_9440" data-name="Path 9440" d="M45.6,26.018a1.15,1.15,0,0,1,.18.281.894.894,0,0,1,.08.347l0,2.957a.326.326,0,0,1-.134.3L45.4,30.1a.324.324,0,0,0,.134-.3l0-2.955a.87.87,0,0,0-.081-.347,1.074,1.074,0,0,0-.178-.281.8.8,0,0,0-.2-.17l-.127-.073a.326.326,0,0,0-.33-.031l.335-.2a.33.33,0,0,1,.33.031l.127.073a.83.83,0,0,1,.2.17" transform="translate(-35.039 13.888)" fill="#f6f4f7"/>
            <path id="Path_9441" data-name="Path 9441" d="M45.578,26.772l0,2.955c0,.3-.208.414-.464.266l-.128-.073a1.019,1.019,0,0,1-.463-.8l0-2.957c0-.292.21-.411.466-.264l.127.073a1.015,1.015,0,0,1,.463.8" transform="translate(-35.088 13.958)" fill="#c5bfcd"/>
            <path id="Path_9442" data-name="Path 9442" d="M75.8,9.8,58.217,19.954,57.08,18.017,76.937,6.553Z" transform="translate(-28.012 3.092)" fill="#353131"/>
            <path id="Path_9443" data-name="Path 9443" d="M68.373,63.857l0,1.054a1.908,1.908,0,0,1-.924,1.474l-3.262,1.887a1.031,1.031,0,0,1-.505.153.593.593,0,0,1-.593-.655V66.715a1.9,1.9,0,0,1,.924-1.473l3.26-1.887a1.056,1.056,0,0,1,.505-.155.594.594,0,0,1,.593.657" transform="translate(-24.624 35.014)" fill="#262424"/>
            <path id="Path_9444" data-name="Path 9444" d="M68.123,63.688l0,1.063a1.924,1.924,0,0,1-.932,1.485l-3.285,1.9a1.055,1.055,0,0,1-.51.155.567.567,0,0,1-.166-.033.7.7,0,0,1-.161-.472l0-1.063A1.918,1.918,0,0,1,64,65.239l3.285-1.9a1.033,1.033,0,0,1,.508-.155.635.635,0,0,1,.167.031.7.7,0,0,1,.161.474" transform="translate(-24.636 35.004)" fill="#353131"/>
            <path id="Path_9445" data-name="Path 9445" d="M63.884,10.5a1.162,1.162,0,0,0-.527.915c0,.335.238.471.53.3a1.165,1.165,0,0,0,.528-.913c0-.336-.239-.472-.532-.3" transform="translate(-24.474 5.272)" fill="#191414"/>
            <g id="Group_30622-2" data-name="Group 30622" transform="translate(39.021 15.872)" opacity="0.1">
              <g id="Group_30601" data-name="Group 30601">
                <g id="Group_30600" data-name="Group 30600" clip-path="url(#clip-path-4)">
                  <path id="Path_9446" data-name="Path 9446" d="M63.446,11.25a.861.861,0,0,1,.408-.666c.217-.117.391-.011.385.239a.862.862,0,0,1-.408.665c-.219.119-.391.013-.385-.238" transform="translate(-63.446 -10.536)" fill="#c6c6c6"/>
                </g>
              </g>
            </g>
            <g id="Group_30623-2" data-name="Group 30623" transform="translate(39.209 16.118)" opacity="0.1">
              <g id="Group_30604" data-name="Group 30604">
                <g id="Group_30603" data-name="Group 30603" clip-path="url(#clip-path-5)">
                  <path id="Path_9447" data-name="Path 9447" d="M63.566,11.081a.465.465,0,0,1,.222-.361c.119-.064.211-.006.208.128a.466.466,0,0,1-.22.363c-.119.064-.213.006-.21-.13" transform="translate(-63.566 -10.693)" fill="#c6c6c6"/>
                </g>
              </g>
            </g>
            <g id="Group_30624-2" data-name="Group 30624" transform="translate(39.345 16.289)" opacity="0.2" style="mix-blend-mode: screen;isolation: isolate">
              <g id="Group_30607" data-name="Group 30607">
                <g id="Group_30606" data-name="Group 30606" clip-path="url(#clip-path-6)">
                  <path id="Path_9448" data-name="Path 9448" d="M63.653,10.946a.169.169,0,0,1,.081-.134c.044-.023.078,0,.077.048a.172.172,0,0,1-.083.134c-.042.023-.078,0-.075-.048" transform="translate(-63.652 -10.803)" fill="#c6c6c6"/>
                </g>
              </g>
            </g>
            <path id="Path_9446-2" data-name="Path 9446" d="M69.9,8.5l-3.382,1.951c-.21.122-.378.05-.378-.159a.783.783,0,0,1,.378-.6L69.9,7.747c.21-.12.378-.048.378.161a.783.783,0,0,1-.378.6" transform="translate(-22.908 3.731)" fill="#191414"/>
            <path id="Path_9447-2" data-name="Path 9447" d="M62.085,13.014,58.7,14.967c-.21.12-.378.048-.378-.161a.783.783,0,0,1,.378-.6l3.382-1.953c.21-.12.378-.048.378.161a.783.783,0,0,1-.378.6" transform="translate(-27.31 6.273)" fill="#191414"/>
            <g id="Group_30625" data-name="Group 30625" transform="translate(19.092 9.61)" opacity="0.7">
              <g id="Group_30610" data-name="Group 30610">
                <g id="Group_30609" data-name="Group 30609" clip-path="url(#clip-path-7)">
                  <path id="Path_9451" data-name="Path 9451" d="M104.435,85.3,50.7,116.321V37.556L104.435,6.531Z" transform="translate(-50.699 -6.531)" fill="#24b24c"/>
                </g>
              </g>
            </g>
            <path id="Path_9448-2" data-name="Path 9448" d="M104.435,8.781,50.7,39.805V34.083L104.435,3.059Z" transform="translate(-31.607 1.122)" fill="#077437"/>
            <path id="Path_9449" data-name="Path 9449" d="M80.538,40.56,62.811,50.8v-20.1L80.538,20.46Z" transform="translate(-24.782 10.928)" fill="#24b24c"/>
            <path id="Path_9450" data-name="Path 9450" d="M67.029,33.117a22.57,22.57,0,0,1,5.283-3.057,6.759,6.759,0,0,1,.239,2.389s-2.569,2.622-2.62,2.652-2.02.072-2.081.088a6.35,6.35,0,0,1-.582-.929c-.009-.025-.977.084-.977.084Z" transform="translate(-22.821 16.338)" fill="#ffca8c"/>
            <path id="Path_9451-2" data-name="Path 9451" d="M67.121,31.272v2.492c.683,1.562,3.984-.505,3.984-2.3V28.207Z" transform="translate(-22.353 15.294)" fill="#fcb67c"/>
            <path id="Path_9452" data-name="Path 9452" d="M72.649,27.884c0,2.123-1.413,5.943-3.157,6.95s-3.157-1.182-3.157-3.305a7.176,7.176,0,0,1,3.157-5.668c1.743-1.005,3.157-.1,3.157,2.023" transform="translate(-22.796 13.741)" fill="#ffca8c"/>
            <path id="Path_9453" data-name="Path 9453" d="M76.611,29.587l-2.669.768c-.174,2.7-4.126,5.385-5.3,3.058l-2.519,2.194a5.215,5.215,0,0,0-1.374,1.886A19.434,19.434,0,0,0,63.4,45.165L65.426,44l11.736-6.775,2.044-1.18c0-3.748-.721-5.377-1.306-6.082a1.225,1.225,0,0,0-1.288-.374" transform="translate(-24.451 16.043)" fill="#0b8d45"/>
            <path id="Path_9454" data-name="Path 9454" d="M70.356,25.311c1.646-.741,2.255.247,2.358.876a9.213,9.213,0,0,1-.4,4.206,7.6,7.6,0,0,0-.039-2.647.39.39,0,0,0-.477-.177,16.631,16.631,0,0,0-3.088,1.207,3.042,3.042,0,0,0-1.9,1.975,6.714,6.714,0,0,0,0,3.068s-1-1.188-.228-4.515A3.581,3.581,0,0,1,67,28.287a3.137,3.137,0,0,1,.339-.467,5.037,5.037,0,0,0,.413-.382,4.991,4.991,0,0,1,2.6-2.126" transform="translate(-22.821 13.513)" fill="#282525"/>
            <path id="Path_9455" data-name="Path 9455" d="M62.663,51.337V30.706l.116-.066L80.852,20.205V40.836l-.116.067Zm.461-20.365V50.541L80.39,40.572V21Z" transform="translate(-24.866 10.785)" fill="#788eff"/>
            <path id="Path_9456" data-name="Path 9456" d="M85.881,40.533,61.9,54.378c-1.235.713-2.236.289-2.236-.946A4.639,4.639,0,0,1,61.9,49.9L85.881,36.06c1.235-.713,2.236-.289,2.236.946a4.637,4.637,0,0,1-2.236,3.527" transform="translate(-26.555 19.524)" fill="#fff"/>
            <path id="Path_9457" data-name="Path 9457" d="M85.881,45.523,61.9,59.368c-1.235.713-2.236.289-2.236-.946A4.637,4.637,0,0,1,61.9,54.895L85.881,41.05c1.235-.713,2.236-.289,2.236.946a4.637,4.637,0,0,1-2.236,3.527" transform="translate(-26.555 22.336)" fill="#fff"/>
            <path id="Path_9458" data-name="Path 9458" d="M68.64,56.939l-6.8,3.928c-1.235.713-2.236.291-2.236-.944a4.637,4.637,0,0,1,2.236-3.527l6.8-3.928c1.235-.715,2.236-.291,2.236.944a4.637,4.637,0,0,1-2.236,3.527" transform="translate(-26.592 28.77)" fill="#0b8d45"/>
            <g id="Group_30626" data-name="Group 30626" transform="translate(0 5.429)" opacity="0.6">
              <g id="Group_30613" data-name="Group 30613">
                <g id="Group_30612" data-name="Group 30612" clip-path="url(#clip-path-8)">
                  <path id="Path_9463" data-name="Path 9463" d="M71.687,47.538l-33.2,19.167V23.025l33.2-19.167Z" transform="translate(-38.489 -3.857)" fill="#24b24c"/>
                </g>
              </g>
            </g>
            <path id="Path_9459" data-name="Path 9459" d="M71.687,6.107l-33.2,19.167V19.552L71.687.385Z" transform="translate(-38.488 -0.385)" fill="#077437"/>
            <g id="Group_30627" data-name="Group 30627" transform="translate(2.906 16.146)" style="mix-blend-mode: screen;isolation: isolate">
              <g id="Group_30616" data-name="Group 30616">
                <g id="Group_30615" data-name="Group 30615" clip-path="url(#clip-path-9)">
                  <path id="Path_9465" data-name="Path 9465" d="M67.606,11.2a.2.2,0,0,0-.145-.109l-1.795-.371a.851.851,0,0,0-.58.134l-11.75,6.77a1.309,1.309,0,0,1-1.129.183l-.163-.07a.791.791,0,0,0-.682.111l-1.259.725c-.943-.919-2.581-.944-4.45.133-2.927,1.685-5.3,5.429-5.307,8.357s2.367,3.937,5.294,2.25A11.71,11.71,0,0,0,50.285,23.9l1.488-.857a.667.667,0,0,0,.211-.2l.86-1.288a1.219,1.219,0,0,1,.4-.383l.281-.155.749-.411c.272-.15.555-.306.808-.449.38-.214.7-.4.824-.477.153-.1.746-.677,1.09-.991a1.123,1.123,0,0,1,.5-.283c.319-.072.872-.2,1.205-.266a.461.461,0,0,0,.139-.059.681.681,0,0,0,.138-.111c.142-.144.344-.352.469-.486a1.459,1.459,0,0,1,.5-.245c.227-.078.483-.155.682-.227a1.215,1.215,0,0,0,.294-.138c.116-.092.408-.353.725-.639l.239-.217c.241-.219.472-.432.632-.579a.746.746,0,0,1,.413-.213l.347-.031.421-.039.719-.063A.654.654,0,0,0,64.683,15a1.187,1.187,0,0,0,.264-.216l2.4-2.578c.335-.4.416-.81.255-1M43.072,27.092c-.88.508-1.595.2-1.593-.677a3.313,3.313,0,0,1,1.6-2.516c.882-.508,1.595-.2,1.593.677a3.3,3.3,0,0,1-1.6,2.516" transform="translate(-40.347 -10.711)" fill="#fff"/>
                </g>
              </g>
            </g>
            <path id="Path_9460" data-name="Path 9460" d="M52.5,28.352l2.846-1.642v.679L52.5,29.03Zm-3.654,7.5-4.431,2.558v.679l5.247-3.029,1.818-1.049v-.679Zm3.926-4.281v-.679l-2.222,1.282-1.46.844v.679l1.46-.844Zm-4.725,2.05-3.643,2.1V36.4l3.643-2.1Zm1.882-3.1,1.528-.883v-.679l-2.633,1.521-4.4,2.538v.68Zm-4.315-.2L49.2,28.244v-.68l-3.585,2.07-1.162.671v.679Zm7.158-4.132,1.152-.665v-.68l-1.521.879-2.162,1.249v.677Zm2.6,5.9-2.844,1.643v.679l2.844-1.643ZM49.816,45.025l-5.4,3.116v.679l5.4-3.116Zm-5.352,5.784v.679l1.084-.625,4.534-2.617v-.679l-3.853,2.225Zm10.9-14.377-3.91,2.258L48.847,40.2v.679l2.611-1.507,3.91-2.258Zm-.561,8.406-.979.566-2.7,1.56v.679l2.161-1.248,1.521-.879Zm-7.158-1.256-3.226,1.864v.679l3.226-1.864,3.585-2.069v-.679Zm4.628-2.671v.679L54.169,40.5v-.679ZM50.859,45.1l3.409-1.968v-.679l-3.409,1.968Zm-6.443-1.668,3.39-1.956V40.8l-3.39,1.956ZM63.8,27.217l-2.653,1.532v.679L63.8,27.9Zm-.039-8.058-1.593.921v.679l1.593-.921Zm-2.636,1.521-1.373.793v.68l1.373-.793Zm2.663,1.157-2.619,1.512v.679l2.619-1.512ZM59.86,26.8l-1.118.647v.679l1.118-.646Zm1.043.078,2.907-1.679v-.679L60.9,26.2Zm2.847,12.8L61.283,41.1v.679l2.467-1.423Zm.044-2.719-4.661,2.692v.679l4.661-2.692ZM60.242,41.7l-1.373.793v.679l1.373-.791Zm-.111-4.645,3.66-2.112v-.679l-3.66,2.112Zm1.015-3.279L63.8,32.243v-.679L61.145,33.1Zm6.77-8.936-1.137.655v.68l1.137-.657Zm-.039-8.06-1.593.921v.679l1.593-.921Zm.027,2.68-1.1.635v.68l1.1-.636Zm-1.367,3.482v.679l1.39-.8V22.14ZM67.867,37.3l-.949.549v.679l.949-.549Zm.044-2.719-1.42.821v.679l1.42-.821Zm-.629-1.653.625-.361v-.679l-.625.361Zm-.5-2.4,1.137-.657v-.679l-1.137.655Zm-26.3,10.838,1.18-.682V40l-1.18.682Zm-.038-8.06.721-.416v-.679l-.721.416Zm.027,2.68,1.213-.7V34.6l-1.213.7Zm.022,2v.679l.927-.535v-.679Zm-.058,15.835,1.367-.788v-.68l-1.367.79Zm.044-2.719.894-.516V49.9l-.894.518Zm1.687-4.347-1.69.976v.679l1.69-.976Zm-.5-2.4-1.18.682v.679l1.18-.682Z" transform="translate(-37.396 8.855)" fill="#fff"/>
            <path id="Path_9461" data-name="Path 9461" d="M61.625,54.214a1.05,1.05,0,0,1-.505.805c-.275.159-.5.059-.5-.225a1.059,1.059,0,0,1,.5-.805c.28-.159.505-.059.505.225m1.57-1.423a1.059,1.059,0,0,0-.5.805c0,.285.227.385.5.225a1.055,1.055,0,0,0,.505-.805c0-.285-.227-.385-.505-.225m2.075-1.2a1.059,1.059,0,0,0-.5.805c0,.285.227.385.5.225a1.051,1.051,0,0,0,.5-.805c0-.285-.224-.385-.5-.225m2.075-1.2a1.057,1.057,0,0,0-.5.805c0,.285.227.385.5.225a1.057,1.057,0,0,0,.5-.805c0-.285-.227-.385-.5-.225m2.075-1.2a1.053,1.053,0,0,0-.5.805c0,.285.225.385.5.225a1.055,1.055,0,0,0,.5-.805c0-.285-.225-.385-.5-.225M71.492,48a1.055,1.055,0,0,0-.5.805c0,.285.225.385.5.225A1.055,1.055,0,0,0,72,48.226c0-.285-.227-.385-.505-.225m2.075-1.2a1.052,1.052,0,0,0-.5.805c0,.285.225.385.5.225a1.053,1.053,0,0,0,.5-.805c0-.285-.225-.385-.5-.225m2.076-1.2a1.05,1.05,0,0,0-.5.805c0,.285.225.385.5.225a1.055,1.055,0,0,0,.5-.805c0-.285-.225-.386-.5-.225" transform="translate(-26.018 25.056)" fill="#cfcad4"/>
            <path id="Path_9462" data-name="Path 9462" d="M61.074,46.126v1.205c0,.267.147.306.375.174a1.165,1.165,0,0,0,.478-.55V45.633l.228-.131V46.77l.019.489-.188.109-.036-.227a1.407,1.407,0,0,1-.577.616c-.346.2-.525.067-.525-.264V46.256Z" transform="translate(-25.888 25.04)" fill="#cfcad4"/>
            <path id="Path_9463-2" data-name="Path 9463" d="M63.057,46.2c0-.241-.138-.217-.472-.055-.466.23-.6.139-.6-.125a1.12,1.12,0,0,1,.643-.894c.472-.272.644-.125.644.222a1.993,1.993,0,0,1-.224.144c0-.255-.1-.355-.421-.169a.7.7,0,0,0-.414.546c0,.184.084.236.46.05.433-.214.619-.194.619.13a1.158,1.158,0,0,1-.665.921c-.489.281-.664.089-.664-.18a2.058,2.058,0,0,1,.228-.145c0,.194.094.325.436.128a.731.731,0,0,0,.43-.572" transform="translate(-25.26 24.747)" fill="#cfcad4"/>
            <path id="Path_9464" data-name="Path 9464" d="M63.286,45.768c.009.382.169.53.514.33a.886.886,0,0,0,.489-.69l.217-.125a1.307,1.307,0,0,1-.707,1.012c-.521.3-.746.038-.746-.453a1.525,1.525,0,0,1,.73-1.381c.505-.291.722-.023.722.467v.134Zm0-.194.99-.572c-.013-.377-.166-.532-.494-.341a1.029,1.029,0,0,0-.5.913" transform="translate(-24.645 24.386)" fill="#cfcad4"/>
            <path id="Path_9465-2" data-name="Path 9465" d="M64.985,43.731v.224a1.169,1.169,0,0,0-.505.558v1.313l-.228.131v-1.27l-.019-.489.188-.109.033.216a1.223,1.223,0,0,1,.483-.549.359.359,0,0,1,.048-.025" transform="translate(-23.981 24.042)" fill="#cfcad4"/>
            <path id="Path_9466" data-name="Path 9466" d="M65.639,45.337l-.235.136v-2.6l.235-.136Z" transform="translate(-23.321 23.48)" fill="#cfcad4"/>
            <path id="Path_9467" data-name="Path 9467" d="M66.565,44.961l-.671.386v-2.6l.671-.388c.619-.358.985-.235.985.668v.133a1.9,1.9,0,0,1-.985,1.8m-.019-.206a1.514,1.514,0,0,0,.763-1.459v-.133c0-.741-.275-.86-.763-.578l-.417.241V45Z" transform="translate(-23.045 23.163)" fill="#cfcad4"/>
            <path id="Path_9468" data-name="Path 9468" d="M75.631,58.172A7.533,7.533,0,0,1,72,63.9c-2.006,1.16-3.634.472-3.634-1.535A7.538,7.538,0,0,1,72,56.637c2.008-1.159,3.634-.471,3.634,1.535" transform="translate(-21.653 30.998)" fill="#0b8d45"/>
            <path id="Path_9469" data-name="Path 9469" d="M72.323,58.183l-.544.314-.048.289c-.12-.117-.314-.138-.614.036a1.69,1.69,0,0,0-.819,1.495v.152c0,.593.269.866.819.549a1.509,1.509,0,0,0,.614-.674l.048.233.464-.269a2.211,2.211,0,0,0,1.209-2.061v-.133c0-1.248-.933-1.209-2-.589A4.063,4.063,0,0,0,69.305,60.9v.177c0,1.382.907,1.615,2.164.888A5.44,5.44,0,0,0,73.2,60.378l-.261-.2A5.026,5.026,0,0,1,71.481,61.5c-1.018.588-1.712.435-1.712-.693V60.63a3.123,3.123,0,0,1,1.664-2.642c.776-.447,1.545-.63,1.545.4v.133a1.3,1.3,0,0,1-.694,1.313V58.811Zm-.646,1.762a.991.991,0,0,1-.372.422c-.256.149-.372.03-.372-.267v-.15a.759.759,0,0,1,.372-.7c.191-.109.319-.059.372-.006Z" transform="translate(-21.123 31.578)" fill="#fff"/>
            <path id="Path_9470" data-name="Path 9470" d="M82.321,54.312a7.536,7.536,0,0,1-3.634,5.732c-2.006,1.159-3.634.471-3.634-1.537a7.538,7.538,0,0,1,3.634-5.73c2.008-1.159,3.634-.471,3.634,1.535" transform="translate(-17.883 28.823)" fill="#0b8d45"/>
            <path id="Path_9471" data-name="Path 9471" d="M80.719,53.8l-1.235-.158-1.234-.156-1.013,1.3v-.51l-.524.3v.88l-.932,1.195.457-.264v2.156l4.023-2.322V54.066Z" transform="translate(-17.473 29.54)" fill="#fff"/>
            <path id="Path_9472" data-name="Path 9472" d="M62.47,65.77a7.531,7.531,0,0,1-3.634,5.73c-2.006,1.159-3.634.472-3.634-1.535a7.538,7.538,0,0,1,3.634-5.73c2.008-1.159,3.634-.472,3.634,1.535" transform="translate(-29.069 35.28)" fill="#0b8d45"/>
            <path id="Path_9473" data-name="Path 9473" d="M59.539,64.447l-.3.078a.369.369,0,0,0-.225.247l-.369,1.385c-.03.113.022.183.117.158l.3-.078a.3.3,0,0,0,.145-.1.566.566,0,0,1-.048.589l-.91,1.645a.991.991,0,0,1-.536.475A.163.163,0,0,0,57.7,68.7l-.155-.183c-.048-.058-.158-.025-.244.073l-1.071,1.223c-.086.1-.116.225-.067.285l.153.183c.077.089.2-.041.36-.111a1.137,1.137,0,0,1,.411-.109,2.058,2.058,0,0,0,1.363-1.182l1.363-2.47c.363-.658.439-1.259.1-1.476a.542.542,0,0,1-.213-.253c-.048-.12-.022-.272-.167-.235" transform="translate(-28.541 35.713)" fill="#fff"/>
            <path id="Path_9474" data-name="Path 9474" d="M69.027,61.984a7.534,7.534,0,0,1-3.634,5.732c-2.006,1.159-3.634.471-3.634-1.537a7.538,7.538,0,0,1,3.634-5.73c2.008-1.159,3.634-.471,3.634,1.535" transform="translate(-25.374 33.146)" fill="#0b8d45"/>
            <path id="Path_9475" data-name="Path 9475" d="M62.527,66.757a.106.106,0,0,1-.091.016.07.07,0,0,1-.038-.07v-2.9c.063-.152.094-.184.128-.2l5.039-2.91c.072-.041.13-.017.13.055v2.9a.267.267,0,0,1-.13.2Zm4.717-2.982L66.111,63.3l-.99,1.562a.3.3,0,0,1-.092.091.112.112,0,0,1-.091.014l-1.016-.442-1.094,1.8Zm.192-.285V61.209L66.3,63.01Zm-4.78,2.735,1.084-1.781-1.084-.471Zm2.373-1.587,2.222-3.5-4.414,2.549Z" transform="translate(-25.014 33.59)" fill="#fff"/>
          </g>
        </g>
      </g>
    </g>
  </g>
</svg>
