<svg xmlns="http://www.w3.org/2000/svg" xmlns:xlink="http://www.w3.org/1999/xlink" width="189.268" height="197" viewBox="0 0 189.268 197">
  <defs>
    <filter id="Rectangle_2107" x="0" y="24.68" width="189.267" height="142.641" filterUnits="userSpaceOnUse">
      <feOffset dy="16" input="SourceAlpha"/>
      <feGaussianBlur stdDeviation="12" result="blur"/>
      <feFlood flood-opacity="0.161"/>
      <feComposite operator="in" in2="blur"/>
      <feComposite in="SourceGraphic"/>
    </filter>
    <filter id="Rectangle_2106" x="0" y="51.29" width="142.875" height="116.031" filterUnits="userSpaceOnUse">
      <feOffset dy="16" input="SourceAlpha"/>
      <feGaussianBlur stdDeviation="12" result="blur-2"/>
      <feFlood flood-opacity="0.161"/>
      <feComposite operator="in" in2="blur-2"/>
      <feComposite in="SourceGraphic"/>
    </filter>
    <filter id="Rectangle_2113" x="0" y="24.68" width="189.267" height="142.641" filterUnits="userSpaceOnUse">
      <feOffset dy="16" input="SourceAlpha"/>
      <feGaussianBlur stdDeviation="12" result="blur-3"/>
      <feFlood flood-opacity="0.161"/>
      <feComposite operator="in" in2="blur-3"/>
      <feComposite in="SourceGraphic"/>
    </filter>
    <filter id="Rectangle_2108" x="57.75" y="37.072" width="92.787" height="80.491" filterUnits="userSpaceOnUse">
      <feOffset dy="16" input="SourceAlpha"/>
      <feGaussianBlur stdDeviation="12" result="blur-4"/>
      <feFlood flood-opacity="0.161"/>
      <feComposite operator="in" in2="blur-4"/>
      <feComposite in="SourceGraphic"/>
    </filter>
    <filter id="Rectangle_2111" x="53.422" y="40.939" width="86.786" height="80.396" filterUnits="userSpaceOnUse">
      <feOffset dy="16" input="SourceAlpha"/>
      <feGaussianBlur stdDeviation="12" result="blur-5"/>
      <feFlood flood-opacity="0.161"/>
      <feComposite operator="in" in2="blur-5"/>
      <feComposite in="SourceGraphic"/>
    </filter>
    <filter id="Rectangle_2109" x="53.422" y="46.996" width="86.786" height="74.339" filterUnits="userSpaceOnUse">
      <feOffset dy="16" input="SourceAlpha"/>
      <feGaussianBlur stdDeviation="12" result="blur-6"/>
      <feFlood flood-opacity="0.161"/>
      <feComposite operator="in" in2="blur-6"/>
      <feComposite in="SourceGraphic"/>
    </filter>
    <filter id="Rectangle_2110" x="53.424" y="40.939" width="86.782" height="78.057" filterUnits="userSpaceOnUse">
      <feOffset dy="16" input="SourceAlpha"/>
      <feGaussianBlur stdDeviation="12" result="blur-7"/>
      <feFlood flood-opacity="0.161"/>
      <feComposite operator="in" in2="blur-7"/>
      <feComposite in="SourceGraphic"/>
    </filter>
    <filter id="Rectangle_2112" x="53.422" y="48.258" width="86.786" height="78.154" filterUnits="userSpaceOnUse">
      <feOffset dy="16" input="SourceAlpha"/>
      <feGaussianBlur stdDeviation="12" result="blur-8"/>
      <feFlood flood-opacity="0.161"/>
      <feComposite operator="in" in2="blur-8"/>
      <feComposite in="SourceGraphic"/>
    </filter>
    <filter id="Union_78" x="0" y="24.679" width="189.268" height="142.642" filterUnits="userSpaceOnUse">
      <feOffset dy="16" input="SourceAlpha"/>
      <feGaussianBlur stdDeviation="12" result="blur-9"/>
      <feFlood flood-opacity="0.161"/>
      <feComposite operator="in" in2="blur-9"/>
    </filter>
    <clipPath id="clip-path">
      <rect id="Rectangle_2107-2" data-name="Rectangle 2107" width="117.267" height="70.641" fill="none"/>
    </clipPath>
    <clipPath id="clip-path-2">
      <rect id="Rectangle_2106-2" data-name="Rectangle 2106" width="70.875" height="44.031" fill="none"/>
    </clipPath>
    <clipPath id="clip-path-4">
      <rect id="Rectangle_2108-2" data-name="Rectangle 2108" width="20.787" height="8.491" fill="none"/>
    </clipPath>
    <clipPath id="clip-path-5">
      <rect id="Rectangle_2111-2" data-name="Rectangle 2111" width="14.785" height="8.396" fill="none"/>
    </clipPath>
    <clipPath id="clip-path-6">
      <rect id="Rectangle_2109-2" data-name="Rectangle 2109" width="14.785" height="2.339" fill="#077437"/>
    </clipPath>
    <clipPath id="clip-path-7">
      <rect id="Rectangle_2110-2" data-name="Rectangle 2110" width="14.782" height="6.057" fill="none"/>
    </clipPath>
    <clipPath id="clip-path-8">
      <rect id="Rectangle_2112-2" data-name="Rectangle 2112" width="14.787" height="6.154" fill="none"/>
    </clipPath>
  </defs>
  <g id="Billing_Statement" data-name="Billing Statement" transform="translate(-708 -534)">
    <text id="Billing_Statement-2" data-name="Billing Statement" transform="translate(804 726)" font-size="20" font-family="SegoeUI-Semibold, Segoe UI" font-weight="600"><tspan x="-77.573" y="0">Billing Statement</tspan></text>
    <g id="billingS" transform="translate(275 1326)">
      <rect id="Rectangle_1963" data-name="Rectangle 1963" width="160" height="160" rx="16" transform="translate(449 -792)" fill="#f7f7f7"/>
      <g id="Group_31265" data-name="Group 31265" transform="translate(469 -747.32)">
        <g transform="matrix(1, 0, 0, 1, -36, -44.68)" filter="url(#Union_78)">
          <path id="Union_78-2" data-name="Union 78" d="M-398.673,605.549l.548.412h-6.935l-13.584-7.842-.425,1.369a.2.2,0,0,1-.193.141.194.194,0,0,1-.1-.027l-1.484-.857-.365.211a.427.427,0,0,1-.464.031l-2.939-1.723-6.342-1.258-.741.427c-.436.252-.818.2-1.025-.085a.593.593,0,0,0,.184.168l-26.337-15.264a.834.834,0,0,1-.346-.762v-.244l-1.386-.813a.721.721,0,0,1-.3-.661l0-1.471h0a2.249,2.249,0,0,1,1.022-1.771l1.061-.612L-469,569.047l5.654-3.264,0-3.767h0l46.233-26.694,23.231,13.413a17.115,17.115,0,0,1,3.416,1.465v0l-.436.254h0l.436-.253v.5l38.732,22.362h0v6.206l-46.226,26.688v0Zm-23.159-6.862s0,0,0-.006S-421.832,598.685-421.832,598.687Zm0-.015s0-.005,0-.007S-421.834,598.669-421.834,598.672Zm0-.014a.072.072,0,0,1,0-.014A.072.072,0,0,0-421.835,598.658Zm-.006-.956h0a1.375,1.375,0,0,1,.39-.891A1.372,1.372,0,0,0-421.841,597.7Zm-10.922-1.417a.089.089,0,0,0-.007-.013A.089.089,0,0,1-432.763,596.284Zm-.013-.025s0-.008-.006-.012S-432.779,596.255-432.777,596.259Zm-.014-.026,0-.007Zm1.08-4.221a2.6,2.6,0,0,0-1.179,2.044,2.6,2.6,0,0,1,1.179-2.044l1.244-.718h0l-1.244.718-19.408-11.248h0Z" transform="translate(505 -490.64)" fill="#fff"/>
        </g>
      </g>
      <g id="Group_31266" data-name="Group 31266" transform="translate(469 -747.32)">
        <g id="Group_31246" data-name="Group 31246" transform="translate(0 0)">
          <g id="Group_31225" data-name="Group 31225" clip-path="url(#clip-path)">
            <g id="Group_31224" data-name="Group 31224" transform="translate(0 26.61)" opacity="0.4">
              <g id="Group_31223" data-name="Group 31223">
                <g id="Group_31222" data-name="Group 31222" clip-path="url(#clip-path-2)">
                  <path id="Path_9872" data-name="Path 9872" d="M12.325,22.674,0,29.79,63.939,66.7h6.936Z" transform="translate(0 -22.674)" fill="#ada6a3"/>
                </g>
              </g>
            </g>
          </g>
        </g>
        <path id="Path_9872-2" data-name="Path 9872" d="M4.816,28.939,70.207,66.693V35.623L4.821,22.745Z" transform="translate(0.836 3.949)" fill="#d2cfcc"/>
        <path id="Path_9873" data-name="Path 9873" d="M60.534,33.988V65.057L106.76,38.369V32.163Z" transform="translate(10.509 5.584)" fill="#e9e6e6"/>
        <path id="Path_9874" data-name="Path 9874" d="M51.053,0,4.819,26.694,70.2,64.44l46.234-26.694Z" transform="translate(0.837)" fill="#f8f5f4"/>
        <path id="Path_9875" data-name="Path 9875" d="M17.08,25.579l-.43.248-3.387-1.955.43-.249Z" transform="translate(2.303 4.101)" fill="#7b9fe1"/>
        <path id="Path_9876" data-name="Path 9876" d="M17.386,25.31l-.46.265-2.835-1.637.46-.265Z" transform="translate(2.446 4.11)" fill="#2d6ad8"/>
        <path id="Path_9877" data-name="Path 9877" d="M18.5,24.713l-.43.248-3.111-1.8.43-.248Z" transform="translate(2.597 3.978)" fill="#7b9fe1"/>
        <path id="Path_9878" data-name="Path 9878" d="M18.95,24.528l-.46.265-3.541-2.044.46-.265Z" transform="translate(2.595 3.903)" fill="#2d6ad8"/>
        <path id="Path_9879" data-name="Path 9879" d="M20.157,23.978l-.43.248-4.42-2.551.43-.248Z" transform="translate(2.657 3.72)" fill="#7b9fe1"/>
        <path id="Path_9880" data-name="Path 9880" d="M20.367,23.655l-.46.265-3.218-1.858.459-.266Z" transform="translate(2.897 3.784)" fill="#2d6ad8"/>
        <path id="Path_9881" data-name="Path 9881" d="M21.544,23.093l-.43.248-3.923-2.265.428-.248Z" transform="translate(2.984 3.616)" fill="#7b9fe1"/>
        <path id="Path_9882" data-name="Path 9882" d="M21.86,22.83l-.46.265-3.433-1.982.459-.265Z" transform="translate(3.119 3.619)" fill="#2d6ad8"/>
        <path id="Path_9883" data-name="Path 9883" d="M25.949,20.568l-.43.248-4.031-2.327.43-.248Z" transform="translate(3.73 3.167)" fill="#7b9fe1"/>
        <path id="Path_9884" data-name="Path 9884" d="M26.289,20.32l-.46.265-3.714-2.144.46-.265Z" transform="translate(3.839 3.155)" fill="#2d6ad8"/>
        <path id="Path_9885" data-name="Path 9885" d="M27.244,19.627l-.43.248-2.9-1.672.43-.248Z" transform="translate(4.152 3.117)" fill="#7b9fe1"/>
        <path id="Path_9886" data-name="Path 9886" d="M27.791,19.5l-.46.265-3.975-2.294.46-.265Z" transform="translate(4.055 2.987)" fill="#2d6ad8"/>
        <path id="Path_9887" data-name="Path 9887" d="M29.087,19l-.43.248L23.187,16.09l.428-.248Z" transform="translate(4.025 2.75)" fill="#7b9fe1"/>
        <path id="Path_9888" data-name="Path 9888" d="M29.341,18.7l-.46.265-4.568-2.637.46-.265Z" transform="translate(4.221 2.789)" fill="#2d6ad8"/>
        <path id="Path_9889" data-name="Path 9889" d="M30.448,18.1l-.43.248-4.782-2.761.43-.248Z" transform="translate(4.381 2.663)" fill="#7b9fe1"/>
        <path id="Path_9890" data-name="Path 9890" d="M30.711,17.806l-.46.265L26.312,15.8l.459-.265Z" transform="translate(4.568 2.696)" fill="#2d6ad8"/>
        <path id="Path_9891" data-name="Path 9891" d="M31.634,17.094l-.43.248L28.293,15.66l.43-.248Z" transform="translate(4.912 2.676)" fill="#7b9fe1"/>
        <path id="Path_9892" data-name="Path 9892" d="M32.117,16.928l-.46.265L28.1,15.141l.46-.265Z" transform="translate(4.878 2.582)" fill="#2d6ad8"/>
        <path id="Path_9893" data-name="Path 9893" d="M22.733,22.09l-.43.248-2.074-1.2.428-.248Z" transform="translate(3.512 3.627)" fill="#7b9fe1"/>
        <path id="Path_9894" data-name="Path 9894" d="M23.352,22l-.46.265-3.638-2.1.46-.266Z" transform="translate(3.342 3.455)" fill="#2d6ad8"/>
        <path id="Path_9895" data-name="Path 9895" d="M24.194,21.247l-.43.248-2.074-1.2.428-.248Z" transform="translate(3.766 3.481)" fill="#7b9fe1"/>
        <path id="Path_9896" data-name="Path 9896" d="M22.535,20.376l1.5.867.459-.266L23,20.109Z" transform="translate(3.912 3.491)" fill="#2d6ad8"/>
        <path id="Path_9897" data-name="Path 9897" d="M35.113,16.6l-19.1,11.026-.388-.224,19.1-11.026Z" transform="translate(2.713 2.843)" fill="#7b9fe1"/>
        <path id="Path_9898" data-name="Path 9898" d="M34.979,15.159l-.43.248L31.66,13.739l.43-.249Z" transform="translate(5.496 2.342)" fill="#7b9fe1"/>
        <path id="Path_9899" data-name="Path 9899" d="M35.285,14.891l-.46.265-2.338-1.35.46-.265Z" transform="translate(5.64 2.351)" fill="#2d6ad8"/>
        <path id="Path_9900" data-name="Path 9900" d="M34.652,13.781l1.093.629.428-.246-1.091-.631Z" transform="translate(6.016 2.349)" fill="#7b9fe1"/>
        <path id="Path_9901" data-name="Path 9901" d="M34.644,13.366l1.52.878.46-.265L35.1,13.1Z" transform="translate(6.014 2.274)" fill="#2d6ad8"/>
        <path id="Path_9902" data-name="Path 9902" d="M37.97,13.509l-.43.248L34.2,11.829l.428-.248Z" transform="translate(5.937 2.011)" fill="#7b9fe1"/>
        <path id="Path_9903" data-name="Path 9903" d="M38.1,13.141l-.46.265-1.623-.937.46-.265Z" transform="translate(6.253 2.119)" fill="#2d6ad8"/>
        <path id="Path_9904" data-name="Path 9904" d="M37.526,12.061l1.154.665.428-.248-1.152-.665Z" transform="translate(6.514 2.051)" fill="#7b9fe1"/>
        <path id="Path_9905" data-name="Path 9905" d="M39.6,12.321l-.46.265L37.256,11.5l.46-.265Z" transform="translate(6.468 1.95)" fill="#2d6ad8"/>
        <path id="Path_9906" data-name="Path 9906" d="M43.95,10.208l-.43.248L39.3,8.017l.428-.248Z" transform="translate(6.822 1.349)" fill="#7b9fe1"/>
        <path id="Path_9907" data-name="Path 9907" d="M44.253,9.938l-.46.265L40.142,8.1l.46-.265Z" transform="translate(6.969 1.359)" fill="#2d6ad8"/>
        <path id="Path_9908" data-name="Path 9908" d="M45.658,9.5l-.43.248L39.35,6.358l.43-.248Z" transform="translate(6.831 1.061)" fill="#7b9fe1"/>
        <path id="Path_9909" data-name="Path 9909" d="M45.991,9.252l-.46.265-5.51-3.182.459-.265Z" transform="translate(6.948 1.054)" fill="#2d6ad8"/>
        <path id="Path_9910" data-name="Path 9910" d="M46.815,8.484l-.43.248-3.814-2.2L43,6.281Z" transform="translate(7.39 1.09)" fill="#7b9fe1"/>
        <path id="Path_9911" data-name="Path 9911" d="M47.1,8.2l-.46.265-3.1-1.79L44,6.412Z" transform="translate(7.558 1.113)" fill="#2d6ad8"/>
        <path id="Path_9912" data-name="Path 9912" d="M48.364,7.689l-.43.248-4.4-2.54.43-.248Z" transform="translate(7.558 0.894)" fill="#7b9fe1"/>
        <path id="Path_9913" data-name="Path 9913" d="M48.627,7.4l-.46.265L44.611,5.609l.46-.265Z" transform="translate(7.744 0.928)" fill="#2d6ad8"/>
        <path id="Path_9914" data-name="Path 9914" d="M49.5,6.656l-.43.248L46.886,5.642l.43-.248Z" transform="translate(8.139 0.936)" fill="#7b9fe1"/>
        <path id="Path_9915" data-name="Path 9915" d="M49.849,6.412l-.46.265L47.46,5.564l.46-.265Z" transform="translate(8.239 0.92)" fill="#2d6ad8"/>
        <path id="Path_9916" data-name="Path 9916" d="M40.937,11.847l-.43.248L36.872,10l.43-.249Z" transform="translate(6.401 1.692)" fill="#7b9fe1"/>
        <path id="Path_9917" data-name="Path 9917" d="M41.411,11.676l-.46.265L36.733,9.506l.46-.265Z" transform="translate(6.377 1.604)" fill="#2d6ad8"/>
        <path id="Path_9918" data-name="Path 9918" d="M42.379,10.992l-.43.248-3.5-2.022.428-.248Z" transform="translate(6.674 1.557)" fill="#7b9fe1"/>
        <path id="Path_9919" data-name="Path 9919" d="M42.682,10.722l-.46.265-2.93-1.692.46-.265Z" transform="translate(6.821 1.568)" fill="#2d6ad8"/>
        <path id="Path_9920" data-name="Path 9920" d="M53.086,6.226l-19.1,11.026-.387-.224L52.7,6Z" transform="translate(5.833 1.042)" fill="#7b9fe1"/>
        <path id="Path_9921" data-name="Path 9921" d="M33.668,21.036,19.491,29.221l-2.017-1.164,14.177-8.186Z" transform="translate(3.033 3.45)" fill="#2d6ad8"/>
        <path id="Path_9922" data-name="Path 9922" d="M20.8,27.365l-1.312.757-2.017-1.164,1.312-.758Z" transform="translate(3.033 4.548)" fill="#f25a5a"/>
        <path id="Path_9923" data-name="Path 9923" d="M44.683,14.676,30.506,22.861,28.489,21.7l14.177-8.186Z" transform="translate(4.946 2.346)" fill="#2d6ad8"/>
        <path id="Path_9924" data-name="Path 9924" d="M31.818,21.005l-1.311.757L28.489,20.6,29.8,19.84Z" transform="translate(4.946 3.444)" fill="#97cc66"/>
        <path id="Path_9925" data-name="Path 9925" d="M55.7,8.316,41.522,16.5,39.5,15.337,53.682,7.151Z" transform="translate(6.858 1.241)" fill="#2d6ad8"/>
        <path id="Path_9926" data-name="Path 9926" d="M42.834,14.645l-1.312.757L39.5,14.237l1.312-.757Z" transform="translate(6.858 2.34)" fill="#44bfe5"/>
        <path id="Path_9927" data-name="Path 9927" d="M43.889,12.454l-2.134,1.232-.229-.133,2.134-1.232Z" transform="translate(7.209 2.139)" fill="#e1e9f4"/>
        <path id="Path_9928" data-name="Path 9928" d="M43.642,12.225l.229.133.887-.513-.228-.131Z" transform="translate(7.576 2.034)" fill="#e1e9f4"/>
        <path id="Path_9929" data-name="Path 9929" d="M42.352,13.948l.228.133,1.167-.674-.228-.131Z" transform="translate(7.352 2.305)" fill="#e1e9f4"/>
        <path id="Path_9930" data-name="Path 9930" d="M46.5,11.945l-2.623,1.514-.229-.131,2.623-1.515Z" transform="translate(7.576 2.051)" fill="#e1e9f4"/>
        <path id="Path_9931" data-name="Path 9931" d="M46.178,11.764l.229.133,1.446-.836-.228-.133Z" transform="translate(8.016 1.897)" fill="#e1e9f4"/>
        <path id="Path_9932" data-name="Path 9932" d="M32.975,18.755l-2.134,1.232-.229-.133,2.134-1.232Z" transform="translate(5.314 3.233)" fill="#e1e9f4"/>
        <path id="Path_9933" data-name="Path 9933" d="M32.729,18.527l.229.133.887-.514-.228-.131Z" transform="translate(5.682 3.127)" fill="#e1e9f4"/>
        <path id="Path_9934" data-name="Path 9934" d="M31.439,20.249l.228.133,1.167-.674-.228-.131Z" transform="translate(5.458 3.399)" fill="#e1e9f4"/>
        <path id="Path_9935" data-name="Path 9935" d="M35.582,18.246,32.959,19.76l-.229-.131,2.623-1.515Z" transform="translate(5.682 3.145)" fill="#e1e9f4"/>
        <path id="Path_9936" data-name="Path 9936" d="M35.265,18.065l.229.133,1.446-.836-.229-.133Z" transform="translate(6.122 2.991)" fill="#e1e9f4"/>
        <path id="Path_9937" data-name="Path 9937" d="M22.062,25.056l-2.134,1.232-.229-.133,2.134-1.232Z" transform="translate(3.42 4.327)" fill="#e1e9f4"/>
        <path id="Path_9938" data-name="Path 9938" d="M21.815,24.828l.229.133.887-.514-.229-.131Z" transform="translate(3.787 4.221)" fill="#e1e9f4"/>
        <path id="Path_9939" data-name="Path 9939" d="M20.525,26.55l.228.133,1.167-.674-.229-.131Z" transform="translate(3.563 4.492)" fill="#e1e9f4"/>
        <path id="Path_9940" data-name="Path 9940" d="M24.668,24.547l-2.623,1.514-.229-.131,2.623-1.514Z" transform="translate(3.787 4.239)" fill="#e1e9f4"/>
        <path id="Path_9941" data-name="Path 9941" d="M24.351,24.366l.228.133,1.447-.836L25.8,23.53Z" transform="translate(4.227 4.085)" fill="#e1e9f4"/>
        <g id="Group_31247" data-name="Group 31247" transform="translate(0 0)">
          <g id="Group_31242" data-name="Group 31242" clip-path="url(#clip-path)">
            <path id="Path_9943" data-name="Path 9943" d="M70.484,28.317c-5.7,3.292-14.947,3.292-20.648,0s-5.7-8.629,0-11.921,14.947-3.292,20.648,0,5.7,8.629,0,11.921" transform="translate(7.909 2.418)" fill="#24b24c"/>
            <path id="Path_9944" data-name="Path 9944" d="M69.851,27.081c-5.7,3.292-14.947,3.292-20.648,0v1.172c5.7,3.292,14.947,3.292,20.648,0,2.885-1.665,4.311-3.855,4.275-6.038V21.043c.035,2.183-1.391,4.373-4.275,6.038" transform="translate(8.542 3.653)" fill="#077437"/>
            <path id="Path_9945" data-name="Path 9945" d="M59.75,18.679l-.088,3.747-.251.08L49.2,16.613l.007-3.963Z" transform="translate(8.541 2.196)" fill="#077437"/>
            <path id="Path_9946" data-name="Path 9946" d="M58.118,18.682v3.923L68.44,16.642l.007-3.963Z" transform="translate(10.089 2.201)" fill="#077437"/>
            <g id="Group_31229" data-name="Group 31229" transform="translate(57.75 12.392)" opacity="0.4">
              <g id="Group_31228" data-name="Group 31228">
                <g id="Group_31227" data-name="Group 31227" clip-path="url(#clip-path-4)">
                  <path id="Path_9947" data-name="Path 9947" d="M69.995,13.046l-10.33,6L49.208,13.012c5.755-3.281,15.021-3.272,20.787.034" transform="translate(-49.208 -10.559)" fill="#24b24c"/>
                </g>
              </g>
            </g>
            <g id="Group_31238" data-name="Group 31238" transform="translate(53.422 16.26)">
              <g id="Group_31237" data-name="Group 31237">
                <g id="Group_31236" data-name="Group 31236" clip-path="url(#clip-path-5)">
                  <g id="Group_31232" data-name="Group 31232" transform="translate(0 6.057)">
                    <g id="Group_31231" data-name="Group 31231">
                      <g id="Group_31230" data-name="Group 31230" clip-path="url(#clip-path-6)">
                        <path id="Path_9948" data-name="Path 9948" d="M45.525,19.015l0,2.043,14.785.3V19.015Z" transform="translate(-45.52 -19.015)" fill="#077437"/>
                      </g>
                    </g>
                  </g>
                  <g id="Group_31235" data-name="Group 31235" transform="translate(0.002)" opacity="0.4">
                    <g id="Group_31234" data-name="Group 31234">
                      <g id="Group_31233" data-name="Group 31233" clip-path="url(#clip-path-7)">
                        <path id="Path_9949" data-name="Path 9949" d="M49.84,13.854c-2.871,1.679-4.317,3.865-4.318,6.057H60.3Z" transform="translate(-45.522 -13.854)" fill="#24b24c"/>
                      </g>
                    </g>
                  </g>
                </g>
              </g>
            </g>
            <path id="Path_9950" data-name="Path 9950" d="M49.827,26.03a8.486,8.486,0,0,1-4.109-4.537,5.005,5.005,0,0,1-.2-1.4l-.006.356a16.634,16.634,0,0,0,.2,3.211l.02.077c.451,1.758,1.845,3.379,4.187,4.732.094.054.19.1.286.157l0-2.38c-.131-.07-.259-.142-.386-.215" transform="translate(7.901 3.488)" fill="#077437"/>
            <path id="Path_9951" data-name="Path 9951" d="M59.613,20.106l0,1.21-10.1,6.136,0-1.21Z" transform="translate(8.596 3.491)" fill="#077437"/>
            <g id="Group_31241" data-name="Group 31241" transform="translate(53.422 23.579)" opacity="0.4">
              <g id="Group_31240" data-name="Group 31240">
                <g id="Group_31239" data-name="Group 31239" clip-path="url(#clip-path-8)">
                  <path id="Path_9952" data-name="Path 9952" d="M60.306,20.109,50.212,26.244c-.131-.069-.259-.142-.386-.215a8.491,8.491,0,0,1-4.11-4.536,5.106,5.106,0,0,1-.2-1.4Z" transform="translate(-45.52 -20.091)" fill="#24b24c"/>
                </g>
              </g>
            </g>
            <path id="Path_9953" data-name="Path 9953" d="M33.576,27.748l-7.125,4.113-.733-.424,7.125-4.113Z" transform="translate(4.465 4.744)" fill="#f25a5a"/>
            <path id="Path_9954" data-name="Path 9954" d="M31.07,30.222l-3.457,2-.733-.424,3.457-2Z" transform="translate(4.666 5.173)" fill="#f25a5a"/>
            <path id="Path_9955" data-name="Path 9955" d="M39.984,27.077,28.773,33.551l-.733-.424,11.211-6.474Z" transform="translate(4.868 4.627)" fill="#97cc66"/>
            <path id="Path_9956" data-name="Path 9956" d="M46.4,25.161l-16.47,9.509-.733-.422,16.47-9.51Z" transform="translate(5.069 4.295)" fill="#97cc66"/>
            <path id="Path_9957" data-name="Path 9957" d="M46.306,26.449,31.094,35.233l-.733-.424,15.212-8.783Z" transform="translate(5.271 4.518)" fill="#97cc66"/>
            <path id="Path_9958" data-name="Path 9958" d="M45.3,28.186,32.254,35.718l-.734-.424,13.046-7.532Z" transform="translate(5.472 4.82)" fill="#2d6ad8"/>
            <path id="Path_9959" data-name="Path 9959" d="M43.893,30.119l-10.478,6.05-.733-.424L43.16,29.7Z" transform="translate(5.674 5.155)" fill="#2d6ad8"/>
            <path id="Path_9960" data-name="Path 9960" d="M42.853,31.871,34.576,36.65l-.734-.424,8.277-4.779Z" transform="translate(5.875 5.46)" fill="#44bfe5"/>
            <path id="Path_9961" data-name="Path 9961" d="M48.782,30.2,35.736,37.728,35,37.3l13.046-7.532Z" transform="translate(6.076 5.169)" fill="#44bfe5"/>
            <path id="Path_9962" data-name="Path 9962" d="M50.522,30.581,36.9,38.448l-.733-.424,13.625-7.867Z" transform="translate(6.278 5.236)" fill="#86b1ff"/>
            <path id="Path_9963" data-name="Path 9963" d="M49.322,32.413l-11.264,6.5-.734-.422,11.264-6.5Z" transform="translate(6.479 5.554)" fill="#86b1ff"/>
            <path id="Path_9964" data-name="Path 9964" d="M48.492,34.062l-9.274,5.354-.734-.424,9.274-5.354Z" transform="translate(6.681 5.84)" fill="#2d6ad8"/>
            <path id="Path_9965" data-name="Path 9965" d="M53.477,32.851l-13.1,7.562-.733-.422,13.1-7.563Z" transform="translate(6.883 5.63)" fill="#f25a5a"/>
            <path id="Path_9966" data-name="Path 9966" d="M55.443,33.125l-13.9,8.027-.734-.424,13.9-8.027Z" transform="translate(7.084 5.677)" fill="#f25a5a"/>
            <path id="Path_9967" data-name="Path 9967" d="M44.688,41.591l-.442.255L25.228,30.866l.441-.255Z" transform="translate(4.38 5.314)" fill="#86b1ff"/>
            <path id="Path_9968" data-name="Path 9968" d="M47.176,42.542a.492.492,0,0,1,0,.932,1.785,1.785,0,0,1-1.614,0,.492.492,0,0,1,0-.932,1.785,1.785,0,0,1,1.614,0" transform="translate(7.852 7.352)" fill="#2d6ad8"/>
            <path id="Path_9969" data-name="Path 9969" d="M50.524,44.475a.492.492,0,0,1,0,.932,1.785,1.785,0,0,1-1.614,0,.492.492,0,0,1,0-.932,1.785,1.785,0,0,1,1.614,0" transform="translate(8.433 7.688)" fill="#2d6ad8"/>
            <path id="Path_9970" data-name="Path 9970" d="M53.827,46.382a.492.492,0,0,1,0,.932,1.785,1.785,0,0,1-1.614,0,.492.492,0,0,1,0-.932,1.785,1.785,0,0,1,1.614,0" transform="translate(9.006 8.019)" fill="#2d6ad8"/>
            <path id="Path_9971" data-name="Path 9971" d="M57.153,48.3a.492.492,0,0,1,0,.932,1.785,1.785,0,0,1-1.614,0,.492.492,0,0,1,0-.932,1.785,1.785,0,0,1,1.614,0" transform="translate(9.584 8.352)" fill="#2d6ad8"/>
            <path id="Path_9972" data-name="Path 9972" d="M60.454,50.209a.492.492,0,0,1,0,.932,1.785,1.785,0,0,1-1.614,0,.492.492,0,0,1,0-.932,1.785,1.785,0,0,1,1.614,0" transform="translate(10.157 8.683)" fill="#2d6ad8"/>
            <path id="Path_9973" data-name="Path 9973" d="M67.684,33.706l2.339-1.351-.3-.175-2.339,1.351ZM57.251,39.73l5.238-3.024-.3-.175-5.238,3.024Zm5.65-3.263,4.372-2.524-.3-.175L62.6,36.293Zm-6.062,3.5-.3-.175L49.111,44.08l.3.175Zm13.6-7.849L73.759,30.2l-.3-.175-3.324,1.919ZM48.252,43.537l2.45-1.415-.3-.175-2.45,1.415ZM69.681,30.816l.3.175L72.9,29.31l-.3-.175ZM64.3,34.273l5.273-3.044-.3-.175L64,34.1Zm-2.751,1.588,2.34-1.351-.3-.175-2.34,1.351Zm-3.321,1.918L61.137,36.1l-.3-.175L57.923,37.6Zm-7.112,4.106,6.7-3.869-.3-.175-6.7,3.869Z" transform="translate(8.324 5.058)" fill="#86b1ff"/>
            <path id="Path_9974" data-name="Path 9974" d="M64.591,37.541l.3.175,4.372-2.526-.3-.175Zm-.108.412-.3-.175L58.941,40.8l.3.175Zm.931.5.3.176,2.909-1.681-.3-.175Zm3.321-1.916.3.175,2.34-1.351-.3-.175ZM76.759,31.9l-5.273,3.044.3.175,5.272-3.044ZM58.192,42.972l-.3-.175-5.625,3.247.3.175ZM74.18,32l-4.8,2.774.3.175,4.8-2.774Zm-15.347,9.21-.3-.175-7.478,4.318.3.175Zm15.759-9.447.3.175L77.7,30.321l-.3-.175Zm-9.287,7.1-.3-.175L58.3,42.56l.3.175Z" transform="translate(8.863 5.234)" fill="#86b1ff"/>
            <path id="Path_9975" data-name="Path 9975" d="M65.847,40.614l.3.175L69.06,39.11l-.3-.175Zm.722,1.323-.3-.175-5.174,2.987.3.175Zm4.94-4.59L69.168,38.7l.3.175,2.34-1.351Zm.411-.238.3.175,5.273-3.044-.3-.175Zm5.495-1.434,3.062-1.767-.3-.175L77.111,35.5ZM58.626,45.134l-.3-.175-3.791,2.189.3.175Zm6.81-4.281-6.7,3.869.3.175,6.7-3.869Zm1.24.671.3.175,5.239-3.024-.3-.175ZM76.7,35.738l-4.373,2.524.3.175L77,35.913Zm2.477-2.819-1.573.908.3.175,1.573-.908ZM60.983,45.161l-.3-.175-4.964,2.866.3.175Z" transform="translate(9.467 5.715)" fill="#86b1ff"/>
            <path id="Path_9976" data-name="Path 9976" d="M67.144,45.441l5.238-3.024-.3-.175-5.238,3.024Zm5.65-3.261,4.373-2.526-.3-.175L72.491,42Zm-6.062,3.5-.3-.175L59,49.791l.3.175Zm-8.587,3.57,2.45-1.415-.3-.175-2.45,1.415ZM79.574,36.527l.3.175,2.912-1.681-.3-.175Zm-5.382,3.457,5.273-3.044-.3-.175-5.273,3.044Zm-2.751,1.588,2.34-1.351-.3-.175L71.138,41.4ZM68.119,43.49,71.03,41.81l-.3-.176-2.911,1.681ZM61.007,47.6l6.7-3.869-.3-.175-6.7,3.869Z" transform="translate(10.041 6.05)" fill="#86b1ff"/>
            <path id="Path_9977" data-name="Path 9977" d="M75.264,41.1l.3.175,4.373-2.524-.3-.175Z" transform="translate(13.066 6.696)" fill="#86b1ff"/>
            <path id="Path_9978" data-name="Path 9978" d="M71.822,44.141l.3.175,2.909-1.681-.3-.175Z" transform="translate(12.468 7.372)" fill="#86b1ff"/>
            <path id="Path_9979" data-name="Path 9979" d="M75.689,40.925,70.45,43.949l.3.175L75.992,41.1Z" transform="translate(12.23 7.105)" fill="#86b1ff"/>
            <path id="Path_9980" data-name="Path 9980" d="M79.174,40.034l-4.522,2.611.3.175,4.522-2.611Z" transform="translate(12.959 6.95)" fill="#86b1ff"/>
            <path id="Path_9981" data-name="Path 9981" d="M71.965,43.879l-.3-.175L61.1,49.8l.3.175Z" transform="translate(10.607 7.587)" fill="#86b1ff"/>
            <path id="Path_9982" data-name="Path 9982" d="M79.341,38.569l.3.175,2.339-1.351-.3-.175Z" transform="translate(13.774 6.461)" fill="#86b1ff"/>
            <path id="Path_9983" data-name="Path 9983" d="M66.274,47.769l-.3-.175-3.791,2.189.3.175Z" transform="translate(10.795 8.263)" fill="#86b1ff"/>
            <path id="Path_9984" data-name="Path 9984" d="M72.462,44.1l-6.7,3.869.3.175,6.7-3.869Z" transform="translate(11.416 7.655)" fill="#86b1ff"/>
            <path id="Path_9985" data-name="Path 9985" d="M81.685,37.185l.3.175,1.985-1.145-.3-.175Z" transform="translate(14.18 6.257)" fill="#86b1ff"/>
            <path id="Path_9986" data-name="Path 9986" d="M12.447,40.5l0-1.472L6.891,35.771l0,1.472a.722.722,0,0,0,.3.661l5.552,3.256a.722.722,0,0,1-.3-.661" transform="translate(1.196 6.21)" fill="#5169ce"/>
            <path id="Path_9987" data-name="Path 9987" d="M13.568,31.716a.727.727,0,0,0-.732.072L7.763,34.717l5.551,3.256,5.072-2.928a.728.728,0,0,1,.732-.073Z" transform="translate(1.348 5.494)" fill="#788eff"/>
            <path id="Path_9988" data-name="Path 9988" d="M12.443,39.29,6.892,36.034a2.246,2.246,0,0,1,1.022-1.771l5.551,3.256a2.254,2.254,0,0,0-1.022,1.771" transform="translate(1.196 5.948)" fill="#788eff"/>
            <path id="Path_9989" data-name="Path 9989" d="M17.717,34.562c.567-.327,1.029-.067,1.032.586l0,1.471a2.257,2.257,0,0,1-1.025,1.774l-5.072,2.929c-.567.327-1.027.062-1.029-.589l0-1.472a2.25,2.25,0,0,1,1.022-1.771Z" transform="translate(2.018 5.976)" fill="#252321"/>
            <path id="Path_9990" data-name="Path 9990" d="M40.658,47.708,14.321,32.444a.836.836,0,0,1,.845-.083L41.5,47.625a.836.836,0,0,0-.845.083" transform="translate(2.486 5.604)" fill="#373431"/>
            <path id="Path_9991" data-name="Path 9991" d="M34.669,54l0-1.7L8.328,37.041l0,1.7a.836.836,0,0,0,.346.763L35.016,54.766A.833.833,0,0,1,34.669,54" transform="translate(1.446 6.431)" fill="#1e1b19"/>
            <path id="Path_9992" data-name="Path 9992" d="M35.67,51.063,9.333,35.8l5.854-3.38L41.524,47.684Z" transform="translate(1.62 5.628)" fill="#2d2b29"/>
            <path id="Path_9993" data-name="Path 9993" d="M34.665,52.607,8.328,37.343A2.6,2.6,0,0,1,9.507,35.3L35.844,50.564a2.6,2.6,0,0,0-1.179,2.043" transform="translate(1.446 6.128)" fill="#373431"/>
            <path id="Path_9994" data-name="Path 9994" d="M37.8,45.45c.655-.378,1.188-.077,1.19.675l0,1.7a2.606,2.606,0,0,1-1.182,2.048l-5.854,3.38c-.655.378-1.187.073-1.188-.68l0-1.7a2.6,2.6,0,0,1,1.179-2.043Z" transform="translate(5.341 7.862)" fill="#252321"/>
            <path id="Path_9995" data-name="Path 9995" d="M38.13,46.324a.611.611,0,0,0-.613.06l-4.991,2.882a1.88,1.88,0,0,0-.856,1.481l0,1.231a.6.6,0,0,0,.251.553l6.968,1.383a.966.966,0,0,0,.61-.06l1.226-.708c.475-.275.548-2.244.548-2.244Z" transform="translate(5.498 8.032)" fill="#1e1b19"/>
            <path id="Path_9996" data-name="Path 9996" d="M42.4,51.861l-3.374-1.979a.441.441,0,0,1,.445-.045l3.374,1.98a.438.438,0,0,0-.445.043" transform="translate(6.774 8.645)" fill="#373431"/>
            <path id="Path_9997" data-name="Path 9997" d="M40.685,54.342l0-.894-3.374-1.979,0,.894a.439.439,0,0,0,.182.4l3.374,1.979a.438.438,0,0,1-.182-.4" transform="translate(6.477 8.935)" fill="#1e1b19"/>
            <path id="Path_9998" data-name="Path 9998" d="M41.212,52.65l-3.374-1.979,1.388-.8L42.6,51.848Z" transform="translate(6.569 8.658)" fill="#2d2b29"/>
            <path id="Path_9999" data-name="Path 9999" d="M40.682,53.608l-3.374-1.979a1.367,1.367,0,0,1,.621-1.076L41.3,52.532a1.367,1.367,0,0,0-.622,1.076" transform="translate(6.477 8.776)" fill="#373431"/>
            <path id="Path_10000" data-name="Path 10000" d="M42.193,51.569c.345-.2.626-.041.627.356l0,.894A1.377,1.377,0,0,1,42.2,53.9l-1.388.8c-.345.2-.624.038-.626-.358l0-.894A1.366,1.366,0,0,1,40.8,52.37Z" transform="translate(6.976 8.938)" fill="#252321"/>
            <path id="Path_10001" data-name="Path 10001" d="M42.332,51.928l-1.718,1,0,1.2,1.975,1.141a.2.2,0,0,0,.293-.115l.426-1.372a.517.517,0,0,0,.023-.153l0-.912a.361.361,0,0,0-.181-.315Z" transform="translate(7.05 9.015)" fill="#788eff"/>
            <path id="Path_10002" data-name="Path 10002" d="M19.432,39.276,13,35.565l1.981-1.144,6.429,3.711Z" transform="translate(2.258 5.976)" fill="#3f474f"/>
            <path id="Path_10003" data-name="Path 10003" d="M22.243,39.678l.77.445-.154.088-.77-.444Zm-.69.484.154-.089-.6-.346-.394-.229-.154.089.394.228Zm-1.124-.826-.985-.569-.154.088.985.569Zm.966.031.413.238.154-.088-.712-.412-1.19-.687-.153.089Zm-.559-1.026.971.56.154-.089-.971-.56-.313-.181-.154.088.315.182Zm1.936,1.117.312.18.154-.088-.412-.238-.584-.337-.154.088Zm2.743,1.406-.431-.249-.154.089.432.249Zm-.712-.412-.372-.214-.153.088.371.215Zm.11.769-.709-.41-.153.089.708.408Zm-1.671-.262-.3-.175-.154.089.3.175Zm.282.163-.154.089.786.453.154-.088Z" transform="translate(3.349 6.609)" fill="#3f474f"/>
          </g>
        </g>
      </g>
    </g>
  </g>
</svg>
