<svg xmlns="http://www.w3.org/2000/svg" xmlns:xlink="http://www.w3.org/1999/xlink" width="342.924" height="197.488" viewBox="0 0 342.924 197.488">
  <defs>
    <clipPath id="clip-path">
      <path id="Path_2432" data-name="Path 2432" d="M238.094,200.006a41.813,41.813,0,1,1-41.813-41.812A41.811,41.811,0,0,1,238.094,200.006Z" transform="translate(-154.469 -158.194)" fill="#fca01f"/>
    </clipPath>
    <clipPath id="clip-path-2">
      <path id="Path_2443" data-name="Path 2443" d="M366,70.194a41.812,41.812,0,1,1-41.811-41.813A41.812,41.812,0,0,1,366,70.194Z" transform="translate(-282.376 -28.381)" fill="#8c9527"/>
    </clipPath>
    <clipPath id="clip-path-3">
      <path id="Path_2453" data-name="Path 2453" d="M108.845,200a41.812,41.812,0,1,1-41.811-41.814A41.811,41.811,0,0,1,108.845,200Z" transform="translate(-25.221 -158.191)" fill="#f9d08f"/>
    </clipPath>
    <clipPath id="clip-path-4">
      <path id="Path_2467" data-name="Path 2467" d="M238.094,70.195a41.813,41.813,0,1,1-41.813-41.813A41.812,41.812,0,0,1,238.094,70.195Z" transform="translate(-154.469 -28.382)" fill="#60afba"/>
    </clipPath>
    <clipPath id="clip-path-5">
      <path id="Path_2476" data-name="Path 2476" d="M108.845,70.195A41.812,41.812,0,1,1,67.034,28.382,41.811,41.811,0,0,1,108.845,70.195Z" transform="translate(-25.221 -28.382)" fill="#988bc1"/>
    </clipPath>
    <clipPath id="clip-path-6">
      <path id="Path_2490" data-name="Path 2490" d="M366,200.005a41.812,41.812,0,1,1-41.811-41.813A41.811,41.811,0,0,1,366,200.005Z" transform="translate(-282.376 -158.192)" fill="#988bc1"/>
    </clipPath>
  </defs>
  <g id="Group_845" data-name="Group 845" transform="translate(12.592 -22.12)">
    <path id="Path_2491" data-name="Path 2491" d="M2769.382-15863.877c7.681-8.869,34.214-25.611,61.947-26.629,21.78-.8,44.5,12.045,57.993,20.637,30.314,19.307,61.947,14.645,90.944-5.326s56.016-26.631,83.036-5.992,28.338,67.242,7.249,90.541-56.016,15.313-61.289,27.3,1.977,45.936-29,60.58-50.085,1.33-60.629-9.32-28.338-21.969-47.449-14.646-27.02,15.979-65.9,4.66-61.948-41.275-63.925-75.229S2755.542-15847.9,2769.382-15863.877Z" transform="translate(-2754.779 15915.902)" fill="#061b2c"/>
    <g id="Group_822" data-name="Group 822" transform="translate(117.129 120.691)">
      <g id="Group_821" data-name="Group 821">
        <path id="Path_2423" data-name="Path 2423" d="M238.094,200.006a41.813,41.813,0,1,1-41.813-41.812A41.811,41.811,0,0,1,238.094,200.006Z" transform="translate(-154.469 -158.194)" fill="#fca01f"/>
        <g id="Group_820" data-name="Group 820" clip-path="url(#clip-path)">
          <g id="Group_819" data-name="Group 819" transform="translate(11.891 5.526)">
            <path id="Path_2424" data-name="Path 2424" d="M225.751,248.721c-2.805-3.277-25.028-10.469-25.028-10.469s-21.756,7.955-25.03,10.469-4.5,18.4-4.5,18.4h58.421S228.559,252,225.751,248.721Z" transform="translate(-171.191 -186.849)" fill="#003b62"/>
            <path id="Path_2425" data-name="Path 2425" d="M218.727,241.965l-10.116,3.86-10.119-3.86v-5.159a34.6,34.6,0,0,1,10.366-1.626,29.47,29.47,0,0,1,9.869,1.626Z" transform="translate(-179.078 -185.961)" fill="#002c47"/>
            <path id="Path_2426" data-name="Path 2426" d="M217.824,235.3l-8.595,3.862-8.6-3.862v-6.783h17.192Z" transform="translate(-179.697 -184.037)" fill="#d79563"/>
            <path id="Path_2427" data-name="Path 2427" d="M223.213,197.133V187.8c0-13.074-5.239-21.839-17.084-21.839s-17.083,8.765-17.083,21.839v9.33a50.377,50.377,0,0,0,4.99-4.854c1.074-1.218-2.591-7.915-1.474-10.73a15.22,15.22,0,0,1,4.825-5.845s1.44,1.663,7.805,2.248c6.526.6,8.8-3,8.8-3s.553,14.926,2.011,16.886A14.679,14.679,0,0,0,223.213,197.133Z" transform="translate(-176.349 -165.965)"/>
            <path id="Path_2428" data-name="Path 2428" d="M235.873,202.657c0,2.907-2.061,6.9-3.451,6.9s-2.514-2.356-2.514-5.264a6.25,6.25,0,0,1,2.514-5.263C233.769,197.979,235.873,199.031,235.873,202.657Z" transform="translate(-188.154 -175.406)" fill="#f9ab78"/>
            <path id="Path_2429" data-name="Path 2429" d="M187.674,202.657c0,2.907,2.06,6.9,3.45,6.9s2.516-2.356,2.516-5.264a6.242,6.242,0,0,0-2.516-5.263C189.779,197.979,187.674,199.031,187.674,202.657Z" transform="translate(-175.953 -175.406)" fill="#f9ab78"/>
            <path id="Path_2430" data-name="Path 2430" d="M207.348,171.885c-9.765,0-14.081,6.841-14.081,17.046V201.71c0,1.868.684,6.7,1.4,8.187,2.314,4.769,9.162,10.058,12.406,10.058s10.951-5.23,12.776-9.765a38.792,38.792,0,0,0,1.579-9.3V188.931C221.429,178.726,217.111,171.885,207.348,171.885Z" transform="translate(-177.569 -167.675)" fill="#f9ab78"/>
            <path id="Path_2431" data-name="Path 2431" d="M221.17,195.434l.877-5.3c.619-12.049-5.2-20.948-14.958-20.948s-15.077,10.188-14.7,20.948l.619,5.3s.023-3.978,1.988-6.083c.887-.952-.011-3.885.909-6.083a12.077,12.077,0,0,1,3.978-4.56s1.188,1.3,6.432,1.753c5.381.469,7.252-2.338,7.252-2.338s3.208.242,4.971,4.357c1.141,2.66.263,3.888.176,5.555S221.17,195.434,221.17,195.434Z" transform="translate(-177.31 -166.896)"/>
          </g>
        </g>
      </g>
    </g>
    <g id="Group_826" data-name="Group 826" transform="translate(208.083 28.381)">
      <g id="Group_825" data-name="Group 825">
        <path id="Path_2433" data-name="Path 2433" d="M366,70.194a41.812,41.812,0,1,1-41.811-41.813A41.812,41.812,0,0,1,366,70.194Z" transform="translate(-282.376 -28.381)" fill="#8c9527"/>
        <g id="Group_824" data-name="Group 824" clip-path="url(#clip-path-2)">
          <g id="Group_823" data-name="Group 823" transform="translate(13.426 5.475)">
            <path id="Path_2434" data-name="Path 2434" d="M357.491,64.959c-2.221.741.26,9.574,2.815,6.027.166,1.3-.464,2.665-1.912,2.6-.348,1.492,1.859,1.209,1.9,2.956.044,1.725-1.573,1.572-1.579,3.157a2.233,2.233,0,0,0,2.982,1.973c1.629-.577,1.754-1.986,2.1-3.226a4.4,4.4,0,0,1,.2,4.38c1.028.127,1.561-.8,1.6-1.709a2.868,2.868,0,0,1-.193,2.939c.4-.087.95.121,1.355.056.261,1.532-1.04,3.247-2.249,4.141-1.306.965-3.924.751-1.764,2.543,1.591,1.321,2.935.562,2.987,3.115.038,1.828-.835,3.536-2.776,3.479a.586.586,0,0,0-.131-.308,4.337,4.337,0,0,1-.439,5.714c.3-.956.45-2.312-.479-2.9.128.738.026,1.5-.707,1.766.3,3.43-6.149,3.607-8.45,3.829-1.749.167-3.36.889-5.088,1.06a34.139,34.139,0,0,1-5.062-.211c-.157-7.1-3.939-13.524-6.478-20.023-1.146-2.935.543-4.693,2.632-6.976,3.006-3.287,6.283-6.137,8.907-9.64Z" transform="translate(-311.223 -44.423)" fill="#261513"/>
            <path id="Path_2435" data-name="Path 2435" d="M310.976,64.959c2.221.741-.26,9.574-2.815,6.027-.166,1.3.463,2.665,1.911,2.6.35,1.492-1.858,1.209-1.9,2.956-.045,1.725,1.572,1.572,1.578,3.157a2.233,2.233,0,0,1-2.982,1.973c-1.63-.577-1.755-1.986-2.107-3.226a4.4,4.4,0,0,0-.2,4.38c-1.028.127-1.56-.8-1.6-1.709a2.873,2.873,0,0,0,.192,2.939c-.4-.087-.949.121-1.353.056-.26,1.532,1.041,3.247,2.249,4.141,1.308.965,3.925.751,1.764,2.543-1.591,1.321-2.935.562-2.988,3.115-.038,1.828.836,3.536,2.778,3.479a.591.591,0,0,1,.131-.308,4.336,4.336,0,0,0,.439,5.714c-.3-.956-.452-2.312.478-2.9-.126.738-.025,1.5.708,1.766-.3,3.43,6.15,3.607,8.451,3.829,1.749.167,3.361.889,5.089,1.06a34.107,34.107,0,0,0,5.059-.211c.159-7.1,3.941-13.524,6.479-20.023,1.146-2.935-.544-4.693-2.632-6.976-3.007-3.287-6.283-6.137-8.907-9.64Z" transform="translate(-301.376 -44.423)" fill="#261513"/>
            <path id="Path_2436" data-name="Path 2436" d="M352.323,117.3c-2.628-3.275-23.425-10.469-23.425-10.469s-20.363,7.955-23.426,10.469-4.215,18.4-4.215,18.4h54.678S354.949,120.58,352.323,117.3Z" transform="translate(-301.256 -56.522)" fill="#cc3446"/>
            <path id="Path_2437" data-name="Path 2437" d="M343.916,108.247s-.8,3.859-6.442,3.859-6.44-3.859-6.44-3.859a8.574,8.574,0,0,0,0-6.785c-1.571-3.663,14.8-4.406,12.882,0S343.916,108.247,343.916,108.247Z" transform="translate(-309.828 -54.093)" fill="#d79563"/>
            <path id="Path_2438" data-name="Path 2438" d="M346.192,75.762c.409-5.5,3.9-13.42,3.9-13.42,4.961-11.095-3-27.305-9.8-22.68-7.282-9.714-31.728,1.163-24.366,22.529,0,0,3.024,7.366,3.315,12.8s10.063,10.661,13.2,10.837S345.783,81.259,346.192,75.762Z" transform="translate(-305.098 -36.08)" fill="#261513"/>
            <path id="Path_2439" data-name="Path 2439" d="M363.308,75.846c0,2.906-2.06,6.9-3.45,6.9s-2.515-2.356-2.515-5.264a6.24,6.24,0,0,1,2.515-5.263C361.2,71.168,363.308,72.221,363.308,75.846Z" transform="translate(-317.46 -46.409)" fill="#f9ab78"/>
            <path id="Path_2440" data-name="Path 2440" d="M315.108,75.846c0,2.906,2.061,6.9,3.45,6.9s2.514-2.356,2.514-5.264a6.24,6.24,0,0,0-2.514-5.263C317.213,71.168,315.108,72.221,315.108,75.846Z" transform="translate(-305.258 -46.409)" fill="#f9ab78"/>
            <path id="Path_2441" data-name="Path 2441" d="M334.78,45.074c-9.763,0-14.081,6.841-14.081,17.046V74.9c0,8.889,10.27,16.492,13.514,16.492s14.649-8.89,14.649-17.31V62.12C348.862,51.915,344.545,45.074,334.78,45.074Z" transform="translate(-306.873 -38.678)" fill="#f9ab78"/>
            <path id="Path_2442" data-name="Path 2442" d="M348.427,68.887l.411-5.3c2.128-10.317-4.638-20.3-14.4-20.3s-17.334,10.888-14.723,21.2l.55,6.029a7.233,7.233,0,0,0,2.208-4.444c.435-3.8,3.2-7.518,8.538-8.537,8.422-1.609,10.787-6.659,10.787-6.659a40.692,40.692,0,0,1,3.54,6.659c1.139,2.66,0,4.29.984,6.947A23.012,23.012,0,0,0,348.427,68.887Z" transform="translate(-306.438 -38.163)" fill="#261513"/>
          </g>
        </g>
      </g>
    </g>
    <g id="Group_830" data-name="Group 830" transform="translate(25.221 120.689)">
      <g id="Group_829" data-name="Group 829">
        <path id="Path_2444" data-name="Path 2444" d="M108.845,200a41.812,41.812,0,1,1-41.811-41.814A41.811,41.811,0,0,1,108.845,200Z" transform="translate(-25.221 -158.191)" fill="#f9d08f"/>
        <g id="Group_828" data-name="Group 828" clip-path="url(#clip-path-3)">
          <g id="Group_827" data-name="Group 827" transform="translate(13.906 5.414)">
            <path id="Path_2445" data-name="Path 2445" d="M95.842,247.115c-2.627-3.275-23.426-10.467-23.426-10.467S52.056,244.6,48.99,247.115s-4.214,18.4-4.214,18.4H99.454S98.469,250.391,95.842,247.115Z" transform="translate(-44.776 -186.271)" fill="#1f2426"/>
            <path id="Path_2446" data-name="Path 2446" d="M87.436,238.058s-.8,3.86-6.443,3.86-6.44-3.86-6.44-3.86a8.58,8.58,0,0,0,0-6.785c-1.57-3.664,14.8-4.406,12.882,0S87.436,238.058,87.436,238.058Z" transform="translate(-53.348 -183.842)" fill="#d79563"/>
            <path id="Path_2447" data-name="Path 2447" d="M89.746,205.548c.41-5.5,3.9-13.421,3.9-13.421,4.961-11.093-.186-27.82-9.8-22.679-11.9-10.871-30.735,4.333-24.365,22.528,0,0,3.021,7.368,3.314,12.805s10.063,16.31,13.2,16.484S89.337,211.044,89.746,205.548Z" transform="translate(-48.653 -165.804)" fill="#341e1e"/>
            <path id="Path_2448" data-name="Path 2448" d="M106.828,205.658c0,2.906-2.063,6.9-3.451,6.9s-2.515-2.358-2.515-5.264a6.245,6.245,0,0,1,2.515-5.263C104.723,200.98,106.828,202.032,106.828,205.658Z" transform="translate(-60.979 -176.159)" fill="#f9ab78"/>
            <path id="Path_2449" data-name="Path 2449" d="M58.626,205.658c0,2.906,2.061,6.9,3.45,6.9s2.515-2.358,2.515-5.264a6.243,6.243,0,0,0-2.515-5.263C60.731,200.98,58.626,202.032,58.626,205.658Z" transform="translate(-48.777 -176.159)" fill="#f9ab78"/>
            <path id="Path_2450" data-name="Path 2450" d="M78.3,174.883c-9.766,0-14.081,6.843-14.081,17.048V204.71c0,8.888,10.268,16.49,13.513,16.49s14.649-8.888,14.649-17.307V191.931C92.382,181.726,88.065,174.883,78.3,174.883Z" transform="translate(-50.393 -168.427)" fill="#f9ab78"/>
            <path id="Path_2451" data-name="Path 2451" d="M91.977,198.838l.877-7.447c0-10.206-5.194-17.809-14.958-17.809s-15.076,8.7-15.076,18.9l.995,7.986a5.447,5.447,0,0,0,2.207-4.444c-.234-6.551,3.2-7.518,8.538-8.538,8.42-1.607,10.787-6.659,10.787-6.659s2.762.936,4.525,5.052c1.141,2.659-.351,5.554-.439,7.22S91.977,198.838,91.977,198.838Z" transform="translate(-49.989 -168.052)" fill="#341e1e"/>
            <path id="Path_2452" data-name="Path 2452" d="M84.1,232.525a11.19,11.19,0,0,1-2.964,0c1.579,2.426,0,5.862,0,5.862H84.1A7.941,7.941,0,0,1,84.1,232.525Z" transform="translate(-55.281 -185.08)" fill="#341e1e"/>
          </g>
        </g>
      </g>
    </g>
    <g id="Group_835" data-name="Group 835" transform="translate(117.129 28.382)">
      <g id="Group_834" data-name="Group 834">
        <path id="Path_2454" data-name="Path 2454" d="M238.094,70.195a41.813,41.813,0,1,1-41.813-41.813A41.812,41.812,0,0,1,238.094,70.195Z" transform="translate(-154.469 -28.382)" fill="#60afba"/>
        <g id="Group_833" data-name="Group 833" clip-path="url(#clip-path-4)">
          <g id="Group_832" data-name="Group 832" transform="translate(12.987 5.413)">
            <path id="Path_2455" data-name="Path 2455" d="M223.8,117.3c-2.627-3.277-23.425-10.469-23.425-10.469s-20.362,7.956-23.428,10.469-4.211,18.4-4.211,18.4h54.676S226.423,120.581,223.8,117.3Z" transform="translate(-172.733 -56.46)" fill="#002a50"/>
            <path id="Path_2456" data-name="Path 2456" d="M215.389,108.246a4.943,4.943,0,0,1-2.9,3.192c-.889.4-2.044,5.467-3.538,5.467-1.577,0-2.778-5.1-3.686-5.536a4.92,4.92,0,0,1-2.753-3.123,8.576,8.576,0,0,0,0-6.784c-1.569-3.664,14.8-4.407,12.882,0S215.389,108.246,215.389,108.246Z" transform="translate(-181.304 -54.032)" fill="#d79563"/>
            <path id="Path_2457" data-name="Path 2457" d="M218.949,75.622c1.2-5.382,2.647-13.305,2.647-13.305,4.961-11.095-.184-27.819-9.8-22.678-11.9-10.871-30.734,4.333-24.365,22.528A127.832,127.832,0,0,0,189.438,75.8c1.393,5.963,11.671,10.4,14.809,10.571S217.682,81.324,218.949,75.622Z" transform="translate(-176.609 -35.994)" fill="#1d100f"/>
            <path id="Path_2458" data-name="Path 2458" d="M234.781,75.847c0,2.906-2.061,6.9-3.45,6.9s-2.516-2.358-2.516-5.264a6.24,6.24,0,0,1,2.516-5.262C232.677,71.168,234.781,72.221,234.781,75.847Z" transform="translate(-188.936 -46.348)" fill="#f9ab78"/>
            <path id="Path_2459" data-name="Path 2459" d="M186.582,75.847c0,2.906,2.061,6.9,3.448,6.9s2.517-2.358,2.517-5.264a6.24,6.24,0,0,0-2.517-5.262C188.687,71.168,186.582,72.221,186.582,75.847Z" transform="translate(-176.734 -46.348)" fill="#f9ab78"/>
            <path id="Path_2460" data-name="Path 2460" d="M206.254,45.073c-9.766,0-14.082,6.842-14.082,17.046V74.9c0,8.889,10.269,16.49,13.514,16.49S220.334,82.5,220.334,74.08V62.119C220.334,51.915,216.018,45.073,206.254,45.073Z" transform="translate(-178.349 -38.617)" fill="#f9ab78"/>
            <path id="Path_2461" data-name="Path 2461" d="M220.13,69.026l.88-7.446c0-10.2-5.2-17.809-14.96-17.809s-14.584,7.6-14.584,17.809l.5,9.083a9.535,9.535,0,0,0,1.055-4.827c-.235-6.551,4.35-7.135,9.692-8.156,8.422-1.608,10.788-6.658,10.788-6.658s2.76.935,4.523,5.05a22.711,22.711,0,0,1,1.318,8.4A17.952,17.952,0,0,0,220.13,69.026Z" transform="translate(-178.145 -38.241)" fill="#1d100f"/>
            <g id="Group_831" data-name="Group 831" transform="translate(12.641 23.339)">
              <path id="Path_2462" data-name="Path 2462" d="M197.821,68.815c-3.778,0-6.14,1.4-6.14,2.895,0,2.369.865,6.214,4.616,6.667,3.629.438,8.367-.877,8.367-6.93C204.664,70.044,201.6,68.815,197.821,68.815Zm-1.254,8.879c-3.212-.388-3.951-3.679-3.951-5.707,0-1.276,2.022-2.478,5.256-2.478s5.858,1.052,5.858,2.252C203.731,76.944,199.676,78.07,196.567,77.694Z" transform="translate(-190.848 -68.815)" fill="#9a0007"/>
              <path id="Path_2463" data-name="Path 2463" d="M212.071,73.629a1.3,1.3,0,0,0-1.424-.922c-.854,0-1.072,1.01-1.072,1.01l-.452-2.664a2.3,2.3,0,0,0,1.04.537,4.122,4.122,0,0,0,1.142,0,1.684,1.684,0,0,0,.766-.537Z" transform="translate(-195.887 -69.462)" fill="#9a0007"/>
              <path id="Path_2464" data-name="Path 2464" d="M191.87,75.209s-1.36-.1-1.36-.794v-2.1c0-1.1,1.36-.747,1.36-.747Z" transform="translate(-190.51 -69.595)" fill="#9a0007"/>
              <path id="Path_2465" data-name="Path 2465" d="M212.413,71.447c0,6.052,4.737,7.368,8.367,6.93,3.751-.454,4.615-4.3,4.615-6.667,0-1.49-2.362-2.895-6.141-2.895S212.413,70.044,212.413,71.447Zm.935.314c0-1.2,2.622-2.252,5.857-2.252s5.256,1.2,5.256,2.478c0,2.027-.739,5.319-3.95,5.707C217.4,78.07,213.348,76.944,213.348,71.761Z" transform="translate(-196.838 -68.815)" fill="#9a0007"/>
              <path id="Path_2466" data-name="Path 2466" d="M229.929,75.209s1.36-.1,1.36-.794v-2.1c0-1.1-1.36-.747-1.36-.747Z" transform="translate(-201.898 -69.595)" fill="#9a0007"/>
            </g>
          </g>
        </g>
      </g>
    </g>
    <g id="Group_839" data-name="Group 839" transform="translate(25.221 28.382)">
      <g id="Group_838" data-name="Group 838">
        <path id="Path_2468" data-name="Path 2468" d="M108.845,70.195A41.812,41.812,0,1,1,67.034,28.382,41.811,41.811,0,0,1,108.845,70.195Z" transform="translate(-25.221 -28.382)" fill="#988bc1"/>
        <g id="Group_837" data-name="Group 837" clip-path="url(#clip-path-5)">
          <g id="Group_836" data-name="Group 836" transform="translate(13.815 5.474)">
            <path id="Path_2469" data-name="Path 2469" d="M91.2,76.4c.409-5.5,1.082-14.054,1.082-14.054,4.961-11.095-3-27.3-9.8-22.678C75.2,29.948,50.751,40.827,58.114,62.191a67.885,67.885,0,0,1-.974,13.8c-1.843,9.493-5.168,19.744-2.095,22.095,4.326,3.31,36.155,3.68,38.094,1.206C96.282,95.285,90.79,81.893,91.2,76.4Z" transform="translate(-47.291 -36.08)" fill="#dd1a1e"/>
            <path id="Path_2470" data-name="Path 2470" d="M95.715,117.305c-2.628-3.276-23.425-10.468-23.425-10.468s-20.362,7.955-23.427,10.468-4.214,18.4-4.214,18.4H99.327S98.341,120.581,95.715,117.305Z" transform="translate(-44.649 -56.522)" fill="#132e2a"/>
            <path id="Path_2471" data-name="Path 2471" d="M87.308,108.246s-.8,3.86-6.443,3.86-6.44-3.86-6.44-3.86a8.573,8.573,0,0,0,0-6.784c-1.57-3.664,14.8-4.407,12.882,0S87.308,108.246,87.308,108.246Z" transform="translate(-53.221 -54.093)" fill="#d79563"/>
            <path id="Path_2472" data-name="Path 2472" d="M106.7,75.847c0,2.906-2.061,6.9-3.45,6.9s-2.516-2.357-2.516-5.264a6.238,6.238,0,0,1,2.516-5.262C104.6,71.169,106.7,72.222,106.7,75.847Z" transform="translate(-60.852 -46.41)" fill="#f9ab78"/>
            <path id="Path_2473" data-name="Path 2473" d="M58.5,75.847c0,2.906,2.063,6.9,3.451,6.9s2.514-2.357,2.514-5.264a6.243,6.243,0,0,0-2.514-5.262C60.605,71.169,58.5,72.222,58.5,75.847Z" transform="translate(-48.65 -46.41)" fill="#f9ab78"/>
            <path id="Path_2474" data-name="Path 2474" d="M78.173,45.073c-9.765,0-14.082,6.842-14.082,17.046V74.9c0,8.888,10.27,16.49,13.514,16.49S92.253,82.5,92.253,74.08V62.119C92.253,51.915,87.937,45.073,78.173,45.073Z" transform="translate(-50.266 -38.678)" fill="#f9ab78"/>
            <path id="Path_2475" data-name="Path 2475" d="M91.818,68.886l.412-5.3c2.128-10.317-4.638-20.3-14.4-20.3S60.493,54.179,63.105,64.495l.55,6.029a7.227,7.227,0,0,0,2.207-4.444c.252-2.189,1.094-11.036,1.094-11.036l1.072,5.223,11.778.774,2.015-4.134.809,4.321,3.743.244,2.411-7.23s.336,6.278,1.086,11.01C90.339,68.209,91.818,68.886,91.818,68.886Z" transform="translate(-49.831 -38.163)" fill="#dd1a1e"/>
          </g>
        </g>
      </g>
    </g>
    <g id="Group_844" data-name="Group 844" transform="translate(208.083 120.689)">
      <g id="Group_843" data-name="Group 843">
        <path id="Path_2477" data-name="Path 2477" d="M366,200.005a41.812,41.812,0,1,1-41.811-41.813A41.811,41.811,0,0,1,366,200.005Z" transform="translate(-282.376 -158.192)" fill="#988bc1"/>
        <g id="Group_842" data-name="Group 842" clip-path="url(#clip-path-6)">
          <g id="Group_840" data-name="Group 840" transform="translate(13.814 7.098)">
            <path id="Path_2478" data-name="Path 2478" d="M313.458,216.866c3.5,7.914,32.309,8.722,36.423.86-4.827-3.287-1.016-15.709-1.016-15.709l1.3-9.2c2.933-11.761-7.2-29.415-17.218-23.187-5.859-5.8-20.378,6.605-16.949,23.037l.065,7.521S319,214.081,313.458,216.866Z" transform="translate(-305.17 -168.174)" fill="#341e13"/>
            <path id="Path_2479" data-name="Path 2479" d="M352.87,247.115c-2.628-3.275-23.425-10.467-23.425-10.467s-20.362,7.955-23.426,10.467-4.215,18.4-4.215,18.4h54.679S355.5,250.393,352.87,247.115Z" transform="translate(-301.803 -187.956)" fill="#5067ad"/>
            <path id="Path_2480" data-name="Path 2480" d="M344.463,238.058s-.8,3.859-6.442,3.859-6.44-3.859-6.44-3.859a8.575,8.575,0,0,0,0-6.785c-1.57-3.664,14.8-4.406,12.882,0S344.463,238.058,344.463,238.058Z" transform="translate(-310.375 -185.527)" fill="#d79563"/>
            <path id="Path_2481" data-name="Path 2481" d="M363.856,205.657c0,2.908-2.061,6.9-3.45,6.9s-2.514-2.357-2.514-5.264a6.245,6.245,0,0,1,2.514-5.263C361.751,200.98,363.856,202.032,363.856,205.657Z" transform="translate(-318.007 -177.844)" fill="#f9ab78"/>
            <path id="Path_2482" data-name="Path 2482" d="M315.654,205.657c0,2.908,2.062,6.9,3.45,6.9s2.514-2.357,2.514-5.264a6.245,6.245,0,0,0-2.514-5.263C317.76,200.98,315.654,202.032,315.654,205.657Z" transform="translate(-305.805 -177.844)" fill="#f9ab78"/>
            <path id="Path_2483" data-name="Path 2483" d="M335.328,174.885c-9.766,0-14.082,6.841-14.082,17.046v12.779c0,8.888,10.27,16.491,13.514,16.491s14.649-8.889,14.649-17.31v-11.96C349.409,181.726,345.092,174.885,335.328,174.885Z" transform="translate(-307.42 -170.113)" fill="#f9ab78"/>
            <path id="Path_2484" data-name="Path 2484" d="M348.974,198.7l.411-5.3c2.128-10.317-4.638-20.3-14.4-20.3s-17.336,10.89-14.723,21.206l.55,6.029a7.226,7.226,0,0,0,2.208-4.444s10.979-5.578,11.639-15.934c3.5,8.749,12.368,15.105,12.368,15.105C347.495,198.02,348.974,198.7,348.974,198.7Z" transform="translate(-306.985 -169.597)" fill="#341e13"/>
          </g>
          <g id="Group_841" data-name="Group 841" transform="translate(27.34 29.942)">
            <path id="Path_2485" data-name="Path 2485" d="M328.136,200.3c-3.779,0-6.141,1.4-6.141,2.895,0,2.369.864,6.213,4.616,6.667,3.63.438,8.366-.878,8.366-6.93C334.977,201.527,331.915,200.3,328.136,200.3Zm-1.256,8.879c-3.211-.388-3.951-3.679-3.951-5.707,0-1.276,2.022-2.479,5.256-2.479s5.858,1.052,5.858,2.253C334.044,208.428,329.988,209.553,326.88,209.178Z" transform="translate(-321.162 -200.299)" fill="#9a0007"/>
            <path id="Path_2486" data-name="Path 2486" d="M342.385,205.113a1.3,1.3,0,0,0-1.425-.922c-.854,0-1.071,1.01-1.071,1.01l-.453-2.664a2.3,2.3,0,0,0,1.041.537,4.145,4.145,0,0,0,1.141,0,1.683,1.683,0,0,0,.767-.537Z" transform="translate(-326.201 -200.946)" fill="#9a0007"/>
            <path id="Path_2487" data-name="Path 2487" d="M322.184,206.693s-1.36-.1-1.36-.794v-2.1c0-1.1,1.36-.747,1.36-.747Z" transform="translate(-320.824 -201.079)" fill="#9a0007"/>
            <path id="Path_2488" data-name="Path 2488" d="M342.726,202.931c0,6.052,4.737,7.368,8.367,6.93,3.752-.454,4.615-4.3,4.615-6.667,0-1.49-2.362-2.895-6.14-2.895S342.726,201.527,342.726,202.931Zm.935.314c0-1.2,2.622-2.253,5.856-2.253s5.257,1.2,5.257,2.479c0,2.027-.74,5.318-3.95,5.707C347.716,209.553,343.661,208.428,343.661,203.245Z" transform="translate(-327.152 -200.299)" fill="#9a0007"/>
            <path id="Path_2489" data-name="Path 2489" d="M360.243,206.693s1.36-.1,1.36-.794v-2.1c0-1.1-1.36-.747-1.36-.747Z" transform="translate(-332.212 -201.079)" fill="#9a0007"/>
          </g>
        </g>
      </g>
    </g>
  </g>
</svg>
