<svg xmlns="http://www.w3.org/2000/svg" xmlns:xlink="http://www.w3.org/1999/xlink" width="960" height="1080" viewBox="0 0 960 1080">
  <defs>
    <clipPath id="clip-path">
      <rect id="Rectangle_734" data-name="Rectangle 734" width="960" height="1080" fill="#fff" stroke="#707070" stroke-width="1"/>
    </clipPath>
  </defs>
  <g id="Mask_Group_8" data-name="Mask Group 8" clip-path="url(#clip-path)">
    <g id="undraw_our_solution_htvp" transform="translate(122.964 296.051)">
      <ellipse id="Ellipse_101" data-name="Ellipse 101" cx="357.036" cy="22.41" rx="357.036" ry="22.41" transform="translate(0 443.077)" fill="#d0cde1"/>
      <rect id="Rectangle_736" data-name="Rectangle 736" width="415.282" height="169.411" transform="translate(149.395)" fill="#3f3d56"/>
      <path id="Path_1211" data-name="Path 1211" d="M434.077,227.259H403.115a108.288,108.288,0,0,1,0-36.916h30.961A66.423,66.423,0,0,0,434.077,227.259Z" transform="translate(-224.997 -164.191)" fill="#ff6584"/>
      <path id="Path_1212" data-name="Path 1212" d="M531.98,213.357h30.961a108.29,108.29,0,0,0,0-36.916H531.98a66.423,66.423,0,0,1,0,36.916Z" transform="translate(-258.415 -160.63)" fill="#343a41"/>
      <path id="Path_1213" data-name="Path 1213" d="M792.725,248.147q24.541.258,49.031-1.515l-1.084-1.423c-2.673,6.772-2.6,13.909-2.245,21.073.089,1.795.652,4.215.288,5.993-.458,2.236-2.465,1.7-4.461,1.766q-6.594.213-13.192.306-6.231.088-12.462.069-2.932-.009-5.865-.042c-2.3-.026-4.9.641-5.5-2.018-.38-1.7,0-3.943,0-5.695l0-6.407.008-12.814a1.125,1.125,0,0,0-2.249,0L795,263.1l0,7.119c0,1.414-.295,3.122.233,4.465,1.214,3.088,6.462,1.929,8.978,1.953q7.7.071,15.394-.023t15.391-.349c2.21-.073,5.267.429,5.937-2.3.47-1.911-.078-4.4-.178-6.351-.114-2.225-.237-4.45-.267-6.678a39.111,39.111,0,0,1,2.362-15.133,1.13,1.13,0,0,0-1.084-1.423q-24.478,1.773-49.031,1.515a1.125,1.125,0,0,0,0,2.249Z" transform="translate(-324.933 -178.034)" fill="#f1f1f1"/>
      <path id="Path_1214" data-name="Path 1214" d="M799.1,250.315a165.014,165.014,0,0,1,20.437,8.825c5.927,3.063,13.686,6.409,17.764,11.883.855,1.147,2.808.027,1.942-1.135-4.165-5.59-11.335-8.879-17.358-12.057a168.972,168.972,0,0,0-22.187-9.685c-1.366-.486-1.954,1.686-.6,2.168Z" transform="translate(-326.648 -178.981)" fill="#f1f1f1"/>
      <path id="Path_1215" data-name="Path 1215" d="M843.65,245.667c-7.431,3.178-13.727,9.3-20.368,13.837q-10.783,7.366-22.207,13.71c-1.264.706-.131,2.649,1.135,1.942q11.4-6.366,22.207-13.71c6.64-4.536,12.939-10.66,20.368-13.837C846.112,247.041,844.967,245.1,843.65,245.667Z" transform="translate(-327.209 -178.337)" fill="#f1f1f1"/>
      <path id="Path_1216" data-name="Path 1216" d="M597.112,254.247q22.739.346,45.476-.181a1.125,1.125,0,0,0,0-2.249q-22.735.527-45.476.181a1.125,1.125,0,0,0,0,2.249Z" transform="translate(-274.822 -179.939)" fill="#f1f1f1"/>
      <path id="Path_1217" data-name="Path 1217" d="M598.826,267.948q23.376.373,46.75-.2a1.125,1.125,0,0,0,0-2.249q-23.372.574-46.75.2a1.125,1.125,0,0,0,0,2.249Z" transform="translate(-275.261 -183.444)" fill="#f1f1f1"/>
      <path id="Path_1218" data-name="Path 1218" d="M596.533,282.11l44.2-2.053c1.441-.067,1.449-2.316,0-2.249l-44.2,2.053C595.092,279.928,595.084,282.177,596.533,282.11Z" transform="translate(-274.674 -186.597)" fill="#f1f1f1"/>
      <path id="Path_1219" data-name="Path 1219" d="M689.1,268.443h42.073a1.125,1.125,0,0,0,0-2.249H689.1a1.125,1.125,0,0,0,0,2.249Z" transform="translate(-298.386 -183.622)" fill="#f1f1f1"/>
      <path id="Path_1220" data-name="Path 1220" d="M742.418,251.28l6.573,6c.752.686,2.82,2.1,3.287,3,.966,1.855-.072,1.432-1.727,2.075a37,37,0,0,0-11.067,6.872c-1.088.959.508,2.544,1.59,1.59a34.354,34.354,0,0,1,10.075-6.294c1.326-.525,3.842-.832,4.472-2.411.771-1.933-1.685-3.36-2.848-4.422l-8.764-8c-1.067-.974-2.662.612-1.59,1.59Z" transform="translate(-311.479 -179.316)" fill="#f1f1f1"/>
      <path id="Path_1221" data-name="Path 1221" d="M606.285,357.239h30.961a108.29,108.29,0,0,0,0-36.916H606.285A66.422,66.422,0,0,1,606.285,357.239Z" transform="translate(-277.45 -197.488)" fill="#343a41"/>
      <path id="Path_1222" data-name="Path 1222" d="M432.949,319.951H463.91a108.289,108.289,0,0,0,0-36.916H432.949a66.423,66.423,0,0,1,0,36.916Z" transform="translate(-233.046 -187.936)" fill="#343a41"/>
      <path id="Path_1223" data-name="Path 1223" d="M695.977,211.112h30.961a108.29,108.29,0,0,0,0-36.916H695.977A66.423,66.423,0,0,1,695.977,211.112Z" transform="translate(-300.427 -160.054)" fill="#343a41"/>
      <path id="Path_1224" data-name="Path 1224" d="M940.512,574.247l4.035,16.143-17.756,4.843-1.615-16.95Z" transform="translate(-237.007 -147.108)" fill="#fbbebe"/>
      <path id="Path_1225" data-name="Path 1225" d="M851.756,600.264V615.6L834,618.828l-3.228-8.072,6.457-13.722Z" transform="translate(-212.822 -152.945)" fill="#fbbebe"/>
      <path id="Path_1226" data-name="Path 1226" d="M1046.188,531.939l-2.421,21.793,1.614,41.971a2.372,2.372,0,0,1,2.421,2.421c0,2.421-2.421,1.614,0,3.229a41.938,41.938,0,0,0,4.036,2.421l25.829,78.293s-6.457,8.071-18.564,5.65l-2.421-8.071s-4.843-4.843-4.843-7.264,1.614-3.229,0-5.65-25.828-51.657-25.828-51.657l-11.3-20.179-3.229,27.443s6.457,34.707,4.843,50.85-4.843,33.093-4.843,33.093l-19.371-3.229a13.477,13.477,0,0,0-2.421-7.264c-2.421-3.229-5.65-2.421-2.421-4.843s7.264,0,4.036-3.229a10,10,0,0,1-3.229-6.457v-2.421l-4.843-62.15-8.879-81.521Z" transform="translate(-371.74 -251.699)" fill="#2f2e41"/>
      <circle id="Ellipse_102" data-name="Ellipse 102" cx="21.793" cy="21.793" r="21.793" transform="translate(597.769 89.754)" fill="#fbbebe"/>
      <path id="Path_1227" data-name="Path 1227" d="M849.824,150.506,858.7,172.3l-20.985,15.335-12.914-22.6Z" transform="translate(-211.293 -38.556)" fill="#fbbebe"/>
      <path id="Path_1228" data-name="Path 1228" d="M1010.844,326.546l8.072-4.036,4.843,11.3s31.479,9.686,29.057,54.079-8.071,61.343-8.071,61.343,13.721,29.057,5.65,32.286-76.679,15.336-78.293,4.036,5.65-77.486,5.65-77.486-2.421-47.621,17.757-57.307l-4.036-8.879Z" transform="translate(-371.103 -198.049)" fill="#d0cde1"/>
      <path id="Path_1229" data-name="Path 1229" d="M960.7,538.45s-18.564,19.371-8.072,24.214,16.95-21.793,16.95-21.793Z" transform="translate(-365.351 -253.367)" fill="#fbbebe"/>
      <path id="Path_1230" data-name="Path 1230" d="M1001.162,766.748l8.879-3.229s9.686,21.793,1.614,21.793H990.669s-12.107-4.036-18.564-4.036-18.564-12.107-9.686-17.757,20.179-4.036,20.179-4.036l3.229-7.264,4.036,11.3S994.7,771.591,1001.162,766.748Z" transform="translate(-367.878 -308.129)" fill="#2f2e41"/>
      <path id="Path_1231" data-name="Path 1231" d="M1096.1,746.211s5.054-3.189,7.774-2,4.333,14.105,4.333,14.105,8.071,9.686-9.686,11.3-21.793-1.614-23.407-6.457,1.614-9.686,1.614-9.686l4.843-1.614s5.65-4.036,4.036-5.65,0-4.843,0-4.843S1091.256,752.668,1096.1,746.211Z" transform="translate(-397.436 -305.35)" fill="#2f2e41"/>
      <path id="Path_1232" data-name="Path 1232" d="M996.671,293.5a10.7,10.7,0,0,0-.474-2.074c-1.171-2.457-5.741-1.74-6.556-4.338-.159-.508-.126-1.061-.282-1.571a3.187,3.187,0,0,0-3.283-1.881,17.735,17.735,0,0,0-3.935,1.013c-3.193.906-6.59.56-9.89.207a9.951,9.951,0,0,1-4.223-1.1,3.4,3.4,0,0,1-1.7-3.712c.436-1.338,1.9-2.073,2.558-3.316,1.045-1.974-.232-4.525.615-6.591,1.36-3.316,6.507-2.65,9.121-5.1.635-.595,1.092-1.355,1.7-1.977,1.8-1.845,4.655-2.2,7.223-1.947s5.092,1.009,7.672.963c2.447-.043,5.012-.788,7.267.163a10.364,10.364,0,0,1,3.414,2.8l5.783,6.343a7.128,7.128,0,0,1,1.788,2.693c.348,1.215.028,2.52.176,3.776.339,2.863,3.019,5.026,3.381,7.886a10.258,10.258,0,0,1-.128,2.656l-.81,5.973a4.447,4.447,0,0,1-.456,1.674c-.236.4-.592.72-.857,1.1-.749,1.083-.68,2.515-1.053,3.778s-1.707,2.513-2.874,1.9c-.762-.4-1.265-3.682-2.191-4.534-1.289-1.188-1.962-1.041-3.552-1.021C1001.926,297.316,997.69,297.59,996.671,293.5Z" transform="translate(-369.655 -182.302)" fill="#2f2e41"/>
      <path id="Path_1233" data-name="Path 1233" d="M998.71,368.075s24.214,9.686,16.95,31.479-26.636,88.786-26.636,88.786l-11.3,5.65-3.229,8.879-15.336-5.65,2.421-12.107s.807-.807.807-4.036-3.229-4.036.807-4.036S967.232,473,967.232,473l14.529-90.4S981.76,367.268,998.71,368.075Z" transform="translate(-367.848 -209.713)" fill="#d0cde1"/>
      <path id="Path_1234" data-name="Path 1234" d="M860.317,261.189,835.3,346.746,824.8,357.239l6.054-10.9Z" transform="translate(-211.293 -66.91)" opacity="0.1"/>
      <path id="Path_1235" data-name="Path 1235" d="M65.351,177.03l25.365,4.228L99.171,141.1l-20.433-8.455Z" transform="translate(-16.741 -33.979)" fill="#2f2e41"/>
      <circle id="Ellipse_103" data-name="Ellipse 103" cx="21.842" cy="21.842" r="21.842" transform="translate(61.644 91.264)" fill="#a0616a"/>
      <path id="Path_1236" data-name="Path 1236" d="M257.179,323.821s2.114,26.774-14.092,28.888,14.092,50.026,21.842,49.321,21.842-52.139,21.842-52.139-18.319-12.683-11.978-23.956Z" transform="translate(-183.205 -198.385)" fill="#a0616a"/>
      <path id="Path_1237" data-name="Path 1237" d="M227.182,454.045s2.818,20.433,11.273,20.433-5.637-23.251-5.637-23.251Z" transform="translate(-180.333 -231.023)" fill="#a0616a"/>
      <path id="Path_1238" data-name="Path 1238" d="M391.494,482.486s21.138,17.615,18.319,23.251S388.676,499.4,387.267,485.3Z" transform="translate(-221.343 -239.03)" fill="#a0616a"/>
      <path id="Path_1239" data-name="Path 1239" d="M211.792,573.421,198.4,623.447l-14.8,60.595H197.7s4.932-19.024,14.092-28.888c0,0,9.16-15.5,9.16-26.07l21.842-51.435Z" transform="translate(-169.171 -262.326)" fill="#a0616a"/>
      <path id="Path_1240" data-name="Path 1240" d="M299.172,574.056l4.228,47.207s-.7,33.82,0,41.571a155.387,155.387,0,0,1,0,19.024h12.683s11.978-41.571,8.455-64.117L329.47,564.9Z" transform="translate(-198.776 -260.142)" fill="#a0616a"/>
      <path id="Path_1241" data-name="Path 1241" d="M259.26,389.621s-18.983-15.044-14.071-36.058c0,0-19.044.828-26.795,8.579s2.114,33.82,2.114,33.82,16.91,28.184,14.092,40.866-33.116,79.618-23.251,83.846S281.1,539.7,311.4,515.037c0,0,7.75-69.754-23.251-92.3V405.122s5.637-4.932,2.818-17.615c0,0,11.978-21.842,4.932-26.07s-23.231-10.423-23.231-10.423S274.056,382.575,259.26,389.621Z" transform="translate(-175.773 -205.351)" fill="#2f2e41"/>
      <path id="Path_1242" data-name="Path 1242" d="M212.332,365.959s-9.16-1.409-18.319,11.978S160.9,412.462,172.17,423.031s41.571,17.615,41.571,17.615l7.046-12.683-30.3-14.8,25.365-19.024Z" transform="translate(-165.484 -209.168)" fill="#2f2e41"/>
      <path id="Path_1243" data-name="Path 1243" d="M318.775,365.974s9.864,0,14.092,11.978S361.755,430.8,361.755,430.8l14.092,21.842-9.864,11.273-27.479-31-26.07-42.98Z" transform="translate(-202.173 -209.183)" fill="#2f2e41"/>
      <path id="Path_1244" data-name="Path 1244" d="M196.824,720.245H177.1l-4.228,34.525s-11.273,18.319,5.637,16.206,11.273-21.138,11.273-21.138l4.228-7.046,1.409,14.8,1.409-.7V740.678S204.574,733.632,196.824,720.245Z" transform="translate(-165.477 -299.938)" fill="#2f2e41"/>
      <path id="Path_1245" data-name="Path 1245" d="M319.075,719.76l-18.319-1.409-3.523,39.457s-2.114,14.8,10.569,12.683,8.455-14.092,8.455-14.092V734.556Z" transform="translate(-198.245 -299.453)" fill="#2f2e41"/>
      <path id="Path_1246" data-name="Path 1246" d="M247.6,275.545s-10.265,3.422-10.786,16.934a23.968,23.968,0,0,0,.712,6.416c.578,2.45.95,7.72-3.53,14.608a144.614,144.614,0,0,0-8.207,14.117l-.032.064,11.273,1.409,2.4-18.686a93.051,93.051,0,0,1,7.389-26.233L246.9,284s4.932,9.16,14.8,9.16l-3.523-3.523s15.5,6.341,21.138,6.341c0,0,4.228,2.818,0,7.046s-12.683,14.092-7.75,21.842.7,9.864.7,9.864l7.75-4.228,3.523-2.114v2.818l18.319-2.114s4.932-.7-5.637-12.683c0,0-2.791-4.651-1.57-8.663a20.236,20.236,0,0,0,.769-9.464C293.051,285.076,283.762,258.815,247.6,275.545Z" transform="translate(-179.969 -184.633)" fill="#2f2e41"/>
      <path id="Path_1247" data-name="Path 1247" d="M792.348,772.56c-.1-.157-2.357-3.933-3.141-11.774-.719-7.194-.257-19.319,6.032-36.233,11.913-32.042-2.745-57.9-2.9-58.153l.723-.42a64.182,64.182,0,0,1,6.055,17.153,74.833,74.833,0,0,1-3.1,41.711c-11.893,31.987-3.051,47.13-2.961,47.279Z" transform="translate(-324.245 -286.037)" fill="#3f3d56"/>
      <circle id="Ellipse_104" data-name="Ellipse 104" cx="5.433" cy="5.433" r="5.433" transform="translate(458.011 367.616)" fill="#3f3d56"/>
      <circle id="Ellipse_105" data-name="Ellipse 105" cx="5.433" cy="5.433" r="5.433" transform="translate(475.146 387.676)" fill="#3f3d56"/>
      <circle id="Ellipse_106" data-name="Ellipse 106" cx="5.433" cy="5.433" r="5.433" transform="translate(463.444 401.05)" fill="#343a41"/>
      <circle id="Ellipse_107" data-name="Ellipse 107" cx="5.433" cy="5.433" r="5.433" transform="translate(477.654 412.333)" fill="#343a41"/>
      <circle id="Ellipse_108" data-name="Ellipse 108" cx="5.433" cy="5.433" r="5.433" transform="translate(459.265 429.886)" fill="#3f3d56"/>
      <path id="Path_1248" data-name="Path 1248" d="M797.63,801.475S792.2,788.1,808.5,778.071Z" transform="translate(-326.245 -314.752)" fill="#3f3d56"/>
      <path id="Path_1249" data-name="Path 1249" d="M781.5,804.353s-2.473-14.222-21.61-14.1Z" transform="translate(-316.801 -317.872)" fill="#3f3d56"/>
      <path id="Path_1250" data-name="Path 1250" d="M497.951,719.465c-.1-.157-2.357-3.933-3.141-11.773-.719-7.194-.257-19.319,6.032-36.233,11.913-32.042-2.745-57.9-2.9-58.153l.723-.42a64.175,64.175,0,0,1,6.055,17.153,74.833,74.833,0,0,1-3.1,41.711c-11.893,31.987-3.051,47.13-2.96,47.279Z" transform="translate(-248.828 -272.436)" fill="#d0cde1"/>
      <circle id="Ellipse_109" data-name="Ellipse 109" cx="5.433" cy="5.433" r="5.433" transform="translate(239.032 328.123)" fill="#3f3d56"/>
      <circle id="Ellipse_110" data-name="Ellipse 110" cx="5.433" cy="5.433" r="5.433" transform="translate(256.166 348.183)" fill="#3f3d56"/>
      <circle id="Ellipse_111" data-name="Ellipse 111" cx="5.433" cy="5.433" r="5.433" transform="translate(244.465 361.556)" fill="#d0cde1"/>
      <circle id="Ellipse_112" data-name="Ellipse 112" cx="5.433" cy="5.433" r="5.433" transform="translate(258.674 372.84)" fill="#d0cde1"/>
      <circle id="Ellipse_113" data-name="Ellipse 113" cx="5.433" cy="5.433" r="5.433" transform="translate(240.286 390.393)" fill="#3f3d56"/>
      <path id="Path_1251" data-name="Path 1251" d="M503.233,748.38s-5.433-13.373,10.866-23.4Z" transform="translate(-250.828 -301.151)" fill="#d0cde1"/>
      <path id="Path_1252" data-name="Path 1252" d="M487.107,751.258s-2.473-14.222-21.61-14.1Z" transform="translate(-241.384 -304.271)" fill="#d0cde1"/>
    </g>
  </g>
</svg>
