<svg xmlns="http://www.w3.org/2000/svg" xmlns:xlink="http://www.w3.org/1999/xlink" width="2367.101" height="1625.322" viewBox="0 0 2367.101 1625.322">
  <defs>
    <clipPath id="clip-path">
      <path id="Union_56" data-name="Union 56" d="M1315.471,1608.859C620.838,1608.859,0,1718.8,0,1247.082,0,1125.921,87.357,992.5,197.337,861.289c-33.893-3.334-71.01-11.583-99.167-30.011-40.5-26.509-63.923-110.339-63.923-140.215,0-34.59,3.207-96.923,12.372-121.658,11.736-31.67,30.3-48.114,47.124-48.114,16.264,0,45.776,17.761,53.741,48.114,6.465,24.634,2.236,54.985,7.734,93.478,0,26.28,11.127,54.171,46.051,77.669,29.578,19.9,70.675,18.416,82.569,17.5-1.46-121.3-1.041-234.611,22.464-297.6,23.56-63.137,70.912-69.463,98.153-69.463,26.856,0,81.6,28.861,97.483,90.6a315.275,315.275,0,0,1,6.658,34.767C771.475,228.571,964.654,0,1318.633,0c286.882,0,493.68,118.372,698.162,430.474,104.126,158.928,195.692,331.314,259.072,493.989,7.059-3.93,14.261-6.019,19.658-6.019,13.585,0,28.568,11.453,38.042,33.515,7.4,17.229,9.986,60.65,9.986,84.744,0,13.3-.288,41.95-9.027,65.718,23.533,89.479,35.274,172.557,32.049,244.559-15.6,234.021-149.443,278.34-415.134,278.344C1789.48,1625.324,1578.543,1608.859,1315.471,1608.859Z" transform="translate(0 0)" fill="#fff89e"/>
    </clipPath>
  </defs>
  <g id="no-data" clip-path="url(#clip-path)">
    <g id="Group_3541" data-name="Group 3541" transform="translate(-96.283 -150.929)">
      <rect id="Rectangle_1179" data-name="Rectangle 1179" width="2558.934" height="2030.682" transform="translate(0.222)" fill="#fff89e"/>
      <path id="Path_3079" data-name="Path 3079" d="M232.492,0H41.953S.982,3.981-.017,36.914s41.97,36.914,41.97,36.914h378.54s29.168-7.981,30.367-36.914S420.493,0,420.493,0Z" transform="translate(1937.134 510.318)" fill="#fff"/>
      <path id="Path_3080" data-name="Path 3080" d="M232.492,0H41.953S.982,3.981-.017,36.914s41.97,36.914,41.97,36.914h378.54s29.168-7.981,30.367-36.914S420.493,0,420.493,0Z" transform="translate(1625.321 573.318)" fill="#fff"/>
      <g id="Path_3081" data-name="Path 3081" transform="translate(1953.934 560.629)" fill="#fff">
        <path d="M 107.7393493652344 29.81036949157715 L 0.4999962449073792 21.65629768371582 L 0.4999962449073792 0.5000046491622925 L 111.1299133300781 0.5000046491622925 L 107.7393493652344 29.81036949157715 Z" stroke="none"/>
        <path d="M 1 0.9999980926513672 L 1 21.1928539276123 L 107.2979125976562 29.27536392211914 L 110.5687408447266 0.9999980926513672 L 1 0.9999980926513672 M 0 -1.9073486328125e-06 L 111.6910781860352 -1.9073486328125e-06 L 108.1808013916016 30.34538269042969 L 0 22.11970520019531 L 0 -1.9073486328125e-06 Z" stroke="none" fill="#fff"/>
      </g>
      <path id="Path_3082" data-name="Path 3082" d="M253.84,0H475.327s47.625,4.624,48.787,42.878-48.787,42.878-48.787,42.878H35.3S1.4,76.485,0,42.878,35.3,0,35.3,0Z" transform="translate(282.637 1127.318)" fill="#fff"/>
      <path id="Path_3083" data-name="Path 3083" d="M253.84,0H475.327s47.625,4.624,48.787,42.878-48.787,42.878-48.787,42.878H35.3S1.4,76.485,0,42.878,35.3,0,35.3,0Z" transform="translate(645.095 1200.496)" fill="#fff"/>
      <g id="Path_3084" data-name="Path 3084" transform="translate(656.534 1191.348)" fill="#fff">
        <path d="M 4.714177131652832 33.97686004638672 L 0.5657752752304077 0.4999986290931702 L 135.5648651123047 0.4999986290931702 L 135.5648651123047 24.68908500671387 L 4.714177131652832 33.97686004638672 Z" stroke="none"/>
        <path d="M 1.131576538085938 1 L 5.152023315429688 33.44452285766602 L 135.0648651123047 24.22331619262695 L 135.0648651123047 1 L 1.131576538085938 1 M 0 0 L 136.0648651123047 0 L 136.0648651123047 25.15485382080078 L 4.27630615234375 34.50919723510742 L 0 0 Z" stroke="none" fill="#fff"/>
      </g>
      <path id="Path_3085" data-name="Path 3085" d="M132.931,30.953c26.856,0,81.6,28.861,97.483,90.6,22.013,85.594,9.731,243.068,9.731,410.738v480.2s-91.239,28.136-125.787,28.136c-32.561,0-100.723-28.136-100.723-28.136v-480.2c0-165.938-10.963-345.847,21.141-431.879C58.337,37.278,105.69,30.953,132.931,30.953Z" transform="translate(367.807 510.967)" fill="#468a1f"/>
      <path id="Path_3086" data-name="Path 3086" d="M54.462,1.913c16.264,0,45.775,17.76,53.74,48.113,6.464,24.633,2.236,54.987,7.734,93.477,0,26.281,11.126,54.171,46.051,77.668S247.9,238.355,247.9,238.355v103.1S127.076,356.53,58.887,311.9C18.385,285.389-5.034,201.56-5.034,171.684c0-34.589,3.206-96.923,12.372-121.658C19.074,18.355,37.633,1.913,54.462,1.913Z" transform="translate(135.564 670.309)" fill="#468a1f"/>
      <path id="Path_3087" data-name="Path 3087" d="M42.995,1.913c13.13,0,36.953,12.372,43.382,33.515,5.218,17.159,1.8,38.3,6.243,65.115,0,18.307,8.981,37.735,37.175,54.1s69.357,11.97,69.357,11.97v71.818s-97.539,10.5-152.585-20.588c-32.7-18.467-51.6-76.862-51.6-97.673,0-24.095,2.588-67.516,9.987-84.746C14.427,13.366,29.41,1.913,42.995,1.913Z" transform="translate(1961.694 948.545)" fill="#468a1f"/>
      <path id="Path_3088" data-name="Path 3088" d="M151.123,1.913c-13.13,0-36.953,12.372-43.382,33.515-5.218,17.159-1.8,38.3-6.243,65.115,0,18.307-5.7,23.49-33.9,39.858s-72.635,0-72.635,0v77.446s115.743,31.09,170.789,0c32.7-18.467,33.4-76.862,33.4-97.673,0-24.095-2.588-67.516-9.987-84.746C179.691,13.366,164.708,1.913,151.123,1.913Z" transform="translate(2240.684 1067.459)" fill="#468a1f"/>
      <path id="Path_3089" data-name="Path 3089" d="M109.59,30.953c21.68,0,65.876,20.1,78.694,63.114,17.77,59.624,7.856,169.319,7.856,286.117v334.5s-73.654,19.6-101.543,19.6c-26.285,0-81.31-19.6-81.31-19.6v-334.5c0-115.591-8.85-240.914,17.066-300.843C49.374,35.359,87.6,30.953,109.59,30.953Z" transform="translate(2095.614 824.164)" fill="#468a1f"/>
      <g id="Path_3090" data-name="Path 3090" transform="translate(-21.806 1476.682)" fill="#b67847">
        <path d="M 22.80634689331055 552.6910400390625 L 22.80634689331055 153.0801391601562 C 24.21616744995117 151.8257598876953 30.21054840087891 146.605712890625 40.63447189331055 139.0283355712891 C 47.6604118347168 133.9208374023438 55.29415893554688 128.7577056884766 63.32384872436523 123.6823959350586 C 73.36041259765625 117.3383331298828 84.04759979248047 111.1142730712891 95.08791351318359 105.1827087402344 C 123.1897888183594 90.08489990234375 153.7229156494141 76.7698974609375 185.8391571044922 65.60708618164062 C 204.9079132080078 58.97927474975586 224.7544708251953 53.04646301269531 244.8269653320312 47.97364807128906 C 266.9072875976562 42.39333724975586 289.8072814941406 37.71552276611328 312.891357421875 34.07083511352539 C 318.5751037597656 33.17333602905273 324.9991455078125 31.66239929199219 332.4372863769531 29.91271209716797 C 339.4579162597656 28.26146125793457 347.4151000976562 26.3898983001709 356.9922790527344 24.47989845275879 C 368.0963439941406 22.26552391052246 379.1807250976562 20.44302368164062 390.8788452148438 18.9083366394043 C 405.2288513183594 17.0255241394043 420.7657165527344 15.56271076202393 437.0582275390625 14.56021118164062 C 455.9776000976562 13.39646148681641 476.6404113769531 12.80614852905273 498.472900390625 12.80614852905273 C 527.4688720703125 12.80614852905273 559.531982421875 13.8458366394043 593.7716674804688 15.89614868164062 C 631.9882202148438 18.18489837646484 674.0338745117188 21.7989616394043 718.7401123046875 26.63802337646484 C 787.1094970703125 34.03865051269531 864.4129028320312 45.80927276611328 955.067626953125 62.62239837646484 C 1034.433227539062 77.34177398681641 1111.295776367188 93.48645782470703 1185.627563476562 109.0995864868164 C 1254.043579101562 123.47021484375 1318.665405273438 137.0439605712891 1373.669799804688 146.9330291748047 C 1403.022338867188 152.210205078125 1427.650390625 156.0892791748047 1448.961669921875 158.7927093505859 C 1472.5869140625 161.7892761230469 1491.850463867188 163.3123931884766 1507.853271484375 163.4492797851562 C 1509.838500976562 163.4608306884766 1511.848510742188 163.4667663574219 1513.830444335938 163.4667663574219 C 1648.520385742188 163.4667663574219 1757.792236328125 136.8792724609375 1863.46630859375 111.1670837402344 C 1895.34228515625 103.4111480712891 1928.30322265625 95.39115142822266 1960.788818359375 88.45427703857422 C 1978.249755859375 84.72552490234375 1994.274169921875 81.57802581787109 2009.77734375 78.83145904541016 C 2027.143798828125 75.75458526611328 2043.446044921875 73.25052642822266 2059.615478515625 71.17646026611328 L 2059.645751953125 71.17271423339844 L 2059.67578125 71.16677093505859 C 2110.1279296875 61.53865051269531 2163.324462890625 54.28021240234375 2217.788330078125 49.59364700317383 C 2265.95361328125 45.44895935058594 2314.51318359375 43.34739685058594 2362.11865234375 43.34739685058594 C 2391.92822265625 43.34739685058594 2420.791015625 44.17771148681641 2447.905517578125 45.81552505493164 C 2473.070068359375 47.33521270751953 2495.979736328125 49.49833679199219 2515.99853515625 52.24396133422852 C 2525.50390625 53.54771041870117 2534.25 54.97427368164062 2541.994384765625 56.48396301269531 C 2549.61572265625 57.96958541870117 2556.297607421875 59.54146194458008 2561.8544921875 61.15614700317383 C 2567.36279296875 62.75646209716797 2571.771728515625 64.39958953857422 2574.95849609375 66.03990173339844 C 2578.55517578125 67.89081573486328 2579.948486328125 69.41385650634766 2580.47216796875 70.4140625 L 2580.47216796875 547.5912475585938 L 22.80634689331055 552.6910400390625 Z" stroke="none"/>
        <path d="M 498.47265625 13.80615234375 C 476.660400390625 13.80615234375 456.018310546875 14.39581298828125 437.119384765625 15.558349609375 C 420.85009765625 16.55926513671875 405.3359375 18.0198974609375 391.0087890625 19.89959716796875 C 379.3330078125 21.43145751953125 368.269775390625 23.25054931640625 357.1875 25.46051025390625 C 347.627197265625 27.3670654296875 339.67919921875 29.23675537109375 332.666259765625 30.88616943359375 C 325.20849609375 32.6405029296875 318.767822265625 34.15521240234375 313.04736328125 35.05865478515625 C 290.0048828125 38.69677734375 267.145751953125 43.36550903320312 245.10546875 48.93460083007812 C 225.069091796875 53.99740600585938 205.258544921875 59.91802978515625 186.22412109375 66.53207397460938 C 154.166259765625 77.671142578125 123.688232421875 90.95803833007812 95.63671875 106.0230102539062 C 84.615966796875 111.9414672851562 73.947998046875 118.1524047851562 63.928955078125 124.4826965332031 C 55.91357421875 129.5473937988281 48.29296875 134.6992797851562 41.279052734375 139.7958374023438 C 31.536376953125 146.8751525878906 25.66943359375 151.8927001953125 23.80615234375 153.5308227539062 L 23.80615234375 551.6890258789062 L 2579.471923828125 546.5929565429688 L 2579.471923828125 70.67767333984375 C 2578.5673828125 69.22097778320312 2575.0634765625 66.03497314453125 2561.575439453125 62.11614990234375 C 2556.046875 60.5098876953125 2549.39453125 58.94522094726562 2541.802978515625 57.4652099609375 C 2534.07666015625 55.95895385742188 2525.34912109375 54.5355224609375 2515.8623046875 53.23428344726562 C 2495.86865234375 50.49176025390625 2472.984130859375 48.33145141601562 2447.8447265625 46.81301879882812 C 2420.75048828125 45.17678833007812 2391.90771484375 44.34707641601562 2362.1181640625 44.347412109375 C 2314.5400390625 44.3480224609375 2266.00927734375 46.44833374023438 2217.873779296875 50.5902099609375 C 2163.443359375 55.27395629882812 2110.281005859375 62.52740478515625 2059.86328125 72.14926147460938 L 2059.80322265625 72.1605224609375 L 2059.74267578125 72.1683349609375 C 2043.589111328125 74.24050903320312 2027.30224609375 76.74209594726562 2009.95166015625 79.81582641601562 C 1994.459716796875 82.56051635742188 1978.446655273438 85.70614624023438 1960.997314453125 89.43209838867188 C 1928.525390625 96.36614990234375 1895.5712890625 104.3845825195312 1863.701904296875 112.1386413574219 C 1757.970947265625 137.8648986816406 1648.64013671875 164.4667663574219 1513.830444335938 164.4667663574219 C 1511.85693359375 164.4667663574219 1509.8447265625 164.4608459472656 1507.85009765625 164.4492797851562 L 1507.844482421875 164.4492797851562 C 1491.80224609375 164.3120727539062 1472.500366210938 162.7864685058594 1448.835693359375 159.7845764160156 C 1427.50732421875 157.0792846679688 1402.8623046875 153.1973876953125 1373.492553710938 147.9170837402344 C 1318.473876953125 138.0255126953125 1253.845458984375 124.4505310058594 1185.421997070312 110.0783386230469 C 1111.095703125 94.46646118164062 1034.239501953125 78.32272338867188 954.8853759765625 63.60552978515625 C 864.25537109375 46.79708862304688 786.976318359375 35.03021240234375 718.63232421875 27.63238525390625 C 673.941650390625 22.794921875 631.9122314453125 19.18206787109375 593.711669921875 16.89459228515625 C 559.49169921875 14.84521484375 527.448486328125 13.80615234375 498.47265625 13.80615234375 M 498.47265625 11.80621337890625 C 553.2099609375 11.80621337890625 624.5665283203125 15.43853759765625 718.84765625 25.64398193359375 C 1017.629150390625 57.98553466796875 1372.1201171875 161.2892761230469 1507.861694335938 162.4492797851562 C 1509.84423828125 162.4608459472656 1511.858642578125 162.4667053222656 1513.830322265625 162.4667053222656 C 1731.613403320312 162.4667053222656 1883.355346679688 92.77847290039062 2059.48828125 70.18460083007812 C 2166.64501953125 49.73477172851562 2273.35888671875 42.34844970703125 2362.1181640625 42.34744262695312 C 2486.37109375 42.34603881835938 2575.45654296875 56.81741333007812 2581.471923828125 70.18460083007812 L 2581.471923828125 548.5889892578125 L 21.80615234375 553.6929931640625 L 21.80615234375 152.63427734375 C 21.80615234375 152.63427734375 118.7822265625 63.70709228515625 312.7353515625 33.0830078125 C 339.231201171875 28.8995361328125 379.74462890625 11.80621337890625 498.47265625 11.80621337890625 Z" stroke="none" fill="#b67847"/>
      </g>
      <g id="Path_3091" data-name="Path 3091" transform="translate(553.369 652.895) rotate(-25)" fill="#efc88b">
        <path d="M 461.0128784179688 1174.324340820312 C 440.5758056640625 1174.324340820312 419.8645629882812 1173.794067382812 399.4545593261719 1172.748291015625 C 383.1241149902344 1171.911499023438 366.9490356445312 1170.744873046875 351.3782653808594 1169.280639648438 C 328.4544372558594 1167.124755859375 313.5635375976562 1164.944702148438 309.8494567871094 1164.377319335938 C 307.7138061523438 1161.83056640625 300.0038757324219 1152.563842773438 289.14501953125 1138.68017578125 C 277.3396301269531 1123.586303710938 259.2922668457031 1099.79296875 240.3557891845703 1072.158569335938 C 219.0879516601562 1041.122192382812 201.0562591552734 1011.666015625 186.7617950439453 984.608642578125 C 178.2871856689453 968.5675659179688 171.051025390625 953.2056884765625 165.2544097900391 938.9501342773438 C 158.893798828125 923.3081665039062 154.1127166748047 908.619384765625 151.0439453125 895.2916870117188 C 131.6613311767578 811.1160278320312 130.9011840820312 714.1455688476562 130.0965576171875 611.4812622070312 C 129.7433319091797 566.427978515625 129.3780975341797 519.8409423828125 127.3984069824219 473.0636901855469 L 127.3953323364258 472.9881591796875 L 127.3874893188477 472.9130859375 C 105.9408721923828 264.8436889648438 46.04902648925781 170.3166198730469 17.26656341552734 124.8893966674805 C 12.16056346893311 116.8306274414062 8.127486228942871 110.4653930664062 5.548871040344238 105.3907775878906 C 3.05579400062561 100.4849319458008 2.128101825714111 97.17031860351562 2.629332542419434 94.95954895019531 C 2.810563325881958 94.16001129150391 3.27625560760498 92.95616149902344 5.219486236572266 91.73739624023438 C 10.52548599243164 88.40969848632812 18.92487144470215 84.61277770996094 30.18441009521484 80.45201110839844 C 41.54148483276367 76.25539398193359 55.51163864135742 71.80216217041016 71.70687103271484 67.21616363525391 C 105.846565246582 57.54877853393555 147.9676361083984 47.82385635375977 193.5168762207031 39.09277725219727 C 217.9642486572266 34.40647125244141 243.2331848144531 30.04062461853027 268.6216430664062 26.1163158416748 C 295.6134948730469 21.94431686401367 322.9140930175781 18.24600791931152 349.7650146484375 15.12400913238525 C 409.2205505371094 8.211239814758301 466.461181640625 4.08554744720459 519.8968505859375 2.861393451690674 C 530.362548828125 2.621547222137451 541.1112060546875 2.500008821487427 551.8438110351562 2.500008821487427 C 597.2520751953125 2.500008821487427 645.2925415039062 4.658470153808594 694.6307373046875 8.915239334106445 C 734.1109008789062 12.32154750823975 774.5051879882812 17.0713939666748 814.6913452148438 23.03293228149414 C 850.4502563476562 28.33770179748535 879.42041015625 33.63985443115234 897.4263916015625 37.15354919433594 C 912.5872802734375 40.11215209960938 922.7285766601562 42.33327484130859 926.5491943359375 43.18871307373047 C 927.2938842773438 49.20797729492188 929.880126953125 70.97907257080078 933.2481079101562 108.9592361450195 C 935.5936279296875 135.4081573486328 937.8536376953125 164.4261627197266 939.9655151367188 195.2069244384766 C 942.6053466796875 233.6830902099609 945.0196533203125 275.037841796875 947.1416625976562 318.1224670410156 C 948.7008666992188 349.7818603515625 949.1394653320312 383.8778686523438 948.4828491210938 422.3589172363281 C 947.9019775390625 456.3975524902344 946.5599365234375 489.6314086914062 945.2622680664062 521.771240234375 C 943.0973510742188 575.3861694335938 941.0525512695312 626.0277099609375 942.862548828125 672.4352416992188 C 943.8319702148438 697.2929077148438 945.823974609375 719.0147705078125 948.9520874023438 738.8416748046875 C 950.6388549804688 749.5333862304688 952.6947021484375 759.8223266601562 955.0624389648438 769.423095703125 C 957.536865234375 779.456298828125 960.4422607421875 789.105712890625 963.6979370117188 798.1030883789062 C 975.3447265625 830.2903442382812 991.3059692382812 864.0184936523438 1011.138122558594 898.3506469726562 C 1026.991455078125 925.794921875 1045.341796875 953.6876831054688 1065.67919921875 981.2544555664062 C 1083.7705078125 1005.776794433594 1100.120971679688 1025.49951171875 1110.651611328125 1037.726806640625 C 1117.895385742188 1046.137573242188 1123.461547851562 1052.260375976562 1126.583129882812 1055.6337890625 C 1118.980346679688 1057.805786132812 1100.663940429688 1062.978881835938 1074.642700195312 1069.942749023438 C 1042.654418945312 1078.503662109375 992.1506958007812 1091.598266601562 933.2085571289062 1105.364501953125 C 866.9691772460938 1120.835083007812 803.7918090820312 1133.983276367188 745.431640625 1144.44384765625 C 710.7886962890625 1150.653442382812 677.4810180664062 1155.972412109375 646.43408203125 1160.253051757812 C 612.2939453125 1164.960327148438 580.0459594726562 1168.527709960938 550.5858154296875 1170.856323242188 C 521.4708862304688 1173.157348632812 491.3341064453125 1174.324340820312 461.0128784179688 1174.324340820312 Z" stroke="none"/>
        <path d="M 551.8428955078125 4.9998779296875 C 541.1281127929688 4.9998779296875 530.399169921875 5.1212158203125 519.9541015625 5.3604736328125 C 466.595458984375 6.5828857421875 409.4327392578125 10.703369140625 350.0537719726562 17.6072998046875 C 323.2337646484375 20.7255859375 295.9645385742188 24.4195556640625 269.0034790039062 28.5869140625 C 243.6445922851562 32.506591796875 218.4054565429688 36.867431640625 193.9874877929688 41.5479736328125 C 148.5079345703125 50.265869140625 106.45947265625 59.9735107421875 72.387939453125 69.62158203125 C 40.40869140625 78.67724609375 17.026123046875 87.2835693359375 6.547607421875 93.8553466796875 C 5.259765625 94.6630859375 5.1297607421875 95.236572265625 5.0673828125 95.51220703125 C 4.8233642578125 96.5887451171875 5.0953369140625 98.97998046875 7.7774658203125 104.2581787109375 C 10.3026123046875 109.227294921875 14.3076171875 115.54833984375 19.3782958984375 123.55126953125 C 48.2628173828125 169.1397094726562 108.3673095703125 264.0023193359375 129.8743896484375 472.6567993164062 L 129.8897705078125 472.8070678710938 L 129.896240234375 472.9580078125 C 131.8778076171875 519.7781372070312 132.2430419921875 566.3872680664062 132.596435546875 611.4617309570312 C 133.4000854492188 713.9849243164062 134.1591796875 810.8223266601562 153.4801025390625 894.7305908203125 C 156.5184326171875 907.925537109375 161.2575073242188 922.4824829101562 167.5654907226562 937.9969482421875 C 173.328857421875 952.1719970703125 180.5270385742188 967.4537353515625 188.9596557617188 983.4171142578125 C 203.205322265625 1010.384643554688 221.181640625 1039.752197265625 242.3896484375 1070.703857421875 C 261.2871704101562 1098.284057617188 279.300537109375 1122.0341796875 291.0841064453125 1137.101440429688 C 301.0825805664062 1149.885986328125 308.407470703125 1158.750244140625 311.1593017578125 1162.046752929688 C 316.0014038085938 1162.769409179688 330.2860107421875 1164.78466796875 351.5530395507812 1166.785888671875 C 367.0938110351562 1168.248291015625 383.2396240234375 1169.41357421875 399.5419311523438 1170.249389648438 C 419.9230346679688 1171.294311523438 440.6050415039062 1171.82421875 461.0134887695312 1171.82421875 C 491.2703857421875 1171.82421875 521.340576171875 1170.660034179688 550.3887329101562 1168.364013671875 C 579.7984008789062 1166.03955078125 611.994873046875 1162.477661132812 646.083984375 1157.777709960938 C 677.0953369140625 1153.501953125 710.366455078125 1148.18896484375 744.9733276367188 1141.986206054688 C 803.286865234375 1131.5341796875 866.4169921875 1118.396118164062 932.610107421875 1102.936889648438 C 991.5196533203125 1089.178833007812 1041.9970703125 1076.091430664062 1073.968872070312 1067.535034179688 C 1096.27587890625 1061.565307617188 1112.917846679688 1056.912231445312 1121.998168945312 1054.3388671875 C 1118.780151367188 1050.8046875 1114.277954101562 1045.768188476562 1108.75732421875 1039.358154296875 C 1098.19873046875 1027.098510742188 1081.805053710938 1007.32373046875 1063.667358398438 982.7386474609375 C 1043.27490234375 955.0972290039062 1024.873168945312 927.125732421875 1008.973327636719 899.60107421875 C 989.0678100585938 865.1417236328125 973.0439453125 831.279052734375 961.3470458984375 798.9537353515625 C 958.0616455078125 789.8741455078125 955.1304321289062 780.139892578125 952.635009765625 770.0215454101562 C 950.2504272460938 760.3521728515625 948.180419921875 749.9927978515625 946.4825439453125 739.231201171875 C 943.3389892578125 719.3064575195312 941.3377685546875 697.4890747070312 940.3643798828125 672.532470703125 C 938.550537109375 626.0256958007812 940.5973510742188 575.3358764648438 942.7642822265625 521.669677734375 C 944.0615234375 489.5444946289062 945.4027099609375 456.3252563476562 945.983154296875 422.3159790039062 C 946.6388549804688 383.8908081054688 946.2010498046875 349.8490600585938 944.64453125 318.2455444335938 C 942.5242919921875 275.192626953125 940.11181640625 233.8684692382812 937.4742431640625 195.420654296875 C 935.3642578125 164.6622924804688 933.1060791015625 135.6654052734375 930.7628784179688 109.2357177734375 C 927.665283203125 74.298828125 925.2298583984375 53.088134765625 924.281982421875 45.2457275390625 C 919.6011962890625 44.2130126953125 910.223876953125 42.1986083984375 896.9976196289062 39.6170654296875 C 879.0200805664062 36.108154296875 850.0941162109375 30.813232421875 814.382568359375 25.5145263671875 C 774.2401123046875 19.55810546875 733.8897705078125 14.8125 694.4527587890625 11.4090576171875 C 645.172119140625 7.1561279296875 597.1913452148438 4.9998779296875 551.8428955078125 4.9998779296875 M 551.8428955078125 -0.0001220703125 C 751.282470703125 -0.0001220703125 928.8104248046875 41.137451171875 928.8104248046875 41.137451171875 C 928.8104248046875 41.137451171875 940.3290405273438 128.9705810546875 949.6385498046875 317.9995727539062 C 958.9481201171875 507.0281372070312 923.7181396484375 680.2680053710938 966.0487060546875 797.25244140625 C 1016.890991210938 937.7597045898438 1131.201293945312 1056.907592773438 1131.201293945312 1056.907592773438 C 1131.201293945312 1056.907592773438 798.2894897460938 1153.78564453125 550.78271484375 1173.348510742188 C 518.9724731445312 1175.862670898438 488.6952514648438 1176.82421875 461.0134887695312 1176.82421875 C 371.1679077148438 1176.82421875 308.539794921875 1166.703491210938 308.539794921875 1166.703491210938 C 308.539794921875 1166.703491210938 174.6028442382812 1008.746459960938 148.607666015625 895.8526611328125 C 120.587646484375 774.1657104492188 131.3628540039062 625.86279296875 124.9006958007812 473.1693725585938 C 93.3175048828125 166.7579956054688 -22.5543212890625 106.20556640625 3.8909912109375 89.6195068359375 C 47.7125244140625 62.1358642578125 292.500244140625 5.570068359375 519.8396606445312 0.36181640625 C 530.5419921875 0.11669921875 541.2408447265625 -0.0001220703125 551.8428955078125 -0.0001220703125 Z" stroke="none" fill="#000"/>
      </g>
      <g id="Path_3092" data-name="Path 3092" transform="matrix(0.848, -0.53, 0.53, 0.848, 738.49, 739.201)" fill="#708d81">
        <path d="M 310.4696960449219 580.7012939453125 C 283.2578125 580.7012939453125 256.7218933105469 580.3427734375 231.5992126464844 579.6358032226562 C 210.8119049072266 579.05078125 183.6705017089844 578.1832885742188 158.08740234375 576.6555786132812 C 132.6764068603516 575.13818359375 111.6207046508789 573.1537475585938 93.71710205078125 570.5891723632812 C 83.83420562744141 569.173583984375 74.74030303955078 567.5475463867188 66.68800354003906 565.756591796875 C 58.23970413208008 563.8775024414062 50.62910461425781 561.7486572265625 44.06760406494141 559.42919921875 C 37.30250549316406 557.0377807617188 31.43620491027832 554.3682861328125 26.63150596618652 551.4947509765625 C 21.80470657348633 548.6080932617188 17.91720581054688 545.437255859375 15.07700538635254 542.0703735351562 C 11.58650588989258 537.9325561523438 9.093405723571777 533.1893920898438 7.455005645751953 527.5698852539062 C 5.890105724334717 522.2017822265625 5.089305877685547 515.9718627929688 5.007105827331543 508.5239868164062 C 4.845605850219727 493.8922729492188 7.504905700683594 475.8412780761719 10.58420562744141 454.9398803710938 C 11.71570587158203 447.2590637207031 12.8858060836792 439.3167724609375 14.03010559082031 430.826171875 C 19.3258056640625 391.5317687988281 22.02060508728027 339.198486328125 24.18600654602051 297.1479797363281 C 24.48780632019043 291.2861633300781 24.77300643920898 285.7493896484375 25.05610656738281 280.4205627441406 C 26.20220565795898 258.8461608886719 26.27530670166016 236.2525787353516 25.27930641174316 211.3485717773438 C 24.41060638427734 189.6274719238281 22.8347053527832 168.8321685791016 21.44430541992188 150.4847717285156 C 19.30960655212402 122.3145751953125 17.46590614318848 97.98597717285156 18.54810523986816 78.07297515869141 C 19.10820579528809 67.76597595214844 20.41790580749512 59.33607482910156 22.55200576782227 52.30157470703125 C 24.79400634765625 44.91167449951172 27.92850494384766 39.09367370605469 32.13470458984375 34.51527404785156 C 38.28220748901367 27.82387542724609 55.59530639648438 18.50827598571777 103.1645050048828 12.12867546081543 C 121.0818023681641 9.725774765014648 142.1325988769531 7.902874946594238 165.7321014404297 6.710675239562988 C 188.2006072998047 5.57557487487793 213.1994018554688 5.000074863433838 240.0342102050781 5.000074863433838 C 264.0497131347656 5.000074863433838 289.6940002441406 5.460774898529053 316.2547912597656 6.369375228881836 C 341.9222106933594 7.247375011444092 368.5361938476562 8.54627513885498 395.3575134277344 10.22967529296875 C 447.6194152832031 13.50997543334961 500.4287109375 18.24617576599121 548.0762939453125 23.9263744354248 C 571.8831787109375 26.76447486877441 594.2720336914062 29.81987571716309 614.6207885742188 33.00747680664062 C 635.3646240234375 36.25707626342773 653.9537353515625 39.63927459716797 669.871826171875 43.05997467041016 C 686.2279052734375 46.57497406005859 699.7750854492188 50.13307571411133 710.1369018554688 53.63557434082031 C 723.0252075195312 57.99197387695312 728.5966186523438 61.46247482299805 731.0009155273438 63.60667419433594 C 732.6046752929688 65.03697204589844 735.0042114257812 68.15437316894531 737.3275146484375 74.8831787109375 C 739.2709350585938 80.51127624511719 740.8657836914062 87.78607177734375 742.0681762695312 96.50557708740234 C 743.2391357421875 104.9973754882812 744.0446166992188 114.9210739135742 744.4622802734375 126.0011749267578 C 744.8663940429688 136.7198791503906 744.9111328125 148.603271484375 744.5950317382812 161.3211822509766 C 743.98681640625 185.7918701171875 742.0150756835938 213.6845703125 738.8931884765625 241.9840698242188 C 735.8065795898438 269.9643859863281 731.6026000976562 298.3040771484375 726.7359008789062 323.9395751953125 C 722.9083862304688 344.1012878417969 719.4951782226562 365.5763854980469 716.3012084960938 389.5920715332031 C 713.5181884765625 410.5178833007812 711.2620849609375 430.6630859375 709.271484375 448.4368896484375 C 706.3618774414062 474.4169616699219 703.84912109375 496.8540649414062 700.6251831054688 514.1241455078125 C 698.9520874023438 523.0867919921875 697.1973266601562 530.0714721679688 695.2606201171875 535.4774780273438 C 693.3430786132812 540.8298950195312 691.2449951171875 544.6107788085938 689.0245971679688 546.7153930664062 C 687.8331298828125 547.8446655273438 684.4819946289062 550.16845703125 675.4262084960938 553.0426025390625 C 668.2684326171875 555.3142700195312 658.7728271484375 557.5498657226562 647.2031860351562 559.6871948242188 C 624.6339111328125 563.8564453125 594.7235107421875 567.59765625 558.3027954101562 570.8067016601562 C 486.9360046386719 577.0948486328125 396.6043090820312 580.7012939453125 310.4696960449219 580.7012939453125 Z" stroke="none"/>
        <path d="M 240.0340270996094 10.00006103515625 C 74.32513427734375 10.00006103515625 41.8291015625 31.3533935546875 35.81671142578125 37.8978271484375 C 19.2899169921875 55.88717651367188 22.4407958984375 97.466064453125 26.42999267578125 150.1069641113281 C 29.33880615234375 188.4910583496094 32.63568115234375 231.9965209960938 30.04901123046875 280.6858520507812 L 29.17913818359375 297.4097290039062 C 27.0091552734375 339.5507202148438 24.308349609375 391.9965209960938 18.9853515625 431.4940795898438 C 17.83935546875 439.996826171875 16.6534423828125 448.0480651855469 15.53082275390625 455.6683959960938 C 9.55035400390625 496.2626342773438 5.599365234375 523.0806274414062 18.8988037109375 538.8463745117188 C 44.64935302734375 569.3723754882812 161.7653198242188 572.6683959960938 231.7398071289062 574.6377563476562 C 256.8130187988281 575.3433837890625 283.3015747070312 575.701171875 310.4697875976562 575.701171875 C 505.46923828125 575.701171875 669.341552734375 558.4820556640625 685.5850219726562 543.0863037109375 C 694.5966796875 534.5448608398438 699.3112182617188 492.4481811523438 704.3026733398438 447.8798522949219 C 708.2670288085938 412.4820556640625 713.20068359375 368.4285278320312 721.8235473632812 323.007080078125 C 743.1995849609375 210.4089660644531 746.096923828125 83.769287109375 727.6729125976562 67.33828735351562 C 700.7861328125 43.35986328125 450.0492248535156 10.00006103515625 240.0340270996094 10.00006103515625 M 240.0340576171875 0 C 436.8180236816406 0 701.5093994140625 30.60577392578125 734.3287963867188 59.87506103515625 C 758.8070068359375 81.70538330078125 751.4497680664062 220.5666198730469 731.6481323242188 324.8721923828125 C 710.7994384765625 434.693603515625 712.2395629882812 531.6007080078125 692.464111328125 550.3441772460938 C 667.2640380859375 574.2293701171875 424.1989135742188 590.0579223632812 231.4584350585938 584.6337280273438 C 129.6573486328125 581.7687377929688 37.4595947265625 576.3582763671875 11.255126953125 545.2943115234375 C -7.8251953125 522.675537109375 1.50634765625 486.3173828125 9.07489013671875 430.1583862304688 C 15.07415771484375 385.6437377929688 17.73822021484375 323.9156188964844 20.0631103515625 280.1552734375 C 26.454345703125 159.8525085449219 -3.9500732421875 66.40261840820312 28.45257568359375 31.13250732421875 C 49.0150146484375 8.7506103515625 134.8220825195312 0 240.0340576171875 0 Z" stroke="none" fill="#000"/>
      </g>
      <g id="Path_3093" data-name="Path 3093" transform="translate(1197.396 957.871) rotate(-30)" fill="#0ad3ff">
        <path d="M 2.527351379394531 151.2594451904297 C 2.611202239990234 144.6410827636719 2.936310768127441 126.7496719360352 4.12422513961792 107.4504089355469 C 4.999107360839844 93.23622894287109 6.163431167602539 81.05581665039062 7.584842681884766 71.24746704101562 C 9.331372261047363 59.19584655761719 11.44066619873047 50.82561111450195 13.8541955947876 46.36922836303711 C 14.33740139007568 45.47702407836914 16.06457901000977 43.19243621826172 22.2030200958252 37.91602325439453 C 26.09510803222656 34.57052230834961 31.21175384521484 30.49008178710938 37.41084289550781 25.78805160522461 C 46.65534591674805 18.77606391906738 55.58877563476562 12.45023727416992 57.77188491821289 10.91240692138672 L 123.8468704223633 2.58598780632019 C 130.20947265625 6.283883094787598 175.9194030761719 32.87218856811523 181.6008148193359 36.79552459716797 C 183.555908203125 38.1456413269043 185.5886077880859 40.63899230957031 187.6424865722656 44.20631790161133 C 189.6093139648438 47.6224365234375 191.5964050292969 52.04155349731445 193.5485534667969 57.34093475341797 C 196.8802795410156 66.38549041748047 200.150634765625 78.07016754150391 203.2687835693359 92.07040405273438 C 207.5376434326172 111.2372970581055 210.3513488769531 129.5807647705078 211.3180389404297 136.2410278320312 L 2.527351379394531 151.2594451904297 Z" stroke="none"/>
        <path d="M 123.3215942382812 5.171981811523438 L 58.70330810546875 13.31480407714844 C 55.87808227539062 15.31069946289062 47.5185546875 21.2584228515625 38.89938354492188 27.79678344726562 C 32.74588012695312 32.4647216796875 27.67367553710938 36.50981140136719 23.82363891601562 39.81965637207031 C 17.448974609375 45.29991149902344 16.23176574707031 47.22878265380859 16.05247497558594 47.559814453125 C 14.4903564453125 50.44419097900391 12.18272399902344 56.95562744140625 10.0604248046875 71.59622192382812 C 8.64892578125 81.33344268798828 7.491668701171875 93.44081115722656 6.620819091796875 107.5820922851562 C 5.571884155273438 124.6156158447266 5.197052001953125 140.5537872314453 5.066665649414062 148.5703125 L 208.4506072998047 133.9407806396484 C 207.2340393066406 125.8566360473633 204.5992584228516 109.5387496948242 200.8217010498047 92.58309936523438 C 197.7282867431641 78.69831848144531 194.4903869628906 67.12759399414062 191.1979217529297 58.19231414794922 C 186.153076171875 44.50141143798828 182.1295776367188 40.19884490966797 180.1802062988281 38.85269165039062 C 175.3615875244141 35.52513122558594 138.8323059082031 14.18572998046875 123.3215942382812 5.171981811523438 M 124.3724212646484 0 C 124.3724212646484 0 176.7928466796875 30.43718719482422 183.0213928222656 34.73838043212891 C 202.0108947753906 47.85178375244141 214.1682586669922 138.5424346923828 214.1682586669922 138.5424346923828 L -1.52587890625e-05 153.9476928710938 C -1.52587890625e-05 153.9476928710938 0.454925537109375 65.86034393310547 11.6558837890625 45.17865753173828 C 16.057861328125 37.05072021484375 56.84266662597656 8.509719848632812 56.84266662597656 8.509719848632812 L 124.3724212646484 0 Z" stroke="none" fill="#000"/>
      </g>
      <g id="Path_3094" data-name="Path 3094" transform="matrix(0.891, -0.454, 0.454, 0.891, 935.359, 745.805)" fill="#efc88b">
        <path d="M 53.45558547973633 327.3876647949219 C 46.01327133178711 327.3876647949219 40.05920791625977 326.9634704589844 35.75883483886719 326.1268920898438 C 30.40827178955078 325.0860290527344 29.40239715576172 323.7707824707031 29.36220932006836 323.71533203125 C 28.15833473205566 322.053955078125 25.7327709197998 317.0786437988281 23.01389694213867 302.423828125 C 21.04658508300781 291.8202209472656 19.24214744567871 278.076904296875 17.49745941162109 260.4085998535156 C 14.29264640808105 227.9537811279297 11.845458984375 187.2621459960938 9.67833423614502 148.1234588623047 C 9.050333976745605 136.7818450927734 8.339834213256836 125.8940887451172 7.652771949768066 115.3647766113281 C 6.09645938873291 91.51396179199219 4.752334117889404 70.9156494140625 5.038271903991699 55.32502365112305 C 5.185459136962891 47.30121231079102 5.752771854400635 41.23402404785156 6.772709369659424 36.77664947509766 C 7.976584434509277 31.51552581787109 9.464271545410156 30.074462890625 10.04802227020264 29.69908714294434 C 19.57045936584473 23.57546234130859 40.51127243041992 17.24483871459961 67.50090026855469 12.33040046691895 C 79.78477478027344 10.09365081787109 92.91183471679688 8.235525131225586 105.4628982543945 6.95683765411377 C 118.0281448364258 5.676650524139404 129.7942047119141 5.000025272369385 139.4891510009766 5.000025272369385 C 151.9313354492188 5.000025272369385 158.2918395996094 6.087525367736816 161.4367065429688 6.999775409698486 C 164.3846435546875 7.854962825775146 166.9346466064453 9.082275390625 169.0157165527344 10.64758777618408 C 170.8159027099609 12.00152492523193 172.3126525878906 13.62177562713623 173.5916442871094 15.60077571868896 C 176.1038970947266 19.4882755279541 177.3098907470703 24.02371215820312 178.4762115478516 28.4099006652832 C 179.4455871582031 32.05527496337891 180.3611450195312 35.49846267700195 182.0115203857422 38.31033706665039 C 184.9132080078125 43.25421142578125 189.1332702636719 44.39690017700195 192.1624603271484 44.48496246337891 L 192.3013916015625 44.4890251159668 L 192.4402770996094 44.48533630371094 C 219.9647064208984 43.75558853149414 246.0212707519531 42.90346145629883 271.219970703125 42.07939910888672 C 316.0085144042969 40.61465072631836 354.6893310546875 39.34971237182617 384.6939086914062 39.34971237182617 C 400.92578125 39.34971237182617 413.4605102539062 39.72296142578125 423.0145263671875 40.49090194702148 C 435.2014465332031 41.47045516967773 440.5006103515625 42.96237182617188 442.8015747070312 44.05199432373047 C 442.9797058105469 44.20268249511719 444.3918762207031 45.54897689819336 445.8363952636719 51.33183670043945 C 447.0240783691406 56.08621215820312 447.9178466796875 62.52458953857422 448.4929504394531 70.46808624267578 C 450.5955810546875 99.51077270507812 448.1759643554688 145.2073364257812 442.3286437988281 186.8853454589844 C 439.3103332519531 208.3987731933594 435.5373840332031 227.5525207519531 431.4175720214844 242.2758941650391 C 429.2259521484375 250.1084594726562 426.9343872070312 256.7132263183594 424.6065979003906 261.9066467285156 C 421.7299499511719 268.32470703125 419.3124694824219 271.4092712402344 417.7909545898438 272.8667602539062 C 416.8645935058594 273.7542114257812 414.2008361816406 275.5841369628906 406.7690124511719 277.8695373535156 C 401.0355224609375 279.6325988769531 393.4610900878906 281.3808898925781 383.6127014160156 283.2143859863281 C 364.8338928222656 286.71044921875 340.7533874511719 289.9801635742188 312.8705139160156 293.7660827636719 C 289.83984375 296.8932800292969 263.736328125 300.4375915527344 237.7781524658203 304.558837890625 C 200.8886413574219 310.4154663085938 165.1297760009766 316.0237121582031 133.1725769042969 320.2657775878906 C 97.07014465332031 325.0580749511719 70.99452209472656 327.3876647949219 53.45558547973633 327.3876647949219 Z" stroke="none"/>
        <path d="M 139.4893798828125 9.999969482421875 C 100.0099487304688 9.999969482421875 32.423095703125 21.25497436523438 13.21115112304688 33.5291748046875 C 7.757080078125 40.17626953125 10.46572875976562 81.68582153320312 12.64215087890625 115.0393981933594 C 13.32443237304688 125.4950408935547 14.04214477539062 136.4960479736328 14.670654296875 147.8470458984375 C 17.27365112304688 194.8579864501953 23.3228759765625 304.1024780273438 33.01351928710938 320.1777648925781 C 34.26373291015625 320.7420654296875 39.13800048828125 322.3876953125 53.45565795898438 322.3876953125 C 93.59030151367188 322.3876953125 173.1038818359375 309.7639770507812 236.9941558837891 299.6206970214844 C 263.0079345703125 295.4906005859375 289.1411743164062 291.9422607421875 312.1980895996094 288.8115539550781 C 356.7090759277344 282.7677612304688 407.158935546875 275.9176025390625 414.3321533203125 269.256103515625 C 437.3464965820312 247.2095642089844 452.5175170898438 70.15145874023438 439.60546875 48.13662719726562 C 434.5389709472656 46.31393432617188 420.7178039550781 44.34930419921875 384.6940307617188 44.34970092773438 C 354.7707214355469 44.35012817382812 316.1271362304688 45.61376953125 271.3816528320312 47.076904296875 C 246.5801544189453 47.88790893554688 220.1027221679688 48.75369262695312 192.0171508789062 49.48291015625 C 178.8038024902344 49.0987548828125 175.5739440917969 36.95211791992188 173.6441650390625 29.69476318359375 C 171.1525268554688 20.32440185546875 169.1625061035156 14.44705200195312 160.0437316894531 11.8017578125 C 157.7239990234375 11.12881469726562 151.9691467285156 9.999969482421875 139.4893798828125 9.999969482421875 M 139.4894104003906 -3.0517578125e-05 C 149.4663696289062 -3.0517578125e-05 157.6334838867188 0.690338134765625 162.8297424316406 2.19769287109375 C 189.0089416503906 9.79205322265625 178.8171691894531 39.09490966796875 192.3078002929688 39.48712158203125 C 319.83837890625 36.1058349609375 424.7286376953125 29.80593872070312 445.0280151367188 39.57440185546875 C 465.3273620605469 49.34283447265625 449.697509765625 249.2258911132812 421.2497253417969 276.4774169921875 C 408.0215148925781 289.1494140625 325.0538024902344 295.7652587890625 238.5621490478516 309.4969787597656 C 139.0490112304688 325.2958374023438 35.8697509765625 341.2174072265625 25.31338500976562 326.6491088867188 C 14.4215087890625 311.6178894042969 8.9697265625 225.7655334472656 4.685943603515625 148.39990234375 C 1.205291748046875 85.53968811035156 -5.023193359375 33.44631958007812 7.343597412109375 25.49362182617188 C 29.46884155273438 11.26547241210938 99.2010498046875 -3.0517578125e-05 139.4894104003906 -3.0517578125e-05 Z" stroke="none" fill="#000"/>
      </g>
      <g id="Path_3095" data-name="Path 3095" transform="translate(990.771 771.156) rotate(-25)" fill="#efc88b">
        <path d="M 5.402005195617676 256.0814208984375 C 6.459949493408203 240.8686370849609 9.540548324584961 199.5125427246094 14.47686100006104 157.0998840332031 C 18.09842300415039 125.9831390380859 21.99267387390137 100.4129486083984 26.05142402648926 81.09957885742188 C 28.43292427062988 69.76707458496094 30.8867359161377 60.54039001464844 33.34467315673828 53.67570114135742 C 34.6151123046875 50.1275749206543 35.8958625793457 47.18420028686523 37.15142440795898 44.92732620239258 C 38.55967330932617 42.39601516723633 39.64198684692383 41.24039077758789 40.30192184448242 40.71664047241211 C 40.64998626708984 40.44038772583008 41.78654861450195 39.67676544189453 44.81523513793945 38.55413818359375 C 47.29354858398438 37.63551330566406 50.52705001831055 36.66576385498047 54.42604827880859 35.6717643737793 C 62.11661148071289 33.71126556396484 72.42992401123047 31.64413833618164 85.07961273193359 29.5278263092041 C 109.010612487793 25.52420234680176 140.8915557861328 21.41232681274414 177.2758026123047 17.6367015838623 C 212.6361083984375 13.96738910675049 250.0188598632812 10.83863925933838 285.3826599121094 8.588701248168945 C 322.2837219238281 6.240951538085938 354.8382873535156 4.999951839447021 379.5270385742188 4.999951839447021 C 393.1043701171875 4.999951839447021 404.2494812011719 5.373514175415039 412.6529846191406 6.110201835632324 C 424.0251159667969 7.107139110565186 427.5882263183594 8.53688907623291 428.5923461914062 9.105326652526855 C 429.3964233398438 9.560514450073242 430.104736328125 10.45695209503174 430.6976013183594 11.76982688903809 C 431.4688110351562 13.47738933563232 432.0065002441406 15.79232692718506 432.2958679199219 18.65038871765137 C 432.8928527832031 24.54707717895508 432.4121704101562 32.60089111328125 430.8669738769531 42.58813858032227 C 428.1936645507812 59.86770248413086 422.3584289550781 82.86638641357422 413.5232849121094 110.9452667236328 C 405.6266174316406 136.0417633056641 396.7566833496094 160.5912628173828 390.7062377929688 176.7664489746094 C 385.9695129394531 189.4297332763672 382.1754455566406 199.0743408203125 380.4134826660156 203.5038604736328 L 5.402005195617676 256.0814208984375 Z" stroke="none"/>
        <path d="M 379.5269775390625 10.00001525878906 C 264.3014526367188 10.00001525878906 60.4638671875 32.73794555664062 43.41677856445312 44.62782287597656 C 31.09774780273438 54.96098327636719 17.26596069335938 156.9862365722656 10.79046630859375 250.2770385742188 L 376.86181640625 198.9529113769531 C 412.9922790527344 108.6385345458984 435.3134765625 24.26527404785156 426.157470703125 13.47201538085938 C 425.4665222167969 13.11662292480469 418.2880554199219 10.00001525878906 379.5269775390625 10.00001525878906 M 379.5270385742188 0 C 406.212646484375 0 425.1762084960938 1.425857543945312 431.0555114746094 4.754150390625 C 459.7498474121094 20.99809265136719 383.9783325195312 208.0529479980469 383.9783325195312 208.0529479980469 L 0 261.8876953125 C 0 261.8876953125 12.9517822265625 56.03834533691406 37.19378662109375 36.80007934570312 C 56.46871948242188 21.50364685058594 275.9722290039062 0 379.5270385742188 0 Z" stroke="none" fill="#000"/>
      </g>
      <g id="Path_3096" data-name="Path 3096" transform="translate(1075.68 945.432) rotate(-31)" fill="#efc88b">
        <path d="M 20.78704833984375 73.62096405029297 C 12.42644882202148 73.62096405029297 6.282798290252686 73.08116149902344 2.005098581314087 71.97076416015625 C 1.508748531341553 71.84201812744141 1.146548509597778 71.5296630859375 0.8976985216140747 71.01576232910156 C 0.08274850994348526 69.33306121826172 0.5143985152244568 65.70636749267578 2.145898580551147 60.52776336669922 C 3.252792358398438 57.01430511474609 4.575801849365234 53.88401794433594 4.881490230560303 53.17401885986328 C 5.828905582427979 52.63461685180664 11.42527961730957 49.47618865966797 20.33074760437012 45.00911331176758 C 29.32949829101562 40.49521255493164 43.64344787597656 33.68406295776367 60.73204803466797 26.86966514587402 C 79.93439483642578 19.21231460571289 98.65489959716797 13.1115140914917 116.3734512329102 8.736714363098145 C 138.5092010498047 3.271214485168457 159.1325531005859 0.5000143647193909 177.670654296875 0.5000143647193909 C 192.2740936279297 0.5000143647193909 211.3207550048828 1.862364411354065 234.281494140625 4.549264430999756 C 252.6578979492188 6.699714183807373 273.5661010742188 9.6983642578125 296.42529296875 13.46196460723877 C 330.9652099609375 19.14867973327637 359.6598510742188 24.90130043029785 365.9066162109375 26.17072105407715 C 364.041259765625 27.36186599731445 360.4596862792969 29.99446868896484 359.8011474609375 33.00271606445312 C 359.5184936523438 34.29411315917969 359.7965393066406 35.51201248168945 360.6276550292969 36.62256622314453 C 362.2311096191406 38.76516342163086 366.333251953125 41.05146408081055 372.8201904296875 43.41796493530273 C 376.3724670410156 44.71384811401367 379.7053527832031 45.68172836303711 381.204833984375 46.0991096496582 L 373.8308410644531 53.55865097045898 C 371.09619140625 53.76424407958984 338.9835205078125 56.16587448120117 299.9945068359375 58.53786468505859 C 276.1684875488281 59.9873161315918 254.4752044677734 61.14226531982422 235.5170440673828 61.97051620483398 C 211.8231506347656 63.00566482543945 192.3607940673828 63.53051376342773 177.670654296875 63.53051376342773 C 147.6280975341797 63.53051376342773 113.7079010009766 66.62301635742188 83.78070068359375 69.35146331787109 C 59.69775009155273 71.54706573486328 36.95034790039062 73.62096405029297 20.78704833984375 73.62096405029297 Z" stroke="none"/>
        <path d="M 177.670654296875 1.000015258789062 C 159.1754455566406 1.000015258789062 138.5955047607422 3.76556396484375 116.5024108886719 9.219863891601562 C 98.80795288085938 13.58821105957031 80.1114501953125 19.68071365356445 60.9322509765625 27.3281135559082 C 43.8599853515625 34.1353645324707 29.55905151367188 40.93976593017578 20.56829833984375 45.44926452636719 C 12.04379272460938 49.72496795654297 6.553558349609375 52.80077743530273 5.2747802734375 53.52564239501953 C 4.879425048828125 54.45330810546875 3.65167236328125 57.40896606445312 2.617645263671875 60.69416427612305 C 0.5052490234375 67.405517578125 0.915313720703125 69.90526580810547 1.347686767578125 70.79801177978516 C 1.533843994140625 71.18221282958984 1.775238037109375 71.39461517333984 2.130645751953125 71.48681640625 C 6.366790771484375 72.58641052246094 12.4693603515625 73.12096405029297 20.78704833984375 73.12096405029297 C 36.9276123046875 73.12096405029297 59.66400146484375 71.04811096191406 83.73529052734375 68.853515625 C 113.6731567382812 66.12411499023438 147.6053924560547 63.03051376342773 177.670654296875 63.03051376342773 C 192.3533935546875 63.03051376342773 211.8081512451172 62.50581359863281 235.4944915771484 61.47101593017578 C 254.4495544433594 60.64291381835938 276.1398010253906 59.48816680908203 299.9627075195312 58.03886413574219 C 338.2106018066406 55.71199798583984 369.8412475585938 53.35648727416992 373.6068725585938 53.07403564453125 L 380.2540588378906 46.34974670410156 C 378.5315551757812 45.8552360534668 375.6684875488281 44.98926162719727 372.6488342285156 43.88766479492188 C 366.0691528320312 41.48736572265625 361.8899536132812 39.14381408691406 360.227294921875 36.92211532592773 C 359.3052978515625 35.6900634765625 358.9975891113281 34.33541488647461 359.3126831054688 32.89581298828125 C 359.90087890625 30.20886993408203 362.6424865722656 27.83696365356445 364.6380920410156 26.42399978637695 C 356.5294189453125 24.78713607788086 329.0570068359375 19.3411865234375 296.3401489257812 13.95466613769531 C 273.4892883300781 10.19251251220703 252.5895080566406 7.195060729980469 234.2212982177734 5.045661926269531 C 211.2807464599609 2.361167907714844 192.2543487548828 1.000015258789062 177.670654296875 1.000015258789062 M 177.670654296875 1.52587890625e-05 C 241.7807922363281 1.52587890625e-05 367.2675476074219 25.9384651184082 367.2675476074219 25.9384651184082 C 367.2675476074219 25.9384651184082 357.3042602539062 31.34716415405273 361.0279541015625 36.32296371459961 C 364.7516479492188 41.29876327514648 382.1623840332031 45.8416633605957 382.1623840332031 45.8416633605957 L 374.0549621582031 54.04316711425781 C 374.0549621582031 54.04316711425781 242.1065979003906 64.030517578125 177.670654296875 64.030517578125 C 123.2173919677734 64.030517578125 56.85980224609375 74.12095642089844 20.78704833984375 74.12095642089844 C 12.87884521484375 74.12095642089844 6.432830810546875 73.63669586181641 1.87939453125 72.4547119140625 C -3.54168701171875 71.04871368408203 4.48895263671875 52.82241439819336 4.48895263671875 52.82241439819336 C 4.48895263671875 52.82241439819336 96.20928955078125 1.52587890625e-05 177.670654296875 1.52587890625e-05 Z" stroke="none" fill="#efc88b"/>
      </g>
      <g id="Polygon_27" data-name="Polygon 27" transform="matrix(-0.809, 0.588, -0.588, -0.809, 1301.826, 919.424)" fill="#f1cf8c">
        <path d="M 29.35684776306152 10.93402099609375 L 1.515013456344604 10.93402099609375 L 15.4359302520752 0.6222327947616577 L 29.35684776306152 10.93402099609375 Z" stroke="none"/>
        <path d="M 15.4359302520752 1.244471549987793 L 3.030036926269531 10.43402099609375 L 27.84182357788086 10.43402099609375 L 15.4359302520752 1.244471549987793 M 15.4359302520752 9.5367431640625e-07 L 30.87186050415039 11.43402099609375 L 0 11.43402099609375 L 15.4359302520752 9.5367431640625e-07 Z" stroke="none" fill="#f1cf8c"/>
      </g>
      <g id="Path_3097" data-name="Path 3097" transform="matrix(0.656, 0.755, -0.755, 0.656, 1301.028, 905.58)" fill="#fff">
        <path d="M 35.2929801940918 25.1925220489502 L 25.04413032531738 16.28331565856934 L 25.02098655700684 16.26320457458496 L 24.99557495117188 16.24607276916504 L 1.646370053291321 0.5068045854568481 L 15.80970096588135 0.5652220845222473 L 69.73004913330078 5.746123313903809 L 83.01637268066406 9.839785575866699 L 35.2929801940918 25.1925220489502 Z" stroke="none"/>
        <path d="M 35.40822982788086 24.63019943237305 L 81.35169219970703 9.850082397460938 L 69.63146209716797 6.238938808441162 L 15.78469753265381 1.065121531486511 L 3.292728662490845 1.013592481613159 L 25.32588386535645 15.86574649810791 L 35.40822982788086 24.63019943237305 M 35.17771911621094 25.75482749938965 L 24.71609497070312 16.66067504882812 L 1.304357169829018e-06 4.846011961490149e-06 L 15.83468341827393 0.06532249599695206 L 69.82856750488281 5.253275394439697 L 84.68103790283203 9.829499244689941 L 35.17771911621094 25.75482749938965 Z" stroke="none" fill="#fff"/>
      </g>
      <g id="Path_3098" data-name="Path 3098" transform="translate(1272.656 922.146) rotate(42)" fill="#fff">
        <path d="M 70.2138671875 18.69734001159668 L 0.9149388670921326 14.81125354766846 L 2.790773391723633 12.0781307220459 L 27.85115242004395 4.647945880889893 L 27.86534309387207 4.643745899200439 L 27.87925338745117 4.638705730438232 L 39.17133712768555 0.5498944520950317 L 70.2138671875 18.69734001159668 Z" stroke="none"/>
        <path d="M 39.12126159667969 1.099794387817383 L 27.99328231811523 5.127326011657715 L 3.102752685546875 12.50715160369873 L 1.829856872558594 14.36177921295166 L 68.17052459716797 18.08197593688965 L 39.12126159667969 1.099794387817383 M 39.22140121459961 -3.814697265625e-06 L 72.25722503662109 19.31271553039551 L 0 15.2607364654541 L 2.478775024414062 11.64912605285645 L 27.70902252197266 4.168576240539551 L 39.22140121459961 -3.814697265625e-06 Z" stroke="none" fill="#fff"/>
      </g>
      <g id="Path_3099" data-name="Path 3099" transform="translate(1276.772 915.514) rotate(40)" fill="#fff">
        <path d="M 0.6303799152374268 23.14069747924805 L 2.398425102233887 14.09177684783936 L 18.35286712646484 0.70440673828125 L 32.46798324584961 17.52614402770996 L 0.6303799152374268 23.14069747924805 Z" stroke="none"/>
        <path d="M 18.29123687744141 1.40882682800293 L 2.855243682861328 14.36116790771484 L 1.260746002197266 22.52181625366211 L 31.52829360961914 17.18414306640625 L 18.29123687744141 1.40882682800293 M 18.41449546813965 -3.814697265625e-06 L 33.40764617919922 17.8681468963623 L -3.814697265625e-06 23.75957679748535 L 1.941604614257812 13.82239627838135 L 18.41449546813965 -3.814697265625e-06 Z" stroke="none" fill="#000"/>
      </g>
      <g id="Path_3100" data-name="Path 3100" transform="translate(1302.477 904.998) rotate(68)" fill="#fff">
        <path d="M 16.23526000976562 20.08153915405273 L 0.9293989539146423 7.610120296478271 L 0.5366609692573547 2.378370761871338 L 31.65034866333008 0.5639762878417969 L 16.23526000976562 20.08153915405273 Z" stroke="none"/>
        <path d="M 16.15753555297852 19.37324523925781 L 30.56777572631836 1.127954125404358 L 1.073309302330017 2.847923755645752 L 1.411895275115967 7.358302116394043 L 16.15753555297852 19.37324523925781 M 16.3129825592041 20.78983879089355 L 0.4468927085399628 7.8619384765625 L 2.707519570321892e-06 1.908818483352661 L 32.7329216003418 -1.558227495479514e-06 L 16.3129825592041 20.78983879089355 Z" stroke="none" fill="#000"/>
      </g>
      <g id="Path_3101" data-name="Path 3101" transform="matrix(0.819, -0.574, 0.574, 0.819, 1282.853, 932.998)" fill="#cf5c36">
        <path d="M 5.267094612121582 24.69141960144043 L 0.5624822378158569 12.5172758102417 L 8.750592231750488 0.8234457969665527 L 17.88864517211914 11.82937240600586 L 13.53856372833252 24.09239196777344 L 5.267094612121582 24.69141960144043 Z" stroke="none"/>
        <path d="M 8.784400939941406 1.646877288818359 L 1.12495231628418 12.58570098876953 L 5.60007381439209 24.16598892211914 L 13.17656898498535 23.61728286743164 L 17.32239151000977 11.93008518218994 L 8.784400939941406 1.646877288818359 M 8.716781616210938 1.9073486328125e-06 L 18.45490074157715 11.72865104675293 L 13.90056133270264 24.56747055053711 L 4.934101104736328 25.21684074401855 L 1.9073486328125e-06 12.44885158538818 L 8.716781616210938 1.9073486328125e-06 Z" stroke="none" fill="#000"/>
      </g>
      <g id="Path_3102" data-name="Path 3102" transform="matrix(-0.914, 0.407, -0.407, -0.914, 1356.535, 992.684)" fill="#cf5c36">
        <path d="M 25.60807037353516 63.25926971435547 L 1.031815409660339 17.9195384979248 L 0.517457127571106 6.84632682800293 L 20.95264434814453 0.5774915218353271 L 35.51021194458008 18.71681213378906 L 33.07659149169922 60.94580459594727 L 25.60807037353516 63.25926971435547 Z" stroke="none"/>
        <path d="M 20.77500534057617 1.154991149902344 L 1.034915924072266 7.210582733154297 L 1.525962829589844 17.78194427490234 L 25.85209274291992 62.66024398803711 L 32.59737396240234 60.5708122253418 L 34.9999885559082 18.8798942565918 L 20.77500534057617 1.154991149902344 M 21.13029098510742 0 L 36.02043914794922 18.55373001098633 L 33.55580902099609 61.32080078125 L 25.36404037475586 63.85830307006836 L 0.5376701354980469 18.05713272094727 L 0 6.482063293457031 L 21.13029098510742 0 Z" stroke="none" fill="#000"/>
      </g>
      <g id="Path_3103" data-name="Path 3103" transform="matrix(0.839, 0.545, -0.545, 0.839, 1291.362, 1002.91)" fill="#efc88b">
        <path d="M 19.44131660461426 20.75242042541504 C 15.4010763168335 20.75242042541504 10.804856300354 20.5957202911377 7.34873628616333 19.43350028991699 C 3.837216138839722 18.25263977050781 2.000715970993042 16.25139045715332 1.569176077842712 13.13541984558105 C 1.276576042175293 11.02270030975342 1.918626070022583 9.044050216674805 3.477476119995117 7.254420280456543 C 4.962686061859131 5.549350261688232 7.206945896148682 4.096400260925293 9.967656135559082 3.052640199661255 C 12.61589622497559 2.051400184631348 15.59835624694824 1.500000238418579 18.36563682556152 1.500000238418579 C 22.4828052520752 1.500000238418579 24.89086532592773 1.679090261459351 25.82424545288086 2.623790264129639 C 26.64557647705078 3.455080270767212 26.78870582580566 5.43634033203125 26.75341606140137 8.36361026763916 C 26.73677635192871 9.743889808654785 26.18623542785645 11.3818998336792 25.6538257598877 12.96598052978516 C 25.27425575256348 14.0953197479248 24.88175582885742 15.26311016082764 24.68126678466797 16.35634994506836 L 24.6794261932373 16.36647987365723 C 24.4018669128418 17.90269088745117 24.18263626098633 19.11607933044434 23.59218597412109 19.75669097900391 C 23.19819641113281 20.18414115905762 22.33925628662109 20.75242042541504 19.44131660461426 20.75242042541504 Z" stroke="none"/>
        <path d="M 18.36563491821289 3 C 15.77510643005371 3 12.98103618621826 3.51698112487793 10.49812698364258 4.455709457397461 C 7.968246459960938 5.412189483642578 5.931665420532227 6.720660209655762 4.608556747436523 8.239649772644043 C 3.329465866088867 9.708089828491211 2.821296691894531 11.24219989776611 3.054996490478516 12.92963981628418 C 3.236265182495117 14.23854064941406 3.708396911621094 15.27208042144775 4.498355865478516 16.08934020996094 C 5.261526107788086 16.87887001037598 6.38139533996582 17.52565956115723 7.826845169067383 18.01173973083496 C 11.07794570922852 19.10502052307129 15.52244567871094 19.25242042541504 19.44130706787109 19.25242042541504 C 21.94471549987793 19.25242042541504 22.44089508056641 18.79252052307129 22.48922538757324 18.74007987976074 C 22.78408622741699 18.42016983032227 23.00681686401367 17.18741035461426 23.20332717895508 16.09976005554199 L 23.20586585998535 16.08576965332031 C 23.42572593688965 14.88696002960205 23.83560562133789 13.66744041442871 24.23199653625488 12.48807048797607 C 24.72742652893066 11.01399993896484 25.23972702026367 9.489749908447266 25.25352668762207 8.34553050994873 C 25.27492523193359 6.570270538330078 25.22026634216309 5.420440673828125 25.0763053894043 4.6173095703125 C 24.976806640625 4.062200546264648 24.84623527526855 3.76814079284668 24.75721549987793 3.67803955078125 C 24.71509552001953 3.635410308837891 24.45197677612305 3.414119720458984 23.40526580810547 3.243570327758789 C 22.0879955291748 3.028940200805664 20.11848640441895 3 18.36563491821289 3 M 18.36563491821289 0 C 27.20640563964844 0 28.34443664550781 0.8220901489257812 28.25330543518066 8.38169002532959 C 28.22095680236816 11.06535053253174 26.61208534240723 14.14358043670654 26.15665626525879 16.62693023681641 C 25.51492691040039 20.17873954772949 25.14359664916992 22.25242042541504 19.44130706787109 22.25242042541504 C 10.60053634643555 22.25242042541504 1.212905883789062 21.4970703125 0.08335685729980469 13.34119987487793 C -1.046184539794922 5.185319900512695 9.524866104125977 0 18.36563491821289 0 Z" stroke="none" fill="#000"/>
      </g>
      <g id="Path_3104" data-name="Path 3104" transform="matrix(0.914, -0.407, 0.407, 0.914, 1357.297, 965.066)" fill="#efc88b">
        <path d="M 8.160511016845703 44.37950134277344 C 8.084052085876465 44.37950134277344 8.015519142150879 44.37853240966797 7.954121589660645 44.37686538696289 C 7.968969821929932 44.24182891845703 7.986618995666504 44.09815979003906 8.002771377563477 43.96668243408203 C 8.205660820007324 42.31529235839844 8.583311080932617 39.24141311645508 7.011250972747803 34.38816070556641 L 6.869651317596436 33.95124435424805 C 5.776511192321777 30.57851219177246 4.416060924530029 26.38103294372559 3.313881158828735 22.68583297729492 C 1.593135833740234 16.91684722900391 1.488065958023071 15.62491893768311 1.499943852424622 15.35923767089844 C 1.767779111862183 13.47299098968506 2.429141283035278 9.858683586120605 3.860711097717285 6.714242458343506 C 4.611461162567139 5.065202713012695 5.469901084899902 3.785172462463379 6.412170886993408 2.909722566604614 C 7.43316125869751 1.961122632026672 8.530441284179688 1.50000262260437 9.766700744628906 1.50000262260437 C 12.2251615524292 1.50000262260437 15.35165119171143 5.204302787780762 17.92608070373535 11.16732215881348 C 19.17827033996582 14.06771278381348 20.23345184326172 17.34202194213867 20.97754096984863 20.63629341125488 C 21.73148155212402 23.97417259216309 22.12999153137207 27.18005180358887 22.12999153137207 29.90736198425293 C 22.12999153137207 32.46932220458984 21.68880081176758 34.762451171875 20.81867027282715 36.72306442260742 C 20.05093193054199 38.45297241210938 18.94523048400879 39.93512344360352 17.53231048583984 41.12834167480469 C 15.08570098876953 43.19450378417969 11.66982078552246 44.37950134277344 8.160511016845703 44.37950134277344 Z" stroke="none"/>
        <path d="M 9.766700744628906 3.000003814697266 C 8.915301322937012 3.000003814697266 8.17379093170166 3.320503234863281 7.433151245117188 4.008621215820312 C 6.636770248413086 4.748542785644531 5.894130706787109 5.867954254150391 5.22589111328125 7.335762023925781 C 3.864585876464844 10.32587432861328 3.231086730957031 13.88812255859375 3.004829406738281 15.43303680419922 C 3.038152694702148 15.80464744567871 3.27177619934082 17.32588768005371 4.847980499267578 22.58030319213867 C 5.928861618041992 26.18349266052246 7.241720199584961 30.23413276672363 8.296621322631836 33.48887252807617 L 8.438261032104492 33.92592239379883 C 9.754302024841309 37.98880386352539 9.786342620849609 40.88962554931641 9.634397506713867 42.80293655395508 C 12.25844764709473 42.52974319458008 14.72547245025635 41.53538513183594 16.56450080871582 39.98232269287109 C 19.26216125488281 37.70414352416992 20.62999153137207 34.3144416809082 20.62999153137207 29.90736389160156 C 20.62999153137207 24.62671279907227 19.02807998657227 17.50419235229492 16.54894065856934 11.76187133789062 C 13.7735710144043 5.333423614501953 10.97239112854004 3.000003814697266 9.766700744628906 3.000003814697266 M 9.766700744628906 3.814697265625e-06 C 16.71302032470703 3.814697265625e-06 23.62999153137207 18.22492218017578 23.62999153137207 29.90736389160156 C 23.62999153137207 41.58981323242188 15.10682106018066 45.87950134277344 8.160511016845703 45.87950134277344 C 4.312240600585938 45.87950134277344 8.493411064147949 43.83156204223633 5.584251403808594 34.85038375854492 C 3.422061920166016 28.17802238464355 -0.2386093139648438 16.93950271606445 0.01225090026855469 15.16666221618652 C 0.5747203826904297 11.19169235229492 2.820381164550781 3.814697265625e-06 9.766700744628906 3.814697265625e-06 Z" stroke="none" fill="#000"/>
      </g>
      <g id="Path_3105" data-name="Path 3105" transform="translate(1356.048 983.893) rotate(-39)" fill="#fff">
        <path d="M 4.631268501281738 42.68693923950195 L 1.106375694274902 1.209254741668701 L 8.137654304504395 2.442145347595215 L 10.42556095123291 39.39138793945312 L 4.631268501281738 42.68693923950195 Z" stroke="none"/>
        <path d="M 2.212748527526855 2.418506622314453 L 5.495344161987305 41.04505920410156 L 9.388917922973633 38.83056259155273 L 7.188295364379883 3.290943145751953 L 2.212748527526855 2.418506622314453 M 3.814697265625e-06 -3.814697265625e-06 L 9.087014198303223 1.593357086181641 L 11.46220397949219 39.95221710205078 L 3.767193794250488 44.32880401611328 L 3.814697265625e-06 -3.814697265625e-06 Z" stroke="none" fill="#000"/>
      </g>
      <path id="Path_3106" data-name="Path 3106" d="M-2347.418,3118.236s26.653,13.932,32.71,18.778,31.2,23.624,31.2,23.624" transform="translate(3593.47 -2118.633)" fill="none" stroke="#000" stroke-width="2"/>
      <path id="Path_3107" data-name="Path 3107" d="M-2300.533,3154.436c0-1.212,25.138-22.715,33.316-29.681s23.624-20.292,23.624-20.292l30.287,30.287" transform="translate(3600.193 -2120.607)" fill="none" stroke="#000" stroke-width="3"/>
      <path id="Path_3108" data-name="Path 3108" d="M-2340.931,3066.49s3.171,12.132,5.652,17.922,9.1,21.781,9.1,21.781,4-9.926,8.271-14.061,10.753-6.479,10.753-6.479l-24.952-24.814Z" transform="translate(3594.4 -2126.863)" fill="none" stroke="#000" stroke-width="3"/>
      <path id="Path_3109" data-name="Path 3109" d="M-2309.975,3082.661a21.936,21.936,0,0,0-7.719,12.544c-1.516,8-2.619,13.786-2.619,13.786h12.269c11.718.965,24.952,5.514,24.952,5.514l22.057,9.375a127.241,127.241,0,0,1-24.125-15.991C-2297.4,3097.583-2309.975,3082.661-2309.975,3082.661Z" transform="translate(3597.357 -2123.734)" fill="#0ad3ff" stroke="#000" stroke-width="3"/>
      <path id="Path_3110" data-name="Path 3110" d="M30.123,0a67.4,67.4,0,0,1,7.09,8.945c3.494,5.345,6.544,12,6.3,12.754-.452,1.393-17.137,9.47-20.812,10.91C19.789,33.75,5.924,38.717.55,40.291-.436,40.58.2,39.516.2,39.516L9.078,29.469Z" transform="matrix(0.407, -0.914, 0.914, 0.407, 1316.734, 969.297)" fill="#0ad3ff" stroke="#000" stroke-width="3"/>
      <path id="Path_3111" data-name="Path 3111" d="M-2298.613,3035.52s39.013,19.714,41.908,22.609,4.274,3.36,2.578,5.375-15.26,7.721-15.26,7.721l-2.025,1.081Z" transform="translate(3600.469 -2130.494)" fill="none" stroke="#000" stroke-width="3"/>
      <path id="Path_3112" data-name="Path 3112" d="M-2241.465,3044.6s6.057,20.9,9.389,33.316,16.355,39.979,16.355,39.979" transform="translate(3608.664 -2129.191)" fill="none" stroke="#000" stroke-width="2"/>
      <path id="Path_3113" data-name="Path 3113" d="M-2219.862,3111.3s7.3,1.075,9.625,0,11.175-3.047,11.175-3.047" transform="translate(3611.762 -2122.35)" fill="none" stroke="#000" stroke-width="2"/>
      <path id="Path_3114" data-name="Path 3114" d="M-2201.009,3117.74s-10.2-4-14.438-5.384-3.915-2.937-3.915-2.937" transform="translate(3611.832 -2119.896)" fill="none" stroke="#000" stroke-width="2"/>
      <path id="Path_3115" data-name="Path 3115" d="M-2218.142,3110.268l-5.476,16.486" transform="translate(3611.085 -2119.775)" fill="none" stroke="#000" stroke-width="2"/>
      <g id="Path_3116" data-name="Path 3116" transform="matrix(-0.819, 0.574, -0.574, -0.819, 1714.916, 1110.304)" fill="#e9b87e">
        <path d="M 460.0564270019531 99.29000091552734 L 1.300474286079407 83.78717803955078 C 3.051835775375366 82.30607604980469 7.136913299560547 78.93496704101562 13.25025653839111 74.38774871826172 C 20.92119789123535 68.68198394775391 33.44525527954102 59.90498352050781 49.54761123657227 50.49368667602539 C 67.64378356933594 39.91709899902344 86.47849273681641 30.71139335632324 105.5286102294922 23.13227653503418 C 129.3368988037109 13.66009998321533 153.5506744384766 6.716335296630859 177.497314453125 2.4938645362854 C 185.0005493164062 1.170805692672729 193.1748962402344 0.4999821484088898 201.7932586669922 0.4999821484088898 C 214.4299011230469 0.4999821484088898 228.4210205078125 1.940393924713135 243.3778991699219 4.781099796295166 C 256.9833679199219 7.365158557891846 271.6923217773438 11.16533470153809 287.09619140625 16.07609939575195 C 313.0499572753906 24.35015869140625 341.4286193847656 35.88851165771484 371.44384765625 50.37057113647461 C 398.1541442871094 63.25804138183594 421.2413635253906 76.13909912109375 435.9057922363281 84.67556762695312 C 448.1598205566406 91.80897521972656 456.7314147949219 97.17793273925781 460.0564270019531 99.29000091552734 Z" stroke="none"/>
        <path d="M 201.7932434082031 0.9999847412109375 C 193.203857421875 0.9999847412109375 185.0587158203125 1.66827392578125 177.5841369628906 2.986274719238281 C 153.6764221191406 7.201866149902344 129.5010681152344 14.13410186767578 105.7296142578125 23.5904541015625 C 86.7054443359375 31.15827560424805 67.89584350585938 40.3504524230957 49.82330322265625 50.91168975830078 C 33.73971557617188 60.31063079833984 21.2298583984375 69.07639312744141 13.56756591796875 74.77486419677734 C 8.41741943359375 78.60506439208984 4.70819091796875 81.59989929199219 2.62298583984375 83.33159637451172 L 458.2315979003906 98.72805786132812 C 454.181640625 96.17990875244141 446.3175354003906 91.31527709960938 435.6646118164062 85.11374664306641 C 421.00830078125 76.58168792724609 397.9336547851562 63.70733642578125 371.2376708984375 50.82627487182617 C 341.2419128417969 36.35304260253906 312.8836059570312 24.82233428955078 286.9506225585938 16.55451202392578 C 271.5647277832031 11.64921569824219 256.8743896484375 7.853569030761719 243.2876739501953 5.272926330566406 C 228.3602600097656 2.437629699707031 214.3995513916016 0.9999847412109375 201.7932434082031 0.9999847412109375 M 201.7932739257812 -7.62939453125e-06 C 308.0461730957031 -7.62939453125e-06 461.8615417480469 99.85127258300781 461.8615417480469 99.85127258300781 L 3.0517578125e-05 84.24351501464844 C 3.0517578125e-05 84.24351501464844 72.25497436523438 20.5433349609375 177.4104919433594 2.001449584960938 C 185.1636657714844 0.6343536376953125 193.3356018066406 -7.62939453125e-06 201.7932739257812 -7.62939453125e-06 Z" stroke="none" fill="#e9b87e"/>
      </g>
      <g id="Path_3117" data-name="Path 3117" transform="translate(1193.611 836.971)">
        <path d="M 4.044271945953369 93.37357330322266 C -1.95534348487854 93.373779296875 -7.778882026672363 92.16016387939453 -14.28275871276855 89.55423736572266 C -16.7926197052002 88.54862213134766 -19.34032821655273 87.10884094238281 -21.85511207580566 85.27488708496094 C -24.01662063598633 83.69854736328125 -26.21808242797852 81.78321838378906 -28.39834403991699 79.58209991455078 C -32.39737319946289 75.54480743408203 -35.60791397094727 71.29978942871094 -37.9521598815918 68.20022583007812 C -39.03727340698242 66.76547241210938 -39.91281890869141 65.60781097412109 -40.60065841674805 64.82203674316406 C -40.19837188720703 64.96274566650391 -39.74446868896484 65.12614440917969 -39.28114318847656 65.29293060302734 C -34.6988525390625 66.94242095947266 -25.16382026672363 70.37476348876953 -16.1964054107666 70.37512969970703 C -16.19614601135254 70.37512969970703 -16.19526290893555 70.37512969970703 -16.19500350952148 70.37512969970703 C -11.96316242218018 70.37512969970703 -8.296730041503906 69.60836029052734 -5.296312808990479 68.09591674804688 C -0.5311896800994873 65.69400787353516 2.884225845336914 59.52766799926758 4.855087280273438 49.76820755004883 C 6.458702564239502 41.8272819519043 6.539933204650879 34.06282043457031 6.539933204650879 32.58695983886719 C 6.539933204650879 28.2561149597168 7.402933597564697 24.05499076843262 9.104979515075684 20.10031509399414 C 10.74930286407471 16.27969932556152 13.10356426239014 12.8481912612915 16.10234832763672 9.901114463806152 C 19.10173416137695 6.953453063964844 22.59451866149902 4.639160633087158 26.48367118835449 3.022545099258423 C 30.51050186157227 1.348714351654053 34.78842544555664 0.5000066757202148 39.19861221313477 0.5000066757202148 C 43.60879516601562 0.5000066757202148 47.88671875 1.348714351654053 51.91353225708008 3.022545099258423 C 55.80268859863281 4.639160633087158 59.29547119140625 6.953453063964844 62.29485702514648 9.901114463806152 C 65.29364013671875 12.8481912612915 67.64790344238281 16.27969932556152 69.29222869873047 20.10031509399414 C 70.99427032470703 24.05499076843262 71.85726928710938 28.2561149597168 71.85726928710938 32.58695983886719 C 71.85726928710938 34.72573089599609 71.46156311035156 37.16889953613281 70.68116760253906 39.84856033325195 C 69.93395233154297 42.41422271728516 68.83309936523438 45.20188522338867 67.40916442871094 48.13411331176758 C 64.68705749511719 53.73960494995117 60.8309326171875 59.78188323974609 56.25768661499023 65.60771179199219 C 46.75119781494141 77.71795654296875 35.8095703125 86.88378143310547 27.69576644897461 89.53572845458984 C 26.91032028198242 89.71247863769531 26.13958740234375 89.88713836669922 25.38208770751953 90.05880737304688 C 17.21057891845703 91.91063690185547 10.7562255859375 93.37332916259766 4.044271945953369 93.37357330322266 Z" stroke="none"/>
        <path d="M 39.1986083984375 0.9999923706054688 C 34.85464096069336 0.9999923706054688 30.64128684997559 1.835807800292969 26.67559432983398 3.484237670898438 C 22.84579467773438 5.076179504394531 19.40636444091797 7.355117797851562 16.45281028747559 10.25772857666016 C 13.50048732757568 13.15915679931641 11.18284130096436 16.53717803955078 9.564241409301758 20.2979736328125 C 7.889240264892578 24.18986511230469 7.039934158325195 28.32448577880859 7.039934158325195 32.58695983886719 C 7.039934158325195 34.07115936279297 6.958225250244141 41.87962341308594 5.345195770263672 49.8671760559082 C 3.342426300048828 59.78466796875 -0.1621742248535156 66.06791687011719 -5.071250915527344 68.54240417480469 C -8.141975402832031 70.09028625488281 -11.88500595092773 70.87512969970703 -16.19638824462891 70.87512969970703 C -25.01613998413086 70.87512969970703 -34.34506607055664 67.59873962402344 -39.08139038085938 65.89589691162109 C -38.62485504150391 66.48188018798828 -38.11705017089844 67.15330505371094 -37.55337524414062 67.89860534667969 C -35.21762084960938 70.98697662353516 -32.01869583129883 75.21662139892578 -28.04311370849609 79.230224609375 C -25.88157272338867 81.41245269775391 -23.70049667358398 83.31025695800781 -21.56049728393555 84.87089538574219 C -19.07926559448242 86.68038940429688 -16.56811141967773 88.09992980957031 -14.09680557250977 89.09009552001953 C -7.654529571533203 91.67134857177734 -1.890066146850586 92.87355804443359 4.044301986694336 92.87355804443359 C 10.6995792388916 92.87355804443359 17.1290397644043 91.41648101806641 25.26901054382324 89.57174682617188 C 26.02009773254395 89.40154266357422 26.78426551818848 89.22836303710938 27.56279563903809 89.05313873291016 C 31.59786415100098 87.72924041748047 36.42148590087891 84.74203491210938 41.51633453369141 80.41152954101562 C 46.40118026733398 76.25954437255859 51.36265563964844 71.03371429443359 55.8643798828125 65.29897308349609 C 60.41599655151367 59.50071334838867 64.25259399414062 53.48966979980469 66.95939636230469 47.91569900512695 C 69.83650207519531 41.99100494384766 71.35726928710938 36.69042205810547 71.35726928710938 32.58695983886719 C 71.35726928710938 28.32448577880859 70.50796508789062 24.18986511230469 68.83296203613281 20.2979736328125 C 67.21436309814453 16.53717803955078 64.89671325683594 13.15915679931641 61.94439315795898 10.25772857666016 C 58.9908561706543 7.355117797851562 55.55141067504883 5.076179504394531 51.72162628173828 3.484237670898438 C 47.75593566894531 1.835807800292969 43.54257965087891 0.9999923706054688 39.1986083984375 0.9999923706054688 M 39.1986083984375 -7.62939453125e-06 C 57.51162719726562 -7.62939453125e-06 72.35726928710938 14.58968353271484 72.35726928710938 32.58695983886719 C 72.35726928710938 50.58425140380859 45.31674957275391 84.32451629638672 27.8285026550293 90.01836395263672 C 11.56042575836182 93.6785888671875 1.594686508178711 96.45452880859375 -14.46872711181641 90.01836395263672 C -28.93664932250977 84.2215576171875 -38.80380249023438 66.83888244628906 -41.71803283691406 64.39593505859375 C -44.76286315917969 61.84563064575195 -29.89616394042969 69.8751220703125 -16.19638442993164 69.8751220703125 C -12.41507720947266 69.8751220703125 -8.723987579345703 69.26380920410156 -5.521373748779297 67.64943695068359 C 5.427164077758789 62.13068389892578 6.039934158325195 36.90846633911133 6.039934158325195 32.58695983886719 C 6.039934158325195 14.58968353271484 20.88558006286621 -7.62939453125e-06 39.1986083984375 -7.62939453125e-06 Z" stroke="none" fill="#000"/>
      </g>
      <g id="Path_3118" data-name="Path 3118" transform="matrix(0.454, -0.891, 0.891, 0.454, 1257.55, 841.564)">
        <path d="M 68.31298828125 93.37342834472656 C 61.60176849365234 93.37342834472656 55.14826202392578 91.91090393066406 46.97781753540039 90.05927276611328 C 46.21947860717773 89.88741302490234 45.44784927368164 89.71254730224609 44.66150283813477 89.53559875488281 C 36.54770278930664 86.88365173339844 25.6060733795166 77.71785736083984 16.09958648681641 65.60762786865234 C 11.52633953094482 59.78179931640625 7.67021656036377 53.73953628540039 4.948108673095703 48.1340446472168 C 3.524170398712158 45.20183181762695 2.423324108123779 42.41416931152344 1.676108837127686 39.84850692749023 C 0.8957087993621826 37.16884613037109 0.500001072883606 34.72569274902344 0.500001072883606 32.58692169189453 C 0.500001072883606 28.25607681274414 1.363001108169556 24.05496788024902 3.065047264099121 20.10029220581055 C 4.709370136260986 16.27967643737793 7.063632011413574 12.84818458557129 10.06241607666016 9.901106834411621 C 13.06180095672607 6.95343017578125 16.55458641052246 4.639153480529785 20.44373893737793 3.02253794670105 C 24.4705696105957 1.34870719909668 28.74849319458008 0.4999995529651642 33.15867614746094 0.4999995529651642 C 37.56886291503906 0.4999995529651642 41.84678649902344 1.34870719909668 45.87361526489258 3.02253794670105 C 49.76277160644531 4.639153480529785 53.25555419921875 6.95343017578125 56.25494003295898 9.901106834411621 C 59.25372314453125 12.84818458557129 61.60798645019531 16.27967643737793 63.2523078918457 20.10029220581055 C 64.95435333251953 24.05496788024902 65.81735229492188 28.25607681274414 65.81735229492188 32.58692169189453 C 65.81735229492188 34.06276702880859 65.89858245849609 41.82721328735352 67.50220489501953 49.76813888549805 C 69.47306060791016 59.52758407592773 72.88849639892578 65.69392395019531 77.65361785888672 68.09584808349609 C 80.65387725830078 69.60820007324219 84.32118225097656 70.37503051757812 88.55368041992188 70.37503051757812 C 97.52121734619141 70.37503051757812 107.0563125610352 66.94244384765625 111.6386337280273 65.29283142089844 C 112.1018524169922 65.12607574462891 112.5556640625 64.96270751953125 112.9579315185547 64.822021484375 C 112.2700653076172 65.60782623291016 111.3945007324219 66.7655029296875 110.3094787597656 68.20011901855469 C 107.9652481079102 71.29969024658203 104.7546920776367 75.54469299316406 100.7556610107422 79.58197021484375 C 98.57538604736328 81.78310394287109 96.37392425537109 83.69843292236328 94.21240234375 85.27474975585938 C 91.69761657714844 87.10870361328125 89.14990997314453 88.54849243164062 86.64006042480469 89.55409240722656 C 80.13669586181641 92.15981292724609 74.31314086914062 93.37342834472656 68.31298828125 93.37342834472656 Z" stroke="none"/>
        <path d="M 33.15867614746094 1 C 28.81471252441406 1 24.60135650634766 1.8358154296875 20.63566589355469 3.484245300292969 C 16.80586242675781 5.076187133789062 13.36641693115234 7.355110168457031 10.41287994384766 10.25772094726562 C 7.460556030273438 13.15914154052734 5.142906188964844 16.53717041015625 3.524307250976562 20.29795074462891 C 1.849311828613281 24.18982696533203 1 28.32444763183594 1 32.58692169189453 C 1 36.69036865234375 2.520767211914062 41.99095153808594 5.397880554199219 47.91563034057617 C 8.10467529296875 53.48960113525391 11.94127655029297 59.50062942504883 16.49289703369141 65.29888916015625 C 20.99461364746094 71.03361511230469 25.95609283447266 76.25944519042969 30.8409423828125 80.41141510009766 C 35.935791015625 84.74192047119141 40.75940704345703 87.72911071777344 44.79447174072266 89.05300903320312 C 45.57303619384766 89.22822570800781 46.33723449707031 89.40141296386719 47.08832550048828 89.57163238525391 C 55.22827911376953 91.41635131835938 61.65770721435547 92.87342834472656 68.31298828125 92.87342834472656 C 74.24736022949219 92.87342834472656 80.01181793212891 91.67121887207031 86.45409393310547 89.0899658203125 C 88.92539978027344 88.09980010986328 91.43655395507812 86.68025970458984 93.91778564453125 84.87076568603516 C 96.05780029296875 83.31011962890625 98.23887634277344 81.41233825683594 100.4004364013672 79.2301025390625 C 104.3759994506836 75.21650695800781 107.5749206542969 70.98686218261719 109.9106750488281 67.89850616455078 C 110.4741592407227 67.15347290039062 110.9818725585938 66.48216247558594 111.4383010864258 65.89631652832031 C 106.7004852294922 67.59974670410156 97.37307739257812 70.87501525878906 88.55368041992188 70.87501525878906 C 84.24227905273438 70.87501525878906 80.49923706054688 70.09017944335938 77.42855834960938 68.54230499267578 C 72.51946258544922 66.06783294677734 69.01486206054688 59.78458404541016 67.01209259033203 49.86710739135742 C 65.39906311035156 41.87957000732422 65.31735229492188 34.07112121582031 65.31735229492188 32.58692169189453 C 65.31735229492188 28.32444763183594 64.46804809570312 24.18982696533203 62.79304885864258 20.29795074462891 C 61.17444610595703 16.53717041015625 58.8568000793457 13.15914154052734 55.90447616577148 10.25772094726562 C 52.95094299316406 7.355110168457031 49.51148986816406 5.076187133789062 45.68169403076172 3.484245300292969 C 41.71600341796875 1.8358154296875 37.50264739990234 1 33.15867614746094 1 M 33.15867614746094 0 C 51.47171020507812 0 66.31735229492188 14.58966064453125 66.31735229492188 32.58692169189453 C 66.31735229492188 36.90841674804688 66.93012237548828 62.13059997558594 77.878662109375 67.64933776855469 C 91.09487152099609 74.31133270263672 112.6536407470703 63.8955078125 114.3671035766602 63.8955078125 C 114.5731887817383 63.8955078125 114.4924621582031 64.04647064208984 114.0753402709961 64.39584350585938 C 111.1611099243164 66.83879852294922 101.2939529418945 84.22144317626953 86.82601928710938 90.01823425292969 C 70.76260375976562 96.45439910888672 60.79685974121094 93.67845916748047 44.52877044677734 90.01823425292969 C 27.04052734375 84.32440185546875 0 50.58418273925781 0 32.58692169189453 C 0 14.58966064453125 14.84564971923828 0 33.15867614746094 0 Z" stroke="none" fill="#000"/>
      </g>
      <g id="Ellipse_84" data-name="Ellipse 84" transform="translate(522.087 688.867) rotate(19)" fill="#8a3f1f" stroke="#000" stroke-width="3">
        <ellipse cx="15.667" cy="14.259" rx="15.667" ry="14.259" stroke="none"/>
        <ellipse cx="15.667" cy="14.259" rx="14.167" ry="12.759" fill="none"/>
      </g>
      <g id="Ellipse_85" data-name="Ellipse 85" transform="translate(547.629 699.607) rotate(19)" fill="#8a3f1f" stroke="#000" stroke-width="3">
        <ellipse cx="15.667" cy="14.259" rx="15.667" ry="14.259" stroke="none"/>
        <ellipse cx="15.667" cy="14.259" rx="14.167" ry="12.759" fill="none"/>
      </g>
      <g id="Ellipse_86" data-name="Ellipse 86" transform="translate(537.201 724.23) rotate(19)" fill="#8a3f1f" stroke="#000" stroke-width="3">
        <ellipse cx="15.667" cy="14.259" rx="15.667" ry="14.259" stroke="none"/>
        <ellipse cx="15.667" cy="14.259" rx="14.167" ry="12.759" fill="none"/>
      </g>
      <g id="Ellipse_87" data-name="Ellipse 87" transform="translate(511.659 713.49) rotate(19)" fill="#8a3f1f" stroke="#000" stroke-width="3">
        <ellipse cx="15.667" cy="14.259" rx="15.667" ry="14.259" stroke="none"/>
        <ellipse cx="15.667" cy="14.259" rx="14.167" ry="12.759" fill="none"/>
      </g>
      <g id="Ellipse_88" data-name="Ellipse 88" transform="translate(531.782 711.662) rotate(19)" fill="#8a3f1f" stroke="#000" stroke-width="3">
        <ellipse cx="11.059" cy="10.119" rx="11.059" ry="10.119" stroke="none"/>
        <ellipse cx="11.059" cy="10.119" rx="9.559" ry="8.619" fill="none"/>
      </g>
      <g id="Ellipse_89" data-name="Ellipse 89" transform="translate(437.476 1047.895) rotate(19)" fill="#8a3f1f" stroke="#000" stroke-width="3">
        <ellipse cx="15.667" cy="14.259" rx="15.667" ry="14.259" stroke="none"/>
        <ellipse cx="15.667" cy="14.259" rx="14.167" ry="12.759" fill="none"/>
      </g>
      <g id="Ellipse_90" data-name="Ellipse 90" transform="translate(463.017 1058.635) rotate(19)" fill="#8a3f1f" stroke="#000" stroke-width="3">
        <ellipse cx="15.667" cy="14.259" rx="15.667" ry="14.259" stroke="none"/>
        <ellipse cx="15.667" cy="14.259" rx="14.167" ry="12.759" fill="none"/>
      </g>
      <g id="Ellipse_91" data-name="Ellipse 91" transform="translate(452.589 1083.259) rotate(19)" fill="#8a3f1f" stroke="#000" stroke-width="3">
        <ellipse cx="15.667" cy="14.259" rx="15.667" ry="14.259" stroke="none"/>
        <ellipse cx="15.667" cy="14.259" rx="14.167" ry="12.759" fill="none"/>
      </g>
      <g id="Ellipse_92" data-name="Ellipse 92" transform="translate(427.047 1072.519) rotate(19)" fill="#8a3f1f" stroke="#000" stroke-width="3">
        <ellipse cx="15.667" cy="14.259" rx="15.667" ry="14.259" stroke="none"/>
        <ellipse cx="15.667" cy="14.259" rx="14.167" ry="12.759" fill="none"/>
      </g>
      <g id="Ellipse_93" data-name="Ellipse 93" transform="translate(447.17 1070.691) rotate(19)" fill="#8a3f1f" stroke="#000" stroke-width="3">
        <ellipse cx="11.059" cy="10.119" rx="11.059" ry="10.119" stroke="none"/>
        <ellipse cx="11.059" cy="10.119" rx="9.559" ry="8.619" fill="none"/>
      </g>
      <g id="Ellipse_94" data-name="Ellipse 94" transform="translate(2237.788 940.227) rotate(19)" fill="#8a3f1f" stroke="#000" stroke-width="2">
        <ellipse cx="10.758" cy="10.229" rx="10.758" ry="10.229" stroke="none"/>
        <ellipse cx="10.758" cy="10.229" rx="9.758" ry="9.229" fill="none"/>
      </g>
      <g id="Ellipse_95" data-name="Ellipse 95" transform="translate(2255.309 947.656) rotate(19)" fill="#8a3f1f" stroke="#000" stroke-width="2">
        <ellipse cx="10.758" cy="10.229" rx="10.758" ry="10.229" stroke="none"/>
        <ellipse cx="10.758" cy="10.229" rx="9.758" ry="9.229" fill="none"/>
      </g>
      <g id="Ellipse_96" data-name="Ellipse 96" transform="translate(2247.881 965.34) rotate(19)" fill="#8a3f1f" stroke="#000" stroke-width="2">
        <ellipse cx="10.758" cy="10.229" rx="10.758" ry="10.229" stroke="none"/>
        <ellipse cx="10.758" cy="10.229" rx="9.758" ry="9.229" fill="none"/>
      </g>
      <g id="Ellipse_97" data-name="Ellipse 97" transform="translate(2230.36 957.91) rotate(19)" fill="#8a3f1f" stroke="#000" stroke-width="2">
        <ellipse cx="10.758" cy="10.229" rx="10.758" ry="10.229" stroke="none"/>
        <ellipse cx="10.758" cy="10.229" rx="9.758" ry="9.229" fill="none"/>
      </g>
      <g id="Ellipse_98" data-name="Ellipse 98" transform="translate(2244.261 956.416) rotate(19)" fill="#8a3f1f" stroke="#000" stroke-width="2">
        <ellipse cx="7.594" cy="7.259" rx="7.594" ry="7.259" stroke="none"/>
        <ellipse cx="7.594" cy="7.259" rx="6.594" ry="6.259" fill="none"/>
      </g>
      <g id="Ellipse_99" data-name="Ellipse 99" transform="translate(2133.701 1214.584) rotate(-21)" fill="#8a3f1f" stroke="#000" stroke-width="2">
        <ellipse cx="10.758" cy="10.229" rx="10.758" ry="10.229" stroke="none"/>
        <ellipse cx="10.758" cy="10.229" rx="9.758" ry="9.229" fill="none"/>
      </g>
      <g id="Ellipse_100" data-name="Ellipse 100" transform="translate(2151.897 1209.012) rotate(-21)" fill="#8a3f1f" stroke="#000" stroke-width="2">
        <ellipse cx="10.758" cy="10.229" rx="10.758" ry="10.229" stroke="none"/>
        <ellipse cx="10.758" cy="10.229" rx="9.758" ry="9.229" fill="none"/>
      </g>
      <g id="Ellipse_101" data-name="Ellipse 101" transform="translate(2157.574 1227.334) rotate(-21)" fill="#8a3f1f" stroke="#000" stroke-width="2">
        <ellipse cx="10.758" cy="10.229" rx="10.758" ry="10.229" stroke="none"/>
        <ellipse cx="10.758" cy="10.229" rx="9.758" ry="9.229" fill="none"/>
      </g>
      <g id="Ellipse_102" data-name="Ellipse 102" transform="translate(2139.378 1232.904) rotate(-21)" fill="#8a3f1f" stroke="#000" stroke-width="2">
        <ellipse cx="10.758" cy="10.229" rx="10.758" ry="10.229" stroke="none"/>
        <ellipse cx="10.758" cy="10.229" rx="9.758" ry="9.229" fill="none"/>
      </g>
      <g id="Ellipse_103" data-name="Ellipse 103" transform="translate(2149.065 1222.824) rotate(-21)" fill="#8a3f1f" stroke="#000" stroke-width="2">
        <ellipse cx="7.594" cy="7.259" rx="7.594" ry="7.259" stroke="none"/>
        <ellipse cx="7.594" cy="7.259" rx="6.594" ry="6.259" fill="none"/>
      </g>
      <g id="Ellipse_104" data-name="Ellipse 104" transform="translate(488.454 1641.926)" stroke="#000" stroke-width="1">
        <ellipse cx="7.432" cy="8.004" rx="7.432" ry="8.004" stroke="none"/>
        <ellipse cx="7.432" cy="8.004" rx="6.932" ry="7.504" fill="none"/>
      </g>
      <g id="Ellipse_105" data-name="Ellipse 105" transform="translate(882.928 1791.712)" stroke="#000" stroke-width="1">
        <ellipse cx="7.432" cy="8.004" rx="7.432" ry="8.004" stroke="none"/>
        <ellipse cx="7.432" cy="8.004" rx="6.932" ry="7.504" fill="none"/>
      </g>
      <g id="Ellipse_106" data-name="Ellipse 106" transform="translate(169.445 1839.734)" stroke="#000" stroke-width="1">
        <ellipse cx="5.717" cy="6.289" rx="5.717" ry="6.289" stroke="none"/>
        <ellipse cx="5.717" cy="6.289" rx="5.217" ry="5.789" fill="none"/>
      </g>
      <g id="Ellipse_107" data-name="Ellipse 107" transform="translate(2107.512 1641.926)" stroke="#000" stroke-width="1">
        <ellipse cx="7.432" cy="8.004" rx="7.432" ry="8.004" stroke="none"/>
        <ellipse cx="7.432" cy="8.004" rx="6.932" ry="7.504" fill="none"/>
      </g>
      <g id="Ellipse_108" data-name="Ellipse 108" transform="translate(1713.038 1791.712)" stroke="#000" stroke-width="1">
        <ellipse cx="7.432" cy="8.004" rx="7.432" ry="8.004" stroke="none"/>
        <ellipse cx="7.432" cy="8.004" rx="6.932" ry="7.504" fill="none"/>
      </g>
      <g id="Ellipse_109" data-name="Ellipse 109" transform="translate(2429.951 1839.734)" stroke="#000" stroke-width="1">
        <ellipse cx="5.717" cy="6.289" rx="5.717" ry="6.289" stroke="none"/>
        <ellipse cx="5.717" cy="6.289" rx="5.217" ry="5.789" fill="none"/>
      </g>
    </g>
  </g>
</svg>
