<svg xmlns="http://www.w3.org/2000/svg" width="362.804" height="243.344" viewBox="0 0 362.804 243.344">
  <g id="potion-font" transform="translate(-6331.098 -643.828)">
    <path id="Path_3407" data-name="Path 3407" d="M179.106,167.71c28.166-13.674,65.72-27.348,88.811-60.556,22.837-32.929,30.957-84.835,6.851-103.532-23.852-18.7-79.676-3.907-119.515-5.86s-63.437-20.651-104.29-30.7S-48-44.377-66.52-16.75c-18.27,27.627,3.045,84,25.628,125.3,22.583,41.58,46.436,68.091,72.064,82.044a106.374,106.374,0,0,0,77.139,10.046C131.909,194.779,150.687,181.384,179.106,167.71Z" transform="translate(6404.517 683.364)" fill="#24b24c"/>
    <g id="O" transform="translate(6408.549 736.097)">
      <g id="Group_1582" data-name="Group 1582" transform="translate(0 55.592)">
        <path id="Path_3231" data-name="Path 3231" d="M296.708,165.669a.427.427,0,0,1,0,.808,1.551,1.551,0,0,1-1.4,0,.427.427,0,0,1,0-.808A1.552,1.552,0,0,1,296.708,165.669Z" transform="translate(-240.11 -127.588)" fill="#16110d"/>
        <ellipse id="Ellipse_87" data-name="Ellipse 87" cx="0.989" cy="0.571" rx="0.989" ry="0.571" transform="translate(58.566 35.803)" fill="#16110d"/>
        <path id="Path_3232" data-name="Path 3232" d="M300.363,163.559a.427.427,0,0,1,0,.808,1.551,1.551,0,0,1-1.4,0,.427.427,0,0,1,0-.808A1.552,1.552,0,0,1,300.363,163.559Z" transform="translate(-236.451 -129.7)" fill="#16110d"/>
        <path id="Path_3233" data-name="Path 3233" d="M302.19,162.5a.427.427,0,0,1,0,.808,1.551,1.551,0,0,1-1.4,0,.427.427,0,0,1,0-.808A1.551,1.551,0,0,1,302.19,162.5Z" transform="translate(-234.623 -130.756)" fill="#16110d"/>
        <ellipse id="Ellipse_88" data-name="Ellipse 88" cx="0.989" cy="0.571" rx="0.989" ry="0.571" transform="translate(69.536 29.47)" fill="#16110d"/>
        <path id="Path_3234" data-name="Path 3234" d="M305.845,160.394a.427.427,0,0,1,0,.808,1.551,1.551,0,0,1-1.4,0,.427.427,0,0,1,0-.808A1.551,1.551,0,0,1,305.845,160.394Z" transform="translate(-230.964 -132.868)" fill="#16110d"/>
        <ellipse id="Ellipse_89" data-name="Ellipse 89" cx="0.989" cy="0.571" rx="0.989" ry="0.571" transform="translate(76.849 25.248)" fill="#16110d"/>
        <path id="Path_3235" data-name="Path 3235" d="M309.5,158.284a.427.427,0,0,1,0,.808,1.547,1.547,0,0,1-1.4,0,.427.427,0,0,1,0-.808A1.547,1.547,0,0,1,309.5,158.284Z" transform="translate(-227.305 -134.981)" fill="#16110d"/>
        <ellipse id="Ellipse_90" data-name="Ellipse 90" cx="0.989" cy="0.571" rx="0.989" ry="0.571" transform="translate(47.597 37.914)" fill="#16110d"/>
        <ellipse id="Ellipse_91" data-name="Ellipse 91" cx="0.989" cy="0.571" rx="0.989" ry="0.571" transform="translate(51.253 35.803)" fill="#16110d"/>
        <path id="Path_3236" data-name="Path 3236" d="M296.708,163.559a.427.427,0,0,1,0,.808,1.551,1.551,0,0,1-1.4,0,.427.427,0,0,1,0-.808A1.552,1.552,0,0,1,296.708,163.559Z" transform="translate(-240.11 -129.7)" fill="#16110d"/>
        <path id="Path_3237" data-name="Path 3237" d="M298.536,162.5a.427.427,0,0,1,0,.808,1.551,1.551,0,0,1-1.4,0,.427.427,0,0,1,0-.808A1.551,1.551,0,0,1,298.536,162.5Z" transform="translate(-238.28 -130.756)" fill="#16110d"/>
        <path id="Path_3238" data-name="Path 3238" d="M300.363,161.449a.427.427,0,0,1,0,.808,1.551,1.551,0,0,1-1.4,0,.427.427,0,0,1,0-.808A1.551,1.551,0,0,1,300.363,161.449Z" transform="translate(-236.451 -131.812)" fill="#16110d"/>
        <path id="Path_3239" data-name="Path 3239" d="M302.19,160.394a.427.427,0,0,1,0,.808,1.551,1.551,0,0,1-1.4,0,.427.427,0,0,1,0-.808A1.551,1.551,0,0,1,302.19,160.394Z" transform="translate(-234.623 -132.868)" fill="#16110d"/>
        <path id="Path_3240" data-name="Path 3240" d="M304.018,159.339a.428.428,0,0,1,0,.808,1.552,1.552,0,0,1-1.4,0,.427.427,0,0,1,0-.808A1.551,1.551,0,0,1,304.018,159.339Z" transform="translate(-232.793 -133.924)" fill="#16110d"/>
        <path id="Path_3241" data-name="Path 3241" d="M305.845,158.284a.427.427,0,0,1,0,.808,1.551,1.551,0,0,1-1.4,0,.427.427,0,0,1,0-.808A1.551,1.551,0,0,1,305.845,158.284Z" transform="translate(-230.964 -134.981)" fill="#16110d"/>
        <ellipse id="Ellipse_92" data-name="Ellipse 92" cx="0.989" cy="0.571" rx="0.989" ry="0.571" transform="translate(76.849 21.026)" fill="#16110d"/>
        <ellipse id="Ellipse_93" data-name="Ellipse 93" cx="0.989" cy="0.571" rx="0.989" ry="0.571" transform="translate(43.941 35.803)" fill="#16110d"/>
        <path id="Path_3242" data-name="Path 3242" d="M293.054,163.559a.427.427,0,0,1,0,.808,1.551,1.551,0,0,1-1.4,0,.427.427,0,0,1,0-.808A1.552,1.552,0,0,1,293.054,163.559Z" transform="translate(-243.768 -129.7)" fill="#16110d"/>
        <path id="Path_3243" data-name="Path 3243" d="M294.881,162.5a.427.427,0,0,1,0,.808,1.551,1.551,0,0,1-1.4,0,.427.427,0,0,1,0-.808A1.551,1.551,0,0,1,294.881,162.5Z" transform="translate(-241.939 -130.756)" fill="#16110d"/>
        <ellipse id="Ellipse_94" data-name="Ellipse 94" cx="0.989" cy="0.571" rx="0.989" ry="0.571" transform="translate(54.91 29.47)" fill="#16110d"/>
        <path id="Path_3244" data-name="Path 3244" d="M298.536,160.394a.427.427,0,0,1,0,.808,1.551,1.551,0,0,1-1.4,0,.427.427,0,0,1,0-.808A1.551,1.551,0,0,1,298.536,160.394Z" transform="translate(-238.28 -132.868)" fill="#16110d"/>
        <path id="Path_3245" data-name="Path 3245" d="M300.363,159.339a.427.427,0,0,1,0,.808,1.552,1.552,0,0,1-1.4,0,.427.427,0,0,1,0-.808A1.551,1.551,0,0,1,300.363,159.339Z" transform="translate(-236.451 -133.924)" fill="#16110d"/>
        <ellipse id="Ellipse_95" data-name="Ellipse 95" cx="0.989" cy="0.571" rx="0.989" ry="0.571" transform="translate(65.879 23.137)" fill="#16110d"/>
        <ellipse id="Ellipse_96" data-name="Ellipse 96" cx="0.989" cy="0.571" rx="0.989" ry="0.571" transform="translate(69.536 21.026)" fill="#16110d"/>
        <ellipse id="Ellipse_97" data-name="Ellipse 97" cx="0.989" cy="0.571" rx="0.989" ry="0.571" transform="translate(73.192 18.915)" fill="#16110d"/>
        <ellipse id="Ellipse_98" data-name="Ellipse 98" cx="0.989" cy="0.571" rx="0.989" ry="0.571" transform="translate(36.628 35.803)" fill="#16110d"/>
        <path id="Path_3246" data-name="Path 3246" d="M289.4,163.559a.427.427,0,0,1,0,.808,1.551,1.551,0,0,1-1.4,0,.427.427,0,0,1,0-.808A1.551,1.551,0,0,1,289.4,163.559Z" transform="translate(-247.426 -129.7)" fill="#16110d"/>
        <path id="Path_3247" data-name="Path 3247" d="M291.226,162.5a.427.427,0,0,1,0,.808,1.551,1.551,0,0,1-1.4,0,.427.427,0,0,1,0-.808A1.551,1.551,0,0,1,291.226,162.5Z" transform="translate(-245.597 -130.756)" fill="#16110d"/>
        <ellipse id="Ellipse_99" data-name="Ellipse 99" cx="0.989" cy="0.571" rx="0.989" ry="0.571" transform="translate(47.597 29.47)" fill="#16110d"/>
        <path id="Path_3248" data-name="Path 3248" d="M294.881,160.394a.427.427,0,0,1,0,.808,1.551,1.551,0,0,1-1.4,0,.427.427,0,0,1,0-.808A1.551,1.551,0,0,1,294.881,160.394Z" transform="translate(-241.939 -132.868)" fill="#16110d"/>
        <path id="Path_3249" data-name="Path 3249" d="M296.708,159.339a.427.427,0,0,1,0,.808,1.552,1.552,0,0,1-1.4,0,.427.427,0,0,1,0-.808A1.551,1.551,0,0,1,296.708,159.339Z" transform="translate(-240.11 -133.924)" fill="#16110d"/>
        <ellipse id="Ellipse_100" data-name="Ellipse 100" cx="0.989" cy="0.571" rx="0.989" ry="0.571" transform="translate(32.971 33.692)" fill="#16110d"/>
        <path id="Path_3250" data-name="Path 3250" d="M287.572,162.5a.427.427,0,0,1,0,.808,1.551,1.551,0,0,1-1.4,0,.427.427,0,0,1,0-.808A1.551,1.551,0,0,1,287.572,162.5Z" transform="translate(-249.255 -130.756)" fill="#16110d"/>
        <path id="Path_3251" data-name="Path 3251" d="M289.4,161.449a.427.427,0,0,1,0,.808,1.551,1.551,0,0,1-1.4,0,.427.427,0,0,1,0-.808A1.551,1.551,0,0,1,289.4,161.449Z" transform="translate(-247.426 -131.812)" fill="#16110d"/>
        <path id="Path_3252" data-name="Path 3252" d="M291.226,160.394a.427.427,0,0,1,0,.808,1.551,1.551,0,0,1-1.4,0,.427.427,0,0,1,0-.808A1.551,1.551,0,0,1,291.226,160.394Z" transform="translate(-245.597 -132.868)" fill="#16110d"/>
        <ellipse id="Ellipse_101" data-name="Ellipse 101" cx="0.989" cy="0.571" rx="0.989" ry="0.571" transform="translate(47.597 25.248)" fill="#16110d"/>
        <path id="Path_3253" data-name="Path 3253" d="M283.9,162.493a.427.427,0,0,1,0,.808,1.551,1.551,0,0,1-1.4,0,.427.427,0,0,1,0-.808A1.551,1.551,0,0,1,283.9,162.493Z" transform="translate(-252.93 -130.767)" fill="#16110d"/>
        <ellipse id="Ellipse_102" data-name="Ellipse 102" cx="0.989" cy="0.571" rx="0.989" ry="0.571" transform="translate(32.94 29.448)" fill="#16110d"/>
        <path id="Path_3254" data-name="Path 3254" d="M287.556,160.383a.427.427,0,0,1,0,.808,1.551,1.551,0,0,1-1.4,0,.427.427,0,0,1,0-.808A1.551,1.551,0,0,1,287.556,160.383Z" transform="translate(-249.271 -132.879)" fill="#16110d"/>
        <ellipse id="Ellipse_103" data-name="Ellipse 103" cx="0.989" cy="0.571" rx="0.989" ry="0.571" transform="translate(40.253 25.226)" fill="#16110d"/>
        <path id="Path_3255" data-name="Path 3255" d="M282.074,161.438a.427.427,0,0,1,0,.808,1.552,1.552,0,0,1-1.4,0,.427.427,0,0,1,0-.808A1.551,1.551,0,0,1,282.074,161.438Z" transform="translate(-254.758 -131.823)" fill="#16110d"/>
        <path id="Path_3256" data-name="Path 3256" d="M283.9,160.383a.427.427,0,0,1,0,.808,1.551,1.551,0,0,1-1.4,0,.427.427,0,0,1,0-.808A1.551,1.551,0,0,1,283.9,160.383Z" transform="translate(-252.93 -132.879)" fill="#16110d"/>
        <ellipse id="Ellipse_104" data-name="Ellipse 104" cx="0.989" cy="0.571" rx="0.989" ry="0.571" transform="translate(32.94 25.226)" fill="#16110d"/>
        <path id="Path_3257" data-name="Path 3257" d="M280.245,160.383a.426.426,0,0,1,0,.808,1.547,1.547,0,0,1-1.4,0,.427.427,0,0,1,0-.808A1.547,1.547,0,0,1,280.245,160.383Z" transform="translate(-256.587 -132.879)" fill="#16110d"/>
        <path id="Path_3258" data-name="Path 3258" d="M282.074,159.328a.427.427,0,0,1,0,.808,1.551,1.551,0,0,1-1.4,0,.427.427,0,0,1,0-.808A1.552,1.552,0,0,1,282.074,159.328Z" transform="translate(-254.758 -133.936)" fill="#16110d"/>
        <ellipse id="Ellipse_105" data-name="Ellipse 105" cx="0.989" cy="0.571" rx="0.989" ry="0.571" transform="translate(29.283 23.115)" fill="#16110d"/>
        <path id="Path_3259" data-name="Path 3259" d="M278.419,159.328a.427.427,0,0,1,0,.808,1.551,1.551,0,0,1-1.4,0,.427.427,0,0,1,0-.808A1.552,1.552,0,0,1,278.419,159.328Z" transform="translate(-258.417 -133.936)" fill="#16110d"/>
        <ellipse id="Ellipse_106" data-name="Ellipse 106" cx="0.989" cy="0.571" rx="0.989" ry="0.571" transform="translate(21.97 23.115)" fill="#16110d"/>
        <ellipse id="Ellipse_107" data-name="Ellipse 107" cx="0.989" cy="0.571" rx="0.989" ry="0.571" transform="translate(25.627 21.003)" fill="#16110d"/>
        <path id="Path_3260" data-name="Path 3260" d="M276.592,158.273a.427.427,0,0,1,0,.808,1.551,1.551,0,0,1-1.4,0,.427.427,0,0,1,0-.808A1.551,1.551,0,0,1,276.592,158.273Z" transform="translate(-260.246 -134.992)" fill="#16110d"/>
        <path id="Path_3261" data-name="Path 3261" d="M278.419,157.218a.427.427,0,0,1,0,.808,1.551,1.551,0,0,1-1.4,0,.427.427,0,0,1,0-.808A1.552,1.552,0,0,1,278.419,157.218Z" transform="translate(-258.417 -136.048)" fill="#16110d"/>
        <path id="Path_3262" data-name="Path 3262" d="M280.247,156.163a.427.427,0,0,1,0,.808,1.551,1.551,0,0,1-1.4,0,.427.427,0,0,1,0-.808A1.551,1.551,0,0,1,280.247,156.163Z" transform="translate(-256.587 -137.104)" fill="#16110d"/>
        <ellipse id="Ellipse_108" data-name="Ellipse 108" cx="0.989" cy="0.571" rx="0.989" ry="0.571" transform="translate(11.001 21.004)" fill="#16110d"/>
        <path id="Path_3263" data-name="Path 3263" d="M276.592,156.163a.427.427,0,0,1,0,.808,1.551,1.551,0,0,1-1.4,0,.427.427,0,0,1,0-.808A1.551,1.551,0,0,1,276.592,156.163Z" transform="translate(-260.246 -137.104)" fill="#16110d"/>
        <path id="Path_3264" data-name="Path 3264" d="M278.419,155.108a.427.427,0,0,1,0,.808,1.551,1.551,0,0,1-1.4,0,.427.427,0,0,1,0-.808A1.551,1.551,0,0,1,278.419,155.108Z" transform="translate(-258.417 -138.16)" fill="#16110d"/>
        <ellipse id="Ellipse_109" data-name="Ellipse 109" cx="0.989" cy="0.571" rx="0.989" ry="0.571" transform="translate(7.345 18.893)" fill="#16110d"/>
        <path id="Path_3265" data-name="Path 3265" d="M274.765,155.108a.427.427,0,0,1,0,.808,1.551,1.551,0,0,1-1.4,0,.427.427,0,0,1,0-.808A1.551,1.551,0,0,1,274.765,155.108Z" transform="translate(-262.075 -138.16)" fill="#16110d"/>
        <path id="Path_3266" data-name="Path 3266" d="M276.592,154.053a.427.427,0,0,1,0,.808,1.551,1.551,0,0,1-1.4,0,.427.427,0,0,1,0-.808A1.551,1.551,0,0,1,276.592,154.053Z" transform="translate(-260.246 -139.216)" fill="#16110d"/>
        <path id="Path_3267" data-name="Path 3267" d="M271.11,155.108a.427.427,0,0,1,0,.808,1.551,1.551,0,0,1-1.4,0,.427.427,0,0,1,0-.808A1.551,1.551,0,0,1,271.11,155.108Z" transform="translate(-265.733 -138.16)" fill="#16110d"/>
        <path id="Path_3268" data-name="Path 3268" d="M272.937,154.053a.427.427,0,0,1,0,.808,1.551,1.551,0,0,1-1.4,0,.427.427,0,0,1,0-.808A1.551,1.551,0,0,1,272.937,154.053Z" transform="translate(-263.904 -139.216)" fill="#16110d"/>
        <ellipse id="Ellipse_110" data-name="Ellipse 110" cx="0.989" cy="0.571" rx="0.989" ry="0.571" transform="translate(11.001 12.56)" fill="#16110d"/>
        <path id="Path_3269" data-name="Path 3269" d="M276.592,152.752a1.551,1.551,0,0,1-1.4,0,.427.427,0,0,1,0-.808,1.551,1.551,0,0,1,1.4,0A.427.427,0,0,1,276.592,152.752Z" transform="translate(-260.246 -141.328)" fill="#16110d"/>
        <path id="Path_3270" data-name="Path 3270" d="M271.094,152.987a.425.425,0,0,1,0,.806,1.539,1.539,0,0,1-1.4,0,.425.425,0,0,1,0-.806A1.551,1.551,0,0,1,271.094,152.987Z" transform="translate(-265.749 -140.283)" fill="#16110d"/>
        <path id="Path_3271" data-name="Path 3271" d="M272.92,151.932a.427.427,0,0,1,0,.808,1.547,1.547,0,0,1-1.4,0,.427.427,0,0,1,0-.808A1.547,1.547,0,0,1,272.92,151.932Z" transform="translate(-263.919 -141.339)" fill="#16110d"/>
        <ellipse id="Ellipse_111" data-name="Ellipse 111" cx="0.989" cy="0.571" rx="0.989" ry="0.571" transform="translate(10.969 8.315)" fill="#16110d"/>
        <path id="Path_3272" data-name="Path 3272" d="M269.267,151.932a.427.427,0,0,1,0,.808,1.551,1.551,0,0,1-1.4,0,.427.427,0,0,1,0-.808A1.552,1.552,0,0,1,269.267,151.932Z" transform="translate(-267.578 -141.339)" fill="#16110d"/>
        <ellipse id="Ellipse_112" data-name="Ellipse 112" cx="0.989" cy="0.571" rx="0.989" ry="0.571" transform="translate(3.657 8.315)" fill="#16110d"/>
        <ellipse id="Ellipse_113" data-name="Ellipse 113" cx="0.989" cy="0.571" rx="0.989" ry="0.571" transform="translate(7.313 6.204)" fill="#16110d"/>
        <ellipse id="Ellipse_114" data-name="Ellipse 114" cx="0.989" cy="0.571" rx="0.989" ry="0.571" transform="translate(0 6.204)" fill="#16110d"/>
        <path id="Path_3273" data-name="Path 3273" d="M269.267,147.712a.425.425,0,0,1,0,.806,1.539,1.539,0,0,1-1.4,0,.425.425,0,0,1,0-.806A1.551,1.551,0,0,1,269.267,147.712Z" transform="translate(-267.578 -145.563)" fill="#16110d"/>
        <path id="Path_3274" data-name="Path 3274" d="M271.094,147.4a1.539,1.539,0,0,1-1.4,0,.425.425,0,0,1,0-.806C270.081,146.371,271.48,147.177,271.094,147.4Z" transform="translate(-265.749 -146.555)" fill="#16110d"/>
        <ellipse id="Ellipse_115" data-name="Ellipse 115" cx="0.989" cy="0.571" rx="0.989" ry="0.571" transform="translate(66.023 35.465)" fill="#16110d"/>
        <path id="Path_3275" data-name="Path 3275" d="M304.089,163.39a.427.427,0,0,1,0,.808,1.551,1.551,0,0,1-1.4,0,.427.427,0,0,1,0-.808A1.551,1.551,0,0,1,304.089,163.39Z" transform="translate(-232.722 -129.87)" fill="#16110d"/>
        <path id="Path_3276" data-name="Path 3276" d="M305.915,162.335a.427.427,0,0,1,0,.808,1.551,1.551,0,0,1-1.4,0,.426.426,0,0,1,0-.808A1.548,1.548,0,0,1,305.915,162.335Z" transform="translate(-230.893 -130.926)" fill="#16110d"/>
        <path id="Path_3277" data-name="Path 3277" d="M307.744,161.28a.427.427,0,0,1,0,.808,1.551,1.551,0,0,1-1.4,0,.427.427,0,0,1,0-.808A1.551,1.551,0,0,1,307.744,161.28Z" transform="translate(-229.063 -131.982)" fill="#16110d"/>
        <path id="Path_3278" data-name="Path 3278" d="M309.571,160.225a.427.427,0,0,1,0,.808,1.552,1.552,0,0,1-1.4,0,.427.427,0,0,1,0-.808A1.551,1.551,0,0,1,309.571,160.225Z" transform="translate(-227.234 -133.038)" fill="#16110d"/>
        <ellipse id="Ellipse_116" data-name="Ellipse 116" cx="0.989" cy="0.571" rx="0.989" ry="0.571" transform="translate(84.305 24.91)" fill="#16110d"/>
        <ellipse id="Ellipse_117" data-name="Ellipse 117" cx="0.989" cy="0.571" rx="0.989" ry="0.571" transform="translate(84.173 21.053)" fill="#16110d"/>
        <path id="Path_3279" data-name="Path 3279" d="M313.16,156.189a.425.425,0,0,1,0,.806,1.539,1.539,0,0,1-1.4,0,.425.425,0,0,1,0-.806A1.539,1.539,0,0,1,313.16,156.189Z" transform="translate(-223.642 -137.079)" fill="#16110d"/>
        <path id="Path_3280" data-name="Path 3280" d="M314.987,155.134a.425.425,0,0,1,0,.806,1.539,1.539,0,0,1-1.4,0,.425.425,0,0,1,0-.806A1.539,1.539,0,0,1,314.987,155.134Z" transform="translate(-221.813 -138.135)" fill="#16110d"/>
        <ellipse id="Ellipse_118" data-name="Ellipse 118" cx="0.989" cy="0.571" rx="0.989" ry="0.571" transform="translate(80.513 18.944)" fill="#16110d"/>
        <ellipse id="Ellipse_119" data-name="Ellipse 119" cx="0.989" cy="0.571" rx="0.989" ry="0.571" transform="translate(84.173 16.831)" fill="#16110d"/>
        <path id="Path_3281" data-name="Path 3281" d="M313.16,154.079a.425.425,0,0,1,0,.806,1.539,1.539,0,0,1-1.4,0,.425.425,0,0,1,0-.806A1.539,1.539,0,0,1,313.16,154.079Z" transform="translate(-223.642 -139.191)" fill="#16110d"/>
        <path id="Path_3282" data-name="Path 3282" d="M314.987,153.024a.425.425,0,0,1,0,.806,1.539,1.539,0,0,1-1.4,0,.425.425,0,0,1,0-.806A1.539,1.539,0,0,1,314.987,153.024Z" transform="translate(-221.813 -140.247)" fill="#16110d"/>
        <path id="Path_3283" data-name="Path 3283" d="M306.276,155.135a1.547,1.547,0,0,1,1.4,0,.427.427,0,0,1,0,.808,1.551,1.551,0,0,1-1.4,0A.427.427,0,0,1,306.276,155.135Z" transform="translate(-229.131 -138.134)" fill="#16110d"/>
        <path id="Path_3284" data-name="Path 3284" d="M309.5,154.079a.425.425,0,0,1,0,.806,1.539,1.539,0,0,1-1.4,0,.425.425,0,0,1,0-.806A1.539,1.539,0,0,1,309.5,154.079Z" transform="translate(-227.3 -139.191)" fill="#16110d"/>
        <path id="Path_3285" data-name="Path 3285" d="M311.331,153.024a.425.425,0,0,1,0,.806,1.535,1.535,0,0,1-1.4,0,.425.425,0,0,1,0-.806A1.535,1.535,0,0,1,311.331,153.024Z" transform="translate(-225.471 -140.247)" fill="#16110d"/>
        <path id="Path_3286" data-name="Path 3286" d="M313.16,151.969a.425.425,0,0,1,0,.806,1.539,1.539,0,0,1-1.4,0,.425.425,0,0,1,0-.806A1.539,1.539,0,0,1,313.16,151.969Z" transform="translate(-223.642 -141.304)" fill="#16110d"/>
        <ellipse id="Ellipse_120" data-name="Ellipse 120" cx="0.989" cy="0.571" rx="0.989" ry="0.571" transform="translate(91.486 8.387)" fill="#16110d"/>
        <ellipse id="Ellipse_121" data-name="Ellipse 121" cx="0.989" cy="0.571" rx="0.989" ry="0.571" transform="translate(80.516 10.498)" fill="#16110d"/>
        <ellipse id="Ellipse_122" data-name="Ellipse 122" cx="0.989" cy="0.571" rx="0.989" ry="0.571" transform="translate(84.173 8.387)" fill="#16110d"/>
        <path id="Path_3287" data-name="Path 3287" d="M314.987,148.8a.425.425,0,0,1,0,.806,1.539,1.539,0,0,1-1.4,0,.425.425,0,0,1,0-.806A1.539,1.539,0,0,1,314.987,148.8Z" transform="translate(-221.813 -144.472)" fill="#16110d"/>
        <path id="Path_3288" data-name="Path 3288" d="M311.829,158.131a1.545,1.545,0,0,1,1.4,0,.425.425,0,0,1,0,.806,1.545,1.545,0,0,1-1.4,0A.427.427,0,0,1,311.829,158.131Z" transform="translate(-223.572 -135.135)" fill="#16110d"/>
      </g>
      <g id="Group_1584" data-name="Group 1584" transform="translate(0.244 0)">
        <g id="Group_1583" data-name="Group 1583" transform="translate(0 24.641)">
          <path id="Path_3289" data-name="Path 3289" d="M359.448,159.551,359.434,134l-14.165,7.782q-.885-.543-1.823-1.085-15.494-8.947-31.033-9.215a57.381,57.381,0,0,0-29.579,7.862l-14.749-5.891.012,23.688q.417,9.07,15.706,17.895,15.458,8.923,31.225,9.153a57.738,57.738,0,0,0,30.179-8.088q13.849-8,14.155-16.514ZM309.4,144.71q7.453.744,16.626,6.043c.49.282.934.558,1.389.836l-5.851,3.216L299.248,145.9A22.565,22.565,0,0,1,309.4,144.71Z" transform="translate(-267.315 -130.703)" fill="#ffbe2e"/>
          <path id="Path_3290" data-name="Path 3290" d="M316.252,185.346c-.282,0-.566,0-.848-.006-10.6-.154-21.226-3.268-31.6-9.257s-15.8-12.23-16.09-18.527L267.7,132.7l15.462,6.175a58.324,58.324,0,0,1,29.649-7.778c10.441.178,21.008,3.314,31.405,9.317.5.286.985.574,1.459.86l13.531-7.432a.935.935,0,0,1,1.385.818l.014,23.948-.118,1.9c-.472,5.755-5.351,11.352-14.507,16.638A58.877,58.877,0,0,1,316.252,185.346Zm-47.011-50.375.012,22.551c.262,5.7,5.419,11.512,15.322,17.229,10.143,5.855,20.522,8.9,30.851,9.05a57.432,57.432,0,0,0,29.783-7.986c8.938-5.161,13.573-10.5,13.771-15.876l.086-.534-.014-23.724-13.419,7.372-.382-.236q-.873-.534-1.8-1.073c-10.169-5.871-20.486-8.936-30.663-9.11A56.884,56.884,0,0,0,283.6,140.4l-.322.18ZM322,156.037l-24.516-9.789,1.889-.692a23.507,23.507,0,0,1,10.489-1.229h0c5.055.506,10.751,2.573,16.932,6.143.394.226.758.45,1.12.672l1.419.866Zm-20.05-9.663,19.944,7.964,4.366-2.4-.234-.138c-5.993-3.46-11.484-5.459-16.318-5.945h0A22.569,22.569,0,0,0,301.947,146.374Z" transform="translate(-267.7 -131.087)" fill="#16110d"/>
        </g>
        <rect id="Rectangle_976" data-name="Rectangle 976" width="57.649" height="33.547" transform="translate(18.235 10.852)" fill="#ffbe2e"/>
        <path id="Path_3291" data-name="Path 3291" d="M343.483,128.378q15.455,8.923,15.916,17.945t-14.155,17.461a57.761,57.761,0,0,1-30.179,8.088q-15.77-.231-31.225-9.154-15.29-8.824-15.708-17.895t14.155-17.485a57.532,57.532,0,0,1,30.161-8.172Q327.986,119.429,343.483,128.378Zm-42.137,24.328q17.763,10.253,30.117,3.12,6.282-3.626,5.006-7.872t-10.411-9.517q-9.173-5.295-16.626-6.043a22.06,22.06,0,0,0-13.573,2.779Q283.418,142.356,301.346,152.706Z" transform="translate(-267.279 -118.388)" fill="#ffbe2e"/>
        <path id="Path_3292" data-name="Path 3292" d="M358.274,145.481q-2.77-7.2-15.121-14.335-15.494-8.944-31.033-9.213a57.56,57.56,0,0,0-30.161,8.172q-11.076,6.4-13.483,13.167V150.8c1.675,4.95,6.649,9.847,15.033,14.687q15.458,8.923,31.225,9.154a57.756,57.756,0,0,0,30.179-8.088q10.8-6.237,13.361-12.792ZM331.135,158.6q-12.357,7.131-30.119-3.122-17.925-10.349-5.487-17.533a22.063,22.063,0,0,1,13.573-2.779q7.453.747,16.626,6.045,9.134,5.271,10.411,9.515T331.135,158.6Z" transform="translate(-266.923 -115.617)" fill="#fec"/>
        <path id="Path_3293" data-name="Path 3293" d="M316.288,173.03c-.284,0-.566,0-.85-.006-10.6-.152-21.225-3.268-31.6-9.257-10.389-5.995-15.8-12.228-16.092-18.525-.292-6.329,4.6-12.448,14.539-18.187a58.721,58.721,0,0,1,30.559-8.276c10.441.18,21.008,3.314,31.405,9.317,10.5,6.059,15.982,12.308,16.3,18.571.32,6.3-4.572,12.41-14.541,18.167A58.863,58.863,0,0,1,316.288,173.03ZM311.9,120.31a57.219,57.219,0,0,0-28.846,8.078c-9.4,5.429-14.035,11.075-13.771,16.784.264,5.739,5.419,11.546,15.322,17.263,10.143,5.857,20.522,8.9,30.851,9.05a57.262,57.262,0,0,0,29.783-7.984c9.429-5.445,14.063-11.083,13.773-16.756-.29-5.709-5.517-11.534-15.534-17.317h0c-10.167-5.871-20.484-8.936-30.661-9.111C312.514,120.314,312.21,120.31,311.9,120.31Zm8.916,39.582c-5.883,0-12.392-2.047-19.474-6.135h0c-7.382-4.26-10.967-8.114-10.967-11.784,0-2.6,1.843-4.982,5.481-7.081a22.905,22.905,0,0,1,14.033-2.879c5.055.506,10.751,2.573,16.934,6.143,6.325,3.652,9.847,6.911,10.763,9.961.962,3.2-.838,6.153-5.357,8.76A22.449,22.449,0,0,1,320.82,159.892Zm-18.705-7.468c11.528,6.657,21.4,7.7,29.348,3.12,3.872-2.235,5.395-4.52,4.654-6.983-.79-2.621-4.174-5.673-10.061-9.07-5.991-3.462-11.482-5.461-16.318-5.945a21.364,21.364,0,0,0-13.11,2.679c-3.126,1.8-4.71,3.74-4.71,5.749,0,3.03,3.432,6.543,10.2,10.451Z" transform="translate(-267.664 -118.773)" fill="#16110d"/>
        <path id="Path_3294" data-name="Path 3294" d="M289.165,155.4V180.31l17.145-.52,17.8-7.323,11.567-8.287L339,156.494l-1.488-21.4-3.3,5.082-8.369,6.65-13.715,5.75-9.366,2.57Z" transform="translate(-246.214 -102.431)" fill="#16110d"/>
        <path id="Path_3295" data-name="Path 3295" d="M292.367,146.585l.049,24.569-12.966-3.995V142.707Z" transform="translate(-255.939 -94.815)" fill="#16110d"/>
        <path id="Path_3296" data-name="Path 3296" d="M300.418,126.477l-.032,24.33L287.3,144.49l-6.983-6.478-.87-4.513,5.624-5.191,8.427-2.6Z" transform="translate(-255.939 -111.833)" fill="#16110d"/>
      </g>
    </g>
    <g id="N" transform="translate(6503.543 653.643)">
      <g id="Group_1587" data-name="Group 1587" transform="translate(1.156 0)">
        <path id="Path_3297" data-name="Path 3297" d="M238.617,203.965l-21.64-11.889V121.433l21.64,11.889Z" transform="translate(-216.209 -86.92)" fill="#ffbe2e"/>
        <g id="Group_1585" data-name="Group 1585" transform="translate(29.048 56.748)">
          <path id="Path_3298" data-name="Path 3298" d="M260.622,171.2l-29.089-16.4L235,133.074l3.272,1.256Z" transform="translate(-230.687 -132.015)" fill="#ffbe2e"/>
          <path id="Path_3299" data-name="Path 3299" d="M261.045,172.615,231.11,155.736l3.706-23.191,4.4,1.691L262.111,172ZM232.8,154.92l26.063,14.693-20.688-34.129-2.139-.822Z" transform="translate(-231.11 -132.545)" fill="#16110d"/>
        </g>
        <g id="Group_1586" data-name="Group 1586" transform="translate(43.233 8.512)">
          <path id="Path_3300" data-name="Path 3300" d="M238.871,108.876s21.639,10.939,21.639,11.888.05,36.014.062,36.532.524,12.224.524,12.224v12.238L239.019,144.3l-.436-10.871Z" transform="translate(-237.815 -108.002)" fill="#ffbe2e"/>
          <path id="Path_3301" data-name="Path 3301" d="M262.249,185.017l-23.614-40.254-.436-10.869.29-25.026.742-.428.372.188c22.061,11.154,22.061,12.008,22.061,12.574,0,.338.048,35.9.062,36.512.012.518.522,12.21.522,12.21Zm-22.083-40.51,20.544,34.865v-9.415s-.51-11.688-.524-12.2c-.014-.548-.058-32.992-.062-36.284-1.513-1.281-12.572-7.079-20.114-10.909l-.272,23.312Z" transform="translate(-238.199 -108.439)" fill="#16110d"/>
        </g>
        <path id="Path_3302" data-name="Path 3302" d="M238.572,115.2l21.64,11.889-21.594,12.467-21.64-11.889Z" transform="translate(-216.209 -93.157)" fill="#ffbe2e"/>
        <path id="Path_3303" data-name="Path 3303" d="M253.456,104.626l21.64,11.889-14.729,8.5-21.64-11.889Z" transform="translate(-194.438 -103.744)" fill="#ffbe2e"/>
        <path id="Path_3304" data-name="Path 3304" d="M238.572,118.324l21.64,11.889L238.617,142.68l-21.64-11.889Z" transform="translate(-216.208 -90.032)" fill="#fec"/>
        <path id="Path_3305" data-name="Path 3305" d="M253.109,107.747l21.64,11.889-14.729,8.5-20.947-11.508.01-.787Z" transform="translate(-194.091 -100.619)" fill="#fec"/>
        <path id="Path_3306" data-name="Path 3306" d="M275.6,104.185l-15.486,8.94-.012,1.031,21.647,11.76V157.4c0,3.8.154,8.648.454,14.429l-21.06-34.285-22.2-12.2-22.355,12.906V209.8l22.417,12.318,15.408-8.894V180.931c0-3.72-.216-8.858-.644-15.3l21.248,35.055.554.318,22.445-12.96V116.5Zm-13.15,9.369,13.168-7.6,20.062,11.023-13.168,7.6Zm-24.22,106.374-20.1-11.041V140l20.1,11.041Zm-19.3-81.246,20.036-11.568,20.06,11.021L238.992,149.7Z" transform="translate(-216.593 -104.185)" fill="#16110d"/>
      </g>
      <g id="Group_1588" data-name="Group 1588" transform="translate(0 86.442)">
        <ellipse id="Ellipse_123" data-name="Ellipse 123" cx="0.989" cy="0.571" rx="0.989" ry="0.571" transform="translate(29.284 42.194)" fill="#16110d"/>
        <path id="Path_3307" data-name="Path 3307" d="M234.166,167.584a.425.425,0,0,1,0,.806,1.539,1.539,0,0,1-1.4,0,.425.425,0,0,1,0-.806A1.539,1.539,0,0,1,234.166,167.584Z" transform="translate(-199.537 -127.334)" fill="#16110d"/>
        <path id="Path_3308" data-name="Path 3308" d="M235.993,166.529a.425.425,0,0,1,0,.806,1.539,1.539,0,0,1-1.4,0,.425.425,0,0,1,0-.806A1.539,1.539,0,0,1,235.993,166.529Z" transform="translate(-197.708 -128.39)" fill="#16110d"/>
        <ellipse id="Ellipse_124" data-name="Ellipse 124" cx="0.989" cy="0.571" rx="0.989" ry="0.571" transform="translate(40.253 35.861)" fill="#16110d"/>
        <ellipse id="Ellipse_125" data-name="Ellipse 125" cx="0.989" cy="0.571" rx="0.989" ry="0.571" transform="translate(43.91 33.749)" fill="#16110d"/>
        <ellipse id="Ellipse_126" data-name="Ellipse 126" cx="0.989" cy="0.571" rx="0.989" ry="0.571" transform="translate(47.566 31.639)" fill="#16110d"/>
        <path id="Path_3309" data-name="Path 3309" d="M243.3,162.309a.425.425,0,0,1,0,.806,1.535,1.535,0,0,1-1.4,0,.425.425,0,0,1,0-.806A1.535,1.535,0,0,1,243.3,162.309Z" transform="translate(-190.391 -132.614)" fill="#16110d"/>
        <path id="Path_3310" data-name="Path 3310" d="M250.612,158.089a.425.425,0,0,1,0,.806,1.539,1.539,0,0,1-1.4,0,.425.425,0,0,1,0-.806A1.539,1.539,0,0,1,250.612,158.089Z" transform="translate(-183.075 -136.838)" fill="#16110d"/>
        <path id="Path_3311" data-name="Path 3311" d="M252.439,157.034a.425.425,0,0,1,0,.806,1.539,1.539,0,0,1-1.4,0,.425.425,0,0,1,0-.806A1.539,1.539,0,0,1,252.439,157.034Z" transform="translate(-181.246 -137.894)" fill="#16110d"/>
        <ellipse id="Ellipse_127" data-name="Ellipse 127" cx="0.989" cy="0.571" rx="0.989" ry="0.571" transform="translate(21.971 42.194)" fill="#16110d"/>
        <path id="Path_3312" data-name="Path 3312" d="M230.511,167.584a.425.425,0,0,1,0,.806,1.539,1.539,0,0,1-1.4,0,.425.425,0,0,1,0-.806A1.539,1.539,0,0,1,230.511,167.584Z" transform="translate(-203.196 -127.334)" fill="#16110d"/>
        <path id="Path_3313" data-name="Path 3313" d="M232.339,166.529a.425.425,0,0,1,0,.806,1.539,1.539,0,0,1-1.4,0,.425.425,0,0,1,0-.806A1.539,1.539,0,0,1,232.339,166.529Z" transform="translate(-201.366 -128.39)" fill="#16110d"/>
        <ellipse id="Ellipse_128" data-name="Ellipse 128" cx="0.989" cy="0.571" rx="0.989" ry="0.571" transform="translate(32.94 35.861)" fill="#16110d"/>
        <ellipse id="Ellipse_129" data-name="Ellipse 129" cx="0.989" cy="0.571" rx="0.989" ry="0.571" transform="translate(36.597 33.749)" fill="#16110d"/>
        <path id="Path_3314" data-name="Path 3314" d="M237.821,163.364a.426.426,0,0,1,0,.806,1.539,1.539,0,0,1-1.4,0,.425.425,0,0,1,0-.806A1.539,1.539,0,0,1,237.821,163.364Z" transform="translate(-195.878 -131.558)" fill="#16110d"/>
        <path id="Path_3315" data-name="Path 3315" d="M239.648,162.309a.425.425,0,0,1,0,.806,1.539,1.539,0,0,1-1.4,0,.425.425,0,0,1,0-.806A1.539,1.539,0,0,1,239.648,162.309Z" transform="translate(-194.05 -132.614)" fill="#16110d"/>
        <ellipse id="Ellipse_130" data-name="Ellipse 130" cx="0.989" cy="0.571" rx="0.989" ry="0.571" transform="translate(47.566 27.416)" fill="#16110d"/>
        <path id="Path_3316" data-name="Path 3316" d="M243.3,160.2a.425.425,0,0,1,0,.806,1.535,1.535,0,0,1-1.4,0,.425.425,0,0,1,0-.806A1.535,1.535,0,0,1,243.3,160.2Z" transform="translate(-190.391 -134.726)" fill="#16110d"/>
        <ellipse id="Ellipse_131" data-name="Ellipse 131" cx="0.989" cy="0.571" rx="0.989" ry="0.571" transform="translate(58.535 21.083)" fill="#16110d"/>
        <path id="Path_3317" data-name="Path 3317" d="M248.783,157.034a.425.425,0,0,1,0,.806,1.535,1.535,0,0,1-1.4,0,.425.425,0,0,1,0-.806A1.535,1.535,0,0,1,248.783,157.034Z" transform="translate(-184.904 -137.894)" fill="#16110d"/>
        <path id="Path_3318" data-name="Path 3318" d="M250.612,155.979a.425.425,0,0,1,0,.806,1.539,1.539,0,0,1-1.4,0,.425.425,0,0,1,0-.806A1.539,1.539,0,0,1,250.612,155.979Z" transform="translate(-183.075 -138.95)" fill="#16110d"/>
        <ellipse id="Ellipse_132" data-name="Ellipse 132" cx="0.989" cy="0.571" rx="0.989" ry="0.571" transform="translate(18.314 40.083)" fill="#16110d"/>
        <path id="Path_3319" data-name="Path 3319" d="M228.684,166.529a.425.425,0,0,1,0,.806,1.539,1.539,0,0,1-1.4,0,.425.425,0,0,1,0-.806A1.539,1.539,0,0,1,228.684,166.529Z" transform="translate(-205.024 -128.39)" fill="#16110d"/>
        <ellipse id="Ellipse_133" data-name="Ellipse 133" cx="0.989" cy="0.571" rx="0.989" ry="0.571" transform="translate(25.627 35.861)" fill="#16110d"/>
        <path id="Path_3320" data-name="Path 3320" d="M232.339,164.419a.425.425,0,0,1,0,.806,1.539,1.539,0,0,1-1.4,0,.425.425,0,0,1,0-.806A1.539,1.539,0,0,1,232.339,164.419Z" transform="translate(-201.366 -130.502)" fill="#16110d"/>
        <path id="Path_3321" data-name="Path 3321" d="M234.166,163.364a.425.425,0,0,1,0,.806,1.539,1.539,0,0,1-1.4,0,.425.425,0,0,1,0-.806A1.539,1.539,0,0,1,234.166,163.364Z" transform="translate(-199.537 -131.558)" fill="#16110d"/>
        <path id="Path_3322" data-name="Path 3322" d="M235.993,162.309a.425.425,0,0,1,0,.806,1.539,1.539,0,0,1-1.4,0,.425.425,0,0,1,0-.806A1.539,1.539,0,0,1,235.993,162.309Z" transform="translate(-197.708 -132.614)" fill="#16110d"/>
        <ellipse id="Ellipse_134" data-name="Ellipse 134" cx="0.989" cy="0.571" rx="0.989" ry="0.571" transform="translate(40.253 27.416)" fill="#16110d"/>
        <path id="Path_3323" data-name="Path 3323" d="M239.648,160.2a.425.425,0,0,1,0,.806,1.539,1.539,0,0,1-1.4,0,.425.425,0,0,1,0-.806A1.539,1.539,0,0,1,239.648,160.2Z" transform="translate(-194.05 -134.726)" fill="#16110d"/>
        <path id="Path_3324" data-name="Path 3324" d="M241.475,159.144a.425.425,0,0,1,0,.806,1.539,1.539,0,0,1-1.4,0,.425.425,0,0,1,0-.806A1.539,1.539,0,0,1,241.475,159.144Z" transform="translate(-192.221 -135.782)" fill="#16110d"/>
        <ellipse id="Ellipse_135" data-name="Ellipse 135" cx="0.989" cy="0.571" rx="0.989" ry="0.571" transform="translate(51.222 21.083)" fill="#16110d"/>
        <path id="Path_3325" data-name="Path 3325" d="M245.13,157.034a.425.425,0,0,1,0,.806,1.539,1.539,0,0,1-1.4,0,.425.425,0,0,1,0-.806A1.539,1.539,0,0,1,245.13,157.034Z" transform="translate(-188.562 -137.894)" fill="#16110d"/>
        <path id="Path_3326" data-name="Path 3326" d="M246.957,155.979a.425.425,0,0,1,0,.806,1.539,1.539,0,0,1-1.4,0,.425.425,0,0,1,0-.806A1.539,1.539,0,0,1,246.957,155.979Z" transform="translate(-186.733 -138.95)" fill="#16110d"/>
        <path id="Path_3327" data-name="Path 3327" d="M248.785,154.924a.425.425,0,0,1,0,.806,1.535,1.535,0,0,1-1.4,0,.425.425,0,0,1,0-.806A1.539,1.539,0,0,1,248.785,154.924Z" transform="translate(-184.904 -140.006)" fill="#16110d"/>
        <path id="Path_3328" data-name="Path 3328" d="M225.029,166.529a.425.425,0,0,1,0,.806,1.539,1.539,0,0,1-1.4,0,.425.425,0,0,1,0-.806A1.539,1.539,0,0,1,225.029,166.529Z" transform="translate(-208.683 -128.39)" fill="#16110d"/>
        <ellipse id="Ellipse_136" data-name="Ellipse 136" cx="0.989" cy="0.571" rx="0.989" ry="0.571" transform="translate(18.314 35.861)" fill="#16110d"/>
        <path id="Path_3329" data-name="Path 3329" d="M228.684,164.419a.425.425,0,0,1,0,.806,1.539,1.539,0,0,1-1.4,0,.425.425,0,0,1,0-.806A1.539,1.539,0,0,1,228.684,164.419Z" transform="translate(-205.024 -130.502)" fill="#16110d"/>
        <path id="Path_3330" data-name="Path 3330" d="M230.511,163.364a.425.425,0,0,1,0,.806,1.539,1.539,0,0,1-1.4,0,.425.425,0,0,1,0-.806A1.539,1.539,0,0,1,230.511,163.364Z" transform="translate(-203.196 -131.558)" fill="#16110d"/>
        <path id="Path_3331" data-name="Path 3331" d="M232.339,162.309a.425.425,0,0,1,0,.806,1.539,1.539,0,0,1-1.4,0,.425.425,0,0,1,0-.806A1.539,1.539,0,0,1,232.339,162.309Z" transform="translate(-201.366 -132.614)" fill="#16110d"/>
        <path id="Path_3332" data-name="Path 3332" d="M234.166,161.254a.425.425,0,0,1,0,.806,1.539,1.539,0,0,1-1.4,0,.425.425,0,0,1,0-.806A1.539,1.539,0,0,1,234.166,161.254Z" transform="translate(-199.537 -133.67)" fill="#16110d"/>
        <path id="Path_3333" data-name="Path 3333" d="M235.993,160.2a.425.425,0,0,1,0,.806,1.539,1.539,0,0,1-1.4,0,.425.425,0,0,1,0-.806A1.539,1.539,0,0,1,235.993,160.2Z" transform="translate(-197.708 -134.726)" fill="#16110d"/>
        <path id="Path_3334" data-name="Path 3334" d="M237.821,159.144a.425.425,0,0,1,0,.806,1.539,1.539,0,0,1-1.4,0,.425.425,0,0,1,0-.806A1.539,1.539,0,0,1,237.821,159.144Z" transform="translate(-195.878 -135.782)" fill="#16110d"/>
        <path id="Path_3335" data-name="Path 3335" d="M239.648,158.089a.425.425,0,0,1,0,.806,1.539,1.539,0,0,1-1.4,0,.425.425,0,0,1,0-.806A1.539,1.539,0,0,1,239.648,158.089Z" transform="translate(-194.05 -136.838)" fill="#16110d"/>
        <path id="Path_3336" data-name="Path 3336" d="M241.475,157.034a.425.425,0,0,1,0,.806,1.539,1.539,0,0,1-1.4,0,.425.425,0,0,1,0-.806A1.539,1.539,0,0,1,241.475,157.034Z" transform="translate(-192.221 -137.894)" fill="#16110d"/>
        <path id="Path_3337" data-name="Path 3337" d="M243.3,155.979a.425.425,0,0,1,0,.806,1.539,1.539,0,0,1-1.4,0,.425.425,0,0,1,0-.806A1.539,1.539,0,0,1,243.3,155.979Z" transform="translate(-190.391 -138.95)" fill="#16110d"/>
        <ellipse id="Ellipse_137" data-name="Ellipse 137" cx="0.989" cy="0.571" rx="0.989" ry="0.571" transform="translate(54.879 14.75)" fill="#16110d"/>
        <ellipse id="Ellipse_138" data-name="Ellipse 138" cx="0.989" cy="0.571" rx="0.989" ry="0.571" transform="translate(58.535 12.639)" fill="#16110d"/>
        <ellipse id="Ellipse_139" data-name="Ellipse 139" cx="0.989" cy="0.571" rx="0.989" ry="0.571" transform="translate(11.002 35.861)" fill="#16110d"/>
        <path id="Path_3338" data-name="Path 3338" d="M225.029,164.419a.425.425,0,0,1,0,.806,1.539,1.539,0,0,1-1.4,0,.425.425,0,0,1,0-.806A1.539,1.539,0,0,1,225.029,164.419Z" transform="translate(-208.683 -130.502)" fill="#16110d"/>
        <path id="Path_3339" data-name="Path 3339" d="M226.857,163.364a.425.425,0,0,1,0,.806,1.539,1.539,0,0,1-1.4,0,.425.425,0,0,1,0-.806A1.539,1.539,0,0,1,226.857,163.364Z" transform="translate(-206.853 -131.558)" fill="#16110d"/>
        <path id="Path_3340" data-name="Path 3340" d="M237.821,157.034a.425.425,0,0,1,0,.806,1.539,1.539,0,0,1-1.4,0,.425.425,0,0,1,0-.806A1.539,1.539,0,0,1,237.821,157.034Z" transform="translate(-195.878 -137.894)" fill="#16110d"/>
        <path id="Path_3341" data-name="Path 3341" d="M239.648,155.979a.425.425,0,0,1,0,.806,1.539,1.539,0,0,1-1.4,0,.425.425,0,0,1,0-.806A1.539,1.539,0,0,1,239.648,155.979Z" transform="translate(-194.05 -138.95)" fill="#16110d"/>
        <path id="Path_3342" data-name="Path 3342" d="M241.475,154.924a.425.425,0,0,1,0,.806,1.539,1.539,0,0,1-1.4,0,.425.425,0,0,1,0-.806A1.539,1.539,0,0,1,241.475,154.924Z" transform="translate(-192.221 -140.006)" fill="#16110d"/>
        <ellipse id="Ellipse_140" data-name="Ellipse 140" cx="0.989" cy="0.571" rx="0.989" ry="0.571" transform="translate(51.223 12.639)" fill="#16110d"/>
        <path id="Path_3343" data-name="Path 3343" d="M245.13,152.814a.425.425,0,0,1,0,.806,1.539,1.539,0,0,1-1.4,0,.425.425,0,0,1,0-.806A1.539,1.539,0,0,1,245.13,152.814Z" transform="translate(-188.562 -142.118)" fill="#16110d"/>
        <ellipse id="Ellipse_141" data-name="Ellipse 141" cx="0.989" cy="0.571" rx="0.989" ry="0.571" transform="translate(7.345 33.75)" fill="#16110d"/>
        <ellipse id="Ellipse_142" data-name="Ellipse 142" cx="0.989" cy="0.571" rx="0.989" ry="0.571" transform="translate(11.002 31.639)" fill="#16110d"/>
        <path id="Path_3344" data-name="Path 3344" d="M225.029,162.309a.425.425,0,0,1,0,.806,1.539,1.539,0,0,1-1.4,0,.425.425,0,0,1,0-.806A1.539,1.539,0,0,1,225.029,162.309Z" transform="translate(-208.683 -132.614)" fill="#16110d"/>
        <ellipse id="Ellipse_143" data-name="Ellipse 143" cx="0.989" cy="0.571" rx="0.989" ry="0.571" transform="translate(40.253 14.75)" fill="#16110d"/>
        <path id="Path_3345" data-name="Path 3345" d="M239.648,153.869a.425.425,0,0,1,0,.806,1.539,1.539,0,0,1-1.4,0,.425.425,0,0,1,0-.806A1.539,1.539,0,0,1,239.648,153.869Z" transform="translate(-194.05 -141.062)" fill="#16110d"/>
        <path id="Path_3346" data-name="Path 3346" d="M241.475,152.814a.425.425,0,0,1,0,.806,1.539,1.539,0,0,1-1.4,0,.425.425,0,0,1,0-.806A1.539,1.539,0,0,1,241.475,152.814Z" transform="translate(-192.221 -142.118)" fill="#16110d"/>
        <path id="Path_3347" data-name="Path 3347" d="M243.3,151.759a.425.425,0,0,1,0,.806,1.539,1.539,0,0,1-1.4,0,.425.425,0,0,1,0-.806A1.539,1.539,0,0,1,243.3,151.759Z" transform="translate(-190.391 -143.174)" fill="#16110d"/>
        <ellipse id="Ellipse_144" data-name="Ellipse 144" cx="0.989" cy="0.571" rx="0.989" ry="0.571" transform="translate(3.657 31.616)" fill="#16110d"/>
        <ellipse id="Ellipse_145" data-name="Ellipse 145" cx="0.989" cy="0.571" rx="0.989" ry="0.571" transform="translate(7.313 29.505)" fill="#16110d"/>
        <ellipse id="Ellipse_146" data-name="Ellipse 146" cx="0.989" cy="0.571" rx="0.989" ry="0.571" transform="translate(10.97 27.394)" fill="#16110d"/>
        <ellipse id="Ellipse_147" data-name="Ellipse 147" cx="0.989" cy="0.571" rx="0.989" ry="0.571" transform="translate(40.222 10.506)" fill="#16110d"/>
        <ellipse id="Ellipse_148" data-name="Ellipse 148" cx="0.989" cy="0.571" rx="0.989" ry="0.571" transform="translate(43.878 8.395)" fill="#16110d"/>
        <path id="Path_3348" data-name="Path 3348" d="M241.458,150.693a.425.425,0,0,1,0,.806,1.535,1.535,0,0,1-1.4,0,.425.425,0,0,1,0-.806A1.535,1.535,0,0,1,241.458,150.693Z" transform="translate(-192.236 -144.241)" fill="#16110d"/>
        <path id="Path_3349" data-name="Path 3349" d="M217.7,162.3a.425.425,0,0,1,0,.806,1.539,1.539,0,0,1-1.4,0,.425.425,0,0,1,0-.806A1.539,1.539,0,0,1,217.7,162.3Z" transform="translate(-216.015 -132.625)" fill="#16110d"/>
        <path id="Path_3350" data-name="Path 3350" d="M219.532,161.243a.426.426,0,0,1,0,.806,1.539,1.539,0,0,1-1.4,0,.425.425,0,0,1,0-.806A1.539,1.539,0,0,1,219.532,161.243Z" transform="translate(-214.185 -133.681)" fill="#16110d"/>
        <path id="Path_3351" data-name="Path 3351" d="M221.359,160.188a.425.425,0,0,1,0,.806,1.539,1.539,0,0,1-1.4,0,.425.425,0,0,1,0-.806A1.539,1.539,0,0,1,221.359,160.188Z" transform="translate(-212.357 -134.737)" fill="#16110d"/>
        <path id="Path_3352" data-name="Path 3352" d="M237.8,150.693a.425.425,0,0,1,0,.806,1.539,1.539,0,0,1-1.4,0,.425.425,0,0,1,0-.806A1.539,1.539,0,0,1,237.8,150.693Z" transform="translate(-195.894 -144.241)" fill="#16110d"/>
        <path id="Path_3353" data-name="Path 3353" d="M239.632,149.638a.425.425,0,0,1,0,.806,1.539,1.539,0,0,1-1.4,0,.425.425,0,0,1,0-.806A1.539,1.539,0,0,1,239.632,149.638Z" transform="translate(-194.066 -145.297)" fill="#16110d"/>
        <path id="Path_3354" data-name="Path 3354" d="M217.7,160.188a.425.425,0,0,1,0,.806,1.539,1.539,0,0,1-1.4,0,.425.425,0,0,1,0-.806A1.539,1.539,0,0,1,217.7,160.188Z" transform="translate(-216.015 -134.737)" fill="#16110d"/>
        <ellipse id="Ellipse_149" data-name="Ellipse 149" cx="0.989" cy="0.571" rx="0.989" ry="0.571" transform="translate(3.657 23.172)" fill="#16110d"/>
        <ellipse id="Ellipse_150" data-name="Ellipse 150" cx="0.989" cy="0.571" rx="0.989" ry="0.571" transform="translate(40.222 2.062)" fill="#16110d"/>
        <ellipse id="Ellipse_151" data-name="Ellipse 151" cx="0.989" cy="0.571" rx="0.989" ry="0.571" transform="translate(0.001 21.061)" fill="#16110d"/>
        <path id="Path_3355" data-name="Path 3355" d="M252.87,155.994a1.545,1.545,0,0,1,1.4,0,.425.425,0,0,1,0,.806,1.545,1.545,0,0,1-1.4,0A.425.425,0,0,1,252.87,155.994Z" transform="translate(-179.413 -138.935)" fill="#16110d"/>
        <path id="Path_3356" data-name="Path 3356" d="M256.1,154.936a.427.427,0,0,1,0,.808,1.547,1.547,0,0,1-1.4,0,.427.427,0,0,1,0-.808A1.547,1.547,0,0,1,256.1,154.936Z" transform="translate(-177.581 -139.992)" fill="#16110d"/>
        <ellipse id="Ellipse_152" data-name="Ellipse 152" cx="0.989" cy="0.571" rx="0.989" ry="0.571" transform="translate(80.485 12.666)" fill="#16110d"/>
        <path id="Path_3357" data-name="Path 3357" d="M259.754,152.826a.427.427,0,0,1,0,.808,1.552,1.552,0,0,1-1.4,0,.427.427,0,0,1,0-.808A1.551,1.551,0,0,1,259.754,152.826Z" transform="translate(-173.924 -142.105)" fill="#16110d"/>
        <path id="Path_3358" data-name="Path 3358" d="M251.044,154.939a1.541,1.541,0,0,1,1.4,0,.425.425,0,0,1,0,.806,1.539,1.539,0,0,1-1.4,0A.425.425,0,0,1,251.044,154.939Z" transform="translate(-181.242 -139.991)" fill="#16110d"/>
        <ellipse id="Ellipse_153" data-name="Ellipse 153" cx="0.989" cy="0.571" rx="0.989" ry="0.571" transform="translate(73.173 12.666)" fill="#16110d"/>
        <path id="Path_3359" data-name="Path 3359" d="M256.1,152.826a.427.427,0,0,1,0,.808,1.547,1.547,0,0,1-1.4,0,.427.427,0,0,1,0-.808A1.547,1.547,0,0,1,256.1,152.826Z" transform="translate(-177.581 -142.105)" fill="#16110d"/>
        <path id="Path_3360" data-name="Path 3360" d="M257.927,151.771a.427.427,0,0,1,0,.808,1.551,1.551,0,0,1-1.4,0,.427.427,0,0,1,0-.808A1.551,1.551,0,0,1,257.927,151.771Z" transform="translate(-175.753 -143.161)" fill="#16110d"/>
        <ellipse id="Ellipse_154" data-name="Ellipse 154" cx="0.989" cy="0.571" rx="0.989" ry="0.571" transform="translate(84.142 6.333)" fill="#16110d"/>
        <path id="Path_3361" data-name="Path 3361" d="M249.215,153.884a1.545,1.545,0,0,1,1.4,0,.427.427,0,0,1,0,.808,1.547,1.547,0,0,1-1.4,0A.425.425,0,0,1,249.215,153.884Z" transform="translate(-183.071 -141.047)" fill="#16110d"/>
        <path id="Path_3362" data-name="Path 3362" d="M252.445,152.826a.427.427,0,0,1,0,.808,1.552,1.552,0,0,1-1.4,0,.427.427,0,0,1,0-.808A1.551,1.551,0,0,1,252.445,152.826Z" transform="translate(-181.24 -142.105)" fill="#16110d"/>
        <ellipse id="Ellipse_155" data-name="Ellipse 155" cx="0.989" cy="0.571" rx="0.989" ry="0.571" transform="translate(73.173 8.444)" fill="#16110d"/>
        <ellipse id="Ellipse_156" data-name="Ellipse 156" cx="0.989" cy="0.571" rx="0.989" ry="0.571" transform="translate(76.829 6.333)" fill="#16110d"/>
        <path id="Path_3363" data-name="Path 3363" d="M257.927,149.661a.427.427,0,0,1,0,.808,1.551,1.551,0,0,1-1.4,0,.427.427,0,0,1,0-.808A1.551,1.551,0,0,1,257.927,149.661Z" transform="translate(-175.753 -145.273)" fill="#16110d"/>
        <path id="Path_3364" data-name="Path 3364" d="M259.754,148.606a.427.427,0,0,1,0,.808,1.551,1.551,0,0,1-1.4,0,.427.427,0,0,1,0-.808A1.552,1.552,0,0,1,259.754,148.606Z" transform="translate(-173.924 -146.329)" fill="#16110d"/>
        <path id="Path_3365" data-name="Path 3365" d="M247.388,152.829a1.545,1.545,0,0,1,1.4,0,.427.427,0,0,1,0,.808,1.545,1.545,0,0,1-1.4,0A.425.425,0,0,1,247.388,152.829Z" transform="translate(-184.9 -142.103)" fill="#16110d"/>
        <ellipse id="Ellipse_157" data-name="Ellipse 157" cx="0.989" cy="0.571" rx="0.989" ry="0.571" transform="translate(65.86 8.444)" fill="#16110d"/>
        <ellipse id="Ellipse_158" data-name="Ellipse 158" cx="0.989" cy="0.571" rx="0.989" ry="0.571" transform="translate(69.516 6.333)" fill="#16110d"/>
        <path id="Path_3366" data-name="Path 3366" d="M254.272,149.661a.427.427,0,0,1,0,.808,1.551,1.551,0,0,1-1.4,0,.427.427,0,0,1,0-.808A1.551,1.551,0,0,1,254.272,149.661Z" transform="translate(-179.411 -145.273)" fill="#16110d"/>
        <ellipse id="Ellipse_159" data-name="Ellipse 159" cx="0.989" cy="0.571" rx="0.989" ry="0.571" transform="translate(76.829 2.111)" fill="#16110d"/>
        <path id="Path_3367" data-name="Path 3367" d="M257.927,147.551a.427.427,0,0,1,0,.808,1.551,1.551,0,0,1-1.4,0,.427.427,0,0,1,0-.808A1.551,1.551,0,0,1,257.927,147.551Z" transform="translate(-175.753 -147.385)" fill="#16110d"/>
      </g>
    </g>
    <g id="F" transform="translate(6356.418 666.363)">
      <g id="Group_1590" data-name="Group 1590" transform="translate(0.818 0)">
        <path id="Path_3368" data-name="Path 3368" d="M316.283,54.454l22.324-13.086L378.06,64.145,355.736,77.232Z" transform="translate(-315.512 -40.478)" fill="#ffbe2e"/>
        <path id="Path_3369" data-name="Path 3369" d="M339.6,56.53,323.513,60.1V81.108l3.436.66,23.4-13.72Z" transform="translate(-308.276 -25.3)" fill="#16110d"/>
        <g id="Group_1589" data-name="Group 1589" transform="translate(17.002 41.679)">
          <path id="Path_3370" data-name="Path 3370" d="M345.161,86.831l22.324-13.087-20-11.547L325.16,75.284Z" transform="translate(-323.629 -61.306)" fill="#ffbe2e"/>
          <path id="Path_3371" data-name="Path 3371" d="M345.93,88.167,324.395,75.735l23.854-13.983,20.772,11.992v.886ZM327.457,75.725l18.469,10.661L366.72,74.194,348.253,63.533Z" transform="translate(-324.395 -61.752)" fill="#16110d"/>
        </g>
        <path id="Path_3372" data-name="Path 3372" d="M324.775,78.969V109l.77.447L348.64,95.912l.04-21.339Z" transform="translate(-307.012 -7.24)" fill="#16110d"/>
        <path id="Path_3373" data-name="Path 3373" d="M334.046,135.247l-17.763-10.253V47.908l39.453,22.777V87.4L334.046,74.877V89.587l20,11.548v16.714l-20-11.546Z" transform="translate(-315.513 -33.931)" fill="#ffbe2e"/>
        <path id="Path_3374" data-name="Path 3374" d="M316.283,56.872l22.324-13.086L378.06,66.562,355.736,79.649Z" transform="translate(-315.512 -38.058)" fill="#fec"/>
        <path id="Path_3375" data-name="Path 3375" d="M345.161,89.248l22.324-13.086-20-11.547L325.16,77.7Z" transform="translate(-306.627 -17.208)" fill="#fec"/>
        <path id="Path_3376" data-name="Path 3376" d="M356.126,95.282l23.091-13.537v-17.6L338.989,40.923,315.9,54.458V132.43l18.533,10.7.77-.452V114.627l19.233,11.1L377.526,112.2V94.6l-.772-.446-22.325,13.086L335.2,96.134V83.2ZM339,42.7l37.919,21.891-9.689,5.681L356.12,76.787l-33.378-19.27L318.2,54.894Zm14.667,65.866v14.937l-20-11.548v28.946l-16.222-9.365V56.233l6.959,4.018,30.955,17.871V93.059L333.661,80.535V97.023Z" transform="translate(-315.898 -40.923)" fill="#16110d"/>
      </g>
      <g id="Group_1591" data-name="Group 1591" transform="translate(0 89.56)">
        <ellipse id="Ellipse_160" data-name="Ellipse 160" cx="0.989" cy="0.571" rx="0.989" ry="0.571" transform="translate(0 8.782)" fill="#16110d"/>
        <ellipse id="Ellipse_161" data-name="Ellipse 161" cx="0.989" cy="0.571" rx="0.989" ry="0.571" transform="translate(3.657 6.671)" fill="#16110d"/>
        <ellipse id="Ellipse_162" data-name="Ellipse 162" cx="0.989" cy="0.571" rx="0.989" ry="0.571" transform="translate(0 4.56)" fill="#16110d"/>
        <path id="Path_3377" data-name="Path 3377" d="M330.056,97.464a.425.425,0,0,1,0,.806,1.539,1.539,0,0,1-1.4,0,.425.425,0,0,1,0-.806A1.551,1.551,0,0,1,330.056,97.464Z" transform="translate(-302.598 -74.053)" fill="#16110d"/>
        <path id="Path_3378" data-name="Path 3378" d="M331.884,96.41a.425.425,0,0,1,0,.806,1.539,1.539,0,0,1-1.4,0,.425.425,0,0,1,0-.806A1.539,1.539,0,0,1,331.884,96.41Z" transform="translate(-300.768 -75.11)" fill="#16110d"/>
        <path id="Path_3379" data-name="Path 3379" d="M333.711,95.355a.425.425,0,0,1,0,.806,1.539,1.539,0,0,1-1.4,0,.425.425,0,0,1,0-.806A1.539,1.539,0,0,1,333.711,95.355Z" transform="translate(-298.939 -76.166)" fill="#16110d"/>
        <path id="Path_3380" data-name="Path 3380" d="M335.538,94.3a.425.425,0,0,1,0,.806,1.539,1.539,0,0,1-1.4,0,.425.425,0,0,1,0-.806A1.551,1.551,0,0,1,335.538,94.3Z" transform="translate(-297.111 -77.221)" fill="#16110d"/>
        <ellipse id="Ellipse_163" data-name="Ellipse 163" cx="0.989" cy="0.571" rx="0.989" ry="0.571" transform="translate(40.396 14.8)" fill="#16110d"/>
        <path id="Path_3381" data-name="Path 3381" d="M339.193,92.19a.425.425,0,0,1,0,.806,1.539,1.539,0,0,1-1.4,0,.425.425,0,0,1,0-.806A1.539,1.539,0,0,1,339.193,92.19Z" transform="translate(-293.452 -79.334)" fill="#16110d"/>
        <path id="Path_3382" data-name="Path 3382" d="M341.02,91.135a.425.425,0,0,1,0,.806,1.539,1.539,0,0,1-1.4,0,.425.425,0,0,1,0-.806A1.539,1.539,0,0,1,341.02,91.135Z" transform="translate(-291.623 -80.39)" fill="#16110d"/>
        <ellipse id="Ellipse_164" data-name="Ellipse 164" cx="0.989" cy="0.571" rx="0.989" ry="0.571" transform="translate(18.457 23.244)" fill="#16110d"/>
        <path id="Path_3383" data-name="Path 3383" d="M328.229,96.41a.425.425,0,0,1,0,.806,1.539,1.539,0,0,1-1.4,0,.425.425,0,0,1,0-.806A1.539,1.539,0,0,1,328.229,96.41Z" transform="translate(-304.427 -75.11)" fill="#16110d"/>
        <path id="Path_3384" data-name="Path 3384" d="M330.056,95.355a.425.425,0,0,1,0,.806,1.539,1.539,0,0,1-1.4,0,.425.425,0,0,1,0-.806A1.539,1.539,0,0,1,330.056,95.355Z" transform="translate(-302.598 -76.166)" fill="#16110d"/>
        <path id="Path_3385" data-name="Path 3385" d="M331.884,94.3a.425.425,0,0,1,0,.806,1.539,1.539,0,0,1-1.4,0,.425.425,0,0,1,0-.806A1.551,1.551,0,0,1,331.884,94.3Z" transform="translate(-300.768 -77.221)" fill="#16110d"/>
        <ellipse id="Ellipse_165" data-name="Ellipse 165" cx="0.989" cy="0.571" rx="0.989" ry="0.571" transform="translate(33.083 14.8)" fill="#16110d"/>
        <path id="Path_3386" data-name="Path 3386" d="M335.538,92.19a.425.425,0,0,1,0,.806,1.539,1.539,0,0,1-1.4,0,.425.425,0,0,1,0-.806A1.539,1.539,0,0,1,335.538,92.19Z" transform="translate(-297.111 -79.334)" fill="#16110d"/>
        <path id="Path_3387" data-name="Path 3387" d="M337.366,91.135a.425.425,0,0,1,0,.806,1.539,1.539,0,0,1-1.4,0,.425.425,0,0,1,0-.806A1.539,1.539,0,0,1,337.366,91.135Z" transform="translate(-295.281 -80.39)" fill="#16110d"/>
        <path id="Path_3388" data-name="Path 3388" d="M339.193,90.08a.425.425,0,0,1,0,.806,1.539,1.539,0,0,1-1.4,0,.425.425,0,0,1,0-.806A1.539,1.539,0,0,1,339.193,90.08Z" transform="translate(-293.452 -81.446)" fill="#16110d"/>
        <ellipse id="Ellipse_166" data-name="Ellipse 166" cx="0.989" cy="0.571" rx="0.989" ry="0.571" transform="translate(47.709 6.356)" fill="#16110d"/>
        <path id="Path_3389" data-name="Path 3389" d="M324.574,96.41a.425.425,0,0,1,0,.806,1.539,1.539,0,0,1-1.4,0,.425.425,0,0,1,0-.806A1.539,1.539,0,0,1,324.574,96.41Z" transform="translate(-308.085 -75.11)" fill="#16110d"/>
        <ellipse id="Ellipse_167" data-name="Ellipse 167" cx="0.989" cy="0.571" rx="0.989" ry="0.571" transform="translate(18.457 19.022)" fill="#16110d"/>
        <path id="Path_3390" data-name="Path 3390" d="M328.229,94.3a.425.425,0,0,1,0,.806,1.539,1.539,0,0,1-1.4,0,.425.425,0,0,1,0-.806A1.551,1.551,0,0,1,328.229,94.3Z" transform="translate(-304.427 -77.221)" fill="#16110d"/>
        <path id="Path_3391" data-name="Path 3391" d="M330.056,93.245a.425.425,0,0,1,0,.806,1.539,1.539,0,0,1-1.4,0,.425.425,0,0,1,0-.806A1.539,1.539,0,0,1,330.056,93.245Z" transform="translate(-302.598 -78.278)" fill="#16110d"/>
        <path id="Path_3392" data-name="Path 3392" d="M331.884,92.19a.425.425,0,0,1,0,.806,1.539,1.539,0,0,1-1.4,0,.425.425,0,0,1,0-.806A1.539,1.539,0,0,1,331.884,92.19Z" transform="translate(-300.768 -79.334)" fill="#16110d"/>
        <ellipse id="Ellipse_168" data-name="Ellipse 168" cx="0.989" cy="0.571" rx="0.989" ry="0.571" transform="translate(33.083 10.578)" fill="#16110d"/>
        <ellipse id="Ellipse_169" data-name="Ellipse 169" cx="0.989" cy="0.571" rx="0.989" ry="0.571" transform="translate(36.739 8.467)" fill="#16110d"/>
        <ellipse id="Ellipse_170" data-name="Ellipse 170" cx="0.989" cy="0.571" rx="0.989" ry="0.571" transform="translate(40.396 6.356)" fill="#16110d"/>
        <path id="Path_3393" data-name="Path 3393" d="M339.193,87.97a.425.425,0,0,1,0,.806,1.539,1.539,0,0,1-1.4,0,.425.425,0,0,1,0-.806A1.539,1.539,0,0,1,339.193,87.97Z" transform="translate(-293.452 -83.558)" fill="#16110d"/>
        <path id="Path_3394" data-name="Path 3394" d="M341.02,86.915a.425.425,0,0,1,0,.806,1.539,1.539,0,0,1-1.4,0,.425.425,0,0,1,0-.806A1.539,1.539,0,0,1,341.02,86.915Z" transform="translate(-291.623 -84.614)" fill="#16110d"/>
        <ellipse id="Ellipse_171" data-name="Ellipse 171" cx="0.989" cy="0.571" rx="0.989" ry="0.571" transform="translate(11.112 19)" fill="#16110d"/>
        <path id="Path_3395" data-name="Path 3395" d="M324.557,94.289a.425.425,0,0,1,0,.806,1.535,1.535,0,0,1-1.4,0,.425.425,0,0,1,0-.806A1.535,1.535,0,0,1,324.557,94.289Z" transform="translate(-308.101 -77.233)" fill="#16110d"/>
        <path id="Path_3396" data-name="Path 3396" d="M326.386,93.234a.425.425,0,0,1,0,.806,1.539,1.539,0,0,1-1.4,0,.425.425,0,0,1,0-.806A1.539,1.539,0,0,1,326.386,93.234Z" transform="translate(-306.272 -78.289)" fill="#16110d"/>
        <path id="Path_3397" data-name="Path 3397" d="M328.213,92.179a.425.425,0,0,1,0,.806,1.539,1.539,0,0,1-1.4,0,.425.425,0,0,1,0-.806A1.539,1.539,0,0,1,328.213,92.179Z" transform="translate(-304.443 -79.345)" fill="#16110d"/>
        <path id="Path_3398" data-name="Path 3398" d="M330.041,91.124a.426.426,0,0,1,0,.806,1.535,1.535,0,0,1-1.4,0,.425.425,0,0,1,0-.806A1.539,1.539,0,0,1,330.041,91.124Z" transform="translate(-302.613 -80.401)" fill="#16110d"/>
        <path id="Path_3399" data-name="Path 3399" d="M331.868,90.069a.425.425,0,0,1,0,.806,1.539,1.539,0,0,1-1.4,0,.425.425,0,0,1,0-.806A1.539,1.539,0,0,1,331.868,90.069Z" transform="translate(-300.784 -81.457)" fill="#16110d"/>
        <ellipse id="Ellipse_172" data-name="Ellipse 172" cx="0.989" cy="0.571" rx="0.989" ry="0.571" transform="translate(33.051 6.333)" fill="#16110d"/>
        <ellipse id="Ellipse_173" data-name="Ellipse 173" cx="0.989" cy="0.571" rx="0.989" ry="0.571" transform="translate(36.708 4.222)" fill="#16110d"/>
        <path id="Path_3400" data-name="Path 3400" d="M337.35,86.9a.425.425,0,0,1,0,.806,1.539,1.539,0,0,1-1.4,0,.425.425,0,0,1,0-.806A1.539,1.539,0,0,1,337.35,86.9Z" transform="translate(-295.297 -84.625)" fill="#16110d"/>
        <path id="Path_3401" data-name="Path 3401" d="M339.177,85.849a.425.425,0,0,1,0,.806,1.539,1.539,0,0,1-1.4,0,.425.425,0,0,1,0-.806A1.539,1.539,0,0,1,339.177,85.849Z" transform="translate(-293.468 -85.681)" fill="#16110d"/>
        <ellipse id="Ellipse_174" data-name="Ellipse 174" cx="0.989" cy="0.571" rx="0.989" ry="0.571" transform="translate(7.456 16.889)" fill="#16110d"/>
        <ellipse id="Ellipse_175" data-name="Ellipse 175" cx="0.989" cy="0.571" rx="0.989" ry="0.571" transform="translate(11.113 14.778)" fill="#16110d"/>
        <path id="Path_3402" data-name="Path 3402" d="M324.559,92.179a.425.425,0,0,1,0,.806,1.539,1.539,0,0,1-1.4,0,.425.425,0,0,1,0-.806A1.539,1.539,0,0,1,324.559,92.179Z" transform="translate(-308.101 -79.345)" fill="#16110d"/>
        <ellipse id="Ellipse_176" data-name="Ellipse 176" cx="0.989" cy="0.571" rx="0.989" ry="0.571" transform="translate(3.8 14.778)" fill="#16110d"/>
        <path id="Path_3403" data-name="Path 3403" d="M320.9,92.179a.425.425,0,0,1,0,.806,1.539,1.539,0,0,1-1.4,0,.425.425,0,0,1,0-.806A1.539,1.539,0,0,1,320.9,92.179Z" transform="translate(-311.759 -79.345)" fill="#16110d"/>
        <path id="Path_3404" data-name="Path 3404" d="M322.731,91.124a.425.425,0,0,1,0,.806,1.539,1.539,0,0,1-1.4,0,.425.425,0,0,1,0-.806A1.539,1.539,0,0,1,322.731,91.124Z" transform="translate(-309.93 -80.401)" fill="#16110d"/>
        <path id="Path_3405" data-name="Path 3405" d="M317.249,92.179a.425.425,0,0,1,0,.806,1.539,1.539,0,0,1-1.4,0,.425.425,0,0,1,0-.806A1.539,1.539,0,0,1,317.249,92.179Z" transform="translate(-315.418 -79.345)" fill="#16110d"/>
        <path id="Path_3406" data-name="Path 3406" d="M319.077,91.124a.425.425,0,0,1,0,.806,1.539,1.539,0,0,1-1.4,0,.425.425,0,0,1,0-.806A1.539,1.539,0,0,1,319.077,91.124Z" transform="translate(-313.588 -80.401)" fill="#16110d"/>
        <ellipse id="Ellipse_177" data-name="Ellipse 177" cx="0.989" cy="0.571" rx="0.989" ry="0.571" transform="translate(7.456 8.445)" fill="#16110d"/>
      </g>
    </g>
    <g id="T" transform="translate(6584.09 701.408)">
      <path id="Path_3141" data-name="Path 3141" d="M519.468,152.146a.387.387,0,0,1,0,.734,1.412,1.412,0,0,1-1.273,0,.388.388,0,0,1,0-.734A1.4,1.4,0,0,1,519.468,152.146Z" transform="translate(-514.606 -90.985)" fill="#16110d"/>
      <path id="Path_3142" data-name="Path 3142" d="M521.132,151.186a.388.388,0,0,1,0,.734,1.411,1.411,0,0,1-1.273,0,.387.387,0,0,1,0-.734A1.4,1.4,0,0,1,521.132,151.186Z" transform="translate(-512.942 -91.946)" fill="#16110d"/>
      <path id="Path_3143" data-name="Path 3143" d="M522.793,150.225a.387.387,0,0,1,0,.734,1.412,1.412,0,0,1-1.273,0,.388.388,0,0,1,0-.734A1.412,1.412,0,0,1,522.793,150.225Z" transform="translate(-511.278 -92.907)" fill="#16110d"/>
      <path id="Path_3144" data-name="Path 3144" d="M526.118,148.3a.387.387,0,0,1,0,.734,1.4,1.4,0,0,1-1.271,0,.387.387,0,0,1,0-.734A1.407,1.407,0,0,1,526.118,148.3Z" transform="translate(-507.949 -94.828)" fill="#16110d"/>
      <ellipse id="Ellipse_68" data-name="Ellipse 68" cx="0.9" cy="0.519" rx="0.9" ry="0.519" transform="translate(0 59.087)" fill="#16110d"/>
      <path id="Path_3145" data-name="Path 3145" d="M519.468,150.225a.387.387,0,0,1,0,.734,1.411,1.411,0,0,1-1.273,0,.388.388,0,0,1,0-.734A1.411,1.411,0,0,1,519.468,150.225Z" transform="translate(-514.606 -92.907)" fill="#16110d"/>
      <path id="Path_3146" data-name="Path 3146" d="M521.132,149.265a.388.388,0,0,1,0,.734,1.4,1.4,0,0,1-1.273,0,.387.387,0,0,1,0-.734A1.411,1.411,0,0,1,521.132,149.265Z" transform="translate(-512.942 -93.868)" fill="#16110d"/>
      <ellipse id="Ellipse_69" data-name="Ellipse 69" cx="0.9" cy="0.519" rx="0.9" ry="0.519" transform="translate(13.307 51.404)" fill="#16110d"/>
      <ellipse id="Ellipse_70" data-name="Ellipse 70" cx="0.9" cy="0.519" rx="0.9" ry="0.519" transform="translate(0 55.245)" fill="#16110d"/>
      <path id="Path_3147" data-name="Path 3147" d="M519.468,148.3a.387.387,0,0,1,0,.734,1.4,1.4,0,0,1-1.273,0,.388.388,0,0,1,0-.734A1.411,1.411,0,0,1,519.468,148.3Z" transform="translate(-514.606 -94.828)" fill="#16110d"/>
      <path id="Path_3148" data-name="Path 3148" d="M522.793,146.387a.387.387,0,0,1,0,.734,1.407,1.407,0,0,1-1.271,0,.387.387,0,0,1,0-.734A1.4,1.4,0,0,1,522.793,146.387Z" transform="translate(-511.277 -96.75)" fill="#16110d"/>
      <path id="Path_3149" data-name="Path 3149" d="M521.132,145.427a.387.387,0,0,1,0,.734,1.411,1.411,0,0,1-1.273,0,.387.387,0,0,1,0-.734,1.4,1.4,0,0,1,1.273,0C521.484,145.629,520.78,145.223,521.132,145.427Z" transform="translate(-512.942 -97.711)" fill="#16110d"/>
      <path id="Path_3150" data-name="Path 3150" d="M549.489,161.611a.388.388,0,0,1,0,.734,1.411,1.411,0,0,1-1.273,0,.387.387,0,0,1,0-.734A1.4,1.4,0,0,1,549.489,161.611Z" transform="translate(-484.557 -81.511)" fill="#16110d"/>
      <path id="Path_3151" data-name="Path 3151" d="M547.825,160.65a.387.387,0,0,1,0,.734,1.4,1.4,0,0,1-1.273,0,.388.388,0,0,1,0-.734A1.411,1.411,0,0,1,547.825,160.65Z" transform="translate(-486.221 -82.471)" fill="#16110d"/>
      <path id="Path_3152" data-name="Path 3152" d="M546.148,159.68a.387.387,0,0,1,0,.734,1.4,1.4,0,0,1-1.273,0,.388.388,0,0,1,0-.734A1.412,1.412,0,0,1,546.148,159.68Z" transform="translate(-487.9 -83.442)" fill="#16110d"/>
      <path id="Path_3153" data-name="Path 3153" d="M544.487,158.72a.388.388,0,0,1,0,.734,1.4,1.4,0,0,1-1.273,0,.387.387,0,0,1,0-.734A1.412,1.412,0,0,1,544.487,158.72Z" transform="translate(-489.564 -84.403)" fill="#16110d"/>
      <path id="Path_3154" data-name="Path 3154" d="M542.823,157.76a.387.387,0,0,1,0,.734,1.4,1.4,0,0,1-1.272,0,.388.388,0,0,1,0-.734A1.411,1.411,0,0,1,542.823,157.76Z" transform="translate(-491.228 -85.364)" fill="#16110d"/>
      <path id="Path_3155" data-name="Path 3155" d="M541.162,156.8a.388.388,0,0,1,0,.734,1.411,1.411,0,0,1-1.273,0,.387.387,0,0,1,0-.734A1.4,1.4,0,0,1,541.162,156.8Z" transform="translate(-492.892 -86.325)" fill="#16110d"/>
      <path id="Path_3156" data-name="Path 3156" d="M539.5,155.842a.387.387,0,0,1,0,.734,1.411,1.411,0,0,1-1.273,0,.388.388,0,0,1,0-.734A1.4,1.4,0,0,1,539.5,155.842Z" transform="translate(-494.556 -87.286)" fill="#16110d"/>
      <path id="Path_3157" data-name="Path 3157" d="M537.837,154.882a.388.388,0,0,1,0,.734,1.411,1.411,0,0,1-1.273,0,.387.387,0,0,1,0-.734A1.4,1.4,0,0,1,537.837,154.882Z" transform="translate(-496.221 -88.247)" fill="#16110d"/>
      <path id="Path_3158" data-name="Path 3158" d="M536.173,153.922a.387.387,0,0,1,0,.734,1.412,1.412,0,0,1-1.273,0,.388.388,0,0,1,0-.734A1.4,1.4,0,0,1,536.173,153.922Z" transform="translate(-497.884 -89.208)" fill="#16110d"/>
      <ellipse id="Ellipse_71" data-name="Ellipse 71" cx="0.9" cy="0.52" rx="0.9" ry="0.52" transform="translate(33.426 62.641)" fill="#16110d"/>
      <ellipse id="Ellipse_72" data-name="Ellipse 72" cx="0.9" cy="0.519" rx="0.9" ry="0.519" transform="translate(30.07 60.7)" fill="#16110d"/>
      <path id="Path_3159" data-name="Path 3159" d="M524.522,154.872a.387.387,0,0,1,0,.734,1.411,1.411,0,0,1-1.273,0,.387.387,0,0,1,0-.734A1.4,1.4,0,0,1,524.522,154.872Z" transform="translate(-509.549 -88.257)" fill="#16110d"/>
      <path id="Path_3160" data-name="Path 3160" d="M526.183,153.912a.387.387,0,0,1,0,.734,1.407,1.407,0,0,1-1.271,0,.387.387,0,0,1,0-.734A1.4,1.4,0,0,1,526.183,153.912Z" transform="translate(-507.884 -89.218)" fill="#16110d"/>
      <path id="Path_3161" data-name="Path 3161" d="M527.846,152.951a.387.387,0,0,1,0,.734,1.411,1.411,0,0,1-1.273,0,.388.388,0,0,1,0-.734A1.411,1.411,0,0,1,527.846,152.951Z" transform="translate(-506.22 -90.178)" fill="#16110d"/>
      <path id="Path_3162" data-name="Path 3162" d="M529.51,151.991a.388.388,0,0,1,0,.734,1.412,1.412,0,0,1-1.273,0,.387.387,0,0,1,0-.734A1.412,1.412,0,0,1,529.51,151.991Z" transform="translate(-504.556 -91.139)" fill="#16110d"/>
      <ellipse id="Ellipse_73" data-name="Ellipse 73" cx="0.9" cy="0.52" rx="0.9" ry="0.52" transform="translate(26.744 58.779)" fill="#16110d"/>
      <path id="Path_3163" data-name="Path 3163" d="M522.858,153.912a.387.387,0,0,1,0,.734,1.407,1.407,0,0,1-1.271,0,.387.387,0,0,1,0-.734A1.4,1.4,0,0,1,522.858,153.912Z" transform="translate(-511.213 -89.218)" fill="#16110d"/>
      <path id="Path_3164" data-name="Path 3164" d="M524.521,152.951a.387.387,0,0,1,0,.734,1.412,1.412,0,0,1-1.273,0,.388.388,0,0,1,0-.734A1.412,1.412,0,0,1,524.521,152.951Z" transform="translate(-509.548 -90.178)" fill="#16110d"/>
      <path id="Path_3165" data-name="Path 3165" d="M526.185,151.991a.388.388,0,0,1,0,.734,1.411,1.411,0,0,1-1.273,0,.387.387,0,0,1,0-.734A1.411,1.411,0,0,1,526.185,151.991Z" transform="translate(-507.884 -91.139)" fill="#16110d"/>
      <path id="Path_3166" data-name="Path 3166" d="M527.846,151.031a.387.387,0,0,1,0,.734,1.4,1.4,0,0,1-1.273,0,.388.388,0,0,1,0-.734A1.411,1.411,0,0,1,527.846,151.031Z" transform="translate(-506.22 -92.1)" fill="#16110d"/>
      <path id="Path_3167" data-name="Path 3167" d="M529.51,150.071a.388.388,0,0,1,0,.734,1.4,1.4,0,0,1-1.273,0,.387.387,0,0,1,0-.734A1.412,1.412,0,0,1,529.51,150.071Z" transform="translate(-504.556 -93.061)" fill="#16110d"/>
      <ellipse id="Ellipse_74" data-name="Ellipse 74" cx="0.9" cy="0.519" rx="0.9" ry="0.519" transform="translate(6.784 62.621)" fill="#16110d"/>
      <path id="Path_3168" data-name="Path 3168" d="M522.858,151.991a.387.387,0,0,1,0,.734,1.407,1.407,0,0,1-1.271,0,.387.387,0,0,1,0-.734A1.407,1.407,0,0,1,522.858,151.991Z" transform="translate(-511.213 -91.139)" fill="#16110d"/>
      <path id="Path_3169" data-name="Path 3169" d="M524.521,151.031a.387.387,0,0,1,0,.734,1.4,1.4,0,0,1-1.273,0,.388.388,0,0,1,0-.734A1.412,1.412,0,0,1,524.521,151.031Z" transform="translate(-509.548 -92.1)" fill="#16110d"/>
      <path id="Path_3170" data-name="Path 3170" d="M526.185,150.071a.388.388,0,0,1,0,.734,1.4,1.4,0,0,1-1.273,0,.387.387,0,0,1,0-.734A1.411,1.411,0,0,1,526.185,150.071Z" transform="translate(-507.884 -93.061)" fill="#16110d"/>
      <path id="Path_3171" data-name="Path 3171" d="M527.846,149.111a.389.389,0,0,1,0,.736,1.411,1.411,0,0,1-1.273,0,.389.389,0,0,1,0-.736A1.411,1.411,0,0,1,527.846,149.111Z" transform="translate(-506.22 -94.022)" fill="#16110d"/>
      <ellipse id="Ellipse_75" data-name="Ellipse 75" cx="0.9" cy="0.519" rx="0.9" ry="0.519" transform="translate(19.971 51.429)" fill="#16110d"/>
      <ellipse id="Ellipse_76" data-name="Ellipse 76" cx="0.9" cy="0.519" rx="0.9" ry="0.519" transform="translate(23.297 49.508)" fill="#16110d"/>
      <path id="Path_3172" data-name="Path 3172" d="M531.111,145.438a.387.387,0,0,1,0,.734,1.4,1.4,0,0,1-1.273,0,.388.388,0,0,1,0-.734A1.412,1.412,0,0,1,531.111,145.438Z" transform="translate(-502.951 -97.698)" fill="#16110d"/>
      <path id="Path_3173" data-name="Path 3173" d="M532.775,144.478a.388.388,0,0,1,0,.734,1.4,1.4,0,0,1-1.273,0,.387.387,0,0,1,0-.734,1.411,1.411,0,0,1,1.273,0C533.125,144.68,532.423,144.276,532.775,144.478Z" transform="translate(-501.288 -98.659)" fill="#16110d"/>
      <path id="Path_3174" data-name="Path 3174" d="M528.177,144.478a1.412,1.412,0,0,1,1.273,0,.388.388,0,0,1,0,.734,1.4,1.4,0,0,1-1.273,0,.387.387,0,0,1,0-.734C528.527,144.276,527.825,144.68,528.177,144.478Z" transform="translate(-504.616 -98.659)" fill="#16110d"/>
      <ellipse id="Ellipse_77" data-name="Ellipse 77" cx="0.9" cy="0.519" rx="0.9" ry="0.519" transform="translate(76.712 79.972)" fill="#16110d"/>
      <path id="Path_3175" data-name="Path 3175" d="M557.807,160.662a.389.389,0,0,1,0,.736,1.412,1.412,0,0,1-1.273,0,.389.389,0,0,1,0-.736A1.412,1.412,0,0,1,557.807,160.662Z" transform="translate(-476.231 -82.459)" fill="#16110d"/>
      <path id="Path_3176" data-name="Path 3176" d="M559.468,159.7a.387.387,0,0,1,0,.734,1.411,1.411,0,0,1-1.273,0,.388.388,0,0,1,0-.734A1.4,1.4,0,0,1,559.468,159.7Z" transform="translate(-474.567 -83.42)" fill="#16110d"/>
      <ellipse id="Ellipse_78" data-name="Ellipse 78" cx="0.9" cy="0.519" rx="0.9" ry="0.519" transform="translate(86.693 74.21)" fill="#16110d"/>
      <path id="Path_3177" data-name="Path 3177" d="M551.543,161.625a1.405,1.405,0,0,1,1.273,0,.388.388,0,0,1,0,.734,1.4,1.4,0,0,1-1.273,0A.388.388,0,0,1,551.543,161.625Z" transform="translate(-481.225 -81.497)" fill="#16110d"/>
      <path id="Path_3178" data-name="Path 3178" d="M554.482,160.662a.389.389,0,0,1,0,.736,1.412,1.412,0,0,1-1.273,0,.389.389,0,0,1,0-.736A1.411,1.411,0,0,1,554.482,160.662Z" transform="translate(-479.559 -82.459)" fill="#16110d"/>
      <ellipse id="Ellipse_79" data-name="Ellipse 79" cx="0.9" cy="0.519" rx="0.9" ry="0.519" transform="translate(76.712 76.13)" fill="#16110d"/>
      <path id="Path_3179" data-name="Path 3179" d="M557.807,158.744a.388.388,0,0,1,0,.734,1.412,1.412,0,0,1-1.273,0,.387.387,0,0,1,0-.734A1.4,1.4,0,0,1,557.807,158.744Z" transform="translate(-476.231 -84.381)" fill="#16110d"/>
      <path id="Path_3180" data-name="Path 3180" d="M559.468,157.784a.387.387,0,0,1,0,.734,1.411,1.411,0,0,1-1.273,0,.388.388,0,0,1,0-.734A1.4,1.4,0,0,1,559.468,157.784Z" transform="translate(-474.567 -85.342)" fill="#16110d"/>
      <path id="Path_3181" data-name="Path 3181" d="M561.132,156.823a.388.388,0,0,1,0,.734,1.411,1.411,0,0,1-1.273,0,.387.387,0,0,1,0-.734A1.411,1.411,0,0,1,561.132,156.823Z" transform="translate(-472.903 -86.302)" fill="#16110d"/>
      <path id="Path_3182" data-name="Path 3182" d="M549.88,160.665a1.4,1.4,0,0,1,1.273,0,.387.387,0,0,1,0,.734,1.4,1.4,0,0,1-1.271,0A.388.388,0,0,1,549.88,160.665Z" transform="translate(-482.889 -82.458)" fill="#16110d"/>
      <ellipse id="Ellipse_80" data-name="Ellipse 80" cx="0.9" cy="0.519" rx="0.9" ry="0.519" transform="translate(70.059 76.13)" fill="#16110d"/>
      <path id="Path_3183" data-name="Path 3183" d="M554.482,158.744a.388.388,0,0,1,0,.734,1.411,1.411,0,0,1-1.273,0,.387.387,0,0,1,0-.734A1.4,1.4,0,0,1,554.482,158.744Z" transform="translate(-479.559 -84.381)" fill="#16110d"/>
      <ellipse id="Ellipse_81" data-name="Ellipse 81" cx="0.9" cy="0.519" rx="0.9" ry="0.519" transform="translate(76.712 72.289)" fill="#16110d"/>
      <path id="Path_3184" data-name="Path 3184" d="M557.807,156.823a.388.388,0,0,1,0,.734,1.412,1.412,0,0,1-1.273,0,.387.387,0,0,1,0-.734A1.412,1.412,0,0,1,557.807,156.823Z" transform="translate(-476.231 -86.302)" fill="#16110d"/>
      <ellipse id="Ellipse_82" data-name="Ellipse 82" cx="0.9" cy="0.519" rx="0.9" ry="0.519" transform="translate(83.366 68.448)" fill="#16110d"/>
      <ellipse id="Ellipse_83" data-name="Ellipse 83" cx="0.9" cy="0.519" rx="0.9" ry="0.519" transform="translate(86.693 66.527)" fill="#16110d"/>
      <path id="Path_3185" data-name="Path 3185" d="M548.218,159.7a1.405,1.405,0,0,1,1.273,0,.388.388,0,0,1,0,.734,1.405,1.405,0,0,1-1.273,0A.388.388,0,0,1,548.218,159.7Z" transform="translate(-484.553 -83.419)" fill="#16110d"/>
      <path id="Path_3186" data-name="Path 3186" d="M551.155,158.744a.387.387,0,0,1,0,.734,1.407,1.407,0,0,1-1.271,0,.387.387,0,0,1,0-.734A1.4,1.4,0,0,1,551.155,158.744Z" transform="translate(-482.888 -84.381)" fill="#16110d"/>
      <path id="Path_3187" data-name="Path 3187" d="M546.541,158.735a1.405,1.405,0,0,1,1.273,0,.388.388,0,0,1,0,.734,1.405,1.405,0,0,1-1.273,0A.388.388,0,0,1,546.541,158.735Z" transform="translate(-486.232 -84.39)" fill="#16110d"/>
      <path id="Path_3188" data-name="Path 3188" d="M549.48,157.774a.388.388,0,0,1,0,.734,1.412,1.412,0,0,1-1.273,0,.387.387,0,0,1,0-.734A1.4,1.4,0,0,1,549.48,157.774Z" transform="translate(-484.566 -85.352)" fill="#16110d"/>
      <path id="Path_3189" data-name="Path 3189" d="M551.141,156.814a.387.387,0,0,1,0,.734,1.411,1.411,0,0,1-1.273,0,.388.388,0,0,1,0-.734A1.4,1.4,0,0,1,551.141,156.814Z" transform="translate(-482.902 -86.313)" fill="#16110d"/>
      <path id="Path_3190" data-name="Path 3190" d="M552.8,155.853a.388.388,0,0,1,0,.734,1.4,1.4,0,0,1-1.273,0,.387.387,0,0,1,0-.734A1.411,1.411,0,0,1,552.8,155.853Z" transform="translate(-481.238 -87.273)" fill="#16110d"/>
      <path id="Path_3191" data-name="Path 3191" d="M554.365,154.834a.387.387,0,0,1,0,.734,1.4,1.4,0,0,1-1.273,0C552.742,155.367,554.015,154.632,554.365,154.834Z" transform="translate(-479.472 -88.176)" fill="#16110d"/>
      <path id="Path_3192" data-name="Path 3192" d="M544.878,157.775a1.405,1.405,0,0,1,1.273,0,.387.387,0,0,1,0,.734,1.4,1.4,0,0,1-1.271,0A.388.388,0,0,1,544.878,157.775Z" transform="translate(-487.896 -85.351)" fill="#16110d"/>
      <path id="Path_3193" data-name="Path 3193" d="M547.816,156.814a.387.387,0,0,1,0,.734,1.411,1.411,0,0,1-1.273,0,.388.388,0,0,1,0-.734A1.4,1.4,0,0,1,547.816,156.814Z" transform="translate(-486.23 -86.313)" fill="#16110d"/>
      <path id="Path_3194" data-name="Path 3194" d="M549.48,155.853a.388.388,0,0,1,0,.734,1.4,1.4,0,0,1-1.273,0,.387.387,0,0,1,0-.734A1.411,1.411,0,0,1,549.48,155.853Z" transform="translate(-484.566 -87.273)" fill="#16110d"/>
      <path id="Path_3195" data-name="Path 3195" d="M543.216,156.814a1.411,1.411,0,0,1,1.273,0,.389.389,0,0,1,0,.736,1.412,1.412,0,0,1-1.273,0A.388.388,0,0,1,543.216,156.814Z" transform="translate(-489.56 -86.312)" fill="#16110d"/>
      <path id="Path_3196" data-name="Path 3196" d="M546.153,155.853a.387.387,0,0,1,0,.734,1.4,1.4,0,0,1-1.271,0,.387.387,0,0,1,0-.734A1.407,1.407,0,0,1,546.153,155.853Z" transform="translate(-487.894 -87.273)" fill="#16110d"/>
      <ellipse id="Ellipse_84" data-name="Ellipse 84" cx="0.9" cy="0.519" rx="0.9" ry="0.519" transform="translate(60.05 66.507)" fill="#16110d"/>
      <path id="Path_3197" data-name="Path 3197" d="M541.553,155.854a1.405,1.405,0,0,1,1.273,0,.387.387,0,0,1,0,.734,1.4,1.4,0,0,1-1.271,0A.388.388,0,0,1,541.553,155.854Z" transform="translate(-491.224 -87.272)" fill="#16110d"/>
      <ellipse id="Ellipse_85" data-name="Ellipse 85" cx="0.9" cy="0.519" rx="0.9" ry="0.519" transform="translate(53.397 66.507)" fill="#16110d"/>
      <path id="Path_3198" data-name="Path 3198" d="M546.153,153.933a.387.387,0,0,1,0,.734,1.4,1.4,0,0,1-1.271,0,.387.387,0,0,1,0-.734A1.407,1.407,0,0,1,546.153,153.933Z" transform="translate(-487.894 -89.195)" fill="#16110d"/>
      <path id="Path_3199" data-name="Path 3199" d="M539.891,154.894a1.406,1.406,0,0,1,1.273,0,.388.388,0,0,1,0,.734,1.411,1.411,0,0,1-1.273,0A.389.389,0,0,1,539.891,154.894Z" transform="translate(-492.888 -88.233)" fill="#16110d"/>
      <path id="Path_3200" data-name="Path 3200" d="M542.828,153.933a.387.387,0,0,1,0,.734,1.4,1.4,0,0,1-1.271,0,.387.387,0,0,1,0-.734A1.407,1.407,0,0,1,542.828,153.933Z" transform="translate(-491.223 -89.195)" fill="#16110d"/>
      <path id="Path_3201" data-name="Path 3201" d="M544.491,152.973a.389.389,0,0,1,0,.736,1.412,1.412,0,0,1-1.273,0,.389.389,0,0,1,0-.736,1.412,1.412,0,0,1,1.273,0C544.843,153.177,544.139,152.771,544.491,152.973Z" transform="translate(-489.558 -90.156)" fill="#16110d"/>
      <path id="Path_3202" data-name="Path 3202" d="M538.228,153.936a1.405,1.405,0,0,1,1.273,0,.387.387,0,0,1,0,.734,1.405,1.405,0,0,1-1.273,0A.388.388,0,0,1,538.228,153.936Z" transform="translate(-494.553 -89.194)" fill="#16110d"/>
      <ellipse id="Ellipse_86" data-name="Ellipse 86" cx="0.9" cy="0.519" rx="0.9" ry="0.519" transform="translate(46.743 62.666)" fill="#16110d"/>
      <path id="Path_3203" data-name="Path 3203" d="M542.828,152.015a.387.387,0,0,1,0,.734,1.407,1.407,0,0,1-1.271,0,.387.387,0,0,1,0-.734A1.4,1.4,0,0,1,542.828,152.015Z" transform="translate(-491.223 -91.117)" fill="#16110d"/>
      <path id="Path_3204" data-name="Path 3204" d="M536.566,152.976a1.4,1.4,0,0,1,1.273,0,.388.388,0,0,1,0,.734,1.405,1.405,0,0,1-1.273,0A.388.388,0,0,1,536.566,152.976Z" transform="translate(-496.217 -90.155)" fill="#16110d"/>
      <path id="Path_3205" data-name="Path 3205" d="M539.5,152.015a.387.387,0,0,1,0,.734,1.411,1.411,0,0,1-1.273,0,.388.388,0,0,1,0-.734A1.4,1.4,0,0,1,539.5,152.015Z" transform="translate(-494.551 -91.117)" fill="#16110d"/>
      <path id="Path_3206" data-name="Path 3206" d="M541.167,151.055a.388.388,0,0,1,0,.734,1.411,1.411,0,0,1-1.273,0,.387.387,0,0,1,0-.734A1.4,1.4,0,0,1,541.167,151.055Z" transform="translate(-492.887 -92.078)" fill="#16110d"/>
      <path id="Path_3207" data-name="Path 3207" d="M534.9,152.016a1.406,1.406,0,0,1,1.273,0,.387.387,0,0,1,0,.734,1.405,1.405,0,0,1-1.273,0A.388.388,0,0,1,534.9,152.016Z" transform="translate(-497.881 -91.116)" fill="#16110d"/>
      <path id="Path_3208" data-name="Path 3208" d="M537.842,151.055a.388.388,0,0,1,0,.734,1.412,1.412,0,0,1-1.273,0,.387.387,0,0,1,0-.734A1.4,1.4,0,0,1,537.842,151.055Z" transform="translate(-496.216 -92.078)" fill="#16110d"/>
      <path id="Path_3209" data-name="Path 3209" d="M539.5,150.095a.387.387,0,0,1,0,.734,1.411,1.411,0,0,1-1.273,0,.388.388,0,0,1,0-.734A1.4,1.4,0,0,1,539.5,150.095Z" transform="translate(-494.551 -93.038)" fill="#16110d"/>
      <path id="Path_3210" data-name="Path 3210" d="M533.226,151.046a1.406,1.406,0,0,1,1.273,0,.387.387,0,0,1,0,.734,1.4,1.4,0,0,1-1.271,0A.388.388,0,0,1,533.226,151.046Z" transform="translate(-499.56 -92.087)" fill="#16110d"/>
      <path id="Path_3211" data-name="Path 3211" d="M536.165,150.085a.388.388,0,0,1,0,.734,1.411,1.411,0,0,1-1.273,0,.387.387,0,0,1,0-.734A1.4,1.4,0,0,1,536.165,150.085Z" transform="translate(-497.894 -93.048)" fill="#16110d"/>
      <path id="Path_3212" data-name="Path 3212" d="M537.826,149.124a.387.387,0,0,1,0,.734,1.407,1.407,0,0,1-1.271,0,.387.387,0,0,1,0-.734A1.407,1.407,0,0,1,537.826,149.124Z" transform="translate(-496.23 -94.009)" fill="#16110d"/>
      <path id="Path_3213" data-name="Path 3213" d="M539.49,148.84a1.4,1.4,0,0,1-1.273,0,.387.387,0,0,1,0-.734C538.569,147.9,539.842,148.638,539.49,148.84Z" transform="translate(-494.566 -94.911)" fill="#16110d"/>
      <path id="Path_3214" data-name="Path 3214" d="M531.564,150.086a1.405,1.405,0,0,1,1.273,0,.388.388,0,0,1,0,.734,1.405,1.405,0,0,1-1.273,0A.388.388,0,0,1,531.564,150.086Z" transform="translate(-501.224 -93.048)" fill="#16110d"/>
      <path id="Path_3215" data-name="Path 3215" d="M534.5,149.124a.387.387,0,0,1,0,.734,1.411,1.411,0,0,1-1.273,0,.388.388,0,0,1,0-.734A1.411,1.411,0,0,1,534.5,149.124Z" transform="translate(-499.558 -94.009)" fill="#16110d"/>
      <path id="Path_3216" data-name="Path 3216" d="M536.165,148.164a.388.388,0,0,1,0,.734,1.4,1.4,0,0,1-1.273,0,.387.387,0,0,1,0-.734A1.411,1.411,0,0,1,536.165,148.164Z" transform="translate(-497.894 -94.97)" fill="#16110d"/>
      <path id="Path_3217" data-name="Path 3217" d="M537.826,147.2a.387.387,0,0,1,0,.734,1.4,1.4,0,0,1-1.271,0,.387.387,0,0,1,0-.734,1.407,1.407,0,0,1,1.271,0Z" transform="translate(-496.23 -95.931)" fill="#16110d"/>
      <path id="Path_3218" data-name="Path 3218" d="M529.9,149.125a1.412,1.412,0,0,1,1.273,0,.389.389,0,0,1,0,.736,1.411,1.411,0,0,1-1.273,0A.388.388,0,0,1,529.9,149.125Z" transform="translate(-502.888 -94.008)" fill="#16110d"/>
      <path id="Path_3219" data-name="Path 3219" d="M532.84,148.164a.388.388,0,0,1,0,.734,1.4,1.4,0,0,1-1.273,0,.387.387,0,0,1,0-.734A1.411,1.411,0,0,1,532.84,148.164Z" transform="translate(-501.223 -94.97)" fill="#16110d"/>
      <path id="Path_3220" data-name="Path 3220" d="M534.5,147.2a.387.387,0,0,1,0,.734,1.4,1.4,0,0,1-1.273,0,.388.388,0,0,1,0-.734A1.411,1.411,0,0,1,534.5,147.2Z" transform="translate(-499.558 -95.931)" fill="#16110d"/>
      <path id="Path_3221" data-name="Path 3221" d="M536.165,146.244a.388.388,0,0,1,0,.734,1.4,1.4,0,0,1-1.273,0,.387.387,0,0,1,0-.734,1.411,1.411,0,0,1,1.273,0C536.515,146.448,535.812,146.042,536.165,146.244Z" transform="translate(-497.894 -96.892)" fill="#16110d"/>
      <path id="Path_3222" data-name="Path 3222" d="M528.239,148.165a1.405,1.405,0,0,1,1.273,0,.388.388,0,0,1,0,.734,1.411,1.411,0,0,1-1.273,0A.388.388,0,0,1,528.239,148.165Z" transform="translate(-504.552 -94.969)" fill="#16110d"/>
      <path id="Path_3223" data-name="Path 3223" d="M531.176,147.2a.387.387,0,0,1,0,.734,1.4,1.4,0,0,1-1.273,0,.388.388,0,0,1,0-.734A1.411,1.411,0,0,1,531.176,147.2Z" transform="translate(-502.886 -95.931)" fill="#16110d"/>
      <path id="Path_3224" data-name="Path 3224" d="M532.84,146.244a.388.388,0,0,1,0,.734,1.4,1.4,0,0,1-1.273,0,.387.387,0,0,1,0-.734A1.412,1.412,0,0,1,532.84,146.244Z" transform="translate(-501.223 -96.892)" fill="#16110d"/>
      <path id="Path_3225" data-name="Path 3225" d="M534.5,145.284a.387.387,0,0,1,0,.734,1.4,1.4,0,0,1-1.271,0,.387.387,0,0,1,0-.734A1.407,1.407,0,0,1,534.5,145.284Z" transform="translate(-499.558 -97.852)" fill="#16110d"/>
      <g id="Group_1581" data-name="Group 1581" transform="translate(2.515 0)">
        <path id="Path_3226" data-name="Path 3226" d="M517.9,133.6v25.234l11.785,6.8V140.4Z" transform="translate(-517.157 -109.401)" fill="#ffbe2e"/>
        <path id="Path_3227" data-name="Path 3227" d="M571.853,157.231v25.234L530.3,158.471V133.238Z" transform="translate(-504.746 -109.759)" fill="#ffbe2e"/>
        <path id="Path_3228" data-name="Path 3228" d="M598.678,160.228l-14.413,8.32-41.559-23.992-13.024,7.52-11.786-6.8,40.428-23.341,11.784,6.8-12.988,7.5Z" transform="translate(-517.158 -121.077)" fill="#ffbe2e"/>
        <path id="Path_3229" data-name="Path 3229" d="M598.678,162.035l-14.413,8.322-41.559-23.994-13.024,7.52-11.786-6.8,40.428-23.342,11.784,6.805-12.988,7.5Z" transform="translate(-517.158 -119.268)" fill="#fec"/>
        <path id="Path_3230" data-name="Path 3230" d="M599.785,161.082h0v-.854l-.738-.426h0l-27.83-16.066V129.59h0v-.854l-.74-.426h0L558.693,121.5l-40.428,23.342h0l-.738.426v.854h0v25.234l11.784,6.8h0l.74.426.74-.426h0l12.284-7.094,40.818,23.566h0l.74.428.74-.428h0l14.411-8.32Zm-41.092-37.869L569,129.164l-12.988,7.5.985.568,14.223,8.212h0l26.349,15.214-12.932,7.468-40.818-23.568h0l-.74-.426-.738.426h0l-5.773,3.334-6.513,3.76L519.746,145.7Zm-39.687,47.293V146.981l10.305,5.949v23.526Zm24.81-.716V146.264L583.894,169.4v23.526Z" transform="translate(-517.527 -121.504)" fill="#16110d"/>
      </g>
    </g>
  </g>
</svg>
