<svg xmlns="http://www.w3.org/2000/svg" xmlns:xlink="http://www.w3.org/1999/xlink" width="327" height="251" viewBox="0 0 327 251">
  <defs>
    <clipPath id="clip-path">
      <rect id="Rectangle_975" data-name="Rectangle 975" width="327" height="251" transform="translate(6379 640)" fill="#fff" stroke="#707070" stroke-width="1"/>
    </clipPath>
  </defs>
  <g id="potion-color" transform="translate(-6379 -640)" clip-path="url(#clip-path)">
    <g id="Group_1580" data-name="Group 1580">
      <path id="Path_3140" data-name="Path 3140" d="M157.976-38.108C174.8-18.944,174.158,15.976,185.657,52.6c11.5,36.837,34.921,75.8,29.6,109.659-5.536,33.856-40.244,62.6-72.822,57.278S79.4,174.61,48.742,154.807C18.293,135-11.943,135-33.236,119.461-54.529,103.7-66.879,72.616-64.324,41.741S-44.1-19.8-18.757-37.469s58.556-22.571,92.2-23C107.085-61.1,141.154-57.272,157.976-38.108Z" transform="translate(6423.909 780.645) rotate(-45)" fill="#24b24c"/>
      <g id="Group_1578" data-name="Group 1578" transform="translate(6266.795 732.775) rotate(-30)">
        <path id="Path_3060" data-name="Path 3060" d="M314.1,279.592c-20.353-12.988-45.018-25.309-19.88-28.8,32.144-4.471-77.706-63.961-101.7-75.049-45.65-21.1-109.817-42.53-117.166-7.7-9.213,43.667,152.538,122.407,189.17,135.841,33.522,12.293,64.9,20.76,72.022,13.2C347.292,305.675,322.516,284.961,314.1,279.592Zm-51.906-28c-1.627,3.739-10.193,3.618-19.133-.271s-14.868-10.074-13.242-13.812,10.193-3.619,19.133.27S263.824,247.852,262.2,251.591Z" transform="translate(-1.589 -38.946)" fill="#f7d6ab" fill-rule="evenodd"/>
        <path id="Path_3061" data-name="Path 3061" d="M341.652,295.564c5.056,2.2,9.147,5.133,11.455,7.943a3.393,3.393,0,0,0,.989-1.272c1.627-3.739-4.3-9.924-13.242-13.813s-17.506-4.009-19.133-.27c-.707,1.624.014,3.71,1.787,5.869C326.407,291.652,333.887,292.186,341.652,295.564Z" transform="translate(-93.488 -89.589)" fill="#b1906f" fill-rule="evenodd"/>
        <g id="Group_1553" data-name="Group 1553" transform="translate(158.573 68.462)">
          <path id="Path_3062" data-name="Path 3062" d="M242.6,106.915l-1.121-17.158c-.886-4.271-1.757-5.225-3.39-5.607a18.519,18.519,0,0,1-2.34-.263c-.782-.206-1.568-1-2.367-1.175-.893-.2-2.075.6-3.705.391-.84-.106-1.188-.776-2.323-.78s-1.546.95-2.378,1.184-1.551-.59-2.365-.075-.84,1.543-1.548,1.985-2.132.042-2.908.754-.358,1.971-1.055,2.741-2.045.664-2.751,1.465-.142,1.966-.727,2.9-1.946,1.377-2.344,2.27.944,2.3.512,2.909c-1.308,1.846-1.912,2.371,2.094,5.113l1.271.87,13.261,9.464,7.138.049Z" transform="translate(-210.805 -82.324)" fill-rule="evenodd"/>
          <path id="Path_3063" data-name="Path 3063" d="M242.6,106.915l-1.122-17.158c-.886-4.272-1.757-5.225-3.39-5.607a18.507,18.507,0,0,1-2.34-.263c-.782-.206-1.568-1-2.367-1.175-.893-.2-2.075.6-3.705.391-.84-.106-1.188-.776-2.323-.78s-1.546.95-2.378,1.185-1.551-.59-2.365-.075-.84,1.543-1.548,1.985-2.132.042-2.908.754-.358,1.971-1.055,2.741-2.045.664-2.751,1.465-.142,1.966-.727,2.9-1.946,1.377-2.344,2.27.944,2.3.512,2.909c-1.308,1.846-1.912,2.371,2.094,5.113l1.271.87,13.261,9.464h.125c-5.4-3.863-11.121-8.1-13.116-9.926-1.562-1.433-1.3-2.162,3.175.868,1.861,1.261,4.939,3.812,8.137,6.218-.142-.123-9.957-8.332-10.057-9.255-.206-1.9,4.268,2.278,8,5.776-.21-.115-3.79-4.025-6.067-6.679-1.829-2.132-.459-2.714.955-.934l8,9.074-6.628-9.154c-.913-1.256-1.574-2.452-1.353-2.981.215-.514,1.28-.408,2.778,1.664l5.245,7.255-4.855-8.184c-.87-1.555-1.372-2.45-1.237-2.917.125-.43.8-.587,2.156,1.506,2.338,3.6,6.126,9.526,6.126,9.526L224.211,96c-.885-1.669-.082-3.162,1.333-.976l7.373,11.159-6.433-12.238c-.907-1.771.174-1.836.813-1.355a7.052,7.052,0,0,1,1.515,1.993l4.585,8.582-4.438-9.978c-.614-1.963.588-2.991,1.941-.747l4.007,10.588-3.171-10.494c-.7-2.307-.287-2.577.218-1.986a13.869,13.869,0,0,1,1.142,2.258l3.811,11.322-3.369-11.751c-.778-2.658,1-3.386,1.651-.748l2.666,10.791L235.586,90.7c-.558-1.8.7-2.447,1.142-.749l2.4,11.841-1.339-10.919c-.314-2.144,1.22-2.949,1.971-.325l1.568,12.36-.919-10.961c-.123-1.784.42-2.378.679-.79.274,1.686.339,4.224.484,5.478l.541,8.85.416,1.5Z" transform="translate(-210.805 -82.324)" fill="#1e1f1e" fill-rule="evenodd"/>
          <path id="Path_3064" data-name="Path 3064" d="M240.48,86.274a3.151,3.151,0,0,0-2.389-2.124,18.507,18.507,0,0,1-2.34-.263c-.782-.206-1.569-1-2.367-1.175-.893-.2-2.075.6-3.705.391-.84-.106-1.188-.776-2.323-.78s-1.546.95-2.378,1.185-1.551-.59-2.365-.075-.84,1.543-1.548,1.985-2.132.042-2.908.754-.358,1.971-1.055,2.741-2.045.664-2.751,1.465-.142,1.966-.727,2.9-1.946,1.377-2.344,2.27.944,2.3.512,2.909c-1.076,1.519-1.675,2.144.378,3.844l.005-.019.008-.027.008-.029.005-.018.012-.041,0-.006.014-.05v0l.014-.046.005-.016.01-.035.009-.028.008-.024.013-.04,0-.013.016-.052h0l.017-.054,0-.011.014-.044.008-.023.01-.032.012-.036.007-.019.016-.048,0-.008.019-.056,0-.005.018-.052.006-.018.014-.039.011-.031.009-.026.016-.043.005-.014.02-.056h0l.021-.058,0-.011.017-.046.009-.024.013-.033.014-.038.008-.02.019-.05,0-.008.022-.056,0-.006.019-.051.007-.018.016-.038.011-.03.011-.026.017-.042.006-.013.021-.055h0l.023-.055,0-.011.018-.043.009-.023.013-.03.014-.034.008-.018.019-.045,0-.007.022-.051,0-.005.019-.045.008-.016.014-.033.013-.026.009-.022.017-.037,0-.011.021-.046h0l.021-.045,0-.009.016-.034.009-.019.011-.024.013-.028.007-.014.018-.036,0,0,.019-.039,0,0,.018-.033.006-.012.013-.024.011-.019.009-.015.014-.025,0-.008.018-.031h0l.018-.029,0-.006.013-.021.008-.012.009-.014.011-.016.005-.008.014-.019,0,0,.015-.02h0l.013-.016.01-.011,0-.005.008-.008.006-.006.011-.009,0,0,.013-.009,1.846-1.248a6.13,6.13,0,0,0,.806-2.239,13.188,13.188,0,0,1,1.252-2.424,37.645,37.645,0,0,1,3.807-1.489c.532-.05,4.5-.751,4.828-.907a18.049,18.049,0,0,0,2.255-2.019A6.622,6.622,0,0,1,231.1,87.4l5.632-.144a10.555,10.555,0,0,0,3.748-.982Z" transform="translate(-210.805 -82.324)" fill="#31a31a" fill-rule="evenodd"/>
          <path id="Path_3065" data-name="Path 3065" d="M271.444,182.216l91.324,163.236c1.479,2.679,3.491,3.678,4.86,2.916,1.04-.578,1.639-2.233.18-5.372l-85.373-167.12-7.642.177Z" transform="translate(-233.415 -117.205)" fill="#e2b99b" fill-rule="evenodd"/>
          <path id="Path_3066" data-name="Path 3066" d="M372.825,347.963c.689-.8.886-2.378-.317-4.967l-85.373-167.12-3.088,1.786,83.941,158.917C369.685,339.821,373.278,345.022,372.825,347.963Z" transform="translate(-238.114 -117.205)" fill="#f2d0b8" fill-rule="evenodd"/>
          <path id="Path_3067" data-name="Path 3067" d="M271.444,184.849l91.324,163.236c1.2,2.172,2.749,3.24,4.023,3.16-2.938-1.6-6.239-9.875-9-14.945L274.766,182.937Z" transform="translate(-233.415 -119.838)" fill="#c9a184" fill-rule="evenodd"/>
          <path id="Path_3068" data-name="Path 3068" d="M251.111,116.457c-2.236,1.007-10.115,4.132-14.412,6.255-2.014.995-2.393,1.485-2.393,2.294,8.835,12.352,15.88,23.191,23.842,36.134,2.317-4.147,7.279-6.1,11.4-5.99-5.834-10.55-10.243-20.923-15.137-31.931C253.256,120.757,252.263,118.92,251.111,116.457Z" transform="translate(-219.568 -95.051)" fill="#d2d8e6" fill-rule="evenodd"/>
          <path id="Path_3069" data-name="Path 3069" d="M254.062,117.523c-1.922.81-4.859,2.014-7.674,3.23,8.226,13.224,13.892,23.189,21.291,36.19a14.13,14.13,0,0,1,4.794-1.341C264.952,142.6,260.089,132.035,254.062,117.523Z" transform="translate(-224.072 -95.448)" fill="#e4e9f5" fill-rule="evenodd"/>
          <path id="Path_3070" data-name="Path 3070" d="M236.353,126.708c-1.712.881-2.048,1.36-2.047,2.12,8.835,12.352,15.88,23.191,23.842,36.134a10.379,10.379,0,0,1,1.862-2.407C252.118,149.731,245.114,138.961,236.353,126.708Z" transform="translate(-219.568 -98.873)" fill="#b5bbc9" fill-rule="evenodd"/>
        </g>
        <g id="Group_1554" data-name="Group 1554" transform="translate(210.461 45.145)">
          <path id="Path_3071" data-name="Path 3071" d="M301.487,88.256C288.313,72.947,293.221,57.4,303.9,45.705c-2.278,14.623,14.184,29.192,6.6,41.7l-1.789,1.143Z" transform="translate(-293.543 -45.354)" fill-rule="evenodd"/>
          <path id="Path_3072" data-name="Path 3072" d="M296.574,81.048C290,68.164,294.9,55.568,303.9,45.705c-1.7,10.94,7.08,21.85,8.437,31.89l-.05-.112a84.16,84.16,0,0,0-8.174-18.813c3.082,7.129,5.013,15.358,3.765,20.012a54.936,54.936,0,0,0-5.355-19.933c-.786,3.02,2.384,13.495,2.411,17.753-1.2-4.983-3.158-11.413-4.78-16.377-1.518,4.835.294,12.529,2.165,18.259-3.935-7.712-4.689-13.564-4.417-18.052-3.076,7.138-.555,15.688,2.206,22.605-4.389-7.971-5.791-14.657-3.528-22.922C293.464,66.1,293.481,72.23,296.574,81.048Z" transform="translate(-293.543 -45.354)" fill="#1e1f1e" fill-rule="evenodd"/>
          <path id="Path_3073" data-name="Path 3073" d="M320.419,175.307,358.876,358.33c.619,3,1.843,4.618,2.886,4.384.793-.178,1.441-1.508.9-4.926L328.826,173.212l-5.23-2.47Z" transform="translate(-303.564 -91.974)" fill="#e2b99b" fill-rule="evenodd"/>
          <path id="Path_3074" data-name="Path 3074" d="M365.753,363.978c.585-.5.949-1.9.505-4.721L332.419,174.681l-2.362.593,34.057,176.467C364.8,355.336,366.489,361.4,365.753,363.978Z" transform="translate(-307.157 -93.443)" fill="#f2d0b8" fill-rule="evenodd"/>
          <path id="Path_3075" data-name="Path 3075" d="M320.419,177.647l38.457,183.023c.5,2.431,1.4,3.955,2.28,4.32-1.767-2.495-2.812-11.318-3.956-16.977l-34.241-171Z" transform="translate(-303.564 -94.314)" fill="#c9a184" fill-rule="evenodd"/>
          <path id="Path_3076" data-name="Path 3076" d="M315.718,109.149c-1.865-2.119-8.528-1.8-10.845,1.669,4.221,14.513,6.428,27.459,9.968,42.219,2.18-3.05,5.844-3.156,8.632-1.629C320.615,137.571,317.945,123.166,315.718,109.149Z" transform="translate(-297.767 -68.514)" fill="#d2d8e6" fill-rule="evenodd"/>
          <path id="Path_3077" data-name="Path 3077" d="M307.133,110.1c-1.294.227-2.15.864-2.26,1.57,4.221,14.513,6.428,27.459,9.968,42.219a11.559,11.559,0,0,1,2.307-2.07C313.917,137.824,310.221,122.068,307.133,110.1Z" transform="translate(-297.767 -69.362)" fill="#b5bbc9" fill-rule="evenodd"/>
          <path id="Path_3078" data-name="Path 3078" d="M320.347,109.235a3.937,3.937,0,0,0-3.058-1.184c.793,4.056,6.245,33.227,8.026,42.531a7.829,7.829,0,0,1,2.787.912C325.244,137.657,322.574,123.252,320.347,109.235Z" transform="translate(-302.397 -68.6)" fill="#e4e9f5" fill-rule="evenodd"/>
          <path id="Path_3079" data-name="Path 3079" d="M297.523,57.763c1.145-4.362,6.283-10.685,8.039-12.618a33.155,33.155,0,0,1-.082,4.6c-.418,1.658,1.678,6.125,1.266,6.974C306.669,56.849,300.012,58.912,297.523,57.763Z" transform="translate(-295.027 -45.145)" fill="#5b0bd4" fill-rule="evenodd"/>
        </g>
        <path id="Path_3080" data-name="Path 3080" d="M314.1,279.593c-20.353-12.988-45.018-25.309-19.88-28.8,15.125-2.1-1.19-16.389-25.2-32.081L255.534,241.4c5.042,3.478,7.843,7.478,6.663,10.192-1.627,3.739-10.193,3.618-19.133-.271S228.2,241.248,229.822,237.51a3.15,3.15,0,0,1,.168-.331l-56.369-16.106L109.1,149.737c-17.548-1.026-30.656,3.676-33.742,18.3-9.214,43.667,152.538,122.407,189.169,135.841,33.523,12.293,64.9,20.76,72.022,13.2C347.292,305.677,322.516,284.963,314.1,279.593Z" transform="translate(-1.589 -38.947)" fill="#f7d6ab" fill-rule="evenodd"/>
        <path id="Path_3081" data-name="Path 3081" d="M336.724,319.754a14.143,14.143,0,0,1-11.124,8.991c-12.2,2.073-38.585-5.5-66.446-15.718C222.522,299.593,61.884,221.685,71.1,178.019c.97-4.6,4.339-11.513,7.082-14.305.021-.022.045-.041.066-.063a21.84,21.84,0,0,0-4.478,9.628c-9.214,43.667,152.538,122.407,189.17,135.841,33.522,12.293,64.9,20.76,72.022,13.2a9.9,9.9,0,0,0,1.765-2.566Zm-38.363-66.977c-.445,1.637-2.253,2.766-5.727,3.249-8.416,1.171-11.243,3.332-10.527,6.174,1.776-1.784,5.06-2.675,8.3-3.268C294.836,258.118,298.1,257.905,298.361,252.777Z" transform="translate(0 -44.185)" fill="#ecc094" fill-rule="evenodd"/>
        <g id="Group_1555" data-name="Group 1555" transform="translate(212.262 224.276)">
          <path id="Path_3082" data-name="Path 3082" d="M323.9,350.955c3.464.932,11.44,5.55,14.532,2.555,2.056-1.991-4.271-7.24-5.9-8.688-8.852-7.871-9.093-8.561-20.927-11.668-1.834-.48-4.7-1.51-7.5-2.043-2.633-.5-5.211-.566-6.823.671-.857.658-1.439,1.7.019,3.467,4.683,5.683,8.257,4.475,11.094,6.971a16.766,16.766,0,0,1,2.055,2.809c1.877,2.657,6.562,4.737,9.777,5.328C321.531,350.6,322.736,350.641,323.9,350.955Z" transform="translate(-296.414 -330.774)" fill="#f4a703" fill-rule="evenodd"/>
          <path id="Path_3083" data-name="Path 3083" d="M324.124,337.781c-2.9-1.907-5.894-2.887-12.514-4.626-1.833-.48-4.7-1.51-7.5-2.043-2.633-.5-5.211-.566-6.823.671-.857.658-1.439,1.7.019,3.467a15.047,15.047,0,0,0,7.819,5.254,17.124,17.124,0,0,1-2.951-2.876c-1.459-1.77-.877-2.81-.019-3.467,1.612-1.237,4.189-1.173,6.822-.671,2.8.533,5.669,1.562,7.5,2.043C319.785,336.4,322.187,337.08,324.124,337.781Z" transform="translate(-296.414 -330.774)" fill="#eba100" fill-rule="evenodd"/>
          <path id="Path_3084" data-name="Path 3084" d="M325,354.26c3.464.932,11.44,5.549,14.532,2.555,2.056-1.991-4.271-7.24-5.9-8.688-.975-.866-1.844-1.645-2.637-2.351,2.766,2.728,6.866,7.283,5.241,8.737-1.793,1.6-7.3-1.111-10.762-2.043-1.168-.314-2.374-.359-3.674-.6-3.215-.591-7.9-2.672-9.777-5.329a10.329,10.329,0,0,0-2.4-2.219c-2.019-1.631-6.281-2.475-10.27-4.687,4.218,4.448,7.5,3.564,10.138,5.888a16.764,16.764,0,0,1,2.055,2.809c1.877,2.657,6.562,4.738,9.777,5.328C322.628,353.9,323.834,353.945,325,354.26Z" transform="translate(-297.512 -334.079)" fill="#fcca35" fill-rule="evenodd"/>
          <path id="Path_3085" data-name="Path 3085" d="M325.117,346.678c2.37.637,7.828,3.8,9.944,1.748,1.407-1.363-2.923-4.954-4.037-5.945-.667-.593-1.262-1.126-1.8-1.609,1.893,1.868,4.7,4.984,3.587,5.979-1.227,1.1-4.995-.76-7.365-1.4-.8-.215-1.625-.246-2.515-.409-2.2-.4-5.406-1.829-6.69-3.646a7.076,7.076,0,0,0-1.641-1.52c-1.382-1.116-4.3-1.693-7.027-3.207,2.886,3.044,5.13,2.44,6.937,4.029a11.358,11.358,0,0,1,1.406,1.922c1.284,1.819,4.49,3.242,6.691,3.646C323.492,346.431,324.316,346.462,325.117,346.678Z" transform="translate(-300.573 -332.973)" fill="#fcca35" fill-rule="evenodd"/>
        </g>
        <g id="Group_1559" data-name="Group 1559" transform="translate(157.443 193.486)">
          <g id="Group_1556" data-name="Group 1556">
            <path id="Path_3086" data-name="Path 3086" d="M236.5,301.859c3.464.932,11.44,5.55,14.532,2.556,2.057-1.991-4.271-7.24-5.9-8.688-8.853-7.872-9.094-8.561-20.927-11.667-1.833-.482-4.7-1.511-7.5-2.044-2.633-.5-5.21-.566-6.823.671-.857.657-1.439,1.7.019,3.467,4.684,5.683,8.257,4.475,11.094,6.972a16.7,16.7,0,0,1,2.055,2.808c1.876,2.657,6.562,4.737,9.777,5.328C234.121,301.5,235.326,301.545,236.5,301.859Z" transform="translate(-209.004 -281.679)" fill="#0172d2" fill-rule="evenodd"/>
            <path id="Path_3087" data-name="Path 3087" d="M236.715,288.685c-2.9-1.907-5.893-2.888-12.514-4.626-1.833-.481-4.7-1.51-7.5-2.043-2.633-.5-5.21-.566-6.823.671-.857.657-1.439,1.7.019,3.467a15.049,15.049,0,0,0,7.819,5.254,17.147,17.147,0,0,1-2.952-2.875c-1.459-1.77-.877-2.81-.019-3.467,1.612-1.237,4.19-1.172,6.823-.671,2.8.534,5.669,1.562,7.5,2.044C232.376,287.305,234.777,287.984,236.715,288.685Z" transform="translate(-209.004 -281.679)" fill="#035ead" fill-rule="evenodd"/>
            <path id="Path_3088" data-name="Path 3088" d="M237.593,305.165c3.464.931,11.44,5.549,14.532,2.555,2.057-1.991-4.271-7.24-5.9-8.688-.975-.867-1.844-1.646-2.638-2.351,2.767,2.729,6.867,7.283,5.242,8.738-1.793,1.6-7.3-1.111-10.762-2.043-1.168-.314-2.375-.359-3.675-.6-3.215-.591-7.9-2.672-9.777-5.328a10.332,10.332,0,0,0-2.4-2.22c-2.019-1.632-6.281-2.475-10.27-4.687,4.218,4.449,7.5,3.565,10.137,5.888a16.691,16.691,0,0,1,2.055,2.808c1.876,2.658,6.562,4.738,9.777,5.328C235.219,304.8,236.424,304.85,237.593,305.165Z" transform="translate(-210.102 -284.983)" fill="#2698fc" fill-rule="evenodd"/>
            <path id="Path_3089" data-name="Path 3089" d="M237.707,297.582c2.37.637,7.829,3.8,9.945,1.748,1.407-1.362-2.923-4.954-4.038-5.945-.667-.593-1.262-1.126-1.8-1.609,1.893,1.868,4.7,4.985,3.587,5.98-1.227,1.1-4.995-.76-7.365-1.4-.8-.214-1.625-.245-2.515-.408-2.2-.4-5.407-1.829-6.69-3.647a7.073,7.073,0,0,0-1.641-1.519c-1.382-1.116-4.3-1.694-7.028-3.208,2.887,3.045,5.13,2.44,6.938,4.029a11.436,11.436,0,0,1,1.406,1.922c1.284,1.818,4.49,3.242,6.69,3.646C236.082,297.336,236.907,297.367,237.707,297.582Z" transform="translate(-213.163 -283.877)" fill="#2698fc" fill-rule="evenodd"/>
          </g>
          <g id="Group_1557" data-name="Group 1557" transform="translate(25.402 19.259)">
            <path id="Path_3090" data-name="Path 3090" d="M253.422,313.167c1.894.823,3.227,1.958,2.977,2.534s-1.989.373-3.883-.451-3.227-1.959-2.976-2.534S251.528,312.342,253.422,313.167Z" transform="translate(-249.509 -312.388)" fill="#0172d2" fill-rule="evenodd"/>
            <path id="Path_3091" data-name="Path 3091" d="M253.422,313.167c.2.088.4.179.585.273-1.713-.685-3.172-.911-3.353-.494-.2.453,1.18,1.487,3.074,2.311A13.034,13.034,0,0,0,255.9,316a7.033,7.033,0,0,1-3.385-.749c-1.894-.824-3.227-1.959-2.976-2.534S251.528,312.342,253.422,313.167Z" transform="translate(-249.509 -312.388)" fill="#035ead" fill-rule="evenodd"/>
            <path id="Path_3092" data-name="Path 3092" d="M255.2,314.5c.877.6,1.371,1.2,1.21,1.573-.251.575-1.989.373-3.883-.451-1.609-.7-2.813-1.624-2.985-2.239a10.808,10.808,0,0,0,2.47,1.43c1.894.824,3.6,1.108,3.8.632C255.911,315.225,255.672,314.883,255.2,314.5Z" transform="translate(-249.521 -312.759)" fill="#2698fc" fill-rule="evenodd"/>
          </g>
          <g id="Group_1558" data-name="Group 1558" transform="translate(2.017 8.236)">
            <path id="Path_3093" data-name="Path 3093" d="M217.339,295.576c2.342,1.019,3.881,2.671,3.439,3.689s-2.7,1.018-5.043,0-3.881-2.67-3.439-3.689S215,294.557,217.339,295.576Z" transform="translate(-212.22 -294.811)" fill="#0172d2" fill-rule="evenodd"/>
            <path id="Path_3094" data-name="Path 3094" d="M217.339,295.576c.25.109.49.225.72.346-2.13-.82-4.013-.915-4.334-.177-.348.8,1.269,2.275,3.611,3.293a11.3,11.3,0,0,0,2.727.826,6.56,6.56,0,0,1-4.328-.6c-2.342-1.019-3.881-2.67-3.439-3.689S215,294.557,217.339,295.576Z" transform="translate(-212.22 -294.812)" fill="#035ead" fill-rule="evenodd"/>
            <path id="Path_3095" data-name="Path 3095" d="M219.49,297.6c1.04.842,1.576,1.759,1.291,2.413-.443,1.019-2.7,1.019-5.043,0-1.989-.865-3.4-2.187-3.508-3.19a9.577,9.577,0,0,0,2.984,1.928c2.342,1.019,4.537,1.163,4.9.322C220.286,298.688,220.036,298.159,219.49,297.6Z" transform="translate(-212.224 -295.562)" fill="#2698fc" fill-rule="evenodd"/>
          </g>
        </g>
        <g id="Group_1563" data-name="Group 1563" transform="translate(104.104 161.281)">
          <g id="Group_1560" data-name="Group 1560" transform="translate(8.712 2.725)">
            <path id="Path_3096" data-name="Path 3096" d="M165.336,254.852c3.464.931,11.44,5.548,14.532,2.554,2.057-1.991-4.271-7.24-5.9-8.688-8.853-7.871-9.094-8.561-20.927-11.667-1.833-.481-4.7-1.51-7.5-2.043-2.633-.5-5.21-.566-6.823.671-.857.657-1.439,1.7.02,3.467,4.683,5.682,8.256,4.474,11.094,6.971a16.7,16.7,0,0,1,2.055,2.809c1.876,2.657,6.562,4.737,9.777,5.328C162.962,254.492,164.167,254.537,165.336,254.852Z" transform="translate(-137.845 -234.671)" fill="#5b0bd4" fill-rule="evenodd"/>
            <path id="Path_3097" data-name="Path 3097" d="M165.556,241.677c-2.9-1.907-5.894-2.888-12.515-4.626-1.833-.481-4.7-1.51-7.5-2.043-2.633-.5-5.21-.566-6.823.671-.857.657-1.439,1.7.02,3.467a15.041,15.041,0,0,0,7.819,5.254,17.146,17.146,0,0,1-2.952-2.875c-1.459-1.77-.877-2.81-.019-3.467,1.612-1.237,4.189-1.172,6.823-.671,2.8.534,5.669,1.562,7.5,2.043C161.217,240.3,163.618,240.977,165.556,241.677Z" transform="translate(-137.845 -234.671)" fill="#4d06b8" fill-rule="evenodd"/>
            <path id="Path_3098" data-name="Path 3098" d="M166.434,258.157c3.464.931,11.44,5.548,14.532,2.554,2.057-1.991-4.271-7.24-5.9-8.688-.974-.866-1.844-1.645-2.637-2.351,2.766,2.729,6.867,7.284,5.242,8.737-1.793,1.605-7.3-1.111-10.762-2.043-1.168-.314-2.375-.359-3.675-.6-3.215-.59-7.9-2.672-9.777-5.328a10.328,10.328,0,0,0-2.4-2.219c-2.019-1.632-6.281-2.475-10.27-4.687,4.218,4.448,7.5,3.564,10.138,5.888a16.757,16.757,0,0,1,2.055,2.808c1.876,2.658,6.562,4.738,9.777,5.328C164.06,257.8,165.265,257.842,166.434,258.157Z" transform="translate(-138.943 -237.975)" fill="#8636ff" fill-rule="evenodd"/>
            <path id="Path_3099" data-name="Path 3099" d="M166.548,250.574c2.37.637,7.828,3.8,9.945,1.748,1.407-1.363-2.923-4.954-4.038-5.945-.667-.593-1.262-1.126-1.8-1.609,1.893,1.867,4.7,4.984,3.587,5.979-1.227,1.1-4.995-.761-7.364-1.4-.8-.215-1.626-.245-2.515-.409-2.2-.4-5.406-1.829-6.69-3.646a7.057,7.057,0,0,0-1.641-1.519c-1.382-1.117-4.3-1.694-7.027-3.208,2.886,3.044,5.13,2.44,6.937,4.029a11.434,11.434,0,0,1,1.406,1.922c1.284,1.818,4.49,3.242,6.69,3.646C164.923,250.327,165.748,250.359,166.548,250.574Z" transform="translate(-142.004 -236.869)" fill="#8636ff" fill-rule="evenodd"/>
          </g>
          <g id="Group_1561" data-name="Group 1561" transform="translate(22.851 19.11)">
            <path id="Path_3100" data-name="Path 3100" d="M166.633,262.039c3.022,1.314,5.148,3.124,4.749,4.041s-3.173.6-6.194-.719-5.148-3.124-4.749-4.041S163.611,260.724,166.633,262.039Z" transform="translate(-160.39 -260.797)" fill="#5b0bd4" fill-rule="evenodd"/>
            <path id="Path_3101" data-name="Path 3101" d="M166.633,262.039c.322.14.634.286.934.436-2.733-1.093-5.06-1.452-5.349-.788-.314.721,1.882,2.371,4.9,3.685a20.675,20.675,0,0,0,3.466,1.183,11.212,11.212,0,0,1-5.4-1.194c-3.022-1.315-5.148-3.124-4.749-4.041S163.611,260.724,166.633,262.039Z" transform="translate(-160.39 -260.797)" fill="#4d06b8" fill-rule="evenodd"/>
            <path id="Path_3102" data-name="Path 3102" d="M169.472,264.163c1.4.959,2.187,1.918,1.93,2.508-.4.918-3.173.6-6.194-.719-2.567-1.116-4.487-2.59-4.762-3.571a17.249,17.249,0,0,0,3.939,2.281c3.021,1.314,5.738,1.766,6.068,1.008C170.6,265.322,170.223,264.777,169.472,264.163Z" transform="translate(-160.411 -261.388)" fill="#8636ff" fill-rule="evenodd"/>
          </g>
          <g id="Group_1562" data-name="Group 1562">
            <path id="Path_3103" data-name="Path 3103" d="M128.854,231.3c2.372,1.032,4.042,2.453,3.728,3.173s-2.49.468-4.863-.564-4.042-2.453-3.728-3.173S126.482,230.269,128.854,231.3Z" transform="translate(-123.954 -230.326)" fill="#5b0bd4" fill-rule="evenodd"/>
            <path id="Path_3104" data-name="Path 3104" d="M128.855,231.3q.379.165.733.342c-2.145-.859-3.972-1.14-4.2-.618-.246.566,1.478,1.861,3.85,2.894a16.225,16.225,0,0,0,2.722.929,8.806,8.806,0,0,1-4.24-.937c-2.372-1.032-4.042-2.453-3.728-3.173S126.483,230.269,128.855,231.3Z" transform="translate(-123.954 -230.327)" fill="#4d06b8" fill-rule="evenodd"/>
            <path id="Path_3105" data-name="Path 3105" d="M131.084,232.968c1.1.753,1.716,1.506,1.515,1.969-.314.721-2.491.468-4.863-.564-2.015-.877-3.523-2.034-3.739-2.8a13.517,13.517,0,0,0,3.093,1.791c2.372,1.032,4.5,1.387,4.764.792C131.972,233.879,131.673,233.45,131.084,232.968Z" transform="translate(-123.97 -230.79)" fill="#8636ff" fill-rule="evenodd"/>
          </g>
        </g>
        <g id="Group_1566" data-name="Group 1566" transform="translate(266.72 243.633)">
          <g id="Group_1564" data-name="Group 1564">
            <path id="Path_3106" data-name="Path 3106" d="M413.094,382.335c3.464.931,10.838,4.939,13.93,1.945,2.057-1.991-4.271-7.24-5.9-8.687-8.852-7.871-8.974-8.335-20.808-11.444-1.833-.48-4.819-1.735-7.621-2.268-4.94-.941-12.594,1.765-8,6.764a48.022,48.022,0,0,0,15.208,10.64C402.318,380.265,411.283,381.847,413.094,382.335Z" transform="translate(-383.261 -361.66)" fill="#ffef0a" fill-rule="evenodd"/>
            <path id="Path_3107" data-name="Path 3107" d="M412.7,368.53c-2.9-1.907-5.671-2.7-12.291-4.443-1.832-.482-5.336-1.743-8.138-2.277a11.336,11.336,0,0,0-7.311,1.2c-5.042,2.964,2.3,8.982,6.22,10.447-3.666-2.742-6.538-5.8-2.194-9.129,1.612-1.236,5.932-.588,8.565-.087,2.8.534,5.669,1.562,7.5,2.043C408.36,367.15,410.761,367.829,412.7,368.53Z" transform="translate(-383.249 -361.64)" fill="#eddd00" fill-rule="evenodd"/>
            <path id="Path_3108" data-name="Path 3108" d="M420.574,388.589c3.464.931,11.44,5.548,14.532,2.554,2.058-1.991-4.27-7.24-5.9-8.687-.975-.867-1.844-1.646-2.637-2.351,2.766,2.729,6.866,7.284,5.241,8.737-1.793,1.605-7.3-1.111-10.762-2.043-5.25-1.411-10.848-.8-16.089-2.256C409.891,387.552,415.472,387.216,420.574,388.589Z" transform="translate(-391.344 -368.524)" fill="#fff99e" fill-rule="evenodd"/>
            <path id="Path_3109" data-name="Path 3109" d="M414.726,377.357c2.371.637,7.829,3.8,9.945,1.748,1.407-1.363-2.923-4.954-4.038-5.946-.666-.593-1.262-1.126-1.8-1.608,1.893,1.867,4.7,4.984,3.587,5.979-1.227,1.1-4.995-.761-7.365-1.4-.8-.215-1.625-.246-2.515-.41-2.2-.4-5.406-1.829-6.69-3.646a7.058,7.058,0,0,0-1.641-1.519c-1.382-1.116-4.3-1.693-7.027-3.207,2.885,3.044,5.129,2.438,6.936,4.029a11.458,11.458,0,0,1,1.407,1.922c1.284,1.818,4.49,3.242,6.69,3.646C413.1,377.111,413.926,377.142,414.726,377.357Z" transform="translate(-388.443 -363.769)" fill="#fff99e" fill-rule="evenodd"/>
          </g>
          <g id="Group_1565" data-name="Group 1565" transform="translate(26.979 20.6)">
            <path id="Path_3110" data-name="Path 3110" d="M431.321,395.492c2.447,1.064,4.168,2.529,3.844,3.272s-2.568.482-5.015-.582-4.167-2.529-3.844-3.272S428.875,394.428,431.321,395.492Z" transform="translate(-426.268 -394.487)" fill="#ffef0a" fill-rule="evenodd"/>
            <path id="Path_3111" data-name="Path 3111" d="M431.321,395.493c.261.114.514.231.756.352-2.212-.885-4.1-1.176-4.33-.637-.254.583,1.524,1.918,3.97,2.983a16.706,16.706,0,0,0,2.806.958,9.076,9.076,0,0,1-4.372-.966c-2.447-1.064-4.168-2.529-3.844-3.272S428.875,394.429,431.321,395.493Z" transform="translate(-426.268 -394.488)" fill="#eddd00" fill-rule="evenodd"/>
            <path id="Path_3112" data-name="Path 3112" d="M433.62,397.211c1.131.776,1.769,1.553,1.562,2.031-.324.743-2.569.482-5.014-.582-2.078-.9-3.633-2.1-3.855-2.891a13.922,13.922,0,0,0,3.189,1.846c2.445,1.064,4.645,1.43,4.912.817C434.537,398.15,434.228,397.709,433.62,397.211Z" transform="translate(-426.285 -394.965)" fill="#fff99e" fill-rule="evenodd"/>
          </g>
        </g>
        <g id="Group_1569" data-name="Group 1569" transform="translate(86.154 135.23)">
          <g id="Group_1567" data-name="Group 1567" transform="translate(0 0)">
            <path id="Path_3113" data-name="Path 3113" d="M125.178,209.481c3.463.931,10.837,4.939,13.929,1.945,2.057-1.991-4.271-7.24-5.9-8.688-8.853-7.871-8.974-8.335-20.808-11.443-1.833-.481-4.82-1.735-7.622-2.268-4.94-.941-12.594,1.765-8,6.764a48.044,48.044,0,0,0,15.208,10.639C114.4,207.411,123.366,208.994,125.178,209.481Z" transform="translate(-95.344 -188.808)" fill="#d108ce" fill-rule="evenodd"/>
            <path id="Path_3114" data-name="Path 3114" d="M124.783,195.676c-2.9-1.907-5.671-2.7-12.291-4.442-1.833-.482-5.337-1.743-8.139-2.277a11.333,11.333,0,0,0-7.311,1.2c-5.042,2.964,2.3,8.982,6.22,10.447-3.666-2.743-6.538-5.8-2.193-9.129,1.611-1.236,5.932-.588,8.564-.087,2.8.534,5.669,1.562,7.5,2.043C120.444,194.3,122.845,194.976,124.783,195.676Z" transform="translate(-95.332 -188.787)" fill="#a306a0" fill-rule="evenodd"/>
            <path id="Path_3115" data-name="Path 3115" d="M132.658,215.735c3.464.931,11.44,5.549,14.532,2.555,2.057-1.991-4.271-7.24-5.9-8.688-.975-.867-1.844-1.645-2.637-2.351,2.766,2.729,6.867,7.283,5.242,8.737-1.793,1.6-7.3-1.111-10.762-2.043-5.25-1.411-10.848-.8-16.09-2.257C121.975,214.7,127.555,214.363,132.658,215.735Z" transform="translate(-103.427 -195.672)" fill="#f00cec" fill-rule="evenodd"/>
            <path id="Path_3116" data-name="Path 3116" d="M126.809,204.5c2.371.637,7.829,3.8,9.945,1.748,1.407-1.363-2.923-4.954-4.038-5.945-.667-.593-1.262-1.126-1.8-1.609,1.893,1.868,4.7,4.985,3.587,5.98-1.227,1.1-4.994-.761-7.364-1.4-.8-.215-1.626-.246-2.515-.409-2.2-.4-5.407-1.829-6.69-3.646a7.047,7.047,0,0,0-1.641-1.519c-1.382-1.117-4.3-1.694-7.027-3.208,2.886,3.044,5.13,2.439,6.937,4.029a11.451,11.451,0,0,1,1.406,1.922c1.284,1.819,4.49,3.242,6.69,3.646C125.184,204.257,126.009,204.288,126.809,204.5Z" transform="translate(-100.526 -190.916)" fill="#f00cec" fill-rule="evenodd"/>
          </g>
          <g id="Group_1568" data-name="Group 1568" transform="translate(26.979 20.6)">
            <path id="Path_3117" data-name="Path 3117" d="M143.4,222.639c2.447,1.064,4.167,2.529,3.844,3.272s-2.569.482-5.015-.582-4.167-2.529-3.844-3.272S140.958,221.575,143.4,222.639Z" transform="translate(-138.351 -221.634)" fill="#d108ce" fill-rule="evenodd"/>
            <path id="Path_3118" data-name="Path 3118" d="M143.4,222.639c.261.114.514.231.756.352-2.213-.885-4.1-1.176-4.33-.638-.254.584,1.523,1.919,3.97,2.983a16.7,16.7,0,0,0,2.806.958,9.078,9.078,0,0,1-4.372-.966c-2.446-1.064-4.167-2.529-3.844-3.272S140.958,221.575,143.4,222.639Z" transform="translate(-138.351 -221.634)" fill="#a306a0" fill-rule="evenodd"/>
            <path id="Path_3119" data-name="Path 3119" d="M145.7,224.358c1.132.776,1.77,1.553,1.562,2.031-.324.743-2.569.482-5.015-.582-2.078-.9-3.632-2.1-3.855-2.891a13.949,13.949,0,0,0,3.189,1.846c2.446,1.064,4.645,1.43,4.912.817C146.62,225.3,146.311,224.856,145.7,224.358Z" transform="translate(-138.368 -222.112)" fill="#f00cec" fill-rule="evenodd"/>
          </g>
        </g>
        <g id="Group_1573" data-name="Group 1573" transform="translate(108.24 121.53)">
          <g id="Group_1570" data-name="Group 1570" transform="translate(3.094)">
            <path id="Path_3120" data-name="Path 3120" d="M162.972,187.123c3.464.931,11.44,5.549,14.532,2.555,2.057-1.991-4.271-7.24-5.9-8.688-8.853-7.871-9.094-8.561-20.927-11.668-1.833-.481-4.7-1.51-7.5-2.043-2.633-.5-5.21-.566-6.822.67-.858.657-1.439,1.7.019,3.467,4.684,5.683,8.257,4.475,11.094,6.971a16.67,16.67,0,0,1,2.055,2.808c1.876,2.657,6.562,4.737,9.777,5.328C160.6,186.764,161.8,186.809,162.972,187.123Z" transform="translate(-135.481 -166.943)" fill="#ed1000" fill-rule="evenodd"/>
            <path id="Path_3121" data-name="Path 3121" d="M163.192,173.949c-2.9-1.906-5.894-2.888-12.515-4.626-1.833-.481-4.7-1.51-7.5-2.043-2.633-.5-5.21-.565-6.822.671-.858.657-1.439,1.7.019,3.467a15.049,15.049,0,0,0,7.819,5.254,17.13,17.13,0,0,1-2.952-2.876c-1.459-1.77-.877-2.81-.019-3.467,1.612-1.236,4.19-1.172,6.823-.67,2.8.534,5.669,1.562,7.5,2.043C158.853,172.569,161.254,173.248,163.192,173.949Z" transform="translate(-135.481 -166.943)" fill="#b30c00" fill-rule="evenodd"/>
            <path id="Path_3122" data-name="Path 3122" d="M164.07,190.428c3.464.931,11.44,5.549,14.532,2.555,2.057-1.991-4.271-7.24-5.9-8.688-.975-.867-1.844-1.646-2.637-2.351,2.766,2.729,6.866,7.283,5.242,8.737-1.793,1.6-7.3-1.111-10.762-2.043-1.168-.314-2.375-.359-3.675-.6-3.215-.59-7.9-2.672-9.777-5.328a10.332,10.332,0,0,0-2.4-2.22c-2.019-1.631-6.281-2.475-10.27-4.687,4.218,4.448,7.5,3.565,10.137,5.888a16.765,16.765,0,0,1,2.055,2.809c1.876,2.657,6.562,4.737,9.777,5.328C161.7,190.068,162.9,190.113,164.07,190.428Z" transform="translate(-136.579 -170.247)" fill="#ff584c" fill-rule="evenodd"/>
            <path id="Path_3123" data-name="Path 3123" d="M164.184,182.845c2.371.638,7.829,3.8,9.945,1.748,1.407-1.362-2.923-4.954-4.038-5.945-.667-.593-1.262-1.126-1.8-1.609,1.893,1.868,4.7,4.984,3.587,5.979-1.227,1.1-4.995-.76-7.365-1.4-.8-.215-1.625-.246-2.514-.41-2.2-.4-5.407-1.828-6.69-3.646a7.059,7.059,0,0,0-1.641-1.519c-1.382-1.117-4.3-1.694-7.027-3.208,2.886,3.044,5.13,2.439,6.937,4.029a11.453,11.453,0,0,1,1.406,1.922c1.284,1.819,4.49,3.242,6.69,3.646C162.559,182.6,163.384,182.63,164.184,182.845Z" transform="translate(-139.64 -169.141)" fill="#ff584c" fill-rule="evenodd"/>
          </g>
          <g id="Group_1571" data-name="Group 1571" transform="translate(33.288 21.373)">
            <path id="Path_3124" data-name="Path 3124" d="M189.869,202.264c3.022,1.314,5.148,3.124,4.749,4.042s-3.173.6-6.194-.719-5.148-3.124-4.748-4.041S186.847,200.949,189.869,202.264Z" transform="translate(-183.627 -201.022)" fill="#ed1000" fill-rule="evenodd"/>
            <path id="Path_3125" data-name="Path 3125" d="M189.869,202.264q.484.211.934.435c-2.733-1.092-5.06-1.452-5.349-.787-.314.721,1.882,2.371,4.9,3.685a20.727,20.727,0,0,0,3.467,1.184,11.215,11.215,0,0,1-5.4-1.195c-3.021-1.314-5.148-3.123-4.748-4.041S186.847,200.95,189.869,202.264Z" transform="translate(-183.627 -201.023)" fill="#b30c00" fill-rule="evenodd"/>
            <path id="Path_3126" data-name="Path 3126" d="M192.709,204.388c1.4.959,2.186,1.918,1.93,2.508-.4.918-3.173.6-6.194-.719-2.566-1.116-4.487-2.59-4.762-3.571a17.25,17.25,0,0,0,3.939,2.281c3.022,1.314,5.738,1.766,6.068,1.008C193.841,205.547,193.459,205,192.709,204.388Z" transform="translate(-183.648 -201.613)" fill="#ff584c" fill-rule="evenodd"/>
          </g>
          <g id="Group_1572" data-name="Group 1572" transform="translate(0 3.712)">
            <path id="Path_3127" data-name="Path 3127" d="M135.449,173.836c2.372,1.032,4.041,2.453,3.728,3.173s-2.491.467-4.864-.564-4.041-2.453-3.728-3.173S133.077,172.8,135.449,173.836Z" transform="translate(-130.548 -172.861)" fill="#ed1000" fill-rule="evenodd"/>
            <path id="Path_3128" data-name="Path 3128" d="M135.449,173.836c.253.11.5.225.733.342-2.146-.858-3.972-1.14-4.2-.618-.246.566,1.478,1.861,3.85,2.894a16.283,16.283,0,0,0,2.721.929,8.808,8.808,0,0,1-4.24-.938c-2.372-1.032-4.042-2.453-3.729-3.173S133.077,172.8,135.449,173.836Z" transform="translate(-130.548 -172.861)" fill="#b30c00" fill-rule="evenodd"/>
            <path id="Path_3129" data-name="Path 3129" d="M137.678,175.5c1.1.753,1.717,1.506,1.515,1.969-.314.721-2.491.467-4.863-.564-2.016-.877-3.523-2.034-3.74-2.8a13.522,13.522,0,0,0,3.093,1.79c2.372,1.032,4.505,1.387,4.764.792C138.567,176.413,138.268,175.985,137.678,175.5Z" transform="translate(-130.564 -173.325)" fill="#ff584c" fill-rule="evenodd"/>
          </g>
        </g>
        <g id="Group_1577" data-name="Group 1577" transform="translate(159.314 133.036)">
          <g id="Group_1574" data-name="Group 1574" transform="translate(37.692 13.985)">
            <path id="Path_3130" data-name="Path 3130" d="M276.988,208.563c2.373,1.032,4.042,2.452,3.729,3.173s-2.491.468-4.864-.564-4.041-2.453-3.728-3.173S274.617,207.531,276.988,208.563Z" transform="translate(-272.088 -207.588)" fill="#42d126" fill-rule="evenodd"/>
            <path id="Path_3131" data-name="Path 3131" d="M276.989,208.563q.38.165.732.342c-2.145-.859-3.972-1.14-4.2-.618-.246.566,1.477,1.861,3.85,2.893a16.213,16.213,0,0,0,2.722.929,8.8,8.8,0,0,1-4.24-.938c-2.372-1.032-4.043-2.452-3.729-3.173S274.617,207.531,276.989,208.563Z" transform="translate(-272.088 -207.588)" fill="#31a31a" fill-rule="evenodd"/>
            <path id="Path_3132" data-name="Path 3132" d="M279.218,210.23c1.1.753,1.716,1.506,1.515,1.969-.314.721-2.491.468-4.863-.564-2.016-.877-3.523-2.034-3.74-2.8a13.523,13.523,0,0,0,3.094,1.791c2.372,1.032,4.5,1.387,4.763.791C280.107,211.14,279.807,210.712,279.218,210.23Z" transform="translate(-272.104 -208.052)" fill="#68e64e" fill-rule="evenodd"/>
          </g>
          <g id="Group_1575" data-name="Group 1575" transform="translate(0 0)">
            <path id="Path_3133" data-name="Path 3133" d="M241.833,205.983c3.463.931,10.837,4.939,13.93,1.946,2.056-1.992-4.271-7.24-5.9-8.688-8.852-7.871-8.974-8.335-20.807-11.443-1.834-.481-4.82-1.735-7.622-2.268-4.94-.941-12.594,1.765-8,6.764a48.033,48.033,0,0,0,15.208,10.64C231.057,203.914,240.021,205.5,241.833,205.983Z" transform="translate(-211.999 -185.31)" fill="#42d126" fill-rule="evenodd"/>
            <path id="Path_3134" data-name="Path 3134" d="M241.438,192.178c-2.9-1.906-5.671-2.7-12.291-4.442-1.833-.482-5.337-1.743-8.138-2.277a11.333,11.333,0,0,0-7.312,1.2c-5.042,2.964,2.3,8.982,6.219,10.447-3.666-2.743-6.537-5.8-2.193-9.129,1.612-1.236,5.932-.588,8.565-.087,2.8.534,5.669,1.562,7.5,2.043C237.1,190.8,239.5,191.478,241.438,192.178Z" transform="translate(-211.988 -185.289)" fill="#31a31a" fill-rule="evenodd"/>
            <path id="Path_3135" data-name="Path 3135" d="M249.313,212.238c3.464.931,11.44,5.548,14.533,2.554,2.056-1.991-4.272-7.239-5.9-8.688-.974-.866-1.844-1.645-2.636-2.351,2.766,2.729,6.867,7.283,5.242,8.737-1.793,1.605-7.3-1.111-10.762-2.043-5.25-1.411-10.848-.8-16.09-2.256C238.63,211.2,244.21,210.866,249.313,212.238Z" transform="translate(-220.082 -192.174)" fill="#68e64e" fill-rule="evenodd"/>
            <path id="Path_3136" data-name="Path 3136" d="M243.464,201.006c2.371.637,7.829,3.8,9.945,1.748,1.407-1.362-2.923-4.954-4.038-5.945-.667-.593-1.262-1.126-1.8-1.609,1.893,1.868,4.7,4.985,3.587,5.979-1.227,1.1-4.995-.76-7.364-1.4-.8-.215-1.626-.246-2.515-.409-2.2-.4-5.406-1.828-6.69-3.646a7.072,7.072,0,0,0-1.641-1.519c-1.382-1.116-4.3-1.694-7.027-3.208,2.886,3.045,5.13,2.439,6.937,4.029a11.416,11.416,0,0,1,1.406,1.922c1.284,1.819,4.49,3.242,6.69,3.646C241.839,200.759,242.665,200.791,243.464,201.006Z" transform="translate(-217.181 -187.418)" fill="#68e64e" fill-rule="evenodd"/>
          </g>
          <g id="Group_1576" data-name="Group 1576" transform="translate(1.649 10.077)">
            <path id="Path_3137" data-name="Path 3137" d="M220.859,202.6c3.022,1.314,5.148,3.124,4.749,4.042s-3.172.6-6.194-.719-5.148-3.124-4.749-4.042S217.837,201.284,220.859,202.6Z" transform="translate(-214.617 -201.357)" fill="#42d126" fill-rule="evenodd"/>
            <path id="Path_3138" data-name="Path 3138" d="M220.86,202.6c.322.14.634.286.933.436-2.733-1.093-5.059-1.452-5.349-.788-.314.721,1.883,2.371,4.9,3.685a20.7,20.7,0,0,0,3.466,1.184,11.218,11.218,0,0,1-5.4-1.194c-3.022-1.314-5.148-3.124-4.749-4.042S217.837,201.285,220.86,202.6Z" transform="translate(-214.617 -201.358)" fill="#31a31a" fill-rule="evenodd"/>
            <path id="Path_3139" data-name="Path 3139" d="M223.7,204.723c1.4.959,2.186,1.918,1.93,2.509-.4.918-3.172.6-6.194-.719-2.567-1.117-4.488-2.591-4.763-3.572a17.242,17.242,0,0,0,3.94,2.281c3.021,1.314,5.738,1.766,6.067,1.008C224.831,205.882,224.449,205.337,223.7,204.723Z" transform="translate(-214.638 -201.948)" fill="#68e64e" fill-rule="evenodd"/>
          </g>
        </g>
      </g>
    </g>
  </g>
</svg>
