<?xml version="1.0" encoding="utf-8"?>
<!-- Generator: Adobe Illustrator 25.2.1, SVG Export Plug-In . SVG Version: 6.00 Build 0)  -->
<svg version="1.1" id="Layer_1" xmlns="http://www.w3.org/2000/svg" xmlns:xlink="http://www.w3.org/1999/xlink" x="0px" y="0px"
	 viewBox="0 0 1104.6 199" style="enable-background:new 0 0 1104.6 199;" xml:space="preserve">
<style type="text/css">
	.st0{filter:url(#tutup);}
	.st1{fill:#FFFFFF;}
	.st2{clip-path:url(#SVGID_2_);}
	.st3{fill:#0B8D45;}
	.st4{fill:#24B24C;}
	.st5{opacity:0.2;}
	.st6{fill:#FBCC04;}
	.st7{clip-path:url(#SVGID_4_);}
	.st8{enable-background:new    ;}
</style>
<filter  filterUnits="userSpaceOnUse" height="61" id="tutup" width="74" x="196.029" y="36">
	<feOffset  dy="9" input="SourceAlpha"></feOffset>
	<feGaussianBlur  result="blur" stdDeviation="8"></feGaussianBlur>
	<feFlood  flood-opacity="0.161"></feFlood>
	<feComposite  in2="blur" operator="in"></feComposite>
	<feComposite  in="SourceGraphic" operator="over"></feComposite>
</filter>
<g id="potion-banner" transform="translate(-6723.971 -1254)">
	<g id="Group_2449">
		<g id="newPotion" transform="translate(6339 826)">
			<g transform="matrix(1, 0, 0, 1, 384.97, 428)" class="st0">
				<path id="tutup-2_1_" class="st1" d="M226.5,51h13c3.6,0,6.5,2.9,6.5,6.5l0,0c0,3.6-2.9,6.5-6.5,6.5h-13c-3.6,0-6.5-2.9-6.5-6.5
					l0,0C220,53.9,222.9,51,226.5,51z"/>
			</g>
			<path id="Subtraction_18" class="st1" d="M618,601c-6.7,0-13.3-1.3-19.5-3.9c-5.9-2.5-11.3-6.1-15.9-10.7
				c-4.6-4.6-8.2-10-10.7-15.9c-2.6-6.2-3.9-12.8-3.9-19.5c0-5.4,0.9-10.8,2.6-16c1.7-5,4.1-9.7,7.3-13.9c3.1-4.2,6.8-7.8,11.1-10.9
				c4.3-3.1,9-5.4,14-7V502c-4.5-0.3-8-4-8-8.5c0-4.1,2.9-7.7,7-8.4c0,0.1,0,0.2,0,0.4c0,5.2,4.3,9.5,9.5,9.5h13
				c5.2,0,9.5-4.3,9.5-9.5c0-0.1,0-0.2,0-0.4c4.1,0.7,7,4.2,7,8.4c0,4.5-3.5,8.2-8,8.5v1.3c5,1.6,9.7,3.9,14,7
				c4.2,3,8,6.7,11.1,10.9c3.1,4.2,5.6,8.9,7.3,13.9c1.7,5.2,2.6,10.6,2.6,16c0,6.7-1.3,13.3-3.9,19.5c-2.5,5.9-6.1,11.3-10.7,15.9
				c-4.6,4.6-10,8.2-15.9,10.7C631.3,599.7,624.7,601,618,601z"/>
			<g id="air" transform="translate(583 516)">
				<g>
					<defs>
						<circle id="SVGID_1_" cx="35" cy="35" r="35"/>
					</defs>
					<clipPath id="SVGID_2_">
						<use xlink:href="#SVGID_1_"  style="overflow:visible;"/>
					</clipPath>
					<g id="Front" transform="translate(-361 -1916)" class="st2">
						<g id="Group_106" transform="translate(-73)">
							<path id="Union_2" class="st3" d="M433.7,2020v-64.8c0,0,8.2,14.6,20.6,11.6s19.3-12.3,31.4-15.9s21.9,4.3,21.9,4.3v64.8
								H433.7z M359.7,2020v-64.8c0,0,12.2,16.1,24.6,13.1s18-12.6,30.2-16.2s19.2,3.1,19.2,3.1v64.8L359.7,2020z"/>
						</g>
					</g>
				</g>
				<g id="tree" transform="translate(-580 -514)">
					<path id="Path_90" class="st3" d="M631.1,530c0,0-1.1,7.9-4.7,10.7s-11.6,2.6-11.6,2.6s0.3-6.3,3.9-9.1S631.1,530,631.1,530z"
						/>
					<path id="Union_6" class="st3" d="M614.8,563h-3c1.1-2.9,1.9-6,2.2-9.1c0.6-5,0.6-10.9,0.6-10.9h1.6c0,0,0,5.9,0.6,10.9
						c0.4,3.1,1.1,6.2,2.2,9.1H614.8z"/>
					<path id="Path_89" class="st4" d="M599.9,530c0,0,1.1,7.9,4.7,10.7s11.6,2.6,11.6,2.6s-0.3-6.3-3.9-9.1S599.9,530,599.9,530z"
						/>
				</g>
				<g id="tree_yellow" transform="translate(-580 -514)" class="st5">
					<path id="Union_7" class="st6" d="M614.8,563h-3c1.1-2.9,1.9-6,2.2-9.1c0.5-4.4,0.6-9.4,0.6-10.6c-2.5-0.1-7.4-0.6-10-2.6
						c-3.6-2.8-4.7-10.7-4.7-10.7s8.8,1.4,12.4,4.2c1.6,1.4,2.7,3.3,3.2,5.4c0.5-2.1,1.6-4,3.2-5.4c3.6-2.8,12.4-4.2,12.4-4.2
						s-1.1,7.9-4.7,10.7c-2.7,2.1-7.8,2.5-10.2,2.6c0,1.2,0.1,6.2,0.6,10.6c0.4,3.1,1.1,6.2,2.2,9.1H614.8z"/>
				</g>
				<g>
					<defs>
						<circle id="SVGID_3_" cx="35" cy="35" r="35"/>
					</defs>
					<clipPath id="SVGID_4_">
						<use xlink:href="#SVGID_3_"  style="overflow:visible;"/>
					</clipPath>
					<g id="Back" transform="translate(-361 -1916)" class="st7">
						<g id="Group_107" transform="translate(356.724 1945.943)">
							<path id="Union_1" class="st4" d="M74,74.9H0v-66c6.6-3.5,14.3-4.3,21.4-2.1c12.1,3.7,10.8,8.7,23.2,11.7S74,8.8,74,8.8
								c6.4-4,14.2-5,21.5-2.8c12.1,3.7,19,11.2,31.4,14.3S148,8.8,148,8.8v66L74,74.9z"/>
						</g>
					</g>
				</g>
			</g>
		</g>
		<g id="Group_2448" transform="translate(0 2)">
			<g class="st8">
				<path class="st1" d="M7143.6,1325.6c0,21.8-16.4,35.4-42.6,35.4h-19.7v27h-22.7v-98h42.4
					C7127.2,1290,7143.6,1303.6,7143.6,1325.6z M7120.6,1325.6c0-10.8-7-17.1-20.9-17.1h-18.5v34h18.5
					C7113.6,1342.5,7120.6,1336.2,7120.6,1325.6z"/>
				<path class="st1" d="M7154.9,1339c0-29.1,22.7-50.7,53.6-50.7c30.8,0,53.6,21.4,53.6,50.7s-22.8,50.7-53.6,50.7
					C7177.6,1389.7,7154.9,1368.1,7154.9,1339z M7239.2,1339c0-18.6-13.2-31.4-30.7-31.4s-30.7,12.7-30.7,31.4s13.2,31.4,30.7,31.4
					S7239.2,1357.6,7239.2,1339z"/>
				<path class="st1" d="M7298.2,1308.5h-31.4V1290h85.4v18.5h-31.4v79.5h-22.7V1308.5z"/>
				<path class="st1" d="M7364.4,1290h22.7v98h-22.7V1290z"/>
				<path class="st1" d="M7404.1,1339c0-29.1,22.7-50.7,53.6-50.7c30.8,0,53.6,21.4,53.6,50.7s-22.8,50.7-53.6,50.7
					C7426.8,1389.7,7404.1,1368.1,7404.1,1339z M7488.4,1339c0-18.6-13.2-31.4-30.7-31.4s-30.7,12.7-30.7,31.4s13.2,31.4,30.7,31.4
					S7488.4,1357.6,7488.4,1339z"/>
				<path class="st1" d="M7618.3,1290v98h-18.6l-48.9-59.5v59.5h-22.4v-98h18.8l48.7,59.5V1290H7618.3z"/>
			</g>
			<g class="st8">
				<path class="st1" d="M7077,1418.8c0,2.9-1,5.1-3,6.7s-4.8,2.3-8.5,2.3h-3.4v11.2h-3.3v-28.6h7.4
					C7073.4,1410.4,7077,1413.2,7077,1418.8z M7062.2,1424.9h3c2.9,0,5.1-0.5,6.4-1.4c1.3-1,2-2.5,2-4.6c0-1.9-0.6-3.3-1.9-4.2
					c-1.2-0.9-3.2-1.4-5.8-1.4h-3.7V1424.9z"/>
				<path class="st1" d="M7099.1,1439.4c-3.2,0-5.7-1-7.5-2.9c-1.8-1.9-2.7-4.6-2.7-8c0-3.5,0.8-6.2,2.5-8.2s4-3,6.8-3
					c2.7,0,4.8,0.9,6.4,2.6s2.3,4.1,2.3,7v2.1h-14.7c0.1,2.5,0.7,4.4,1.9,5.7c1.2,1.3,2.9,2,5.1,2c2.3,0,4.6-0.5,6.8-1.4v2.9
					c-1.1,0.5-2.2,0.8-3.3,1.1C7101.8,1439.3,7100.5,1439.4,7099.1,1439.4z M7098.2,1419.9c-1.7,0-3.1,0.6-4.1,1.7
					c-1,1.1-1.6,2.7-1.8,4.6h11.2c0-2-0.5-3.6-1.4-4.7C7101.2,1420.5,7099.9,1419.9,7098.2,1419.9z"/>
				<path class="st1" d="M7129.9,1417.2c1,0,1.8,0.1,2.6,0.2l-0.4,3c-0.9-0.2-1.7-0.3-2.3-0.3c-1.7,0-3.2,0.7-4.4,2.1
					s-1.8,3.2-1.8,5.3v11.5h-3.2v-21.4h2.7l0.4,4h0.2c0.8-1.4,1.8-2.5,2.9-3.2C7127.3,1417.6,7128.5,1417.2,7129.9,1417.2z"/>
				<path class="st1" d="M7153.7,1420.1h-5.4v18.9h-3.2v-18.9h-3.8v-1.5l3.8-1.2v-1.2c0-5.3,2.3-7.9,6.9-7.9c1.1,0,2.5,0.2,4,0.7
					l-0.8,2.6c-1.2-0.4-2.3-0.6-3.2-0.6c-1.2,0-2.1,0.4-2.7,1.2s-0.9,2.1-0.9,3.9v1.4h5.4V1420.1z"/>
				<path class="st1" d="M7174.2,1439.4c-3.2,0-5.7-1-7.5-2.9c-1.8-1.9-2.7-4.6-2.7-8c0-3.5,0.8-6.2,2.5-8.2s4-3,6.8-3
					c2.7,0,4.8,0.9,6.4,2.6s2.3,4.1,2.3,7v2.1h-14.7c0.1,2.5,0.7,4.4,1.9,5.7c1.2,1.3,2.9,2,5.1,2c2.3,0,4.6-0.5,6.8-1.4v2.9
					c-1.1,0.5-2.2,0.8-3.3,1.1C7176.9,1439.3,7175.7,1439.4,7174.2,1439.4z M7173.3,1419.9c-1.7,0-3.1,0.6-4.1,1.7
					c-1,1.1-1.6,2.7-1.8,4.6h11.2c0-2-0.5-3.6-1.4-4.7C7176.3,1420.5,7175,1419.9,7173.3,1419.9z"/>
				<path class="st1" d="M7203.8,1439.4c-3.1,0-5.5-1-7.2-2.9s-2.5-4.6-2.5-8.1c0-3.6,0.9-6.3,2.6-8.3c1.7-2,4.2-2.9,7.4-2.9
					c1,0,2.1,0.1,3.1,0.3c1,0.2,1.8,0.5,2.4,0.8l-1,2.8c-0.7-0.3-1.5-0.5-2.3-0.7c-0.8-0.2-1.6-0.3-2.2-0.3c-4.3,0-6.5,2.8-6.5,8.3
					c0,2.6,0.5,4.6,1.6,6.1c1.1,1.4,2.6,2.1,4.7,2.1c1.8,0,3.6-0.4,5.5-1.2v2.9C7207.7,1439,7205.9,1439.4,7203.8,1439.4z"/>
				<path class="st1" d="M7228.8,1436.7c0.6,0,1.1,0,1.7-0.1c0.5-0.1,1-0.2,1.3-0.3v2.5c-0.4,0.2-0.9,0.3-1.6,0.4s-1.3,0.2-1.8,0.2
					c-4.1,0-6.2-2.2-6.2-6.5v-12.7h-3.1v-1.6l3.1-1.3l1.4-4.6h1.9v5h6.2v2.5h-6.2v12.6c0,1.3,0.3,2.3,0.9,3
					C7226.9,1436.4,7227.7,1436.7,7228.8,1436.7z"/>
				<path class="st1" d="M7243.3,1411.8c0-0.7,0.2-1.3,0.5-1.6c0.4-0.3,0.8-0.5,1.4-0.5c0.5,0,1,0.2,1.3,0.5
					c0.4,0.4,0.6,0.9,0.6,1.6s-0.2,1.3-0.6,1.6c-0.4,0.4-0.8,0.5-1.3,0.5c-0.5,0-1-0.2-1.4-0.5
					C7243.5,1413.1,7243.3,1412.5,7243.3,1411.8z M7246.8,1439h-3.2v-21.4h3.2V1439z"/>
				<path class="st1" d="M7279.8,1428.3c0,3.5-0.9,6.2-2.6,8.2s-4.2,2.9-7.3,2.9c-1.9,0-3.6-0.4-5.1-1.3s-2.6-2.2-3.4-3.9
					c-0.8-1.7-1.2-3.6-1.2-5.9c0-3.5,0.9-6.2,2.6-8.2c1.7-1.9,4.2-2.9,7.3-2.9c3,0,5.4,1,7.1,3
					C7278.9,1422.2,7279.8,1424.9,7279.8,1428.3z M7263.5,1428.3c0,2.7,0.5,4.8,1.6,6.2s2.7,2.1,4.8,2.1c2.1,0,3.7-0.7,4.8-2.1
					c1.1-1.4,1.7-3.5,1.7-6.3c0-2.7-0.6-4.8-1.7-6.2c-1.1-1.4-2.7-2.1-4.9-2.1c-2.1,0-3.7,0.7-4.8,2.1
					C7264,1423.4,7263.5,1425.5,7263.5,1428.3z"/>
				<path class="st1" d="M7307.7,1439v-13.8c0-1.7-0.4-3-1.2-3.9s-2-1.3-3.7-1.3c-2.2,0-3.9,0.6-4.9,1.8s-1.6,3.2-1.6,6v11.2h-3.2
					v-21.4h2.6l0.5,2.9h0.2c0.7-1.1,1.6-1.9,2.8-2.5s2.5-0.9,4-0.9c2.6,0,4.5,0.6,5.8,1.9s2,3.2,2,6v14H7307.7z"/>
				<path class="st1" d="M7361.7,1428.3c0,3.5-0.9,6.2-2.6,8.2s-4.2,2.9-7.3,2.9c-1.9,0-3.6-0.4-5.1-1.3s-2.6-2.2-3.4-3.9
					s-1.2-3.6-1.2-5.9c0-3.5,0.9-6.2,2.6-8.2s4.2-2.9,7.3-2.9c3,0,5.4,1,7.1,3S7361.7,1424.9,7361.7,1428.3z M7345.4,1428.3
					c0,2.7,0.5,4.8,1.6,6.2s2.7,2.1,4.8,2.1s3.7-0.7,4.8-2.1s1.7-3.5,1.7-6.3c0-2.7-0.5-4.8-1.7-6.2s-2.7-2.1-4.9-2.1
					c-2.1,0-3.7,0.7-4.8,2.1S7345.4,1425.5,7345.4,1428.3z"/>
				<path class="st1" d="M7384.6,1420.1h-5.4v18.9h-3.2v-18.9h-3.8v-1.5l3.8-1.2v-1.2c0-5.3,2.3-7.9,6.9-7.9c1.1,0,2.5,0.2,4,0.7
					l-0.8,2.6c-1.2-0.4-2.3-0.6-3.2-0.6c-1.2,0-2.1,0.4-2.7,1.2s-0.9,2.1-0.9,3.9v1.4h5.4V1420.1z"/>
				<path class="st1" d="M7426.8,1413c-3.1,0-5.6,1-7.4,3.1s-2.7,5-2.7,8.6c0,3.7,0.9,6.6,2.6,8.7s4.2,3.1,7.5,3.1
					c2,0,4.3-0.4,6.8-1.1v2.9c-2,0.7-4.4,1.1-7.3,1.1c-4.2,0-7.5-1.3-9.7-3.8s-3.4-6.2-3.4-10.9c0-2.9,0.5-5.5,1.7-7.7
					s2.7-3.9,4.8-5.1s4.5-1.8,7.3-1.8c3,0,5.6,0.5,7.9,1.6l-1.4,2.9C7431.1,1413.5,7429,1413,7426.8,1413z"/>
				<path class="st1" d="M7456.7,1417.2c1,0,1.8,0.1,2.6,0.2l-0.4,3c-0.9-0.2-1.7-0.3-2.3-0.3c-1.7,0-3.2,0.7-4.4,2.1
					s-1.8,3.2-1.8,5.3v11.5h-3.2v-21.4h2.7l0.4,4h0.2c0.8-1.4,1.8-2.5,2.9-3.2C7454.1,1417.6,7455.4,1417.2,7456.7,1417.2z"/>
				<path class="st1" d="M7479.9,1439.4c-3.2,0-5.7-1-7.5-2.9s-2.7-4.6-2.7-8c0-3.5,0.8-6.2,2.5-8.2s4-3,6.8-3
					c2.7,0,4.8,0.9,6.4,2.6s2.3,4.1,2.3,7v2.1H7473c0.1,2.5,0.7,4.4,1.9,5.7s2.9,2,5.1,2c2.3,0,4.6-0.5,6.8-1.4v2.9
					c-1.1,0.5-2.2,0.8-3.3,1.1S7481.4,1439.4,7479.9,1439.4z M7479,1419.9c-1.7,0-3.1,0.6-4.1,1.7s-1.6,2.7-1.8,4.6h11.2
					c0-2-0.5-3.6-1.4-4.7S7480.7,1419.9,7479,1419.9z"/>
				<path class="st1" d="M7514.1,1439l-0.6-3h-0.2c-1.1,1.3-2.1,2.2-3.2,2.7c-1.1,0.5-2.4,0.7-4,0.7c-2.1,0-3.8-0.5-5-1.6
					c-1.2-1.1-1.8-2.6-1.8-4.7c0-4.3,3.5-6.6,10.4-6.8l3.6-0.1v-1.3c0-1.7-0.4-2.9-1.1-3.7s-1.9-1.2-3.5-1.2c-1.8,0-3.8,0.5-6.1,1.6
					l-1-2.5c1.1-0.6,2.2-1,3.5-1.3c1.3-0.3,2.5-0.5,3.8-0.5c2.6,0,4.4,0.6,5.7,1.7s1.8,2.9,1.8,5.4v14.6H7514.1z M7506.7,1436.7
					c2,0,3.6-0.6,4.8-1.7s1.7-2.7,1.7-4.6v-1.9l-3.2,0.1c-2.6,0.1-4.4,0.5-5.6,1.2c-1.1,0.7-1.7,1.8-1.7,3.3c0,1.2,0.4,2.1,1.1,2.7
					C7504.5,1436.4,7505.5,1436.7,7506.7,1436.7z"/>
				<path class="st1" d="M7537.7,1436.7c0.6,0,1.1,0,1.7-0.1c0.5-0.1,1-0.2,1.3-0.3v2.5c-0.4,0.2-0.9,0.3-1.6,0.4s-1.3,0.2-1.8,0.2
					c-4.1,0-6.2-2.2-6.2-6.5v-12.7h-3.1v-1.6l3.1-1.3l1.4-4.6h1.9v5h6.2v2.5h-6.2v12.6c0,1.3,0.3,2.3,0.9,3
					C7535.8,1436.4,7536.6,1436.7,7537.7,1436.7z"/>
				<path class="st1" d="M7552.2,1411.8c0-0.7,0.2-1.3,0.5-1.6s0.8-0.5,1.4-0.5c0.5,0,1,0.2,1.3,0.5s0.6,0.9,0.6,1.6
					s-0.2,1.3-0.6,1.6s-0.8,0.5-1.3,0.5c-0.5,0-1-0.2-1.4-0.5S7552.2,1412.5,7552.2,1411.8z M7555.7,1439h-3.2v-21.4h3.2V1439z"/>
				<path class="st1" d="M7588.7,1428.3c0,3.5-0.9,6.2-2.6,8.2s-4.2,2.9-7.3,2.9c-1.9,0-3.6-0.4-5.1-1.3s-2.6-2.2-3.4-3.9
					c-0.8-1.7-1.2-3.6-1.2-5.9c0-3.5,0.9-6.2,2.6-8.2c1.7-1.9,4.2-2.9,7.3-2.9c3,0,5.4,1,7.1,3
					C7587.8,1422.2,7588.7,1424.9,7588.7,1428.3z M7572.4,1428.3c0,2.7,0.5,4.8,1.6,6.2s2.7,2.1,4.8,2.1c2.1,0,3.7-0.7,4.8-2.1
					c1.1-1.4,1.7-3.5,1.7-6.3c0-2.7-0.6-4.8-1.7-6.2c-1.1-1.4-2.7-2.1-4.9-2.1c-2.1,0-3.7,0.7-4.8,2.1
					C7572.9,1423.4,7572.4,1425.5,7572.4,1428.3z"/>
				<path class="st1" d="M7616.6,1439v-13.8c0-1.7-0.4-3-1.2-3.9s-2-1.3-3.7-1.3c-2.2,0-3.9,0.6-4.9,1.8s-1.6,3.2-1.6,6v11.2h-3.2
					v-21.4h2.6l0.5,2.9h0.2c0.7-1.1,1.6-1.9,2.8-2.5s2.5-0.9,4-0.9c2.6,0,4.5,0.6,5.8,1.9s2,3.2,2,6v14H7616.6z"/>
			</g>
		</g>
	</g>
	<path id="Rectangle_1035" class="st1" d="M6806.3,1259.7l17,17c3.1,3.1,3.1,8.2,0,11.3l-17,17c-3.1,3.1-8.2,3.1-11.3,0l-17-17
		c-3.1-3.1-3.1-8.2,0-11.3l17-17C6798.1,1256.5,6803.2,1256.5,6806.3,1259.7z"/>
	<path id="Rectangle_1036" class="st1" d="M6746.6,1337.7l5.7,5.7c3.1,3.1,3.1,8.2,0,11.3l-5.7,5.7c-3.1,3.1-8.2,3.1-11.3,0
		l-5.7-5.7c-3.1-3.1-3.1-8.2,0-11.3l5.7-5.7C6738.4,1334.6,6743.5,1334.6,6746.6,1337.7z"/>
	<path id="Rectangle_1037" class="st1" d="M7755.2,1402.1l17,17c3.1,3.1,3.1,8.2,0,11.3l-17,17c-3.1,3.1-8.2,3.1-11.3,0l-17-17
		c-3.1-3.1-3.1-8.2,0-11.3l17-17C7747,1399,7752,1399,7755.2,1402.1z"/>
	<path id="Rectangle_1038" class="st1" d="M7817.2,1359.2l5.7,5.7c3.1,3.1,3.1,8.2,0,11.3l-5.7,5.7c-3.1,3.1-8.2,3.1-11.3,0
		l-5.7-5.7c-3.1-3.1-3.1-8.2,0-11.3l5.7-5.7C7809,1356,7814.1,1356,7817.2,1359.2z"/>
	<path id="Rectangle_1039" class="st1" d="M7726.9,1259.7l14.1,14.1c3.1,3.1,3.1,8.2,0,11.3l-14.1,14.1c-3.1,3.1-8.2,3.1-11.3,0
		l-14.1-14.1c-3.1-3.1-3.1-8.2,0-11.3l14.1-14.1C7718.7,1256.5,7723.8,1256.5,7726.9,1259.7z"/>
	<path id="Rectangle_1040" class="st1" d="M6834.6,1424.7l5.7,5.7c3.1,3.1,3.1,8.2,0,11.3l-5.7,5.7c-3.1,3.1-8.2,3.1-11.3,0
		l-5.7-5.7c-3.1-3.1-3.1-8.2,0-11.3l5.7-5.7C6826.4,1421.6,6831.5,1421.6,6834.6,1424.7z"/>
</g>
</svg>
