<svg xmlns="http://www.w3.org/2000/svg" width="316.891" height="251" viewBox="0 0 316.891 251">
  <g id="potion-standard" transform="translate(-6375.055 -640)">
    <path id="Path_5000" data-name="Path 5000" d="M159.9-35.975C185.181-16.04,195.953,26.411,201.67,74.49c5.5,48.314,5.936,102.491-19.347,139.312-25.283,37.056-76.068,56.757-121.576,51.128-45.509-5.863-85.521-36.822-100.031-73.643-14.51-37.056-3.3-79.741,5.276-113.279C-25.214,44.47-18.839,20.078-4.549.143c14.51-19.7,37.374-35.414,68.373-44.327C95.043-53.33,134.835-55.676,159.9-35.975Z" transform="translate(6640.934 686.283) rotate(90)" fill="#24b24c"/>
    <g id="Group_2447" data-name="Group 2447" transform="translate(6300.822 615.72)">
      <g id="Group_1945" data-name="Group 1945" transform="translate(174.507 56.408)">
        <g id="Group_1939" data-name="Group 1939" transform="translate(0 1.662)" opacity="0.1" style="mix-blend-mode: multiply;isolation: isolate">
          <path id="Path_4039" data-name="Path 4039" d="M160.546,113.875V126.7l38.875,22.446L238.3,126.7V113.875L199.421,91.429Z" transform="translate(-160.546 -91.429)"/>
          <path id="Path_4040" data-name="Path 4040" d="M199.421,136.321l-38.875-22.446,38.875-22.446L238.3,113.875Z" transform="translate(-160.546 -91.429)"/>
          <path id="Path_4041" data-name="Path 4041" d="M256.55,150.167c4.048-2.438,8.151-4.782,12.225-7.176,4.109-2.331,8.191-4.713,12.326-7-4.048,2.439-8.151,4.782-12.225,7.176C264.766,145.5,260.685,147.88,256.55,150.167Z" transform="translate(-203.352 -111.298)"/>
          <path id="Path_4042" data-name="Path 4042" d="M237.724,160.246c5.787-3.442,11.629-6.789,17.441-10.188,5.848-3.335,11.668-6.721,17.542-10.011-5.787,3.442-11.628,6.789-17.441,10.187C249.418,153.569,243.6,156.954,237.724,160.246Z" transform="translate(-194.958 -113.106)"/>
          <path id="Path_4043" data-name="Path 4043" d="M230.7,171.962c4.493-2.695,9.041-5.3,13.56-7.946,4.555-2.588,9.08-5.227,13.661-7.771-4.493,2.7-9.041,5.3-13.56,7.946C239.807,166.779,235.281,169.418,230.7,171.962Z" transform="translate(-191.826 -120.329)"/>
          <path id="Path_4044" data-name="Path 4044" d="M250.493,164.271c4.608-2.761,9.27-5.428,13.9-8.145,4.669-2.655,9.309-5.359,14-7.969-4.608,2.761-9.27,5.428-13.9,8.145C259.828,158.956,255.188,161.66,250.493,164.271Z" transform="translate(-200.651 -116.722)"/>
          <path id="Path_4045" data-name="Path 4045" d="M230.7,177.239c5.51-3.282,11.075-6.469,16.61-9.708,5.572-3.176,11.114-6.4,16.711-9.532-5.51,3.283-11.074,6.47-16.61,9.708C241.841,170.882,236.3,174.107,230.7,177.239Z" transform="translate(-191.826 -121.111)"/>
          <path id="Path_4046" data-name="Path 4046" d="M179.4,119.114l-1.863-1.074L208,100.451l1.888,1.089Z" transform="translate(-168.122 -95.451)"/>
          <path id="Path_4047" data-name="Path 4047" d="M186.151,123.068l-1.863-1.074L214.75,104.4l1.888,1.089Z" transform="translate(-171.132 -97.214)"/>
          <path id="Path_4048" data-name="Path 4048" d="M192.9,127.021l-1.863-1.074L221.5,108.359l1.888,1.089Z" transform="translate(-174.143 -98.977)"/>
          <path id="Path_4049" data-name="Path 4049" d="M199.655,130.975l-1.863-1.074,30.461-17.588,1.888,1.089Z" transform="translate(-177.153 -100.74)"/>
          <path id="Path_4050" data-name="Path 4050" d="M206.407,134.929l-1.863-1.074,30.462-17.589,1.888,1.089Z" transform="translate(-180.164 -102.503)"/>
          <path id="Path_4051" data-name="Path 4051" d="M182.894,152.814c4.458,2.474,8.863,5.043,13.3,7.56,4.4,2.58,8.823,5.11,13.195,7.736-4.459-2.474-8.863-5.042-13.3-7.56C191.692,157.969,187.266,155.439,182.894,152.814Z" transform="translate(-170.51 -118.799)"/>
          <path id="Path_4052" data-name="Path 4052" d="M160.546,143.829c2.918,1.584,5.781,3.263,8.674,4.891,2.856,1.691,5.741,3.331,8.572,5.066-2.918-1.584-5.781-3.263-8.673-4.891C166.262,147.2,163.377,145.564,160.546,143.829Z" transform="translate(-160.546 -114.793)"/>
          <path id="Path_4053" data-name="Path 4053" d="M160.546,147.748c6.523,3.666,12.991,7.426,19.488,11.135,6.461,3.772,12.952,7.494,19.387,11.311-6.523-3.665-12.991-7.425-19.488-11.136C173.472,155.286,166.982,151.564,160.546,147.748Z" transform="translate(-160.546 -116.54)"/>
          <path id="Path_4054" data-name="Path 4054" d="M160.546,151.666c5.127,2.86,10.2,5.814,15.3,8.718,5.065,2.966,10.16,5.882,15.2,8.893-5.127-2.859-10.2-5.814-15.3-8.718C170.68,157.593,165.586,154.677,160.546,151.666Z" transform="translate(-160.546 -118.287)"/>
          <path id="Path_4055" data-name="Path 4055" d="M160.546,135.991c6.523,3.666,12.991,7.426,19.488,11.136,6.461,3.772,12.952,7.494,19.387,11.311-6.523-3.666-12.991-7.426-19.488-11.136C173.472,143.529,166.982,139.808,160.546,135.991Z" transform="translate(-160.546 -111.298)"/>
          <path id="Path_4056" data-name="Path 4056" d="M258.579,136.762s9.973-9.621,4.733-22.186c0,0-1.115,5.23-8.463,7.725C254.849,122.3,259.888,130.349,258.579,136.762Z" transform="translate(-202.593 -101.749)"/>
        </g>
        <g id="Group_1944" data-name="Group 1944" transform="translate(0 0)">
          <g id="Group_1943" data-name="Group 1943">
            <path id="Path_4057" data-name="Path 4057" d="M160.546,110.875V123.7l38.875,22.446L238.3,123.7V110.875L199.421,88.429Z" transform="translate(-160.546 -88.429)" fill="#5880b2"/>
            <path id="Path_4058" data-name="Path 4058" d="M199.421,133.321l-38.875-22.446,38.875-22.446L238.3,110.875Z" transform="translate(-160.546 -88.429)" fill="#466799"/>
            <g id="Group_1940" data-name="Group 1940" transform="translate(38.875 24.693)">
              <path id="Path_4059" data-name="Path 4059" d="M256.55,147.167c4.048-2.438,8.151-4.782,12.225-7.176,4.109-2.331,8.191-4.713,12.326-7-4.048,2.439-8.151,4.782-12.225,7.176C264.766,142.5,260.685,144.88,256.55,147.167Z" transform="translate(-242.226 -132.991)" fill="#233e71"/>
              <path id="Path_4060" data-name="Path 4060" d="M237.724,157.246c5.787-3.442,11.629-6.789,17.441-10.188,5.848-3.335,11.668-6.721,17.542-10.011-5.787,3.442-11.628,6.789-17.441,10.187C249.418,150.569,243.6,153.954,237.724,157.246Z" transform="translate(-233.832 -134.799)" fill="#233e71"/>
              <path id="Path_4061" data-name="Path 4061" d="M230.7,168.962c4.493-2.695,9.041-5.3,13.56-7.946,4.555-2.588,9.08-5.227,13.661-7.771-4.493,2.7-9.041,5.3-13.56,7.946C239.807,163.779,235.281,166.418,230.7,168.962Z" transform="translate(-230.701 -142.022)" fill="#233e71"/>
              <path id="Path_4062" data-name="Path 4062" d="M250.493,161.271c4.608-2.761,9.27-5.428,13.9-8.145,4.669-2.655,9.309-5.359,14-7.969-4.608,2.761-9.27,5.428-13.9,8.145C259.828,155.956,255.188,158.66,250.493,161.271Z" transform="translate(-239.526 -138.415)" fill="#233e71"/>
              <path id="Path_4063" data-name="Path 4063" d="M230.7,174.239c5.51-3.282,11.075-6.469,16.61-9.708,5.572-3.176,11.114-6.4,16.711-9.532-5.51,3.283-11.074,6.47-16.61,9.708C241.841,167.882,236.3,171.107,230.7,174.239Z" transform="translate(-230.701 -142.804)" fill="#233e71"/>
            </g>
            <g id="Group_1941" data-name="Group 1941" transform="translate(9.415 5)">
              <path id="Path_4064" data-name="Path 4064" d="M179.4,116.114l-1.863-1.074L208,97.451l1.888,1.089Z" transform="translate(-177.536 -97.451)" fill="#233e71"/>
              <path id="Path_4065" data-name="Path 4065" d="M186.151,120.068l-1.863-1.074L214.75,101.4l1.888,1.089Z" transform="translate(-180.547 -99.214)" fill="#233e71"/>
              <path id="Path_4066" data-name="Path 4066" d="M192.9,124.021l-1.863-1.074L221.5,105.359l1.888,1.089Z" transform="translate(-183.557 -100.977)" fill="#233e71"/>
              <path id="Path_4067" data-name="Path 4067" d="M199.655,127.975l-1.863-1.074,30.461-17.588,1.888,1.089Z" transform="translate(-186.568 -102.74)" fill="#233e71"/>
              <path id="Path_4068" data-name="Path 4068" d="M206.407,131.929l-1.863-1.074,30.462-17.589,1.888,1.089Z" transform="translate(-189.578 -104.503)" fill="#233e71"/>
            </g>
            <g id="Group_1942" data-name="Group 1942" transform="translate(0 24.693)">
              <path id="Path_4069" data-name="Path 4069" d="M182.894,149.814c4.458,2.474,8.863,5.043,13.3,7.56,4.4,2.58,8.823,5.11,13.195,7.736-4.459-2.474-8.863-5.042-13.3-7.56C191.692,154.969,187.266,152.439,182.894,149.814Z" transform="translate(-170.51 -140.492)" fill="#233e71"/>
              <path id="Path_4070" data-name="Path 4070" d="M160.546,140.829c2.918,1.584,5.781,3.263,8.674,4.891,2.856,1.691,5.741,3.331,8.572,5.066-2.918-1.584-5.781-3.263-8.673-4.891C166.262,144.2,163.377,142.564,160.546,140.829Z" transform="translate(-160.546 -136.486)" fill="#233e71"/>
              <path id="Path_4071" data-name="Path 4071" d="M160.546,144.748c6.523,3.666,12.991,7.426,19.488,11.135,6.461,3.772,12.952,7.494,19.387,11.311-6.523-3.665-12.991-7.425-19.488-11.136C173.472,152.286,166.982,148.564,160.546,144.748Z" transform="translate(-160.546 -138.233)" fill="#233e71"/>
              <path id="Path_4072" data-name="Path 4072" d="M160.546,148.666c5.127,2.86,10.2,5.814,15.3,8.718,5.065,2.966,10.16,5.882,15.2,8.893-5.127-2.859-10.2-5.814-15.3-8.718C170.68,154.593,165.586,151.677,160.546,148.666Z" transform="translate(-160.546 -139.98)" fill="#233e71"/>
              <path id="Path_4073" data-name="Path 4073" d="M160.546,132.991c6.523,3.666,12.991,7.426,19.488,11.136,6.461,3.772,12.952,7.494,19.387,11.311-6.523-3.666-12.991-7.426-19.488-11.136C173.472,140.529,166.982,136.808,160.546,132.991Z" transform="translate(-160.546 -132.991)" fill="#233e71"/>
            </g>
            <path id="Path_4074" data-name="Path 4074" d="M258.579,133.762s9.973-9.621,4.733-22.186c0,0-1.115,5.23-8.463,7.725C254.849,119.3,259.888,127.349,258.579,133.762Z" transform="translate(-202.593 -98.749)" fill="#5880b2"/>
          </g>
        </g>
      </g>
      <g id="Group_1970" data-name="Group 1970" transform="translate(129.262 96.526)">
        <g id="Group_1946" data-name="Group 1946" transform="translate(0 1.662)" opacity="0.1" style="mix-blend-mode: multiply;isolation: isolate">
          <path id="Path_4075" data-name="Path 4075" d="M151.42,206.287V201.16l133.418-77.036,88.648,51.185v5.642L240.515,257.73Z" transform="translate(-151.42 -124.125)"/>
          <path id="Path_4076" data-name="Path 4076" d="M151.42,242.346l89.094,50.927L373.486,216.5v5.6L240.515,298.873,151.42,247.43Z" transform="translate(-151.42 -165.311)"/>
          <path id="Path_4077" data-name="Path 4077" d="M181.407,205.73l114.443-66.079,76.04,43.905-114.06,65.858Z" transform="translate(-164.791 -131.047)"/>
          <path id="Path_4078" data-name="Path 4078" d="M355.08,170.313l10.626-6.135,10.626,6.135-10.626,6.135Z" transform="translate(-242.227 -141.984)"/>
          <path id="Path_4079" data-name="Path 4079" d="M443.3,205.3l-2.831,1.645-42.5-24.514,2.862-1.652Z" transform="translate(-261.351 -149.387)"/>
          <path id="Path_4080" data-name="Path 4080" d="M433.575,210.878l-2.832,1.637-42.557-24.537,2.863-1.652Z" transform="translate(-256.988 -151.858)"/>
          <path id="Path_4081" data-name="Path 4081" d="M365.089,175.612v-6.558h1.849v4.319l13.029-2.507.349,1.816Z" transform="translate(-246.69 -144.157)"/>
          <path id="Path_4082" data-name="Path 4082" d="M324.286,188.049l10.626-6.135,10.626,6.135-10.626,6.135Z" transform="translate(-228.497 -149.891)"/>
          <path id="Path_4083" data-name="Path 4083" d="M412.505,223.039l-2.831,1.645-42.5-24.514,2.862-1.652Z" transform="translate(-247.621 -157.294)"/>
          <path id="Path_4084" data-name="Path 4084" d="M402.782,228.613l-2.831,1.637-42.557-24.537,2.863-1.652Z" transform="translate(-243.258 -159.766)"/>
          <path id="Path_4085" data-name="Path 4085" d="M334.3,193.348v-6.558h1.849v4.319l13.029-2.508.349,1.816Z" transform="translate(-232.96 -152.065)"/>
          <path id="Path_4086" data-name="Path 4086" d="M293.492,205.785l10.626-6.135,10.626,6.135-10.626,6.135Z" transform="translate(-214.767 -157.799)"/>
          <path id="Path_4087" data-name="Path 4087" d="M381.712,240.774l-2.831,1.645-42.5-24.514,2.862-1.652Z" transform="translate(-233.891 -165.202)"/>
          <path id="Path_4088" data-name="Path 4088" d="M371.988,246.349l-2.831,1.637L326.6,223.449l2.862-1.652Z" transform="translate(-229.528 -167.674)"/>
          <path id="Path_4089" data-name="Path 4089" d="M303.5,211.083v-6.558h1.849v4.318l13.029-2.507.349,1.816Z" transform="translate(-219.229 -159.973)"/>
          <path id="Path_4090" data-name="Path 4090" d="M262.7,223.52l10.626-6.135,10.626,6.135-10.626,6.135Z" transform="translate(-201.036 -165.707)"/>
          <path id="Path_4091" data-name="Path 4091" d="M350.918,258.51l-2.831,1.645-42.5-24.514,2.862-1.652Z" transform="translate(-220.161 -173.11)"/>
          <path id="Path_4092" data-name="Path 4092" d="M341.194,264.085l-2.832,1.637-42.557-24.537,2.862-1.652Z" transform="translate(-215.798 -175.582)"/>
          <path id="Path_4093" data-name="Path 4093" d="M272.707,228.819V222.26h1.849v4.319l13.029-2.508.349,1.816Z" transform="translate(-205.499 -167.881)"/>
          <path id="Path_4094" data-name="Path 4094" d="M315.226,295.094l-.356.205L287.1,279.29l.38-.217Z" transform="translate(-211.918 -193.212)"/>
          <path id="Path_4095" data-name="Path 4095" d="M296.344,275.828c1.289.094,2.581.153,3.871.146.645-.005,1.291-.022,1.929-.085a4.461,4.461,0,0,0,1.817-.482c.808-.407-.269-.615-.809-.611a10.118,10.118,0,0,0-1.9.148,23.883,23.883,0,0,0-3.714,1,17.6,17.6,0,0,0-1.773.728,5.013,5.013,0,0,0-1.537,1.017c-.191.227-.247.438-.088.62a2.833,2.833,0,0,0,.719.505,5.633,5.633,0,0,0,1.784.534c.626.1,1.264.132,1.912.177.324.024.652.051.984.1a1.81,1.81,0,0,1,1.017.421.787.787,0,0,1,.173.624,2.406,2.406,0,0,1-.136.518,2.093,2.093,0,0,0-.2.829c.041.434.832.463,1.429.491a21.021,21.021,0,0,0,3.816-.279,7.269,7.269,0,0,0,1.8-.477c.141-.053.191-.184.169-.086a.415.415,0,0,0-.085-.071.732.732,0,0,0-.167-.086,1.924,1.924,0,0,0-.858-.064,5.711,5.711,0,0,0-1.776.549,4.171,4.171,0,0,0-1.466,1.085c-.171.232-.259.492-.13.681a1.423,1.423,0,0,0,.678.468,5.866,5.866,0,0,0,1.839.319,21.313,21.313,0,0,1,3.893.252,2.6,2.6,0,0,1,1.621,1.158,3.94,3.94,0,0,1,.458,1.921,1.822,1.822,0,0,0,.818,1.569,4.357,4.357,0,0,0,1.791.6,12.013,12.013,0,0,0,3.845-.185,12.064,12.064,0,0,1-3.859.3,4.5,4.5,0,0,1-1.874-.565,1.863,1.863,0,0,1-.7-.724,2.71,2.71,0,0,1-.254-.971,3.718,3.718,0,0,0-.45-1.8,2.317,2.317,0,0,0-1.47-1.011,21.382,21.382,0,0,0-3.832-.182,6.147,6.147,0,0,1-1.968-.316,1.752,1.752,0,0,1-.877-.632,1,1,0,0,1,.148-1.116,4.518,4.518,0,0,1,1.609-1.219,6.11,6.11,0,0,1,1.909-.6,2.336,2.336,0,0,1,1.056.084,1.176,1.176,0,0,1,.262.135.6.6,0,0,1,.243.274.417.417,0,0,1-.12.445,1.07,1.07,0,0,1-.249.173,7.516,7.516,0,0,1-1.93.531,21.486,21.486,0,0,1-3.9.3,5.7,5.7,0,0,1-1-.105.99.99,0,0,1-.858-.786,2.359,2.359,0,0,1,.23-1.041c.111-.294.177-.583.051-.7a1.528,1.528,0,0,0-.755-.28c-.306-.049-.623-.078-.944-.1-.641-.048-1.294-.088-1.946-.191a6.041,6.041,0,0,1-1.908-.586,3.059,3.059,0,0,1-.847-.618.759.759,0,0,1-.167-.611,1.111,1.111,0,0,1,.268-.519,5.308,5.308,0,0,1,1.675-1.11,17.979,17.979,0,0,1,1.824-.713,24.154,24.154,0,0,1,3.784-.948,10.43,10.43,0,0,1,1.96-.12,3.087,3.087,0,0,1,.993.184.693.693,0,0,1,.242.16.328.328,0,0,1,.078.344.859.859,0,0,1-.4.384,4.664,4.664,0,0,1-1.915.454c-.649.044-1.3.042-1.944.028C298.92,276.057,297.63,275.96,296.344,275.828Z" transform="translate(-214.833 -191.185)"/>
          <path id="Path_4096" data-name="Path 4096" d="M246.1,259.7a1.116,1.116,0,0,0-.216.174l-.576-.294a1.336,1.336,0,0,1,.4-.262c.227-.115.591-.293,1.1-.535l.808-.386a3.624,3.624,0,0,0,.884-.511c.08-.1-.022-.216-.312-.363l-.57-.332-3.609,1.725-.58-.3,7.317-3.5,1.164.593c.465.237.673.449.62.63a.749.749,0,0,1-.35.393,9.665,9.665,0,0,1-.949.5,5.83,5.83,0,0,1-1.2.438,2,2,0,0,1-1,0,.353.353,0,0,1,.137.161.2.2,0,0,1-.05.19,7.753,7.753,0,0,1-2.123,1.241C246.467,259.514,246.172,259.659,246.1,259.7Zm3.041-2.249a1.733,1.733,0,0,0,.518-.088,9.086,9.086,0,0,0,1.064-.453l.054-.025a5.805,5.805,0,0,0,.758-.412c.14-.1.2-.181.184-.25s-.1-.145-.269-.228l-.648-.33-2.778,1.328.605.308a1.191,1.191,0,0,0,.512.151" transform="translate(-192.444 -182.535)"/>
          <path id="Path_4097" data-name="Path 4097" d="M271.252,265.575l-.483.231-1.228-.626-2.862,1.368,1.153.587-.5.24-1.153-.587-2.981,1.425,1.213.618-.49.234-1.793-.914,7.317-3.5Z" transform="translate(-200.782 -186.783)"/>
          <path id="Path_4098" data-name="Path 4098" d="M258.084,255.745c1.554.791,1.465,2.082-.2,2.876l-7.666,3.664a7.444,7.444,0,0,1-5.832.006l-26.842-13.676c-1.553-.792-1.468-2.083.195-2.879l7.666-3.664a7.454,7.454,0,0,1,5.836,0Zm-8.659,6.135,7.666-3.664c1.2-.571,1.255-1.5.142-2.065l-26.842-13.676a5.337,5.337,0,0,0-4.187,0l-7.666,3.664c-1.191.57-1.259,1.5-.142,2.065l26.842,13.676a5.35,5.35,0,0,0,4.186,0" transform="translate(-180.409 -176.449)"/>
          <path id="Path_4099" data-name="Path 4099" d="M233.863,246.975l-6.1,4.116-.559-.285,1.257-.823-1.368-.7-1.687.6-.547-.279,8.416-2.938Zm-6.184,2.1,1.214.618,3.515-2.3-.011-.006-4.718,1.686" transform="translate(-184.163 -178.766)"/>
          <path id="Path_4100" data-name="Path 4100" d="M240,250.909c-.219.123-.492.264-.826.423l-.073.034a9.135,9.135,0,0,1-1.456.586,3.939,3.939,0,0,1-.81.14,2.427,2.427,0,0,1-1.207-.271l-.576-.294-2.865,1.37-.576-.294,7.317-3.5,1.188.606a.966.966,0,0,1,.494.418.316.316,0,0,1-.053.344A2.412,2.412,0,0,1,240,250.909Zm-1.486.166.2-.094a4.559,4.559,0,0,0,1.035-.607q.232-.223-.117-.4l-.641-.326-3.414,1.631.616.314a1.225,1.225,0,0,0,.844.07,8.114,8.114,0,0,0,1.482-.588" transform="translate(-187.176 -179.851)"/>
          <path id="Path_4101" data-name="Path 4101" d="M245.906,253.918c-.216.124-.492.263-.826.423l-.073.035a8.939,8.939,0,0,1-1.456.586,3.72,3.72,0,0,1-.81.14,2.407,2.407,0,0,1-1.2-.269l-.576-.294-2.865,1.37-.58-.3,7.317-3.5,1.188.605a.955.955,0,0,1,.494.418.31.31,0,0,1-.05.345A2.306,2.306,0,0,1,245.906,253.918Zm-1.482.167.2-.093a4.554,4.554,0,0,0,1.035-.608c.151-.15.116-.281-.117-.4l-.641-.326-3.413,1.632.616.313a1.22,1.22,0,0,0,.843.07,8.3,8.3,0,0,0,1.482-.588" transform="translate(-189.809 -181.192)"/>
          <path id="Path_4102" data-name="Path 4102" d="M258.683,260.216c-.239.143-.555.308-.938.491l-3.115,1.488a9.594,9.594,0,0,1-1.445.588,4.089,4.089,0,0,1-.8.144,2.4,2.4,0,0,1-1.2-.269c-.565-.288-.656-.6-.278-.917a6.376,6.376,0,0,1,1.313-.769l3.115-1.489a5.956,5.956,0,0,1,2.043-.669,2.653,2.653,0,0,1,1.358.291c.433.221.577.442.439.67A1.433,1.433,0,0,1,258.683,260.216Zm-4.629,1.686,3.165-1.512a4.877,4.877,0,0,0,1.108-.646c.159-.154.112-.291-.131-.415a1.306,1.306,0,0,0-.872-.085,6.284,6.284,0,0,0-1.35.508l-3.168,1.514a5.673,5.673,0,0,0-1.191.668c-.124.122-.175.218-.15.284a.5.5,0,0,0,.235.2,1.169,1.169,0,0,0,.388.122,1.863,1.863,0,0,0,.575-.063,8.236,8.236,0,0,0,1.391-.57" transform="translate(-195.681 -184.178)"/>
          <path id="Path_4103" data-name="Path 4103" d="M266.51,262.66l-8.42,2.936-.6-.306,6.1-4.118.555.283-5.04,3.353,6.851-2.43Z" transform="translate(-198.714 -185.231)"/>
          <path id="Path_4104" data-name="Path 4104" d="M274.691,269.389l-3.13,1.5a6.025,6.025,0,0,1-1.921.621,2.734,2.734,0,0,1-1.521-.305l-1.031-.525,7.317-3.5,1.052.536q.923.47.366.984A4.707,4.707,0,0,1,274.691,269.389Zm-4.917,1.668a6.938,6.938,0,0,0,1.271-.491l3.134-1.5a2.8,2.8,0,0,0,.981-.639c.119-.17.059-.318-.185-.442l-.511-.261-6.268,3,.476.243a1.548,1.548,0,0,0,1.1.1" transform="translate(-202.994 -187.91)"/>
          <path id="Path_4105" data-name="Path 4105" d="M480.9,159.857l-.066,4.24a4.624,4.624,0,0,1-2.9,2.55v-2.9S480.876,162.029,480.9,159.857Z" transform="translate(-297.002 -140.057)"/>
          <path id="Path_4106" data-name="Path 4106" d="M464.457,166.075l-15.348,8.867-44.333-25.582,15.357-8.876L432.8,147.8s6.334-3.652,12.667,0,0,7.313,0,7.313Z" transform="translate(-264.386 -131.419)"/>
          <path id="Path_4107" data-name="Path 4107" d="M404.777,156.5l44.332,25.582,15.348-8.867v3.83l-15.2,9.043L404.777,160.5Z" transform="translate(-264.386 -138.56)"/>
        </g>
        <g id="Group_1969" data-name="Group 1969" transform="translate(0 0)">
          <g id="Group_1968" data-name="Group 1968">
            <g id="Group_1966" data-name="Group 1966">
              <path id="Path_4108" data-name="Path 4108" d="M151.42,203.287V198.16l133.418-77.036,88.648,51.185v5.642L240.515,254.73Z" transform="translate(-151.42 -121.125)" fill="#e27d5e"/>
              <path id="Path_4109" data-name="Path 4109" d="M151.42,239.346l89.094,50.927L373.486,213.5v5.6L240.515,295.873,151.42,244.43Z" transform="translate(-151.42 -162.311)" fill="#f4a093"/>
              <path id="Path_4110" data-name="Path 4110" d="M181.407,202.73l114.443-66.079,76.04,43.905-114.06,65.858Z" transform="translate(-164.791 -128.047)" fill="#fff"/>
              <g id="Group_1948" data-name="Group 1948" transform="translate(112.853 22.195)">
                <g id="Group_1947" data-name="Group 1947">
                  <path id="Path_4111" data-name="Path 4111" d="M355.08,167.313l10.626-6.135,10.626,6.135-10.626,6.135Z" transform="translate(-355.08 -161.178)" fill="#5880b2"/>
                  <path id="Path_4112" data-name="Path 4112" d="M443.3,202.3l-2.831,1.645-42.5-24.514,2.862-1.652Z" transform="translate(-374.204 -168.581)" fill="#466799"/>
                  <path id="Path_4113" data-name="Path 4113" d="M433.575,207.878l-2.832,1.637-42.557-24.537,2.863-1.652Z" transform="translate(-369.841 -171.053)" fill="#466799"/>
                  <path id="Path_4114" data-name="Path 4114" d="M365.089,172.612v-6.558h1.849v4.319l13.029-2.507.349,1.816Z" transform="translate(-359.542 -163.352)" fill="#233e71"/>
                </g>
              </g>
              <g id="Group_1950" data-name="Group 1950" transform="translate(95.789 32.022)">
                <g id="Group_1949" data-name="Group 1949">
                  <path id="Path_4115" data-name="Path 4115" d="M324.286,185.049l10.626-6.135,10.626,6.135-10.626,6.135Z" transform="translate(-324.286 -178.914)" fill="#5880b2"/>
                  <path id="Path_4116" data-name="Path 4116" d="M412.505,220.039l-2.831,1.645-42.5-24.514,2.862-1.652Z" transform="translate(-343.41 -186.317)" fill="#466799"/>
                  <path id="Path_4117" data-name="Path 4117" d="M402.782,225.613l-2.831,1.637-42.557-24.537,2.863-1.652Z" transform="translate(-339.047 -188.789)" fill="#466799"/>
                  <path id="Path_4118" data-name="Path 4118" d="M334.3,190.348v-6.558h1.849v4.319l13.029-2.508.349,1.816Z" transform="translate(-328.749 -181.088)" fill="#233e71"/>
                </g>
              </g>
              <g id="Group_1952" data-name="Group 1952" transform="translate(78.726 41.85)">
                <g id="Group_1951" data-name="Group 1951">
                  <path id="Path_4119" data-name="Path 4119" d="M293.492,202.785l10.626-6.135,10.626,6.135-10.626,6.135Z" transform="translate(-293.492 -196.649)" fill="#5880b2"/>
                  <path id="Path_4120" data-name="Path 4120" d="M381.712,237.774l-2.831,1.645-42.5-24.514,2.862-1.652Z" transform="translate(-312.617 -204.052)" fill="#466799"/>
                  <path id="Path_4121" data-name="Path 4121" d="M371.988,243.349l-2.831,1.637L326.6,220.449l2.862-1.652Z" transform="translate(-308.254 -206.524)" fill="#466799"/>
                  <path id="Path_4122" data-name="Path 4122" d="M303.5,208.083v-6.558h1.849v4.318l13.029-2.507.349,1.816Z" transform="translate(-297.955 -198.823)" fill="#233e71"/>
                </g>
              </g>
              <g id="Group_1954" data-name="Group 1954" transform="translate(61.662 51.678)">
                <g id="Group_1953" data-name="Group 1953">
                  <path id="Path_4123" data-name="Path 4123" d="M262.7,220.52l10.626-6.135,10.626,6.135-10.626,6.135Z" transform="translate(-262.698 -214.385)" fill="#5880b2"/>
                  <path id="Path_4124" data-name="Path 4124" d="M350.918,255.51l-2.831,1.645-42.5-24.514,2.862-1.652Z" transform="translate(-281.823 -221.788)" fill="#466799"/>
                  <path id="Path_4125" data-name="Path 4125" d="M341.194,261.085l-2.832,1.637-42.557-24.537,2.862-1.652Z" transform="translate(-277.46 -224.26)" fill="#466799"/>
                  <path id="Path_4126" data-name="Path 4126" d="M272.707,225.819V219.26h1.849v4.319l13.029-2.508.349,1.816Z" transform="translate(-267.161 -216.559)" fill="#233e71"/>
                </g>
              </g>
              <path id="Path_4127" data-name="Path 4127" d="M315.226,292.094l-.356.205L287.1,276.29l.38-.217Z" transform="translate(-211.918 -190.212)" fill="#466799"/>
              <path id="Path_4128" data-name="Path 4128" d="M296.344,272.828c1.289.094,2.581.153,3.871.146.645,0,1.291-.022,1.929-.085a4.463,4.463,0,0,0,1.817-.482c.808-.407-.269-.615-.809-.611a10.115,10.115,0,0,0-1.9.148,23.883,23.883,0,0,0-3.714,1,17.608,17.608,0,0,0-1.773.728,5.013,5.013,0,0,0-1.537,1.017c-.191.227-.247.438-.088.62a2.834,2.834,0,0,0,.719.505,5.634,5.634,0,0,0,1.784.534c.626.1,1.264.132,1.912.177.324.024.652.051.984.1a1.81,1.81,0,0,1,1.017.421.787.787,0,0,1,.173.625,2.4,2.4,0,0,1-.136.518,2.093,2.093,0,0,0-.2.829c.041.434.832.463,1.429.492a21.021,21.021,0,0,0,3.816-.279,7.269,7.269,0,0,0,1.8-.477c.141-.053.191-.184.169-.086a.415.415,0,0,0-.085-.072.732.732,0,0,0-.167-.086,1.924,1.924,0,0,0-.858-.064,5.71,5.71,0,0,0-1.776.549,4.171,4.171,0,0,0-1.466,1.085c-.171.232-.259.492-.13.681a1.423,1.423,0,0,0,.678.468,5.867,5.867,0,0,0,1.839.319,21.313,21.313,0,0,1,3.893.252,2.6,2.6,0,0,1,1.621,1.158,3.94,3.94,0,0,1,.458,1.921,1.822,1.822,0,0,0,.818,1.569,4.357,4.357,0,0,0,1.791.6,12.014,12.014,0,0,0,3.845-.185,12.063,12.063,0,0,1-3.859.3,4.5,4.5,0,0,1-1.874-.565,1.863,1.863,0,0,1-.7-.724,2.71,2.71,0,0,1-.254-.971,3.718,3.718,0,0,0-.45-1.8,2.317,2.317,0,0,0-1.47-1.011,21.382,21.382,0,0,0-3.832-.182,6.147,6.147,0,0,1-1.968-.316,1.752,1.752,0,0,1-.877-.632,1,1,0,0,1,.148-1.116,4.519,4.519,0,0,1,1.609-1.219,6.111,6.111,0,0,1,1.909-.6,2.336,2.336,0,0,1,1.056.084,1.177,1.177,0,0,1,.262.135.6.6,0,0,1,.243.274.416.416,0,0,1-.12.445,1.069,1.069,0,0,1-.249.173,7.516,7.516,0,0,1-1.93.531,21.489,21.489,0,0,1-3.9.3,5.7,5.7,0,0,1-1-.105.99.99,0,0,1-.858-.786,2.358,2.358,0,0,1,.23-1.041c.111-.294.177-.583.051-.7a1.529,1.529,0,0,0-.755-.28c-.306-.049-.623-.078-.944-.1-.641-.048-1.294-.088-1.946-.191a6.04,6.04,0,0,1-1.908-.586,3.059,3.059,0,0,1-.847-.618.759.759,0,0,1-.167-.611,1.111,1.111,0,0,1,.268-.519,5.308,5.308,0,0,1,1.675-1.11,17.979,17.979,0,0,1,1.824-.713,24.15,24.15,0,0,1,3.784-.948,10.43,10.43,0,0,1,1.96-.12,3.088,3.088,0,0,1,.993.184.693.693,0,0,1,.242.16.328.328,0,0,1,.078.344.859.859,0,0,1-.4.384,4.664,4.664,0,0,1-1.915.454c-.649.044-1.3.042-1.944.028C298.92,273.057,297.63,272.96,296.344,272.828Z" transform="translate(-214.833 -188.185)" fill="#233e71"/>
              <g id="Group_1965" data-name="Group 1965" transform="translate(36.026 65.027)">
                <g id="Group_1964" data-name="Group 1964" style="isolation: isolate">
                  <g id="Group_1955" data-name="Group 1955" transform="translate(14.957 7.564)">
                    <path id="Path_4129" data-name="Path 4129" d="M246.1,256.7a1.116,1.116,0,0,0-.216.174l-.576-.294a1.336,1.336,0,0,1,.4-.262c.227-.115.591-.293,1.1-.535l.808-.386a3.623,3.623,0,0,0,.884-.511c.08-.1-.022-.216-.312-.364l-.57-.332-3.609,1.725-.58-.3,7.317-3.5,1.164.593c.465.237.673.449.62.63a.749.749,0,0,1-.35.393,9.665,9.665,0,0,1-.949.5,5.832,5.832,0,0,1-1.2.438,2,2,0,0,1-1,0,.353.353,0,0,1,.137.161.2.2,0,0,1-.05.19,7.753,7.753,0,0,1-2.123,1.241C246.467,256.514,246.172,256.659,246.1,256.7Zm3.041-2.249a1.734,1.734,0,0,0,.518-.088,9.086,9.086,0,0,0,1.064-.453l.054-.025a5.8,5.8,0,0,0,.758-.412c.14-.1.2-.181.184-.25s-.1-.145-.269-.228l-.648-.33-2.778,1.328.605.308a1.191,1.191,0,0,0,.512.151" transform="translate(-243.427 -252.126)" fill="#e27d5e"/>
                  </g>
                  <g id="Group_1956" data-name="Group 1956" transform="translate(25.319 12.844)">
                    <path id="Path_4130" data-name="Path 4130" d="M271.252,262.575l-.483.231-1.228-.626-2.862,1.368,1.153.587-.5.24-1.153-.587-2.981,1.425,1.213.618-.49.234-1.793-.914,7.317-3.5Z" transform="translate(-262.127 -261.654)" fill="#e27d5e"/>
                  </g>
                  <g id="Group_1957" data-name="Group 1957">
                    <path id="Path_4131" data-name="Path 4131" d="M258.084,252.745c1.554.791,1.465,2.082-.2,2.876l-7.666,3.664a7.444,7.444,0,0,1-5.832.006l-26.842-13.676c-1.553-.792-1.468-2.084.195-2.879l7.666-3.664a7.454,7.454,0,0,1,5.836,0Zm-8.659,6.135,7.666-3.664c1.2-.571,1.255-1.5.142-2.065l-26.842-13.676a5.337,5.337,0,0,0-4.187,0l-7.666,3.664c-1.191.57-1.259,1.5-.142,2.065l26.842,13.676a5.351,5.351,0,0,0,4.186,0" transform="translate(-216.435 -238.476)" fill="#e27d5e"/>
                  </g>
                  <g id="Group_1958" data-name="Group 1958" transform="translate(4.666 2.88)">
                    <path id="Path_4132" data-name="Path 4132" d="M233.863,243.975l-6.1,4.116-.559-.285,1.257-.823-1.368-.7-1.687.6-.547-.279,8.416-2.938Zm-6.184,2.1,1.214.618,3.515-2.3-.011-.006-4.718,1.686" transform="translate(-224.856 -243.674)" fill="#e27d5e"/>
                  </g>
                  <g id="Group_1959" data-name="Group 1959" transform="translate(8.41 4.228)">
                    <path id="Path_4133" data-name="Path 4133" d="M240,247.909c-.219.123-.492.264-.826.423l-.073.034a9.136,9.136,0,0,1-1.456.586,3.938,3.938,0,0,1-.81.14,2.428,2.428,0,0,1-1.207-.271l-.576-.294-2.865,1.37-.576-.294,7.317-3.5,1.188.606a.966.966,0,0,1,.494.418.316.316,0,0,1-.053.344A2.412,2.412,0,0,1,240,247.909Zm-1.486.166.2-.094a4.558,4.558,0,0,0,1.035-.607q.232-.223-.117-.4l-.641-.326-3.414,1.631.616.314a1.229,1.229,0,0,0,.844.07,8.114,8.114,0,0,0,1.482-.588" transform="translate(-231.613 -246.106)" fill="#e27d5e"/>
                  </g>
                  <g id="Group_1960" data-name="Group 1960" transform="translate(11.682 5.895)">
                    <path id="Path_4134" data-name="Path 4134" d="M245.906,250.918c-.216.124-.492.263-.826.423l-.073.035a8.942,8.942,0,0,1-1.456.586,3.719,3.719,0,0,1-.81.14,2.407,2.407,0,0,1-1.2-.269l-.576-.294-2.865,1.37-.58-.3,7.317-3.5,1.188.605a.955.955,0,0,1,.494.418.31.31,0,0,1-.05.345A2.306,2.306,0,0,1,245.906,250.918Zm-1.482.167.2-.093a4.554,4.554,0,0,0,1.035-.608c.151-.15.116-.281-.117-.4l-.641-.326-3.413,1.632.616.313a1.22,1.22,0,0,0,.843.07,8.3,8.3,0,0,0,1.482-.588" transform="translate(-237.517 -249.115)" fill="#e27d5e"/>
                  </g>
                  <g id="Group_1961" data-name="Group 1961" transform="translate(18.98 9.605)">
                    <path id="Path_4135" data-name="Path 4135" d="M258.683,257.216c-.239.143-.555.308-.938.491l-3.115,1.488a9.591,9.591,0,0,1-1.445.588,4.084,4.084,0,0,1-.8.144,2.4,2.4,0,0,1-1.2-.269c-.565-.288-.656-.6-.278-.917a6.376,6.376,0,0,1,1.313-.769l3.115-1.489a5.956,5.956,0,0,1,2.043-.669,2.653,2.653,0,0,1,1.358.291c.433.221.577.442.439.67A1.433,1.433,0,0,1,258.683,257.216Zm-4.629,1.686,3.165-1.512a4.877,4.877,0,0,0,1.108-.646c.159-.154.112-.291-.131-.415a1.306,1.306,0,0,0-.872-.085,6.285,6.285,0,0,0-1.35.508l-3.168,1.514a5.673,5.673,0,0,0-1.191.668c-.124.122-.175.218-.15.284a.5.5,0,0,0,.235.2,1.17,1.17,0,0,0,.388.122,1.863,1.863,0,0,0,.575-.063,8.236,8.236,0,0,0,1.391-.57" transform="translate(-250.688 -255.81)" fill="#e27d5e"/>
                  </g>
                  <g id="Group_1962" data-name="Group 1962" transform="translate(22.749 10.914)">
                    <path id="Path_4136" data-name="Path 4136" d="M266.51,259.66l-8.42,2.936-.6-.306,6.1-4.118.555.283-5.04,3.353,6.851-2.43Z" transform="translate(-257.489 -258.172)" fill="#e27d5e"/>
                  </g>
                  <g id="Group_1963" data-name="Group 1963" transform="translate(28.068 14.244)">
                    <path id="Path_4137" data-name="Path 4137" d="M274.691,266.389l-3.13,1.5a6.025,6.025,0,0,1-1.921.621,2.734,2.734,0,0,1-1.521-.305l-1.031-.525,7.317-3.5,1.052.536q.923.47.366.984A4.707,4.707,0,0,1,274.691,266.389Zm-4.917,1.668a6.938,6.938,0,0,0,1.271-.491l3.134-1.5a2.8,2.8,0,0,0,.981-.639c.119-.17.059-.318-.185-.442l-.511-.261-6.268,3,.476.243a1.548,1.548,0,0,0,1.1.1" transform="translate(-267.088 -264.182)" fill="#e27d5e"/>
                  </g>
                </g>
              </g>
            </g>
            <g id="Group_1967" data-name="Group 1967" transform="translate(140.391 9.065)">
              <path id="Path_4138" data-name="Path 4138" d="M480.9,156.857l-.066,4.24a4.624,4.624,0,0,1-2.9,2.55v-2.9S480.876,159.029,480.9,156.857Z" transform="translate(-437.393 -146.121)" fill="#5880b2"/>
              <path id="Path_4139" data-name="Path 4139" d="M464.457,163.075l-15.348,8.867-44.333-25.582,15.357-8.876L432.8,144.8s6.334-3.652,12.667,0,0,7.313,0,7.313Z" transform="translate(-404.777 -137.483)" fill="#466799"/>
              <path id="Path_4140" data-name="Path 4140" d="M404.777,153.5l44.332,25.582,15.348-8.867v3.83l-15.2,9.043L404.777,157.5Z" transform="translate(-404.777 -144.625)" fill="#5880b2"/>
            </g>
          </g>
        </g>
      </g>
      <g id="Group_2365" data-name="Group 2365" transform="translate(270.806 65.954)">
        <path id="Path_4869" data-name="Path 4869" d="M414.808,113.656l80.269,46.207,6.113-3.526-80.149-46.392Z" transform="translate(-410.402 -85.568)" fill="#272726" opacity="0.1"/>
        <g id="Group_2364" data-name="Group 2364" transform="translate(0)">
          <g id="Group_2347" data-name="Group 2347">
            <g id="Group_2346" data-name="Group 2346" style="isolation: isolate">
              <g id="Group_2340" data-name="Group 2340" transform="translate(0 4.31)">
                <path id="Path_4870" data-name="Path 4870" d="M406.857,75.626l3.517-1.9,9.833,3.664-3.517,1.9Z" transform="translate(-406.857 -73.731)" fill="#fadfc8"/>
              </g>
              <g id="Group_2341" data-name="Group 2341" transform="translate(20.544 23.294)">
                <path id="Path_4871" data-name="Path 4871" d="M443.931,109.887l3.517-1.9,1.2,12.117-3.517,1.9Z" transform="translate(-443.931 -107.992)" fill="#fadfc8"/>
              </g>
              <g id="Group_2342" data-name="Group 2342" transform="translate(14.613)">
                <path id="Path_4872" data-name="Path 4872" d="M433.228,67.849l3.517-1.9L440.5,78.467l-3.517,1.9Z" transform="translate(-433.228 -65.954)" fill="#fadfc8"/>
              </g>
              <g id="Group_2343" data-name="Group 2343" transform="translate(0 1.895)">
                <path id="Path_4873" data-name="Path 4873" d="M421.47,69.374l3.759,12.514L434.91,88.6,427.4,92.668l1.2,12.117-8.4-9.995-8.936.776,2.318-10.246-6.724-11.637,9.833,3.664Z" transform="translate(-406.857 -69.374)" fill="#efc299"/>
              </g>
              <g id="Group_2344" data-name="Group 2344" transform="translate(18.372 12.513)">
                <path id="Path_4874" data-name="Path 4874" d="M440.012,90.432l3.517-1.9,9.681,6.712-3.517,1.9Z" transform="translate(-440.012 -88.536)" fill="#fadfc8"/>
              </g>
              <g id="Group_2345" data-name="Group 2345" transform="translate(20.544 19.226)">
                <path id="Path_4875" data-name="Path 4875" d="M451.441,102.545l3.517-1.9-7.509,4.069-3.517,1.9Z" transform="translate(-443.931 -100.65)" fill="#efc299"/>
              </g>
            </g>
          </g>
          <g id="Group_2355" data-name="Group 2355" transform="translate(61.256 35.225)">
            <g id="Group_2354" data-name="Group 2354" style="isolation: isolate">
              <g id="Group_2348" data-name="Group 2348" transform="translate(0 4.31)">
                <path id="Path_4876" data-name="Path 4876" d="M517.4,139.2l3.517-1.9,9.833,3.664-3.517,1.9Z" transform="translate(-517.402 -137.3)" fill="#fadfc8"/>
              </g>
              <g id="Group_2349" data-name="Group 2349" transform="translate(20.544 23.294)">
                <path id="Path_4877" data-name="Path 4877" d="M554.477,173.456l3.517-1.9,1.2,12.117-3.517,1.9Z" transform="translate(-554.477 -171.561)" fill="#fadfc8"/>
              </g>
              <g id="Group_2350" data-name="Group 2350" transform="translate(14.613)">
                <path id="Path_4878" data-name="Path 4878" d="M543.773,131.418l3.517-1.9,3.759,12.513-3.517,1.9Z" transform="translate(-543.773 -129.523)" fill="#fadfc8"/>
              </g>
              <g id="Group_2351" data-name="Group 2351" transform="translate(0 1.895)">
                <path id="Path_4879" data-name="Path 4879" d="M532.015,132.943l3.759,12.514,9.681,6.712-7.509,4.069,1.2,12.117-8.4-9.995-8.936.776,2.318-10.246L517.4,137.252l9.833,3.664Z" transform="translate(-517.402 -132.943)" fill="#efc299"/>
              </g>
              <g id="Group_2352" data-name="Group 2352" transform="translate(18.372 12.513)">
                <path id="Path_4880" data-name="Path 4880" d="M550.558,154l3.517-1.9,9.681,6.712-3.517,1.9Z" transform="translate(-550.558 -152.105)" fill="#fadfc8"/>
              </g>
              <g id="Group_2353" data-name="Group 2353" transform="translate(20.544 19.226)">
                <path id="Path_4881" data-name="Path 4881" d="M561.986,166.114l3.517-1.9-7.509,4.068-3.517,1.9Z" transform="translate(-554.477 -164.218)" fill="#efc299"/>
              </g>
            </g>
          </g>
          <g id="Group_2363" data-name="Group 2363" transform="translate(26.469 7.217)">
            <g id="Group_2362" data-name="Group 2362" style="isolation: isolate">
              <g id="Group_2356" data-name="Group 2356" transform="translate(0 5.671)">
                <path id="Path_4882" data-name="Path 4882" d="M454.625,91.7l4.627-2.494,12.939,4.821-4.627,2.494Z" transform="translate(-454.625 -89.211)" fill="#fadfc8"/>
              </g>
              <g id="Group_2357" data-name="Group 2357" transform="translate(27.032 30.651)">
                <path id="Path_4883" data-name="Path 4883" d="M503.408,136.786l4.627-2.494,1.579,15.943-4.628,2.494Z" transform="translate(-503.408 -134.292)" fill="#fadfc8"/>
              </g>
              <g id="Group_2358" data-name="Group 2358" transform="translate(19.228)">
                <path id="Path_4884" data-name="Path 4884" d="M489.324,81.471l4.627-2.494L498.9,95.443l-4.627,2.494Z" transform="translate(-489.324 -78.978)" fill="#fadfc8"/>
              </g>
              <g id="Group_2359" data-name="Group 2359" transform="translate(0 2.494)">
                <path id="Path_4885" data-name="Path 4885" d="M473.853,83.478,478.8,99.943l12.738,8.832-9.881,5.354,1.579,15.943L472.18,116.921l-11.758,1.021,3.05-13.482-8.847-15.311,12.939,4.821Z" transform="translate(-454.625 -83.478)" fill="#efc299"/>
              </g>
              <g id="Group_2360" data-name="Group 2360" transform="translate(24.175 16.465)">
                <path id="Path_4886" data-name="Path 4886" d="M498.251,111.186l4.627-2.494,12.738,8.832-4.627,2.494Z" transform="translate(-498.251 -108.692)" fill="#fadfc8"/>
              </g>
              <g id="Group_2361" data-name="Group 2361" transform="translate(27.032 25.298)">
                <path id="Path_4887" data-name="Path 4887" d="M513.289,127.124l4.627-2.494-9.881,5.354-4.627,2.494Z" transform="translate(-503.408 -124.631)" fill="#efc299"/>
              </g>
            </g>
          </g>
        </g>
      </g>
      <g id="Group_2388" data-name="Group 2388" transform="translate(270.806 208.204)">
        <g id="Group_2366" data-name="Group 2366" transform="translate(0 1.662)" opacity="0.1" style="mix-blend-mode: multiply;isolation: isolate">
          <path id="Path_4888" data-name="Path 4888" d="M401.449,388.485l.132,5.645-1.262,1.848-.132-5.645Z" transform="translate(-364.824 -386.674)"/>
          <path id="Path_4889" data-name="Path 4889" d="M400.04,397.954l-.132-5.644a.839.839,0,0,1,.155-.49l.132,5.644A.838.838,0,0,0,400.04,397.954Z" transform="translate(-364.7 -388.161)"/>
          <path id="Path_4890" data-name="Path 4890" d="M345.6,396.778l.132,5.645-2.589-1.409-.132-5.645Z" transform="translate(-339.329 -389.743)"/>
          <path id="Path_4891" data-name="Path 4891" d="M348.408,398.847l.132,5.644a1.171,1.171,0,0,0-.729-.935l-.132-5.645A1.174,1.174,0,0,1,348.408,398.847Z" transform="translate(-341.412 -390.877)"/>
          <path id="Path_4892" data-name="Path 4892" d="M380.521,401.642l.132,5.644c-.03-1.293-1.056-2.512-2.827-3.415a14.151,14.151,0,0,0-4.29-1.285c-5.476-.816-11.419.731-13.273,3.462a2.929,2.929,0,0,0-.558,1.729l-.132-5.645a2.934,2.934,0,0,1,.558-1.729c1.854-2.73,7.8-4.277,13.273-3.462a14.124,14.124,0,0,1,4.29,1.286C379.466,399.13,380.491,400.349,380.521,401.642Z" transform="translate(-346.715 -390.348)"/>
          <path id="Path_4893" data-name="Path 4893" d="M417.471,406.962l.132,5.645-3.867.446-.132-5.645Z" transform="translate(-370.807 -394.913)"/>
          <path id="Path_4894" data-name="Path 4894" d="M411.526,407.768l.132,5.644a3.074,3.074,0,0,0-2.3,1.117,4.682,4.682,0,0,1-.278.448l-.132-5.645a4.665,4.665,0,0,0,.278-.448A3.073,3.073,0,0,1,411.526,407.768Z" transform="translate(-368.729 -395.272)"/>
          <path id="Path_4895" data-name="Path 4895" d="M408.079,417.283l-.132-5.645a.944.944,0,0,1,.228-.607c.112-.142.226-.29.324-.441l.132,5.645c-.1.15-.211.3-.324.44A.948.948,0,0,0,408.079,417.283Z" transform="translate(-368.284 -396.53)"/>
          <path id="Path_4896" data-name="Path 4896" d="M338.861,411.252l.132,5.645-2.491-6.134-.132-5.645Z" transform="translate(-336.37 -394.091)"/>
          <path id="Path_4897" data-name="Path 4897" d="M344.706,415.387l.132,5.645-3.841.444-.132-5.645Z" transform="translate(-338.374 -398.669)"/>
          <path id="Path_4898" data-name="Path 4898" d="M352.1,416.571l.132,5.644c-.145-.071-.234-.115-.321-.16q-.524-.267-.991-.556c-.054-.033-.111-.065-.171-.095a5.194,5.194,0,0,0-2.816-.406l-.132-5.645a5.2,5.2,0,0,1,2.817.406c.059.03.116.062.171.095q.469.29.991.556C351.862,416.456,351.95,416.5,352.1,416.571Z" transform="translate(-341.465 -398.637)"/>
          <path id="Path_4899" data-name="Path 4899" d="M356.383,418.575l.132,5.644c-.009-.369-.3-.724-.828-.993l-.132-5.644C356.084,417.851,356.375,418.205,356.383,418.575Z" transform="translate(-344.924 -399.648)"/>
          <path id="Path_4900" data-name="Path 4900" d="M386,421.608l.132,5.645a5.29,5.29,0,0,0-3.05-.4c-.615.087-1.243.161-1.871.216a3.462,3.462,0,0,0-2.469,1.037l-.132-5.645a3.463,3.463,0,0,1,2.469-1.037c.627-.054,1.256-.129,1.871-.216A5.3,5.3,0,0,1,386,421.608Z" transform="translate(-355.205 -401.238)"/>
          <path id="Path_4901" data-name="Path 4901" d="M394.534,423.386l.132,5.645-2.584-1.406-.132-5.645Z" transform="translate(-361.152 -401.608)"/>
          <path id="Path_4902" data-name="Path 4902" d="M406.218,416.712l.132,5.645-9.6,4.325-.132-5.645Z" transform="translate(-363.231 -399.26)"/>
          <path id="Path_4903" data-name="Path 4903" d="M377.605,423.525l.132,5.645-1.251,1.847-.132-5.645Z" transform="translate(-354.198 -402.298)"/>
          <path id="Path_4904" data-name="Path 4904" d="M366.6,425.4l.132,5.645-12.116-1.809-.132-5.645Z" transform="translate(-344.449 -402.329)"/>
          <path id="Path_4905" data-name="Path 4905" d="M376.762,401.263l2.595,1.406-9.6,4.325-2.584-1.406a5.3,5.3,0,0,0-3.051-.4c-.615.087-1.243.162-1.871.216a3.463,3.463,0,0,0-2.469,1.037l-1.251,1.848-12.116-1.809,1.262-1.847c.359-.532.09-1.1-.671-1.484-.145-.072-.233-.115-.321-.16q-.524-.267-.991-.556c-.055-.033-.111-.064-.171-.095a5.2,5.2,0,0,0-2.817-.406l-3.841.444-2.491-6.134,3.841-.444a3.067,3.067,0,0,0,2.32-1.124,5.151,5.151,0,0,1,.283-.446,5.2,5.2,0,0,1,.325-.445c.423-.532.253-1.124-.5-1.535l-2.589-1.409,9.6-4.325,2.594,1.406a5.314,5.314,0,0,0,3.056.4c.61-.09,1.233-.161,1.866-.218a3.433,3.433,0,0,0,2.459-1.038l1.256-1.85,12.111,1.811-1.262,1.847c-.354.529-.09,1.1.671,1.485.144.07.232.114.318.158q.52.265.989.555c.058.035.118.069.181.1a5.165,5.165,0,0,0,2.8.4l3.851-.444,2.491,6.134-3.867.447a3.073,3.073,0,0,0-2.3,1.116,4.667,4.667,0,0,1-.278.448c-.1.15-.212.3-.324.441C375.837,400.254,376,400.849,376.762,401.263Zm-20.433.44c5.481.818,11.435-.734,13.289-3.464,1.284-1.888.281-3.843-2.269-5.142a14.124,14.124,0,0,0-4.29-1.286c-5.476-.816-11.419.731-13.273,3.462-1.285,1.89-.28,3.849,2.271,5.149a14.1,14.1,0,0,0,4.273,1.281" transform="translate(-336.37 -385.217)"/>
        </g>
        <g id="Group_2387" data-name="Group 2387">
          <g id="Group_2386" data-name="Group 2386">
            <g id="Group_2385" data-name="Group 2385" style="isolation: isolate">
              <g id="Group_2367" data-name="Group 2367" transform="translate(35.363 1.811)">
                <path id="Path_4906" data-name="Path 4906" d="M401.449,385.485l.132,5.645-1.262,1.848-.132-5.645Z" transform="translate(-400.187 -385.485)" fill="#5880b2"/>
              </g>
              <g id="Group_2368" data-name="Group 2368" transform="translate(35.208 3.659)">
                <path id="Path_4907" data-name="Path 4907" d="M400.04,394.954l-.132-5.644a.839.839,0,0,1,.155-.49l.132,5.644A.838.838,0,0,0,400.04,394.954Z" transform="translate(-399.908 -388.82)" fill="#5880b2"/>
              </g>
              <g id="Group_2369" data-name="Group 2369" transform="translate(3.677 5.625)">
                <path id="Path_4908" data-name="Path 4908" d="M345.6,393.778l.132,5.645-2.589-1.409-.132-5.645Z" transform="translate(-343.006 -392.369)" fill="#5880b2"/>
              </g>
              <g id="Group_2370" data-name="Group 2370" transform="translate(6.267 7.034)">
                <path id="Path_4909" data-name="Path 4909" d="M348.408,395.847l.132,5.644a1.171,1.171,0,0,0-.729-.935l-.132-5.645A1.174,1.174,0,0,1,348.408,395.847Z" transform="translate(-347.679 -394.911)" fill="#5880b2"/>
              </g>
              <g id="Group_2371" data-name="Group 2371" transform="translate(12.857 6.376)">
                <path id="Path_4910" data-name="Path 4910" d="M380.521,398.642l.132,5.644c-.03-1.293-1.056-2.512-2.827-3.415a14.151,14.151,0,0,0-4.29-1.285c-5.476-.816-11.419.731-13.273,3.462a2.929,2.929,0,0,0-.558,1.729l-.132-5.645a2.934,2.934,0,0,1,.558-1.729c1.854-2.73,7.8-4.277,13.273-3.462a14.124,14.124,0,0,1,4.29,1.286C379.466,396.13,380.491,397.349,380.521,398.642Z" transform="translate(-359.573 -393.724)" fill="#5880b2"/>
              </g>
              <g id="Group_2372" data-name="Group 2372" transform="translate(42.798 12.05)">
                <path id="Path_4911" data-name="Path 4911" d="M417.471,403.962l.132,5.645-3.867.446-.132-5.645Z" transform="translate(-413.604 -403.962)" fill="#5880b2"/>
              </g>
              <g id="Group_2373" data-name="Group 2373" transform="translate(40.215 12.496)">
                <path id="Path_4912" data-name="Path 4912" d="M411.526,404.768l.132,5.644a3.074,3.074,0,0,0-2.3,1.117,4.682,4.682,0,0,1-.278.448l-.132-5.645a4.665,4.665,0,0,0,.278-.448A3.072,3.072,0,0,1,411.526,404.768Z" transform="translate(-408.944 -404.768)" fill="#5880b2"/>
              </g>
              <g id="Group_2374" data-name="Group 2374" transform="translate(39.662 14.06)">
                <path id="Path_4913" data-name="Path 4913" d="M408.079,414.283l-.132-5.645a.943.943,0,0,1,.228-.607c.112-.142.226-.29.324-.441l.132,5.645c-.1.15-.211.3-.324.44A.948.948,0,0,0,408.079,414.283Z" transform="translate(-407.947 -407.59)" fill="#5880b2"/>
              </g>
              <g id="Group_2375" data-name="Group 2375" transform="translate(0 11.028)">
                <path id="Path_4914" data-name="Path 4914" d="M338.861,408.252l.132,5.645-2.491-6.134-.132-5.645Z" transform="translate(-336.37 -402.118)" fill="#5880b2"/>
              </g>
              <g id="Group_2376" data-name="Group 2376" transform="translate(2.491 16.718)">
                <path id="Path_4915" data-name="Path 4915" d="M344.706,412.387l.132,5.645-3.841.444-.132-5.645Z" transform="translate(-340.865 -412.387)" fill="#5880b2"/>
              </g>
              <g id="Group_2377" data-name="Group 2377" transform="translate(6.331 16.678)">
                <path id="Path_4916" data-name="Path 4916" d="M352.1,413.571l.132,5.644c-.145-.071-.234-.115-.321-.16q-.524-.267-.991-.556c-.054-.033-.111-.065-.171-.095a5.194,5.194,0,0,0-2.816-.406l-.132-5.645a5.2,5.2,0,0,1,2.817.406c.059.03.116.062.171.095q.469.29.991.556C351.862,413.456,351.95,413.5,352.1,413.571Z" transform="translate(-347.796 -412.315)" fill="#5880b2"/>
              </g>
              <g id="Group_2378" data-name="Group 2378" transform="translate(10.631 17.934)">
                <path id="Path_4917" data-name="Path 4917" d="M356.383,415.575l.132,5.644c-.009-.369-.3-.724-.828-.993l-.132-5.644C356.084,414.851,356.375,415.205,356.383,415.575Z" transform="translate(-355.555 -414.582)" fill="#5880b2"/>
              </g>
              <g id="Group_2379" data-name="Group 2379" transform="translate(23.407 19.91)">
                <path id="Path_4918" data-name="Path 4918" d="M386,418.608l.132,5.645a5.29,5.29,0,0,0-3.05-.4c-.615.087-1.243.161-1.871.216a3.462,3.462,0,0,0-2.469,1.037l-.132-5.645a3.463,3.463,0,0,1,2.469-1.037c.627-.054,1.256-.129,1.871-.216A5.3,5.3,0,0,1,386,418.608Z" transform="translate(-378.612 -418.148)" fill="#5880b2"/>
              </g>
              <g id="Group_2380" data-name="Group 2380" transform="translate(30.798 20.371)">
                <path id="Path_4919" data-name="Path 4919" d="M394.534,420.386l.132,5.645-2.584-1.406-.132-5.645Z" transform="translate(-391.95 -418.979)" fill="#5880b2"/>
              </g>
              <g id="Group_2381" data-name="Group 2381" transform="translate(33.383 17.452)">
                <path id="Path_4920" data-name="Path 4920" d="M406.218,413.712l.132,5.645-9.6,4.325-.132-5.645Z" transform="translate(-396.614 -413.712)" fill="#5880b2"/>
              </g>
              <g id="Group_2382" data-name="Group 2382" transform="translate(22.156 21.228)">
                <path id="Path_4921" data-name="Path 4921" d="M377.605,420.525l.132,5.645-1.251,1.847-.132-5.645Z" transform="translate(-376.354 -420.525)" fill="#5880b2"/>
              </g>
              <g id="Group_2383" data-name="Group 2383" transform="translate(10.04 21.266)">
                <path id="Path_4922" data-name="Path 4922" d="M366.6,422.4l.132,5.645-12.116-1.809-.132-5.645Z" transform="translate(-354.489 -420.595)" fill="#5880b2"/>
              </g>
              <g id="Group_2384" data-name="Group 2384">
                <path id="Path_4923" data-name="Path 4923" d="M376.762,398.263l2.595,1.406-9.6,4.325-2.584-1.406a5.3,5.3,0,0,0-3.051-.4c-.615.087-1.243.162-1.871.216a3.463,3.463,0,0,0-2.469,1.037l-1.251,1.848-12.116-1.809,1.262-1.847c.359-.532.09-1.1-.671-1.484-.145-.071-.233-.115-.321-.16q-.524-.267-.991-.556c-.055-.033-.111-.064-.171-.095a5.2,5.2,0,0,0-2.817-.406l-3.841.444-2.491-6.134,3.841-.444a3.067,3.067,0,0,0,2.32-1.124,5.147,5.147,0,0,1,.283-.446,5.2,5.2,0,0,1,.325-.445c.423-.532.253-1.124-.5-1.535l-2.589-1.409,9.6-4.325,2.594,1.406a5.314,5.314,0,0,0,3.056.4c.61-.09,1.233-.161,1.866-.218a3.433,3.433,0,0,0,2.459-1.038l1.256-1.85,12.111,1.811-1.262,1.847c-.354.529-.09,1.1.671,1.485.144.07.232.114.318.158q.52.265.989.555c.058.035.118.069.181.1a5.166,5.166,0,0,0,2.8.4l3.851-.444,2.491,6.134-3.867.447a3.073,3.073,0,0,0-2.3,1.116,4.663,4.663,0,0,1-.278.448c-.1.15-.212.3-.324.441C375.837,397.254,376,397.849,376.762,398.263Zm-20.433.44c5.481.818,11.435-.734,13.289-3.464,1.284-1.888.281-3.843-2.269-5.142a14.124,14.124,0,0,0-4.29-1.286c-5.476-.816-11.419.731-13.273,3.462-1.285,1.89-.28,3.849,2.271,5.149a14.1,14.1,0,0,0,4.273,1.281" transform="translate(-336.37 -382.217)" fill="#466799"/>
              </g>
            </g>
          </g>
        </g>
      </g>
      <g id="Group_2411" data-name="Group 2411" transform="translate(306.218 182.895)">
        <g id="Group_2389" data-name="Group 2389" transform="translate(0 1.662)" opacity="0.1" style="mix-blend-mode: multiply;isolation: isolate">
          <path id="Path_4924" data-name="Path 4924" d="M380.2,336.077l.132,5.645-.626-1.309-.132-5.645Z" transform="translate(-371.104 -333.618)"/>
          <path id="Path_4925" data-name="Path 4925" d="M380.755,337.343l.132,5.644a.516.516,0,0,0-.052-.213l-.132-5.645A.529.529,0,0,1,380.755,337.343Z" transform="translate(-371.608 -334.671)"/>
          <path id="Path_4926" data-name="Path 4926" d="M418.587,340.143l.132,5.645-2,.958-.132-5.645Z" transform="translate(-387.606 -336.014)"/>
          <path id="Path_4927" data-name="Path 4927" d="M415.515,348.3l-.132-5.645c-.007-.288.223-.573.664-.784l.132,5.644C415.739,347.727,415.508,348.012,415.515,348.3Z" transform="translate(-387.071 -336.785)"/>
          <path id="Path_4928" data-name="Path 4928" d="M395.31,344.2l.132,5.645c-.021-.871-.675-1.729-1.977-2.392a13.213,13.213,0,0,0-10.364.01c-1.569.75-2.352,1.747-2.329,2.728l-.132-5.645c-.023-.981.76-1.978,2.329-2.727a13.213,13.213,0,0,1,10.364-.011C394.635,342.467,395.29,343.325,395.31,344.2Z" transform="translate(-371.58 -336.285)"/>
          <path id="Path_4929" data-name="Path 4929" d="M366.911,347.869l.132,5.645-2.621-.346-.132-5.645Z" transform="translate(-364.29 -339.305)"/>
          <path id="Path_4930" data-name="Path 4930" d="M370.878,349.871l.132,5.645a.583.583,0,0,0-.086-.285,3.843,3.843,0,0,1-.3-.638,1.068,1.068,0,0,0-.551-.537,2.85,2.85,0,0,0-.919-.264l-.132-5.645a2.852,2.852,0,0,1,.92.265,1.07,1.07,0,0,1,.551.537,3.845,3.845,0,0,0,.3.638A.586.586,0,0,1,370.878,349.871Z" transform="translate(-366.399 -339.583)"/>
          <path id="Path_4931" data-name="Path 4931" d="M412.263,354.073l.132,5.645a3.786,3.786,0,0,0-2.147.328l-.132-5.644A3.778,3.778,0,0,1,412.263,354.073Z" transform="translate(-384.723 -342.21)"/>
          <path id="Path_4932" data-name="Path 4932" d="M416.632,354.451l.132,5.645-2.642-.351-.132-5.645Z" transform="translate(-386.45 -342.237)"/>
          <path id="Path_4933" data-name="Path 4933" d="M421.366,347.033l.132,5.645-2.609,4.267-.132-5.645Z" transform="translate(-388.576 -339.086)"/>
          <path id="Path_4934" data-name="Path 4934" d="M409.339,354.692l.132,5.644c-.155.079-.31.158-.47.234s-.33.153-.495.227l-.132-5.645c.165-.074.335-.15.5-.227S409.184,354.771,409.339,354.692Z" transform="translate(-383.946 -342.501)"/>
          <path id="Path_4935" data-name="Path 4935" d="M407.1,362l-.132-5.644c-.007-.313.281-.618.781-.833l.132,5.645C407.378,361.384,407.089,361.689,407.1,362Z" transform="translate(-383.317 -342.872)"/>
          <path id="Path_4936" data-name="Path 4936" d="M387.261,358.727l.132,5.644a1.072,1.072,0,0,0-.509-.463,3.1,3.1,0,0,0-1.068-.288c-.43-.045-.864-.1-1.283-.169a3.906,3.906,0,0,0-2.188.249l-.132-5.645a3.913,3.913,0,0,1,2.188-.249c.418.066.852.124,1.282.169a3.115,3.115,0,0,1,1.069.288A1.076,1.076,0,0,1,387.261,358.727Z" transform="translate(-372.281 -343.866)"/>
          <path id="Path_4937" data-name="Path 4937" d="M373.674,357.52l.132,5.645-6.117-3.117-.132-5.645Z" transform="translate(-365.746 -342.373)"/>
          <path id="Path_4938" data-name="Path 4938" d="M380.6,358.3l.132,5.645-2,.958-.132-5.645Z" transform="translate(-370.669 -344.109)"/>
          <path id="Path_4939" data-name="Path 4939" d="M388.718,345.344c-.616.265-.912.667-.727,1.051l.627,1.309-8.731,1.153-.617-1.3a1.075,1.075,0,0,0-.509-.463,3.114,3.114,0,0,0-1.069-.288c-.43-.045-.864-.1-1.282-.169a3.913,3.913,0,0,0-2.188.249l-2,.958-6.118-3.116,2-.959c.587-.28.8-.692.579-1.068a3.843,3.843,0,0,1-.3-.638,1.07,1.07,0,0,0-.551-.537,2.852,2.852,0,0,0-.92-.265l-2.621-.346,2.614-4.27,2.626.349a3.769,3.769,0,0,0,2.152-.325c.15-.081.315-.16.475-.237s.325-.156.5-.227c.616-.265.912-.667.732-1.048l-.627-1.309,8.726-1.15.621,1.306a1.092,1.092,0,0,0,.508.458,3.14,3.14,0,0,0,1.076.29c.43.045.859.1,1.278.167a3.919,3.919,0,0,0,2.183-.252l2-.958,6.117,3.117-2,.958c-.586.28-.8.693-.579,1.069a3.839,3.839,0,0,1,.3.638,1.064,1.064,0,0,0,.552.539,2.881,2.881,0,0,0,.913.266l2.627.349-2.609,4.267-2.642-.351a3.778,3.778,0,0,0-2.147.328c-.155.079-.31.158-.47.234S388.883,345.27,388.718,345.344Zm-13.4-2.008a13.239,13.239,0,0,0,10.375-.01c2.959-1.414,3.111-3.705.347-5.115a13.213,13.213,0,0,0-10.364.011c-2.959,1.414-3.122,3.706-.357,5.115" transform="translate(-364.29 -332.692)"/>
          <path id="Path_4940" data-name="Path 4940" d="M391.94,360.815l.132,5.645-.617-1.3-.132-5.645Z" transform="translate(-376.343 -344.65)"/>
          <path id="Path_4941" data-name="Path 4941" d="M401.167,359.783l.132,5.645-8.731,1.153-.132-5.645Z" transform="translate(-376.84 -344.771)"/>
        </g>
        <g id="Group_2410" data-name="Group 2410">
          <g id="Group_2409" data-name="Group 2409">
            <g id="Group_2408" data-name="Group 2408" style="isolation: isolate">
              <g id="Group_2390" data-name="Group 2390" transform="translate(8.468 1.15)">
                <path id="Path_4942" data-name="Path 4942" d="M380.2,333.077l.132,5.645-.626-1.309-.132-5.645Z" transform="translate(-379.572 -331.768)" fill="#5880b2"/>
              </g>
              <g id="Group_2391" data-name="Group 2391" transform="translate(9.095 2.459)">
                <path id="Path_4943" data-name="Path 4943" d="M380.755,334.343l.132,5.644a.516.516,0,0,0-.052-.213l-.132-5.645A.529.529,0,0,1,380.755,334.343Z" transform="translate(-380.703 -334.13)" fill="#233e71"/>
              </g>
              <g id="Group_2392" data-name="Group 2392" transform="translate(28.976 4.129)">
                <path id="Path_4944" data-name="Path 4944" d="M418.587,337.143l.132,5.645-2,.958-.132-5.645Z" transform="translate(-416.582 -337.143)" fill="#5880b2"/>
              </g>
              <g id="Group_2393" data-name="Group 2393" transform="translate(28.312 5.087)">
                <path id="Path_4945" data-name="Path 4945" d="M415.515,345.3l-.132-5.645c-.007-.288.223-.573.664-.784l.132,5.644C415.739,344.727,415.508,345.012,415.515,345.3Z" transform="translate(-415.383 -338.872)" fill="#5880b2"/>
              </g>
              <g id="Group_2394" data-name="Group 2394" transform="translate(9.06 4.465)">
                <path id="Path_4946" data-name="Path 4946" d="M395.31,341.2l.132,5.645c-.021-.87-.675-1.729-1.977-2.392a13.213,13.213,0,0,0-10.364.01c-1.569.75-2.352,1.747-2.329,2.728l-.132-5.645c-.023-.981.76-1.978,2.329-2.727a13.213,13.213,0,0,1,10.364-.011C394.635,339.467,395.29,340.325,395.31,341.2Z" transform="translate(-380.64 -337.75)" fill="#5880b2"/>
              </g>
              <g id="Group_2395" data-name="Group 2395" transform="translate(0 8.218)">
                <path id="Path_4947" data-name="Path 4947" d="M366.911,344.869l.132,5.645-2.621-.346-.132-5.645Z" transform="translate(-364.29 -344.523)" fill="#5880b2"/>
              </g>
              <g id="Group_2396" data-name="Group 2396" transform="translate(2.621 8.564)">
                <path id="Path_4948" data-name="Path 4948" d="M370.878,346.871l.132,5.645a.583.583,0,0,0-.086-.285,3.843,3.843,0,0,1-.3-.638,1.069,1.069,0,0,0-.551-.538,2.85,2.85,0,0,0-.919-.264l-.132-5.645a2.853,2.853,0,0,1,.92.265,1.07,1.07,0,0,1,.551.537,3.845,3.845,0,0,0,.3.638A.586.586,0,0,1,370.878,346.871Z" transform="translate(-369.02 -345.147)" fill="#5880b2"/>
              </g>
              <g id="Group_2397" data-name="Group 2397" transform="translate(25.393 11.829)">
                <path id="Path_4949" data-name="Path 4949" d="M412.263,351.073l.132,5.645a3.786,3.786,0,0,0-2.147.327l-.132-5.644A3.778,3.778,0,0,1,412.263,351.073Z" transform="translate(-410.116 -351.04)" fill="#5880b2"/>
              </g>
              <g id="Group_2398" data-name="Group 2398" transform="translate(27.54 11.863)">
                <path id="Path_4950" data-name="Path 4950" d="M416.632,351.451l.132,5.645-2.642-.351-.132-5.645Z" transform="translate(-413.99 -351.1)" fill="#5880b2"/>
              </g>
              <g id="Group_2399" data-name="Group 2399" transform="translate(30.182 7.947)">
                <path id="Path_4951" data-name="Path 4951" d="M421.366,344.033l.132,5.645-2.609,4.267-.132-5.645Z" transform="translate(-418.757 -344.033)" fill="#5880b2"/>
              </g>
              <g id="Group_2400" data-name="Group 2400" transform="translate(24.428 12.191)">
                <path id="Path_4952" data-name="Path 4952" d="M409.339,351.692l.132,5.644c-.155.079-.31.158-.47.234s-.33.153-.495.227l-.132-5.645c.165-.074.335-.15.5-.227S409.184,351.771,409.339,351.692Z" transform="translate(-408.374 -351.692)" fill="#5880b2"/>
              </g>
              <g id="Group_2401" data-name="Group 2401" transform="translate(23.647 12.652)">
                <path id="Path_4953" data-name="Path 4953" d="M407.1,359l-.132-5.644c-.007-.313.281-.618.781-.833l.132,5.645C407.378,358.384,407.089,358.689,407.1,359Z" transform="translate(-406.964 -352.524)" fill="#5880b2"/>
              </g>
              <g id="Group_2402" data-name="Group 2402" transform="translate(9.932 13.887)">
                <path id="Path_4954" data-name="Path 4954" d="M387.261,355.727l.132,5.644a1.072,1.072,0,0,0-.509-.463,3.1,3.1,0,0,0-1.068-.288c-.43-.045-.864-.1-1.283-.169a3.906,3.906,0,0,0-2.188.249l-.132-5.645a3.913,3.913,0,0,1,2.188-.249c.418.066.852.124,1.282.169a3.114,3.114,0,0,1,1.069.288A1.076,1.076,0,0,1,387.261,355.727Z" transform="translate(-382.213 -354.753)" fill="#5880b2"/>
              </g>
              <g id="Group_2403" data-name="Group 2403" transform="translate(1.81 12.031)">
                <path id="Path_4955" data-name="Path 4955" d="M373.674,354.52l.132,5.645-6.117-3.117-.132-5.645Z" transform="translate(-367.556 -351.404)" fill="#5880b2"/>
              </g>
              <g id="Group_2404" data-name="Group 2404" transform="translate(7.927 14.19)">
                <path id="Path_4956" data-name="Path 4956" d="M380.6,355.3l.132,5.645-2,.958-.132-5.645Z" transform="translate(-378.596 -355.299)" fill="#5880b2"/>
              </g>
              <g id="Group_2405" data-name="Group 2405">
                <path id="Path_4957" data-name="Path 4957" d="M388.718,342.344c-.616.265-.912.667-.727,1.051l.627,1.309-8.731,1.153-.617-1.3a1.075,1.075,0,0,0-.509-.463,3.113,3.113,0,0,0-1.069-.288c-.43-.045-.864-.1-1.282-.169a3.913,3.913,0,0,0-2.188.249l-2,.958-6.118-3.116,2-.959c.587-.28.8-.692.579-1.068a3.843,3.843,0,0,1-.3-.638,1.07,1.07,0,0,0-.551-.537,2.853,2.853,0,0,0-.92-.265l-2.621-.346,2.614-4.27,2.626.349a3.768,3.768,0,0,0,2.152-.325c.15-.081.315-.16.475-.237s.325-.156.5-.227c.616-.265.912-.667.732-1.048l-.627-1.309,8.726-1.15.621,1.306a1.092,1.092,0,0,0,.508.458,3.14,3.14,0,0,0,1.076.29c.43.045.859.1,1.278.167a3.919,3.919,0,0,0,2.183-.252l2-.958,6.117,3.117-2,.958c-.586.28-.8.693-.579,1.069a3.839,3.839,0,0,1,.3.638,1.064,1.064,0,0,0,.552.539,2.881,2.881,0,0,0,.913.266l2.627.349-2.609,4.267-2.642-.351a3.778,3.778,0,0,0-2.147.328c-.155.079-.31.158-.47.234S388.883,342.27,388.718,342.344Zm-13.4-2.008a13.239,13.239,0,0,0,10.375-.011c2.959-1.414,3.111-3.705.347-5.115a13.213,13.213,0,0,0-10.364.011c-2.959,1.414-3.122,3.706-.357,5.115" transform="translate(-364.29 -329.692)" fill="#466799"/>
              </g>
              <g id="Group_2406" data-name="Group 2406" transform="translate(14.98 14.861)">
                <path id="Path_4958" data-name="Path 4958" d="M391.94,357.815l.132,5.645-.617-1.3-.132-5.645Z" transform="translate(-391.323 -356.511)" fill="#5880b2"/>
              </g>
              <g id="Group_2407" data-name="Group 2407" transform="translate(15.596 15.012)">
                <path id="Path_4959" data-name="Path 4959" d="M401.167,356.783l.132,5.645-8.731,1.153-.132-5.645Z" transform="translate(-392.436 -356.783)" fill="#5880b2"/>
              </g>
            </g>
          </g>
        </g>
      </g>
      <g id="Group_2416" data-name="Group 2416" transform="translate(118.158 194.631)">
        <g id="Group_2412" data-name="Group 2412" transform="translate(0 1.662)" opacity="0.1" style="mix-blend-mode: multiply;isolation: isolate">
          <path id="Path_4960" data-name="Path 4960" d="M131.53,306.066a3.941,3.941,0,0,1,2.634-4.892l58.455,33.752a5.566,5.566,0,0,0-2.961,4.724Z" transform="translate(-131.383 -301.172)"/>
          <path id="Path_4961" data-name="Path 4961" d="M236.544,366.808l9.191,1.865-6.229-6.59S236.408,363.7,236.544,366.808Z" transform="translate(-178.27 -328.33)"/>
          <path id="Path_4962" data-name="Path 4962" d="M251.067,372.5l-2.571-.519a3.7,3.7,0,0,1,.836-1.314Z" transform="translate(-183.6 -332.156)"/>
          <path id="Path_4963" data-name="Path 4963" d="M141.919,309.631l6.667,3.735,6.646,3.773,13.258,7.6,13.21,7.687,6.588,3.873,6.566,3.911-6.668-3.735-6.646-3.773-13.257-7.6-13.209-7.688-6.588-3.873Z" transform="translate(-136.08 -304.943)"/>
          <path id="Path_4964" data-name="Path 4964" d="M134.338,307.69l-2.806-1.622a3.944,3.944,0,0,1,2.635-4.9l2.952,1.711A4.5,4.5,0,0,0,134.338,307.69Z" transform="translate(-131.383 -301.17)"/>
        </g>
        <g id="Group_2415" data-name="Group 2415">
          <g id="Group_2414" data-name="Group 2414">
            <path id="Path_4965" data-name="Path 4965" d="M131.53,303.066a3.941,3.941,0,0,1,2.634-4.892l58.455,33.752a5.566,5.566,0,0,0-2.961,4.724Z" transform="translate(-131.383 -298.172)" fill="#efc299"/>
            <path id="Path_4966" data-name="Path 4966" d="M236.544,363.808l9.191,1.865-6.229-6.59S236.408,360.7,236.544,363.808Z" transform="translate(-178.27 -325.33)" fill="#fff"/>
            <path id="Path_4967" data-name="Path 4967" d="M251.067,369.5l-2.571-.519a3.694,3.694,0,0,1,.836-1.314Z" transform="translate(-183.6 -329.156)" fill="#233e71"/>
            <g id="Group_2413" data-name="Group 2413" transform="translate(5.838 4.688)">
              <path id="Path_4968" data-name="Path 4968" d="M141.919,306.631l6.667,3.735,6.646,3.773,13.258,7.6,13.21,7.687,6.588,3.873,6.566,3.911-6.668-3.735-6.646-3.773-13.257-7.6-13.209-7.688-6.588-3.873Z" transform="translate(-141.919 -306.631)" fill="#fadfc8"/>
            </g>
            <path id="Path_4969" data-name="Path 4969" d="M134.338,304.69l-2.806-1.622a3.944,3.944,0,0,1,2.635-4.9l2.952,1.711A4.5,4.5,0,0,0,134.338,304.69Z" transform="translate(-131.383 -298.17)" fill="#f4a093"/>
          </g>
        </g>
      </g>
      <g id="Group_2420" data-name="Group 2420" transform="translate(107.04 201.149)">
        <g id="Group_2417" data-name="Group 2417" transform="translate(0 1.662)" opacity="0.1" style="mix-blend-mode: multiply;isolation: isolate">
          <path id="Path_4970" data-name="Path 4970" d="M111.465,317.825a3.941,3.941,0,0,1,2.634-4.892l58.455,33.752a5.566,5.566,0,0,0-2.961,4.724Z" transform="translate(-111.318 -312.933)"/>
          <path id="Path_4971" data-name="Path 4971" d="M216.479,378.567l9.191,1.865-6.229-6.59S216.343,375.459,216.479,378.567Z" transform="translate(-158.205 -340.091)"/>
          <path id="Path_4972" data-name="Path 4972" d="M231,384.255l-2.57-.519a3.687,3.687,0,0,1,.835-1.314Z" transform="translate(-163.536 -343.917)"/>
        </g>
        <g id="Group_2419" data-name="Group 2419">
          <g id="Group_2418" data-name="Group 2418">
            <path id="Path_4973" data-name="Path 4973" d="M111.465,314.825a3.941,3.941,0,0,1,2.634-4.892l58.455,33.752a5.566,5.566,0,0,0-2.961,4.724Z" transform="translate(-111.318 -309.933)" fill="#e27d5e"/>
            <path id="Path_4974" data-name="Path 4974" d="M216.479,375.567l9.191,1.865-6.229-6.59S216.343,372.459,216.479,375.567Z" transform="translate(-158.205 -337.091)" fill="#fff"/>
            <path id="Path_4975" data-name="Path 4975" d="M231,381.255l-2.57-.519a3.686,3.686,0,0,1,.835-1.314Z" transform="translate(-163.536 -340.917)" fill="#233e71"/>
          </g>
        </g>
      </g>
      <g id="Group_2428" data-name="Group 2428" transform="translate(101.723 110.26)">
        <g id="Group_2421" data-name="Group 2421" transform="translate(0 1.662)" opacity="0.1" style="mix-blend-mode: multiply;isolation: isolate">
          <path id="Path_4976" data-name="Path 4976" d="M107.277,246.718l-5.553-3.207v-19.24l5.553,3.207Z" transform="translate(-101.723 -182.512)"/>
          <path id="Path_4977" data-name="Path 4977" d="M111.745,246.718v-19.24l5.553-3.207v19.24Z" transform="translate(-106.192 -182.512)"/>
          <path id="Path_4978" data-name="Path 4978" d="M101.723,221.692l5.553-3.207,5.553,3.207-5.553,3.207Z" transform="translate(-101.723 -179.932)"/>
          <path id="Path_4979" data-name="Path 4979" d="M127.321,227.434l-5.554-3.207V195.4l5.554,3.207Z" transform="translate(-110.661 -169.641)"/>
          <path id="Path_4980" data-name="Path 4980" d="M131.79,227.434V198.611l5.553-3.207v28.823Z" transform="translate(-115.129 -169.641)"/>
          <path id="Path_4981" data-name="Path 4981" d="M121.768,192.825l5.554-3.207,5.553,3.207-5.553,3.207Z" transform="translate(-110.661 -167.061)"/>
          <path id="Path_4982" data-name="Path 4982" d="M147.365,211.293l-5.554-3.207v-34.5l5.554,3.207Z" transform="translate(-119.598 -159.913)"/>
          <path id="Path_4983" data-name="Path 4983" d="M151.834,211.293v-34.5l5.553-3.206v34.5Z" transform="translate(-124.066 -159.914)"/>
          <path id="Path_4984" data-name="Path 4984" d="M141.812,171.008l5.554-3.207,5.553,3.207-5.553,3.207Z" transform="translate(-119.598 -157.333)"/>
          <path id="Path_4985" data-name="Path 4985" d="M167.41,196.457l-5.553-3.207V154.7l5.553,3.207Z" transform="translate(-128.535 -151.491)"/>
          <path id="Path_4986" data-name="Path 4986" d="M171.878,196.457V157.9l5.553-3.207V193.25Z" transform="translate(-133.004 -151.491)"/>
          <path id="Path_4987" data-name="Path 4987" d="M161.856,152.117l5.553-3.207,5.553,3.207-5.553,3.207Z" transform="translate(-128.535 -148.911)"/>
        </g>
        <g id="Group_2427" data-name="Group 2427">
          <g id="Group_2426" data-name="Group 2426">
            <g id="Group_2422" data-name="Group 2422" transform="translate(0 38.553)">
              <path id="Path_4988" data-name="Path 4988" d="M107.277,243.718l-5.553-3.207v-19.24l5.553,3.207Z" transform="translate(-101.723 -218.066)" fill="#efc299"/>
              <path id="Path_4989" data-name="Path 4989" d="M111.745,243.718v-19.24l5.553-3.207v19.24Z" transform="translate(-106.192 -218.066)" fill="#fadfc8"/>
              <path id="Path_4990" data-name="Path 4990" d="M101.723,218.692l5.553-3.207,5.553,3.207-5.553,3.207Z" transform="translate(-101.723 -215.485)" fill="#fbe9db"/>
            </g>
            <g id="Group_2423" data-name="Group 2423" transform="translate(11.107 22.557)">
              <path id="Path_4991" data-name="Path 4991" d="M127.321,224.434l-5.554-3.207V192.4l5.554,3.207Z" transform="translate(-121.768 -189.198)" fill="#efc299"/>
              <path id="Path_4992" data-name="Path 4992" d="M131.79,224.434V195.611l5.553-3.207v28.823Z" transform="translate(-126.236 -189.198)" fill="#fadfc8"/>
              <path id="Path_4993" data-name="Path 4993" d="M121.768,189.825l5.554-3.207,5.553,3.207-5.553,3.207Z" transform="translate(-121.768 -186.618)" fill="#fbe9db"/>
            </g>
            <g id="Group_2424" data-name="Group 2424" transform="translate(22.214 10.468)">
              <path id="Path_4994" data-name="Path 4994" d="M147.365,208.293l-5.554-3.207v-34.5l5.554,3.207Z" transform="translate(-141.812 -167.381)" fill="#efc299"/>
              <path id="Path_4995" data-name="Path 4995" d="M151.834,208.293v-34.5l5.553-3.207v34.5Z" transform="translate(-146.281 -167.381)" fill="#fadfc8"/>
              <path id="Path_4996" data-name="Path 4996" d="M141.812,168.008l5.554-3.207,5.553,3.207-5.553,3.207Z" transform="translate(-141.812 -164.801)" fill="#fbe9db"/>
            </g>
            <g id="Group_2425" data-name="Group 2425" transform="translate(33.321)">
              <path id="Path_4997" data-name="Path 4997" d="M167.41,193.457l-5.553-3.207V151.7l5.553,3.207Z" transform="translate(-161.856 -148.491)" fill="#efc299"/>
              <path id="Path_4998" data-name="Path 4998" d="M171.878,193.457V154.9l5.553-3.207V190.25Z" transform="translate(-166.325 -148.491)" fill="#fadfc8"/>
              <path id="Path_4999" data-name="Path 4999" d="M161.856,149.117l5.553-3.207,5.553,3.207-5.553,3.207Z" transform="translate(-161.856 -145.911)" fill="#fbe9db"/>
            </g>
          </g>
        </g>
      </g>
    </g>
  </g>
</svg>
