<svg xmlns="http://www.w3.org/2000/svg" width="316.747" height="251" viewBox="0 0 316.747 251">
  <g id="potion-android" transform="translate(-6387.315 -640)">
    <path id="Path_3509" data-name="Path 3509" d="M148.55-1.594c10.457,24.632,10.457,46.244,26.491,74.362,16.267,28.118,48.335,62.743,45.082,84.354-3.486,21.611-42.526,30.209-75.988,33.7-33.7,3.486-61.813,1.394-93.417-4.183-31.6-5.81-66.693-15.337-91.093-39.5-24.632-24.4-38.343-63.672-28.35-94.811C-58.5,21.179-24.573-1.827,6.8-22.509,38.17-43.423,66.752-62.246,91.617-57.831S137.861-25.994,148.55-1.594Z" transform="translate(6459.331 698.479)" fill="#24b24c"/>
    <path id="Path_4038" data-name="Path 4038" d="M-6.727-29.345c5.55,3.146,12.1,7.436,16.3,15.371S15.591,5.4,11.576,11.836C7.5,18.271-2.358,19.558-10.034,18.843s-13.108-3.5-20.842-4.361c-7.735-.929-17.831.071-20.9-4.647-3.07-4.79.827-15.229,3.838-24.094s5.137-16.229,9.388-19.59c4.251-3.432,10.569-2.931,16.06-1.716A57.036,57.036,0,0,1-6.727-29.345Z" transform="matrix(0.588, 0.809, -0.809, 0.588, 6666.43, 722.071)" fill="#24b24c"/>
    <g id="Group_1695" data-name="Group 1695" transform="translate(-561.341 119.834)">
      <g id="android-logo" transform="translate(6989.689 640.294) rotate(-30)">
        <g id="Group_1694" data-name="Group 1694" transform="translate(0 0)">
          <g id="Path_3505" data-name="Path 3505" transform="translate(0 35.277)" fill="#a4c639">
            <path d="M 6.740734577178955 43.56056213378906 C 4.32375431060791 43.56056213378906 2.240604400634766 42.70291137695313 0.5491344928741455 41.01144027709961 C -1.142345428466797 39.31998062133789 -1.999995470046997 37.23641967773438 -1.999995470046997 34.81864929199219 L -1.999995470046997 6.675351142883301 C -1.999995470046997 4.301620960235596 -1.142345428466797 2.24039101600647 0.5491344928741455 0.5489210486412048 C 2.240464448928833 -1.14241898059845 4.323624610900879 -1.999998927116394 6.740734577178955 -1.999998927116394 C 9.115114212036133 -1.999998927116394 11.17670440673828 -1.142458915710449 12.86823463439941 0.5488110780715942 C 14.55978488922119 2.240111112594604 15.41746425628662 4.30138111114502 15.41746425628662 6.675351142883301 L 15.41746425628662 34.81864929199219 C 15.41746425628662 37.22851943969727 14.57498455047607 39.3078727722168 12.91342449188232 40.99893951416016 C 11.23981475830078 42.69915008544922 9.163454055786133 43.56056213378906 6.740734577178955 43.56056213378906 Z" stroke="none"/>
            <path d="M 6.740734577178955 0 C 4.864234924316406 0 3.272104263305664 0.6543693542480469 1.963344573974609 1.963130950927734 C 0.6545743942260742 3.271892547607422 4.76837158203125e-06 4.842361450195313 4.76837158203125e-06 6.675350189208984 L 4.76837158203125e-06 34.81864929199219 C 4.76837158203125e-06 36.697509765625 0.6543741226196289 38.28826904296875 1.963344573974609 39.59723281860352 C 3.272104263305664 40.90599060058594 4.864234924316406 41.56056213378906 6.740734577178955 41.56056213378906 C 8.615854263305664 41.56056213378906 10.19833469390869 40.90619277954102 11.48681449890137 39.59723281860352 C 12.77273464202881 38.28847122192383 13.41746425628662 36.697509765625 13.41746425628662 34.81864929199219 L 13.41746425628662 6.675350189208984 C 13.41746425628662 4.842182159423828 12.76308441162109 3.271892547607422 11.45412445068359 1.963130950927734 C 10.14516448974609 0.6543693542480469 8.573715209960938 0 6.740734577178955 0 M 6.740734577178955 -4 C 9.623584747314453 -4 12.23142433166504 -2.916107177734375 14.28233432769775 -0.865509033203125 C 16.33335494995117 1.185192108154297 17.41746520996094 3.792781829833984 17.41746520996094 6.675350189208984 L 17.41746520996094 34.81864929199219 C 17.41746520996094 37.72980117797852 16.35330390930176 40.35161972045898 14.34002494812012 42.40065002441406 C 12.30425453186035 44.46879196166992 9.67735481262207 45.56056213378906 6.740734577178955 45.56056213378906 C 3.815834045410156 45.56056213378906 1.185784339904785 44.47653198242188 -0.8650856018066406 42.4256591796875 C -2.91595458984375 40.37480163574219 -3.999996185302734 37.74433135986328 -3.999996185302734 34.81864929199219 L -3.999996185302734 6.675350189208984 C -3.999996185302734 3.793079376220703 -2.91595458984375 1.185562133789063 -0.8650751113891602 -0.8653106689453125 C 1.185654640197754 -2.916038513183594 3.815704345703125 -4 6.740734577178955 -4 Z" stroke="none" fill="#fff"/>
          </g>
          <g id="Path_3506" data-name="Path 3506" transform="translate(15.775 0)" fill="#a4c639">
            <path d="M 62.53979873657227 36.16581344604492 L 60.53979873657227 36.16581344604492 L -2.53906250691216e-06 36.16581344604492 L -2.00000262260437 36.16581344604492 L -2.00000262260437 34.16581344604492 C -2.00000262260437 28.69366455078125 -0.4820025265216827 23.58147430419922 2.51182746887207 18.97123527526855 C 5.118483543395996 14.95939922332764 8.553284645080566 11.68573951721191 12.74065208435059 9.217674255371094 L 9.041287422180176 2.393635272979736 C 8.545437812805176 1.474615216255188 8.588137626647949 0.6960551738739014 8.7109375 0.2041251808404922 C 8.840977668762207 -0.3167848289012909 9.190017700195313 -1.051514863967896 10.11437702178955 -1.593554854393005 L 10.19730758666992 -1.642184853553772 L 10.28451728820801 -1.682634830474854 C 10.73777770996094 -1.892874836921692 11.19677734375 -1.999474763870239 11.64877700805664 -1.999474763870239 C 12.68119716644287 -1.999474763870239 13.59641742706299 -1.448854804039001 14.15976715087891 -0.4888148009777069 L 14.17566776275635 -0.4617248177528381 L 14.19069766998291 -0.4341448247432709 L 18.04545402526855 6.634538173675537 C 21.9344367980957 5.159633636474609 26.04924583435059 4.413005352020264 30.30277824401855 4.413005352020264 C 34.55568313598633 4.413005352020264 38.67029571533203 5.159581661224365 42.56021881103516 6.634647846221924 L 46.41485595703125 -0.4341148138046265 L 46.42894744873047 -0.4599648118019104 L 46.44379806518555 -0.4853848218917847 C 47.00606918334961 -1.447944760322571 47.92167663574219 -2.000004768371582 48.95586776733398 -2.000004768371582 C 49.40866851806641 -2.000004768371582 49.86846923828125 -1.893004775047302 50.3224983215332 -1.681964755058289 L 50.40806579589844 -1.642194867134094 L 50.48950576782227 -1.594544768333435 C 51.41437911987305 -1.053404808044434 51.76366806030273 -0.3178348243236542 51.89382934570313 0.2039451897144318 C 52.0163688659668 0.6951851844787598 52.05924606323242 1.472735166549683 51.56768798828125 2.387325286865234 L 51.56599807739258 2.390465259552002 L 51.56429672241211 2.39360523223877 L 47.86134719848633 9.22453784942627 C 52.00966262817383 11.6920690536499 55.42379379272461 14.96352291107178 58.02764892578125 18.97076606750488 C 61.02184677124023 23.58292579650879 62.53979873657227 28.69504547119141 62.53979873657227 34.16581344604492 L 62.53979873657227 36.16581344604492 Z M 44.11172866821289 20.13121604919434 C 43.96244812011719 20.13121604919434 43.8664665222168 20.15613555908203 43.72478866577148 20.29776573181152 C 43.5828971862793 20.4397144317627 43.55782699584961 20.53501510620117 43.55782699584961 20.68256568908691 C 43.55782699584961 20.83038520812988 43.58264923095703 20.92551612854004 43.72370910644531 21.0662956237793 L 43.72590637207031 21.06849479675293 L 43.72810745239258 21.07070541381836 C 43.86830902099609 21.21150588989258 43.96351623535156 21.23628425598145 44.11172866821289 21.23628425598145 C 44.26323699951172 21.23628425598145 44.3289680480957 21.20849609375 44.43141555786133 21.10113525390625 C 44.55642700195313 20.97054481506348 44.59789657592773 20.8654842376709 44.59789657592773 20.68256568908691 C 44.59789657592773 20.4990062713623 44.55770874023438 20.39719009399414 44.43277359008789 20.26542472839355 C 44.33003616333008 20.15888595581055 44.26344299316406 20.13121604919434 44.11172866821289 20.13121604919434 Z M 16.4914665222168 20.13121604919434 C 16.3382682800293 20.13121604919434 16.27211761474609 20.15891456604004 16.16972732543945 20.26591491699219 C 16.04704666137695 20.39445495605469 16.00508689880371 20.50001525878906 16.00508689880371 20.68256568908691 C 16.00508689880371 20.86771583557129 16.04509735107422 20.96895599365234 16.16972732543945 21.0992259979248 C 16.27409744262695 21.20880508422852 16.33957672119141 21.23628425598145 16.4914665222168 21.23628425598145 C 16.63919830322266 21.23628425598145 16.73442840576172 21.21130561828613 16.87607765197754 21.0693244934082 C 17.01865768432617 20.92640495300293 17.04488754272461 20.82561492919922 17.0451774597168 20.67861557006836 C 17.0451774597168 20.53637886047363 17.01988410949707 20.44102096557617 16.87663650512695 20.29639053344727 C 16.73580741882324 20.15684509277344 16.63617515563965 20.13121604919434 16.4914665222168 20.13121604919434 Z" stroke="none"/>
            <path d="M 48.95585250854492 -3.814697265625e-06 C 48.63568115234375 -2.288818359375e-05 48.3740348815918 0.1753768920898438 48.17075729370117 0.5233802795410156 L 43.45874404907227 9.164438247680664 C 39.31247329711914 7.331262588500977 34.92716979980469 6.413003921508789 30.30276870727539 6.413003921508789 C 25.67740249633789 6.413003921508789 21.29170989990234 7.331462860107422 17.14703750610352 9.164438247680664 L 12.434814453125 0.5233802795410156 C 12.23062896728516 0.1754074096679688 11.96861267089844 0.00052642822265625 11.64878463745117 0.00052642822265625 C 11.48897171020508 0.00052642822265625 11.31475448608398 0.04417037963867188 11.12604904174805 0.1316986083984375 C 10.60183715820313 0.4390983581542969 10.49334335327148 0.8729209899902344 10.79954528808594 1.440464019775391 L 15.44678115844727 10.01299095153809 C 10.73456954956055 12.41606140136719 6.981578826904297 15.76280403137207 4.189178466796875 20.06048583984375 C 1.396793365478516 24.36053276062012 3.814697265625e-06 29.05955696105957 3.814697265625e-06 34.16580200195313 L 60.53979110717773 34.16580200195313 C 60.53979110717773 29.06073379516602 59.14280319213867 24.36152076721191 56.35060501098633 20.06048583984375 C 53.55801391601563 15.76280403137207 49.82668685913086 12.41606140136719 45.15898132324219 10.01299095153809 L 49.80601501464844 1.440464019775391 C 50.11104965209961 0.8729209899902344 50.00253295898438 0.4377212524414063 49.47950744628906 0.1316986083984375 C 49.29037857055664 0.04378890991210938 49.11579132080078 7.62939453125e-06 48.95585250854492 -3.814697265625e-06 M 16.49147415161133 23.23628616333008 C 15.79238128662109 23.23628616333008 15.2043571472168 22.98560333251953 14.72465133666992 22.48187446594238 C 14.24493408203125 21.98049736022949 14.00508499145508 21.38263893127441 14.00508499145508 20.68256759643555 C 14.00508499145508 19.98486328125 14.24493408203125 19.38581466674805 14.72465133666992 18.88327407836914 C 15.2043571472168 18.38189697265625 15.79375457763672 18.1312141418457 16.49147415161133 18.1312141418457 C 17.18916702270508 18.1312141418457 17.78939056396484 18.38189697265625 18.29194641113281 18.88327407836914 C 18.79331970214844 19.38700294494629 19.04516983032227 19.98486328125 19.04516983032227 20.68256759643555 C 19.04380416870117 21.38145065307617 18.79213333129883 21.98049736022949 18.29194641113281 22.48187446594238 C 17.78939056396484 22.98560333251953 17.18916702270508 23.23628616333008 16.49147415161133 23.23628616333008 M 44.11172103881836 23.23628616333008 C 43.41246032714844 23.23628616333008 42.81242752075195 22.98560333251953 42.31085205078125 22.48187446594238 C 41.80852127075195 21.98049736022949 41.55782699584961 21.38263893127441 41.55782699584961 20.68256759643555 C 41.55782699584961 19.98486328125 41.80852127075195 19.38581466674805 42.31085205078125 18.88327407836914 C 42.81242752075195 18.38189697265625 43.41246032714844 18.1312141418457 44.11172103881836 18.1312141418457 C 44.80942535400391 18.1312141418457 45.3974609375 18.38189697265625 45.87834548950195 18.88327407836914 C 46.35843658447266 19.38700294494629 46.59789657592773 19.98486328125 46.59789657592773 20.68256759643555 C 46.59789657592773 21.38145065307617 46.35826110839844 21.98049736022949 45.87834548950195 22.48187446594238 C 45.39763641357422 22.98560333251953 44.80826187133789 23.23628616333008 44.11172103881836 23.23628616333008 M 48.95579147338867 -3.999996185302734 C 49.70198059082031 -3.999996185302734 50.44542694091797 -3.830303192138672 51.16546249389648 -3.495632171630859 L 51.33663940429688 -3.416080474853516 L 51.49955749511719 -3.320751190185547 C 53.88286209106445 -1.926265716552734 54.65240478515625 0.8725204467773438 53.3293571472168 3.334144592285156 L 53.32598114013672 3.340450286865234 L 53.32256698608398 3.346733093261719 L 50.51005554199219 8.535057067871094 C 54.19683074951172 11.01739501953125 57.27948379516602 14.14871406555176 59.70469665527344 17.88102722167969 C 62.91334533691406 22.82353210449219 64.539794921875 28.30205154418945 64.539794921875 34.16580200195313 L 64.539794921875 38.16580200195313 L 60.53979110717773 38.16580200195313 L 3.814697265625e-06 38.16580200195313 L -4 38.16580200195313 L -4 34.16580200195313 C -4 28.30056762695313 -2.373443603515625 22.82189750671387 0.8344612121582031 17.88197898864746 C 3.264518737792969 14.1419734954834 6.367179870605469 11.00580596923828 10.08834457397461 8.521623611450195 L 7.283027648925781 3.346792221069336 L 7.281120300292969 3.343273162841797 L 7.279216766357422 3.339744567871094 C 5.951850891113281 0.879486083984375 6.718719482421875 -1.920845031738281 9.1026611328125 -3.318798065185547 L 9.268520355224609 -3.416053771972656 L 9.44293212890625 -3.4969482421875 C 10.16182708740234 -3.830410003662109 10.90398025512695 -3.999477386474609 11.64878082275391 -3.999477386474609 C 13.3831787109375 -3.999477386474609 14.96672058105469 -3.065467834472656 15.88473129272461 -1.500984191894531 L 15.91651916503906 -1.446819305419922 L 15.94657897949219 -1.391689300537109 L 18.98701095581055 4.183710098266602 C 22.60985565185547 3.007411956787109 26.40167999267578 2.413003921508789 30.30276870727539 2.413003921508789 C 34.20331954956055 2.413003921508789 37.9951171875 3.007444381713867 41.61861419677734 4.183870315551758 L 44.65895843505859 -1.391620635986328 L 44.68715667724609 -1.443336486816406 L 44.71686172485352 -1.494197845458984 C 45.63341522216797 -3.063243865966797 47.21806335449219 -3.999996185302734 48.95579147338867 -3.999996185302734 Z" stroke="none" fill="#fff"/>
          </g>
          <g id="Path_3507" data-name="Path 3507" transform="translate(16.035 36.52)" fill="#a4c639">
            <path d="M 41.29669570922852 74.38932800292969 C 38.87973022460938 74.38932800292969 36.79657363891602 73.53168487548828 35.10508728027344 71.84021759033203 C 33.41375350952148 70.14891052246094 32.5561637878418 68.06535339355469 32.5561637878418 65.64743041992188 L 32.5561637878418 52.79004287719727 L 27.5243968963623 52.79004287719727 L 27.5243968963623 65.64743041992188 C 27.5243968963623 68.06520080566406 26.6667423248291 70.14875030517578 24.97526359558105 71.84021759033203 C 23.2838077545166 73.53168487548828 21.20065307617188 74.38932800292969 18.78366470336914 74.38932800292969 C 16.40967559814453 74.38932800292969 14.34842014312744 73.53163909912109 12.65713119506836 71.84009552001953 C 10.96689605712891 70.14964294433594 10.10936737060547 68.06749725341797 10.10832118988037 65.65172576904297 L 10.05086803436279 52.78866577148438 L 7.198386669158936 52.78866577148438 C 4.651752948760986 52.78866577148438 2.458553075790405 51.88749694824219 0.67970871925354 50.11018753051758 C -1.098624587059021 48.33184051513672 -2.000002384185791 46.13836288452148 -2.000002384185791 43.5900764465332 L -2.000002384185791 -2.665201918716775e-06 L -2.000002384185791 -2.00000262260437 L -2.414279606455239e-06 -2.00000262260437 L 60.07977676391602 -2.00000262260437 L 62.07977676391602 -2.00000262260437 L 62.07977676391602 -2.665201918716775e-06 L 62.07977676391602 43.5914421081543 C 62.07977676391602 46.13924026489258 61.17836380004883 48.3326301574707 59.40057373046875 50.11066436767578 C 57.6188850402832 51.88904190063477 55.44778823852539 52.79004287719727 52.94616317749023 52.79004287719727 L 50.0372314453125 52.79004287719727 L 50.0372314453125 65.64743041992188 C 50.0372314453125 68.06533050537109 49.17965316772461 70.14888763427734 47.48830795288086 71.84021759033203 C 45.79681015014648 73.53168487548828 43.71365356445313 74.38932800292969 41.29669570922852 74.38932800292969 Z" stroke="none"/>
            <path d="M 41.29668807983398 72.38932800292969 C 43.17200469970703 72.38932800292969 44.7651252746582 71.73495483398438 46.07410049438477 70.42599487304688 C 47.38306045532227 69.11705017089844 48.0372314453125 67.52391815185547 48.0372314453125 65.64743804931641 L 48.0372314453125 50.7900390625 L 52.9461669921875 50.7900390625 C 54.9093132019043 50.7900390625 56.58808517456055 50.09213256835938 57.98627471923828 48.6965446472168 C 59.38168716430664 47.30093002319336 60.07978057861328 45.60027694702148 60.07978057861328 43.59144973754883 L 60.07978057861328 -2.665201918716775e-06 L 6.474609563156264e-06 -2.665201918716775e-06 L 6.474609563156264e-06 43.5900764465332 C 6.474609563156264e-06 45.59910583496094 0.6976997852325439 47.29974365234375 2.093313217163086 48.69535827636719 C 3.490099906921387 50.09095764160156 5.190739631652832 50.78866577148438 7.19839334487915 50.78866577148438 L 12.04195308685303 50.78866577148438 L 12.10831356048584 65.64743804931641 C 12.10831356048584 67.52372741699219 12.76268672943115 69.11705017089844 14.07145977020264 70.42599487304688 C 15.38020610809326 71.73495483398438 16.95187377929688 72.38932800292969 18.78365898132324 72.38932800292969 C 20.65897941589355 72.38932800292969 22.25209999084473 71.73495483398438 23.56105995178223 70.42599487304688 C 24.8700065612793 69.11705017089844 25.52439308166504 67.52391815185547 25.52439308166504 65.64743804931641 L 25.52439308166504 50.7900390625 L 34.55616760253906 50.7900390625 L 34.55616760253906 65.64743804931641 C 34.55616760253906 67.52372741699219 35.2103385925293 69.11705017089844 36.5192985534668 70.42599487304688 C 37.8282585144043 71.73495483398438 39.41999435424805 72.38932800292969 41.29668807983398 72.38932800292969 M 41.29668807983398 76.38932800292969 C 38.37179183959961 76.38932800292969 35.74174118041992 75.30530548095703 33.69087219238281 73.25442504882813 C 31.64014053344727 71.20370483398438 30.55616569519043 68.57324981689453 30.55616569519043 65.64743804931641 L 30.55616569519043 54.7900390625 L 29.52439308166504 54.7900390625 L 29.52439308166504 65.64743804931641 C 29.52439308166504 68.57310485839844 28.44036674499512 71.20355987548828 26.38948631286621 73.25442504882813 C 24.33861923217773 75.30530548095703 21.70856666564941 76.38932800292969 18.78365898132324 76.38932800292969 C 15.90107345581055 76.38932800292969 13.29348659515381 75.30522155761719 11.24280643463135 73.25419616699219 C 9.194598197937012 71.20571136474609 8.110828399658203 68.57881164550781 8.108317375183105 65.65737915039063 L 8.05977725982666 54.78866577148438 L 7.19839334487915 54.78866577148438 C 4.145966529846191 54.78866577148438 1.403019785881042 53.66010284423828 -0.7339135408401489 51.52498245239258 C -2.871020078659058 49.38787841796875 -3.999993562698364 46.64445114135742 -3.999993562698364 43.5900764465332 L -3.999993562698364 -2.665201918716775e-06 L -3.999993562698364 -4.000002861022949 L 6.474609563156264e-06 -4.000002861022949 L 60.07978057861328 -4.000002861022949 L 64.07978057861328 -4.000002861022949 L 64.07978057861328 -2.665201918716775e-06 L 64.07978057861328 43.59144973754883 C 64.07978057861328 46.645263671875 62.9508056640625 49.38855743408203 60.81489944458008 51.5247688293457 C 58.67379379272461 53.66190338134766 55.95380783081055 54.7900390625 52.9461669921875 54.7900390625 L 52.0372314453125 54.7900390625 L 52.0372314453125 65.64743804931641 C 52.0372314453125 68.57324981689453 50.9532585144043 71.20370483398438 48.90251159667969 73.25444030761719 C 46.85163497924805 75.30530548095703 44.22158050537109 76.38932800292969 41.29668807983398 76.38932800292969 Z" stroke="none" fill="#fff"/>
          </g>
          <g id="Path_3508" data-name="Path 3508" transform="translate(78.737 35.277)" fill="#a4c639">
            <path d="M 6.675563812255859 43.56056213378906 C 4.301673412322998 43.56056213378906 2.240373611450195 42.70291137695313 0.5489335656166077 41.01143264770508 C -1.142406463623047 39.32009124755859 -1.999996423721313 37.23653030395508 -1.999996423721313 34.81864929199219 L -1.999996423721313 6.675351142883301 C -1.999996423721313 4.253411293029785 -1.138636469841003 2.177520990371704 0.560153603553772 0.5053210854530334 C 2.252773523330688 -1.157548904418945 4.309833526611328 -1.999998927116394 6.675563812255859 -1.999998927116394 C 9.084353446960449 -1.999998927116394 11.16327381134033 -1.157558917999268 12.85456371307373 0.5039210915565491 C 14.55472373962402 2.177261114120483 15.41610336303711 4.253190994262695 15.41610336303711 6.675351142883301 L 15.41610336303711 34.81864929199219 C 15.41610336303711 37.23651123046875 14.55853366851807 39.32006072998047 12.86720371246338 41.01143264770508 C 11.17567348480225 42.70292282104492 9.092514038085938 43.56056213378906 6.675563812255859 43.56056213378906 Z" stroke="none"/>
            <path d="M 6.675563812255859 0 C 4.842403411865234 0 3.272093772888184 0.6447296142578125 1.963163375854492 1.930652618408203 C 0.654383659362793 3.218929290771484 3.814697265625e-06 4.801410675048828 3.814697265625e-06 6.675350189208984 L 3.814697265625e-06 34.81864929199219 C 3.814697265625e-06 36.697509765625 0.6542034149169922 38.28826904296875 1.963163375854492 39.59723281860352 C 3.272093772888184 40.90619277954102 4.843564033508301 41.56056213378906 6.675563812255859 41.56056213378906 C 8.550873756408691 41.56056213378906 10.14398384094238 40.90619277954102 11.45297336578369 39.59723281860352 C 12.76190376281738 38.28826904296875 13.41610336303711 36.697509765625 13.41610336303711 34.81864929199219 L 13.41610336303711 6.675350189208984 C 13.41610336303711 4.801212310791016 12.76190376281738 3.218929290771484 11.45297336578369 1.930652618408203 C 10.14398384094238 0.6447296142578125 8.550873756408691 0 6.675563812255859 0 M 6.675563812255859 -4 C 9.585594177246094 -4 12.20691394805908 -2.935928344726563 14.25614356994629 -0.9228096008300781 C 16.32433319091797 1.112751007080078 17.41610336303711 3.739242553710938 17.41610336303711 6.675350189208984 L 17.41610336303711 34.81864929199219 C 17.41610336303711 37.74441146850586 16.3321533203125 40.37486267089844 14.28143310546875 42.42562103271484 C 12.23047351837158 44.47653961181641 9.600423812866211 45.56056213378906 6.675563812255859 45.56056213378906 C 3.793133735656738 45.56056213378906 1.185553550720215 44.47652053833008 -0.8652963638305664 42.42562103271484 C -2.916027069091797 40.37490081787109 -3.999996185302734 37.74444198608398 -3.999996185302734 34.81864929199219 L -3.999996185302734 6.675350189208984 C -3.999996185302734 3.739490509033203 -2.908275604248047 1.113059997558594 -0.8428468704223633 -0.9200096130371094 C 1.209103584289551 -2.935897827148438 3.807973861694336 -4 6.675563812255859 -4 Z" stroke="none" fill="#fff"/>
          </g>
        </g>
      </g>
      <g id="Group_1688" data-name="Group 1688" transform="translate(7056.82 538)">
        <g id="Gear" transform="translate(0 26.961)">
          <g id="Group_1662" data-name="Group 1662" transform="translate(95.784 99.373)">
            <path id="Path_3449" data-name="Path 3449" d="M281.084,307.088c0-.6-.032-1.2-.083-1.791l3.51-1.95a23.842,23.842,0,0,0-1.306-4.868l-4.009.067a20.268,20.268,0,0,0-1.795-3.1l2.062-3.439a24.14,24.14,0,0,0-3.565-3.565l-3.439,2.063a20.222,20.222,0,0,0-3.1-1.795l.066-4.009a23.777,23.777,0,0,0-4.867-1.306l-1.95,3.51c-.59-.052-1.186-.083-1.791-.083s-1.2.032-1.79.083l-1.95-3.51a23.777,23.777,0,0,0-4.867,1.306l.066,4.009a20.224,20.224,0,0,0-3.1,1.795l-3.439-2.063a24.138,24.138,0,0,0-3.565,3.565l2.062,3.439a20.213,20.213,0,0,0-1.795,3.1l-4.009-.067a23.843,23.843,0,0,0-1.306,4.868l3.51,1.95c-.052.591-.083,1.187-.083,1.791s.032,1.2.083,1.791l-3.51,1.95a23.818,23.818,0,0,0,1.306,4.868l4.009-.066a20.239,20.239,0,0,0,1.795,3.1l-2.062,3.44a24.131,24.131,0,0,0,3.565,3.565l3.439-2.062a20.342,20.342,0,0,0,3.1,1.795l-.066,4.009a23.824,23.824,0,0,0,4.867,1.306l1.95-3.51c.591.052,1.186.083,1.79.083s1.2-.031,1.791-.083l1.95,3.51a23.824,23.824,0,0,0,4.867-1.306l-.066-4.009a20.34,20.34,0,0,0,3.1-1.795l3.439,2.062a24.132,24.132,0,0,0,3.565-3.565l-2.062-3.44a20.294,20.294,0,0,0,1.795-3.1l4.009.066a23.83,23.83,0,0,0,1.306-4.868l-3.51-1.95C281.052,308.288,281.084,307.691,281.084,307.088Zm-20.267,13.759a13.759,13.759,0,1,1,13.758-13.759A13.759,13.759,0,0,1,260.816,320.847Z" transform="translate(-237.122 -283.394)" fill="#407bff"/>
            <path id="Path_3450" data-name="Path 3450" d="M281.084,307.088c0-.6-.032-1.2-.083-1.791l3.51-1.95a23.842,23.842,0,0,0-1.306-4.868l-4.009.067a20.268,20.268,0,0,0-1.795-3.1l2.062-3.439a24.14,24.14,0,0,0-3.565-3.565l-3.439,2.063a20.222,20.222,0,0,0-3.1-1.795l.066-4.009a23.777,23.777,0,0,0-4.867-1.306l-1.95,3.51c-.59-.052-1.186-.083-1.791-.083s-1.2.032-1.79.083l-1.95-3.51a23.777,23.777,0,0,0-4.867,1.306l.066,4.009a20.224,20.224,0,0,0-3.1,1.795l-3.439-2.063a24.138,24.138,0,0,0-3.565,3.565l2.062,3.439a20.213,20.213,0,0,0-1.795,3.1l-4.009-.067a23.843,23.843,0,0,0-1.306,4.868l3.51,1.95c-.052.591-.083,1.187-.083,1.791s.032,1.2.083,1.791l-3.51,1.95a23.818,23.818,0,0,0,1.306,4.868l4.009-.066a20.239,20.239,0,0,0,1.795,3.1l-2.062,3.44a24.131,24.131,0,0,0,3.565,3.565l3.439-2.062a20.342,20.342,0,0,0,3.1,1.795l-.066,4.009a23.824,23.824,0,0,0,4.867,1.306l1.95-3.51c.591.052,1.186.083,1.79.083s1.2-.031,1.791-.083l1.95,3.51a23.824,23.824,0,0,0,4.867-1.306l-.066-4.009a20.34,20.34,0,0,0,3.1-1.795l3.439,2.062a24.132,24.132,0,0,0,3.565-3.565l-2.062-3.44a20.294,20.294,0,0,0,1.795-3.1l4.009.066a23.83,23.83,0,0,0,1.306-4.868l-3.51-1.95C281.052,308.288,281.084,307.691,281.084,307.088Zm-20.267,13.759a13.759,13.759,0,1,1,13.758-13.759A13.759,13.759,0,0,1,260.816,320.847Z" transform="translate(-237.122 -283.394)" fill="#fff" opacity="0.5"/>
          </g>
          <g id="Group_1663" data-name="Group 1663">
            <path id="Path_3451" data-name="Path 3451" d="M135.943,162.492c0-.439-.023-.872-.06-1.3l2.552-1.417a17.312,17.312,0,0,0-.949-3.539l-2.914.048a14.7,14.7,0,0,0-1.305-2.255l1.5-2.5a17.513,17.513,0,0,0-2.592-2.591l-2.5,1.5a14.663,14.663,0,0,0-2.255-1.305l.048-2.914a17.351,17.351,0,0,0-3.538-.95l-1.417,2.552c-.429-.037-.863-.06-1.3-.06s-.872.023-1.3.06l-1.417-2.552a17.358,17.358,0,0,0-3.539.95l.048,2.914a14.7,14.7,0,0,0-2.255,1.305l-2.5-1.5a17.508,17.508,0,0,0-2.591,2.591l1.5,2.5a14.7,14.7,0,0,0-1.305,2.255l-2.914-.048a17.265,17.265,0,0,0-.949,3.539l2.551,1.417c-.037.43-.06.863-.06,1.3s.023.873.06,1.3l-2.551,1.417a17.259,17.259,0,0,0,.949,3.538l2.914-.048a14.688,14.688,0,0,0,1.305,2.254l-1.5,2.5a17.513,17.513,0,0,0,2.591,2.592l2.5-1.5A14.7,14.7,0,0,0,115,175.854l-.048,2.914a17.311,17.311,0,0,0,3.539.949l1.417-2.552c.429.038.863.06,1.3.06s.873-.022,1.3-.06l1.417,2.552a17.3,17.3,0,0,0,3.538-.949l-.048-2.914a14.662,14.662,0,0,0,2.255-1.305l2.5,1.5a17.518,17.518,0,0,0,2.592-2.592l-1.5-2.5a14.688,14.688,0,0,0,1.305-2.254l2.914.048a17.305,17.305,0,0,0,.949-3.538l-2.552-1.417C135.92,163.365,135.943,162.932,135.943,162.492ZM121.209,168.3a5.808,5.808,0,1,1,5.808-5.808A5.807,5.807,0,0,1,121.209,168.3Z" transform="translate(-103.984 -145.267)" fill="#407bff"/>
            <path id="Path_3452" data-name="Path 3452" d="M135.943,162.492c0-.439-.023-.872-.06-1.3l2.552-1.417a17.312,17.312,0,0,0-.949-3.539l-2.914.048a14.7,14.7,0,0,0-1.305-2.255l1.5-2.5a17.513,17.513,0,0,0-2.592-2.591l-2.5,1.5a14.663,14.663,0,0,0-2.255-1.305l.048-2.914a17.351,17.351,0,0,0-3.538-.95l-1.417,2.552c-.429-.037-.863-.06-1.3-.06s-.872.023-1.3.06l-1.417-2.552a17.358,17.358,0,0,0-3.539.95l.048,2.914a14.7,14.7,0,0,0-2.255,1.305l-2.5-1.5a17.508,17.508,0,0,0-2.591,2.591l1.5,2.5a14.7,14.7,0,0,0-1.305,2.255l-2.914-.048a17.265,17.265,0,0,0-.949,3.539l2.551,1.417c-.037.43-.06.863-.06,1.3s.023.873.06,1.3l-2.551,1.417a17.259,17.259,0,0,0,.949,3.538l2.914-.048a14.688,14.688,0,0,0,1.305,2.254l-1.5,2.5a17.513,17.513,0,0,0,2.591,2.592l2.5-1.5A14.7,14.7,0,0,0,115,175.854l-.048,2.914a17.311,17.311,0,0,0,3.539.949l1.417-2.552c.429.038.863.06,1.3.06s.873-.022,1.3-.06l1.417,2.552a17.3,17.3,0,0,0,3.538-.949l-.048-2.914a14.662,14.662,0,0,0,2.255-1.305l2.5,1.5a17.518,17.518,0,0,0,2.592-2.592l-1.5-2.5a14.688,14.688,0,0,0,1.305-2.254l2.914.048a17.305,17.305,0,0,0,.949-3.538l-2.552-1.417C135.92,163.365,135.943,162.932,135.943,162.492ZM121.209,168.3a5.808,5.808,0,1,1,5.808-5.808A5.807,5.807,0,0,1,121.209,168.3Z" transform="translate(-103.984 -145.267)" fill="#fff" opacity="0.6"/>
          </g>
        </g>
        <g id="Device" transform="translate(5.01)">
          <g id="Group_1669" data-name="Group 1669">
            <g id="Group_1664" data-name="Group 1664" transform="translate(76.485)">
              <path id="Path_3453" data-name="Path 3453" d="M254.782,107.791H236.1L217.262,323.124h18.681a17.455,17.455,0,0,0,17.051-15.679l16.1-183.975A14.137,14.137,0,0,0,254.782,107.791Z" transform="translate(-217.262 -107.791)" fill="#263238"/>
            </g>
            <path id="Path_3454" data-name="Path 3454" d="M202.289,323.124H125.317a14.138,14.138,0,0,1-14.307-15.679l16.1-183.975a17.455,17.455,0,0,1,17.051-15.679h76.973a14.137,14.137,0,0,1,14.307,15.679l-16.1,183.975A17.454,17.454,0,0,1,202.289,323.124Z" transform="translate(-110.948 -107.791)" fill="#407bff"/>
            <g id="Group_1665" data-name="Group 1665" transform="translate(3.612 3.597)">
              <path id="Path_3455" data-name="Path 3455" d="M222.222,112.791H202.216a2.9,2.9,0,0,0-2.781,2.274l-.135.627a7.093,7.093,0,0,1-6.792,5.553h-19.02a5.711,5.711,0,0,1-5.821-5.553l-.025-.627a2.339,2.339,0,0,0-2.384-2.274H145.25a13.451,13.451,0,0,0-13.139,12.081l-16.1,183.975A10.894,10.894,0,0,0,127.04,320.93h76.973a13.451,13.451,0,0,0,13.139-12.082l16.1-183.975A10.894,10.894,0,0,0,222.222,112.791Z" transform="translate(-115.969 -112.791)" fill="#407bff"/>
              <path id="Path_3456" data-name="Path 3456" d="M222.222,112.791H202.216a2.9,2.9,0,0,0-2.781,2.274l-.135.627a7.093,7.093,0,0,1-6.792,5.553h-19.02a5.711,5.711,0,0,1-5.821-5.553l-.025-.627a2.339,2.339,0,0,0-2.384-2.274H145.25a13.451,13.451,0,0,0-13.139,12.081l-16.1,183.975A10.894,10.894,0,0,0,127.04,320.93h76.973a13.451,13.451,0,0,0,13.139-12.082l16.1-183.975A10.894,10.894,0,0,0,222.222,112.791Z" transform="translate(-115.969 -112.791)" fill="#fff" opacity="0.7"/>
            </g>
            <g id="Group_1666" data-name="Group 1666" transform="translate(63.482 4.107)" opacity="0.2">
              <path id="Path_3457" data-name="Path 3457" d="M202.251,115.028a1.7,1.7,0,0,1-1.663,1.529,1.378,1.378,0,0,1-1.395-1.529,1.7,1.7,0,0,1,1.663-1.529A1.379,1.379,0,0,1,202.251,115.028Z" transform="translate(-199.188 -113.499)"/>
              <path id="Path_3458" data-name="Path 3458" d="M216,113.5h-5.242a1.7,1.7,0,0,0-1.663,1.529,1.379,1.379,0,0,0,1.4,1.529h5.242a1.7,1.7,0,0,0,1.663-1.529A1.379,1.379,0,0,0,216,113.5Z" transform="translate(-201.967 -113.499)"/>
            </g>
            <g id="Group_1667" data-name="Group 1667" transform="translate(28.452 7.164)">
              <path id="Path_3459" data-name="Path 3459" d="M150.5,123.868h1.619l.142-1.619h-1.619Z" transform="translate(-150.496 -119.012)" fill="#407bff"/>
              <path id="Path_3460" data-name="Path 3460" d="M155.138,121.618,155,123.237h1.619l.142-1.619L156.9,120H155.28Z" transform="translate(-151.759 -118.381)" fill="#407bff"/>
              <path id="Path_3461" data-name="Path 3461" d="M159.921,117.749l-.142,1.619-.142,1.619-.142,1.619h1.619l.142-1.619.142-1.619.142-1.619Z" transform="translate(-153.022 -117.749)" fill="#407bff"/>
            </g>
            <path id="Path_3462" data-name="Path 3462" d="M256.4,117.9l-.1,1.187h-.791l-.208,2.374h.791l-.1,1.187h7.122l.415-4.748Zm2.854,3.561h-2.374l.208-2.374h2.374Z" transform="translate(-151.448 -110.627)" fill="#407bff"/>
            <g id="Group_1668" data-name="Group 1668" transform="translate(8.051 3.597)" opacity="0.4">
              <path id="Path_3463" data-name="Path 3463" d="M175.274,124.541,122.139,322.116a11.173,11.173,0,0,0,6.632,2.11h4.154l53.7-199.685Z" transform="translate(-122.139 -116.088)" fill="#fff"/>
              <path id="Path_3464" data-name="Path 3464" d="M231.223,112.791H211.216a2.9,2.9,0,0,0-2.781,2.274l-.135.627a7.1,7.1,0,0,1-6.547,5.541l-53.7,199.7H189.01L242.25,122.964A10.839,10.839,0,0,0,231.223,112.791Z" transform="translate(-129.408 -112.791)" fill="#fff"/>
            </g>
          </g>
        </g>
        <g id="Interface" transform="translate(1.92 16.143)">
          <g id="Group_1687" data-name="Group 1687">
            <path id="Path_3465" data-name="Path 3465" d="M166.729,178.756H143.3a2.586,2.586,0,0,1-2.617-2.868l2.236-25.561a3.194,3.194,0,0,1,3.119-2.868h23.426a2.587,2.587,0,0,1,2.618,2.868l-2.237,25.561A3.193,3.193,0,0,1,166.729,178.756Z" transform="translate(-116.198 -135.063)" fill="#fff"/>
            <path id="Path_3466" data-name="Path 3466" d="M238.884,201.216H187.711a2.586,2.586,0,0,1-2.617-2.868l4.2-48.021a3.192,3.192,0,0,1,3.119-2.868h51.173a2.586,2.586,0,0,1,2.617,2.868L242,198.349A3.192,3.192,0,0,1,238.884,201.216Z" transform="translate(-128.658 -135.063)" fill="#fff"/>
            <path id="Path_3467" data-name="Path 3467" d="M220.313,267.845H135.226a2.586,2.586,0,0,1-2.617-2.868l2.958-33.8a3.194,3.194,0,0,1,3.119-2.868h85.087a2.586,2.586,0,0,1,2.617,2.868l-2.958,33.8A3.194,3.194,0,0,1,220.313,267.845Z" transform="translate(-113.932 -157.746)" fill="#fff"/>
            <path id="Path_3468" data-name="Path 3468" d="M211.933,353.9H126.845a2.587,2.587,0,0,1-2.617-2.868l5.142-58.774a3.192,3.192,0,0,1,3.119-2.868h85.088a2.587,2.587,0,0,1,2.617,2.868l-5.142,58.774A3.192,3.192,0,0,1,211.933,353.9Z" transform="translate(-111.58 -174.884)" fill="#fff"/>
            <g id="Group_1670" data-name="Group 1670" transform="translate(15.305 5.735)">
              <path id="Path_3469" data-name="Path 3469" d="M153.982,169.5H130.555a2.586,2.586,0,0,1-2.617-2.868l2.236-25.561a3.194,3.194,0,0,1,3.119-2.868H156.72a2.587,2.587,0,0,1,2.617,2.868L157.1,166.63A3.192,3.192,0,0,1,153.982,169.5Z" transform="translate(-127.926 -138.201)" fill="#407bff"/>
              <path id="Path_3470" data-name="Path 3470" d="M153.982,169.5H130.555a2.586,2.586,0,0,1-2.617-2.868l2.236-25.561a3.194,3.194,0,0,1,3.119-2.868H156.72a2.587,2.587,0,0,1,2.617,2.868L157.1,166.63A3.192,3.192,0,0,1,153.982,169.5Z" transform="translate(-127.926 -138.201)" fill="#fff" opacity="0.4"/>
              <path id="Path_3471" data-name="Path 3471" d="M158.024,141.911a.642.642,0,0,0-.648-.71H133.949a.792.792,0,0,0-.772.71l-2.236,25.56a.641.641,0,0,0,.647.711h23.427a.791.791,0,0,0,.772-.711Z" transform="translate(-128.771 -139.043)" fill="#fff" opacity="0.8"/>
              <path id="Path_3472" data-name="Path 3472" d="M152.632,156.374c-.257,2.929-2.039,5.3-4.968,5.3s-4.3-2.374-4.04-5.3,2.039-5.3,4.968-5.3S152.888,153.445,152.632,156.374Z" transform="translate(-132.322 -141.812)" fill="#407bff"/>
              <path id="Path_3473" data-name="Path 3473" d="M154.457,171a6.009,6.009,0,0,0-5.9-4.4h-8.847a7.462,7.462,0,0,0-6.674,4.4l-1.86,4.1a.648.648,0,0,0,.483.208h23.427a.773.773,0,0,0,.519-.208Z" transform="translate(-128.837 -146.17)" fill="#407bff"/>
            </g>
            <g id="Group_1679" data-name="Group 1679" transform="translate(0 107.31)">
              <g id="Group_1672" data-name="Group 1672">
                <g id="Group_1671" data-name="Group 1671">
                  <path id="Path_3474" data-name="Path 3474" d="M194.368,343.9H109.281a2.586,2.586,0,0,1-2.617-2.868l5.142-58.774a3.194,3.194,0,0,1,3.119-2.868h85.087a2.586,2.586,0,0,1,2.617,2.868l-5.142,58.774A3.194,3.194,0,0,1,194.368,343.9Z" transform="translate(-106.652 -279.389)" fill="#407bff"/>
                  <path id="Path_3475" data-name="Path 3475" d="M194.368,343.9H109.281a2.586,2.586,0,0,1-2.617-2.868l5.142-58.774a3.194,3.194,0,0,1,3.119-2.868h85.087a2.586,2.586,0,0,1,2.617,2.868l-5.142,58.774A3.194,3.194,0,0,1,194.368,343.9Z" transform="translate(-106.652 -279.389)" fill="#fff" opacity="0.4"/>
                </g>
                <path id="Path_3476" data-name="Path 3476" d="M200.668,282.389H115.581a.792.792,0,0,0-.772.71l-5.142,58.774a.641.641,0,0,0,.647.71H195.4a.792.792,0,0,0,.772-.71l5.142-58.774A.641.641,0,0,0,200.668,282.389Z" transform="translate(-107.497 -280.231)" fill="#263238"/>
              </g>
              <g id="Group_1673" data-name="Group 1673" transform="translate(32.219 16.511)">
                <ellipse id="Ellipse_188" data-name="Ellipse 188" cx="11.634" cy="10.659" rx="11.634" ry="10.659" transform="translate(0 16.089) rotate(-43.748)" fill="#407bff"/>
                <path id="Path_3477" data-name="Path 3477" d="M177.846,322.008l-9.272,5.68.994-11.36Z" transform="translate(-156.245 -306.264)" fill="#fff" opacity="0.9"/>
              </g>
              <g id="Group_1675" data-name="Group 1675" transform="translate(5.677 51.109)">
                <path id="Path_3478" data-name="Path 3478" d="M187.825,353.737H116.512l.052-.6h71.314Z" transform="translate(-115.096 -351.189)" fill="#fff" opacity="0.8"/>
                <path id="Path_3479" data-name="Path 3479" d="M143.336,353.238a.9.9,0,0,1-.881.809H115.286a.73.73,0,0,1-.739-.809h0a.9.9,0,0,1,.881-.809H142.6a.73.73,0,0,1,.739.809Z" transform="translate(-114.544 -350.99)" fill="#407bff"/>
                <g id="Group_1674" data-name="Group 1674" transform="translate(73.547)" opacity="0.8">
                  <path id="Path_3480" data-name="Path 3480" d="M224.909,350.914h.917l-.069.79h.775l.112-1.274h-1.692Z" transform="translate(-219.056 -350.429)" fill="#fff"/>
                  <path id="Path_3481" data-name="Path 3481" d="M217.94,351.7l.069-.79h.917l.042-.485h-1.692l-.112,1.274Z" transform="translate(-216.883 -350.429)" fill="#fff"/>
                  <path id="Path_3482" data-name="Path 3482" d="M218.508,355.7h-.917l.069-.79h-.775l-.111,1.274h1.692Z" transform="translate(-216.773 -351.686)" fill="#fff"/>
                  <path id="Path_3483" data-name="Path 3483" d="M225.45,354.908l-.069.79h-.917l-.042.484h1.692l.111-1.274Z" transform="translate(-218.919 -351.686)" fill="#fff"/>
                </g>
              </g>
              <g id="Group_1678" data-name="Group 1678" transform="translate(38.708 56.362)">
                <g id="Group_1676" data-name="Group 1676" transform="translate(5.18)" opacity="0.8">
                  <path id="Path_3484" data-name="Path 3484" d="M167.656,361.121l2.767-1.7-2.47-1.7Z" transform="translate(-167.656 -357.731)" fill="#fff" opacity="0.9"/>
                  <path id="Path_3485" data-name="Path 3485" d="M171.583,357.979l-.133,1.516-.133,1.516h.7l.265-3.033Z" transform="translate(-168.684 -357.801)" fill="#fff" opacity="0.9"/>
                </g>
                <g id="Group_1677" data-name="Group 1677" transform="translate(11.232 0.179)" opacity="0.8">
                  <path id="Path_3486" data-name="Path 3486" d="M176.069,361.012h.919l.265-3.033h-.919Z" transform="translate(-176.069 -357.979)" fill="#fff" opacity="0.9"/>
                  <path id="Path_3487" data-name="Path 3487" d="M178.592,357.979l-.265,3.033h.919l.265-3.033Z" transform="translate(-176.703 -357.979)" fill="#fff" opacity="0.9"/>
                </g>
                <path id="Path_3488" data-name="Path 3488" d="M163.224,359.426l-2.767,1.7.3-3.39Z" transform="translate(-160.457 -357.731)" fill="#fff" opacity="0.8"/>
              </g>
            </g>
            <g id="Group_1681" data-name="Group 1681" transform="translate(5.557 62.64)">
              <path id="Path_3489" data-name="Path 3489" d="M202.092,256.839H117a2.586,2.586,0,0,1-2.617-2.868l2.958-33.805a3.194,3.194,0,0,1,3.119-2.868h85.087a2.586,2.586,0,0,1,2.617,2.868l-2.958,33.805A3.193,3.193,0,0,1,202.092,256.839Z" transform="translate(-114.376 -217.298)" fill="#407bff"/>
              <path id="Path_3490" data-name="Path 3490" d="M202.092,256.839H117a2.586,2.586,0,0,1-2.617-2.868l2.958-33.805a3.194,3.194,0,0,1,3.119-2.868h85.087a2.586,2.586,0,0,1,2.617,2.868l-2.958,33.805A3.193,3.193,0,0,1,202.092,256.839Z" transform="translate(-114.376 -217.298)" fill="#fff" opacity="0.4"/>
              <path id="Path_3491" data-name="Path 3491" d="M206.1,219.8H121.011a1.193,1.193,0,0,0-1.163,1.07l-2.958,33.805a.965.965,0,0,0,.976,1.069h85.087a1.192,1.192,0,0,0,1.163-1.069l2.958-33.805A.966.966,0,0,0,206.1,219.8Z" transform="translate(-115.081 -217.999)" fill="#fff" opacity="0.3"/>
              <path id="Path_3492" data-name="Path 3492" d="M144.8,237.77h41.008l-2.013-9.885-2.7-8.087H139.724Z" transform="translate(-121.488 -217.999)" fill="#fff" opacity="0.4"/>
              <path id="Path_3493" data-name="Path 3493" d="M138.393,244.779l-20.087.717-1.416,16.185a.965.965,0,0,0,.976,1.069h25.641Z" transform="translate(-115.081 -225.008)" fill="#fff" opacity="0.4"/>
              <path id="Path_3494" data-name="Path 3494" d="M205.1,249.355l.337-3.853-23.48-9.322-2.274-6.593,7.2-9.79H183.45l-4.7,6.388-1.631-6.388h-3.07l2.4,9.519,2.3,6.654H139.9L135.649,219.8H132.6l4.253,16.174H119.043l-.315,3.6H137.8l4.253,16.173h3.05l-4.253-16.173h21.343l11.189,16.173h3.649L165.84,239.568h14.606Z" transform="translate(-115.598 -217.999)" fill="#fff"/>
              <g id="Group_1680" data-name="Group 1680" transform="translate(44.132 3.959)">
                <ellipse id="Ellipse_189" data-name="Ellipse 189" cx="4.497" cy="0.989" rx="4.497" ry="0.989" transform="translate(0 10.482) rotate(-0.255)" opacity="0.2"/>
                <path id="Path_3495" data-name="Path 3495" d="M181.46,222.8a5.006,5.006,0,0,0-4.89,4.5c-.217,2.483,3.851,7.374,3.851,7.374s4.924-4.891,5.142-7.374A4.054,4.054,0,0,0,181.46,222.8Zm-.573,6.548a1.85,1.85,0,0,1-1.872-2.052,2.284,2.284,0,0,1,2.231-2.052,1.85,1.85,0,0,1,1.873,2.052A2.285,2.285,0,0,1,180.886,229.349Z" transform="translate(-175.956 -222.801)" fill="#407bff"/>
              </g>
            </g>
            <g id="Group_1686" data-name="Group 1686" transform="translate(81.788)">
              <g id="Group_1684" data-name="Group 1684">
                <g id="Group_1682" data-name="Group 1682">
                  <path id="Path_3496" data-name="Path 3496" d="M223.544,177.184H271.55a3.9,3.9,0,0,0,3.807-3.5l3.5-39.954a3.157,3.157,0,0,0-3.194-3.5H227.653a3.9,3.9,0,0,0-3.807,3.5l-3.5,39.954A3.157,3.157,0,0,0,223.544,177.184Z" transform="translate(-220.336 -130.229)" fill="#407bff"/>
                </g>
                <g id="Group_1683" data-name="Group 1683" opacity="0.4">
                  <path id="Path_3497" data-name="Path 3497" d="M223.544,177.184H271.55a3.9,3.9,0,0,0,3.807-3.5l3.5-39.954a3.157,3.157,0,0,0-3.194-3.5H227.653a3.9,3.9,0,0,0-3.807,3.5l-3.5,39.954A3.157,3.157,0,0,0,223.544,177.184Z" transform="translate(-220.336 -130.229)" fill="#fff"/>
                </g>
              </g>
              <path id="Path_3498" data-name="Path 3498" d="M228.2,133.155a1.46,1.46,0,0,0-1.424,1.309l-3.51,40.126a1.182,1.182,0,0,0,1.194,1.309h48.18a1.46,1.46,0,0,0,1.424-1.309l3.51-40.126a1.182,1.182,0,0,0-1.194-1.309Z" transform="translate(-221.158 -131.05)" fill="#407bff"/>
              <path id="Path_3499" data-name="Path 3499" d="M228.2,133.155a1.46,1.46,0,0,0-1.424,1.309l-3.51,40.126a1.182,1.182,0,0,0,1.194,1.309h48.18a1.46,1.46,0,0,0,1.424-1.309l3.51-40.126a1.182,1.182,0,0,0-1.194-1.309Z" transform="translate(-221.158 -131.05)" fill="#fff" opacity="0.8"/>
              <path id="Path_3500" data-name="Path 3500" d="M238.4,161.038l-15.048,20.435-.082.941a1.182,1.182,0,0,0,1.194,1.309h26.672Z" transform="translate(-221.158 -138.873)" fill="#407bff"/>
              <g id="Group_1685" data-name="Group 1685" transform="translate(22.271 15.566)">
                <path id="Path_3501" data-name="Path 3501" d="M282.3,175.648l-11.6-23.782L251.293,181.15h29.214a1.46,1.46,0,0,0,1.424-1.309Z" transform="translate(-251.293 -151.866)" fill="#407bff"/>
                <path id="Path_3502" data-name="Path 3502" d="M282.3,175.648l-11.6-23.782L251.293,181.15h29.214a1.46,1.46,0,0,0,1.424-1.309Z" transform="translate(-251.293 -151.866)" fill="#fff" opacity="0.2"/>
              </g>
              <path id="Path_3503" data-name="Path 3503" d="M264.478,145.768a3.814,3.814,0,0,1-3.725,3.426,3.089,3.089,0,0,1-3.127-3.426,3.814,3.814,0,0,1,3.726-3.426A3.089,3.089,0,0,1,264.478,145.768Z" transform="translate(-230.795 -133.628)" fill="#407bff"/>
            </g>
          </g>
        </g>
      </g>
    </g>
  </g>
</svg>
