<svg xmlns="http://www.w3.org/2000/svg" xmlns:xlink="http://www.w3.org/1999/xlink" width="268.17" height="202" viewBox="0 0 268.17 202">
  <defs>
    <clipPath id="clip-path">
      <rect id="Rectangle_2238" data-name="Rectangle 2238" width="229.5" height="202" fill="none"/>
    </clipPath>
    <clipPath id="clip-path-3">
      <rect id="Rectangle_2216" data-name="Rectangle 2216" width="106.336" height="44.405" fill="none"/>
    </clipPath>
    <clipPath id="clip-path-6">
      <rect id="Rectangle_2229" data-name="Rectangle 2229" width="112.359" height="154.855" fill="none"/>
    </clipPath>
    <clipPath id="clip-path-7">
      <rect id="Rectangle_2230" data-name="Rectangle 2230" width="112.358" height="154.855" fill="none"/>
    </clipPath>
    <clipPath id="clip-path-8">
      <rect id="Rectangle_2231" data-name="Rectangle 2231" width="68.353" height="5.33" fill="none"/>
    </clipPath>
    <clipPath id="clip-path-9">
      <rect id="Rectangle_2232" data-name="Rectangle 2232" width="11.493" height="1.311" fill="none"/>
    </clipPath>
    <clipPath id="clip-path-11">
      <rect id="Rectangle_2234" data-name="Rectangle 2234" width="6.847" height="27.983" fill="none"/>
    </clipPath>
    <clipPath id="clip-path-12">
      <rect id="Rectangle_2235" data-name="Rectangle 2235" width="15.028" height="4.547" fill="none"/>
    </clipPath>
    <clipPath id="clip-path-13">
      <rect id="Rectangle_2236" data-name="Rectangle 2236" width="25.856" height="33.973" fill="none"/>
    </clipPath>
  </defs>
  <g id="search_invoice" transform="translate(3032.328 -12866)">
    <path id="Path_10452" data-name="Path 10452" d="M140.075-42.787c15.308,20.162,6.161,60.112-.373,93.341-6.347,33.416-10.081,60.3-25.389,89.048-15.495,28.562-42.377,58.805-72.806,62.352S-22.9,182.165-32.046,153.6c-8.961-28.562,6.721-62.539,2.24-101S-59.115-28.786-49.968-48.948,2.117-66.309,43.56-64.816C84.817-63.322,124.767-62.762,140.075-42.787Z" transform="translate(-2830.017 12919.562) rotate(90)" fill="#fff" opacity="0.5"/>
    <g id="Group_31570" data-name="Group 31570" transform="translate(-3012.993 12866)">
      <g id="Group_31569" data-name="Group 31569" clip-path="url(#clip-path)">
        <rect id="Rectangle_2194" data-name="Rectangle 2194" width="229.364" height="0.136" transform="translate(0.136 177.516)" fill="#ebebeb"/>
        <rect id="Rectangle_2195" data-name="Rectangle 2195" width="17.956" height="0.136" transform="translate(205.233 186.242)" fill="#ebebeb"/>
        <rect id="Rectangle_2196" data-name="Rectangle 2196" width="4.713" height="0.136" transform="translate(154.136 187.713)" fill="#ebebeb"/>
        <rect id="Rectangle_2197" data-name="Rectangle 2197" width="10.405" height="0.136" transform="translate(194.286 181.208)" fill="#ebebeb"/>
        <rect id="Rectangle_2198" data-name="Rectangle 2198" width="23.416" height="0.136" transform="translate(7.726 182.119)" fill="#ebebeb"/>
        <rect id="Rectangle_2199" data-name="Rectangle 2199" width="3.433" height="0.136" transform="translate(35.969 182.119)" fill="#ebebeb"/>
        <rect id="Rectangle_2200" data-name="Rectangle 2200" width="50.784" height="0.135" transform="translate(50.561 184.408)" fill="#ebebeb"/>
        <g id="Group_31541" data-name="Group 31541">
          <g id="Group_31540" data-name="Group 31540" clip-path="url(#clip-path)">
            <path id="Path_10365" data-name="Path 10365" d="M107.778,153.338H3.094A3.1,3.1,0,0,1,0,150.243V3.094A3.1,3.1,0,0,1,3.094,0H107.778a3.1,3.1,0,0,1,3.094,3.094V150.243a3.1,3.1,0,0,1-3.094,3.094M3.094.136A2.962,2.962,0,0,0,.136,3.094V150.243A2.962,2.962,0,0,0,3.094,153.2H107.778a2.962,2.962,0,0,0,2.958-2.959V3.094A2.962,2.962,0,0,0,107.778.136Z" fill="#ebebeb"/>
            <path id="Path_10366" data-name="Path 10366" d="M324.075,153.338H219.392a3.1,3.1,0,0,1-3.094-3.094V3.094A3.1,3.1,0,0,1,219.392,0H324.075a3.1,3.1,0,0,1,3.094,3.094V150.243a3.1,3.1,0,0,1-3.094,3.094M219.392.136a2.962,2.962,0,0,0-2.958,2.959V150.243a2.962,2.962,0,0,0,2.958,2.959H324.075a2.962,2.962,0,0,0,2.959-2.959V3.094A2.962,2.962,0,0,0,324.075.136Z" transform="translate(-99.038)" fill="#ebebeb"/>
            <rect id="Rectangle_2201" data-name="Rectangle 2201" width="15.661" height="55.795" transform="translate(119.341 121.721)" fill="#e6e6e6"/>
            <path id="Path_10367" data-name="Path 10367" d="M223.111,323.077h-2.975V317.9h6.093Z" transform="translate(-100.795 -145.561)" fill="#f0f0f0"/>
            <rect id="Rectangle_2202" data-name="Rectangle 2202" width="15.661" height="55.795" transform="translate(208.699 121.721)" fill="#e6e6e6"/>
            <rect id="Rectangle_2203" data-name="Rectangle 2203" width="91.954" height="54.439" transform="translate(119.341 121.72)" fill="#f0f0f0"/>
            <rect id="Rectangle_2204" data-name="Rectangle 2204" width="27.258" height="48.185" transform="translate(180.979 124.954)" fill="#e6e6e6"/>
            <path id="Path_10368" data-name="Path 10368" d="M348.771,232.96h5.392a8.005,8.005,0,0,0,6.193-3.109H342.578a8,8,0,0,0,6.193,3.109" transform="translate(-156.859 -105.243)" fill="#f0f0f0"/>
            <rect id="Rectangle_2205" data-name="Rectangle 2205" width="27.258" height="48.185" transform="translate(151.689 124.954)" fill="#e6e6e6"/>
            <path id="Path_10369" data-name="Path 10369" d="M294.233,232.96h5.392a8.005,8.005,0,0,0,6.193-3.109H288.04a8,8,0,0,0,6.193,3.109" transform="translate(-131.887 -105.243)" fill="#f0f0f0"/>
            <rect id="Rectangle_2206" data-name="Rectangle 2206" width="27.259" height="48.185" transform="translate(122.398 124.954)" fill="#e6e6e6"/>
            <path id="Path_10370" data-name="Path 10370" d="M240.2,232.96H245.6a8.005,8.005,0,0,0,6.193-3.109H234.011a8,8,0,0,0,6.193,3.109" transform="translate(-107.148 -105.243)" fill="#f0f0f0"/>
            <path id="Path_10371" data-name="Path 10371" d="M381.634,323.077h2.975V317.9h-6.093Z" transform="translate(-173.313 -145.561)" fill="#f0f0f0"/>
            <rect id="Rectangle_2207" data-name="Rectangle 2207" width="105.077" height="89.469" transform="translate(20.842 17.746)" fill="#e6e6e6"/>
            <rect id="Rectangle_2208" data-name="Rectangle 2208" width="106.414" height="89.469" transform="translate(18.478 17.746)" fill="#f5f5f5"/>
            <rect id="Rectangle_2209" data-name="Rectangle 2209" width="97.925" height="80.882" transform="translate(22.723 22.039)" fill="#fafafa"/>
            <path id="Path_10372" data-name="Path 10372" d="M156.773,121.536,118.232,40.655H105.141l38.541,80.882Z" transform="translate(-48.142 -18.615)" fill="#fff"/>
            <path id="Path_10373" data-name="Path 10373" d="M129.224,121.536,90.683,40.655H81.669l38.541,80.882Z" transform="translate(-37.394 -18.615)" fill="#fff"/>
            <rect id="Rectangle_2210" data-name="Rectangle 2210" width="5.064" height="80.882" transform="translate(54.019 22.04)" fill="#e6e6e6"/>
            <rect id="Rectangle_2211" data-name="Rectangle 2211" width="5.064" height="80.882" transform="translate(87.679 22.04)" fill="#e6e6e6"/>
            <rect id="Rectangle_2212" data-name="Rectangle 2212" width="6.401" height="86.798" transform="translate(51.769 18.847)" fill="#f5f5f5"/>
            <rect id="Rectangle_2213" data-name="Rectangle 2213" width="6.401" height="86.798" transform="translate(85.429 18.847)" fill="#f5f5f5"/>
            <rect id="Rectangle_2214" data-name="Rectangle 2214" width="0.451" height="80.882" transform="translate(22.723 22.039)" fill="#e6e6e6"/>
            <path id="Path_10374" data-name="Path 10374" d="M30.334,22.549H144.173a.548.548,0,1,1,0,1.1H30.334a.548.548,0,1,1,0-1.1" transform="translate(-13.638 -10.325)" fill="#e6e6e6"/>
            <path id="Path_10375" data-name="Path 10375" d="M231.647,26.625h0a.741.741,0,0,0,.739-.739V24.3a.739.739,0,1,0-1.478,0v1.588a.741.741,0,0,0,.739.739" transform="translate(-105.727 -10.787)" fill="#e6e6e6"/>
            <path id="Path_10376" data-name="Path 10376" d="M45.4,26.625h0a.741.741,0,0,0,.739-.739V24.3a.739.739,0,1,0-1.478,0v1.588a.741.741,0,0,0,.739.739" transform="translate(-20.45 -10.787)" fill="#e6e6e6"/>
            <g id="Group_31539" data-name="Group 31539" transform="translate(16.87 12.772)" opacity="0.6">
              <g id="Group_31538" data-name="Group 31538">
                <g id="Group_31537" data-name="Group 31537" clip-path="url(#clip-path-3)">
                  <rect id="Rectangle_2215" data-name="Rectangle 2215" width="106.337" height="44.405" transform="translate(0 0)" fill="#e0e0e0"/>
                </g>
              </g>
            </g>
            <rect id="Rectangle_2217" data-name="Rectangle 2217" width="2.731" height="44.803" transform="translate(18.325 132.713)" fill="#e6e6e6"/>
            <rect id="Rectangle_2218" data-name="Rectangle 2218" width="14.795" height="8.719" transform="translate(67.627 123.994)" fill="#e6e6e6"/>
            <rect id="Rectangle_2219" data-name="Rectangle 2219" width="58.761" height="8.719" transform="translate(8.866 123.994)" fill="#f5f5f5"/>
            <rect id="Rectangle_2220" data-name="Rectangle 2220" width="14.795" height="8.719" transform="translate(67.627 138.134)" fill="#e6e6e6"/>
            <rect id="Rectangle_2221" data-name="Rectangle 2221" width="58.761" height="8.719" transform="translate(8.866 138.134)" fill="#f5f5f5"/>
            <rect id="Rectangle_2222" data-name="Rectangle 2222" width="14.795" height="8.719" transform="translate(67.627 152.274)" fill="#e6e6e6"/>
            <rect id="Rectangle_2223" data-name="Rectangle 2223" width="58.761" height="8.719" transform="translate(8.866 152.274)" fill="#f5f5f5"/>
            <rect id="Rectangle_2224" data-name="Rectangle 2224" width="2.731" height="44.803" transform="translate(77.087 132.713)" fill="#e6e6e6"/>
            <rect id="Rectangle_2225" data-name="Rectangle 2225" width="2.731" height="44.803" transform="translate(64.895 132.713)" fill="#f5f5f5"/>
            <rect id="Rectangle_2226" data-name="Rectangle 2226" width="2.731" height="44.803" transform="translate(8.866 132.713)" fill="#f5f5f5"/>
          </g>
        </g>
        <g id="Group_31543" data-name="Group 31543">
          <g id="Group_31542" data-name="Group 31542" clip-path="url(#clip-path)">
            <path id="Path_10377" data-name="Path 10377" d="M228.127,356.1c0,3.39-47.06,6.138-105.112,6.138S17.9,359.492,17.9,356.1s47.06-6.138,105.112-6.138,105.112,2.749,105.112,6.138" transform="translate(-8.198 -160.24)" fill="#f5f5f5"/>
          </g>
        </g>
        <g id="Group_31557" data-name="Group 31557">
          <g id="Group_31556" data-name="Group 31556" clip-path="url(#clip-path)">
            <path id="Path_10378" data-name="Path 10378" d="M278.161,185.1H190.115a6.177,6.177,0,0,1-6.229-6.744L194.672,36.985a7.428,7.428,0,0,1,7.258-6.744h88.045a6.178,6.178,0,0,1,6.23,6.744L285.419,178.352a7.427,7.427,0,0,1-7.258,6.744" transform="translate(-84.188 -13.847)" fill="#407bff"/>
            <g id="Group_31546" data-name="Group 31546" transform="translate(99.678 16.394)" opacity="0.5">
              <g id="Group_31545" data-name="Group 31545">
                <g id="Group_31544" data-name="Group 31544" clip-path="url(#clip-path-6)">
                  <path id="Path_10379" data-name="Path 10379" d="M278.161,185.1H190.115a6.177,6.177,0,0,1-6.229-6.744L194.672,36.985a7.428,7.428,0,0,1,7.258-6.744h88.045a6.178,6.178,0,0,1,6.23,6.744L285.419,178.352a7.427,7.427,0,0,1-7.258,6.744" transform="translate(-183.866 -30.241)" fill="#fff"/>
                </g>
              </g>
            </g>
            <path id="Path_10380" data-name="Path 10380" d="M275.742,185.1H187.7a6.177,6.177,0,0,1-6.229-6.744L192.253,36.985a7.428,7.428,0,0,1,7.258-6.744h88.045a6.178,6.178,0,0,1,6.23,6.744L283,178.352a7.427,7.427,0,0,1-7.258,6.744" transform="translate(-83.081 -13.847)" fill="#407bff"/>
            <g id="Group_31549" data-name="Group 31549" transform="translate(98.367 16.394)" opacity="0.7">
              <g id="Group_31548" data-name="Group 31548">
                <g id="Group_31547" data-name="Group 31547" clip-path="url(#clip-path-7)">
                  <path id="Path_10381" data-name="Path 10381" d="M275.742,185.1H187.7a6.177,6.177,0,0,1-6.229-6.744L192.253,36.985a7.428,7.428,0,0,1,7.258-6.744h88.045a6.178,6.178,0,0,1,6.23,6.744L283,178.352a7.427,7.427,0,0,1-7.258,6.744" transform="translate(-181.448 -30.241)" fill="#fff"/>
                </g>
              </g>
            </g>
            <path id="Path_10382" data-name="Path 10382" d="M189.772,186.328a4.111,4.111,0,0,1-4.153-4.5L196.263,42.339a4.942,4.942,0,0,1,4.839-4.5h88.045a4.111,4.111,0,0,1,4.153,4.5L282.657,181.833a4.942,4.942,0,0,1-4.839,4.5Z" transform="translate(-84.985 -17.327)" fill="#24b24c"/>
            <g id="Group_31552" data-name="Group 31552" transform="translate(131.073 38.65)" opacity="0.2">
              <g id="Group_31551" data-name="Group 31551">
                <g id="Group_31550" data-name="Group 31550" clip-path="url(#clip-path-8)">
                  <path id="Path_10383" data-name="Path 10383" d="M307.255,76.624H244.248a2.441,2.441,0,0,1-2.461-2.665,2.935,2.935,0,0,1,2.868-2.665h63.007a2.441,2.441,0,0,1,2.462,2.665,2.935,2.935,0,0,1-2.868,2.665" transform="translate(-241.778 -71.294)"/>
                </g>
              </g>
            </g>
            <g id="Group_31555" data-name="Group 31555" transform="translate(154.548 17.83)" opacity="0.3">
              <g id="Group_31554" data-name="Group 31554">
                <g id="Group_31553" data-name="Group 31553" clip-path="url(#clip-path-9)">
                  <path id="Path_10384" data-name="Path 10384" d="M295.864,34.2H285.686a.6.6,0,0,1-.606-.655.722.722,0,0,1,.706-.656h10.178a.6.6,0,0,1,.606.656.722.722,0,0,1-.706.655" transform="translate(-285.079 -32.89)" fill="#407bff"/>
                </g>
              </g>
            </g>
            <path id="Path_10385" data-name="Path 10385" d="M240.071,69.981a6.736,6.736,0,0,0-6.812-7.375h63.966a6.737,6.737,0,0,1,6.812,7.375Z" transform="translate(-106.804 -28.666)" fill="#f0f0f0"/>
            <path id="Path_10386" data-name="Path 10386" d="M214.314,62.607a8.1,8.1,0,0,0-7.937,7.375l-6.555,85.909a8.1,8.1,0,0,1-7.937,7.375h63.967a8.1,8.1,0,0,0,7.937-7.375l6.555-85.909a8.1,8.1,0,0,1,7.938-7.375Z" transform="translate(-87.859 -28.666)" fill="#fff"/>
            <path id="Path_10387" data-name="Path 10387" d="M243.267,234.679a6.736,6.736,0,0,0,6.812,7.374H186.113a6.737,6.737,0,0,1-6.812-7.374Z" transform="translate(-82.088 -107.454)" fill="#f0f0f0"/>
            <path id="Path_10388" data-name="Path 10388" d="M224.97,226.755c.24-3.139-.746-5.679-3.879-5.679h49.258c3.134,0,5.491,2.867,3.88,5.679Z" transform="translate(-101.232 -101.226)" fill="#e0e0e0"/>
            <path id="Path_10389" data-name="Path 10389" d="M243.286,228.451a8.1,8.1,0,0,1,7.937-7.374H187.257a8.1,8.1,0,0,0-7.938,7.374Z" transform="translate(-82.106 -101.226)" fill="#f0f0f0"/>
            <path id="Path_10390" data-name="Path 10390" d="M281.567,270.7H208.134a1.773,1.773,0,0,1-1.788-1.936,2.131,2.131,0,0,1,2.083-1.935h73.433a1.773,1.773,0,0,1,1.788,1.935,2.132,2.132,0,0,1-2.083,1.936" transform="translate(-94.479 -122.174)" fill="#fff"/>
            <path id="Path_10391" data-name="Path 10391" d="M243.885,287.86h-37.06a1.773,1.773,0,0,1-1.788-1.936,2.131,2.131,0,0,1,2.083-1.935h37.06a1.773,1.773,0,0,1,1.788,1.935,2.132,2.132,0,0,1-2.083,1.936" transform="translate(-93.879 -130.032)" fill="#fff"/>
            <path id="Path_10392" data-name="Path 10392" d="M309.836,287.86H294.824a1.773,1.773,0,0,1-1.788-1.936,2.131,2.131,0,0,1,2.083-1.935h15.011a1.773,1.773,0,0,1,1.788,1.935,2.132,2.132,0,0,1-2.083,1.936" transform="translate(-134.172 -130.032)" fill="#fff"/>
            <path id="Path_10393" data-name="Path 10393" d="M228.138,106.72h1.823l-.449,5.887H227.69Z" transform="translate(-104.254 -48.865)" fill="#0b8d45"/>
            <path id="Path_10394" data-name="Path 10394" d="M233.93,106.72h1.7l1.968,3.257.249-3.257h1.714l-.449,5.887H237.4l-1.958-3.233-.247,3.233h-1.711Z" transform="translate(-106.905 -48.865)" fill="#0b8d45"/>
            <path id="Path_10395" data-name="Path 10395" d="M245.857,106.72h1.9l1,4.236,1.631-4.236h1.846l-2.635,5.887h-1.972Z" transform="translate(-112.572 -48.865)" fill="#0b8d45"/>
            <path id="Path_10396" data-name="Path 10396" d="M257.355,109.582a3.044,3.044,0,0,1,3.272-3.048,2.868,2.868,0,0,1,2.2.789,2.789,2.789,0,0,1,.627,2.21,3.822,3.822,0,0,1-.477,1.693,2.762,2.762,0,0,1-1.083,1.028,3.476,3.476,0,0,1-1.664.368,3.608,3.608,0,0,1-1.624-.317,2.221,2.221,0,0,1-.981-1,3.19,3.19,0,0,1-.274-1.719m1.818.008a1.877,1.877,0,0,0,.234,1.281,1.036,1.036,0,0,0,.872.389,1.211,1.211,0,0,0,.937-.381,2.317,2.317,0,0,0,.426-1.369,1.725,1.725,0,0,0-.243-1.215,1.06,1.06,0,0,0-.88-.383,1.2,1.2,0,0,0-.913.389,2.11,2.11,0,0,0-.432,1.289" transform="translate(-117.83 -48.779)" fill="#0b8d45"/>
            <path id="Path_10397" data-name="Path 10397" d="M270.595,106.72h1.823l-.449,5.887h-1.823Z" transform="translate(-123.693 -48.865)" fill="#0b8d45"/>
            <path id="Path_10398" data-name="Path 10398" d="M280.016,110.112l1.558.482a3.22,3.22,0,0,1-.591,1.12,2.446,2.446,0,0,1-.909.679,3.34,3.34,0,0,1-1.321.229,3.633,3.633,0,0,1-1.547-.279,2.226,2.226,0,0,1-.975-.981,3.178,3.178,0,0,1-.3-1.8,3.287,3.287,0,0,1,.948-2.245,3.168,3.168,0,0,1,2.258-.785,2.825,2.825,0,0,1,1.715.45,2.389,2.389,0,0,1,.84,1.381l-1.633.357a1.273,1.273,0,0,0-.147-.394.933.933,0,0,0-.349-.321,1.019,1.019,0,0,0-.486-.113,1.164,1.164,0,0,0-.986.5,2.236,2.236,0,0,0-.337,1.159,2.108,2.108,0,0,0,.195,1.341.94.94,0,0,0,.808.363,1.086,1.086,0,0,0,.811-.293,1.985,1.985,0,0,0,.453-.851" transform="translate(-126.333 -48.779)" fill="#0b8d45"/>
            <path id="Path_10399" data-name="Path 10399" d="M288.156,106.72h4.875l-.1,1.257h-3.052l-.072.936h2.831l-.092,1.2H289.72l-.088,1.16h3.14l-.1,1.334h-4.963Z" transform="translate(-131.734 -48.865)" fill="#0b8d45"/>
            <path id="Path_10400" data-name="Path 10400" d="M277.5,130.362H224.619l.112-1.468h52.876Z" transform="translate(-102.848 -59.018)" fill="#0b8d45"/>
            <path id="Path_10401" data-name="Path 10401" d="M277.206,131.6H224.33l-.343,4.49h52.876Z" transform="translate(-102.558 -60.257)" fill="#f0f0f0"/>
            <path id="Path_10402" data-name="Path 10402" d="M275.942,148.166H223.066l-.343,4.49H275.6Z" transform="translate(-101.98 -67.842)" fill="#f0f0f0"/>
            <path id="Path_10403" data-name="Path 10403" d="M274.678,164.731H221.8l-.343,4.49h52.877Z" transform="translate(-101.401 -75.427)" fill="#f0f0f0"/>
            <path id="Path_10404" data-name="Path 10404" d="M273.414,181.3H220.538l-.343,4.49h52.877Z" transform="translate(-100.822 -83.011)" fill="#f0f0f0"/>
            <path id="Path_10405" data-name="Path 10405" d="M272.233,199.328H219.357l.112-1.468h52.877Z" transform="translate(-100.438 -90.596)" fill="#0b8d45"/>
            <path id="Path_10406" data-name="Path 10406" d="M305.312,81.126H316.3l-.5,6.556h-10.99Z" transform="translate(-139.566 -37.146)" fill="#f0f0f0"/>
          </g>
        </g>
        <g id="Group_31568" data-name="Group 31568">
          <g id="Group_31567" data-name="Group 31567" clip-path="url(#clip-path)">
            <path id="Path_10407" data-name="Path 10407" d="M95.814,158.024l1.966.789a4.422,4.422,0,0,1,1.821,1.362l.9,1.14a2,2,0,0,1-.066,2.553l-.958,1.092a2,2,0,0,1-2.836.167l-.916-.825a10.707,10.707,0,0,1-3.65-4.6l.544-.545a3.764,3.764,0,0,1,3.195-1.138" transform="translate(-42.159 -72.339)" fill="#ffb573"/>
            <path id="Path_10408" data-name="Path 10408" d="M94.73,116.964l-.64.422-.711.49c-.473.337-.948.681-1.412,1.038-.924.718-1.826,1.462-2.663,2.251a22.062,22.062,0,0,0-4.193,5.109c-.133.227-.255.458-.368.689l-.089.174a1.716,1.716,0,0,0,.058-.221.822.822,0,0,0,.011-.275c-.052-.157-.057.251.066.653a16.86,16.86,0,0,0,1.3,3c1.116,2.135,2.518,4.33,3.837,6.5l.034.056a1.9,1.9,0,0,1-2.795,2.5,38.263,38.263,0,0,1-5.925-5.807,18.846,18.846,0,0,1-2.493-3.866,9.988,9.988,0,0,1-.507-1.333,6.575,6.575,0,0,1-.281-1.825,5.352,5.352,0,0,1,.339-1.935l.1-.278q.2-.561.446-1.1a25.384,25.384,0,0,1,5.168-7.424,33.313,33.313,0,0,1,3.257-2.912c.571-.445,1.152-.878,1.756-1.285.3-.2.6-.409.921-.6l.482-.293.55-.318a3.79,3.79,0,0,1,3.992,6.439Z" transform="translate(-35.695 -50.301)" fill="#ffb573"/>
            <path id="Path_10409" data-name="Path 10409" d="M99.652,107.1c-3.168.018-6.636,1.372-11.083,6.883,0,3.291,6.946,7.665,6.946,7.665S106.9,107.059,99.652,107.1" transform="translate(-40.554 -49.039)" fill="#263238"/>
            <path id="Path_10410" data-name="Path 10410" d="M64.374,344.938a.5.5,0,0,1-.168-.03c-.658-.231-1.275-1.9-1.315-2.831a.153.153,0,0,1,.249-.125c.069.056,1.7,1.394,1.781,2.3a.632.632,0,0,1-.149.489.53.53,0,0,1-.4.2m-1.136-2.5c.149.882.651,2.035,1.07,2.182.06.022.137.028.235-.084a.335.335,0,0,0,.075-.262c-.046-.529-.85-1.358-1.38-1.835" transform="translate(-28.796 -156.556)" fill="#263238"/>
            <path id="Path_10411" data-name="Path 10411" d="M65.392,342.716a5.211,5.211,0,0,1-2.432-.75.153.153,0,0,1,.046-.274c.087-.023,2.131-.556,2.9-.087a.631.631,0,0,1,.307.408.5.5,0,0,1-.2.559,1.134,1.134,0,0,1-.63.144m-1.935-.817c.8.4,2.026.673,2.392.421.054-.037.1-.094.07-.24a.336.336,0,0,0-.168-.215,4.252,4.252,0,0,0-2.3.034" transform="translate(-28.797 -156.325)" fill="#263238"/>
            <path id="Path_10412" data-name="Path 10412" d="M51.714,336.691a25.689,25.689,0,0,0,4.045-5.741s5.028,1.237,4.041,2.687c-1.791,2.631-2.665,8.033-.356,10.93,1.317,1.653-.767,1.927-2.144,1.22-2.191-1.125-2.1-1.544-3.235-3.4-.973-1.592-1.357-2.215-2.7-2.9-1.118-.569-.575-1.673.346-2.8" transform="translate(-23.233 -151.534)" fill="#0b8d45"/>
            <path id="Path_10413" data-name="Path 10413" d="M97.637,167.381S90.34,202.945,85,218.133c-5.6,15.951-21.08,40.564-21.675,41.622a12.308,12.308,0,0,1-5.469-2.635s7.264-26.7,14.348-44.02c2.688-36.157,8.615-45.719,8.615-45.719Z" transform="translate(-26.493 -76.64)" fill="#263238"/>
            <g id="Group_31560" data-name="Group 31560" transform="translate(59.622 109.639)" opacity="0.2">
              <g id="Group_31559" data-name="Group 31559">
                <g id="Group_31558" data-name="Group 31558" clip-path="url(#clip-path-11)">
                  <path id="Path_10414" data-name="Path 10414" d="M110.368,202.369c-.331,6.88-.558,16.34-.233,27.854,2.228-7.178,4.651-16.909,6.69-25.642-1.361-1.816-3.475-2.689-6.457-2.212" transform="translate(-109.978 -202.24)"/>
                </g>
              </g>
            </g>
            <path id="Path_10415" data-name="Path 10415" d="M111.509,86.939c.766,3.092,1.514,8.137.295,10.822,0,0,4.564.2,10.4,4.86,2.747-4.034-.432-4.825-.432-4.825-2.425-.569-2.306-3.8-2.3-6.1Z" transform="translate(-51.057 -39.807)" fill="#ffb573"/>
            <path id="Path_10416" data-name="Path 10416" d="M108.41,105.957c-2.277-.252-.7-4.578.481-4.156,2.99,1.065,9.7-.12,11.777,1.024a3.28,3.28,0,0,1,1.551,3.494s-11.355-.091-13.809-.362" transform="translate(-49.107 -46.599)" fill="#407bff"/>
            <g id="Group_31563" data-name="Group 31563" transform="translate(58.142 55.173)" opacity="0.7">
              <g id="Group_31562" data-name="Group 31562">
                <g id="Group_31561" data-name="Group 31561" clip-path="url(#clip-path-12)">
                  <path id="Path_10417" data-name="Path 10417" d="M108.41,105.957c-2.277-.252-.7-4.578.481-4.156,2.99,1.065,9.7-.12,11.777,1.024a3.28,3.28,0,0,1,1.551,3.494s-11.355-.091-13.809-.362" transform="translate(-107.249 -101.772)" fill="#fff"/>
                </g>
              </g>
            </g>
            <path id="Path_10418" data-name="Path 10418" d="M133.879,76.158c.073.414.352.711.622.662s.431-.422.357-.836-.352-.711-.622-.663-.43.423-.357.837" transform="translate(-61.292 -34.486)" fill="#263238"/>
            <path id="Path_10419" data-name="Path 10419" d="M134.34,75.017l.943-.462s-.372.866-.943.462" transform="translate(-61.511 -34.137)" fill="#263238"/>
            <path id="Path_10420" data-name="Path 10420" d="M133.229,70.458a.243.243,0,0,0,.022-.182.247.247,0,0,0-.3-.175,2.448,2.448,0,0,0-1.7,1.476.247.247,0,0,0,.469.155,1.954,1.954,0,0,1,1.361-1.154.248.248,0,0,0,.153-.12" transform="translate(-60.089 -32.094)" fill="#263238"/>
            <path id="Path_10421" data-name="Path 10421" d="M134.8,78.724a11.218,11.218,0,0,0,1.769,2.513,1.81,1.81,0,0,1-1.462.435Z" transform="translate(-61.72 -36.046)" fill="#ed893e"/>
            <path id="Path_10422" data-name="Path 10422" d="M107.617,69.074c1.207,5.029,1.612,7.183,4.592,9.346,4.482,3.254,10.273.686,10.564-4.6.262-4.757-1.755-12.182-6.993-13.34a6.943,6.943,0,0,0-8.163,8.593" transform="translate(-49.18 -27.614)" fill="#ffb573"/>
            <path id="Path_10423" data-name="Path 10423" d="M112.809,67.652c2.961-3.914,4.893-7.077,3.432-10.541-1.221-2.9-4.6-2.048-5.068-.6-8.98-.767-12.2,2.486-10.35,7.868,1.18,3.429-3.406,1.651-2.289,6.006.856,3.339-2.164,4.612-.631,6.532,2.212,2.771,6.775-.843,11.985,1.235,4.263,1.7,10.668-.873,2.922-10.5" transform="translate(-44.625 -25.266)" fill="#263238"/>
            <path id="Path_10424" data-name="Path 10424" d="M124.572,77.091a3.321,3.321,0,0,0,2.249,1.548c1.179.172,1.584-1.149,1.1-2.374-.434-1.1-1.57-2.522-2.679-2.128a1.987,1.987,0,0,0-.672,2.955" transform="translate(-56.87 -33.914)" fill="#ffb573"/>
            <path id="Path_10425" data-name="Path 10425" d="M125.907,352.391a4.868,4.868,0,0,1-2.565-1.118.152.152,0,0,1,.085-.265c.088-.01,2.19-.239,2.886.338a.632.632,0,0,1,.244.449.5.5,0,0,1-.274.524.855.855,0,0,1-.376.073m-2.064-1.112c.733.512,1.91.961,2.306.765.058-.028.116-.078.1-.227a.33.33,0,0,0-.134-.237,4.243,4.243,0,0,0-2.276-.3" transform="translate(-56.452 -160.694)" fill="#263238"/>
            <path id="Path_10426" data-name="Path 10426" d="M123.444,349.6a.153.153,0,0,1-.133-.228c.044-.078,1.1-1.91,1.973-2.133a.633.633,0,0,1,.506.068.5.5,0,0,1,.262.53c-.12.687-1.669,1.57-2.578,1.761a.15.15,0,0,1-.031,0m2.023-2.08a.433.433,0,0,0-.107.015c-.514.131-1.2,1.06-1.585,1.661.846-.291,1.9-.975,1.977-1.412.011-.064.005-.14-.121-.218a.308.308,0,0,0-.164-.046" transform="translate(-56.452 -158.981)" fill="#263238"/>
            <path id="Path_10427" data-name="Path 10427" d="M124.323,349.964c-4.391-.34-7.349-3.355-7.039-6.549.17-1.761-5.459-1.919-5.459-1.919.89,5.462-.227,6.241-.594,7.652s-.278,2.97.887,3c1.395.035,2.043-.231,3.777-.164,2.026.079,4.218.158,7.82.164,1.439,0,2.561-2.031.609-2.183" transform="translate(-50.842 -156.363)" fill="#0b8d45"/>
            <path id="Path_10428" data-name="Path 10428" d="M127.627,167.381s-.383,26.934-2.509,44.635-9.436,52.418-9.436,52.418a12.186,12.186,0,0,1-5.839-.054s-2.309-27.121,1.571-53.328c-2.85-27.466-4.632-43.671-4.632-43.671Z" transform="translate(-48.893 -76.64)" fill="#263238"/>
            <path id="Path_10429" data-name="Path 10429" d="M124.728,114.625c-.091,2.081,3.195,6.893-.86,9.682.758,1.694,1.4,13.181-.137,15.235-2.238,1.645-14.355,1.326-24.4,0-.424-4.153,1.862-12.757-.939-26.172a5.349,5.349,0,0,1,4.7-6.416c.845-.085,1.74-.156,2.656-.2a67.367,67.367,0,0,1,9.61,0c1.038.095,2.11.226,3.135.37a7.262,7.262,0,0,1,6.239,7.5" transform="translate(-44.997 -48.801)" fill="#24b24c"/>
            <g id="Group_31566" data-name="Group 31566" transform="translate(53.343 57.796)" opacity="0.3">
              <g id="Group_31565" data-name="Group 31565">
                <g id="Group_31564" data-name="Group 31564" clip-path="url(#clip-path-13)">
                  <path id="Path_10430" data-name="Path 10430" d="M98.7,112.841c-.076.041-.151.082-.228.122h0a.14.14,0,0,0,.133.246c.083-.044.164-.092.246-.138,1.076.4,2.243,1.3,2.909,1.387-1.074-.95-1.848-1.63-2.7-1.507.256-.149.507-.305.755-.466.989.368,2.06,1.19,2.672,1.275-1-.881-1.713-1.51-2.5-1.386q.279-.185.554-.377c.1-.073.205-.148.308-.223.891.387,1.837,1.207,2.4,1.317-.9-.889-1.53-1.516-2.29-1.394.237-.176.471-.357.7-.542.819.358,1.686,1.109,2.2,1.211-.823-.818-1.407-1.395-2.106-1.286q.3-.239.587-.486c.047-.04.093-.081.14-.121.722.378,1.438,1.127,1.909,1.264-.682-.82-1.157-1.387-1.876-1.293q.279-.242.55-.489c.665.349,1.322,1.037,1.755,1.162-.627-.753-1.064-1.275-1.722-1.193q.288-.263.569-.536c.581.357,1.135,1.008,1.519,1.143-.522-.712-.888-1.209-1.478-1.183.1-.1.2-.2.305-.3l.173-.178c.535.329,1.046.929,1.4,1.053-.481-.657-.819-1.115-1.365-1.09.158-.163.314-.327.467-.5.491.263.95.768,1.278.863-.432-.555-.734-.94-1.256-.887.028-.031.057-.061.085-.092.111-.125.22-.25.326-.378a13.792,13.792,0,0,0,1.163.787c-.392-.5-.668-.856-1.135-.82.126-.153.248-.312.36-.479a.045.045,0,0,0-.074-.05h0c-.106.151-.222.3-.343.438a1.007,1.007,0,0,0-.2-.717l-.185.011a6.647,6.647,0,0,1,.3.8q-.146.165-.3.327c-.023.025-.048.05-.072.075.1-.39-.1-.732-.417-1.169l-.1.009c.084.334.338.794.444,1.237-.142.15-.287.3-.434.442.137-.5-.207-.939-.693-1.562.023.372.458,1.022.631,1.623-.051.05-.1.1-.154.151-.1.094-.2.187-.3.28.137-.534-.233-1.011-.755-1.679a18.117,18.117,0,0,0,.681,1.749q-.259.239-.522.471c.114-.54-.246-1.066-.742-1.788a16.486,16.486,0,0,0,.617,1.9q-.213.185-.429.366c.127-.588-.264-1.16-.8-1.946a17.774,17.774,0,0,0,.67,2.057c-.038.031-.075.064-.114.095-.2.162-.4.319-.6.475.159-.6-.215-1.278-.728-2.2a19.51,19.51,0,0,0,.551,2.337q-.34.258-.689.5c.261-.68-.16-1.444-.751-2.508a25.372,25.372,0,0,0,.609,2.607c-.068.047-.135.095-.2.141-.214.144-.431.283-.649.42.3-.688-.062-1.5-.594-2.611-.025.039-.053.076-.076.116.042.652.417,1.694.5,2.6q-.363.221-.736.426a2.428,2.428,0,0,0-.226-2.041,5.21,5.21,0,0,0-.19.707,10.063,10.063,0,0,1,.262,1.415" transform="translate(-98.396 -106.791)" fill="#263238"/>
                  <path id="Path_10431" data-name="Path 10431" d="M119.557,108.9c-.819-.523-1.623-1.482-2.158-1.681.743,1.02,1.271,1.74,2.041,1.74-.262.136-.522.278-.778.424-.751-.483-1.489-1.362-1.98-1.544.684.938,1.169,1.6,1.876,1.6q-.331.189-.657.387c-.053.031-.1.065-.157.1-.653-.488-1.241-1.341-1.684-1.55.543.918.923,1.553,1.646,1.574q-.313.194-.621.4c-.6-.45-1.141-1.233-1.548-1.426.5.843.848,1.427,1.511,1.45q-.327.215-.647.439c-.517-.443-.96-1.175-1.318-1.369.4.786.685,1.335,1.272,1.4-.117.082-.234.164-.349.248-.067.048-.132.1-.2.148-.476-.409-.885-1.083-1.215-1.262.371.725.632,1.231,1.174,1.292q-.273.2-.539.415c-.443-.337-.816-.908-1.125-1.054.339.617.576,1.045,1.1,1.075l-.1.078c-.129.106-.257.213-.383.323-.4-.312-.742-.828-1.024-.962.307.56.524.951.991.989-.149.132-.295.268-.432.416a.044.044,0,0,0,0,.062.045.045,0,0,0,.063,0h0c.128-.133.266-.258.407-.378-.132.368.059.741.323,1.252a10.757,10.757,0,0,0-.221-1.336c.113-.094.228-.186.343-.276.027-.022.056-.041.083-.062-.186.418.027.835.326,1.417a13.335,13.335,0,0,0-.242-1.48q.246-.188.5-.368c-.215.471.054.961.436,1.652.036-.372-.29-1.082-.365-1.7.059-.041.117-.084.176-.125.112-.078.225-.153.338-.23-.22.506.069,1.035.48,1.778a18.3,18.3,0,0,0-.4-1.835q.293-.2.59-.382c-.2.515.073,1.091.448,1.883a16.418,16.418,0,0,0-.309-1.971q.239-.149.481-.293c-.218.56.077,1.187.485,2.048a17.8,17.8,0,0,0-.336-2.137l.127-.076q.331-.192.667-.374c-.252.566.01,1.3.37,2.288a19.5,19.5,0,0,0-.173-2.395q.376-.2.76-.388c-.366.629-.071,1.451.344,2.6a25.216,25.216,0,0,0-.188-2.67c.074-.035.149-.072.223-.107.234-.108.47-.211.707-.312-.424.661-.156,1.569.22,2.83a27.087,27.087,0,0,0-.037-2.906q.394-.162.794-.3c-.511.72-.217,1.721.2,3.124a30.992,30.992,0,0,0-.037-3.181c.081-.028.162-.057.244-.084h0a.14.14,0,1,0-.092-.264c-.088.031-.176.065-.264.1a17.186,17.186,0,0,1-1.8-1.318c-.144,0-.289-.007-.434-.01.706.836,1.286,1.4,2.006,1.413-.276.107-.548.221-.818.34-.918-.52-1.845-1.5-2.436-1.682.844,1.028,1.451,1.762,2.249,1.765-.2.092-.406.186-.606.285-.114.056-.227.114-.339.171" transform="translate(-105.401 -106.61)" fill="#263238"/>
                  <path id="Path_10432" data-name="Path 10432" d="M106.741,126.236c-.6-.649-1.018-1.1-1.6-1.011.091-.11.181-.221.269-.332.052-.065.1-.131.153-.2.568.267,1.142.807,1.508.891-.551-.6-.938-1.018-1.477-.931.139-.179.275-.361.408-.545.517.206,1.029.657,1.366.716-.491-.5-.834-.853-1.347-.742l.074-.1c.1-.136.191-.273.282-.413a13.82,13.82,0,0,0,1.244.653c-.446-.458-.759-.777-1.22-.688.108-.167.212-.337.3-.516a.044.044,0,0,0-.018-.06.045.045,0,0,0-.061.018h0c-.088.162-.187.319-.291.473.028-.39-.255-.7-.646-1.121a10.65,10.65,0,0,0,.571,1.228c-.084.12-.17.24-.258.358-.02.028-.042.055-.063.082.067-.452-.249-.8-.693-1.277a13.285,13.285,0,0,0,.629,1.361c-.125.164-.252.327-.382.488.08-.511-.31-.911-.863-1.476a17.407,17.407,0,0,0,.808,1.543c-.046.056-.09.112-.136.168-.087.1-.176.208-.264.311.077-.546-.344-.979-.938-1.585a18.076,18.076,0,0,0,.872,1.662q-.23.267-.466.527c.053-.55-.363-1.033-.936-1.7a16.3,16.3,0,0,0,.825,1.816q-.19.208-.385.411c.06-.6-.392-1.123-1.016-1.844a17.939,17.939,0,0,0,.9,1.97l-.1.106c-.178.183-.359.362-.542.539.091-.613-.356-1.246-.968-2.106a19.413,19.413,0,0,0,.808,2.261q-.309.294-.628.577c.184-.7-.32-1.418-1.026-2.409a25.266,25.266,0,0,0,.9,2.523c-.062.054-.124.109-.186.162-.2.168-.4.33-.6.49.233-.75-.269-1.554-.969-2.669a27.009,27.009,0,0,0,.813,2.791q-.336.261-.684.506a1.956,1.956,0,0,0-.2-1.527c.065.647.115,1.275.159,1.893l.075-.054c1.113.275,2.373,1.037,3.046,1.054-1.174-.825-2.018-1.414-2.848-1.2.237-.176.469-.359.7-.546,1.024.255,2.179.953,2.8.969-1.089-.764-1.87-1.31-2.64-1.1q.258-.215.509-.436c.095-.084.188-.17.281-.256.929.285,1.96.994,2.528,1.042-.989-.783-1.689-1.336-2.431-1.13.216-.2.428-.407.636-.616.854.265,1.8.913,2.321.957-.909-.72-1.554-1.229-2.236-1.042q.268-.272.529-.548l.125-.136c.76.3,1.555.96,2.038,1.043-.769-.738-1.3-1.249-2.008-1.076q.25-.27.492-.547c.7.273,1.43.883,1.874.96-.707-.679-1.2-1.148-1.844-.993q.257-.294.506-.6c.616.289,1.24.875,1.637.967" transform="translate(-99.358 -113.809)" fill="#263238"/>
                  <path id="Path_10433" data-name="Path 10433" d="M124.1,126.19a16.331,16.331,0,0,0-1.5,1.32q-.255-.122-.506-.248c.59-.118.96-.7,1.467-1.51a17.744,17.744,0,0,0-1.623,1.432l-.132-.067q-.34-.176-.674-.362c.613-.092,1.087-.7,1.732-1.541a19.45,19.45,0,0,0-1.926,1.433q-.372-.21-.735-.432c.728-.03,1.262-.72,2-1.684a25.205,25.205,0,0,0-2.151,1.593c-.07-.044-.141-.086-.21-.131-.217-.139-.431-.283-.643-.429.785,0,1.407-.711,2.269-1.706a26.936,26.936,0,0,0-2.432,1.593q-.347-.245-.683-.506c.883.043,1.568-.742,2.526-1.849a30.878,30.878,0,0,0-2.662,1.741c-.068-.054-.136-.106-.2-.16h0l0,0a.14.14,0,1,0-.173.22c.074.058.15.113.224.17.062,1.145-.3,2.573-.118,3.221.445-1.363.762-2.343.312-3.073.238.176.481.344.727.507.055,1.053-.275,2.363-.11,2.958.413-1.265.706-2.171.28-2.845q.281.183.566.358c.108.066.217.13.327.194,0,.971-.378,2.165-.258,2.723.461-1.174.784-2.006.371-2.656.256.149.514.291.775.429,0,.894-.348,1.987-.237,2.5.423-1.08.722-1.845.344-2.443.225.118.451.234.679.345.055.028.112.053.167.08-.061.813-.464,1.767-.4,2.253.481-.951.813-1.612.442-2.234q.332.159.667.311c-.057.748-.427,1.625-.37,2.072.442-.874.747-1.483.411-2.054q.357.16.718.31c-.1.674-.475,1.441-.447,1.848.447-.761.757-1.3.5-1.826.132.054.264.108.4.161.077.03.155.059.232.088-.089.621-.438,1.328-.412,1.7.413-.7.7-1.194.459-1.685q.318.122.64.231c-.046.555-.327,1.176-.285,1.516.339-.617.572-1.047.317-1.5l.118.041c.158.052.317.1.477.15a13.857,13.857,0,0,0-.261,1.38c.307-.561.521-.953.3-1.368.191.055.385.1.583.141a.045.045,0,0,0,.051-.035.044.044,0,0,0-.035-.053h0c-.181-.037-.36-.086-.538-.14.381-.086.594-.448.883-.945-.275.122-.614.6-1.008.9-.14-.045-.279-.093-.417-.142l-.1-.036c.452-.068.69-.472,1.019-1.037-.3.134-.681.671-1.118,1q-.291-.107-.578-.223c.511-.072.781-.562,1.159-1.256-.332.169-.756.826-1.239,1.223l-.2-.081c-.126-.053-.25-.107-.375-.162.545-.086.835-.615,1.241-1.36-.359.183-.815.888-1.335,1.32q-.322-.142-.64-.293c.541-.11.881-.648,1.347-1.39" transform="translate(-107.276 -114.158)" fill="#263238"/>
                  <path id="Path_10434" data-name="Path 10434" d="M118.138,141.129a13.965,13.965,0,0,0,1.282.573c-.474-.428-.806-.727-1.26-.61.1-.173.19-.35.272-.535a.045.045,0,0,0-.022-.059.045.045,0,0,0-.06.022h0c-.078.167-.166.33-.261.491,0-.391-.3-.681-.715-1.078a10.637,10.637,0,0,0,.647,1.19q-.115.188-.234.374l-.058.086c.038-.456-.3-.781-.773-1.232a13.212,13.212,0,0,0,.715,1.319q-.172.259-.351.511c.048-.514-.367-.89-.954-1.418.088.363.629.926.9,1.489-.042.059-.083.118-.125.176-.08.11-.162.218-.243.327.042-.55-.4-.955-1.037-1.522a18.193,18.193,0,0,0,.976,1.6q-.213.281-.432.555c.018-.552-.428-1.007-1.041-1.632a16.393,16.393,0,0,0,.938,1.76q-.177.22-.358.435c.022-.6-.462-1.1-1.13-1.776a17.774,17.774,0,0,0,1.018,1.909c-.032.037-.063.076-.1.113-.166.193-.336.383-.507.572.052-.617-.434-1.22-1.1-2.041a19.5,19.5,0,0,0,.949,2.2q-.289.314-.59.616c.139-.715-.409-1.394-1.176-2.339a25.273,25.273,0,0,0,1.053,2.461c-.059.058-.117.117-.176.174-.185.179-.375.354-.566.527.184-.764-.367-1.534-1.136-2.6a26.98,26.98,0,0,0,.988,2.734q-.319.282-.651.548c.247-.848-.359-1.7-1.215-2.885a31.251,31.251,0,0,0,1.079,2.993c-.068.053-.134.107-.2.159h0l0,0a.14.14,0,1,0,.173.219c.074-.059.145-.119.217-.179,1.128.2,2.434.885,3.106.859-1.224-.748-2.1-1.283-2.918-1.014.226-.191.446-.389.662-.59,1.038.19,2.235.813,2.853.79-1.135-.694-1.949-1.189-2.7-.93.162-.154.323-.309.48-.468.089-.089.177-.182.264-.273.945.226,2.019.868,2.589.88-1.036-.719-1.77-1.227-2.5-.974.2-.215.4-.434.6-.655.869.21,1.854.8,2.377.809-.953-.662-1.629-1.129-2.3-.9.166-.191.332-.384.493-.58.04-.048.078-.1.117-.144.777.247,1.612.86,2.1.912-.814-.688-1.381-1.164-2.072-.947q.233-.286.457-.577c.715.228,1.482.791,1.931.839-.748-.632-1.27-1.07-1.9-.874q.238-.311.468-.627c.633.25,1.292.8,1.695.861-.638-.61-1.085-1.036-1.662-.908.083-.115.167-.231.248-.349.047-.068.093-.137.14-.2.584.23,1.191.733,1.562.794-.588-.563-1-.956-1.533-.836.127-.188.252-.377.373-.569.529.173,1.069.59,1.408.627-.522-.472-.886-.8-1.391-.655.022-.036.046-.07.068-.106.087-.142.173-.285.256-.429" transform="translate(-104.447 -121.869)" fill="#263238"/>
                  <path id="Path_10435" data-name="Path 10435" d="M129.042,147.355c.111-.147.232-.288.358-.425-.086.381.15.729.474,1.2a10.73,10.73,0,0,0-.384-1.3c.1-.106.2-.212.307-.316l.074-.072c-.133.438.13.826.5,1.366a13.318,13.318,0,0,0-.422-1.439q.221-.216.45-.426c-.154.493.172.947.636,1.586-.01-.374-.421-1.038-.572-1.645l.159-.146c.1-.091.2-.18.307-.269-.157.529.2,1.019.694,1.706a18.166,18.166,0,0,0-.617-1.773q.266-.229.538-.452c-.133.536.207,1.074.677,1.814a16.438,16.438,0,0,0-.549-1.917q.22-.177.442-.35c-.148.583.222,1.169.733,1.974a17.727,17.727,0,0,0-.6-2.08l.117-.091q.3-.231.616-.453c-.18.593.169,1.284.648,2.225a19.532,19.532,0,0,0-.466-2.355c.233-.163.468-.323.706-.478-.286.67.108,1.449.66,2.533a25.332,25.332,0,0,0-.514-2.627c.069-.044.138-.09.208-.133.219-.137.441-.268.664-.4-.34.707.037,1.576.565,2.782a26.922,26.922,0,0,0-.393-2.88q.371-.209.751-.4c-.419.778,0,1.735.583,3.076a31.121,31.121,0,0,0-.428-3.152c.077-.037.153-.077.231-.113h0a.14.14,0,1,0-.124-.25c-.084.041-.167.086-.25.129-1.06-.436-2.195-1.375-2.857-1.491,1.039.988,1.788,1.7,2.64,1.6-.261.139-.517.286-.77.438-.975-.4-2.016-1.263-2.624-1.37.964.916,1.657,1.571,2.449,1.475q-.286.174-.567.357c-.106.069-.211.14-.316.211-.877-.419-1.792-1.271-2.347-1.4.863.921,1.474,1.57,2.238,1.476-.244.167-.484.34-.72.516-.805-.387-1.645-1.168-2.155-1.289.793.847,1.356,1.444,2.058,1.361-.2.152-.4.306-.6.464-.048.038-.1.078-.144.116-.708-.4-1.4-1.178-1.862-1.331.652.844,1.106,1.427,1.827,1.36q-.287.231-.568.469c-.651-.373-1.284-1.084-1.712-1.225.6.775,1.017,1.311,1.678,1.254q-.3.253-.589.514c-.567-.377-1.1-1.048-1.476-1.2.5.731.844,1.241,1.434,1.235-.106.1-.211.191-.316.289-.061.056-.12.114-.179.171-.523-.348-1.012-.966-1.361-1.1.457.674.778,1.144,1.324,1.138q-.246.235-.484.478c-.481-.28-.922-.8-1.246-.908.411.571.7.966,1.222.932-.029.03-.059.059-.088.089-.114.12-.229.242-.34.366-.437-.26-.838-.731-1.134-.829.374.518.636.88,1.105.86-.132.149-.26.3-.377.466a.045.045,0,0,0,.072.053Z" transform="translate(-112.061 -122.044)" fill="#263238"/>
                  <path id="Path_10436" data-name="Path 10436" d="M116.221,162.872c.216-.2.428-.407.636-.616.853.265,1.8.914,2.321.957-.909-.72-1.554-1.228-2.236-1.042q.268-.271.529-.548c.042-.045.083-.091.125-.136.76.3,1.555.96,2.038,1.043-.769-.738-1.3-1.249-2.007-1.076q.25-.271.492-.548c.7.273,1.43.883,1.874.96-.706-.678-1.2-1.148-1.844-.993q.257-.294.506-.6c.616.29,1.239.876,1.637.967-.6-.65-1.018-1.1-1.6-1.011.091-.11.181-.22.27-.332.051-.065.1-.131.152-.2.568.267,1.143.807,1.508.891-.551-.6-.938-1.017-1.477-.931.139-.179.275-.361.408-.544.517.206,1.029.657,1.366.715-.492-.5-.834-.853-1.347-.742.024-.034.05-.067.074-.1.1-.136.191-.273.282-.413a13.843,13.843,0,0,0,1.244.653c-.446-.458-.759-.777-1.219-.689.108-.167.212-.338.3-.516a.046.046,0,0,0-.018-.06.045.045,0,0,0-.061.018h0c-.088.162-.187.319-.292.473.029-.39-.255-.7-.646-1.121a10.7,10.7,0,0,0,.571,1.228q-.126.181-.257.358l-.063.082c.067-.453-.249-.8-.694-1.278a13.259,13.259,0,0,0,.63,1.361q-.187.247-.383.488c.081-.51-.31-.911-.863-1.475.065.368.569.964.808,1.542l-.136.168c-.087.105-.176.208-.264.311.076-.546-.344-.978-.938-1.584a18.331,18.331,0,0,0,.872,1.662q-.229.266-.466.526c.053-.55-.363-1.032-.936-1.695a16.42,16.42,0,0,0,.825,1.815q-.19.208-.385.411c.061-.6-.391-1.123-1.015-1.844a17.939,17.939,0,0,0,.9,1.97l-.1.107q-.268.273-.543.539c.091-.613-.356-1.246-.968-2.106a19.5,19.5,0,0,0,.808,2.261q-.309.294-.628.577c.184-.7-.32-1.418-1.026-2.409a25.31,25.31,0,0,0,.9,2.523c-.062.054-.124.109-.186.163q-.3.25-.6.49c.232-.75-.269-1.554-.969-2.669a24.726,24.726,0,0,0,.8,2.754l.417.029c.168-.14.335-.283.5-.429.095-.084.188-.17.281-.256a17.768,17.768,0,0,1,1.873.833l.411.017c-.862-.678-1.509-1.127-2.187-.938" transform="translate(-105.597 -129.838)" fill="#263238"/>
                  <path id="Path_10437" data-name="Path 10437" d="M112.462,164.467a10.817,10.817,0,0,0,.694,2.339l.411.031a5.912,5.912,0,0,0-1.1-2.371" transform="translate(-104.836 -133.101)" fill="#263238"/>
                  <path id="Path_10438" data-name="Path 10438" d="M116.429,168.943l.818.052a1.465,1.465,0,0,0-.818-.052" transform="translate(-106.653 -135.134)" fill="#263238"/>
                  <path id="Path_10439" data-name="Path 10439" d="M139.387,162.187c.016-.031.031-.066.046-.1-.067-.022-.133-.044-.2-.067l-.1-.036a.816.816,0,0,0,.415-.195c.049-.141.1-.292.139-.459a6.2,6.2,0,0,1-.653.617q-.291-.107-.578-.223c.512-.072.781-.563,1.159-1.256-.333.17-.756.826-1.239,1.224l-.2-.081c-.125-.053-.25-.107-.375-.162.545-.086.835-.615,1.241-1.36-.359.183-.815.888-1.335,1.32q-.321-.141-.64-.292c.541-.11.881-.648,1.348-1.391a16.409,16.409,0,0,0-1.5,1.32q-.254-.122-.506-.248c.59-.117.96-.7,1.467-1.51a17.913,17.913,0,0,0-1.623,1.432l-.132-.067c-.227-.117-.451-.238-.674-.362.613-.092,1.087-.7,1.731-1.541a19.628,19.628,0,0,0-1.926,1.433q-.372-.21-.736-.432c.728-.03,1.263-.72,2-1.685a25.108,25.108,0,0,0-2.151,1.594c-.07-.044-.14-.087-.21-.131-.217-.139-.431-.283-.644-.429.786,0,1.407-.711,2.269-1.707a26.953,26.953,0,0,0-2.432,1.593c-.232-.164-.46-.332-.684-.506.883.044,1.568-.742,2.527-1.849a31.111,31.111,0,0,0-2.662,1.741c-.067-.054-.136-.106-.2-.16l0,0h0a.14.14,0,1,0-.173.22c.074.058.15.113.224.17.063,1.145-.3,2.573-.118,3.221.446-1.363.763-2.344.313-3.073.238.176.481.344.726.508.055,1.053-.275,2.363-.11,2.958.413-1.265.706-2.171.28-2.845.187.123.375.242.566.358.108.067.217.13.326.194,0,.971-.378,2.165-.258,2.723.46-1.174.784-2.006.371-2.655.255.148.514.291.775.428,0,.894-.348,1.987-.237,2.5.423-1.08.721-1.845.344-2.443.225.118.451.234.679.346l.167.08c-.061.813-.464,1.767-.4,2.254.481-.951.813-1.613.442-2.235q.331.16.667.311c-.055.725-.4,1.568-.371,2.027l.025,0c.428-.847.716-1.445.387-2q.356.16.718.31c-.079.548-.34,1.153-.421,1.58l.146-.028c.348-.609.551-1.071.327-1.531.132.054.263.108.4.16.077.03.155.059.232.088a8.165,8.165,0,0,1-.306,1.129c.086-.023.171-.047.251-.072a1.134,1.134,0,0,0,.1-1.039c.213.081.426.158.641.231a3.508,3.508,0,0,1-.1.552,2.036,2.036,0,0,0,.239-.142.806.806,0,0,0-.1-.4l.119.041.19.06" transform="translate(-113.834 -129.513)" fill="#263238"/>
                  <path id="Path_10440" data-name="Path 10440" d="M104.3,144.16h0a.14.14,0,0,0-.075-.269c-.091.025-.18.054-.27.08-.961-.626-1.9-1.76-2.529-2,.837,1.164,1.44,2,2.295,2.067-.282.088-.562.185-.839.287-.652-.427-1.292-1.1-1.816-1.518,0,.126,0,.245,0,.37.539.707,1.013,1.177,1.625,1.219q-.313.118-.623.245c-.117.048-.233.1-.35.149a6.5,6.5,0,0,1-.657-.573c0,.152,0,.3-.007.452a1.212,1.212,0,0,0,.543.173c-.187.082-.371.17-.555.257l-.007.229c.241-.108.484-.214.729-.315-.406.605-.164,1.444.176,2.613a25.205,25.205,0,0,0-.016-2.676c.076-.031.153-.063.23-.092.24-.093.483-.181.726-.266-.466.632-.258,1.556.036,2.839a27.039,27.039,0,0,0,.151-2.9q.4-.136.812-.252c-.557.686-.327,1.7,0,3.13a31.152,31.152,0,0,0,.168-3.176c.083-.023.165-.047.249-.068" transform="translate(-99.606 -122.801)" fill="#263238"/>
                  <path id="Path_10441" data-name="Path 10441" d="M100.87,151.245l.055.192a4.875,4.875,0,0,0,0-1.416c-.017.418-.037.827-.059,1.224" transform="translate(-99.529 -126.487)" fill="#263238"/>
                  <path id="Path_10442" data-name="Path 10442" d="M102.45,163.258c-.066-.108-.135-.215-.2-.321.441-.866,1.317-1.759,1.462-2.311-.942.839-1.607,1.434-1.533,2.2q-.242-.372-.5-.733c.408-.8,1.21-1.615,1.343-2.121-.866.771-1.478,1.319-1.413,2.023q-.22-.31-.448-.615l-.113-.147c.422-.7,1.214-1.366,1.379-1.828-.86.63-1.455,1.07-1.406,1.792q-.224-.293-.454-.58c.39-.641,1.116-1.256,1.268-1.68-.79.579-1.337.983-1.3,1.645-.11-.136-.222-.269-.334-.4,0,.075-.01.152-.014.226.064.081.13.16.192.242a.955.955,0,0,0-.205-.033c0,.081-.008.158-.012.237.106-.028.213-.054.317-.074q.172.224.339.451a1.22,1.22,0,0,0-.672.016c0,.112-.011.228-.014.337a6.459,6.459,0,0,1,.79-.213l.088.119q.223.311.437.627a1.946,1.946,0,0,0-1.323.175c0,.1,0,.206,0,.3a12.753,12.753,0,0,1,1.449-.292q.237.355.46.718a2.31,2.31,0,0,0-1.872.28c.005.07.006.15.013.217l.124.016a15.794,15.794,0,0,1,1.825-.365c.042.07.086.14.128.211.081.139.158.28.236.42l.3.034c-.111-.193-.224-.385-.342-.574" transform="translate(-99.188 -130.57)" fill="#263238"/>
                  <path id="Path_10443" data-name="Path 10443" d="M100.49,157.629c-.007.088-.012.167-.018.254a1.907,1.907,0,0,0,.379-.491c-.129.083-.248.16-.361.237" transform="translate(-99.346 -129.862)" fill="#263238"/>
                  <path id="Path_10444" data-name="Path 10444" d="M106.385,166.661l.482.051a7.389,7.389,0,0,0,.98-1.767,8.235,8.235,0,0,0-1.462,1.716" transform="translate(-102.054 -133.32)" fill="#263238"/>
                  <path id="Path_10445" data-name="Path 10445" d="M105.22,165.951a20.628,20.628,0,0,0,1.358-2.429c-.94.94-1.611,1.616-1.537,2.409l.179.02" transform="translate(-101.436 -132.669)" fill="#263238"/>
                  <path id="Path_10446" data-name="Path 10446" d="M100.352,158.967c-.01.145-.02.288-.029.428a8.184,8.184,0,0,0,1.041-1.2,4.731,4.731,0,0,0-1.012.771" transform="translate(-99.278 -130.23)" fill="#263238"/>
                </g>
              </g>
            </g>
            <path id="Path_10447" data-name="Path 10447" d="M169.469,133.023l2.4-2.541,3.319,4.674s-2.8,1.989-5.487,1.909l-.307-.686a3.761,3.761,0,0,1,.079-3.355" transform="translate(-77.397 -59.745)" fill="#ffb573"/>
            <path id="Path_10448" data-name="Path 10448" d="M178.1,130.188l.937,1.766a1.661,1.661,0,0,1-.676,2.238l-.783.424-3.319-4.674,1.9-.568a1.661,1.661,0,0,1,1.943.813" transform="translate(-79.788 -59.206)" fill="#ffb573"/>
            <path id="Path_10449" data-name="Path 10449" d="M140.1,115.624l.2,1.038.228,1.1c.163.73.323,1.464.507,2.189.353,1.453.773,2.877,1.228,4.254a28.65,28.65,0,0,0,1.607,3.853,10.364,10.364,0,0,0,1.987,2.767l-1.153-.568c-.338-.047-.4.057-.223.051a2.5,2.5,0,0,0,.822-.235,13.817,13.817,0,0,0,2.309-1.352c.809-.555,1.619-1.185,2.431-1.836s1.633-1.356,2.421-2l.083-.068a1.908,1.908,0,0,1,2.907,2.347,28.412,28.412,0,0,1-4.026,5.807,16.724,16.724,0,0,1-2.922,2.592,9.5,9.5,0,0,1-2.164,1.1,6.34,6.34,0,0,1-1.527.335,5.83,5.83,0,0,1-1.932-.139,2.957,2.957,0,0,1-1.022-.472l-.131-.1a15.694,15.694,0,0,1-4.125-4.6c-.5-.808-.938-1.621-1.337-2.437s-.739-1.639-1.063-2.461a44.4,44.4,0,0,1-1.59-4.958c-.211-.832-.414-1.664-.581-2.505-.085-.42-.168-.842-.241-1.267s-.136-.829-.205-1.337a3.794,3.794,0,0,1,7.48-1.252Z" transform="translate(-60.695 -51.47)" fill="#ffb573"/>
            <path id="Path_10450" data-name="Path 10450" d="M133.513,107.817c3.151.326,5.675,2.417,7.437,9.081-1.355,1.875-9.894,5.99-9.894,5.99s-4.754-15.817,2.457-15.071" transform="translate(-59.304 -49.355)" fill="#263238"/>
          </g>
        </g>
      </g>
    </g>
  </g>
</svg>
