<svg xmlns="http://www.w3.org/2000/svg" xmlns:xlink="http://www.w3.org/1999/xlink" width="845.061" height="450.062" viewBox="0 0 845.061 450.062">
  <defs>
    <clipPath id="clip-path">
      <path id="Path_10055" data-name="Path 10055" d="M262,808h739.227v255.147H262Zm0,0" transform="translate(-262 -808)"/>
    </clipPath>
    <clipPath id="clip-path-2">
      <path id="Path_10054" data-name="Path 10054" d="M262.582,809.471h788.924l-40.732-211.806c-20.726-107.768-128.193-175.609-234.4-147.97L654.088,481.517a192.359,192.359,0,0,1-82.711,3.118l-24.89-4.512C423.832,457.9,306.763,540.49,286.559,663.494L262.582,809.471" transform="translate(-262.582 -443.514)"/>
    </clipPath>
    <clipPath id="clip-path-3">
      <path id="Path_10060" data-name="Path 10060" d="M1631,690h10.974v28.655H1631Zm0,0" transform="translate(-1631 -690)"/>
    </clipPath>
    <clipPath id="clip-path-4">
      <path id="Path_10059" data-name="Path 10059" d="M1597.965,690.2l-29-9.673L1567.81,693.3l30.155,18.738V690.2" transform="translate(-1567.81 -680.531)"/>
    </clipPath>
    <clipPath id="clip-path-5">
      <path id="Path_10065" data-name="Path 10065" d="M1770,978h46.335v184.73H1770Zm0,0" transform="translate(-1770 -978)"/>
    </clipPath>
    <clipPath id="clip-path-6">
      <path id="Path_10064" data-name="Path 10064" d="M1764.111,890.137l-26.024,65.114a47.278,47.278,0,0,0-3.378,17.549v128.586h19.534L1775.61,975.3l47.314-73.386-58.812-11.777" transform="translate(-1734.71 -890.137)"/>
    </clipPath>
    <clipPath id="clip-path-7">
      <path id="Path_10069" data-name="Path 10069" d="M1912,933h61.272v37.495H1912Zm0,0" transform="translate(-1912 -933)"/>
    </clipPath>
    <clipPath id="clip-path-8">
      <path id="Path_10068" data-name="Path 10068" d="M1905.46,893.035l6.67,81.457a34.417,34.417,0,0,0,3.826,13.184l60.7,115.725,17.3-9.072-38.138-116.935,6.42-71.426-56.782-12.933" transform="translate(-1905.46 -893.035)"/>
    </clipPath>
    <clipPath id="clip-path-9">
      <path id="Path_10075" data-name="Path 10075" d="M1959,432h25.606v12.8H1959Zm0,0" transform="translate(-1959 -432)"/>
    </clipPath>
    <clipPath id="clip-path-10">
      <path id="Path_10074" data-name="Path 10074" d="M1990.045,431.34c-2.311,11.537-11.87,19.348-21.354,17.448s-15.3-12.788-12.986-24.323,11.87-19.348,21.351-17.452,15.3,12.791,12.989,24.326" transform="translate(-1955.199 -406.73)"/>
    </clipPath>
    <clipPath id="clip-path-11">
      <path id="Path_10086" data-name="Path 10086" d="M2044,784h22.558v54.261H2044Zm0,0" transform="translate(-2044 -784)"/>
    </clipPath>
    <clipPath id="clip-path-12">
      <path id="Path_10085" data-name="Path 10085" d="M1896.6,620.177c.857-18.026-9.252-33.27-24.015-36.227l-8.38-1.68c-14.763-2.957-29.962,7.224-36.114,24.186l-28.148,77.632,92.746,18.571,3.911-82.482" transform="translate(-1799.94 -581.762)"/>
    </clipPath>
    <clipPath id="clip-path-13">
      <path id="Path_10097" data-name="Path 10097" d="M1666,712h54.566v14.327H1666Zm0,0" transform="translate(-1666 -712)"/>
    </clipPath>
    <clipPath id="clip-path-14">
      <path id="Path_10096" data-name="Path 10096" d="M1666.73,726.748V712.762h29.84v6.288l-29.84,7.7m38.888-10.03v-3.956h15.345l-15.345,3.956" transform="translate(-1666.73 -712.762)"/>
    </clipPath>
    <clipPath id="clip-path-15">
      <path id="Path_10103" data-name="Path 10103" d="M2053,789h28.35v14.937H2053Zm0,0" transform="translate(-2053 -789)"/>
    </clipPath>
    <clipPath id="clip-path-16">
      <path id="Path_10102" data-name="Path 10102" d="M1969.67,789.391l4.082,15.046a15.158,15.158,0,0,1-9.52,18.238L1903.779,844.3l-8.209-10.558,55.882-29.07L1947,793.216l22.671-3.825" transform="translate(-1895.57 -789.391)"/>
    </clipPath>
    <clipPath id="clip-path-17">
      <path id="Path_10122" data-name="Path 10122" d="M976,436h31.7v14.022H976Zm0,0" transform="translate(-976 -436)"/>
    </clipPath>
    <clipPath id="clip-path-18">
      <path id="Path_10121" data-name="Path 10121" d="M968.763,453.13c3.069,11.722,13.366,19.177,23,16.656s14.955-14.068,11.889-25.788-13.367-19.181-23-16.657S965.7,441.409,968.763,453.13" transform="translate(-967.896 -426.85)"/>
    </clipPath>
    <clipPath id="clip-path-19">
      <path id="Path_10135" data-name="Path 10135" d="M1176,552h29.874v26.216H1176Zm0,0" transform="translate(-1176 -552)"/>
    </clipPath>
    <clipPath id="clip-path-20">
      <path id="Path_10134" data-name="Path 10134" d="M1176.18,456.6l14.184-6.091,63.342-41.049,5.9,10.837-52.874,48.84-19.811,9.9L1176.18,456.6" transform="translate(-1176.18 -409.461)"/>
    </clipPath>
  </defs>
  <g id="surface1" transform="translate(-44.556 -54.785)">
    <path id="Path_10052" data-name="Path 10052" d="M262.582,809.471h788.924l-40.732-211.806c-20.726-107.768-128.193-175.609-234.4-147.97L654.088,481.517a192.359,192.359,0,0,1-82.711,3.118l-24.89-4.512C423.832,457.9,306.763,540.49,286.559,663.494L262.582,809.471" transform="translate(-180.423 -305.715)" fill="#d7f9dd"/>
    <g id="Group_31487" data-name="Group 31487" transform="translate(81.981 248.907)" clip-path="url(#clip-path)">
      <g id="Group_31486" data-name="Group 31486" transform="translate(0.177 -111.108)" clip-path="url(#clip-path-2)">
        <path id="Path_10053" data-name="Path 10053" d="M1001.342,1063.493H408.582V959.013H630.963V808.926h59.653v45.6h68.728v-45.6H900.911v97.847h100.431v156.719m-697.241,0H262.582l17.161-104.479H304.1v104.479" transform="translate(-262.582 -697.535)" fill="#a6e5b2"/>
      </g>
    </g>
    <path id="Path_10056" data-name="Path 10056" d="M2115.346,1548.859l.717,5.917-13.337,13.836a5.723,5.723,0,0,0-1.152,6.194l33.617-14.169-8.483-16.568-11.362,4.789" transform="translate(-1458.512 -1070.783)" fill="#152e60"/>
    <path id="Path_10057" data-name="Path 10057" d="M1597.965,690.2l-29-9.673L1567.81,693.3l30.155,18.738V690.2" transform="translate(-1087.771 -470.481)" fill="#f4d2c6"/>
    <g id="Group_31489" data-name="Group 31489" transform="translate(499.301 212.936)" clip-path="url(#clip-path-3)">
      <g id="Group_31488" data-name="Group 31488" transform="translate(-19.263 -2.886)" clip-path="url(#clip-path-4)">
        <path id="Path_10058" data-name="Path 10058" d="M1635.8,690.789l-4.027,25.037,17.266,10.432,2.015-34.606-15.254-.863" transform="translate(-1612.273 -687.662)" fill="#eda19d"/>
      </g>
    </g>
    <path id="Path_10061" data-name="Path 10061" d="M1505.6,653.362s-12.215-13.343-13.562-12.507c-3.621,2.244,4.4,9.315,2.932,9.66s-19.753-1.636-20.186.089,3.884,14.146,6.127,15.1,24.067.518,24.067.518l.622-12.855" transform="translate(-1023.081 -442.874)" fill="#f4d2c6"/>
    <path id="Path_10062" data-name="Path 10062" d="M1764.111,890.137l-26.024,65.114a47.278,47.278,0,0,0-3.378,17.549v128.586h19.534L1775.61,975.3l47.314-73.386-58.812-11.777" transform="translate(-1203.794 -616.192)" fill="#324d90"/>
    <g id="Group_31491" data-name="Group 31491" transform="translate(541.674 300.729)" clip-path="url(#clip-path-5)">
      <g id="Group_31490" data-name="Group 31490" transform="translate(-10.758 -26.784)" clip-path="url(#clip-path-6)">
        <path id="Path_10063" data-name="Path 10063" d="M1816.728,1011.785l-2.734-33.426s-30.557,52.033-31.063,60.614-12.111,127.184-12.111,127.184h14.132l21.2-129.2,10.581-25.17" transform="translate(-1759.813 -951.466)" fill="#2a437d"/>
      </g>
    </g>
    <path id="Path_10066" data-name="Path 10066" d="M1905.46,893.035l6.67,81.457a34.468,34.468,0,0,0,3.826,13.184l60.7,115.725,17.3-9.072-38.138-116.935,6.42-71.426-56.782-12.933" transform="translate(-1322.493 -618.206)" fill="#324d90"/>
    <g id="Group_31493" data-name="Group 31493" transform="translate(584.96 287.011)" clip-path="url(#clip-path-7)">
      <g id="Group_31492" data-name="Group 31492" transform="translate(-1.994 -12.183)" clip-path="url(#clip-path-8)">
        <path id="Path_10067" data-name="Path 10067" d="M1912.06,937.48s17.626,25.334,58.989,32.854l2.116-29.409-59.224-7.722-1.881,4.277" transform="translate(-1910.048 -920.958)" fill="#2a437d"/>
      </g>
    </g>
    <path id="Path_10070" data-name="Path 10070" d="M1693.061,1583.13l-1.637,5.731-17.665,7.572a5.72,5.72,0,0,0-3.469,5.259h36.483l-1.384-18.562h-12.327" transform="translate(-1159.011 -1097.936)" fill="#152e60"/>
    <path id="Path_10071" data-name="Path 10071" d="M1959.54,411.743s.8-27.488,28.648-16.1c0,0-17.2,17.634-28.648,16.1" transform="translate(-1360.088 -270.515)" fill="#59445a"/>
    <path id="Path_10072" data-name="Path 10072" d="M1990.045,431.34c-2.311,11.537-11.87,19.348-21.354,17.448s-15.3-12.788-12.986-24.323,11.87-19.348,21.351-17.452,15.3,12.791,12.989,24.326" transform="translate(-1357.07 -280.144)" fill="#f4d2c6"/>
    <g id="Group_31495" data-name="Group 31495" transform="translate(599.288 134.289)" clip-path="url(#clip-path-9)">
      <g id="Group_31494" data-name="Group 31494" transform="translate(-1.159 -7.703)" clip-path="url(#clip-path-10)">
        <path id="Path_10073" data-name="Path 10073" d="M1959.54,439.064a34.832,34.832,0,0,0,21.21,2.785l2.393,2.915,1.665-6.39-24.152-6.194-1.115,6.884" transform="translate(-1958.217 -424.422)" fill="#eda19d"/>
      </g>
    </g>
    <path id="Path_10076" data-name="Path 10076" d="M2006.738,482.922s-8.139,31.912-6.651,42.149c0,0-11.337,1.1-21.217-4.246,0,0,12.154-26.2,12.123-32.78l15.745-5.124" transform="translate(-1373.525 -333.11)" fill="#f4d2c6"/>
    <path id="Path_10077" data-name="Path 10077" d="M2000.611,540.313s3.658.676,9.243-2.274c0,0-2.786,8.5-11.263,7.322l2.021-5.048" transform="translate(-1387.234 -371.426)" fill="#eda19d"/>
    <path id="Path_10078" data-name="Path 10078" d="M1965.88,408.441s7.508,3.16,20.348,4.438c0,0,2.35,4.8.8,9-3.036,8.209,8.124,10.444,8.124,10.444s10.63-16.184,8.5-25.113c-1.442-6.066-8.051-9.532-13.958-11.639-4.466-1.591-12.3-1.782-16.132,1.012-2.323,1.694-6.133,6.478-7.682,11.859" transform="translate(-1364.495 -271.585)" fill="#59445a"/>
    <path id="Path_10079" data-name="Path 10079" d="M2035.1,477.648a3.84,3.84,0,1,1-3.012-4.518,3.836,3.836,0,0,1,3.012,4.518" transform="translate(-1407.327 -326.251)" fill="#f4d2c6"/>
    <path id="Path_10080" data-name="Path 10080" d="M1978.27,386.86l29.426,29.154s16.324-13.495,1.427-28.282c-18.3-18.163-30.852-.873-30.852-.873" transform="translate(-1373.108 -261.165)" fill="#4292f3"/>
    <path id="Path_10081" data-name="Path 10081" d="M1941.7,417.987l-17.647-1.047a19.662,19.662,0,0,1-13.791-6.861l-6.268-7.341,22.643.326,15.062,14.923" transform="translate(-1321.471 -277.369)" fill="#324d90"/>
    <path id="Path_10082" data-name="Path 10082" d="M2067.59,399.861c-.46.561-1.972.086-3.371-1.065s-2.165-2.536-1.7-3.1,1.969-.084,3.371,1.065,2.164,2.537,1.7,3.1" transform="translate(-1431.578 -272.312)" fill="#324d90"/>
    <path id="Path_10083" data-name="Path 10083" d="M1896.6,620.178c.857-18.026-9.252-33.27-24.015-36.227l-8.38-1.68c-14.763-2.954-29.962,7.224-36.114,24.186l-28.148,77.632,92.746,18.571,3.911-82.482" transform="translate(-1249.14 -401.822)" fill="#4292f3"/>
    <g id="Group_31497" data-name="Group 31497" transform="translate(625.199 241.591)" clip-path="url(#clip-path-11)">
      <g id="Group_31496" data-name="Group 31496" transform="translate(-74.398 -61.649)" clip-path="url(#clip-path-12)">
        <path id="Path_10084" data-name="Path 10084" d="M2044.12,791.126s-.027,41.058,20.774,47.607l1.5-54-22.274,6.388" transform="translate(-1969.685 -722.863)" fill="#3c7ed7"/>
      </g>
    </g>
    <path id="Path_10087" data-name="Path 10087" d="M1687.861,541.9H1619.13V466.98h68.731V541.9" transform="translate(-1123.447 -322.028)" fill="#f3ac4a"/>
    <path id="Path_10088" data-name="Path 10088" d="M1882.693,541.9H1844.64V466.98h38.053V541.9" transform="translate(-1280.214 -322.028)" fill="#f08f3c"/>
    <path id="Path_10089" data-name="Path 10089" d="M1726.071,474.5h-9.051V466.98h9.051V474.5" transform="translate(-1191.497 -322.028)" fill="#fdf1e6"/>
    <path id="Path_10090" data-name="Path 10090" d="M1905.181,474.5h-9.051V466.98h9.051V474.5" transform="translate(-1316.007 -322.028)" fill="#fdf1e6"/>
    <path id="Path_10091" data-name="Path 10091" d="M1666.73,787.678h68.728v-74.92H1666.73Zm0,0" transform="translate(-1156.537 -492.884)" fill="#f3ac4a"/>
    <path id="Path_10092" data-name="Path 10092" d="M1930.293,787.682H1892.24v-74.92h38.053v74.92" transform="translate(-1313.303 -492.887)" fill="#f08f3c"/>
    <path id="Path_10093" data-name="Path 10093" d="M1764.62,720.276h9.048v-7.522h-9.048Zm0,0" transform="translate(-1224.586 -492.881)" fill="#fdf1e6"/>
    <path id="Path_10094" data-name="Path 10094" d="M1952.771,720.282h-9.051v-7.52h9.051v7.52" transform="translate(-1349.09 -492.887)" fill="#fdf1e6"/>
    <g id="Group_31499" data-name="Group 31499" transform="translate(509.971 219.643)" clip-path="url(#clip-path-13)">
      <g id="Group_31498" data-name="Group 31498" transform="translate(0.223 0.232)" clip-path="url(#clip-path-14)">
        <path id="Path_10095" data-name="Path 10095" d="M1666.73,726.745h54.233V712.758H1666.73Zm0,0" transform="translate(-1666.73 -712.759)" fill="#f19c42"/>
      </g>
    </g>
    <path id="Path_10098" data-name="Path 10098" d="M1764.62,719.051v-6.288h9.048v3.956l-9.048,2.333" transform="translate(-1224.586 -492.887)" fill="#f6bc8a"/>
    <path id="Path_10099" data-name="Path 10099" d="M2050.507,659.012l10.706,39.469-33.632,5.687-3.49-37.521,26.417-7.635" transform="translate(-1404.961 -455.522)" fill="#4292f3"/>
    <path id="Path_10100" data-name="Path 10100" d="M1969.67,789.391l4.082,15.046a15.156,15.156,0,0,1-9.52,18.236L1903.779,844.3l-8.209-10.558,55.882-29.07L1947,793.217l22.671-3.826" transform="translate(-1315.618 -546.157)" fill="#f4d2c6"/>
    <g id="Group_31501" data-name="Group 31501" transform="translate(627.942 243.115)" clip-path="url(#clip-path-15)">
      <g id="Group_31500" data-name="Group 31500" transform="translate(-47.99 0.119)" clip-path="url(#clip-path-16)">
        <path id="Path_10101" data-name="Path 10101" d="M2057.924,797.714a88.577,88.577,0,0,0,23.81-12.03l-1.792-5.625-26.332,5.4,4.313,12.259" transform="translate(-2005.434 -782.904)" fill="#eda19d"/>
      </g>
    </g>
    <path id="Path_10104" data-name="Path 10104" d="M1851.43,923.229s-16.425-4.983-16.425-4.524,1.582,4.236,3.219,5.285a10.732,10.732,0,0,0,1.975.851c-3.625,2.051-9.2,5.984-9.2,5.984s12.084,6.122,15.574,6.044,12.318-2.692,12.318-2.692-3.594-10.189-7.462-10.948" transform="translate(-1270.731 -636.03)" fill="#f4d2c6"/>
    <path id="Path_10105" data-name="Path 10105" d="M2003.66,582.32l2.707,6.021a5.132,5.132,0,0,0,5.459,2.96,17.147,17.147,0,0,0,9.307-4.521l-3.563-2.158-13.91-2.3" transform="translate(-1390.758 -402.208)" fill="#fff"/>
    <path id="Path_10106" data-name="Path 10106" d="M1983.8,581.748l-6.081,3.344a1.764,1.764,0,0,1-2.6-1.817,5.474,5.474,0,0,1,.342-1.149,21.807,21.807,0,0,1,8.34-.378" transform="translate(-1370.896 -401.636)" fill="#fff"/>
    <path id="Path_10107" data-name="Path 10107" d="M398.781,1405.76H503.262V1301.28H398.781Zm0,0" transform="translate(-275.104 -902.004)" fill="#a6e5b2"/>
    <path id="Path_10108" data-name="Path 10108" d="M542.449,1312.7h16.892V1301.28H542.449Zm0,0" transform="translate(-374.977 -902.004)" fill="#d7f9dd"/>
    <path id="Path_10109" data-name="Path 10109" d="M354.039,1063.013H458.52V958.531H354.039Zm0,0" transform="translate(-244.001 -663.737)" fill="#a6e5b2"/>
    <path id="Path_10110" data-name="Path 10110" d="M514.6,969.953H497.7V958.535H514.6v11.418" transform="translate(-343.871 -663.74)" fill="#d7f9dd"/>
    <path id="Path_10111" data-name="Path 10111" d="M398.781,1320.317V1301.28h43.8v9.858l-43.8,9.179m60.687-12.718v-6.319h30.155l-30.155,6.319" transform="translate(-275.104 -902.004)" fill="#89cf95"/>
    <path id="Path_10112" data-name="Path 10112" d="M542.449,1311.138v-9.858h16.892v6.319l-16.892,3.539" transform="translate(-374.977 -902.004)" fill="#89cf95" opacity="0.5"/>
    <path id="Path_10113" data-name="Path 10113" d="M736.727,1063.016H696.785V958.535h39.942v104.481" transform="translate(-482.266 -663.74)" fill="#c5f2cd"/>
    <path id="Path_10114" data-name="Path 10114" d="M780.2,1405.76H740.254V1301.28H780.2V1405.76" transform="translate(-512.484 -902.004)" fill="#c5f2cd"/>
    <path id="Path_10115" data-name="Path 10115" d="M1170.46,464.948l14.684-5.219,38.943-31.892,17.888-.786-46.6,40.348-19.318,9.233-5.6-11.684" transform="translate(-811.548 -294.271)" fill="#eda19d"/>
    <path id="Path_10116" data-name="Path 10116" d="M801.482,1546.571l-.914,5.886,12.874,14.272a5.718,5.718,0,0,1,.948,6.228l-33.132-15.272,9.027-16.275,11.2,5.161" transform="translate(-540.988 -1068.933)" fill="#152e60"/>
    <path id="Path_10117" data-name="Path 10117" d="M1092.294,1584.01l1.634,5.731,17.665,7.572a5.718,5.718,0,0,1,3.469,5.258H1078.58l1.384-18.562h12.331" transform="translate(-747.676 -1098.547)" fill="#152e60"/>
    <path id="Path_10118" data-name="Path 10118" d="M1056.894,430.98s5.993,5.1,6.868,11.367a17.852,17.852,0,0,1-.2,4.518l-9.487-11.678,2.814-4.207" transform="translate(-730.644 -297.002)" fill="#1a1949"/>
    <path id="Path_10119" data-name="Path 10119" d="M968.763,453.13c3.069,11.722,13.366,19.177,23,16.656s14.955-14.068,11.889-25.792-13.367-19.177-23-16.653S965.7,441.409,968.763,453.13" transform="translate(-670.732 -294.131)" fill="#f4d2c6"/>
    <g id="Group_31503" data-name="Group 31503" transform="translate(299.634 135.508)" clip-path="url(#clip-path-17)">
      <g id="Group_31502" data-name="Group 31502" transform="translate(-2.471 -2.789)" clip-path="url(#clip-path-18)">
        <path id="Path_10120" data-name="Path 10120" d="M1007.909,443.646s-18,11.434-27.191,3.8h0l21.244-11.092,5.947,7.294" transform="translate(-973.97 -433.455)" fill="#eda19d"/>
      </g>
    </g>
    <path id="Path_10123" data-name="Path 10123" d="M969.668,508.441s10.286,32.319,9.371,42.933c0,0,11.724.448,21.558-5.643,0,0-14.071-26.21-14.434-32.971l-16.5-4.319" transform="translate(-671.964 -350.85)" fill="#f4d2c6"/>
    <path id="Path_10124" data-name="Path 10124" d="M1018.339,564.8s-3.719.914-9.639-1.78c0,0,3.375,8.569,12.02,6.847l-2.381-5.067" transform="translate(-699.098 -388.792)" fill="#eda19d"/>
    <path id="Path_10125" data-name="Path 10125" d="M985.884,405.149s-11.885,7.533-19.745,8.359-10.8-1.284-10.8-1.284-6.159-6.837-1.874-11.078,29.793-13.358,29.793-13.358,6.2,12.1,2.622,17.36" transform="translate(-659.65 -266.977)" fill="#59445a"/>
    <path id="Path_10126" data-name="Path 10126" d="M953.581,454.491s5.023,10.077,4.445,14.053-4.932,14.619-4.932,14.619-11.489-11.437-12.534-16.4,3.957-13.05,3.957-13.05l9.064.78" transform="translate(-651.63 -312.804)" fill="#59445a"/>
    <path id="Path_10127" data-name="Path 10127" d="M970.328,504.76a4.6,4.6,0,1,0,3.283-5.616,4.6,4.6,0,0,0-3.283,5.616" transform="translate(-672.318 -344.283)" fill="#f4d2c6"/>
    <path id="Path_10128" data-name="Path 10128" d="M1397.267,250.789l-68.679,2.6-2.838-74.871,68.683-2.6,2.835,74.867" transform="translate(-919.5 -119.695)" fill="#f3ac4a"/>
    <path id="Path_10129" data-name="Path 10129" d="M1591.963,246.058l-38.025,1.442-2.838-74.867,38.025-1.442,2.838,74.867" transform="translate(-1076.155 -116.406)" fill="#f08f3c"/>
    <path id="Path_10130" data-name="Path 10130" d="M1432.9,187.141l-9.041.342-.287-7.517,9.045-.344.283,7.52" transform="translate(-987.501 -122.266)" fill="#fdf1e6"/>
    <path id="Path_10131" data-name="Path 10131" d="M1611.878,180.361l-9.044.34-.284-7.517,9.044-.344.284,7.521" transform="translate(-1111.921 -117.553)" fill="#fdf1e6"/>
    <path id="Path_10132" data-name="Path 10132" d="M1176.18,456.6l14.184-6.091,63.342-41.049,5.9,10.837-52.874,48.84-19.811,9.9L1176.18,456.6" transform="translate(-815.524 -282.043)" fill="#f4d2c6"/>
    <g id="Group_31505" data-name="Group 31505" transform="translate(360.601 170.869)" clip-path="url(#clip-path-19)">
      <g id="Group_31504" data-name="Group 31504" transform="translate(0.055 -43.451)" clip-path="url(#clip-path-20)">
        <path id="Path_10133" data-name="Path 10133" d="M1170.907,552.59l27.783,18.366-22.564,11.337-10.316-25.85,5.1-3.853" transform="translate(-1168.971 -508.959)" fill="#eda19d"/>
      </g>
    </g>
    <path id="Path_10136" data-name="Path 10136" d="M1430.5,381.3s11.449-14.187,14.434-12.15c1.369.932-4.207,8-2.984,8.819s21.058-6.661,21.143-4.341-2.423,10.99-4.457,13.024-22.232,5.487-22.232,5.487l-5.9-10.837" transform="translate(-992.318 -253.878)" fill="#f4d2c6"/>
    <path id="Path_10137" data-name="Path 10137" d="M839.279,901.219l-13.192,114.128-30.11,84.272,16.841,6.865,46.011-70.5a58.621,58.621,0,0,0,7.91-15.675l23.829-72.639-51.29-46.454" transform="translate(-551.221 -623.896)" fill="#2a437d"/>
    <path id="Path_10138" data-name="Path 10138" d="M1004.108,842.453l-4.789-93.191H943.587l-5.419,39.2a109.157,109.157,0,0,0,6.855,56.344q.428,1.047.877,2.088l16.184,37.452L966.8,903.06l12.315,100.663h16.7l12.193-106.4-3.9-54.87" transform="translate(-649.321 -518.26)" fill="#324d90"/>
    <path id="Path_10139" data-name="Path 10139" d="M958.391,647.718l1.423-19.607c.975-13.438,11.73-24.332,25.192-24.9.351-.016.7-.022,1.058-.024a27.821,27.821,0,0,1,3.832.25,26.625,26.625,0,0,1,22.238,20.817l1.991,23.461H958.391" transform="translate(-664.125 -416.717)" fill="#4292f3"/>
    <path id="Path_10140" data-name="Path 10140" d="M1013.85,565.438l46.814-20.418,15.611,32.593-37.4,19.246-25.024-31.422" transform="translate(-702.678 -376.279)" fill="#4292f3"/>
    <path id="Path_10141" data-name="Path 10141" d="M963.424,652.89s-7.029-35.808,12.053-44.109c0,0-23.117,2.572-18.485,42.824l6.432,1.286" transform="translate(-662.726 -420.603)" fill="#324d90"/>
    <path id="Path_10142" data-name="Path 10142" d="M1096.988,694.18l-17.348,8.389,18.772,8.4Zm0,0" transform="translate(-748.413 -479.969)" fill="#3c7ed7"/>
    <path id="Path_10143" data-name="Path 10143" d="M1006.28,909.293h29.213l.8,25.4a14.257,14.257,0,0,1-28.484,1.269l-1.533-26.669" transform="translate(-697.416 -629.508)" fill="#2a437d"/>
    <path id="Path_10144" data-name="Path 10144" d="M1036.494,928.7H1007.44v-1.1h29.054v1.1" transform="translate(-698.222 -642.233)" fill="#324d90"/>
    <path id="Path_10145" data-name="Path 10145" d="M2372.062,1398.868H2276.67V1327.32h95.392v71.548" transform="translate(-1580.545 -920.106)" fill="#f3ac4a"/>
    <path id="Path_10146" data-name="Path 10146" d="M2425.358,1341.028H2413.21V1327.32h12.148v13.708" transform="translate(-1675.463 -920.106)" fill="#fdf1e6"/>
    <path id="Path_10147" data-name="Path 10147" d="M2389.918,644.988h-23.442a4.5,4.5,0,0,0-4.5,4.5V923.157h-91.313a5.953,5.953,0,1,0,0,11.907h95.962V650.049h23.293v-5.061" transform="translate(-1572.231 -445.773)" fill="#324d90"/>
    <path id="Path_10148" data-name="Path 10148" d="M2667.65,646.667h-32.56a1.352,1.352,0,0,1-1.351-1.352v-7.641a1.352,1.352,0,0,1,1.351-1.354h32.56a1.352,1.352,0,0,1,1.35,1.354v7.641a1.352,1.352,0,0,1-1.35,1.352" transform="translate(-1828.767 -439.747)" fill="#152e60"/>
    <path id="Path_10149" data-name="Path 10149" d="M2562.535,1527.774a21.063,21.063,0,1,1-21.061-21.064,21.06,21.06,0,0,1,21.061,21.064" transform="translate(-1749.985 -1044.811)" fill="#152e60"/>
    <path id="Path_10150" data-name="Path 10150" d="M2578.683,1556.533a8.452,8.452,0,1,1-8.45-8.453,8.45,8.45,0,0,1,8.45,8.453" transform="translate(-1778.744 -1073.57)" fill="#324d90"/>
    <path id="Path_10151" data-name="Path 10151" d="M139.227,1643.026c277.557-1.091,567.511-1.1,845.061,0-277.556,1.1-567.507,1.091-845.061,0" transform="translate(-94.671 -1139.002)" fill="#152e60"/>
  </g>
</svg>
