<svg xmlns="http://www.w3.org/2000/svg" xmlns:xlink="http://www.w3.org/1999/xlink" width="297.56" height="202.231" viewBox="0 0 297.56 202.231">
  <defs>
    <clipPath id="clip-path">
      <rect id="Rectangle_2193" data-name="Rectangle 2193" width="225.701" height="202.23" fill="none"/>
    </clipPath>
    <clipPath id="clip-path-7">
      <rect id="Rectangle_2158" data-name="Rectangle 2158" width="120.843" height="86.221" fill="none"/>
    </clipPath>
    <clipPath id="clip-path-9">
      <rect id="Rectangle_2176" data-name="Rectangle 2176" width="78.635" height="100.93" fill="none"/>
    </clipPath>
    <clipPath id="clip-path-10">
      <rect id="Rectangle_2177" data-name="Rectangle 2177" width="20.238" height="19.234" fill="none"/>
    </clipPath>
    <clipPath id="clip-path-12">
      <rect id="Rectangle_2191" data-name="Rectangle 2191" width="13.705" height="7.853" fill="none"/>
    </clipPath>
  </defs>
  <g id="upload_template" transform="translate(3607.28 -13192.104)">
    <path id="Path_10451" data-name="Path 10451" d="M144.437-36.235C159.668-7.356,149.778,33,142.459,65.832c-7.319,33.033-11.868,58.748-27.1,90.2s-40.946,68.638-64.682,66.66S5.182,179.57-14.4,148.119C-34.181,116.668-51.786,94.91-49.61,75.327S-25.478,38.535-5.7,9.656c19.781-29.077,36.99-69.43,65.869-80.9C88.854-82.719,129.206-65.115,144.437-36.235Z" transform="translate(-3532.487 13344.542) rotate(-90)" fill="#fff" opacity="0.5"/>
    <g id="Group_31536" data-name="Group 31536" transform="translate(-3571.351 13192.104)">
      <g id="Group_31535" data-name="Group 31535" clip-path="url(#clip-path)">
        <g id="Group_31510" data-name="Group 31510">
          <g id="Group_31509" data-name="Group 31509" clip-path="url(#clip-path)">
            <path id="Path_10200" data-name="Path 10200" d="M493.347,297.623c-2.907.062-6.834.191-9.711.191v-.191l-.027-4.871v-.219h.219c2.863.017,6.829.026,9.651.091-.008,1.483-.1,3.5-.13,5m0,0c-.045-1.424-.1-3.475-.129-4.871l.129.129c-2.753.057-6.727.077-9.521.089l.217-.218-.027,4.871-.191-.191c2.725.014,6.748.125,9.521.191" transform="translate(-273.087 -165.19)" fill="#ebebeb"/>
            <path id="Path_10201" data-name="Path 10201" d="M481.146,311.732c-2.907.062-6.834.191-9.711.191v-.191l-.027-4.871v-.219h.219c2.863.018,6.829.026,9.651.091-.008,1.482-.1,3.5-.13,5m0,0c-.045-1.424-.1-3.475-.129-4.871l.129.128c-2.754.057-6.727.078-9.521.089l.217-.218-.027,4.871-.191-.191c2.725.014,6.748.125,9.521.191" transform="translate(-266.197 -173.158)" fill="#ebebeb"/>
            <path id="Path_10202" data-name="Path 10202" d="M39.2,297.623c-2.907.062-6.834.191-9.711.191v-.191l-.027-4.871v-.219h.219c2.863.017,6.829.026,9.651.091-.008,1.483-.1,3.5-.13,5m0,0c-.045-1.424-.1-3.475-.129-4.871l.129.129c-2.753.057-6.727.077-9.521.089l.217-.218-.027,4.871-.191-.191c2.725.014,6.748.125,9.521.191" transform="translate(-16.637 -165.19)" fill="#ebebeb"/>
            <path id="Path_10203" data-name="Path 10203" d="M27,311.732c-2.907.062-6.834.191-9.711.191v-.191l-.027-4.871v-.219h.219c2.863.018,6.829.026,9.651.091-.008,1.482-.1,3.5-.13,5m0,0c-.045-1.424-.1-3.475-.129-4.871l.129.128c-2.753.057-6.727.078-9.521.089l.217-.218-.027,4.871-.191-.191c2.725.014,6.748.125,9.521.191" transform="translate(-9.747 -173.158)" fill="#ebebeb"/>
            <path id="Path_10204" data-name="Path 10204" d="M505.548,311.732c-2.907.062-6.834.191-9.711.191v-.191l-.027-4.871v-.219h.219c2.863.018,6.829.026,9.651.091-.008,1.482-.1,3.5-.13,5m0,0c-.045-1.424-.1-3.475-.129-4.871l.129.128c-2.753.057-6.727.078-9.521.089l.217-.218-.027,4.871-.191-.191c2.725.014,6.748.125,9.521.191" transform="translate(-279.977 -173.158)" fill="#ebebeb"/>
            <path id="Path_10205" data-name="Path 10205" d="M336.852,130.768c-2.907.062-6.834.191-9.711.191v-.191l-.027-4.871v-.219h.219c2.863.017,6.829.026,9.651.091-.008,1.483-.1,3.5-.13,5m0,0c-.045-1.424-.1-3.475-.129-4.871l.129.129c-2.753.057-6.727.077-9.521.089l.217-.218-.027,4.871-.191-.191c2.725.014,6.748.125,9.521.191" transform="translate(-184.716 -70.969)" fill="#ebebeb"/>
            <path id="Path_10206" data-name="Path 10206" d="M324.651,144.878c-2.907.062-6.834.191-9.711.191v-.191l-.027-4.871v-.219h.219c2.863.017,6.829.026,9.651.091-.008,1.483-.1,3.5-.13,5m0,0c-.045-1.424-.1-3.475-.129-4.871l.129.129c-2.753.057-6.727.077-9.521.089l.217-.218-.027,4.871-.191-.191c2.725.014,6.748.125,9.521.191" transform="translate(-177.826 -78.937)" fill="#ebebeb"/>
            <path id="Path_10207" data-name="Path 10207" d="M349.053,144.878c-2.907.062-6.834.191-9.711.191v-.191l-.027-4.871v-.219h.219c2.864.017,6.829.026,9.651.091-.008,1.483-.1,3.5-.13,5m0,0c-.045-1.424-.1-3.475-.129-4.871l.129.129c-2.753.057-6.727.077-9.521.089l.218-.218-.027,4.871-.191-.191c2.725.014,6.748.125,9.521.191" transform="translate(-191.606 -78.937)" fill="#ebebeb"/>
            <path id="Path_10208" data-name="Path 10208" d="M69.223,238.5c-2.907.062-6.834.191-9.711.191V238.5l-.027-4.871v-.219H59.7c2.863.017,6.829.026,9.651.091-.008,1.483-.1,3.5-.13,5m0,0c-.045-1.424-.1-3.475-.129-4.871l.129.129c-2.753.057-6.727.077-9.521.089l.218-.218-.027,4.871-.191-.191c2.725.014,6.748.125,9.521.191" transform="translate(-33.589 -131.807)" fill="#ebebeb"/>
            <path id="Path_10209" data-name="Path 10209" d="M169.719,340.66c-2.907.062-6.834.191-9.711.191v-.191l-.027-4.871v-.219h.219c2.863.017,6.829.026,9.651.091-.008,1.483-.1,3.5-.13,5m0,0c-.045-1.424-.1-3.475-.129-4.871l.129.128c-2.753.058-6.727.078-9.521.089l.217-.218-.027,4.871-.191-.19c2.725.013,6.748.125,9.521.19" transform="translate(-90.338 -189.493)" fill="#ebebeb"/>
            <path id="Path_10210" data-name="Path 10210" d="M492.082,55.778c-2.907.062-6.834.191-9.711.191v-.191l-.027-4.871v-.219h.219c2.863.017,6.829.026,9.651.091-.008,1.483-.1,3.5-.13,5m0,0c-.045-1.424-.1-3.475-.129-4.871l.129.129c-2.753.057-6.727.077-9.521.089l.218-.218-.027,4.871-.191-.191c2.725.014,6.748.125,9.521.191" transform="translate(-272.373 -28.623)" fill="#ebebeb"/>
            <path id="Path_10211" data-name="Path 10211" d="M504.283,69.888c-2.907.062-6.834.191-9.711.191v-.191l-.027-4.871V64.8h.219c2.863.017,6.829.026,9.651.091-.008,1.483-.1,3.5-.13,5m0,0c-.045-1.424-.1-3.475-.129-4.871l.129.129c-2.754.057-6.727.077-9.521.089l.217-.218-.027,4.871-.191-.191c2.725.014,6.748.125,9.521.191" transform="translate(-279.262 -36.591)" fill="#ebebeb"/>
            <path id="Path_10212" data-name="Path 10212" d="M27,55.79c-2.907.062-6.834.191-9.711.191V55.79l-.027-4.871V50.7h.219c2.863.017,6.829.026,9.651.091-.008,1.483-.1,3.5-.13,5m0,0c-.045-1.424-.1-3.475-.129-4.871l.129.129c-2.753.057-6.727.077-9.521.089l.217-.218L17.67,55.79,17.48,55.6c2.725.014,6.748.125,9.521.191" transform="translate(-9.747 -28.63)" fill="#ebebeb"/>
            <rect id="Rectangle_2134" data-name="Rectangle 2134" width="42.568" height="79.17" transform="translate(17.336 87.198)" fill="#ebebeb"/>
            <rect id="Rectangle_2135" data-name="Rectangle 2135" width="46.692" height="2.186" transform="translate(15.274 85.012)" fill="#dbdbdb"/>
            <rect id="Rectangle_2136" data-name="Rectangle 2136" width="14.685" height="2.186" transform="translate(0.589 85.012)" fill="#ebebeb"/>
            <rect id="Rectangle_2137" data-name="Rectangle 2137" width="14.422" height="79.17" transform="translate(2.914 87.198)" fill="#dbdbdb"/>
            <rect id="Rectangle_2138" data-name="Rectangle 2138" width="33.296" height="18.772" transform="translate(21.972 119.354)" fill="none" stroke="#c7c7c7" stroke-miterlimit="10" stroke-width="0.25"/>
            <rect id="Rectangle_2139" data-name="Rectangle 2139" width="6.503" height="3.738" transform="translate(36.779 124.818)" fill="#c7c7c7"/>
            <rect id="Rectangle_2140" data-name="Rectangle 2140" width="6.503" height="3.174" transform="translate(34.857 125.1)" fill="none" stroke="#c7c7c7" stroke-miterlimit="10" stroke-width="0.25"/>
            <rect id="Rectangle_2141" data-name="Rectangle 2141" width="33.296" height="18.772" transform="translate(21.972 143.07)" fill="none" stroke="#c7c7c7" stroke-miterlimit="10" stroke-width="0.25"/>
            <rect id="Rectangle_2142" data-name="Rectangle 2142" width="6.503" height="3.738" transform="translate(36.779 148.534)" fill="#c7c7c7"/>
            <rect id="Rectangle_2143" data-name="Rectangle 2143" width="6.503" height="3.174" transform="translate(34.857 148.816)" fill="none" stroke="#c7c7c7" stroke-miterlimit="10" stroke-width="0.25"/>
            <rect id="Rectangle_2144" data-name="Rectangle 2144" width="33.296" height="18.772" transform="translate(21.972 95.638)" fill="#a6a6a6"/>
            <rect id="Rectangle_2145" data-name="Rectangle 2145" width="25.347" height="18.373" transform="translate(25.215 90.831)" fill="#c7c7c7"/>
            <path id="Path_10213" data-name="Path 10213" d="M94.91,204.285h8.956v1.9H94.4Z" transform="translate(-53.304 -115.357)" fill="#c7c7c7"/>
            <path id="Path_10214" data-name="Path 10214" d="M58.077,229.006H83.424l1.955-16.849H60.032Z" transform="translate(-32.795 -119.803)" fill="#a6a6a6"/>
            <path id="Path_10215" data-name="Path 10215" d="M99.756,208.149h8.956l-.2,1.745h-9.47Z" transform="translate(-55.926 -117.539)" fill="#a6a6a6"/>
            <rect id="Rectangle_2146" data-name="Rectangle 2146" width="33.296" height="18.772" transform="translate(38.013 95.638)" fill="#ebebeb"/>
            <rect id="Rectangle_2147" data-name="Rectangle 2147" width="33.296" height="18.772" transform="translate(38.013 95.638)" fill="none" stroke="#c7c7c7" stroke-miterlimit="10" stroke-width="0.25"/>
            <rect id="Rectangle_2148" data-name="Rectangle 2148" width="6.503" height="3.738" transform="translate(52.819 101.102)" fill="#c7c7c7"/>
            <rect id="Rectangle_2149" data-name="Rectangle 2149" width="6.503" height="3.174" transform="translate(50.897 101.384)" fill="none" stroke="#c7c7c7" stroke-miterlimit="10" stroke-width="0.25"/>
            <rect id="Rectangle_2150" data-name="Rectangle 2150" width="15.959" height="15.959" transform="translate(21.972 98.451)" fill="#dbdbdb"/>
            <line id="Line_128" data-name="Line 128" y1="19.87" transform="translate(37.93 0)" fill="none" stroke="#c7c7c7" stroke-miterlimit="10" stroke-width="1"/>
            <path id="Path_10216" data-name="Path 10216" d="M83.483,64.2l-.988,2.171H59.911L58.926,64.2l9.615-6.655h5.326Z" transform="translate(-33.275 -32.496)" fill="#ebebeb"/>
            <path id="Path_10217" data-name="Path 10217" d="M86.142,42.817l-.667,6.412H80.148l-.667-6.412Z" transform="translate(-44.882 -24.178)" fill="#dbdbdb"/>
            <path id="Path_10218" data-name="Path 10218" d="M83.48,72.837l-.988,2.171H59.908l-.985-2.171Z" transform="translate(-33.274 -41.13)" fill="#dbdbdb"/>
            <line id="Line_129" data-name="Line 129" y1="19.87" transform="translate(87.056 0)" fill="none" stroke="#c7c7c7" stroke-miterlimit="10" stroke-width="1"/>
            <path id="Path_10219" data-name="Path 10219" d="M196.337,64.2l-.988,2.171H172.765l-.985-2.171,9.615-6.655h5.326Z" transform="translate(-97.002 -32.496)" fill="#ebebeb"/>
            <path id="Path_10220" data-name="Path 10220" d="M199,42.817l-.667,6.412H193l-.667-6.412Z" transform="translate(-108.609 -24.178)" fill="#dbdbdb"/>
            <path id="Path_10221" data-name="Path 10221" d="M196.335,72.837l-.988,2.171H172.763l-.985-2.171Z" transform="translate(-97.001 -41.13)" fill="#dbdbdb"/>
            <line id="Line_130" data-name="Line 130" y1="19.87" transform="translate(136.183 0)" fill="none" stroke="#c7c7c7" stroke-miterlimit="10" stroke-width="1"/>
            <path id="Path_10222" data-name="Path 10222" d="M309.191,64.2l-.988,2.171H285.62l-.985-2.171,9.615-6.655h5.326Z" transform="translate(-160.73 -32.496)" fill="#ebebeb"/>
            <path id="Path_10223" data-name="Path 10223" d="M311.851,42.817l-.667,6.412h-5.326l-.667-6.412Z" transform="translate(-172.337 -24.178)" fill="#dbdbdb"/>
            <path id="Path_10224" data-name="Path 10224" d="M309.189,72.837l-.988,2.171H285.617l-.985-2.171Z" transform="translate(-160.729 -41.13)" fill="#dbdbdb"/>
            <line id="Line_131" data-name="Line 131" y1="19.87" transform="translate(185.31 0)" fill="none" stroke="#c7c7c7" stroke-miterlimit="10" stroke-width="1"/>
            <path id="Path_10225" data-name="Path 10225" d="M422.046,64.2l-.988,2.171H398.474l-.985-2.171,9.615-6.655h5.326Z" transform="translate(-224.457 -32.496)" fill="#ebebeb"/>
            <path id="Path_10226" data-name="Path 10226" d="M424.7,42.817l-.667,6.412h-5.326l-.667-6.412Z" transform="translate(-236.064 -24.178)" fill="#dbdbdb"/>
            <path id="Path_10227" data-name="Path 10227" d="M422.043,72.837l-.988,2.171H398.472l-.985-2.171Z" transform="translate(-224.456 -41.13)" fill="#dbdbdb"/>
          </g>
        </g>
        <g id="Group_31512" data-name="Group 31512">
          <g id="Group_31511" data-name="Group 31511" clip-path="url(#clip-path)">
            <path id="Path_10228" data-name="Path 10228" d="M0,381.921c72.258-.266,153.314-.269,225.571,0-72.258.269-153.314.266-225.571,0" transform="translate(0 -215.553)" fill="#263238"/>
          </g>
        </g>
        <g id="Group_31514" data-name="Group 31514">
          <g id="Group_31513" data-name="Group 31513" clip-path="url(#clip-path)">
            <path id="Path_10229" data-name="Path 10229" d="M240.425,429.714c0,5.355-47.932,9.7-107.06,9.7s-107.06-4.341-107.06-9.7,47.932-9.7,107.06-9.7,107.06,4.341,107.06,9.7" transform="translate(-14.854 -237.179)" fill="#ebebeb"/>
          </g>
        </g>
        <g id="Group_31516" data-name="Group 31516">
          <g id="Group_31515" data-name="Group 31515" clip-path="url(#clip-path)">
            <path id="Path_10230" data-name="Path 10230" d="M69.341,264.661c-1.567-1.536-3.593-3.391-5.989-2.729-2.254.623-3.117,3.084-3.521,5.134-.52,2.642-.925,5.31-1.344,7.97-.424,2.686-.821,5.377-1.208,8.069q-.328,2.278-.646,4.558-.159,1.139-.317,2.28c-.1.745-.228,1.49-.269,2.242-.013.239.363.274.415.046.291-1.267.41-2.585.6-3.872s.374-2.587.563-3.881q.564-3.855,1.152-7.706t1.2-7.7c.347-2.176.511-4.879,2.44-6.314a3.729,3.729,0,0,1,3.607-.338,10.779,10.779,0,0,1,3.276,2.292.033.033,0,0,0,.045-.048" transform="translate(-31.649 -147.832)" fill="#263238"/>
            <path id="Path_10231" data-name="Path 10231" d="M74.852,258.9s-3.2-1.153-4.785,1.185.309,8.284,14.9,11.64a41.19,41.19,0,0,0-3.509-13.186c-3.127-6.819-8.7-4.237-6.6.361" transform="translate(-39.305 -143.637)" fill="#0b8d45"/>
            <path id="Path_10232" data-name="Path 10232" d="M88.777,276.32a11.4,11.4,0,0,0-.734-1.183q-.365-.564-.74-1.123c-.187-.28-.379-.558-.571-.835.014-.067.018-.138.027-.209l.05-.379c.036-.273.076-.546.116-.819s.085-.543.137-.814a4.317,4.317,0,0,1,.191-.86c.018-.042-.058-.064-.064-.013a3.2,3.2,0,0,1-.131.483c-.034.122-.066.246-.1.369-.071.276-.138.554-.2.833-.057.257-.106.515-.15.774-.021.124-.04.249-.057.374q-.39-.557-.8-1.1c-.774-1.02-1.594-2-2.442-2.96,0-.01.013-.015.013-.027a26.32,26.32,0,0,1,.379-4.557c.009-.041-.053-.064-.062-.022a15.657,15.657,0,0,0-.545,4.361q-.456-.51-.922-1.011-1.065-1.146-2.173-2.252a.033.033,0,0,0-.048.045c1.229,1.323,2.4,2.7,3.534,4.1a25.115,25.115,0,0,0-2.667.1c-.989.073-1.972.2-2.954.335-.042.006-.029.071.013.065a27.638,27.638,0,0,1,2.949-.264c.952-.04,1.9,0,2.849,0q.921,1.143,1.821,2.3l-.135,0c-.223,0-.447-.008-.671,0-.443.008-.887.039-1.329.076a20.155,20.155,0,0,0-2.694.4.033.033,0,0,0,.013.065c.9-.1,1.794-.185,2.7-.217.43-.015.86-.015,1.29-.015.224,0,.447,0,.671,0a.838.838,0,0,0,.368-.034q.589.765,1.174,1.531.464.612.915,1.233c.306.424.584.886.925,1.282.025.029.069-.005.053-.038" transform="translate(-43.957 -149.209)" fill="#263238"/>
            <path id="Path_10233" data-name="Path 10233" d="M80.771,272.288a9.773,9.773,0,0,0-1.56-.076c-.521,0-1.042.015-1.562.034a.033.033,0,1,0,0,.065c.528-.038,1.055-.047,1.584-.039.51.008,1.022.057,1.532.043a.013.013,0,0,0,0-.026" transform="translate(-43.829 -153.715)" fill="#263238"/>
            <path id="Path_10234" data-name="Path 10234" d="M95.067,273.1c.06-.5.122-1,.229-1.489a.033.033,0,1,0-.064-.013c-.075.491-.17.977-.243,1.468q-.054.368-.1.737a3.438,3.438,0,0,0-.06.7.045.045,0,0,0,.085.007,4.252,4.252,0,0,0,.076-.694q.034-.356.077-.711" transform="translate(-53.546 -153.351)" fill="#263238"/>
            <path id="Path_10235" data-name="Path 10235" d="M92.5,262.379c-.128.485-.254.976-.343,1.469-.046.25-.084.5-.118.754a3.036,3.036,0,0,0-.049.737.02.02,0,0,0,.038,0,4.193,4.193,0,0,0,.115-.7q.049-.364.111-.725c.088-.509.179-1.012.308-1.513.01-.04-.051-.063-.062-.022" transform="translate(-51.942 -148.15)" fill="#263238"/>
            <path id="Path_10236" data-name="Path 10236" d="M40.232,307.382q-.12-1.378-.266-2.753-.287-2.725-.657-5.441c-.243-1.805-.475-3.614-.765-5.413a13.5,13.5,0,0,0-.556-2.457,2.334,2.334,0,0,0-1.361-1.537c-1.716-.592-2.874,1.187-3.567,2.446-.021.038.034.066.057.032.415-.6,1.562-2.271,2.863-2.193.876.053,1.577.673,2,2.857,1.048,5.443,1.992,16.487,2.1,17.21.058.383.329.367.331-.044.005-.9-.1-1.807-.178-2.706" transform="translate(-18.665 -163.569)" fill="#263238"/>
            <path id="Path_10237" data-name="Path 10237" d="M24.358,289.6s1.5-5.3-1.816-2.648c-5.52,4.409-5.716,14-5.716,14s9.812-5.7,11.032-9.458c1.817-5.6-3.5-1.891-3.5-1.891" transform="translate(-9.501 -161.619)" fill="#0b8d45"/>
            <path id="Path_10238" data-name="Path 10238" d="M27.023,295.733c-.77.156-1.551.259-2.328.37q-.552.08-1.1.155c-.249.034-.5.058-.75.089.731-1.007,1.468-2.01,2.169-3.037.027-.04-.034-.081-.066-.048a22.787,22.787,0,0,0-1.639,1.892c-.144-.41-.291-.819-.435-1.229-.167-.474-.346-.946-.467-1.435-.01-.041-.074-.022-.063.019.134.485.229.981.359,1.467.125.47.268.935.435,1.392-.36.467-.7.945-1.039,1.428-.169-.479-.379-.942-.526-1.428a.033.033,0,0,0-.063.019c.176.537.27,1.1.436,1.637-.225.329-.451.658-.666.99-.4.612-.77,1.236-1.135,1.864a.145.145,0,0,0-.086.148c-.62,1.072-1.21,2.16-1.791,3.258a.033.033,0,0,0,.057.032c.582-1.085,1.23-2.14,1.9-3.177h.007a1.483,1.483,0,0,1,.321-.062c.113-.023.226-.049.339-.074.253-.055.5-.121.757-.183.5-.124.99-.241,1.5-.328.041-.007.023-.071-.019-.063-.594.113-1.19.18-1.79.25-.283.033-.566.069-.848.114l-.041.006q.53-.8,1.073-1.594c.357-.517.723-1.028,1.09-1.538.34-.047.678-.137,1.015-.2q.57-.109,1.139-.222c.76-.151,1.516-.32,2.28-.447.041-.007.023-.072-.019-.063" transform="translate(-10.309 -165.152)" fill="#263238"/>
            <path id="Path_10239" data-name="Path 10239" d="M24.3,299.44c-.046-.14-.088-.281-.132-.421a8.312,8.312,0,0,1-.225-.888c-.008-.041-.072-.023-.063.019.064.3.134.6.2.9a5.811,5.811,0,0,0,.256.881.059.059,0,0,0,.114-.034c-.042-.152-.1-.3-.151-.451" transform="translate(-13.485 -168.338)" fill="#263238"/>
            <path id="Path_10240" data-name="Path 10240" d="M37.176,297.153c-.448.067-.9.1-1.349.138s-.9.1-1.349.17c-.024,0-.025.041,0,.04.452-.031.9-.066,1.35-.125s.9-.126,1.349-.157c.043,0,.039-.072,0-.066" transform="translate(-19.459 -167.798)" fill="#263238"/>
            <path id="Path_10241" data-name="Path 10241" d="M43.753,277.728c-.174-3.9-.421-7.793-.814-11.677-.2-1.934-.414-3.867-.686-5.792a41.4,41.4,0,0,0-1.117-5.606,10.774,10.774,0,0,0-1.866-3.953,4.238,4.238,0,0,0-3.771-1.646,7.634,7.634,0,0,0-4.27,2.455c-1.333,1.311-2.554,2.742-3.79,4.144q-.469.532-.93,1.07c-.027.032.02.077.048.045,1.208-1.387,2.462-2.735,3.775-4.024a10.5,10.5,0,0,1,4.143-2.985,4.272,4.272,0,0,1,2.408-.057,3.825,3.825,0,0,1,1.645,1.042,8.613,8.613,0,0,1,1.854,3.607A62.435,62.435,0,0,1,42.2,265.394c.4,3.761.663,7.532.852,11.309.19,3.8.339,7.6.7,11.383.045.467.106.933.165,1.4.04.313.526.313.5-.013-.31-3.911-.49-7.826-.665-11.745" transform="translate(-14.965 -140.621)" fill="#263238"/>
            <path id="Path_10242" data-name="Path 10242" d="M18.171,248.484s2.227-4.122-.4-5.443S6.328,251.549,3.755,265.924c0,0,14.224-6.293,19.054-12.564s-.646-7.651-4.638-4.875" transform="translate(-2.12 -137.175)" fill="#0b8d45"/>
            <path id="Path_10243" data-name="Path 10243" d="M23.147,258.034c-1.6,0-3.193-.121-4.792-.11.3-.344.6-.688.9-1.029a14.973,14.973,0,0,0,1.25-1.452c.022-.033-.026-.08-.058-.055a11.614,11.614,0,0,0-1.21,1.213q-.6.638-1.2,1.281c-.611.661-1.21,1.333-1.807,2.006,0-.065,0-.131,0-.194,0-.28,0-.56,0-.84,0-.542.012-1.084.017-1.626.01-1.1.008-2.2.084-3.3,0-.042-.063-.04-.066,0-.077,1.1-.19,2.2-.245,3.3-.027.542-.04,1.084-.046,1.627,0,.28-.008.56-.006.84,0,.152,0,.313.007.471-.093.106-.19.208-.283.314-1.276,1.458-2.489,2.966-3.67,4.5,0-.085-.013-.172-.021-.255-.017-.169-.037-.338-.056-.507-.041-.367-.092-.732-.147-1.1q-.077-.515-.163-1.027c-.064-.383-.158-.774-.188-1.162a.033.033,0,1,0-.064.01,10.225,10.225,0,0,1,.134,1.171q.05.528.1,1.055c.031.352.063.7.1,1.056.017.169.033.338.051.507q.014.127.031.254a.48.48,0,0,0,.069.2c-.2.265-.407.528-.608.794-.807,1.067-1.6,2.147-2.39,3.225-.025.034.022.079.047.045.75-.978,1.522-1.938,2.3-2.89.585.025,1.183-.018,1.767-.028.617-.01,1.234-.013,1.851-.015a.033.033,0,0,0,0-.066c-.617.011-1.233.02-1.851.023-.562,0-1.136-.026-1.7,0q1.032-1.254,2.079-2.495l.764-.905a3.529,3.529,0,0,0,.714.024h.841c.525,0,1.051-.014,1.576-.022,1.086-.017,2.172-.053,3.257-.055a.033.033,0,0,0,0-.066c-1.087-.013-2.174-.061-3.261-.088-.526-.013-1.052-.03-1.578-.037l-.841-.01c-.159,0-.324-.013-.486-.007q.9-1.062,1.792-2.124a.077.077,0,0,0,.033-.039c.583-.687,1.166-1.375,1.756-2.057.081-.093.163-.185.244-.278,1.657.051,3.312-.057,4.969-.025.042,0,.041-.066,0-.066" transform="translate(-5.006 -143.373)" fill="#263238"/>
            <path id="Path_10244" data-name="Path 10244" d="M39.257,269.892l-.387,0a.03.03,0,0,0,0,.06l.387,0c.042,0,.04-.066,0-.066" transform="translate(-21.934 -152.405)" fill="#263238"/>
            <path id="Path_10245" data-name="Path 10245" d="M33.88,269.8q-.769-.01-1.536-.032l-.768-.024a2.84,2.84,0,0,0-.714.008c-.025.006-.021.041,0,.047a2.735,2.735,0,0,0,.716.051q.384.007.768.011.768.008,1.536,0a.033.033,0,0,0,0-.066" transform="translate(-17.417 -152.312)" fill="#263238"/>
            <path id="Path_10246" data-name="Path 10246" d="M23.451,280.561a21.367,21.367,0,0,0-3.146-.284c-.015,0-.014.022,0,.023,1.045.1,2.092.156,3.129.325.042.007.058-.058.016-.064" transform="translate(-11.46 -158.269)" fill="#263238"/>
            <path id="Path_10247" data-name="Path 10247" d="M17.213,267.718c-.01-.091-.021-.183-.033-.274-.027-.206-.059-.411-.091-.616q-.093-.586-.2-1.169c-.007-.036-.069-.027-.064.01q.074.6.13,1.208c.018.2.033.4.051.594a1.671,1.671,0,0,0,.08.564c.03.061.122.036.138-.022a.775.775,0,0,0-.006-.3" transform="translate(-9.498 -150.001)" fill="#263238"/>
            <path id="Path_10248" data-name="Path 10248" d="M58.5,240.785c-.509-.948-1.157-2.2-2.428-2.12-1.049.065-1.522,1.136-1.746,2.021a42.771,42.771,0,0,0-.877,8.43c-.285,5.929-.542,11.864-.579,17.8q-.015,2.468.011,4.936c.015,1.678.011,3.366.118,5.041a.124.124,0,0,0,.247-.006c.01-1.435-.042-2.872-.047-4.307q-.008-2.1.028-4.2.069-4.255.227-8.51c.1-2.818.228-5.636.347-8.454q.09-2.112.183-4.224c.062-1.364.121-2.73.277-4.087.087-.76.2-1.52.358-2.269a3.163,3.163,0,0,1,.656-1.521,1.433,1.433,0,0,1,1.854-.135,3.93,3.93,0,0,1,1.315,1.641c.02.037.076,0,.056-.035" transform="translate(-29.852 -134.769)" fill="#263238"/>
            <path id="Path_10249" data-name="Path 10249" d="M61.514,239.438s-1.045-3.689,1.265-1.845c3.845,3.071,3.982,9.751,3.982,9.751s-6.835-3.97-7.685-6.588c-1.266-3.9,2.438-1.318,2.438-1.318" transform="translate(-33.21 -133.874)" fill="#0b8d45"/>
            <path id="Path_10250" data-name="Path 10250" d="M67.485,248.058c-.063-.1-.13-.2-.194-.3a1.948,1.948,0,0,0,0-.315c0-.158,0-.317,0-.476q.011-.468.034-.935c0-.042-.064-.04-.066,0q-.024.458-.037.917c0,.153-.011.306-.016.459,0,.06-.01.128-.013.2-.269-.417-.544-.829-.829-1.234-.083-.118-.169-.232-.253-.349a7.184,7.184,0,0,1-.021-1.2c.005-.429.011-.857.027-1.286,0-.042-.065-.04-.066,0-.012.446-.034.892-.057,1.337a8.724,8.724,0,0,0-.027.954c-.66-.9-1.36-1.763-2.069-2.624-.024-.028-.074.012-.051.041.439.555.86,1.125,1.272,1.7-.8-.188-1.622-.3-2.439-.414-.042-.006-.058.057-.016.064.865.131,1.715.348,2.568.536.007,0,.011,0,.017,0q.491.691.973,1.389c.131.189.258.381.387.572l-.037,0c-.088-.013-.177-.026-.266-.037-.189-.023-.379-.038-.569-.053-.394-.031-.789-.052-1.184-.073-.042,0-.041.065,0,.066.389.009.775.038,1.161.08.2.022.407.05.611.074l.267.032.078.011.657.969c.386.571.73,1.182,1.142,1.733a.031.031,0,0,0,.053-.033,17.706,17.706,0,0,0-1.043-1.794" transform="translate(-35.372 -137.327)" fill="#263238"/>
            <path id="Path_10251" data-name="Path 10251" d="M69.752,243.016c0-.144,0-.287,0-.431a6.593,6.593,0,0,1,.037-.9.033.033,0,1,0-.065-.007c0,.3-.033.6-.047.9-.007.149-.007.3-.008.448,0,.069,0,.138,0,.207a.64.64,0,0,0,.016.214.03.03,0,0,0,.057,0,.613.613,0,0,0,.009-.2c0-.075,0-.15,0-.224" transform="translate(-39.342 -136.452)" fill="#263238"/>
            <path id="Path_10252" data-name="Path 10252" d="M65.77,248.1c-.254-.043-.515-.057-.771-.078-.282-.024-.563-.049-.844-.085a.033.033,0,1,0-.007.065c.539.035,1.077.131,1.617.15a.026.026,0,0,0,.006-.052" transform="translate(-36.205 -140.005)" fill="#263238"/>
            <path id="Path_10253" data-name="Path 10253" d="M72.839,248.3c.02.028.007.109.007.142v.119c0,.086,0,.172,0,.258s0,.172,0,.258a.543.543,0,0,0,.012.225.015.015,0,0,0,.026,0,.222.222,0,0,0,.013-.107c0-.04,0-.08,0-.119,0-.086,0-.172,0-.258s0-.172,0-.258v-.119c0-.037-.014-.112.007-.142.042-.06-.1-.061-.057,0" transform="translate(-41.126 -140.186)" fill="#263238"/>
            <path id="Path_10254" data-name="Path 10254" d="M50.936,285.252c-1.437-1.079-2.729-2.63-4.662-2.706a3.736,3.736,0,0,0-3.354,2.477,13.975,13.975,0,0,0-.782,2.2q-.433,1.515-.814,3.043c-.5,2-.932,4.027-1.28,6.064-.195,1.135-.376,2.274-.519,3.418a28.885,28.885,0,0,0-.336,3.5.182.182,0,0,0,.357.04c.2-.956.276-1.943.417-2.908s.289-1.942.453-2.91q.493-2.9,1.145-5.781c.412-1.808.818-3.644,1.4-5.406.418-1.262,1.089-2.736,2.453-3.19,2.075-.69,3.958,1.066,5.477,2.2.034.025.079-.022.045-.047" transform="translate(-22.13 -159.549)" fill="#263238"/>
            <path id="Path_10255" data-name="Path 10255" d="M56.3,280.4s-1.325-3.783.592-4.525c2.872-1.112,10.39,7.355,8.918,20.328a73.943,73.943,0,0,1-10.1-6.8c-4.289-3.6-5.387-8.3-3.5-9.517s4.085.513,4.085.513" transform="translate(-28.985 -155.725)" fill="#0b8d45"/>
            <path id="Path_10256" data-name="Path 10256" d="M69.911,298.532a9.985,9.985,0,0,0-.7-1.308c-.246-.444-.494-.887-.75-1.325-.5-.854-1-1.709-1.506-2.556-.083-.137-.169-.273-.252-.41.011-.05.02-.1.032-.152l.085-.376c.064-.281.113-.565.166-.849.1-.555.2-1.117.35-1.662.011-.04-.056-.054-.065-.011-.118.555-.293,1.1-.458,1.644-.081.267-.167.534-.238.8l-.072.278c-.618-1.012-1.246-2.02-1.923-2.993a1.359,1.359,0,0,0,.067-.416c.02-.19.043-.38.065-.569.051-.427.1-.854.162-1.279a24.8,24.8,0,0,1,.455-2.486c.01-.041-.055-.052-.065-.011-.207.817-.432,1.634-.587,2.462-.076.406-.148.814-.2,1.224-.027.205-.049.411-.07.616-.006.06-.016.123-.024.186-.209-.294-.417-.588-.635-.875-.663-.872-1.351-1.725-2.044-2.574-.027-.032-.081.005-.054.038a45.7,45.7,0,0,1,3.266,4.771c.19.3.376.611.565.917l-.187-.023c-.243-.031-.489-.046-.733-.069q-.733-.069-1.467-.128c-.979-.077-1.96-.138-2.936-.242-.042,0-.054.06-.012.065.989.113,1.974.272,2.959.412q.727.1,1.455.2a5.78,5.78,0,0,0,1.12.115q.577.936,1.154,1.873a2.151,2.151,0,0,0-.26-.01c-.163,0-.326,0-.489,0h-.909c-.63,0-1.26.013-1.89.012-.043,0-.036.065.006.065.639.008,1.275.04,1.913.074q.454.024.907.055c.151.01.3.023.453.032a.924.924,0,0,0,.4-.016c.326.532.656,1.061.982,1.594q.451.736.915,1.464a11.8,11.8,0,0,0,.986,1.479c.026.029.079.008.064-.034" transform="translate(-33.95 -160.839)" fill="#263238"/>
            <path id="Path_10257" data-name="Path 10257" d="M75.436,292.186a9.291,9.291,0,0,1-.259,1.234q-.161.63-.366,1.248a.041.041,0,1,0,.078.025q.193-.613.345-1.238c.1-.417.166-.841.267-1.258.01-.041-.06-.053-.065-.011" transform="translate(-42.243 -164.979)" fill="#263238"/>
            <path id="Path_10258" data-name="Path 10258" d="M61.2,297.318a.485.485,0,0,0-.317-.118l-.548-.075c-.34-.047-.68-.084-1.021-.124-.708-.083-1.417-.151-2.124-.241-.042-.005-.054.06-.011.065.667.081,1.332.182,2,.27.327.043.653.089.981.127l.472.053a1.684,1.684,0,0,1,.539.092c.031.016.054-.026.032-.049" transform="translate(-32.272 -167.577)" fill="#263238"/>
            <path id="Path_10259" data-name="Path 10259" d="M73.491,311.029c-.334-.028-.671-.039-1.006-.049l-.507-.016-.243-.008a1.5,1.5,0,0,1-.317-.018c-.047-.012-.051.073,0,.065a1.413,1.413,0,0,1,.3.009l.263.016.507.03c.334.02.671.04,1.006.042a.036.036,0,0,0,0-.072" transform="translate(-40.308 -175.582)" fill="#263238"/>
            <path id="Path_10260" data-name="Path 10260" d="M80.669,305.57q.057-.285.109-.571l.206-1.122a.033.033,0,0,0-.065-.011q-.123.547-.246,1.093c-.041.182-.082.364-.12.547l-.052.253a.7.7,0,0,0-.03.268c.006.03.051.055.072.023a1.376,1.376,0,0,0,.126-.48" transform="translate(-45.438 -171.575)" fill="#263238"/>
            <path id="Path_10261" data-name="Path 10261" d="M50.073,333.5l-.323,5.362-.955,15.83H32.563l-.955-15.83-.322-5.362Z" transform="translate(-17.667 -188.323)" fill="#455a64"/>
            <path id="Path_10262" data-name="Path 10262" d="M50.073,333.5l-.323,5.362H31.608l-.322-5.362Z" transform="translate(-17.667 -188.323)" fill="#263238"/>
            <rect id="Rectangle_2154" data-name="Rectangle 2154" width="21.783" height="5.366" transform="translate(12.121 141.382)" fill="#455a64"/>
          </g>
        </g>
        <rect id="Rectangle_2156" data-name="Rectangle 2156" width="120.842" height="78.13" transform="translate(91.405 115.235)" fill="#24b24c"/>
        <path id="Path_10263" data-name="Path 10263" d="M397.252,246.132h38.083v8.091H395.064Z" transform="translate(-223.088 -138.988)" fill="#24b24c"/>
        <g id="Group_31521" data-name="Group 31521">
          <g id="Group_31520" data-name="Group 31520" clip-path="url(#clip-path)">
            <g id="Group_31519" data-name="Group 31519" transform="translate(91.405 107.144)" opacity="0.1">
              <g id="Group_31518" data-name="Group 31518">
                <g id="Group_31517" data-name="Group 31517" clip-path="url(#clip-path-7)">
                  <rect id="Rectangle_2157" data-name="Rectangle 2157" width="120.842" height="78.13" transform="translate(0 8.091)"/>
                  <path id="Path_10264" data-name="Path 10264" d="M397.252,246.132h38.083v8.091H395.064Z" transform="translate(-314.492 -246.132)"/>
                </g>
              </g>
            </g>
          </g>
        </g>
        <rect id="Rectangle_2160" data-name="Rectangle 2160" width="78.593" height="100.89" transform="translate(125.148 77.128)" fill="#ebebeb"/>
        <g id="Group_31529" data-name="Group 31529">
          <g id="Group_31528" data-name="Group 31528" clip-path="url(#clip-path)">
            <path id="Path_10265" data-name="Path 10265" d="M365.807,277.792l-78.73.138c-.078,0-.02-100.979-.077-101.027v-.213h.213l78.757.05c.129.064-.256,100.952-.164,101.053m0,0-.164-100.89c1.056.381-78.675.12-78.429.214l.213-.214-.076,100.89c-.876-.278,78.657.049,78.456,0" transform="translate(-162.065 -99.774)" fill="#dbdbdb"/>
            <path id="Path_10266" data-name="Path 10266" d="M307.239,226.611l30.7-.077,30.7.077-30.7.077Z" transform="translate(-173.494 -127.921)" fill="#c7c7c7"/>
            <path id="Path_10267" data-name="Path 10267" d="M307.239,232.363l30.7-.077,30.7.077-30.7.077Z" transform="translate(-173.494 -131.169)" fill="#c7c7c7"/>
            <path id="Path_10268" data-name="Path 10268" d="M307.239,238.115l30.7-.077,30.7.077-30.7.077Z" transform="translate(-173.494 -134.417)" fill="#c7c7c7"/>
            <path id="Path_10269" data-name="Path 10269" d="M307.239,243.866l30.7-.077,30.7.077-30.7.077Z" transform="translate(-173.494 -137.665)" fill="#c7c7c7"/>
            <path id="Path_10270" data-name="Path 10270" d="M307.239,249.618l30.7-.077,30.7.077-30.7.077Z" transform="translate(-173.494 -140.912)" fill="#c7c7c7"/>
            <path id="Path_10271" data-name="Path 10271" d="M307.239,255.37l30.7-.077,30.7.077-30.7.077Z" transform="translate(-173.494 -144.16)" fill="#c7c7c7"/>
            <path id="Path_10272" data-name="Path 10272" d="M307.239,261.121l30.7-.077,30.7.077-30.7.078Z" transform="translate(-173.494 -147.408)" fill="#c7c7c7"/>
            <path id="Path_10273" data-name="Path 10273" d="M307.239,266.873l30.7-.077,30.7.077-30.7.077Z" transform="translate(-173.494 -150.656)" fill="#c7c7c7"/>
            <path id="Path_10274" data-name="Path 10274" d="M307.239,272.625l30.7-.077,30.7.077-30.7.078Z" transform="translate(-173.494 -153.904)" fill="#c7c7c7"/>
            <path id="Path_10275" data-name="Path 10275" d="M307.239,278.376l30.7-.077,30.7.077-30.7.077Z" transform="translate(-173.494 -157.152)" fill="#c7c7c7"/>
            <path id="Path_10276" data-name="Path 10276" d="M307.239,284.128l30.7-.077,30.7.077-30.7.077Z" transform="translate(-173.494 -160.4)" fill="#c7c7c7"/>
            <path id="Path_10277" data-name="Path 10277" d="M307.239,289.879l30.7-.077,30.7.077-30.7.077Z" transform="translate(-173.494 -163.648)" fill="#c7c7c7"/>
            <path id="Path_10278" data-name="Path 10278" d="M307.239,295.631l30.7-.077,30.7.077-30.7.077Z" transform="translate(-173.494 -166.895)" fill="#c7c7c7"/>
            <path id="Path_10279" data-name="Path 10279" d="M307.239,301.383l30.7-.077,30.7.077-30.7.077Z" transform="translate(-173.494 -170.143)" fill="#c7c7c7"/>
            <path id="Path_10280" data-name="Path 10280" d="M307.239,307.134l30.7-.077,30.7.077-30.7.078Z" transform="translate(-173.494 -173.391)" fill="#c7c7c7"/>
            <rect id="Rectangle_2161" data-name="Rectangle 2161" width="4.656" height="10.508" transform="translate(140.238 126.154)" fill="#ffc727"/>
            <rect id="Rectangle_2162" data-name="Rectangle 2162" width="4.656" height="16.113" transform="translate(148.875 120.549)" fill="#ffc727"/>
            <rect id="Rectangle_2163" data-name="Rectangle 2163" width="4.656" height="22.386" transform="translate(157.513 114.276)" fill="#ffc727"/>
            <rect id="Rectangle_2164" data-name="Rectangle 2164" width="4.656" height="25.082" transform="translate(166.15 111.58)" fill="#ffc727"/>
            <rect id="Rectangle_2165" data-name="Rectangle 2165" width="4.656" height="29.885" transform="translate(174.787 106.777)" fill="#ffc727"/>
            <rect id="Rectangle_2166" data-name="Rectangle 2166" width="4.656" height="34.63" transform="translate(183.425 102.032)" fill="#ffc727"/>
            <path id="Path_10281" data-name="Path 10281" d="M310.693,222.676l.121,9.932.084,9.932q.085,9.932.084,19.864l-.288-.288,14.933-.012,14.933.034,14.933.1,14.933.171-14.933.171-14.933.1-14.933.034-14.933-.012H310.4V262.4q.016-9.932.084-19.864l.083-9.932Z" transform="translate(-175.281 -125.742)" fill="#c7c7c7"/>
            <rect id="Rectangle_2167" data-name="Rectangle 2167" width="4.656" height="0.421" transform="translate(140.238 138.761)" fill="#c7c7c7"/>
            <rect id="Rectangle_2168" data-name="Rectangle 2168" width="4.656" height="0.421" transform="translate(148.875 138.761)" fill="#c7c7c7"/>
            <rect id="Rectangle_2169" data-name="Rectangle 2169" width="4.656" height="0.421" transform="translate(157.513 138.761)" fill="#c7c7c7"/>
            <rect id="Rectangle_2170" data-name="Rectangle 2170" width="4.656" height="0.421" transform="translate(166.15 138.761)" fill="#c7c7c7"/>
            <rect id="Rectangle_2171" data-name="Rectangle 2171" width="4.656" height="0.421" transform="translate(174.787 138.761)" fill="#c7c7c7"/>
            <rect id="Rectangle_2172" data-name="Rectangle 2172" width="4.656" height="0.421" transform="translate(183.425 138.761)" fill="#c7c7c7"/>
            <path id="Path_10282" data-name="Path 10282" d="M323.36,261.1a56.519,56.519,0,0,0,6.8-.516,66.124,66.124,0,0,0,6.7-1.208,57.975,57.975,0,0,0,12.792-4.505,45.593,45.593,0,0,0,11.178-7.611l.629-.57.6-.6,1.187-1.215c.734-.862,1.521-1.683,2.188-2.6a46.714,46.714,0,0,0,3.812-5.645l.037.02a40.8,40.8,0,0,1-13.413,15.339,45.332,45.332,0,0,1-5.925,3.481A57.851,57.851,0,0,1,323.36,261.1" transform="translate(-182.597 -133.616)" fill="#263238"/>
            <path id="Path_10283" data-name="Path 10283" d="M425.627,239.043l-.645.161-.792-3.178-3.112,1.022-.207-.632,3.79-1.244Z" transform="translate(-237.661 -132.799)" fill="#263238"/>
            <rect id="Rectangle_2173" data-name="Rectangle 2173" width="64.024" height="2.591" transform="translate(132.433 152.283)" fill="#dbdbdb"/>
            <rect id="Rectangle_2174" data-name="Rectangle 2174" width="36.046" height="2.591" transform="translate(132.433 158.822)" fill="#dbdbdb"/>
            <rect id="Rectangle_2175" data-name="Rectangle 2175" width="36.046" height="2.591" transform="translate(146.422 88.277)" fill="#dbdbdb"/>
            <path id="Path_10284" data-name="Path 10284" d="M331.749,265.618l-78.593-.04.051-100.89,58.355.03,20.228,19.234Z" transform="translate(-142.954 -92.998)" fill="#24b24c"/>
            <g id="Group_31524" data-name="Group 31524" transform="translate(110.202 71.691)" opacity="0.6">
              <g id="Group_31523" data-name="Group 31523">
                <g id="Group_31522" data-name="Group 31522" clip-path="url(#clip-path-9)">
                  <path id="Path_10285" data-name="Path 10285" d="M331.749,265.618l-78.593-.04.051-100.89,58.355.03,20.228,19.234Z" transform="translate(-253.155 -164.689)" fill="#fff"/>
                </g>
              </g>
            </g>
            <path id="Path_10286" data-name="Path 10286" d="M387.315,164.757l20.228,19.234-20.238-.01Z" transform="translate(-218.706 -93.036)" fill="#24b24c"/>
            <g id="Group_31527" data-name="Group 31527" transform="translate(168.599 71.721)" opacity="0.4">
              <g id="Group_31526" data-name="Group 31526">
                <g id="Group_31525" data-name="Group 31525" clip-path="url(#clip-path-10)">
                  <path id="Path_10287" data-name="Path 10287" d="M387.315,164.757l20.228,19.234-20.238-.01Z" transform="translate(-387.305 -164.757)" fill="#fff"/>
                </g>
              </g>
            </g>
            <rect id="Rectangle_2178" data-name="Rectangle 2178" width="43.697" height="2.591" transform="translate(117.911 88.634)" fill="#fff"/>
            <rect id="Rectangle_2179" data-name="Rectangle 2179" width="43.697" height="2.591" transform="translate(117.908 95.173)" fill="#fff"/>
            <rect id="Rectangle_2180" data-name="Rectangle 2180" width="43.697" height="2.591" transform="translate(117.904 101.712)" fill="#fff"/>
            <rect id="Rectangle_2181" data-name="Rectangle 2181" width="64.024" height="2.591" transform="translate(117.901 108.256)" fill="#fff"/>
            <rect id="Rectangle_2182" data-name="Rectangle 2182" width="64.024" height="2.591" transform="translate(117.898 114.795)" fill="#fff"/>
            <rect id="Rectangle_2183" data-name="Rectangle 2183" width="64.024" height="2.591" transform="translate(117.894 121.334)" fill="#fff"/>
            <rect id="Rectangle_2184" data-name="Rectangle 2184" width="64.024" height="2.591" transform="translate(117.891 127.873)" fill="#fff"/>
            <rect id="Rectangle_2185" data-name="Rectangle 2185" width="64.024" height="2.591" transform="translate(117.888 134.412)" fill="#fff"/>
            <rect id="Rectangle_2186" data-name="Rectangle 2186" width="64.024" height="2.591" transform="translate(117.884 140.951)" fill="#fff"/>
            <rect id="Rectangle_2187" data-name="Rectangle 2187" width="64.024" height="2.591" transform="translate(117.881 147.49)" fill="#fff"/>
            <rect id="Rectangle_2188" data-name="Rectangle 2188" width="64.024" height="2.591" transform="translate(117.878 154.029)" fill="#fff"/>
            <rect id="Rectangle_2189" data-name="Rectangle 2189" width="64.024" height="2.591" transform="translate(117.874 160.568)" fill="#fff"/>
            <path id="Path_10288" data-name="Path 10288" d="M210.625,351.258H331.468l8.313-71.648H218.938Z" transform="translate(-118.938 -157.892)" fill="#24b24c"/>
            <path id="Path_10289" data-name="Path 10289" d="M417.86,262.565h38.083l-.861,7.42H414.811Z" transform="translate(-234.239 -148.267)" fill="#24b24c"/>
          </g>
        </g>
        <g id="Group_31534" data-name="Group 31534">
          <g id="Group_31533" data-name="Group 31533" clip-path="url(#clip-path)">
            <path id="Path_10290" data-name="Path 10290" d="M108.537,111.692c-.747,4.3-2.367,9.335-1.057,13.664,1.032,3.391,3.779,5.935,6.73,7.721,6.493,3.923,16.078,5.547,21.77-.669,2.272-2.483,3.327-8.126.4-10.613-1.5-1.274-3.423-1.769-5.212-2.507a7.968,7.968,0,0,1-4.791-4.984c-1.644-4.716-.789-7.906-.6-12.756a3.448,3.448,0,0,0-.848-2.666,9.17,9.17,0,0,0-5.5-2.8c-2.153-.049-4.441,1.651-6.241,2.661a5.664,5.664,0,0,0-3.145,4.289c-.545,2.877-1.007,5.772-1.511,8.657" transform="translate(-60.413 -54.258)" fill="#263238"/>
            <path id="Path_10291" data-name="Path 10291" d="M106.293,121.331c.938-3.9,1.952-7.769,2.94-11.652.006-.023.044-.018.038.006-.72,3.218-1.4,6.443-2.16,9.653-.748,3.146-1.733,6.329-2.2,9.529-1.054,7.184,5.977,11.06,12.146,11.488.28.02.218.464-.066.435-5.4-.546-11.6-3.206-12.476-9.266-.481-3.314,1.013-7.007,1.78-10.193" transform="translate(-58.964 -61.926)" fill="#263238"/>
            <path id="Path_10292" data-name="Path 10292" d="M148.8,107.6a.06.06,0,0,1,.118.018c-.324,3.983-1.077,8.6.739,12.334a10.136,10.136,0,0,0,4.1,4.377,24.371,24.371,0,0,0,4.5,1.553c5.928,1.969,4.939,10.187.114,12.826-.1.055-.2-.117-.1-.177a7.464,7.464,0,0,0,2.912-10.085c-1.7-2.914-5.712-2.57-8.3-4.356-5.372-3.7-4.932-10.753-4.076-16.488" transform="translate(-83.732 -60.732)" fill="#263238"/>
            <path id="Path_10293" data-name="Path 10293" d="M160.581,404.461c-.968.312-28.552-.045-29.593-.727-.4-.252-.582-4.274-.663-9.141v-.152c-.019-1-.032-2.036-.033-3.082,0-.144,0-.288-.005-.432-.039-7.023.072-14.31.072-14.31l18.453.185-.555,14.176-.021.562-.111,2.934-.011.3s10.5,4.859,11.564,5.729,1.873,3.649.905,3.957" transform="translate(-73.566 -212.671)" fill="#ad6359"/>
            <path id="Path_10294" data-name="Path 10294" d="M180.7,422.582c-.072-.021-.11-.042-.114-.063,0,0,.042.021.114.063" transform="translate(-101.976 -238.591)" fill="#ffc727"/>
            <path id="Path_10295" data-name="Path 10295" d="M160.68,429.838c-.966.312-28.55-.042-29.593-.726-.354-.224-.54-3.426-.633-7.554,5.055,1.055,24.643,5.017,25.179,3.342.21-.659-1.464-1.8-2.523-2.439a70.4,70.4,0,0,1,6.666,3.422c1.056.865,1.874,3.646.9,3.954" transform="translate(-73.666 -238.049)" fill="#24b24c"/>
            <path id="Path_10296" data-name="Path 10296" d="M117.458,194.084s4.142,46.611,4.817,50.168c.156.81.253,5.215.316,10.878.143,12.355.058,34.64.058,34.64h19.445s-.577-38.611-1.438-45.717-6.363-49.97-6.363-49.97Z" transform="translate(-66.327 -109.597)" fill="#37474f"/>
            <path id="Path_10297" data-name="Path 10297" d="M148.877,405.927c-3.034-.063-2.163-.088-5.2-.117-1.485-.014-11.243-.1-12.631.131a.032.032,0,0,0,0,.062c1.387.23,11.145.145,12.631.131,3.035-.03,2.163-.054,5.2-.118a.044.044,0,0,0,0-.088" transform="translate(-73.989 -229.14)" fill="#263238"/>
            <path id="Path_10298" data-name="Path 10298" d="M129.533,267.142q-.032-4.23-.063-8.461c-.02-2.732-.016-5.465-.146-8.195-.263-5.525-1.384-10.959-2.182-16.422s-1.462-10.952-2.065-16.443c-.676-6.16-1.272-12.329-1.906-18.494,0-.042-.069-.041-.066,0,.916,11.007,1.938,22.012,3.462,32.954q.568,4.082,1.242,8.148c.454,2.744.905,5.49,1.121,8.265.212,2.716.246,5.442.274,8.165q.043,4.228.084,8.455c.061,6.261.121,15.9.182,22.157a.094.094,0,0,0,.188,0c-.043-5.584-.085-14.543-.128-20.128" transform="translate(-69.516 -112.428)" fill="#263238"/>
            <path id="Path_10299" data-name="Path 10299" d="M108.041,194.084s8.241,46.611,8.916,50.168c.156.81.253,5.215.316,10.878l0,.017,9.266-61.063Z" transform="translate(-61.009 -109.597)" fill="#263238"/>
            <path id="Path_10300" data-name="Path 10300" d="M60.4,394.591c-1-.158-25.454-12.936-26.074-14.014-.243-.405,1.411-4.077,3.537-8.455l.068-.136c.436-.9,9.167-15.626,9.167-15.626l15.037,8.829L53.8,380.053l-.146.264s7.171,9.077,7.729,10.334.024,4.1-.979,3.939" transform="translate(-19.372 -201.232)" fill="#ad6359"/>
            <path id="Path_10301" data-name="Path 10301" d="M60.4,417.455C59.4,417.3,34.952,404.52,34.33,403.439c-.208-.343.967-3.076,2.64-6.589,3.5,2.653,20.424,15.359,21.661,14.038.259-.28.065-.939-.279-1.646a45.873,45.873,0,0,1,3.034,4.273c.55,1.252.021,4.1-.983,3.94" transform="translate(-19.372 -224.096)" fill="#24b24c"/>
            <path id="Path_10302" data-name="Path 10302" d="M60.944,287.853l-17.818-11.01s20.612-29.495,20.71-32.115c.146-3.9,2.014-19.972,3.582-32.988,0,0-2.974-7.047,2.592-17.692H92.335s-1.5,10.13-4.058,16.553a29.759,29.759,0,0,0-4.963,2.265s-2.223,29.021-2.306,32.641c-.165,7.156-20.065,42.345-20.065,42.345" transform="translate(-24.353 -109.576)" fill="#37474f"/>
            <path id="Path_10303" data-name="Path 10303" d="M66.655,388.227c-2.571-1.612-1.81-1.186-4.4-2.769-1.267-.775-9.6-5.859-10.905-6.374a.032.032,0,0,0-.032.053c1.073.91,9.489,5.848,10.771,6.6,2.619,1.533,1.884,1.064,4.52,2.568a.044.044,0,0,0,.045-.076" transform="translate(-28.974 -214.063)" fill="#263238"/>
            <path id="Path_10304" data-name="Path 10304" d="M141.21,231.051a36.864,36.864,0,0,0-5.811,2.706.066.066,0,0,0,.054.12c1.958-.841,3.953-1.645,5.862-2.593a.128.128,0,0,0-.106-.233" transform="translate(-76.438 -130.467)" fill="#263238"/>
            <path id="Path_10305" data-name="Path 10305" d="M141.686,210.33c.194-1.167.35-2.337.45-3.515a31.983,31.983,0,0,0-.071-6.591.056.056,0,0,0-.113.006,60.5,60.5,0,0,1-.532,9.1c-.219,1.449-.949,3.631.567,3.854,1.544.227,2.543-3.428,2.731-4.428a33.368,33.368,0,0,0,.326-8.624c-.005-.067-.124-.083-.124-.01a65.191,65.191,0,0,1-.328,6.54c-.091,1.009-.9,6.581-2.65,6.174-.293-.068-.442-.356-.488-.8a7.015,7.015,0,0,1,.232-1.709" transform="translate(-79.65 -112.979)" fill="#263238"/>
            <path id="Path_10306" data-name="Path 10306" d="M142.474,229.578a9.368,9.368,0,0,0-.393,1.155,2.626,2.626,0,0,0-.164.949c.007.061.088.067.121.026a3.337,3.337,0,0,0,.407-.924c.133-.357.274-.712.4-1.073a.2.2,0,0,0-.367-.134" transform="translate(-80.135 -129.571)" fill="#263238"/>
            <path id="Path_10307" data-name="Path 10307" d="M80.172,197.276a20.588,20.588,0,0,0-1.674,3.678,22.618,22.618,0,0,0-.992,3.911c-.128.661-.172,1.334-.244,2-.018.672-.081,1.342-.042,2.014a21.071,21.071,0,0,0,.466,3.991l0,.023,0,.02q-.773,8.445-1.6,16.884-.808,8.442-1.663,16.879l-.053.527-.027.264a.878.878,0,0,1-.056.286,8.813,8.813,0,0,1-.513.979c-.356.615-.725,1.217-1.095,1.821-.741,1.2-1.5,2.4-2.252,3.594-1.513,2.388-3.059,4.754-4.6,7.123-3.078,4.741-6.212,9.445-9.351,14.145l9.108-14.3,4.526-7.167c.751-1.2,1.5-2.394,2.236-3.6.366-.6.733-1.206,1.082-1.816a10.024,10.024,0,0,0,.473-.9.619.619,0,0,0,.043-.231l.026-.263.051-.527q.8-8.438,1.665-16.868.84-8.433,1.725-16.862l0,.043a21.351,21.351,0,0,1-.427-4.047c-.031-.68.037-1.356.072-2.034.087-.673.145-1.349.287-2.012a22.7,22.7,0,0,1,1.076-3.911,20.619,20.619,0,0,1,1.751-3.65" transform="translate(-31.891 -111.399)" fill="#263238"/>
            <path id="Path_10308" data-name="Path 10308" d="M132.416,131.981c3.323,1.789,18.712,6.512,24.17,6.313,5.1-.186,16.28-6.205,16.807-7.826.5-1.548-2.338-11.066-4.01-10.585s-11.627,7.7-13.817,7.988c-1.29.171-13.6-.228-19.907-.007-5.7.2-7.816,1.657-3.244,4.118" transform="translate(-73.369 -67.687)" fill="#ad6359"/>
            <path id="Path_10309" data-name="Path 10309" d="M140.9,145.854l4.968-9.136s-11.436-.178-14.814.72c-3.8,1.009-2.454,2.733.764,4.637a57.06,57.06,0,0,0,9.082,3.78" transform="translate(-72.703 -77.195)" fill="#24b24c"/>
            <path id="Path_10310" data-name="Path 10310" d="M136.419,137.374a.784.784,0,1,1-1.567,0,.578.578,0,0,1,.03-.2c.444-.061.932-.113,1.45-.157a.742.742,0,0,1,.087.353m4.684-.6s0,0,0,0a.784.784,0,1,0,1.289.6.765.765,0,0,0-.313-.622s0,0,0,0Zm6.9-.052c-.183,0-.479,0-.866,0a.774.774,0,0,0-.357.653.783.783,0,0,0,.653.775l.705-1.3a.52.52,0,0,0-.135-.122m-15.123,4.545c.122.083.235.17.366.244a.737.737,0,0,0-.366-.244m5.735-.039a.784.784,0,1,0,.784.784.784.784,0,0,0-.784-.784m5.966,0a.784.784,0,1,0,.784.784.784.784,0,0,0-.784-.784" transform="translate(-75.038 -77.205)" fill="#fff"/>
            <path id="Path_10311" data-name="Path 10311" d="M157.357,137.649c-.221.289-1.814,3.112-2.147,3.733s-1.719,3.147-2.009,3.817a.026.026,0,0,0,.044.027c.409-.6,1.814-3.144,2.166-3.769s1.867-3.454,1.99-3.788c.01-.028-.029-.039-.044-.02" transform="translate(-86.51 -77.723)" fill="#263238"/>
            <g id="Group_31532" data-name="Group 31532" transform="translate(56.047 60.805)" opacity="0.1">
              <g id="Group_31531" data-name="Group 31531">
                <g id="Group_31530" data-name="Group 31530" clip-path="url(#clip-path-12)">
                  <path id="Path_10312" data-name="Path 10312" d="M142.457,144.688l-1.55,2.847a57.118,57.118,0,0,1-9.085-3.779c-2.682-1.589-4.061-3.047-2.246-4.075Z" transform="translate(-128.752 -139.682)"/>
                </g>
              </g>
            </g>
            <path id="Path_10313" data-name="Path 10313" d="M126.485,157.641l.676,5.265-22.813-.72s1.15-16.817,7.725-23.157c3.289-3.171,6.9-2.705,9.074-.222.55.628,7.017,9.081,7.544,12.649.457,3.147-2.205,6.185-2.205,6.185" transform="translate(-58.924 -77.248)" fill="#24b24c"/>
            <path id="Path_10314" data-name="Path 10314" d="M114.463,137.865a.787.787,0,0,1-.784.788.742.742,0,0,1-.374-.1,7.163,7.163,0,0,1,1.158-.688m4.449-.274a.732.732,0,0,0-.052.274.787.787,0,0,0,.784.788.757.757,0,0,0,.627-.322,5.5,5.5,0,0,0-1.358-.74m-10.9,8.68c-.2.483-.379.975-.548,1.467a.677.677,0,0,0,.248.044.784.784,0,0,0,.784-.788.776.776,0,0,0-.483-.723m5.666-.06a.784.784,0,1,0,.784.784.784.784,0,0,0-.784-.784m5.966,0a.784.784,0,1,0,.784.784.784.784,0,0,0-.784-.784m5.966,0a.784.784,0,1,0,.784.784.785.785,0,0,0-.784-.784m-14.917-4.489a.748.748,0,0,0-.435.135s0,0-.009.009c-.113.165-.218.326-.322.5a.015.015,0,0,0,0,.009.664.664,0,0,0-.013.131.784.784,0,1,0,.784-.784m5.968,0a.784.784,0,1,0,.784.784.785.785,0,0,0-.784-.784m5.966,0a.784.784,0,1,0,.784.784.784.784,0,0,0-.784-.784M107.712,155.34a.784.784,0,1,0,.784.784.784.784,0,0,0-.784-.784m5.966,0a.784.784,0,1,0,.784.784.784.784,0,0,0-.784-.784m5.966,0a.784.784,0,1,0,.784.784.784.784,0,0,0-.784-.784m5.966,0a.784.784,0,1,0,.784.784.784.784,0,0,0-.784-.784m-14.915-4.489a.784.784,0,1,0,.784.784.784.784,0,0,0-.784-.784m5.966,0a.784.784,0,1,0,.784.784.784.784,0,0,0-.784-.784m5.966,0a.784.784,0,1,0,.784.784.784.784,0,0,0-.784-.784m6.184,1.053a6.221,6.221,0,0,0-.27-1.049.782.782,0,0,0,.052,1.563.751.751,0,0,0,.261-.048c-.009-.152-.022-.309-.044-.466m-24.068,8.075c-.078.609-.135,1.132-.178,1.55v0a.688.688,0,0,0,.165.017.786.786,0,0,0,.013-1.571m5.952,0a.784.784,0,1,0,.784.784.785.785,0,0,0-.784-.784m5.966,0a.784.784,0,1,0,.784.784.785.785,0,0,0-.784-.784m5.966,0a.784.784,0,1,0,.784.784.784.784,0,0,0-.784-.784" transform="translate(-59.046 -77.696)" fill="#fff"/>
            <path id="Path_10315" data-name="Path 10315" d="M137.172,180.582a24.736,24.736,0,0,0-3.624.519c-.591.138-1.172.3-1.753.481-.289.088-.58.167-.872.245a3.9,3.9,0,0,1-.934.156.022.022,0,0,0,0,.044,6.551,6.551,0,0,0,.9,0,6.36,6.36,0,0,0,.858-.143c.6-.135,1.2-.3,1.795-.438,1.21-.284,2.419-.568,3.647-.765.057-.009.044-.105-.013-.1" transform="translate(-73.392 -101.972)" fill="#263238"/>
            <path id="Path_10316" data-name="Path 10316" d="M145.523,182.93a26.733,26.733,0,0,0-3.014-.208c-.5,0-1.005.021-1.508.059q-.36.027-.719.067c-.263.028-.523.091-.787.115-.027,0-.028.045,0,.044.249-.015.5.011.752.01l.753,0c.5,0,1.005,0,1.508,0,1.006-.014,2.008-.017,3.015.005.054,0,.052-.077,0-.083" transform="translate(-78.759 -103.181)" fill="#263238"/>
            <path id="Path_10317" data-name="Path 10317" d="M211.8,123.643q-35.265-8.248-69.783-16.183c-8.655,28.376-6.322,61.369-18.46,88.281q35.265,8.248,69.783,16.183c8.655-28.376,6.322-61.369,18.46-88.281" transform="translate(-69.774 -60.681)" fill="#ebebeb"/>
            <path id="Path_10318" data-name="Path 10318" d="M148.63,282.466q19.152,4.394,38.134,8.718.259-1.124.5-2.255-18.941-4.306-38.027-8.674-.294,1.109-.607,2.211" transform="translate(-83.93 -158.257)" fill="#dbdbdb"/>
            <path id="Path_10319" data-name="Path 10319" d="M151.983,269.526q19.01,4.335,37.88,8.612.221-1.141.428-2.286-18.837-4.263-37.793-8.575-.249,1.129-.515,2.25" transform="translate(-85.823 -150.927)" fill="#dbdbdb"/>
            <path id="Path_10320" data-name="Path 10320" d="M154.831,256.382q18.892,4.286,37.674,8.525.191-1.153.372-2.31-18.758-4.229-37.607-8.5-.213,1.143-.439,2.281" transform="translate(-87.431 -143.488)" fill="#dbdbdb"/>
            <path id="Path_10321" data-name="Path 10321" d="M157.268,243.075q27.546,6.223,54.926,12.375.161-1.165.317-2.333-27.377-6.152-54.862-12.349-.185,1.155-.38,2.306" transform="translate(-88.807 -135.959)" fill="#dbdbdb"/>
            <path id="Path_10322" data-name="Path 10322" d="M159.392,229.646q27.446,6.181,54.788,12.318.152-1.169.3-2.339-27.354-6.142-54.753-12.3-.165,1.164-.337,2.325" transform="translate(-90.007 -128.365)" fill="#dbdbdb"/>
            <path id="Path_10323" data-name="Path 10323" d="M161.3,216.132q27.382,6.154,54.721,12.29.151-1.169.3-2.338-27.365-6.147-54.714-12.287-.154,1.169-.311,2.335" transform="translate(-91.082 -120.729)" fill="#dbdbdb"/>
            <path id="Path_10324" data-name="Path 10324" d="M163.078,202.577q27.354,6.143,54.726,12.292.159-1.166.323-2.331-27.412-6.167-54.747-12.3l-.3,2.339" transform="translate(-92.088 -113.072)" fill="#dbdbdb"/>
            <path id="Path_10325" data-name="Path 10325" d="M164.831,189.018q27.362,6.145,54.8,12.324.175-1.16.358-2.316-27.5-6.2-54.852-12.345-.155,1.167-.308,2.337" transform="translate(-93.078 -105.416)" fill="#dbdbdb"/>
            <path id="Path_10326" data-name="Path 10326" d="M166.653,175.5q27.405,6.163,54.95,12.386.2-1.149.41-2.294-27.615-6.252-55.029-12.419-.169,1.162-.332,2.327" transform="translate(-94.107 -97.787)" fill="#dbdbdb"/>
            <path id="Path_10327" data-name="Path 10327" d="M168.638,162.054q27.484,6.2,55.17,12.478.232-1.136.478-2.265-27.769-6.316-55.276-12.523-.191,1.153-.371,2.31" transform="translate(-95.228 -90.205)" fill="#dbdbdb"/>
            <path id="Path_10328" data-name="Path 10328" d="M170.882,148.729q27.6,6.245,55.461,12.6.272-1.119.562-2.23-27.959-6.4-55.6-12.657-.22,1.141-.427,2.287" transform="translate(-96.495 -82.694)" fill="#dbdbdb"/>
            <path id="Path_10329" data-name="Path 10329" d="M173.48,135.56q27.749,6.308,55.824,12.753.321-1.1.663-2.187-28.186-6.492-55.987-12.822-.259,1.125-.5,2.256" transform="translate(-97.962 -75.275)" fill="#dbdbdb"/>
            <path id="Path_10330" data-name="Path 10330" d="M130.861,131.089c.119.446,2.352,3.3,4.4,3.139.668-.053.542-3.711.542-3.711l.053-.273.731-3.81-4.533-2.717-.654-.358s-.131,1.056-.282,2.372c-.007.061-.014.122-.021.187s-.021.144-.028.214c-.025.2-.05.4-.07.6-.016.152-.033.3-.044.461s-.027.317-.042.478a25,25,0,0,0-.055,3.421" transform="translate(-73.876 -69.659)" fill="#ad6359"/>
            <path id="Path_10331" data-name="Path 10331" d="M136.915,126.434l-.7,3.662A8.317,8.317,0,0,1,131.4,126.1l.044-.37c.152-1.315.283-2.37.283-2.37l.653.354Z" transform="translate(-74.2 -69.662)" fill="#263238"/>
            <path id="Path_10332" data-name="Path 10332" d="M138.656,106.388c.945,6.744-2.988,8.072-4.442,8.274-1.32.184-5.839.641-7.476-5.969s1.2-9.181,4.2-9.761,6.776.713,7.721,7.457" transform="translate(-71.296 -55.795)" fill="#ad6359"/>
            <path id="Path_10333" data-name="Path 10333" d="M150.815,113.227a4.42,4.42,0,0,1-.467-.058.758.758,0,0,1-.465-.15.243.243,0,0,1-.024-.295.6.6,0,0,1,.579-.19.883.883,0,0,1,.578.265.258.258,0,0,1-.2.428" transform="translate(-84.602 -63.543)" fill="#263238"/>
            <path id="Path_10334" data-name="Path 10334" d="M141.128,113.716a4.4,4.4,0,0,0,.451-.135.762.762,0,0,0,.433-.225.243.243,0,0,0-.025-.295.6.6,0,0,0-.6-.09.882.882,0,0,0-.526.357.258.258,0,0,0,.269.388" transform="translate(-79.516 -63.771)" fill="#263238"/>
            <path id="Path_10335" data-name="Path 10335" d="M143.532,117.632c-.005-.017-.034.026-.031.044.064.46.061,1-.34,1.195-.013.006-.009.029.007.025.5-.126.5-.839.364-1.264" transform="translate(-80.837 -66.423)" fill="#263238"/>
            <path id="Path_10336" data-name="Path 10336" d="M142.286,116.632c-.747.024-.645,1.517.047,1.495s.579-1.515-.047-1.495" transform="translate(-80.055 -65.86)" fill="#263238"/>
            <path id="Path_10337" data-name="Path 10337" d="M141.155,116.847c-.124.093-.242.251-.4.278-.181.03-.329-.117-.458-.259-.013-.015-.026,0-.024.019.015.286.145.572.455.594.283.02.466-.248.518-.54.01-.054-.042-.13-.092-.092" transform="translate(-79.211 -65.976)" fill="#263238"/>
            <path id="Path_10338" data-name="Path 10338" d="M149.954,117.086c0-.018.038.019.039.038.023.464.127.99.557,1.11.013,0,.013.027,0,.026-.516-.031-.647-.731-.594-1.174" transform="translate(-84.671 -66.114)" fill="#263238"/>
            <path id="Path_10339" data-name="Path 10339" d="M150.333,115.9c.739-.116.917,1.37.233,1.478s-.852-1.38-.233-1.478" transform="translate(-84.676 -65.443)" fill="#263238"/>
            <path id="Path_10340" data-name="Path 10340" d="M151.476,115.822c.127.065.26.194.4.186.164-.009.265-.184.35-.35.009-.017.022-.007.025.013.042.283-.016.59-.283.678-.243.08-.455-.142-.557-.417-.019-.051.012-.136.063-.11" transform="translate(-85.498 -65.306)" fill="#263238"/>
            <path id="Path_10341" data-name="Path 10341" d="M145.352,126.3c.125.092.256.224.424.214a1.231,1.231,0,0,0,.477-.186.016.016,0,0,1,.023.02.624.624,0,0,1-.547.333.494.494,0,0,1-.419-.354c-.011-.026.023-.04.041-.027" transform="translate(-82.054 -71.319)" fill="#263238"/>
            <path id="Path_10342" data-name="Path 10342" d="M144.658,116.818a1.542,1.542,0,0,0,1.124.52,1.922,1.922,0,0,0,.553-.061.54.54,0,0,0,.1-.028c.032-.009.061-.017.1-.03a.113.113,0,0,0,.074-.114v0a.2.2,0,0,0-.012-.045v0l-.007-.039c-.044-.347-.16-.866-.16-.866.136.044.824.232.786.054a23.251,23.251,0,0,0-1.313-4.525.042.042,0,0,0-.08.024c.253,1.433.757,2.812,1.034,4.247a2.716,2.716,0,0,0-.754-.106c-.047.022.241,1,.249,1.158a.07.07,0,0,1,0,.017,2.14,2.14,0,0,1-1.656-.244c-.037-.02-.068.016-.036.047" transform="translate(-81.679 -63.047)" fill="#263238"/>
            <path id="Path_10343" data-name="Path 10343" d="M125.387,107.45c1.612-.067,1.47-2.607,1.47-2.607s1.819-.259,1.8-3.215a4.474,4.474,0,0,0,3.465,1.973c.528.05-1.3-1.22-1.3-1.22a7.224,7.224,0,0,0,6.075.878c.274-.065-.524-4.159-3.662-5.409a6.519,6.519,0,0,0-7.661,1.718,3.725,3.725,0,0,0-1.822,3c-.144,2.141,1,4.907,1.63,4.881" transform="translate(-69.877 -54.935)" fill="#263238"/>
            <path id="Path_10344" data-name="Path 10344" d="M126.286,120.325s-1.6-2.044-2.531-1.464.343,3.6,1.5,3.96a1.152,1.152,0,0,0,1.508-.7Z" transform="translate(-69.7 -67.061)" fill="#ad6359"/>
            <path id="Path_10345" data-name="Path 10345" d="M125.045,120.961a.016.016,0,0,0,0,.03,2.912,2.912,0,0,1,1.6,1.74.636.636,0,0,0-.959-.124c-.02.016,0,.047.023.042a.709.709,0,0,1,.792.205,3.423,3.423,0,0,1,.406.61c.041.069.167.024.136-.055l-.008-.018c-.033-1.012-.893-2.385-1.984-2.43" transform="translate(-70.603 -68.305)" fill="#263238"/>
            <path id="Path_10346" data-name="Path 10346" d="M128.494,126.875a.336.336,0,1,1-.355-.315.336.336,0,0,1,.355.315" transform="translate(-72.18 -71.467)" fill="#fff"/>
            <path id="Path_10347" data-name="Path 10347" d="M128.076,116.013l-2.853-.01.063-.756,2.816.341Z" transform="translate(-70.711 -65.078)" fill="#24b24c"/>
            <path id="Path_10348" data-name="Path 10348" d="M128.41,113.732l-2.806-.518.2-.733,2.711.836Z" transform="translate(-70.927 -63.517)" fill="#24b24c"/>
            <path id="Path_10349" data-name="Path 10349" d="M112.059,145.428c-1.322,3.376-6.188,19.324-4.085,25.187,1.289,3.594,14.025,10.681,17.246,12.261,1.4.688,6.531-8.372,5.9-9.922s-12.762-7.527-13.559-8.49c0,0-.438-11.373-.68-17.426-.228-5.718-2.359-7.913-4.827-1.609" transform="translate(-60.678 -79.968)" fill="#ad6359"/>
            <path id="Path_10350" data-name="Path 10350" d="M161.541,217.182c1.8.769,4.8.295,4.646,1.74-.137,1.289-2.248,1.416-2.248,1.416s2.426.626,1.884,1.97-2.883,1.01-2.883,1.01,2.042.43,1.406,1.733-2.678,1.381-2.678,1.381.5.525-.363,1.242c-1.235,1.026-4.628.3-6.31-.5a89.164,89.164,0,0,1-8.09-5.627l5.041-10.84s3.647.041,5.495.289,7.706,2.751,7.183,4.246-4.63-.343-5.734-.572-1.346-.014-.928.477a23.242,23.242,0,0,0,3.58,2.035" transform="translate(-82.955 -118.984)" fill="#ad6359"/>
            <path id="Path_10351" data-name="Path 10351" d="M177.035,229.947a10.377,10.377,0,0,1-6.684-2.136c-.047-.031-.1.033-.057.07,2.251,1.764,3.771,2.655,6.747,2.209.145-.022.135-.141-.006-.143" transform="translate(-96.153 -128.638)" fill="#263238"/>
            <path id="Path_10352" data-name="Path 10352" d="M174.688,236.589a15.583,15.583,0,0,1-7.147-2.324c-.038-.021-.077.041-.04.065,2.509,1.658,4.044,2.512,7.147,2.411.141,0,.18-.138.04-.152" transform="translate(-94.577 -132.284)" fill="#263238"/>
            <path id="Path_10353" data-name="Path 10353" d="M171.646,243.108a13.974,13.974,0,0,1-6.928-2.807.055.055,0,0,0-.07.085,9.917,9.917,0,0,0,6.973,2.81c.187.006.211-.056.025-.088" transform="translate(-92.963 -135.688)" fill="#263238"/>
            <path id="Path_10354" data-name="Path 10354" d="M118.477,154.721l-10.215,1.955s3.308-10.949,5.19-13.894c2.117-3.314,3.349-1.507,4.185,2.137a57.022,57.022,0,0,1,.84,9.8" transform="translate(-61.134 -79.644)" fill="#24b24c"/>
            <path id="Path_10355" data-name="Path 10355" d="M121.4,152.382a.784.784,0,1,1-.784-.784.784.784,0,0,1,.784.784m-3.6-5.252c-.2.4-.418.875-.636,1.384a.75.75,0,0,0,.47.161.78.78,0,0,0,.784-.784.772.772,0,0,0-.618-.762m-.164,9.108a.784.784,0,1,0,.784.784.784.784,0,0,0-.784-.784m5.657.064a.781.781,0,0,0,.03,1.45c0-.326-.013-.827-.03-1.45" transform="translate(-65.981 -83.082)" fill="#fff"/>
            <path id="Path_10356" data-name="Path 10356" d="M110.743,170c.343-.122,3.516-.782,4.209-.91s3.52-.68,4.247-.753a.026.026,0,0,1,.012.05c-.7.207-3.546.772-4.25.917s-3.858.728-4.213.744c-.03,0-.029-.04-.005-.048" transform="translate(-62.525 -95.059)" fill="#263238"/>
            <path id="Path_10357" data-name="Path 10357" d="M129.825,161.14c.3-.081.781-.189.781-.189.01-1.208-.49-7.313-.585-8.789a.018.018,0,0,1,.036,0c.106.832.21,1.661.306,2.492.007-.105.013-.211.02-.316.021-.377.053-.751.061-1.128,0-.032.048-.036.05,0a8.729,8.729,0,0,1,.013,1.139c-.018.267-.054.531-.094.794.052.477.108.953.148,1.433.122,1.469.3,2.989.311,4.465a5.467,5.467,0,0,1-1.04.177.036.036,0,0,1,0-.071" transform="translate(-73.293 -85.914)" fill="#263238"/>
            <path id="Path_10358" data-name="Path 10358" d="M109.132,166.628c-.324.094-.65.173-.975.258l-.1.027.024-.113a33.453,33.453,0,0,1,1.094-3.979c.222-.651.454-1.3.719-1.935s.532-1.269.836-1.887c-.194.661-.408,1.313-.619,1.966l-.633,1.957-1.262,3.912-.081-.086c.333-.041.666-.088,1-.12" transform="translate(-61.016 -89.785)" fill="#263238"/>
            <path id="Path_10359" data-name="Path 10359" d="M111.985,162.456a1.82,1.82,0,0,1-.07-.845,2.246,2.246,0,0,1,.095-.413,1.709,1.709,0,0,1,.177-.389,5.173,5.173,0,0,1-.056.831c-.038.271-.079.536-.146.817" transform="translate(-63.187 -90.806)" fill="#263238"/>
            <path id="Path_10360" data-name="Path 10360" d="M216.95,108.485a1.724,1.724,0,0,1,1.793,1.01,2.567,2.567,0,0,1,2.166-1.367c.71.052,1.25,1.232,1.25,1.232a2.059,2.059,0,0,1,1.9-.983c.973.132,1.37,1.294,1.37,1.294a2.457,2.457,0,0,1,2.115-.345c1.923.917,1.678,9.343-1.464,10.554-1.464.565-1.292-1.491-1.292-1.491s-.961,2.9-2.7,2.889-1.354-2.662-1.354-2.662-.955,2.8-2.757,2.61c-1.875-.2-1.036-2.787-1.036-2.787s-1.325,1.837-2.671,1.376c-2.224-.759.927-4.723.542-6.588l-3.429-.853s4.065-3.755,5.563-3.89" transform="translate(-119.368 -61.056)" fill="#ad6359"/>
            <path id="Path_10361" data-name="Path 10361" d="M242.69,112.047a.022.022,0,0,1,.044-.007,14.623,14.623,0,0,1-.77,8.664c-.038.086-.195.061-.171-.041a29.934,29.934,0,0,0,.9-8.616" transform="translate(-136.536 -63.258)" fill="#263238"/>
            <path id="Path_10362" data-name="Path 10362" d="M234.192,110.838c0-.033.053-.036.06,0a13.7,13.7,0,0,1-1.427,9.4c-.058.1-.209.128-.151.01.983-1.992,1.671-6.688,1.518-9.408" transform="translate(-131.381 -62.574)" fill="#263238"/>
            <path id="Path_10363" data-name="Path 10363" d="M223.711,120.5a18.821,18.821,0,0,0,2.018-9c0-.041.059-.037.068,0a12.322,12.322,0,0,1-.138,5.125,8.429,8.429,0,0,1-1.85,3.927c-.038.045-.131.007-.1-.053" transform="translate(-126.323 -62.949)" fill="#263238"/>
            <path id="Path_10364" data-name="Path 10364" d="M227.84,130.723a6.113,6.113,0,0,1-.788,1.652,2.629,2.629,0,0,1-1.462,1.135,1.6,1.6,0,0,1-.971-.051,1.3,1.3,0,0,1-.679-.718,3.727,3.727,0,0,1-.155-1.881l.293.079a5.664,5.664,0,0,1-.954,1.618,2.7,2.7,0,0,1-1.634.969,1.9,1.9,0,0,1-.976-.116,1.26,1.26,0,0,1-.684-.727,3.146,3.146,0,0,1,.047-1.883l.182.1a4.746,4.746,0,0,1-.664.623,3.175,3.175,0,0,1-.785.457,1.793,1.793,0,0,1-.9.128,1.476,1.476,0,0,1-.794-.4,1.508,1.508,0,0,0,.8.331,1.693,1.693,0,0,0,.839-.175,4.116,4.116,0,0,0,1.336-1.1l.29-.35-.108.447a2.979,2.979,0,0,0,.01,1.721.972.972,0,0,0,.539.563,1.612,1.612,0,0,0,.821.084,2.39,2.39,0,0,0,1.43-.885,5.478,5.478,0,0,0,.914-1.51l.473-1.163-.181,1.241a3.463,3.463,0,0,0,.114,1.72,1.082,1.082,0,0,0,.522.6,1.368,1.368,0,0,0,.821.072,2.566,2.566,0,0,0,1.4-1,6.682,6.682,0,0,0,.894-1.574" transform="translate(-122.492 -73.224)" fill="#263238"/>
          </g>
        </g>
      </g>
    </g>
  </g>
</svg>
