<svg xmlns="http://www.w3.org/2000/svg" width="1352" height="992.708" viewBox="0 0 1352 992.708">
  <g id="Logo_enseval" data-name="Logo enseval" transform="translate(-17268 -7651)">
    <g id="Enseval_Logo" transform="translate(17268 7651)">
      <g id="E-Left" transform="translate(0 0)">
        <path id="E-LeftStrip" d="M0,621.416v-33.59H1352v33.59ZM0,495.453V453.466H1352v41.988Zm0-134.36V319.106H1352v41.988ZM0,218.335V159.553H1352v58.783ZM0,67.18V0H1352V67.18Z" fill="#14b446"/>
      </g>
      <g id="E-Right" transform="translate(0 83.975)">
        <path id="E-RightStrip" d="M0,604.621V579.429H1352v25.193ZM0,478.658v-33.59H1352v33.59ZM0,344.3V302.311H1352V344.3Zm0-134.36V159.553H1352v50.385ZM0,58.783V0H1352V58.783Z" fill="#14b446"/>
      </g>
      <path id="E-Enseval" d="M12.056-14.336V641.88H642.18V359.95H622.614c-14.393,117.842-104.86,205.739-211.853,205.89-114.013,0-207.99-99.494-213.666-226.086h.311a250.674,250.674,0,0,1,122.6,34.211A233.174,233.174,0,0,1,436.735,534.047,231.77,231.77,0,0,0,483.761,514.1a230.856,230.856,0,0,1-87.015-186.232,229.689,229.689,0,0,1,90.433-188.65,231.2,231.2,0,0,0-41.7-19.062A236.97,236.97,0,0,1,331.4,266.191a248.44,248.44,0,0,1-132.958,33.59c12.8-119.606,104.02-209.728,212.39-209.8A222.635,222.635,0,0,1,622.337,293.122h19.9v-307.3Z" transform="translate(352.136 31.744)" fill="#0b8d45"/>
    </g>
    <g id="Group_628" data-name="Group 628" transform="translate(17268 8372.534)">
      <path id="Path_364" data-name="Path 364" d="M17237.254,6284.539h-142.527V6433h142.527v-33.2h-88.6v-32.675h84.074v-21.623h-84.074V6309.59h88.6Z" transform="translate(-17094.727 -6284.539)" fill="#0b8d45"/>
      <path id="Path_372" data-name="Path 372" d="M17237.254,6284.539h-142.527V6433h142.527v-33.2h-88.6v-32.675h84.074v-21.623h-84.074V6309.59h88.6Z" transform="translate(-16472.406 -6284.539)" fill="#0b8d45"/>
      <path id="Path_362" data-name="Path 362" d="M17219.758,6284.543v148.463h46.375V6312.747l62.83,120.259h83.8V6284.543h-49.617v112.8l-66.707-112.8Z" transform="translate(-17035.662 -6284.542)" fill="#0b8d45"/>
      <path id="Path_363" data-name="Path 363" d="M17531.811,6323.089c0-21.389-19.119-38.585-77.506-38.585s-76.1,22.848-76.1,38.585,4.334,44.541,76.1,44.541c33.549,0,37.365,7.379,37.365,16.156s1.678,20.328-37.365,19.56-33.234-19.56-33.234-19.56H17378.2s-9.984,49.182,76.1,49.182c61.326-.167,85.686-13.671,86.836-49.182s-47.352-37.625-86.836-37.625-33.234-14.691-33.234-23.072,12.564-14.779,33.234-14.779,31,6.961,31.785,14.779Z" transform="translate(-16960.49 -6284.503)" fill="#0b8d45"/>
      <path id="Union_1" data-name="Union 1" d="M99.476,148.391V117.636L146.944,0h52l-61.7,148.464ZM0,0H52L99.476,117.636v30.755l-37.771.072Z" transform="translate(796.112 0)" fill="#0b8d45"/>
      <path id="Union_2" data-name="Union 2" d="M146.941,148.464l-12.582-31.18H64.582L52,148.464H0L61.705,0,99.476.07V30.824L75.966,89.077h47.015l-23.5-58.252V.07L137.242,0l61.7,148.464Z" transform="translate(984.816 0.001)" fill="#0b8d45"/>
      <path id="Path_375" data-name="Path 375" d="M17094.727,6284.539V6433h142.527v-33.2h-88.6V6284.539Z" transform="translate(-15886.231 -6284.539)" fill="#0b8d45"/>
    </g>
    <rect id="Rectangle_318" data-name="Rectangle 318" width="1351" height="23" transform="translate(17268 8372.903)" fill="#0b8d45"/>
    <rect id="Rectangle_316" data-name="Rectangle 316" width="1351" height="24" transform="translate(17268 8496.903)" fill="#0b8d45"/>
    <rect id="Rectangle_317" data-name="Rectangle 317" width="1351" height="12" transform="translate(17268 8440.903)" fill="#0b8d45"/>
    <path id="Path_376" data-name="Path 376" d="M-835.86-41.346q0,10.864-9.665,16.712t-27.654,5.848h-10.972V9.353H-895V-62.194h24.177Q-835.859-62.194-835.86-41.346Zm-48.291,15.415h9.76q14.417,0,20.86-3.572t6.443-11.451a11.4,11.4,0,0,0-6.06-10.57Q-859.208-55-872.03-55h-12.121ZM-774.937,9.353l-2.105-7.634h-.51a28.908,28.908,0,0,1-10.43,6.827,40.421,40.421,0,0,1-12.982,1.786q-10.4,0-16.3-4.111a13.408,13.408,0,0,1-5.9-11.7q0-16.247,33.874-17.03l11.865-.294v-3.328q0-6.313-3.54-9.323t-11.323-3.01q-8.74,0-19.776,4.111l-3.253-6.215a59.581,59.581,0,0,1,11.323-3.377,63.183,63.183,0,0,1,12.344-1.223q12.5,0,18.532,4.258t6.028,13.654V9.353ZM-798.86,3.627q9.888,0,15.534-4.16A13.636,13.636,0,0,0-777.68-12.18v-4.845l-10.59.343q-12.631.343-18.213,3.01t-5.582,8.295a7.538,7.538,0,0,0,3.477,6.7Q-805.111,3.627-798.86,3.627Zm98.688-8.907q0,7.487-7.272,11.549t-20.414,4.062q-13.907,0-21.69-3.377V-.581A63.232,63.232,0,0,0-738.735,2.5,58.159,58.159,0,0,0-727.6,3.627q8.293,0,12.759-2.031t4.465-6.191q0-3.132-3.54-5.359t-13.811-5.261a87.036,87.036,0,0,1-13.875-4.869,17.366,17.366,0,0,1-6.124-4.722,10.127,10.127,0,0,1-2.01-6.313q0-6.558,6.953-10.35t19.074-3.793a70.616,70.616,0,0,1,22.072,3.523l-3.764,6.607a63.893,63.893,0,0,0-19.074-3.328q-7.528,0-11.355,1.811t-3.828,4.992a5.147,5.147,0,0,0,1.435,3.67A14.009,14.009,0,0,0-733.6-25.1a122.038,122.038,0,0,0,12.248,3.964q12.44,3.475,16.81,7A10.922,10.922,0,0,1-700.172-5.279Zm62.326,0q0,7.487-7.272,11.549t-20.414,4.062q-13.907,0-21.69-3.377V-.581A63.232,63.232,0,0,0-676.409,2.5a58.159,58.159,0,0,0,11.132,1.126q8.293,0,12.759-2.031t4.465-6.191q0-3.132-3.54-5.359T-665.4-15.214a87.035,87.035,0,0,1-13.875-4.869,17.366,17.366,0,0,1-6.124-4.722,10.127,10.127,0,0,1-2.01-6.313q0-6.558,6.953-10.35t19.074-3.793a70.616,70.616,0,0,1,22.072,3.523l-3.764,6.607a63.893,63.893,0,0,0-19.074-3.328q-7.527,0-11.355,1.811t-3.828,4.992a5.147,5.147,0,0,0,1.435,3.67,14.008,14.008,0,0,0,4.625,2.887,122.047,122.047,0,0,0,12.248,3.964q12.44,3.475,16.809,7A10.922,10.922,0,0,1-637.846-5.279Zm27.814,14.632h-10.59V-44.283h10.59Zm-11.483-68.17a4.709,4.709,0,0,1,1.786-4.086,7.4,7.4,0,0,1,4.465-1.3,7.374,7.374,0,0,1,4.4,1.321,4.655,4.655,0,0,1,1.85,4.062,4.72,4.72,0,0,1-1.85,4.086,7.28,7.28,0,0,1-4.4,1.346,7.21,7.21,0,0,1-4.465-1.346A4.788,4.788,0,0,1-621.515-58.817Zm94.286,41.3q0,13.115-8.612,20.48t-23.795,7.365a39.116,39.116,0,0,1-16.65-3.377,25.589,25.589,0,0,1-11.228-9.69,27.252,27.252,0,0,1-3.955-14.779q0-13.115,8.548-20.431t23.731-7.316q14.672,0,23.316,7.487T-527.229-17.514Zm-53.267,0q0,10.277,5.359,15.66t15.757,5.383q10.4,0,15.789-5.359t5.39-15.684q0-10.228-5.39-15.538t-15.916-5.31q-10.4,0-15.693,5.236T-580.5-17.514ZM-460.82,9.353v-34.7q0-6.558-3.891-9.787t-12.184-3.23q-10.972,0-16.076,4.551t-5.1,15.024V9.353h-10.59V-44.283h8.612l1.722,7.341h.51a20.862,20.862,0,0,1,9.122-6.142,37.358,37.358,0,0,1,13.078-2.178q12.631,0,19.01,4.674t6.379,14.95V9.353Zm97.795-47.322h-17.8V9.353h-10.59V-37.97h-12.5v-3.67l12.5-2.936v-2.985q0-19.771,22.519-19.771a59.27,59.27,0,0,1,13.014,1.713l-2.743,6.509a44.644,44.644,0,0,0-10.462-1.517q-6,0-8.867,3.059t-2.871,9.812v3.475h17.8Zm73.107,20.456q0,13.115-8.612,20.48t-23.795,7.365a39.116,39.116,0,0,1-16.65-3.377A25.589,25.589,0,0,1-350.2-2.735a27.252,27.252,0,0,1-3.955-14.779q0-13.115,8.548-20.431t23.731-7.316q14.672,0,23.316,7.487T-289.919-17.514Zm-53.267,0q0,10.277,5.359,15.66t15.757,5.383q10.4,0,15.789-5.359t5.391-15.684q0-10.228-5.391-15.538t-15.916-5.31q-10.4,0-15.693,5.236T-343.186-17.514Zm103.727-27.748a53.671,53.671,0,0,1,8.357.587l-1.467,7.536a46.541,46.541,0,0,0-7.655-.734,21.263,21.263,0,0,0-14.513,5.285,16.8,16.8,0,0,0-6.028,13.164V9.353h-10.59V-44.283h8.74l1.212,9.934h.51a27.146,27.146,0,0,1,9.378-8.075A25.844,25.844,0,0,1-239.459-45.261ZM-130.5,9.353h-51.991V-62.194H-130.5v7.39h-41.146v23.049h38.659v7.341h-38.659V1.914H-130.5ZM-94.585-18.1-118.89-44.283h12.057L-88.4-23.729l18.372-20.554H-58.1L-82.4-18.1-56.819,9.353H-68.812L-88.4-12.375-108.173,9.353h-11.993ZM-17.65,10.332q-15.183,0-23.508-7.169t-8.325-20.285q0-13.458,8.453-20.8t24.082-7.341a61.786,61.786,0,0,1,10.079.832,40.655,40.655,0,0,1,7.91,1.958l-3.253,6.9a61.491,61.491,0,0,0-7.655-1.786,44.09,44.09,0,0,0-7.336-.71q-21.307,0-21.307,20.847,0,9.885,5.2,15.171t15.406,5.285A59.614,59.614,0,0,0,.02.348V7.542Q-7,10.332-17.65,10.332Zm63.793,0q-15.5,0-24.465-7.243T12.715-17.024q0-12.968,8.325-20.6T43.4-45.261q13.141,0,20.8,6.631t7.655,17.5V-16H23.688q.319,9.445,6.22,14.339T46.525,3.236A71.2,71.2,0,0,0,68.853-.386V6.857A68.707,68.707,0,0,1,58.231,9.524,77.346,77.346,0,0,1,46.143,10.332ZM43.272-38.459q-8.421,0-13.428,4.209a17.233,17.233,0,0,0-5.9,11.647H60.5q0-7.683-4.465-11.769T43.272-38.459ZM100.494,9.353H89.9V-66.794h10.59Zm33.045,0h-10.59V-66.794h10.59Zm51.991.979q-15.5,0-24.465-7.243T152.1-17.024q0-12.968,8.325-20.6t22.359-7.634q13.141,0,20.8,6.631t7.655,17.5V-16H163.075q.319,9.445,6.22,14.339t16.618,4.894A71.2,71.2,0,0,0,208.241-.386V6.857a68.707,68.707,0,0,1-10.621,2.667A77.344,77.344,0,0,1,185.53,10.332ZM182.66-38.459q-8.421,0-13.428,4.209a17.232,17.232,0,0,0-5.9,11.647h36.553q0-7.683-4.466-11.769T182.66-38.459ZM277.137,9.353v-34.7q0-6.558-3.891-9.787t-12.185-3.23q-10.972,0-16.076,4.551t-5.1,15.024V9.353h-10.59V-44.283H237.9l1.722,7.341h.51a20.862,20.862,0,0,1,9.122-6.142,37.357,37.357,0,0,1,13.077-2.178q12.631,0,19.01,4.674t6.379,14.95V9.353Zm60.284.979q-15.183,0-23.508-7.169t-8.325-20.285q0-13.458,8.453-20.8t24.082-7.341a61.785,61.785,0,0,1,10.079.832,40.652,40.652,0,0,1,7.91,1.958l-3.253,6.9a61.488,61.488,0,0,0-7.655-1.786,44.092,44.092,0,0,0-7.336-.71q-21.307,0-21.307,20.847,0,9.885,5.2,15.171t15.406,5.285A59.615,59.615,0,0,0,355.092.348V7.542Q348.075,10.332,337.422,10.332Zm63.793,0q-15.5,0-24.465-7.243t-8.963-20.113q0-12.968,8.325-20.6t22.359-7.634q13.141,0,20.8,6.631t7.655,17.5V-16H378.759q.319,9.445,6.22,14.339T401.6,3.236A71.2,71.2,0,0,0,423.925-.386V6.857A68.707,68.707,0,0,1,413.3,9.524,77.343,77.343,0,0,1,401.214,10.332Zm-2.871-48.791q-8.421,0-13.428,4.209a17.232,17.232,0,0,0-5.9,11.647h36.553q0-7.683-4.465-11.769T398.344-38.459Z" transform="translate(18178.584 8632.376)" fill="#068e40" stroke="#068e40" stroke-width="2"/>
  </g>
</svg>
