<svg id="warning" xmlns="http://www.w3.org/2000/svg" xmlns:xlink="http://www.w3.org/1999/xlink" width="440.286" height="298.039" viewBox="0 0 440.286 298.039">
  <defs>
    <clipPath id="clip-path">
      <path id="Path_2371" data-name="Path 2371" d="M174.258,41.615c46.259,2.552,85.487,28.253,139.145,55.308,64.029,32.465,127.607,32,127.607,82.967,2.255,39.681-45.741,84.073-84.32,118.589-37.776,33.8-74.637,41.033-133.92,41.033-119.523,0-215.534-44.189-207.023-133.764S104,37.681,174.258,41.615Z" transform="translate(-15.221 -41.473)" fill="#f78be6" stroke="#f78be6" stroke-width="1"/>
    </clipPath>
    <clipPath id="clip">
      <use xlink:href="#fill"/>
    </clipPath>
  </defs>
  <g id="Path_117" data-name="Path 117" transform="translate(14.416 0)">
    <path id="Path_9358" data-name="Path 9358" d="M223.181,339.828c-9.811,0-19.566-.3-28.992-.9-4.721-.3-9.449-.678-14.052-1.125s-9.228-.979-13.711-1.575-8.985-1.281-13.336-2.026c-4.369-.75-8.719-1.583-12.928-2.478-4.229-.9-8.429-1.886-12.485-2.931-4.077-1.05-8.117-2.188-12.008-3.383-3.914-1.2-7.783-2.491-11.5-3.834-3.739-1.354-7.425-2.8-10.953-4.29-3.554-1.5-7.044-3.1-10.375-4.742-3.356-1.657-6.641-3.4-9.763-5.2-3.147-1.806-6.214-3.708-9.117-5.65-2.927-1.96-5.765-4.015-8.437-6.107-2.7-2.113-5.293-4.321-7.723-6.563-2.452-2.264-4.8-4.626-6.976-7.019-2.278-2.505-4.434-5.115-6.406-7.756a97.441,97.441,0,0,1-5.529-8.249,93.261,93.261,0,0,1-4.614-8.739,91.425,91.425,0,0,1-3.662-9.233,92.736,92.736,0,0,1-2.672-9.726,96.833,96.833,0,0,1-1.644-10.22,104.294,104.294,0,0,1-.579-10.714c-.011-3.658.165-7.43.524-11.21.511-5.383,1.3-10.847,2.332-16.241,1.016-5.289,2.3-10.638,3.812-15.9,1.486-5.165,3.229-10.365,5.181-15.456,1.92-5.009,4.088-10.028,6.441-14.918,2.32-4.821,4.874-9.626,7.591-14.283,2.685-4.6,5.589-9.16,8.631-13.551,3.014-4.349,6.232-8.629,9.562-12.721,3.309-4.065,6.8-8.033,10.382-11.794s7.3-7.372,11.092-10.77S89,73.889,92.965,70.884s8.078-5.85,12.183-8.43c4.13-2.6,8.357-4.989,12.563-7.115a139.234,139.234,0,0,1,12.834-5.7,123.623,123.623,0,0,1,12.994-4.193,109.558,109.558,0,0,1,13.044-2.587,97.878,97.878,0,0,1,12.985-.884c1.7,0,3.415.048,5.095.142,2.313.128,4.662.317,6.982.564,2.279.242,4.6.546,6.89.9,2.249.351,4.543.763,6.815,1.227,2.226.453,4.5.969,6.759,1.533A203.049,203.049,0,0,1,228.9,55.19c4.31,1.735,8.721,3.638,13.485,5.818,4.277,1.956,8.766,4.1,13.725,6.565,9.261,4.6,18.7,9.565,28.7,14.826,9.262,4.873,18.841,9.912,28.959,15.014,4.66,2.363,9.624,4.7,14.757,6.954,4.6,2.018,9.364,3.985,14.566,6.013,9.609,3.746,18.892,6.99,27.871,10.127,9.971,3.484,19.39,6.775,27.864,10.287,4.528,1.876,8.445,3.673,11.975,5.492,1.9.979,3.714,1.98,5.391,2.976,1.75,1.039,3.416,2.11,4.951,3.184,1.593,1.113,3.1,2.268,4.484,3.432a51.773,51.773,0,0,1,3.983,3.721,44.281,44.281,0,0,1,3.452,4.051,40.417,40.417,0,0,1,2.894,4.422,39.422,39.422,0,0,1,2.3,4.834,41.253,41.253,0,0,1,1.682,5.288,46.765,46.765,0,0,1,1.034,5.784,55.535,55.535,0,0,1,.351,6.321v.005a49.921,49.921,0,0,1-.151,7.478,58.082,58.082,0,0,1-1.241,7.569,70.441,70.441,0,0,1-2.242,7.639c-.887,2.505-1.95,5.092-3.156,7.687-1.172,2.515-2.513,5.11-3.986,7.713-1.424,2.518-3.014,5.114-4.726,7.72-1.65,2.511-3.459,5.1-5.38,7.7-1.844,2.5-3.845,5.076-5.947,7.664a351.178,351.178,0,0,1-27.7,29.84c-10.176,9.915-20.7,19.4-29.766,27.507-2.347,2.1-4.727,4.13-7.075,6.027s-4.729,3.726-7.086,5.434-4.753,3.341-7.133,4.867-4.8,2.976-7.215,4.33-4.867,2.631-7.329,3.821c-2.444,1.181-4.96,2.306-7.478,3.339-2.5,1.027-5.075,2-7.662,2.889-2.56.879-5.211,1.71-7.88,2.464a195.413,195.413,0,0,1-34.386,6.181c-6.041.589-12.384,1.007-19.393,1.281C237.91,339.707,230.968,339.828,223.181,339.828Z" transform="translate(-15.631 -41.882)" fill="#e6eae9"/>
    <path id="Path_9359" data-name="Path 9359" d="M169.158,41.654a97.773,97.773,0,0,0-12.972.883,109.456,109.456,0,0,0-13.033,2.585,123.552,123.552,0,0,0-12.984,4.19,139.222,139.222,0,0,0-12.825,5.7c-4.2,2.124-8.428,4.516-12.556,7.111-4.1,2.579-8.2,5.414-12.177,8.426s-7.9,6.248-11.687,9.644S73.4,87.21,69.836,90.956s-7.07,7.726-10.377,11.789c-3.329,4.09-6.544,8.368-9.557,12.715-3.041,4.388-5.944,8.945-8.627,13.545-2.716,4.655-5.269,9.458-7.588,14.277-2.353,4.888-4.519,9.905-6.438,14.912-1.951,5.089-3.694,10.287-5.179,15.449-1.512,5.257-2.794,10.6-3.81,15.889-1.036,5.391-1.82,10.853-2.331,16.232-.359,3.777-.535,7.546-.524,11.2a104.228,104.228,0,0,0,.578,10.705,96.825,96.825,0,0,0,1.643,10.211,92.631,92.631,0,0,0,2.669,9.715,91.49,91.49,0,0,0,3.658,9.224,93.142,93.142,0,0,0,4.61,8.73,97.319,97.319,0,0,0,5.524,8.241c1.971,2.64,4.124,5.247,6.4,7.749,2.175,2.393,4.52,4.751,6.97,7.013,2.428,2.242,5.024,4.448,7.717,6.557,2.67,2.091,5.506,4.144,8.431,6.1,2.9,1.942,5.966,3.843,9.111,5.649,3.12,1.791,6.4,3.539,9.758,5.194,3.329,1.642,6.818,3.238,10.37,4.74,3.527,1.493,7.211,2.934,10.949,4.286,3.714,1.344,7.581,2.634,11.494,3.835,3.89,1.194,7.929,2.331,12,3.381,4.054,1.045,8.254,2.029,12.481,2.929,4.208.894,8.556,1.728,12.924,2.476,4.351.747,8.836,1.428,13.333,2.026s9.094,1.126,13.708,1.575,9.329.825,14.049,1.125c9.424.6,19.177.9,28.986.9,7.787,0,14.728-.122,21.217-.376,7.008-.274,13.349-.692,19.388-1.281a195.174,195.174,0,0,0,34.37-6.177c2.667-.754,5.318-1.582,7.876-2.462,2.585-.89,5.162-1.862,7.656-2.887,2.516-1.034,5.031-2.157,7.473-3.338,2.46-1.188,4.924-2.473,7.326-3.819s4.838-2.807,7.209-4.326,4.777-3.161,7.129-4.866,4.738-3.532,7.082-5.429,4.724-3.924,7.071-6.025c9.064-8.111,19.586-17.593,29.762-27.506a351.327,351.327,0,0,0,27.691-29.831c2.1-2.587,4.1-5.164,5.943-7.66,1.919-2.6,3.728-5.189,5.376-7.7,1.71-2.6,3.3-5.2,4.724-7.713,1.472-2.6,2.813-5.195,3.981-7.707,1.206-2.593,2.269-5.176,3.154-7.679a70.232,70.232,0,0,0,2.238-7.629,57.874,57.874,0,0,0,1.239-7.557,49.733,49.733,0,0,0,.151-7.464v-.01a55.339,55.339,0,0,0-.351-6.311,46.584,46.584,0,0,0-1.03-5.772,41.084,41.084,0,0,0-1.681-5.276,39.238,39.238,0,0,0-2.3-4.823,39.981,39.981,0,0,0-2.887-4.412,44.17,44.17,0,0,0-3.445-4.043,51.644,51.644,0,0,0-3.977-3.715c-1.379-1.162-2.885-2.316-4.475-3.427-1.535-1.072-3.2-2.142-4.947-3.18-1.675-1-3.487-2-5.385-2.973-3.528-1.818-7.442-3.614-11.968-5.489-8.472-3.511-17.889-6.8-27.86-10.285-8.979-3.137-18.263-6.382-27.873-10.128-5.2-2.028-9.969-4-14.569-6.014-5.134-2.252-10.1-4.592-14.762-6.956-10.118-5.1-19.7-10.141-28.959-15.015-10-5.261-19.442-10.23-28.7-14.825-4.958-2.461-9.448-4.608-13.723-6.564-4.762-2.179-9.173-4.082-13.481-5.816a202.867,202.867,0,0,0-26.779-8.845c-2.258-.563-4.531-1.079-6.755-1.532-2.271-.463-4.563-.875-6.811-1.226-2.292-.357-4.609-.661-6.886-.9-2.318-.246-4.666-.436-6.978-.563-1.678-.094-3.39-.142-5.089-.142m0-.182c1.708,0,3.4.047,5.1.142,46.259,2.552,85.487,28.253,139.145,55.308,64.03,32.465,127.608,32,127.608,82.967,2.255,39.68-45.742,84.073-84.319,118.588-37.776,33.8-74.637,41.032-133.92,41.032-119.524,0-215.535-44.188-207.025-133.763C24.051,118.337,100.193,41.472,169.158,41.472Z" transform="translate(-15.221 -41.472)" fill="#f78be6"/>
  </g>
  <g id="Group_26" data-name="Group 26" transform="translate(0 56.712)">
    <g id="Group_25" data-name="Group 25" transform="translate(11.511 0)">
      <path id="Path_105" data-name="Path 105" d="M9.386,6.84S16.506,2.8,24.464,4.417c5.374,1.089,10.854,6.372,15.9,11.248,2.807,2.714,1.034,4.949,1.8,8.479.667,3.061,2.77,5.614,2.786,8.825.016,3.046-2.222,5.9-2.786,8.652-1.115,5.448-2.95,5.71-9.178,8.825-1.694.847.055-.234-10.325,0-8.221.185-18.193,2.62-24.42,0-1.582-.665-1.921-2.648-3.114-3.98-1.382-1.543-4.712-4.133-5.245-8.306-.3-2.333.574-5.957,1.147-9.171.88-4.93,1.249-8.631,4.1-12.286C.5,9.813,9.386,6.84,9.386,6.84Z" transform="translate(67.233 84.042)" fill="#468a1f"/>
      <path id="Path_106" data-name="Path 106" d="M-7.514,0H-.9V10.241A64.819,64.819,0,0,0,.253,20.992H-8.96A49.559,49.559,0,0,0-7.514,10.423Z" transform="translate(90.895 133.551)" fill="#468a1f"/>
      <path id="Path_1659" data-name="Path 1659" d="M-5.86,1.708v8.746a46.612,46.612,0,0,1-1.03,8.893h5.3a60.332,60.332,0,0,1-.837-9.075V1.708H-5.86M-7.5,0h6.7V10.272A64.372,64.372,0,0,0,.377,21.055H-8.96A49.274,49.274,0,0,0-7.5,10.454Z" transform="translate(90.797 133.7)"/>
      <path id="Path_1660" data-name="Path 1660" d="M21.013,5.745A24.3,24.3,0,0,0,10.43,8.355L10.3,8.43l-.141.047c-.086.029-8.627,2.928-13.685,9.35-2.307,2.929-2.822,5.892-3.534,9.992l-.275,1.563c-.113.627-.237,1.27-.363,1.916-.487,2.523-.993,5.133-.786,6.738.371,2.873,2.441,4.929,3.953,6.431.355.353.674.671.931.955a10.406,10.406,0,0,1,1.35,2.02c.469.846.779,1.374,1.223,1.559A18.587,18.587,0,0,0,6.03,50.088c2.8,0,5.906-.308,8.913-.605,2.713-.269,5.518-.546,8.137-.6,1.084-.024,2.038-.035,2.881-.035a43.169,43.169,0,0,1,6.19.316,1.757,1.757,0,0,1,.339.062,3.218,3.218,0,0,0,.39-.18c.727-.359,1.393-.681,2.008-.977,4.609-2.221,5.568-2.684,6.4-6.692a18.672,18.672,0,0,1,1.407-3.83,11.523,11.523,0,0,0,1.381-4.478,11.632,11.632,0,0,0-1.347-4.528,20.418,20.418,0,0,1-1.435-3.95,14,14,0,0,1-.215-3.885c.084-1.7.126-2.548-1.123-3.743C35.123,12.339,29.647,7.1,24.636,6.1a18.466,18.466,0,0,0-3.622-.351m0-1.708a19.971,19.971,0,0,1,3.93.382c5.447,1.092,11,6.391,16.114,11.282,2.846,2.722,1.048,4.964,1.827,8.5.676,3.071,2.807,5.632,2.824,8.852.016,3.055-2.253,5.914-2.824,8.678-1.13,5.465-2.99,5.728-9.3,8.852a2.117,2.117,0,0,1-1,.331,46.468,46.468,0,0,0-6.619-.365c-.833,0-1.776.01-2.846.034-5.456.122-11.672,1.21-17.085,1.21a20.19,20.19,0,0,1-7.667-1.21c-1.6-.668-1.947-2.656-3.156-3.992-1.4-1.548-4.776-4.146-5.316-8.331-.3-2.34.581-5.975,1.163-9.2.892-4.945,1.266-8.657,4.153-12.323C.65,9.831,9.66,6.849,9.66,6.849A25.653,25.653,0,0,1,21.013,4.037Z" transform="translate(66.696 84.042)"/>
      <path id="Path_107" data-name="Path 107" d="M0,0H3.549V4.055L.2,5.28Z" transform="translate(84.832 131.336)" fill="#468a1f"/>
      <path id="Path_2413" data-name="Path 2413" d="M-57.692-11.5c-9.5,0-18.12,2.863-23.071,7.649C-84.317-3.6-121.282-5.361-123.447,11c0,0,.12,5.293,0,5.533s-19.276,2.889-26.834,8.729S-173.3,33.849-173.3,33.849H-59.582c5.1,0,61.415-2.487,71.117-2.061,2.533.111-13.841-1.737-15.46-2.061S11.572,27.274,8.1,17.015C1.95,6.084-21.07,5.471-21.07,5.471A23.591,23.591,0,0,0-31.41-6C-38.508-10.013-50.711-11.5-57.692-11.5Z" transform="translate(411.26 11.5)" fill="#fff"/>
      <path id="Path_2414" data-name="Path 2414" d="M70.7,30.483c-5.807,0-11.081-1.924-14.109-5.142-2.173-.17-24.779,1.015-26.1-9.982,0,0,.073-3.558,0-3.72S18.7,9.7,14.077,5.772,0,0,0,0H69.544c3.12,0,37.558,1.672,43.491,1.386,1.549-.075-8.464,1.167-9.455,1.386s9.478,1.649,7.354,8.545C107.173,18.663,93.1,19.075,93.1,19.075a15.62,15.62,0,0,1-6.323,7.714C82.431,29.483,74.969,30.483,70.7,30.483Z" transform="matrix(-0.999, 0.035, -0.035, -0.999, 114.151, 58.606)" fill="#fff"/>
    </g>
    <g id="Group_24" data-name="Group 24" transform="translate(29.816 79.259)">
      <path id="Path_105-2" data-name="Path 105" d="M12.813,7.169S21.18,2.66,30.532,4.462c6.315,1.217,12.754,7.121,18.682,12.568,3.3,3.033,1.215,5.53,2.119,9.475.783,3.421,3.255,6.274,3.274,9.861.018,3.4-2.611,6.589-3.274,9.668-1.31,6.088-3.467,6.381-10.786,9.861-1.991.947.065-.262-12.134,0-9.661.207-21.38,2.927-28.7,0-1.859-.743-2.257-2.959-3.659-4.447-1.625-1.724-5.537-4.619-6.163-9.282-.35-2.607.674-6.657,1.348-10.247,1.034-5.509,1.468-9.645,4.815-13.729C2.367,10.492,12.813,7.169,12.813,7.169Z" transform="translate(11.707 -3.021)" fill="#468a1f"/>
      <path id="Path_106-2" data-name="Path 106" d="M-7.261,0H.512V11.444A69.028,69.028,0,0,0,1.867,23.457H-8.96a52.88,52.88,0,0,0,1.7-11.81Z" transform="translate(39.727 51.827)" fill="#468a1f"/>
      <path id="Path_1657" data-name="Path 1657" d="M-5.166,2V12.245A52.388,52.388,0,0,1-6.427,22.661H.059A67.743,67.743,0,0,1-.964,12.032V2h-4.2m-2-2h8.2V12.031a72.3,72.3,0,0,0,1.43,12.63H-8.96A55.4,55.4,0,0,0-7.167,12.245Z" transform="translate(39.933 53.436)"/>
      <path id="Path_1658" data-name="Path 1658" d="M27.982,6.038a30.754,30.754,0,0,0-12.95,3.057l-.165.087-.173.055c-.1.033-10.557,3.43-16.747,10.952-2.823,3.431-3.452,6.9-4.324,11.7l-.337,1.83c-.138.735-.291,1.487-.443,2.244-.6,2.956-1.216,6.014-.963,7.893.454,3.365,2.987,5.774,4.837,7.532.435.413.824.785,1.139,1.118A12.163,12.163,0,0,1-.492,54.875c.574.991.954,1.609,1.5,1.825a23.671,23.671,0,0,0,8.642,1.275c3.423,0,7.228-.36,10.907-.709,3.32-.315,6.753-.64,9.958-.709,1.326-.028,2.494-.04,3.526-.04a55.118,55.118,0,0,1,7.575.371,2.237,2.237,0,0,1,.415.073,4.021,4.021,0,0,0,.477-.211c.888-.421,1.7-.8,2.457-1.145,5.64-2.6,6.813-3.143,7.828-7.838a21.266,21.266,0,0,1,1.722-4.486,13.081,13.081,0,0,0,1.69-5.245,13.194,13.194,0,0,0-1.648-5.3A23.251,23.251,0,0,1,52.8,28.107a15.732,15.732,0,0,1-.264-4.55c.1-1.987.154-2.985-1.374-4.384C45.247,13.761,38.546,7.626,32.414,6.449a23.576,23.576,0,0,0-4.432-.411m0-2a25.5,25.5,0,0,1,4.809.447C39.457,5.764,46.254,11.97,52.51,17.7c3.482,3.188,1.283,5.814,2.236,9.961.827,3.6,3.436,6.6,3.456,10.368.019,3.578-2.756,6.927-3.456,10.164-1.383,6.4-3.659,6.709-11.384,10.368a2.672,2.672,0,0,1-1.224.387,59.392,59.392,0,0,0-8.1-.427c-1.019,0-2.173.012-3.483.04-6.676.142-14.283,1.417-20.907,1.417A25.716,25.716,0,0,1,.264,58.56C-1.7,57.779-2.118,55.449-3.6,53.884c-1.715-1.813-5.844-4.857-6.505-9.759-.37-2.741.712-7,1.423-10.774C-7.589,27.559-7.13,23.211-3.6,18.917,3.063,10.823,14.088,7.33,14.088,7.33A32.468,32.468,0,0,1,27.982,4.037Z" transform="translate(10.178 -4.037)"/>
      <path id="Path_107-2" data-name="Path 107" d="M0,0H4.171V4.532L.239,5.9Z" transform="translate(34.572 51.754)" fill="#468a1f"/>
    </g>
    <g id="Group_23" data-name="Group 23" transform="translate(0 73.256)">
      <path id="Path_105-3" data-name="Path 105" d="M14.088,7.331s8.832-4.741,18.7-2.846C39.457,5.765,46.254,11.971,52.51,17.7c3.482,3.188,1.283,5.814,2.236,9.961.827,3.6,3.436,6.6,3.456,10.368.019,3.578-2.756,6.927-3.456,10.164-1.383,6.4-3.659,6.709-11.384,10.368-2.1,1,.069-.275-12.807,0-10.2.218-22.566,3.077-30.29,0C-1.7,57.78-2.118,55.45-3.6,53.885c-1.715-1.813-5.844-4.856-6.505-9.758-.37-2.741.712-7,1.423-10.774C-7.589,27.56-7.13,23.212-3.6,18.919,3.063,10.824,14.088,7.331,14.088,7.331Z" transform="translate(10.307 -4.023)" fill="#468a1f"/>
      <path id="Path_106-3" data-name="Path 106" d="M-7.167,0h8.2V12.031a72.3,72.3,0,0,0,1.43,12.63H-8.96A55.4,55.4,0,0,0-7.167,12.245Z" transform="translate(39.949 53.436)" fill="#468a1f"/>
      <path id="Path_1656" data-name="Path 1656" d="M-5.166,2V12.245A52.388,52.388,0,0,1-6.427,22.661H.059A67.743,67.743,0,0,1-.964,12.032V2h-4.2m-2-2h8.2V12.031a72.3,72.3,0,0,0,1.43,12.63H-8.96A55.4,55.4,0,0,0-7.167,12.245Z" transform="translate(39.933 53.436)"/>
      <path id="Path_1654" data-name="Path 1654" d="M27.982,6.038a30.754,30.754,0,0,0-12.95,3.057l-.165.087-.173.055c-.1.033-10.557,3.43-16.747,10.952-2.823,3.431-3.452,6.9-4.324,11.7l-.337,1.83c-.138.735-.291,1.487-.443,2.244-.6,2.956-1.216,6.014-.963,7.893.454,3.365,2.987,5.774,4.837,7.532.435.413.824.785,1.139,1.118A12.163,12.163,0,0,1-.492,54.875c.574.991.954,1.609,1.5,1.825a23.671,23.671,0,0,0,8.642,1.275c3.423,0,7.228-.36,10.907-.709,3.32-.315,6.753-.64,9.958-.709,1.326-.028,2.494-.04,3.526-.04a55.118,55.118,0,0,1,7.575.371,2.237,2.237,0,0,1,.415.073,4.021,4.021,0,0,0,.477-.211c.888-.421,1.7-.8,2.457-1.145,5.64-2.6,6.813-3.143,7.828-7.838a21.266,21.266,0,0,1,1.722-4.486,13.081,13.081,0,0,0,1.69-5.245,13.194,13.194,0,0,0-1.648-5.3A23.251,23.251,0,0,1,52.8,28.107a15.732,15.732,0,0,1-.264-4.55c.1-1.987.154-2.985-1.374-4.384C45.247,13.761,38.546,7.626,32.414,6.449a23.576,23.576,0,0,0-4.432-.411m0-2a25.5,25.5,0,0,1,4.809.447C39.457,5.764,46.254,11.97,52.51,17.7c3.482,3.188,1.283,5.814,2.236,9.961.827,3.6,3.436,6.6,3.456,10.368.019,3.578-2.756,6.927-3.456,10.164-1.383,6.4-3.659,6.709-11.384,10.368a2.672,2.672,0,0,1-1.224.387,59.392,59.392,0,0,0-8.1-.427c-1.019,0-2.173.012-3.483.04-6.676.142-14.283,1.417-20.907,1.417A25.716,25.716,0,0,1,.264,58.56C-1.7,57.779-2.118,55.449-3.6,53.884c-1.715-1.813-5.844-4.857-6.505-9.759-.37-2.741.712-7,1.423-10.774C-7.589,27.559-7.13,23.211-3.6,18.917,3.063,10.823,14.088,7.33,14.088,7.33A32.468,32.468,0,0,1,27.982,4.037Z" transform="translate(10.178 -4.037)"/>
      <path id="Path_107-3" data-name="Path 107" d="M0,0H4.4V4.764L.252,6.2Z" transform="translate(34.583 50.835)" fill="#468a1f"/>
    </g>
    <g id="Group_3089" data-name="Group 3089" transform="translate(316.37 70.654)">
      <g id="Group_25-2" data-name="Group 25" transform="translate(0 14.823)">
        <path id="Path_105-4" data-name="Path 105" d="M25.387,6.84S18.267,2.8,10.309,4.417C4.935,5.506-.545,10.789-5.588,15.665c-2.807,2.714-1.034,4.949-1.8,8.479-.667,3.061-2.77,5.614-2.786,8.825-.016,3.046,2.222,5.9,2.786,8.652,1.115,5.448,2.95,5.71,9.178,8.825,1.694.847-.055-.234,10.325,0,8.221.185,18.193,2.62,24.42,0,1.582-.665,1.921-2.648,3.114-3.98,1.382-1.543,4.712-4.133,5.245-8.306.3-2.333-.574-5.957-1.147-9.171-.88-4.93-1.249-8.631-4.1-12.286C34.276,9.813,25.387,6.84,25.387,6.84Z" transform="translate(10.399 -4.037)" fill="#468a1f"/>
        <path id="Path_106-4" data-name="Path 106" d="M-1.193,0H-7.807V10.241A64.819,64.819,0,0,1-8.96,20.992H.253A49.584,49.584,0,0,1-1.193,10.423Z" transform="translate(30.218 45.472)" fill="#468a1f"/>
        <path id="Path_1659-2" data-name="Path 1659" d="M-2.722,1.708v8.746a46.612,46.612,0,0,0,1.03,8.893h-5.3a60.332,60.332,0,0,0,.837-9.075V1.708h3.434M-1.087,0h-6.7V10.272A64.372,64.372,0,0,1-8.96,21.055H.379a49.251,49.251,0,0,1-1.465-10.6Z" transform="translate(30.19 45.622)"/>
        <path id="Path_1660-2" data-name="Path 1660" d="M14.518,5.745A24.3,24.3,0,0,1,25.1,8.355l.135.074.141.047c.086.029,8.627,2.928,13.685,9.35,2.307,2.929,2.822,5.892,3.534,9.992l.275,1.563c.113.627.237,1.27.363,1.916.489,2.524.994,5.134.787,6.739-.371,2.873-2.441,4.929-3.953,6.431-.355.353-.674.671-.931.955a10.406,10.406,0,0,0-1.35,2.02c-.469.846-.779,1.374-1.223,1.559A18.587,18.587,0,0,1,29.5,50.088c-2.8,0-5.906-.308-8.913-.605-2.713-.269-5.518-.546-8.137-.6-1.084-.024-2.038-.035-2.881-.035a43.168,43.168,0,0,0-6.19.316,1.757,1.757,0,0,0-.339.062,3.215,3.215,0,0,1-.39-.18c-.727-.359-1.393-.681-2.008-.977-4.609-2.221-5.568-2.684-6.4-6.692a18.672,18.672,0,0,0-1.407-3.83,11.523,11.523,0,0,1-1.381-4.478,11.632,11.632,0,0,1,1.347-4.528,20.419,20.419,0,0,0,1.435-3.95A14,14,0,0,0-5.544,20.7c-.084-1.7-.126-2.548,1.123-3.743C.41,12.339,5.885,7.1,10.9,6.1a18.466,18.466,0,0,1,3.622-.351m0-1.708a19.971,19.971,0,0,0-3.93.382C5.141,5.511-.414,10.81-5.526,15.7c-2.846,2.722-1.048,4.964-1.827,8.5-.676,3.071-2.807,5.632-2.824,8.852-.016,3.055,2.253,5.914,2.824,8.678,1.13,5.465,2.99,5.728,9.3,8.852a2.117,2.117,0,0,0,1,.331,46.467,46.467,0,0,1,6.619-.365c.833,0,1.776.01,2.846.034,5.456.122,11.672,1.21,17.085,1.21a20.19,20.19,0,0,0,7.667-1.21c1.6-.668,1.947-2.656,3.156-3.992,1.4-1.548,4.776-4.146,5.316-8.331.3-2.34-.581-5.975-1.163-9.2-.892-4.945-1.266-8.657-4.153-12.323C34.881,9.831,25.871,6.849,25.871,6.849A25.647,25.647,0,0,0,14.518,4.037Z" transform="translate(10.177 -4.037)"/>
        <path id="Path_107-4" data-name="Path 107" d="M3.549,0H0V4.055L3.346,5.28Z" transform="translate(24.024 43.258)" fill="#468a1f"/>
      </g>
      <g id="Group_24-2" data-name="Group 24" transform="translate(25.719 6.003)">
        <path id="Path_105-5" data-name="Path 105" d="M31.616,7.169S23.249,2.66,13.9,4.462C7.582,5.679,1.143,11.583-4.785,17.031-8.084,20.063-6,22.56-6.9,26.5c-.783,3.421-3.255,6.274-3.274,9.861-.018,3.4,2.611,6.589,3.274,9.668,1.31,6.088,3.467,6.381,10.785,9.861,1.991.947-.065-.262,12.134,0,9.661.207,21.38,2.927,28.7,0,1.859-.743,2.257-2.959,3.659-4.447,1.625-1.724,5.537-4.618,6.163-9.281.35-2.607-.674-6.657-1.348-10.247-1.034-5.509-1.468-9.645-4.815-13.729C42.062,10.492,31.616,7.169,31.616,7.169Z" transform="translate(12.244 -3.021)" fill="#468a1f"/>
        <path id="Path_106-5" data-name="Path 106" d="M.169,0H-7.6V11.444A69.028,69.028,0,0,1-8.958,23.457H1.868a52.88,52.88,0,0,1-1.7-11.81Z" transform="translate(35.746 51.827)" fill="#468a1f"/>
        <path id="Path_1657-2" data-name="Path 1657" d="M-1.327,2V12.245A52.388,52.388,0,0,0-.067,22.661H-6.554A67.743,67.743,0,0,0-5.53,12.032V2h4.2m2-2h-8.2V12.031a72.3,72.3,0,0,1-1.43,12.63H2.467A55.394,55.394,0,0,1,.674,12.245Z" transform="translate(34.941 53.436)"/>
        <path id="Path_1658-2" data-name="Path 1658" d="M20.043,6.038a30.754,30.754,0,0,1,12.95,3.057l.165.087.173.055c.1.033,10.557,3.43,16.747,10.952,2.823,3.431,3.452,6.9,4.324,11.7l.336,1.83c.138.735.291,1.487.443,2.244.6,2.956,1.216,6.014.963,7.893-.454,3.365-2.987,5.774-4.837,7.532-.435.413-.824.785-1.139,1.118a12.163,12.163,0,0,0-1.652,2.366c-.574.991-.954,1.609-1.5,1.825a23.671,23.671,0,0,1-8.642,1.275c-3.423,0-7.228-.36-10.907-.709-3.32-.315-6.753-.64-9.958-.709-1.326-.028-2.494-.04-3.526-.04a55.118,55.118,0,0,0-7.575.371A2.236,2.236,0,0,0,6,56.961a4.02,4.02,0,0,1-.477-.211c-.888-.421-1.7-.8-2.457-1.145-5.64-2.6-6.813-3.143-7.828-7.838a21.266,21.266,0,0,0-1.722-4.486,13.061,13.061,0,0,1-1.689-5.244,13.194,13.194,0,0,1,1.648-5.3,23.25,23.25,0,0,0,1.757-4.626,15.731,15.731,0,0,0,.264-4.55c-.1-1.987-.154-2.985,1.374-4.384C2.778,13.761,9.478,7.626,15.611,6.449a23.576,23.576,0,0,1,4.432-.411m0-2a25.5,25.5,0,0,0-4.809.447C8.568,5.763,1.77,11.97-4.485,17.7c-3.482,3.188-1.283,5.814-2.236,9.961-.827,3.6-3.436,6.6-3.456,10.368C-10.2,41.6-7.421,44.954-6.721,48.191c1.383,6.4,3.659,6.709,11.384,10.368a2.672,2.672,0,0,0,1.224.387,59.392,59.392,0,0,1,8.1-.427c1.019,0,2.173.012,3.483.04,6.676.142,14.283,1.417,20.907,1.417a25.716,25.716,0,0,0,9.383-1.417c1.962-.781,2.383-3.111,3.862-4.676,1.715-1.813,5.844-4.856,6.505-9.758.37-2.741-.712-7-1.423-10.774-1.091-5.792-1.55-10.14-5.082-14.434C44.963,10.823,33.937,7.33,33.937,7.33A32.465,32.465,0,0,0,20.043,4.037Z" transform="translate(10.178 -4.037)"/>
        <path id="Path_107-5" data-name="Path 107" d="M4.171,0H0V4.532L3.932,5.9Z" transform="translate(29.638 51.754)" fill="#468a1f"/>
      </g>
      <g id="Group_23-2" data-name="Group 23" transform="translate(55.406 0)">
        <path id="Path_105-6" data-name="Path 105" d="M33.937,7.331S25.1,2.591,15.234,4.486C8.568,5.765,1.77,11.971-4.485,17.7c-3.482,3.188-1.283,5.814-2.236,9.961-.827,3.6-3.436,6.6-3.456,10.368-.019,3.578,2.756,6.927,3.456,10.164,1.383,6.4,3.659,6.709,11.384,10.368,2.1,1-.069-.275,12.807,0,10.2.218,22.566,3.077,30.29,0,1.962-.781,2.383-3.111,3.862-4.676,1.715-1.813,5.844-4.856,6.505-9.758.37-2.741-.712-7-1.423-10.774-1.091-5.792-1.55-10.14-5.082-14.434C44.962,10.824,33.937,7.331,33.937,7.331Z" transform="translate(10.178 -4.023)" fill="#468a1f"/>
        <path id="Path_106-6" data-name="Path 106" d="M.674,0h-8.2V12.031a72.3,72.3,0,0,1-1.43,12.63H2.467A55.394,55.394,0,0,1,.674,12.245Z" transform="translate(35.054 53.436)" fill="#468a1f"/>
        <path id="Path_1656-2" data-name="Path 1656" d="M-1.327,2V12.245A52.388,52.388,0,0,0-.067,22.661H-6.554A67.743,67.743,0,0,0-5.53,12.032V2h4.2m2-2h-8.2V12.031a72.3,72.3,0,0,1-1.43,12.63H2.467A55.394,55.394,0,0,1,.674,12.245Z" transform="translate(35.07 53.436)"/>
        <path id="Path_1654-2" data-name="Path 1654" d="M20.043,6.038a30.754,30.754,0,0,1,12.95,3.057l.165.087.173.055c.1.033,10.557,3.43,16.747,10.952,2.823,3.431,3.452,6.9,4.324,11.7l.336,1.83c.138.735.291,1.487.443,2.244.6,2.956,1.216,6.014.963,7.893-.454,3.365-2.987,5.774-4.837,7.532-.435.413-.824.785-1.139,1.118a12.163,12.163,0,0,0-1.652,2.366c-.574.991-.954,1.609-1.5,1.825a23.671,23.671,0,0,1-8.642,1.275c-3.423,0-7.228-.36-10.907-.709-3.32-.315-6.753-.64-9.958-.709-1.326-.028-2.494-.04-3.526-.04a55.118,55.118,0,0,0-7.575.371A2.236,2.236,0,0,0,6,56.961a4.02,4.02,0,0,1-.477-.211c-.888-.421-1.7-.8-2.457-1.145-5.64-2.6-6.813-3.143-7.828-7.838a21.266,21.266,0,0,0-1.722-4.486,13.061,13.061,0,0,1-1.689-5.244,13.194,13.194,0,0,1,1.648-5.3,23.25,23.25,0,0,0,1.757-4.626,15.731,15.731,0,0,0,.264-4.55c-.1-1.987-.154-2.985,1.374-4.384C2.778,13.761,9.478,7.626,15.611,6.449a23.576,23.576,0,0,1,4.432-.411m0-2a25.5,25.5,0,0,0-4.809.447C8.568,5.763,1.77,11.97-4.485,17.7c-3.482,3.188-1.283,5.814-2.236,9.961-.827,3.6-3.436,6.6-3.456,10.368C-10.2,41.6-7.421,44.954-6.721,48.191c1.383,6.4,3.659,6.709,11.384,10.368a2.672,2.672,0,0,0,1.224.387,59.392,59.392,0,0,1,8.1-.427c1.019,0,2.173.012,3.483.04,6.676.142,14.283,1.417,20.907,1.417a25.716,25.716,0,0,0,9.383-1.417c1.962-.781,2.383-3.111,3.862-4.676,1.715-1.813,5.844-4.856,6.505-9.758.37-2.741-.712-7-1.423-10.774-1.091-5.792-1.55-10.14-5.082-14.434C44.963,10.823,33.937,7.33,33.937,7.33A32.465,32.465,0,0,0,20.043,4.037Z" transform="translate(10.306 -4.037)"/>
        <path id="Path_107-6" data-name="Path 107" d="M4.4,0H0V4.764L4.15,6.2Z" transform="translate(29.524 50.835)" fill="#468a1f"/>
      </g>
    </g>
  </g>
  <g id="Mask_Group_38" data-name="Mask Group 38" transform="translate(14.416 0)" clip-path="url(#clip-path)">
    <g id="Group_3271" data-name="Group 3271" transform="translate(-3.256 95.337)">
      <path id="Path_108" data-name="Path 108" d="M-7.949-70.925,11.77-79.056l11.994,4.879L49.582-81.7l9.555,5.286,18.5-2.642,8.537,4.065,4.27-4.065,13.214,4.879,6.709-3.659,16.873,2.846,140.677,8.742L287.23-79.87l5.692,1.22,9.554-3.658,18.3,2.44,10.978-2.44,9.148,2.44L357.484-85.5l8.612,3.488L384.6-89.058l8.581,3.2,16.047-6.691,14.236,6.691.005,90.071H-7.949Z" transform="translate(7.969 185.506)" fill="#adf69d"/>
      <path id="Path_1652" data-name="Path 1652" d="M409.183-90.365l-15.228,6.35-.728.3-.74-.277-7.874-2.94-17.8,6.778-.734.28-.728-.3-7.924-3.208-15.881,5.392-.574.195-.584-.156-8.678-2.313-10.5,2.333-.346.077-.352-.047-17.792-2.372-9.079,3.477-.554.212-.58-.124-4.836-1.037-18.6,13.116-.574.406-.7-.044L167.817-70.47,127.115-73l-.105-.007-.1-.018-16.19-2.73-6.1,3.327-.8.436-.854-.315L90.921-76.753l-3.366,3.206-1,.95-1.243-.592L77.322-77l-17.9,2.557-.664.1-.587-.325-8.826-4.882L24.324-72.262l-.669.195-.645-.262L11.775-76.9-5.948-69.592v71.8H421.471l-.006-86.8-12.282-5.773m.048-2.188,14.236,6.691.006,90.071H-7.949v-75.14L11.77-79.062l11.994,4.879,25.818-7.522,9.555,5.285,18.5-2.642L86.175-75l4.269-4.066,13.214,4.879,6.709-3.659L127.239-75l140.677,8.742,19.312-13.621,5.693,1.22,9.555-3.659,18.3,2.44,10.978-2.439,9.147,2.44,16.587-5.631,8.612,3.488L384.6-89.064l8.581,3.2Z" transform="translate(7.949 185.533)"/>
      <path id="Path_2409" data-name="Path 2409" d="M-314.23-26.785s41.983-9.379,80.84-9.379,74.587,9.379,74.587,9.379A400.13,400.13,0,0,1-111.46,28.6c21.885,31.376,40.2,70.121,40.2,70.121h-324.7s13.622-38.745,33.051-70.121S-314.23-26.785-314.23-26.785Z" transform="translate(446.808 136.805)" fill="#fdc2c6"/>
      <path id="Path_2410" data-name="Path 2410" d="M-233.39-34.163c-36,0-75.216,8.212-79.934,9.229-3.417,2.876-30.015,25.721-47.887,54.585-16.18,26.131-28.449,57.8-31.892,67.066H-74.456C-79.117,87.2-94.967,55.741-113.1,29.742a403.044,403.044,0,0,0-46.7-54.717c-4.434-1.112-37.875-9.188-73.585-9.188m0-2c38.857,0,74.587,9.379,74.587,9.379A400.135,400.135,0,0,1-111.46,28.6c21.885,31.376,40.2,70.121,40.2,70.121h-324.7s13.622-38.745,33.051-70.121,48.683-55.382,48.683-55.382S-272.247-36.164-233.39-36.164Z" transform="translate(446.793 136.67)"/>
      <path id="Path_2411" data-name="Path 2411" d="M48.61,3.9c15.124.27,49.634,73.173,45.949,82.463s-91.425,7.616-96.051,0S33.484,3.633,48.61,3.9Z" transform="translate(165.39 -3.902)" fill="#f7bb06"/>
      <g id="Group_3278" data-name="Group 3278" transform="translate(128.461 119.66)">
        <path id="Path_103" data-name="Path 103" d="M-4.971-27.258H42.6L87-43.115l56.291,15.857L112.9,9.212,74.577-1.095,48.414,9.212H13l-34.092-19.82Z" transform="translate(21.092 43.115)" fill="#f56960"/>
        <g id="Path_104" data-name="Path 104" transform="translate(20.472 21.407)">
          <path id="Path_9360" data-name="Path 9360" d="M82.068,5.143,47.424,5.095,33.55-2.753,73.891-12.79l25.621,1.585.03,0,.025-.016,19-12.4,46.838,5.276-5.972,7.318L146.113,5.022,108.335-5.147l-.029-.008-.028.011Z" transform="translate(-33.307 23.717)" fill="#1e3888"/>
          <path id="Path_9361" data-name="Path 9361" d="M80.956,4.629,107.151-5.651l.056-.022.058.016L144.985,4.5,158.27-11.511h0l5.866-7.188L117.5-23.952,98.523-11.567l-.051.033-.06,0L72.805-13.122,32.7-3.143,46.353,4.581l34.6.049m.034.182L46.305,4.762,32.212-3.21,72.788-13.3l25.635,1.586L117.451-24.14l47.036,5.3-6.078,7.447L145.05,4.7,107.217-5.482Z" transform="translate(-32.212 24.14)" fill="#1e3888"/>
        </g>
        <path id="Path_1648" data-name="Path 1648" d="M87.069-41.016l-43.8,15.642-.327.117H-4.124l-13.752,14.2L13.539,7.211H48.033L73.843-2.957l.615-.242.638.172,37.082,9.975,27.6-33.116L87.069-41.016M87-43.115l56.293,15.857L112.9,9.212,74.577-1.095,48.414,9.212H13l-34.092-19.82,16.121-16.65H42.6Z" transform="translate(21.129 43.161)"/>
      </g>
      <g id="Group_3279" data-name="Group 3279" transform="translate(201.918 32.037)">
        <g id="Path_69" data-name="Path 69" transform="translate(20.011 35.681) rotate(180)">
          <path id="Path_9362" data-name="Path 9362" d="M19.782,35.5H0L8.2,0H11.39Z" transform="translate(0.114 0.091)"/>
          <path id="Path_9363" data-name="Path 9363" d="M8.39.182.228,35.5H19.781L11.432.182H8.39M8.245,0h3.331l8.435,35.681H0Z" transform="translate(0 0)"/>
        </g>
        <g id="Rectangle_1" data-name="Rectangle 1" transform="translate(7.404 38.821)" stroke="#000" stroke-width="1">
          <rect width="5.203" height="4.603" rx="2.301" stroke="none"/>
          <rect x="0.5" y="0.5" width="4.203" height="3.603" rx="1.801" fill="none"/>
        </g>
      </g>
      <g id="Rectangle_1170" data-name="Rectangle 1170" transform="translate(207.121 85.866)" fill="#450920" stroke="#000" stroke-width="10">
        <rect id="fill" width="9.405" height="96.652" rx="4.703" stroke="none"/>
        <path d="M0,5h9.405038833618164M5,0v96.65178680419922M9.405038833618164,91.65178680419922h-9.405038833618164M4.405038833618164,96.65178680419922v-96.65178680419922" fill="none" clip-path="url(#clip)"/>
      </g>
      <path id="Path_2412" data-name="Path 2412" d="M48.549,9.712c-3.092.63-12.923,10.3-26.547,33.921C11.286,62.21,5.12,77.436,4.086,83.011c5.529,1.8,22.6,3.906,46.181,3.906,22.205,0,34.736-1.95,38.722-3.465-.581-5.275-5.959-20.727-15.857-39.707C60.763,20.026,51.472,10.31,48.549,9.712M48.525,3.9h.082c15.124.27,49.634,73.173,45.949,82.463-1.752,4.417-22.5,6.356-44.29,6.356-24.039,0-49.335-2.36-51.762-6.356C-6.112,78.761,33.339,3.9,48.525,3.9Z" transform="translate(165.539 -3.861)"/>
      <g id="Group_3280" data-name="Group 3280" transform="translate(154.767 125.221)">
        <path id="Path_109" data-name="Path 109" d="M-2607.63,6909.1l3.2,2.634-.783,5.837.444,2.359" transform="translate(2607.63 -6885.202)" fill="none" stroke="#000" stroke-width="5"/>
        <path id="Path_110" data-name="Path 110" d="M-2386.47,6882.078v-4.983l4.052-1.971-2.683-4.106" transform="translate(2430.726 -6854.74)" fill="none" stroke="#000" stroke-width="5"/>
        <path id="Path_111" data-name="Path 111" d="M-2386.47,6882.078v-4.983l4.052-1.971-2.683-4.106" transform="translate(2481.953 -6864.345)" fill="none" stroke="#000" stroke-width="5"/>
        <path id="Path_112" data-name="Path 112" d="M-2129.66,6853.127l5.8,1.814,1.62-2.43,2.916,2.624" transform="translate(2225.305 -6839.937)" fill="none" stroke="#000" stroke-width="5"/>
        <path id="Path_113" data-name="Path 113" d="M-2546.95,6849.67v5" transform="translate(2559.092 -6837.664)" fill="none" stroke="#000" stroke-width="5"/>
        <path id="Path_114" data-name="Path 114" d="M-2532.62,6849.67v2.775" transform="translate(2546.63 -6837.664)" fill="none" stroke="#000" stroke-width="5"/>
        <path id="Path_115" data-name="Path 115" d="M-2546.95,6849.67v5" transform="translate(2615.723 -6849.67)" fill="none" stroke="#000" stroke-width="5"/>
        <path id="Path_116" data-name="Path 116" d="M-2532.62,6849.67v2.775" transform="translate(2603.26 -6849.67)" fill="none" stroke="#000" stroke-width="5"/>
      </g>
    </g>
  </g>
</svg>
